<?xml version="1.0" encoding="utf-8"?>
<!-- Generator: Adobe Illustrator 27.3.1, SVG Export Plug-In . SVG Version: 6.00 Build 0)  -->
<svg version="1.1" id="Layer_1" xmlns="http://www.w3.org/2000/svg" xmlns:xlink="http://www.w3.org/1999/xlink" x="0px" y="0px"
	 viewBox="0 0 200 40" style="enable-background:new 0 0 200 40;" xml:space="preserve">
<style type="text/css">
	.st0{fill:#FFFFFF;}
	.st1{fill:#161618;}
	.st2{fill:#009A49;}
	.st3{enable-background:new    ;}
	.st4{fill:#F58220;}
</style>
<g>
	<path class="st0" d="M5.1,23H2L8.6,2.7h3L5.1,23z"/>
	<path class="st0" d="M15.8,17.9c0.7,0,1.2-0.1,1.6-0.2s0.6-0.3,0.6-0.6c0-0.2-0.1-0.4-0.2-0.5s-0.3-0.3-0.5-0.4s-0.5-0.2-0.7-0.3
		c-0.3-0.1-0.6-0.2-0.9-0.3c-0.4-0.1-0.9-0.3-1.3-0.4c-0.4-0.2-0.8-0.4-1.2-0.6c-0.4-0.3-0.7-0.6-0.9-1s-0.4-0.9-0.4-1.4
		s0.1-0.9,0.3-1.3c0.2-0.4,0.5-0.8,0.8-1.1c0.5-0.3,1-0.6,1.6-0.8s1.3-0.3,2.1-0.3c0.7,0,1.4,0.1,2,0.2s1.2,0.3,1.6,0.5l-0.4,2.5
		c-0.3-0.1-0.7-0.2-1.2-0.4c-0.6-0.2-1.2-0.3-1.9-0.3c-0.7,0-1.2,0.1-1.5,0.3s-0.4,0.4-0.4,0.6c0,0.2,0.1,0.3,0.2,0.5
		c0.1,0.1,0.3,0.3,0.5,0.4c0.2,0.1,0.4,0.2,0.7,0.3s0.5,0.2,0.8,0.3c0.4,0.1,0.9,0.3,1.3,0.5c0.5,0.2,0.9,0.4,1.2,0.6
		c0.4,0.3,0.7,0.6,0.9,1c0.2,0.4,0.4,0.9,0.4,1.5c0,0.5-0.1,0.9-0.3,1.3c-0.2,0.4-0.5,0.8-0.9,1.1s-0.9,0.5-1.6,0.7
		c-0.6,0.2-1.4,0.3-2.4,0.3s-1.8-0.1-2.5-0.3c-0.7-0.2-1.2-0.4-1.6-0.6l0.4-2.4c0.6,0.2,1.1,0.4,1.8,0.6
		C14.6,17.8,15.2,17.9,15.8,17.9z"/>
	<path class="st0" d="M22.4,14.7c0-1,0.1-1.8,0.4-2.6c0.3-0.7,0.7-1.4,1.2-1.9s1-0.9,1.7-1.1c0.6-0.3,1.3-0.4,1.9-0.4
		c1.6,0,2.9,0.5,3.7,1.4c0.8,1,1.3,2.4,1.3,4.2c0,0.2,0,0.4,0,0.6c0,0.2,0,0.4,0,0.5h-7.2c0,0.7,0.3,1.3,0.9,1.7s1.4,0.6,2.3,0.6
		c0.6,0,1.1-0.1,1.7-0.2c0.5-0.1,1-0.3,1.3-0.4l0.4,2.5c-0.5,0.2-1,0.3-1.6,0.4s-1.2,0.2-1.9,0.2c-0.9,0-1.8-0.1-2.5-0.4
		c-0.7-0.2-1.4-0.6-1.9-1.1s-0.9-1.1-1.2-1.8C22.5,16.4,22.4,15.6,22.4,14.7z M29.8,13.5c0-0.3,0-0.6-0.1-0.9
		c-0.1-0.3-0.2-0.5-0.4-0.7c-0.2-0.2-0.4-0.4-0.7-0.5c-0.3-0.1-0.6-0.2-1-0.2s-0.7,0.1-1,0.2c-0.3,0.1-0.5,0.3-0.7,0.5
		s-0.3,0.5-0.4,0.8s-0.2,0.6-0.2,0.9h4.5C29.8,13.6,29.8,13.5,29.8,13.5z"/>
	<path class="st0" d="M43.1,12c-0.2,0-0.4-0.1-0.7-0.1s-0.5-0.1-0.8-0.1s-0.5-0.1-0.8-0.1s-0.5,0-0.6,0c-0.4,0-0.8,0-1.2,0.1
		c-0.4,0-0.8,0.1-1.2,0.2v8.2h-2.9V9.8c0.8-0.3,1.6-0.5,2.4-0.7c0.8-0.2,1.8-0.3,2.8-0.3c0.2,0,0.4,0,0.7,0s0.6,0,0.9,0.1
		c0.3,0,0.7,0.1,1,0.1c0.3,0.1,0.6,0.1,0.9,0.2L43.1,12z"/>
	<path class="st0" d="M49,20.1c-0.7-1.4-1.4-3-2.2-4.9c-0.7-1.9-1.4-3.9-2.1-6.2h3c0.1,0.6,0.3,1.2,0.5,1.9s0.4,1.4,0.6,2
		c0.2,0.7,0.4,1.3,0.7,2c0.2,0.6,0.4,1.2,0.6,1.8c0.2-0.5,0.4-1.1,0.7-1.8c0.3-0.6,0.5-1.3,0.7-2s0.5-1.4,0.7-2
		c0.2-0.7,0.4-1.3,0.6-1.9h2.9c-0.7,2.2-1.4,4.3-2.2,6.2s-1.6,3.5-2.3,4.9H49z"/>
	<path class="st0" d="M56.4,14.7c0-1,0.1-1.8,0.4-2.6c0.3-0.7,0.7-1.4,1.2-1.9s1-0.9,1.7-1.1c0.6-0.3,1.3-0.4,1.9-0.4
		c1.6,0,2.9,0.5,3.7,1.4c0.8,1,1.3,2.4,1.3,4.2c0,0.2,0,0.4,0,0.6c0,0.2,0,0.4,0,0.5h-7.2c0,0.7,0.3,1.3,0.9,1.7
		c0.6,0.4,1.4,0.6,2.3,0.6c0.6,0,1.1-0.1,1.7-0.2c0.5-0.1,1-0.3,1.3-0.4l0.4,2.5c-0.5,0.2-1,0.3-1.6,0.4s-1.2,0.2-1.9,0.2
		c-0.9,0-1.8-0.1-2.5-0.4c-0.7-0.2-1.4-0.6-1.9-1.1s-0.9-1.1-1.2-1.8C56.5,16.4,56.4,15.6,56.4,14.7z M63.8,13.5
		c0-0.3,0-0.6-0.1-0.9c-0.1-0.3-0.2-0.5-0.4-0.7s-0.4-0.4-0.7-0.5s-0.6-0.2-1-0.2s-0.7,0.1-1,0.2c-0.3,0.1-0.5,0.3-0.7,0.5
		s-0.3,0.5-0.4,0.8c-0.1,0.3-0.2,0.6-0.2,0.9h4.5C63.8,13.6,63.8,13.5,63.8,13.5z"/>
	<path class="st0" d="M77.1,12c-0.2,0-0.4-0.1-0.7-0.1c-0.3,0-0.5-0.1-0.8-0.1s-0.5-0.1-0.8-0.1s-0.5,0-0.6,0c-0.4,0-0.8,0-1.2,0.1
		c-0.4,0-0.8,0.1-1.2,0.2v8.2h-2.9V9.8c0.8-0.3,1.6-0.5,2.4-0.7C72,8.9,73,8.8,74.1,8.8c0.2,0,0.4,0,0.7,0c0.3,0,0.6,0,0.9,0.1
		s0.7,0.1,1,0.1c0.3,0.1,0.6,0.1,0.9,0.2L77.1,12z"/>
	<path class="st0" d="M87.6,19.7c0,0-0.2,0.1-0.3,0.2c-0.2,0.1-0.4,0.2-0.6,0.2c-0.3,0.1-0.6,0.2-1,0.2c-0.4,0.1-0.8,0.1-1.3,0.1
		c-1.3,0-2.3-0.4-2.9-1.2c-0.6-0.8-0.9-2-0.9-3.5V6.3h-3.1V3.9h6v12c0,0.8,0.1,1.3,0.4,1.5c0.3,0.3,0.7,0.4,1.1,0.4
		c0.6,0,1.1-0.1,1.5-0.2c0.4-0.2,0.7-0.3,0.8-0.3L87.6,19.7z"/>
	<path class="st0" d="M88.5,14.7c0-1,0.1-1.8,0.4-2.6c0.3-0.7,0.7-1.4,1.2-1.9s1-0.9,1.7-1.1c0.6-0.3,1.3-0.4,1.9-0.4
		c1.6,0,2.9,0.5,3.7,1.4c0.8,1,1.3,2.4,1.3,4.2c0,0.2,0,0.4,0,0.6c0,0.2,0,0.4,0,0.5h-7.2c0,0.7,0.3,1.3,0.9,1.7s1.4,0.6,2.3,0.6
		c0.6,0,1.1-0.1,1.7-0.2c0.5-0.1,1-0.3,1.3-0.4l0.4,2.5c-0.5,0.2-1,0.3-1.6,0.4s-1.2,0.2-1.9,0.2c-0.9,0-1.8-0.1-2.5-0.4
		c-0.7-0.2-1.4-0.6-1.9-1.1s-0.9-1.1-1.2-1.8C88.6,16.4,88.5,15.6,88.5,14.7z M95.9,13.5c0-0.3,0-0.6-0.1-0.9
		c-0.1-0.3-0.2-0.5-0.4-0.7c-0.2-0.2-0.4-0.4-0.7-0.5c-0.3-0.1-0.6-0.2-1-0.2s-0.7,0.1-1,0.2c-0.3,0.1-0.5,0.3-0.7,0.5
		s-0.3,0.5-0.4,0.8s-0.2,0.6-0.2,0.9h4.5C95.9,13.6,95.9,13.5,95.9,13.5z"/>
	<path class="st0" d="M104.4,17.9c0.7,0,1.2-0.1,1.6-0.2s0.6-0.3,0.6-0.6c0-0.2-0.1-0.4-0.2-0.5s-0.3-0.3-0.5-0.4s-0.5-0.2-0.7-0.3
		c-0.3-0.1-0.6-0.2-0.9-0.3c-0.4-0.1-0.9-0.3-1.3-0.4c-0.4-0.2-0.8-0.4-1.2-0.6c-0.4-0.3-0.7-0.6-0.9-1c-0.2-0.4-0.4-0.9-0.4-1.4
		s0.1-0.9,0.3-1.3c0.2-0.4,0.5-0.8,0.8-1.1c0.4-0.3,0.9-0.6,1.5-0.8s1.3-0.3,2.1-0.3c0.7,0,1.4,0.1,2,0.2s1.2,0.3,1.6,0.5l-0.4,2.5
		c-0.3-0.1-0.7-0.2-1.2-0.4c-0.6-0.2-1.2-0.3-1.9-0.3c-0.7,0-1.2,0.1-1.5,0.3s-0.4,0.4-0.4,0.6c0,0.2,0.1,0.3,0.2,0.5
		c0.1,0.1,0.3,0.3,0.5,0.4c0.2,0.1,0.4,0.2,0.7,0.3c0.3,0.1,0.5,0.2,0.8,0.3c0.4,0.1,0.9,0.3,1.3,0.5c0.5,0.2,0.9,0.4,1.2,0.6
		c0.4,0.3,0.7,0.6,0.9,1s0.4,0.9,0.4,1.5c0,0.5-0.1,0.9-0.3,1.3c-0.2,0.4-0.5,0.8-0.9,1.1s-0.9,0.5-1.6,0.7s-1.4,0.3-2.4,0.3
		s-1.8-0.1-2.5-0.3c-0.7-0.2-1.2-0.4-1.6-0.6l0.4-2.4c0.6,0.2,1.1,0.4,1.8,0.6C103.1,17.8,103.7,17.9,104.4,17.9z"/>
	<path class="st0" d="M115.2,17.9c0.7,0,1.2-0.1,1.6-0.2s0.6-0.3,0.6-0.6c0-0.2-0.1-0.4-0.2-0.5s-0.3-0.3-0.5-0.4s-0.5-0.2-0.7-0.3
		c-0.3-0.1-0.6-0.2-0.9-0.3c-0.4-0.1-0.9-0.3-1.3-0.4c-0.4-0.2-0.8-0.4-1.2-0.6c-0.4-0.3-0.7-0.6-0.9-1c-0.2-0.4-0.4-0.9-0.4-1.4
		s0.1-0.9,0.3-1.3c0.2-0.4,0.5-0.8,0.8-1.1c0.4-0.3,0.9-0.6,1.5-0.8s1.3-0.3,2.1-0.3c0.7,0,1.4,0.1,2,0.2s1.2,0.3,1.6,0.5l-0.4,2.5
		c-0.3-0.1-0.7-0.2-1.2-0.4c-0.6-0.2-1.2-0.3-1.9-0.3c-0.7,0-1.2,0.1-1.5,0.3s-0.4,0.4-0.4,0.6c0,0.2,0.1,0.3,0.2,0.5
		c0.1,0.1,0.3,0.3,0.5,0.4c0.2,0.1,0.4,0.2,0.7,0.3c0.3,0.1,0.5,0.2,0.8,0.3c0.4,0.1,0.9,0.3,1.3,0.5c0.5,0.2,0.9,0.4,1.2,0.6
		c0.4,0.3,0.7,0.6,0.9,1s0.4,0.9,0.4,1.5c0,0.5-0.1,0.9-0.3,1.3c-0.2,0.4-0.5,0.8-0.9,1.1s-0.9,0.5-1.6,0.7s-1.4,0.3-2.4,0.3
		s-1.8-0.1-2.5-0.3c-0.7-0.2-1.2-0.4-1.6-0.6l0.4-2.4c0.6,0.2,1.1,0.4,1.8,0.6C113.9,17.8,114.5,17.9,115.2,17.9z"/>
	<path class="st0" d="M124.2,23h-3l6.6-20.4h3L124.2,23z"/>
</g>
<polygon class="st0" points="192,23.2 129.3,23.2 135.3,2.4 198,2.4 "/>
<g>
	<g>
		<path class="st1" d="M140.6,6.5h5.1c4.1,0,6.9,2.6,6.9,6.5s-2.8,6.5-6.9,6.5h-5.1V6.5z M145.7,17c2.6,0,4.1-1.8,4.1-4
			c0-2.3-1.4-4.1-4.1-4.1h-2.3V17H145.7z"/>
		<path class="st1" d="M162.2,17.2h-5.8l-0.8,2.2h-3l5-12.9h3.5l5,12.9h-3L162.2,17.2z M157.1,14.8h4.3l-2.1-5.9L157.1,14.8z"/>
		<path class="st1" d="M169.3,14.1l-5-7.6h3.1l3.2,5.2l3.2-5.2h3.1l-5,7.6v5.3h-2.8v-5.3C169.1,14.1,169.3,14.1,169.3,14.1z"/>
		<path class="st1" d="M178.2,15.5c0.9,1,2.3,1.7,4.1,1.7c1.5,0,2.3-0.7,2.3-1.5c0-1-1.1-1.3-2.6-1.7c-2.1-0.5-4.8-1.1-4.8-4
			c0-2.2,1.9-3.9,4.9-3.9c2.1,0,3.8,0.6,5,1.8l-1.5,2c-1-1-2.4-1.4-3.7-1.4c-1.2,0-1.9,0.5-1.9,1.3c0,0.9,1.1,1.1,2.6,1.5
			c2.1,0.5,4.9,1.1,4.9,4c0,2.4-1.7,4.2-5.2,4.2c-2.5,0-4.3-0.8-5.5-2.1L178.2,15.5z"/>
	</g>
</g>
<path class="st2" d="M117.1,23.9h-4.9c-0.4,0-0.7-0.3-0.7-0.7s0.3-0.7,0.7-0.7h4.9c0.4,0,0.7,0.3,0.7,0.7S117.5,23.9,117.1,23.9z
	 M108.1,23.9h-4.9c-0.4,0-0.7-0.3-0.7-0.7s0.3-0.7,0.7-0.7h4.9c0.4,0,0.7,0.3,0.7,0.7S108.5,23.9,108.1,23.9z M99.1,23.9h-4.9
	c-0.4,0-0.7-0.3-0.7-0.7s0.3-0.7,0.7-0.7h4.9c0.4,0,0.7,0.3,0.7,0.7S99.5,23.9,99.1,23.9z M90.1,23.9h-4.9c-0.4,0-0.7-0.3-0.7-0.7
	s0.3-0.7,0.7-0.7h4.9c0.4,0,0.7,0.3,0.7,0.7S90.5,23.9,90.1,23.9z M81.1,23.9h-4.9c-0.4,0-0.7-0.3-0.7-0.7s0.3-0.7,0.7-0.7h4.9
	c0.4,0,0.7,0.3,0.7,0.7S81.4,23.9,81.1,23.9z M72,23.9h-4.9c-0.4,0-0.7-0.3-0.7-0.7s0.3-0.7,0.7-0.7H72c0.4,0,0.7,0.3,0.7,0.7
	S72.4,23.9,72,23.9z M63,23.9h-4.9c-0.4,0-0.7-0.3-0.7-0.7s0.3-0.7,0.7-0.7H63c0.4,0,0.7,0.3,0.7,0.7S63.4,23.9,63,23.9z M54,23.9
	h-4.9c-0.4,0-0.7-0.3-0.7-0.7s0.3-0.7,0.7-0.7H54c0.4,0,0.7,0.3,0.7,0.7S54.4,23.9,54,23.9z M45,23.9h-4.9c-0.4,0-0.7-0.3-0.7-0.7
	s0.3-0.7,0.7-0.7H45c0.4,0,0.7,0.3,0.7,0.7S45.4,23.9,45,23.9z M36,23.9h-4.9c-0.4,0-0.7-0.3-0.7-0.7s0.3-0.7,0.7-0.7H36
	c0.4,0,0.7,0.3,0.7,0.7S36.4,23.9,36,23.9z M27,23.9h-4.9c-0.4,0-0.7-0.3-0.7-0.7s0.3-0.7,0.7-0.7H27c0.4,0,0.7,0.3,0.7,0.7
	S27.4,23.9,27,23.9z M18,23.9h-4.9c-0.4,0-0.7-0.3-0.7-0.7s0.3-0.7,0.7-0.7H18c0.4,0,0.7,0.3,0.7,0.7S18.4,23.9,18,23.9z"/>
<g class="st3">
	<path class="st4" d="M146.3,34.3v-7.4h1.6v7.4H146.3z"/>
	<path class="st4" d="M153.5,34.3l-1.5-2.7h-1.2v2.7h-1.6v-7.4h3.5c1.5,0,2.5,1,2.5,2.4c0,1.3-0.8,2-1.6,2.2l1.7,2.8H153.5z
		 M152.6,28.2h-1.7v2h1.7c0.6,0,1.1-0.4,1.1-1S153.2,28.2,152.6,28.2z"/>
	<path class="st4" d="M156.5,34.3v-7.4h5.2v1.4H158v1.6h3.6v1.4H158V33h3.7v1.4h-5.2V34.3z"/>
	<path class="st4" d="M162.9,34.3v-7.4h1.6v6h3.1v1.4C167.6,34.3,162.9,34.3,162.9,34.3z"/>
	<path class="st4" d="M173.9,34.3l-0.5-1.3h-3.3l-0.5,1.3H168l2.9-7.4h2l2.9,7.4H173.9z M171.8,28.2l-1.2,3.4h2.5L171.8,28.2z"/>
	<path class="st4" d="M181.4,34.3l-3.5-5v5h-1.6v-7.4h1.6l3.4,4.8v-4.8h1.6v7.4C182.9,34.3,181.4,34.3,181.4,34.3z"/>
	<path class="st4" d="M184.4,34.3v-7.4h2.9c2.3,0,3.9,1.5,3.9,3.7s-1.6,3.7-3.9,3.7H184.4z M186,32.9h1.3c1.5,0,2.3-1.1,2.3-2.3
		c0-1.3-0.8-2.3-2.3-2.3H186V32.9z"/>
</g>
</svg>
