<?xml version="1.0" encoding="utf-8"?>
<!-- Generator: Adobe Illustrator 27.3.1, SVG Export Plug-In . SVG Version: 6.00 Build 0)  -->
<svg version="1.1" id="Layer_1" xmlns="http://www.w3.org/2000/svg" xmlns:xlink="http://www.w3.org/1999/xlink" x="0px" y="0px"
	 viewBox="0 0 500 500" style="enable-background:new 0 0 500 500;" xml:space="preserve">
<style type="text/css">
	.st0{fill:#FF8200;}
	.st1{fill:none;stroke:#000000;stroke-width:2;stroke-miterlimit:10;}
	.st2{fill:#DADFE5;}
	.st3{fill:#A7A9AC;}
	.st4{fill:#FFF200;stroke:#F7941D;stroke-width:2;stroke-linecap:round;stroke-miterlimit:10;}
	.st5{fill:none;stroke:#F7941D;stroke-width:2;stroke-linecap:round;stroke-miterlimit:10;}
	.st6{fill:#A7A9AC;stroke:#000000;stroke-width:3;stroke-miterlimit:10;}
	.st7{fill:#009A44;stroke:#000000;stroke-width:3;stroke-linecap:round;stroke-miterlimit:10;}
	.st8{fill:none;stroke:#000000;stroke-width:3;stroke-miterlimit:10;}
	.st9{fill:none;stroke:#000000;stroke-width:3;stroke-linecap:round;stroke-miterlimit:10;}
	.st10{fill:#FF8200;stroke:#000000;stroke-width:3;stroke-linecap:round;stroke-miterlimit:10;}
	.st11{fill:#443641;stroke:#000000;stroke-width:3;stroke-linecap:round;stroke-miterlimit:10;}
	.st12{fill:#FFFFFF;stroke:#000000;stroke-width:3;stroke-miterlimit:10;}
	.st13{fill:none;stroke:#000000;stroke-width:2;stroke-linecap:round;stroke-miterlimit:10;}
	.st14{fill:none;stroke:#000000;stroke-linecap:round;stroke-miterlimit:10;}
	.st15{fill:none;stroke:#000000;stroke-width:2;stroke-miterlimit:9.9999;}
	.st16{fill:none;stroke:#000000;stroke-miterlimit:10;}
	.st17{fill:#FFFFFF;stroke:#000000;stroke-width:2;stroke-miterlimit:10;}
	.st18{fill:#FFFFFF;stroke:#000000;stroke-width:3;stroke-miterlimit:10.0003;}
	.st19{fill:#A7A9AC;stroke:#000000;stroke-width:3;stroke-linejoin:round;stroke-miterlimit:10;}
	.st20{fill:#FFF200;stroke:#F7941D;stroke-width:1.9997;stroke-linecap:round;stroke-miterlimit:9.9991;}
	.st21{opacity:0.4;fill:#55285B;enable-background:new    ;}
	.st22{opacity:0.3;fill:#55285B;enable-background:new    ;}
	.st23{opacity:0.3;fill:#FFFFFF;enable-background:new    ;}
	.st24{fill:#FFFFFF;}
	.st25{fill:#009A44;}
	.st26{opacity:0.31;fill:#3E5A7D;enable-background:new    ;}
</style>
<g id="Layer_2_00000111910184329600965200000014919685670951115412_">
	<path class="st0" d="M414.2,205.8c-10,18.1-27.6,38.2-47.2,50.2c-14.4,8.8-42.8,16-58,16l-41.4-24.7l24.2-44.1l74.3-10.4l45.2,2
		L414.2,205.8z"/>
	<path class="st0" d="M194,279c-7.5,0-40.5,2.4-72-17.6c-34.7-22-39.5-38.7-49.6-51.9l1.3-20.7l88,25.2l44.8,1.9V264L194,279z"/>
	<g>
		<path d="M263.7,445.4c3.8-1.4,7.4-3.5,10.4-6.2c3-2.7,5.8-5.7,8.1-9c2.3-3.3,4.1-7,5.6-10.8c0.8-1.9,1.4-3.8,1.9-5.8
			c0.5-2,0.9-4,1-6c0.1,4.1-0.9,8.2-2.2,12.1c-1.4,3.9-3.2,7.6-5.5,11.1c-1.1,1.8-2.5,3.3-3.8,4.9c-1.4,1.5-2.9,2.9-4.5,4.2
			c-1.6,1.3-3.3,2.5-5.2,3.4C267.7,444.3,265.7,444.9,263.7,445.4z"/>
	</g>
	<path class="st1" d="M307.5,272.4c15.2,0,43.7-7.1,58-16c19.6-12,37.2-32.3,47.2-50.2"/>
	<g id="Layer_3">
		<g>
			<g>
				<path class="st2" d="M211.8,296.6c1.4-3.5,1.8-6.9,1.3-10.6c-0.4-3-4.9-3.2-4.9,0c0,1.9,0,3.8-0.1,5.7c1.4-0.6,2.8-1.2,4.2-1.8
					c-0.5-1.3-1-2.7-1.5-3.9c-1.2,0.5-2.4,1-3.6,1.5c10.4,5.7,21.7,8.8,33.6,9.1c0-1.7,0-3.2,0-4.9c-5.8,0.5-11.7,0.3-17.4-0.9
					c-4.6-1-8.8-3.1-13.6-2.3c-2,0.4-2.5,3.6-0.6,4.5c14.6,6.4,30.1,9.4,46,8.9c2.9-0.1,3.1-3.8,0.7-4.8c-8.9-3.6-18.1-6.5-27.5-8.6
					c-3-0.7-4.3,3.8-1.3,4.7c12,3.5,24.3,5.6,36.7,6.1c0-1.7,0-3.2,0-4.9c-6.6,0.4-13-0.3-19.4-2.1c-0.2,1.6-0.4,3.2-0.7,4.8
					c8.1,0.7,16.1,2,24,3.8c0.2-1.6,0.4-3.2,0.7-4.8c-6.4,0.4-12.2-0.9-17.7-4c-0.4,1.6-0.8,3-1.3,4.6c8.8-0.4,17.6-0.5,26.4-0.3
					c-0.2-1.6-0.4-3.2-0.7-4.8c-8,2.7-16,3.8-24.5,3.4c-2.8-0.1-3.4,4.4-0.7,4.8c10.6,1.6,21.1,1.4,31.7-0.7c2.5-0.5,2.3-4.1,0-4.7
					c-3.7-1.1-7.6-2.2-11.2-3.3c-0.2,1.6-0.4,3.2-0.7,4.8c6.4,0.3,12.8,0.5,19.2,0.8c2.8,0.1,3.3-4.2,0.7-4.8c-3.1-0.7-5.6,0-8,2.1
					c1-0.1,2-0.3,2.9-0.4c-0.2-0.2-0.4-0.5-0.6-0.7c-1.4,0.8-2.8,1.6-4.1,2.4c1.1,1,2.1,2.1,3.1,3c1.4,1.4,4.4,0.5,4.2-1.8
					c-0.1-0.9-0.2-1.9-0.3-2.8c-1.3,0.7-2.5,1.4-3.7,2.2c1.5,0.8,2.6,1.7,3.6,2.9c1.3,1.6,3.5,0.5,4.1-1.1c0.4-1.3,0.9-2.6,1.3-3.9
					c-1.2,0.5-2.4,1-3.6,1.5c1.3,0.4,2.1,1.3,2.5,2.6c0.9,2,4,1.4,4.5-0.6c0.6-2.3,1.3-4.4,2.2-6.6c-1.4,0-2.9,0-4.2,0
					c1.2,1.3,1.5,2.8,0.9,4.3c-0.8,3.1,3.6,4.2,4.7,1.3c1.1-2.9-0.2-5.9-2.9-7.4c-4.9-2.8-9.7,2.4-14.7,0.8c-3-1-4.3,3.8-1.3,4.7
					c1.9,0.6,3.4,0.7,5.4,0.4c0.6-0.1,10-3.3,8.8,0.2c1.6,0.4,3.1,0.9,4.7,1.3c0.7-3,0.4-5.6-1.4-8.2c-0.9-1.4-3.4-1.9-4.2,0
					c-1.1,2.6-2,5-2.7,7.8c1.5-0.2,2.9-0.4,4.5-0.6c-1-2-2.3-3.3-4.2-4.3c-1.5-0.7-3-0.1-3.6,1.5c-0.4,1.3-0.9,2.6-1.3,3.9
					c1.4-0.4,2.8-0.7,4.1-1.1c-1.4-1.7-2.8-2.8-4.6-3.7c-1.5-0.8-3.9,0.1-3.7,2.2c0.1,0.9,0.2,1.9,0.3,2.8c1.4-0.6,2.8-1.2,4.2-1.8
					c-1.1-1-2.1-2.1-3.1-3c-1.8-1.7-4.8,0-4.1,2.4c0.5,1.7,1.3,2.8,2.9,3.6c1,0.6,2.2,0.4,2.9-0.4c1.1-0.3,2.1-0.6,3.1-0.8
					c0.2-1.6,0.4-3.2,0.7-4.8c-6.4-0.3-12.8-0.5-19.2-0.8c-2.9-0.1-3.2,4-0.7,4.8c3.7,1.2,7.5,2.3,11.2,3.3c0-1.6,0-3.1,0-4.7
					c-9.6,1.9-19.4,2.2-29,0.7c-0.2,1.6-0.4,3.2-0.7,4.8c8.8,0.4,17.4-0.9,25.8-3.6c2.6-0.9,2.2-4.7-0.7-4.8
					c-8.8-0.2-17.6-0.1-26.4,0.3c-2.4,0.1-3.4,3.3-1.3,4.6c6.3,3.5,13.1,5.1,20.3,4.7c2.7-0.2,3.4-4.1,0.7-4.8
					c-8.4-2-16.8-3.3-25.4-4c-2.9-0.2-3.2,4.1-0.7,4.8c6.8,1.9,13.7,2.7,20.6,2.3c3.1-0.2,3.1-4.8,0-4.9
					c-12.1-0.5-23.9-2.6-35.4-5.9c-0.4,1.6-0.9,3.1-1.3,4.7c9.4,2.1,18.6,4.8,27.5,8.6c0.2-1.6,0.4-3.2,0.7-4.8
					c-15,0.6-29.8-2.2-43.5-8.3c-0.2,1.5-0.4,2.9-0.6,4.5c3-0.6,6.3,1.1,9.2,1.9c2.4,0.6,4.7,1,7.2,1.3c4.4,0.6,8.8,0.6,13.4,0.2
					c3.1-0.3,3.2-4.8,0-4.9c-11-0.3-21.5-3.2-31.2-8.6c-1.3-0.7-3.3-0.2-3.6,1.5c-0.5,3.4,0.2,6.2,2.7,8.7c1.5,1.6,4.1,0.4,4.2-1.8
					c0-1.9,0-3.8,0.1-5.7c-1.7,0-3.2,0-4.9,0c0.4,3.3,0.1,6.2-1.1,9.3C205.9,298.2,210.6,299.5,211.8,296.6L211.8,296.6z"/>
			</g>
		</g>
	</g>
	<path class="st3" d="M420.6,192.7c0.6-2.2,0.2-4.6-1.6-6.7c-7.6-9-19.4-7.8-29.4-4.3c-0.6,0.2-1.1,0.3-1.7,0.5
		c-11.7,0.3-23.2-1.2-34.6-4.5c-1.5-0.4-2.9-0.4-4,0c-1.2-0.3-2.4-0.6-3.5-0.9c-6.4-2.3-12.9-4.5-19.3-6.9c-1.1-0.4-2.2-0.5-3.1-0.4
		c-0.2-0.2-0.5-0.4-0.7-0.7c-2.7-2.7-5.9-2.7-8.4-1.3l1.8-13.8l-4.3-35H197.4c0,0-3.5,27,15.6,58.5l98.2,1c0.3,0.4,0.5,0.7,0.9,1.1
		c3.4,3.5,5.6,6.2,5.6,11.3c0,5.9-0.3,11.8-0.5,17.7c-0.1,5.1,0.2,10.3,5.1,13.3c4.3,2.6,10.5,2.7,15.3,2.9c1.3,0.1,2.5-0.2,3.4-0.8
		c5.3,0.2,10.6,0,15.9-0.5c2.6,0.1,5-0.2,7.7-0.9c1.3-0.4,2.4-0.9,3.1-1.7c1.4-0.3,2.8-0.8,4.1-1.4c3.4-0.8,6.8-1.8,10-2.9
		c1.9-0.3,3.7-0.9,5.5-1.7c0.5,0,0.9,0,1.1,0c3.4-0.2,6.5-1.1,9.5-2.8c3.6-2.1,6.8-4.2,10.1-6c3.2-1.1,6.4-2.3,9.5-3.7
		C422,200.3,422.3,196.1,420.6,192.7z"/>
	<path class="st3" d="M212.2,157.8c-8.1-4.4-17.7,3.2-26.3,0.5c-4.1-1.4-7.7-3.4-12.1-3.6c-4.4-0.1-8.8,1.5-11.7,4.8
		c-0.9,1-1.4,2-1.7,3c-1.1,0.1-2.2,0.1-3.1,0c-2.6-0.2-4.9,1.4-6.2,3.5c-0.2,0.1-0.5,0.2-0.7,0.3c-1-0.2-2.1-0.2-3.2,0
		c-9.6,2.1-19.3,4.1-29,6c-8.6,1.7-17.1,2.9-25.6,0c-7.4-2.6-12,7.6-7.1,12.4c-0.1,1.1,0.2,2.6,0.5,3.6c0.2,0.8,0.4,1.6,0.7,2.3
		c-7.2-0.4-12.2,9.9-4.5,13.5c24.3,11.2,50,18.3,76.7,20.7c11.4,1.1,26.4,3.4,34.1-7.2c1.3-1.8,2.3-3.7,2.9-5.7
		c0.5-0.5,1-0.9,1.5-1.5c2.7-3,2.6-6.7,0.7-9.3c0.2-1.5,0.3-2.9,0.5-4.4c2-2.4,1.9-5.1,0.7-7.3c0.1-0.6,0.1-1.3,0.2-1.9
		c6.8-0.4,13.9-1.5,17.3-7.9C220,173.5,219.1,161.7,212.2,157.8z"/>
	<g>
		<g>
			<path class="st3" d="M236.6,321.4c-0.6-3.6-1.2-7.4-1.7-11c-0.5-2.9-4.7-2-4.8,0.7c-0.1,2.7-0.3,5.2-0.4,7.9
				c1.1-0.8,2.1-1.6,3.1-2.4c-1.7-0.5-1.1-3-1-4.1c-1.6-0.2-3.2-0.4-4.8-0.7c-0.1,2.2-0.1,4.2-0.2,6.4c1.6-0.4,3-0.8,4.6-1.3
				c-1.2-1.8-1.4-3.4-0.7-5.5c-1.5,0.2-2.9,0.4-4.5,0.6c1.2,2.2,2.2,4.3,2.9,6.7c0.7,2.1,3.3,2.4,4.5,0.6c1.5-2.3,2.2-4.7,2.2-7.4
				c-1.6,0.4-3,0.8-4.6,1.3c1.2,1.8,2.2,3.5,2.9,5.6c0.9,2.8,4.5,2.1,4.8-0.7c0.2-2,0.4-3.9,0.5-5.9c-1.6,0.4-3,0.8-4.6,1.3
				c1.1,1.6,1.8,3.1,1.9,5.1c1.7,0,3.2,0,4.9,0c-0.2-2.4,0-4.3,0.8-6.6c-1.5,0.2-2.9,0.4-4.5,0.6c1.1,1.8,1.4,3.5,1.2,5.6
				c1.7,0,3.2,0,4.9,0c0-0.8-0.3-2.8,0-3.3c-0.5,0.4-1,0.8-1.5,1.1c0.2-0.1,0.3-0.1,0.5-0.2c-0.6-0.1-1.3-0.2-1.9-0.3
				c0.1,0.1,0.3,0.2,0.4,0.2c-0.4-0.5-0.8-1-1.1-1.5c0.5,1.3,0.1,3.5,0.1,4.9c0,3.1,4.8,3.1,4.9,0c0.1-2.2,0.1-4.3,0.2-6.4
				c-1.6,0.2-3.2,0.4-4.8,0.7c0.2,1.1,1,4.4,0.3,5.6c0.5-0.4,1-0.8,1.5-1.1c-2.1,0.6-4.6-0.8-6.4-1.9c-2.7-1.8-5.1,2.6-2.5,4.2
				c2.6,1.7,7.8,4,10.7,2.1c2.9-1.8,1.5-7.6,1.1-10.2c-0.5-2.9-4.7-2.1-4.8,0.7c-0.1,2.2-0.1,4.3-0.2,6.4c1.7,0,3.2,0,4.9,0
				c0-2.5,1-7.8-2.8-8.2c-4-0.5-3.6,4.7-3.6,7.2c0,3.2,4.6,3.1,4.9,0c0.3-2.9-0.4-5.5-1.9-8.1c-1.2-1.9-3.8-1.4-4.5,0.6
				c-0.9,2.6-1.3,5.2-1,7.9c0.3,3.1,5.1,3.1,4.9,0c-0.2-2.8-1-5.3-2.6-7.6c-1.4-2-4.4-1.3-4.6,1.3c-0.1,2-0.3,3.9-0.5,5.9
				c1.6-0.2,3.2-0.4,4.8-0.7c-0.8-2.5-1.9-4.6-3.3-6.8c-1.4-2-4.5-1.3-4.6,1.3c-0.1,1.9-0.6,3.3-1.6,4.9c1.5,0.2,2.9,0.4,4.5,0.6
				c-0.9-2.8-2-5.4-3.3-7.9c-1.1-2-3.8-1.3-4.5,0.6c-1.2,3.1-0.7,6.5,1.2,9.3c1.4,2,4.5,1.3,4.6-1.3c0.1-2.2,0.1-4.2,0.2-6.4
				c0.1-2.7-4.4-3.4-4.8-0.7c-0.7,4.2-0.4,8.8,4.4,10.2c1.6,0.5,3-0.8,3.1-2.4c0.1-2.7,0.3-5.2,0.4-7.9c-1.6,0.2-3.2,0.4-4.8,0.7
				c0.6,3.6,1.2,7.4,1.7,11C232.3,325.9,237.1,324.5,236.6,321.4L236.6,321.4z"/>
		</g>
	</g>
	<path class="st4" d="M267.9,79.1c0,0-5.9-6-7.9-11.2c-2-5.2-3.1-16.8,0.4-17.8s12.9,9.3,15.3,14.7s4.7,14.3,4.7,14.3H267.9z"/>
	<polyline class="st5" points="270.2,78.4 267.9,73.4 270.1,74 270,70.7 272.3,73.6 273.7,70.2 275.1,75.2 275.7,78.4 	"/>
	<path class="st6" d="M315.7,145.8c0,0,6-2.5,18.6-4c27.3-3.3,47.6,3,51.8,3.2c7.4,0.4,8.3-8.8,2-19.1c-4.8-8-80-57.9-143-44.4
		c-49.6,10.6-55.8,40.6-55.8,40.6"/>
	<path class="st7" d="M195.2,280.6c0,0.1,0.1,0.2,0.2,0.2c2.9,2.8,41.1,11.7,62.1,11.7c21.3,0,41.8-2.4,46.5-5.9
		c4.2-3.1,4.2-18.7,6.6-26.3c2.3-7.6,14.7-34.4,13.1-51.8s-8.6-36.7-9.1-42c-0.5-4.2,3.6-15.1,5.4-19.5c0.3-0.8-0.1-1.5-1-1.4
		c-3.1,0.1-4.1,0.1-5,0.6c-0.3,0.2-1.6,1.5-1.8,1.8c-1.3,2.1-7.2,10.9-10.3,12.4c-3.5,1.7-31.6,2.5-33.8,0.8s-4.1-21.6-8.5-22.3
		c-4.3-0.7-68.9-13.8-70.2-17c-0.7-1.8-0.5-3.2-0.1-4.1c0.2-0.6-0.2-1.3-0.9-1.4c-2-0.2-5.3-0.3-7.2,1.1c-2.8,2.1,2.3,20.5-3.7,27.1
		c-2.6,2.8-9.9,5.8-13.6,8.3c-1.1,0.7-2.9,5.3-1.7,5.8c7.9,3,30.1,12.2,28.5,36.7c-2,29.8-17,31.3-23.1,30.6c-0.9-0.1-1.5,0.9-1,1.7
		c3.6,4.9,12.4,17,15.3,24.9C186.2,263.5,194.3,279.1,195.2,280.6z"/>
	<path class="st6" d="M403.7,178c0,0,1.6-4.8,4.7-10.6c2.7-4.9,8.8-10,11.7-11.6c2.3-1.3,3.8,3.8,2.1,7.8c-1.6,3.6-4.9,6.8-1,9.1
		c2.6,1.6,8.8-4,13.8-6.3c8-3.6,16.5-2.2,18.7,0c2.3,2.2-2.9,5.1-8.4,7.9c-4.5,2.3-9.1,2.6-7.4,5.4c1.8,2.9,6.9,0,10.6-0.8
		c3.7-0.8,15-1.5,17,2.1c2,3.6-8.4,9-14.3,10.7c-3,0.8-9.3,1.3-9.3,3.2s4.6,1.9,9.2,2.9c4.4,1,9.9,2.5,8,4.6
		c-2,2.2-16.6,7.1-30.8,5.6c-5.2-0.6-19.8-2.6-19.8-2.6"/>
	<path class="st8" d="M170,232.4c15.3,0,21.6-9.7,26.2-24.9c7.2-23.9-7.8-49.5-31.6-54.6"/>
	<path class="st8" d="M82.8,206.2c14.3,5.7,21.9,7.7,36.7,11.6c22.4,5.9,38,7.1,58.7,6.4"/>
	<path class="st8" d="M89.4,172.6c13.1,1.4,22.8,0.4,46.2-4.4c10.7-2.3,22.6-5.3,27.5-8.4"/>
	<line class="st8" x1="206.8" y1="294" x2="205.9" y2="284.6"/>
	<line class="st8" x1="299.7" y1="297.5" x2="299.6" y2="288.6"/>
	<path class="st8" d="M314.4,164.2c10.7,4.9,25.5,10,47.2,14.7c18.5,4,31,2.1,42.1-1"/>
	<path class="st8" d="M322.7,222.2c9,2.8,26.1,5,47.2-1c19.7-5.6,30.7-10.1,38.3-15.7"/>
	<path class="st8" d="M177.5,144.9c22.1,13.1,40.3,25.3,97.6,29.2c16.7,1.2,27.9-1.9,40.3-5.4"/>
	<path class="st9" d="M403.7,178c3.3,1.2,5.8,3.2,6.7,11.7c0.9,8.2-0.9,12.5-2.1,15.8"/>
	<path class="st9" d="M263.7,143.4c8.8-2.1,26.5-3.4,39.2-4.4c15-1.3,43.8,0.4,54.1,1.9"/>
	<path class="st10" d="M302.9,318c7.1,4.8-15.7,66.3-23.9,74.3c-5.5,5.4-17.3,2.8-18-3.5c-0.5-4.7,2.7-18.8,4.8-32.4
		c2.9-18.1,0.7-32,2.9-35.8C270.8,316.7,298.2,314.7,302.9,318z"/>
	<path class="st6" d="M275.7,310.7v1.8v0.1c0,0.6,0,4.8,0.3,6.7c0.1,0.6,0.5,1.2,1.1,1.4c2.1,0.7,6.4,0.7,8.7,0.7
		c2.7,0,5.5-0.7,5.5-0.7c1.7-0.7,2.7-1.4,2.7-2.9v-5.9c0-2.6-2.1-4.5-4.5-4.5h-10.8C276.9,307.6,275.6,309.1,275.7,310.7z"/>
	<path class="st11" d="M320.1,387.6c0.3,38.2-17.1,63.2-55.1,63.2c-44.6,0-58.3-37.7-56.6-69.9c1.8-33.8,13.9-56.5,56.6-56.5
		C312.1,324.4,319.9,361.5,320.1,387.6z"/>
	<path class="st12" d="M224.2,387.5c0.3-24.2,9.8-38.9,24.7-38.9c14.8,0,26.9,9.2,26.9,38.8c0,30.5-12.9,40.2-27.9,37.9
		C234,423.1,223.9,407.6,224.2,387.5z"/>
	<path class="st10" d="M218.2,320.8c-7.3,5,16.2,68.3,24.7,76.7c5.7,5.6,17.9,2.9,18.6-3.6c0.6-4.8-2.8-19.4-4.9-33.5
		c-2.9-18.7-0.7-32.9-2.9-36.9C251.4,319.5,223.1,317.3,218.2,320.8z"/>
	<path class="st13" d="M264.2,149c8.6,2,17.2,2,26.4,2c10.3,0,16.2-1.1,20.2-2.5"/>
	<path class="st13" d="M266.5,155.1c7.4,2,14.9,2,22.8,2c8.6,0,14.5-1.2,17.5-2.5"/>
	<path class="st1" d="M279.7,79.3c-13.2-0.3-31.1,11.2-31.1,22.9c0,8,17.8,36.6,35.1,39"/>
	<circle class="st1" cx="255" cy="102.7" r="1.5"/>
	<path class="st1" d="M227.9,86.5c-5.4,2.3-11.6,16.2-11.6,21.5c0,9.6,25.3,27.1,26.5,27.5"/>
	<circle class="st1" cx="222.4" cy="108.3" r="1.5"/>
	<path class="st12" d="M206.3,305.3c-3-3.4-4.5-9-1.9-11.1c2.3-1.8,20.6,5,52.9,5.6c33.2,0.6,44.9-4.8,46.7-2.3
		c2.4,3.3,0.7,8.8-2.6,11.4c-2.9,2.4-20,3.4-43.7,3.5C236.2,312.6,209,308.4,206.3,305.3z"/>
	<path class="st13" d="M336,172.8c6.1,1.6,9.7,13.5,9.7,21.9c-0.1,19.3-5.1,26.4-9.7,30.4"/>
	<path class="st13" d="M358.9,179c6.1,1.4,9.7,11.7,9.7,19.1c-0.1,16.8-5.1,22.9-9.7,26.4"/>
	<path class="st13" d="M378.3,181.1c6.1,1.1,9.7,9.7,9.7,15.8c-0.1,14-5.1,19.1-9.7,21.9"/>
	<path class="st13" d="M397.2,179.8c4,1,6.5,8.3,6.5,13.4c0,11.8-3.4,16.1-6.5,18.6"/>
	<path class="st13" d="M174.3,238.7c2.6,1.6,20.8,6.3,28.8,10.8c10.8,6.2,18.1,13.7,19.7,15.3c3.8,4.1,3.5,7.4,7.9,17
		c2.9,6.4,3.9,6.8,7.1,8.5"/>
	<path class="st13" d="M222.7,264.8c13.5,6.5,30.6,8.3,57.1,7.5c14.2-0.5,25.9-4.4,29.7-11.8"/>
	<path class="st14" d="M191.5,243.4l4.7-7.9c0.5-0.7,1.4-0.9,2.1-0.5l21.5,10.5c0.7,0.4,0.9,1.4,0.5,2.1l-5.1,8.8"/>
	<path class="st13" d="M203.1,101.2c-0.9,2.4-8.7,9.4-3.7,16.3c3.5,5,10.9,10.2,13.3,11.6"/>
	<ellipse class="st15" cx="203.8" cy="114.3" rx="1.5" ry="1.5"/>
	<path class="st1" d="M148.7,164.2c2.6,2.3,16.2,4.2,16.2,31c0,16.2-6.7,24.7-9.3,28.5"/>
	<path class="st1" d="M126.3,170.3c2.1,1.9,13.4,3.5,13.4,25.8c0,13.5-5.5,20.5-7.7,23.7"/>
	<path class="st1" d="M110.8,172.4c1.1,1.8,7.8,3.8,5.9,22.9c-1.2,11.5-5,17.3-6.6,19.9"/>
	<path class="st1" d="M94.4,172.3c1.1,1.7,8.3,4,5.5,21c-1.7,10.3-6.1,15.1-7.9,17.3"/>
	<path class="st6" d="M86.2,204.5c0,0-9.2,3.4-26.4,6.1c-10.1,1.6-20,0.7-21-2.4c-1.1-3.1,4.4-7.5,7.3-8c4.7-0.8,11.8-3.4,11.5-5.3
		c-0.3-1.9-9.7,0-14.6-1.2c-2.5-0.6-14.2-3.9-14.2-8.9c0-2,7.4-5.4,10.6-5.2c3.2,0.2,17.4,3.3,17.9,1.6c0.5-1.8-9.8-6.5-12.3-8.4
		c-6.7-5-9.1-11.6-6.9-12.9c2.3-1.3,9.1-0.7,14,2.8c3.1,2.3,9.2,8.3,13.6,7.7c6.9-0.9,0.1-4.1-1.4-8.2c-2.3-6.2-3.1-11.3-1.2-11.5
		c2-0.2,14.6,8,17.5,10.8c4.3,4.3,10.7,13.1,10.7,13.1"/>
	<line class="st16" x1="212.6" y1="129.2" x2="212.6" y2="162.7"/>
	<line class="st16" x1="214.5" y1="129" x2="214.5" y2="162.6"/>
	<ellipse class="st4" cx="73" cy="189.4" rx="4.9" ry="10.3"/>
	<path class="st13" d="M62.3,210.4c-4.7-10.6-3.9-17.1-4-22.4c-0.2-10.9,0.9-15.7,3.8-18.5"/>
	<path class="st1" d="M68.1,168.4c4.9,2.3,3,2,10.6,3.4c6.2,1.2,9.6-1.7,9.6-1.7"/>
	<path class="st1" d="M71.3,208.5c10,13.3,14.8,30,49.6,51.9c31.5,20,64.5,17.6,72,17.6"/>
	<path class="st17" d="M240.7,187.1l42.6,5c0.9,0.3,1.9,0.2,2.8-0.2l23.4-5.2c2.5-1.2,5.2,0.4,5.6,3l2.5,18.7
		c0.2,1.3-0.3,2.5-1.2,3.3l-15.7,15.5c-0.6,0.6-1,1.3-1.1,2.1l-4.7,23.2c-0.4,1.8-1.9,3-3.7,3.1l-21.7,0.8c-1.7,0.1-3.1-0.9-3.8-2.5
		l-3.3-27.2c-0.3-0.7-0.7-1.2-1.3-1.7l-25.4-11.6c-1.1-0.8-1.7-2.2-1.5-3.5l1.8-19.5C236,188.2,238.4,186.5,240.7,187.1z"/>
	
		<ellipse transform="matrix(0.4641 -0.8858 0.8858 0.4641 -36.5107 364.3559)" class="st18" cx="282.9" cy="212.4" rx="26.4" ry="26.4"/>
	<circle class="st17" cx="283.4" cy="211.8" r="19.6"/>
	<line class="st9" x1="225.7" y1="319.1" x2="224.6" y2="310"/>
	<line class="st9" x1="246.4" y1="312.2" x2="246.4" y2="320.6"/>
	<g>
		<path class="st4" d="M201.2,58.5c-3.9,3.4,3.9,15.6,8.8,21.2c4.9,5.6,22.2,15.3,24.3,15.5c2,0.2,3,0.1,6.4-3.3
			c3.3-3.4-6.6-14.7-15.7-23.7C219.2,62.6,204.5,55.6,201.2,58.5z"/>
		<polyline class="st5" points="227.2,88.2 220.2,83.3 223.7,82.5 221.2,78.2 226.3,80.4 225.6,74.9 231.1,80.4 234.4,84.1 		"/>
		<path class="st19" d="M235.7,78.6c-2.3,5.9-6.8,10.4-12.4,13.1c5.1,3.4,9.9,6.1,10.9,6.2c2.1,0.1,3.1-0.1,6.7-4.2
			C243.1,91,240.2,85.1,235.7,78.6z"/>
	</g>
	<g>
		<path d="M259.8,328.9c2,0.3,3.8,0.8,5.7,1.4c1.9,0.6,3.6,1.4,5.4,2.4c1.8,0.9,3.3,2,4.9,3.2c1.6,1.2,3,2.6,4.3,3.9
			c1.4,1.5,2.6,3,3.6,4.6c1.1,1.7,2.1,3.3,2.8,5.2c1.6,3.6,2.6,7.5,2.8,11.3c-0.3-1.9-0.8-3.8-1.4-5.6c-0.6-1.9-1.3-3.6-2.1-5.4
			c-1.7-3.4-3.7-6.7-6.4-9.4c-2.6-2.9-5.6-5.2-8.9-7.2C267.2,331.4,263.5,329.9,259.8,328.9z"/>
	</g>
	<path class="st9" d="M90.3,172.8c1.5,5.3,2.5,8.8,1.1,17.2c-1.5,9.1-3.4,11.7-6.7,16.8"/>
	<path class="st6" d="M247.4,393.6c-3.9,1.1-18.2-4.5-18.6-6.2c-0.4-1.8,14.1-4.3,18.6-2.7S251.7,392.5,247.4,393.6z"/>
	<line class="st14" x1="310.4" y1="346.9" x2="291.8" y2="346.9"/>
	<line class="st14" x1="313.5" y1="355.8" x2="293.9" y2="355.8"/>
	<line class="st14" x1="303.2" y1="339" x2="284.6" y2="339"/>
	<line class="st14" x1="295.8" y1="333.1" x2="277.2" y2="333.1"/>
	<line class="st14" x1="289.9" y1="328.2" x2="271.3" y2="328.2"/>
	<ellipse transform="matrix(0.992 -0.126 0.126 0.992 -20.5329 54.9509)" class="st20" cx="424.1" cy="189.8" rx="4.6" ry="9.9"/>
	<path class="st1" d="M405.4,173.4c1.7,1.3,4.7,1,6.9,0.9c4.1-0.1,5.9-1.8,6.9-4.2"/>
	<path class="st13" d="M428,171.3c2.6,1.4,5.8,0.7,10,12.1c5.7,15.2,1,23.6,0,25.2"/>
	<path class="st8" d="M282.6,108c-1.2-5,1.5-10,6.7-12.7c8-3.9,16.9,3.3,15.8,8.7"/>
</g>
<g id="Layer_4">
	<path class="st21" d="M257.6,83.2c-3.2,1-15.2,10.2-19.9,29.3c-5.3,21.6,8.8,24.6,8.8,24.6l-53.6-13.2c0,0-2.9,0.7-3.4-1.8
		c-0.5-2.4,10.9-20.2,17.4-24.4c6.5-4.2,13.5-8,13.5-8l4.9,0.9l4.4-3.2c0,0,2.7,1.8,4.3,2.9s7,3.2,7,3.2l0.5-4.4l-1.4-3.8
		c0,0,5.4-2,13.6-2.8C264.9,81.4,260.8,82.3,257.6,83.2z"/>
	<path class="st21" d="M168.7,161.7c-6.4-2.8-7.2-1.5-7.2-1.5l-4.3,2.4c0,0,18.7,1,24,24.6c0.8,3.5,1.3,6.8,1.6,9.6
		c-9.6,1.4-26.1,3.3-37.7,2.9c-17.4-0.6-55.8-8-55.8-8l-9.5,0.5c0,0-1.4,8.7-5.3,9.2c-4.7,0.8-7.4-2.4-7.8-8.3c-0.1-1-2.5-0.1-4-1.2
		c-5.6-3.8-4.5-4.1-4.5-4.1s-5.9,0.7-12.3,0c-2.9-0.3-8.8-5.2-8.8-5.2l-8.2,2.1c0,0,8.5,5.8,14.8,6.6c7.1,0.9,14.5,0.7,14.5,0.7
		s2,6.7-5.8,9.5c-1.6,0.6-12.8,2-13.5,4.5c-0.8,3.1,10.5,2.6,13.1,2.4c12.2-0.9,35.1-7,35.1-7v2c0,0,26.9,9.4,36.5,11.7
		c8.8,2.1,41.2,6.4,52.1,6.4c-2.4,2.2-4.4,2.8-4.4,2.8l6.9-0.2c0,0,1.6-1.2,3.6-3.6c2.5-1.1,2.9-3,4.3-6.5
		c2.4-4.5,4.4-10.6,4.6-18.4C191.5,171.6,175.4,164.5,168.7,161.7z"/>
	<path class="st21" d="M254.7,292c0,0-3.6-0.9-5.7-4.6c-3.1-5.7-5.2-15.2-5.3-16.5c-0.3-2.3-30.4-27.9-35.4-47.1
		c-4.8-18.6,12.7-59.5,12.7-59.5l1.7-26.5c0.1-0.9-0.6-1.8-1.5-2c-3-0.7-10-2.2-14.7-3.1c-6.3-1.4-3.2-5.7-3.2-5.7s0,0-10.3-2.9
		c-9.2-2.7-1.4-7.8-1.4-7.8l-10.3,1.5c0,0,4.6,32.1-13,32.9c-5.1,0.3-7.1,6-5.1,8.9c2,3,5.7,2.1,5.7,2.1s39.6,9.9,20.6,53.3
		c-4.8,11.1-29,12.2-22,13.7c13,2.8,13,14.3,22,32.1c9,17.8,8.6,21.4,8.6,21.4l27.2,7.2L254.7,292z"/>
	<path class="st22" d="M262.7,299.9l-30.2-1.8l-26.4-4.1v-7.7l26.4,4.9l38.7,1.5c0,0-4.7,2.3-6.8,4
		C262.6,298.4,262.7,299.9,262.7,299.9z"/>
	<path class="st21" d="M261.7,310.7c0,0.8-0.5,1.5-1.2,1.5c-6.6-0.3-38-1.6-27.9-0.3c10.5,1.3-20.6-5-24.3-5.7
		c-0.2,0-0.4-0.2-0.6-0.4c-0.8-0.9-3.1-3.8-3.8-6.6c-1.2-4.9,1.6-5.5,2.3-5.6c0.1,0,0.2,0,0.3,0l25.7,4.3c0.2,0,0.3,0.2,0.5,0.2
		c11.2,1.1,7.4,3.2,14,4.3c6.3,1.1,11,1.5,14.2,1.4c0.7,0,1.2,0.7,1.2,1.5v5.4H261.7z"/>
	<path class="st21" d="M321.9,196c-0.1-0.6,0.6-1.1,1.1-0.7c3.1,2.6,11.2,7.9,22.8,8.8c26.9,2.1,64.8-11.4,64.8-11.4l5.5-1.2
		c0.3-0.1,0.7,0.1,0.8,0.5c0.7,2.3,3.2,10.3,8.1,10.3c6.5,0,7.4-8.4,7.5-10.5c0-0.3,1.1-3.3,1.4-3.4c1.7-0.5,6.5-1.1,11.4-1.8
		c5-0.7,11.7-3.8,14.6-5.6c0.4-0.2,4.3-0.9,4.4-0.4c0.3,1.8,2.7,1.1-2.7,4.3c-5,3-12.9,5.3-19.8,6.4c-0.6,0.1,0.4,4,1,4.2
		c5,1.6,14,4.7,11.7,6.1c-2.9,1.7-2.3,1.2-9.1,2.9c-9.8,2.3-31.6-1.3-34.1-1.5c0,0-2.9,0.6-2.9,0.7c-2.5,1.3-29.4,13.9-48,16.7
		c-11.9,1.9-33.1-1.3-36.8-2c-0.3-0.1-0.6-0.4-0.6-0.7c0.2-2.1,0.7-4.8,0.9-8.8C323.9,205.6,322.5,199.2,321.9,196z"/>
	<path class="st21" d="M268,161.5c-7.2-3.7-4.2-18.1-4.2-18.1s40.8-4.9,49.8-4.9c8.9,0.1,32.3,1.2,32.3,1.2s-22.6,3.8-27.1,5.2
		c-4.5,1.4-13.8,15.1-16.7,15.8C298.8,161.3,268,161.5,268,161.5z"/>
	<path class="st21" d="M290.8,252.7c-2.9,0-19.5,2.1-21.8,0c-1.4-1.2-2.1-6.9-2.4-11.6c15.1,5.9,31.9-6.3,31.9-6.3
		s-18.5,13.2-34.1-4.5c-20.5-23.2,5.1-41.7,5.1-41.7s-23.4,8.3-20.7,27.9c-4.9-1.1-10.4-3.1-12-5.9c-1.3-4.5,1.8-22.5,3.4-23.6
		s-2.9-2.2-6.1,1.6c-3.1,3.7-4.8,23.2-3.1,25.3c1.2,1.5,12.7,7,20,10.3c0.6,1.3,1.3,2.7,2.1,4c2.7,4.6,5.6,7.9,8.8,10.1l1.6,15.2
		c0,0-0.4,4.1,3,4.7s23.4,1,26.1-1c2.7-2,2.9-7.1,2.9-7.1S293.6,252.7,290.8,252.7z"/>
	<polygon class="st21" points="225.1,319.1 224.7,310.6 242.9,312.6 242.9,320.6 	"/>
	<polygon class="st21" points="275.7,311.7 277.2,320.8 289.3,321.4 289.3,311.5 	"/>
	<path class="st21" d="M228.4,319.1L228.4,319.1c-1-0.2-14-4.5-5.6,21.7c2.8,8.8,14.6,39.5,16,43.2c0.1,0.2,0.3,0.4,0.5,0.4
		l10.1,0.5c0.5,0-0.2-0.5-0.5-0.9c-1.8-2.9-5.7-12.1-8.1-30.3c-1.7-12.9-0.6-20.4,0.7-24.3c0.8-2.4-0.4-4.9-2.8-5.9L228.4,319.1z"/>
	<path class="st21" d="M228.8,387.4c0,0,6.6,1.2,12.1,1.9c5.5,0.7,9-0.3,9-0.3v4.8l-6.3,1.5L228.8,387.4z"/>
	<path class="st21" d="M251.6,391.4c0,0-0.6,0.7,0.9,4.6c1.5,3.9,6.3,2.9,6.3,2.9l-9.4,1.8l-7-1.6l-1.4-3.7L251.6,391.4z"/>
	<path class="st21" d="M253.5,445.4c-19.8-3.9-36.8-23.4-38.4-47.2c-1.2-16.8,2.3-32.1,4.2-38.7l8.5,19.7c-1.2,5.5-1.7,14.3,2.4,26
		c8.2,23.2,29.7,15.7,29.7,15.7s-6.2-2-9.8-8.4c-1.6-2.7-2.4-5.3-2.9-7.5c1,0.4,2.2,0.6,3.5,0.6c9.1,0,11-10.4,11-10.4
		s-3,3.5-7.6,5.2c-4.5,1.7-13.2-5.2-13.2-5.2l-12.1-7.8l7.1-3.5l-3.5-8.4L220,343l-4.9,6.7c-4.9,6.7-9.1,37-3.4,61.1
		c5.7,24.1,29.5,38.6,46.5,40.1c17,1.5,37.7-7.7,37.7-7.7S278.6,450.3,253.5,445.4z"/>
	<path class="st21" d="M267.6,324.4l1.1-3.8l7.2-2.8l1.4,3l12.1,0.7l-2.8,6.8c0,0-2.6-2.5-10.7-3.2
		C267.6,324.4,267.6,324.4,267.6,324.4z"/>
</g>
<g id="Layer_6">
	<path class="st23" d="M316.1,175.1l2,7.3c0,0,7,4.8,27.5,10.9c28.3,8.3,65-4,65-4l-2.1-5.5c0,0-33.1,7.4-49.7,4.4
		S316.1,175.1,316.1,175.1z"/>
	<path class="st23" d="M363.1,112.2c0,0-25.3-11.5-45.4-18.2c-31.9-10.5-52.1-3.5-49.8-7.4c3.9-6.3,40.3-2.7,77.2,16.4
		C362.5,112,363.1,112.2,363.1,112.2z"/>
	<path class="st23" d="M96.3,178v6.4c0,0,23.2,2.1,38.9,1.4c15.7-0.7,24.5-3.9,24.5-3.9s0-2.8-2.4-7.2c-1.4-2.5-4.8-4.2-4.8-4.2
		s-7.8,3.9-24.1,5.9C107.3,179,96.3,178,96.3,178z"/>
	<path class="st23" d="M303.2,190.4l7.2-2.1c1.2-0.3,2.3,0.5,2.6,1.7l1.3,12.8l-2.8-11.9c-0.2-0.4-0.6-0.7-1-0.9L303.2,190.4z"/>
	<path class="st23" d="M258.6,354.5c-1.8-1.7,6.9,2.6,11,13.8c6,16,0.8,37.2,0.8,37.2s2.9-15.3-2.3-33.9
		C265.6,361.9,258.6,354.5,258.6,354.5z"/>
	
		<ellipse transform="matrix(0.5699 -0.8217 0.8217 0.5699 36.8379 205.3678)" class="st24" cx="214.6" cy="67.5" rx="2.9" ry="5.9"/>
</g>
<path class="st25" d="M285.1,214.7L285.1,214.7c0,0.2,0,0.7-0.1,0.8c0,0.9-0.4,1.8-0.5,2.6c-0.2,0.5-0.4,1.1-0.7,1.4
	c-0.6,0.8-1.3,1.3-2.3,1.4c-0.7,0-1.2-0.2-1.8-0.4c-0.8-0.6-1.4-1.2-1.8-2c-0.2-0.5-0.2-1.2,0-1.6l0,0l0,0c-0.7,0-1.2-0.2-1.8-0.4
	c-1.5-0.6-2.1-1.9-2-3.3c0.2-1.2,0.8-1.8,1.8-2.5c0.5-0.2,1.1-0.4,1.5-0.6c0.5-0.2,0.9,0,1.5-0.1c0.6-0.1,0.9,0,1.6,0
	c0.7,0,1.2,0.2,1.9,0.2l0,0l0,0l0,0c-0.4-0.4-0.8-0.6-1.2-0.9c-0.8-0.6-1.3-1.1-2-1.8c-0.5-0.5-0.8-0.8-1.2-1.4
	c-0.2-0.5-0.6-0.8-0.6-1.5s0.2-1.2,0.5-1.9c0.7-0.9,2-1.8,3.3-1.3c0.6,0.4,1.2,0.5,1.6,0.9c0.1,0.1,0.1,0.1,0.1,0.1l0,0l0,0
	c0-0.2,0.4-0.6,0.6-0.8c0.7-0.7,1.3-1.1,2.3-0.9c0.5,0.2,0.8,0.1,1.3,0.4c1.2,0.5,2,1.8,2,2.9c0.2,0.5,0,0.9-0.1,1.5
	c-0.4,0.6-0.8,1.5-1.2,2.1c-0.4,0.6-0.8,1.5-1.3,2l0,0l0,0l0,0c0.6-0.4,1.2-0.5,1.8-0.8c0.5-0.2,1.3-0.4,1.9-0.5
	c0.2,0,0.8-0.1,1.2-0.2c0.2,0,0.7,0,0.9,0c0.8,0.1,1.5,0.6,2,1.1c0.7,0.7,1.1,1.3,0.9,2.3c0,0.9-0.5,1.9-1.2,2.6
	c-0.4,0.4-0.8,0.6-1.4,0.7l0,0l0,0c0.4,0.4,0.4,0.6,0.5,1.2c0,0.7,0,1.4-0.2,1.9c-0.5,1.2-1.8,2-2.8,2.1c-0.5,0.2-1.2-0.2-1.8-0.4
	c-0.5-0.2-0.8-0.6-1.2-0.9c-0.5-0.5-1.1-1.1-1.4-1.6c-0.4-0.6-0.7-0.9-0.8-1.5l0,0c0.1,0.1,0.1,0.1,0.1,0.1c0.2,0.5,0.4,1.1,0.4,1.8
	c0.2,0.5,0,0.9,0.1,1.5c0,0.2,0,0.9,0,1.4c0,0.7-0.1,1.5-0.1,2.2l0,0c-0.1-0.1-1.9,0.2-1.9,0.2l0,0c0.2-0.5,0.2-1.2,0.4-1.8
	c0.1-0.8,0.4-1.8,0.4-2.7c0-0.7,0.2-1.2,0-1.6c0-0.2,0-0.7,0-0.9C285,215.3,285,215.1,285.1,214.7
	C285.2,214.9,285.2,214.9,285.1,214.7L285.1,214.7z"/>
<g id="Layer_5">
	<path class="st26" d="M283.6,194c-8.2,0-15,5.6-17,13.3c2.9-2.3,6.7-3.6,10.7-3.6c9.7,0,17.6,7.9,17.6,17.6c0,1.5-0.2,2.9-0.6,4.4
		c4.2-3.2,6.9-8.3,6.9-14C301.2,201.9,293.3,194,283.6,194z M293.1,200.8c-0.8,1.2-3.1,1-5.2-0.5c-2.2-1.4-3.2-3.4-2.6-4.6
		c0.8-1.2,3.1-1,5.2,0.5C292.8,197.6,293.9,199.6,293.1,200.8z"/>
</g>
</svg>
