<?xml version="1.0" encoding="utf-8"?>
<!-- Generator: Adobe Illustrator 27.3.1, SVG Export Plug-In . SVG Version: 6.00 Build 0)  -->
<svg version="1.1" id="Layer_1" xmlns="http://www.w3.org/2000/svg" xmlns:xlink="http://www.w3.org/1999/xlink" x="0px" y="0px"
	 viewBox="0 0 304 182" style="enable-background:new 0 0 304 182;" xml:space="preserve">
<style type="text/css">
	.st0{fill:#007FFF;}
	.st1{fill-rule:evenodd;clip-rule:evenodd;fill:#007FFF;}
</style>
<g transform="matrix(.229053 0 0 .229053 -.144648 10.46444)">
	<path class="st0" d="M672.2,345.1h-20.1v-78.6c-0.1-7.8,0.2-15.6,0.9-23.3c-0.7,3.9-1.8,7.7-3.5,11.2l-36.9,91.4h-14l-36.9-90.5
		l-3.5-12.2c0.9,5.2,0.9,12.9,0.9,24.2V346h-19.3V224.2h29l32.5,81.2l5.3,13.8c1.3-5,3.1-9.9,5.3-14.7l33.4-81.2h28.1L672.2,345.1z
		 M710,239.7c-3.3,0.2-6.5-1.1-8.8-3.5c-2.4-1.9-3.7-4.8-3.5-7.8c-0.3-3,1-6,3.5-7.8c2.5-2,5.6-3.2,8.8-3.5c3.3-0.2,6.5,1.1,8.8,3.5
		c2.4,1.9,3.7,4.8,3.5,7.8c0.3,3-1,6-3.5,7.8C716.5,238.6,713.3,239.9,710,239.7z M719.6,345.1h-20.2v-87.2h20.2V345.1z
		 M810.1,341.6c-7,4.3-15.8,6.1-25.5,6.1c-13.2,0-23.7-4.3-31.6-12.1s-12.2-18.1-12.2-31.1c0-14.7,4.4-25.9,13.2-34.5
		c8.8-8.6,20.2-12.9,35.1-12.9c7.2,0,14.4,1.5,21.1,4.3v18.1c-5.6-4.2-12.3-6.6-19.3-6.9c-8.8,0-15.8,2.6-21.1,8.6
		c-5.4,6.2-8.2,14.2-7.9,22.4c0,8.6,2.6,16.4,7.9,21.6c5.4,5.2,12.7,8,20.2,7.8c7.4-0.1,14.6-2.9,20.2-7.8L810.1,341.6L810.1,341.6z
		 M881.2,276.9c-3.2-1.9-6.8-2.8-10.6-2.6c-6.1,0-10.6,2.6-14.9,7.8c-4.4,5.2-6.1,12.2-6.1,21.6v41.5h-20.2v-87.2h20.2V276
		c1.7-5.5,4.7-10.6,8.8-14.7c3.8-3.5,8.9-5.3,14-5.2c2.7,0,5.4,0.6,7.9,1.7L881.2,276.9z M934.7,347.7c-14,0-24.6-4.3-32.5-12.1
		c-7.9-7.8-12.2-19-12.2-31.9c0-14.7,4.4-25.9,13.2-34.5s20.2-12.2,34.2-12.2s24.6,4.3,32.5,12.2c7.9,7.9,11.3,18.9,11.3,33.6
		c0.4,12.4-4,24.4-12.2,33.7C959.2,344,947.1,348,934.7,347.7L934.7,347.7z M935.6,271.7c-7.9,0-14,2.6-18.4,7.8
		c-4.4,5.2-7,12.9-7,22.4c0,9.4,2.6,16.4,7,21.6s10.6,7.8,18.4,7.8s14-2.6,18.4-7.8c4.4-5.2,6.1-12.1,6.1-22.4
		c0-9.5-1.8-17.2-6.1-22.4C949.1,274,942.4,271.6,935.6,271.7L935.6,271.7z M995.3,342.5v-18.2c7.9,5.2,15.8,8.6,24.6,8.6
		c12.3,0,18.4-3.5,18.4-10.4c-0.2-1.8-0.8-3.6-1.8-5.2c-1-1.6-2.6-2.8-4.4-3.5c-2-1-4-1.9-6.1-2.6l-7.9-2.6
		c-3.3-1.3-6.5-2.7-9.7-4.3c-2.5-1.5-4.8-3.2-7-5.2c-2-2-3.5-4.3-4.4-6.9c-1.1-2.8-1.7-5.7-1.7-8.6c-0.1-3.9,0.8-7.8,2.6-11.2
		c1.7-3.4,4.5-6.1,7.9-7.8c3.5-2.6,7-3.5,11.4-5.2c4.3-1,8.7-1.6,13.2-1.7c7.5-0.3,14.9,0.9,21.9,3.5v17.3
		c-6.2-4.2-13.6-6.3-21.1-6.1c-2.4-0.2-4.8,0.1-7,0.9c-1.8,0.9-3.5,0.9-5.3,1.7c-1.6,0.7-2.8,1.9-3.5,3.5c-0.7,1.3-1,2.8-0.9,4.3
		c-0.1,1.8,0.2,3.6,0.9,5.2c0.7,1.6,2,2.8,3.5,3.5c2,1,4,1.9,6.1,2.6c2.6,0.9,4.4,1.7,7.9,2.6c3.3,1.8,6.9,3.2,10.5,4.3
		c3.5,0.9,5.3,3.5,7.9,5.2c2,2.1,3.7,4.5,5.3,6.9c1.1,3.1,1.7,6.3,1.8,9.5c0,4.3-0.9,8.6-3.5,11.2c-1.9,3.2-4.6,5.9-7.9,7.8
		c-3.9,2-8,3.8-12.2,5.2C1021.6,350.1,1007.6,348.6,995.3,342.5L995.3,342.5z M1117.4,347.7c-14,0-24.6-4.3-32.5-12.1
		c-7.9-7.8-12.2-19-12.2-31.9c0-14.7,4.4-25.9,13.2-34.5c8.8-8.6,20.2-12.2,34.2-12.2c14,0,24.6,4.3,32.5,12.2s11.4,19,11.4,33.7
		c0.4,12.4-4,24.4-12.2,33.7c-9.9,7.5-22.1,11.4-34.5,11.2L1117.4,347.7z M1118.3,271.7c-7.9,0-14,2.6-18.4,7.8
		c-4.4,5.2-7,12.9-7,22.4c0,9.4,2.6,16.4,7,21.6s10.6,7.8,18.4,7.8c7.9,0,14-2.6,18.4-7.8c4.4-5.2,6.1-12.1,6.1-22.4
		c0-9.5-1.8-17.2-6.1-22.4C1131.7,274,1125.1,271.4,1118.3,271.7L1118.3,271.7z M1233.2,232.8c-2.9-1.8-6.3-2.7-9.7-2.6
		c-9.7,0-14.9,5.2-14.9,16.4v12.1h20.2v15.5h-20.2V346h-20.1v-71.7h-14.9v-15.5h14.9v-13.8c0-9.5,2.6-16.4,8.8-21.6
		c9.7-7.5,22.5-9.8,34.2-6.1v15.5L1233.2,232.8L1233.2,232.8z M1291.2,344.2c-3.5,1.7-8.8,2.6-15.8,2.6c-17.6,0-25.5-7.8-25.5-24.2
		v-49.2H1235v-15.5h14.9V238l20.2-5.2v25.9h21.1v15.5h-21.1v43.2c-0.3,3.9,0.6,7.8,2.6,11.2c1.8,2.6,5.3,3.5,9.7,3.5
		c3.1,0,6.2-0.9,8.8-2.7L1291.2,344.2L1291.2,344.2z M662.7,524.4h-22.8l-11.4-31.1h-49.2l-10.6,31.1h-22.8l46.5-121.7h22.8
		L662.7,524.4z M623.2,476.9l-17.6-48.3c-0.8-2.5-1.4-5.1-1.7-7.8c-0.4,2.6-1,5.2-1.7,7.8l-16.7,48.3H623.2z M742.7,445.7l-47.4,63
		h47.4v15.5h-75.6v-7.6l49.2-63.9h-43.9v-15.5h71.1v8.6L742.7,445.7z M837.4,524.4h-20.2v-13.8c-5.3,10-15.9,16-27.2,15.5
		c-21.1,0-31.6-12.1-31.6-37.1v-51.8h20.2v50.1c0,15.5,6.1,23.3,18.4,23.3c5.6,0.2,11.1-2,14.9-6.1c3.9-4.9,6.1-11,6.1-17.3v-50
		h20.2L837.4,524.4z M914.7,456.2c-3.2-1.9-6.8-2.8-10.6-2.6c-6.1,0-10.6,2.6-14.9,7.8c-4.4,5.2-6.1,12.2-6.1,21.6v41.5h-20.2v-87.2
		h20.2v18.1c1.7-5.5,4.7-10.6,8.8-14.7c3.8-3.4,8.8-5.3,13.9-5.2c2.7,0,5.4,0.6,7.9,1.7L914.7,456.2z M1004.2,486.4h-60.6
		c0,7.8,2.6,14.7,7.9,19c4.4,4.3,11.4,6.9,20.2,6.9c9.5,0.2,18.8-2.8,26.4-8.6v15.5c-8,5.2-18.5,7.8-31.7,7.8
		c-11.5,0.4-22.6-4-30.7-12.2c-7.9-7.8-11.4-19-11.4-33.7c-0.4-12.1,4-23.9,12.2-32.8c7.9-8.6,19.1-13.3,30.7-13
		c12.2,0,21.1,3.5,28.1,11.2c7,7.8,9.7,18.1,9.7,31.9L1004.2,486.4z M984.9,472.6c0-6.9-1.8-12.9-5.3-16.4c-3.4-4.2-8.6-6.5-14-6.1
		c-5.6-0.2-11.1,2-14.9,6.1c-4.4,4.3-6.1,9.5-7,16.4L984.9,472.6z"/>
	<path class="st1" d="M309.2,228.6l-65.5,131.9L359,494.1l-214,24.3l332,3.5L309.2,228.6z M296.3,176.6L146,302.4L34.4,490.7l95-9.5
		L296.3,176.6z"/>
</g>
</svg>
