<?xml version="1.0" encoding="utf-8"?>
<!-- Generator: Adobe Illustrator 27.3.1, SVG Export Plug-In . SVG Version: 6.00 Build 0)  -->
<svg version="1.1" id="Layer_1" xmlns="http://www.w3.org/2000/svg" xmlns:xlink="http://www.w3.org/1999/xlink" x="0px" y="0px"
	 viewBox="0 0 500 500" style="enable-background:new 0 0 500 500;" xml:space="preserve">
<style type="text/css">
	.st0{fill:#FFFFFF;}
	.st1{fill:#433643;}
	.st2{fill:#009A44;}
	.st3{fill:#FF8200;}
	.st4{fill:#A7A9AC;}
	.st5{fill:#3EAB5F;}
	.st6{fill:#EBF1F4;}
	.st7{opacity:0.3;fill:#FFFFFF;enable-background:new    ;}
	.st8{fill:#E51E25;}
	.st9{fill:none;stroke:#FFFFFF;stroke-width:2;stroke-linecap:round;stroke-linejoin:round;stroke-miterlimit:10;}
	.st10{fill:#010101;}
	.st11{opacity:0.4;fill:#55285B;enable-background:new    ;}
	.st12{opacity:0.31;fill:#3F5C7E;enable-background:new    ;}
</style>
<g>
	<path class="st0" d="M145.5,269.1c0,0-13.7,3.4-14.7,6.2c-0.9,2.8-3.3,49.2-3,60.8c0.4,11.5-2.2,37.9,1.6,41.3
		c3.8,3.3,24.4,16.1,24.4,16.1s-15.4,5.6-16.9,13.2c-2.6,13.1,20.2,41.8,63.1,41.8c48.4,0,72.5-10.1,77.4-18.8s4.9-8.6,4.9-8.6
		s51.2-10.3,55-14.4c3.9-4.2-0.4-26.9-0.4-26.9l-8.4-78.6l-151.9-37.4L145.5,269.1z"/>
	<path class="st0" d="M231.6,238.7l100.9-81.8l35.2,29.1c0,0,10.6,6.9,10.3,12.4c-0.4,5.5-84.2,85.7-91.3,84.2
		c-7-1.5-40.4-30.7-40.4-30.7L231.6,238.7z"/>
	<path class="st1" d="M215.7,310.1c9.4-10.9,96.9-16.9,96.9-16.9l11,96.6c-4.6,4.4-98.9,22.9-98.9,22.9
		C219,405.6,215.7,310.1,215.7,310.1z"/>
	<path class="st2" d="M180.3,108.2c0,0,4.1-7.3,12-14.7c7.9-7.4,23-14.2,23-14.2s20.4-10.1,41.3-10.3c33.9-0.4,61.2,21,65,36.8
		c3.8,15.8,2.8,13.8,2.8,13.8l-13.2-3.3c0,0,1.3,5.4-3.4,6.9c-4.7,1.6-28.2,6.4-28.2,6.4l-3.2,5.5l-1.3,7.1c0,0-7.6,6.9-18.2,7.4
		c-10.7,0.4-19.6-0.6-19.6-0.6L226,133.5l-17.1-6.4l-12.9,3.1c0,0-6.1-2.7-11.8-8.1C178.6,116.6,180.3,108.2,180.3,108.2z"/>
	<path class="st2" d="M292.9,176.3c0,0-0.1-13.9,4.6-21c4.7-7.2,14-13,14-13l49,5.3c0,0,1.6-1.6,3.6,3.4c2,5-3.6,8.3-3.6,8.3
		s8.6-3.7,11,0c2.3,3.7-5.7,12.5-5.7,12.5s1.6-2.5,2.7,3.4c1.1,5.9-4,7.9-4,7.9l-30.3-20.1l-3.2,1.4l-34,23.4L292.9,176.3z"/>
	<path class="st2" d="M200.1,215.7c0,0,2.4-6.5,18.1-14.1c15.7-7.6,28.9-7.6,28.9-7.6s18.4,15.3,17.9,25.6c-0.2,4.4-5.5,1.6-5.5,1.6
		s9.4,10.4,6.8,16.9c-2.6,6.5-13.7,6.2-13.7,6.2s-4.6,9.4-14.1,7.2s-18.4-3.8-26.1-13.8C203.8,226.8,200.1,215.7,200.1,215.7z"/>
	<path class="st2" d="M156.1,233.3c0,0,13.3,5,26,5.2c12.8,0.1,34.4-1,34.4-1l29.6,14.5l36.8,30.7h3.5l33.9-26.4l28.1-26.2
		l19.9,11.3c0,0,25.4-2,25.4,7.6c0,6.6-20.3,5.9-20.3,5.9s2.4,3.4-0.5,7.7c-2.9,4.3-21,5-21,5s23.9,30,26.9,53.2
		c2.8,21.8-7.9,52.5-36,50.7c-28.2-1.8-35.3-7.4-36.4-10.3c-1.1-2.8,44.3,0.7,44.4-12.8c0.1-13.5-7.1-28.6-11.5-33.7
		c-4.4-5-10.8-13.5-10.8-13.5l-5.2-4c0,0,3.8,11.8-2.6,15.4c-4,2.3-12.1-1.3-12.1-1.3s-3.7,7.4-9.6,7.2c-6-0.2-16.2-11.6-16.2-11.6
		l-24.1-12.3c0,0-39.5,8-68.2-13.8S156.1,233.3,156.1,233.3z"/>
	<path class="st3" d="M237.4,149c0,0,11.2,2.3,19.6,0.6c8.4-1.7,18.2-7.4,18.2-7.4l1.3-7.1l1.8-3l33.4,10.1c0,0-12.5,7.4-15.9,16.9
		c-3.3,9.3-2.8,17.1-2.8,17.1l4,11.3l-32.4,27.1c0,0-0.7-6.5-4.1-8.9s-5.1-4.6-9.1-8.3c-4-3.7-6.8-4.6-6.8-4.6s-17.2,3.5-26.1,8.5
		c-8.9,5-18.1,14.1-18.1,14.1l10,22.1c0,0-21.5,1.8-33.6,0.2c-12.1-1.6-20.3-4.7-20.3-4.7s-9.1-45.3-1.9-74.2
		c1.3-5.3,3.3-10.8,5.5-16.1c7.5-17.6,18.2-33.4,18.2-33.4s3.2,10.4,8.4,14c5.2,3.5,9.7,6.8,9.7,6.8l-24.9,12.1l-6.3,15.2l13.9,43.7
		l13.7,3.3c0,0,19.7-11,29.3-13.7c9.6-2.7,23.2-6.1,23.2-6.1l4.8-0.3l3.2-12.4L237.4,149z"/>
	<path class="st2" d="M182.2,101.7c0,0-4.7-6.3-6.1-14.8c-1.2-6.9-1.1-15.4,3.8-18.4c2.1-1.3,12.3-0.4,18.3,3
		c7.2,4.3,12.9,9.1,12.9,9.1L182.2,101.7z"/>
	<path class="st2" d="M136.3,109.8c0,0,2.6-3.8,16.9-5c8.4-0.7,23.7,5.7,23.7,5.7s-9.4,13.1-12.3,19c-2.9,5.9-6.9,13.5-6.9,13.5
		s-12-8.6-15.2-14.9C136.7,116.4,136.3,109.8,136.3,109.8z"/>
	<path class="st4" d="M171.2,142.3l17.9-8.2l19.8-7l17.1,6.4l26.9,38.6l-3.2,12.4c0,0-25.9,3.3-32.2,6.7
		c-6.3,3.4-25.2,13.2-25.2,13.2l-13.7-3.3l-13.9-43.6L171.2,142.3z"/>
	<path class="st2" d="M150.1,194c0.6-0.2-15.6-1.2-24.8-11.8c-6.7-7.7-14.5-15.9-13.4-19.7c1.6-5.5,11.2-8.1,20.4-11.3
		c8.6-2.9,23.8-1.4,23.8-1.4s-4.2,18.3-5.2,24.3C149.7,181.3,150.1,194,150.1,194z"/>
	<path class="st2" d="M149.3,199.1c0,0-8.2-1.1-18.8,4.3c-9.8,4.9-18.6,12.3-18.6,17.9c0,5.6,9.6,10,18,15.5
		c9.2,6,29.5,5.6,29.5,5.6s-3.3-11.3-5-19.3C152.7,215.1,149.3,199.1,149.3,199.1z"/>
	<path class="st2" d="M162.4,248.2c0,0-2.8-0.8-8.9,3.8c-6.2,4.5-9.8,14.6-9.8,14.6s11.2,7.7,18.7,7.4c7.5-0.3,16.5-3.6,16.5-3.6
		s-9.1-9.8-11.1-13.3C165.9,253.5,162.4,248.2,162.4,248.2z"/>
	<path class="st5" d="M363.6,281l7.3,12.2c0,0,1.4,0,0.6-5.3c-0.5-3.2-0.5-3.2-0.5-3.2s0.6-2.6-3.4-2.6S363.6,281,363.6,281z"/>
	<path class="st5" d="M377.8,310.3c0,0,4.2-1.2,7.3,2.6c3.1,3.8,6.5,8.3,6.5,8.3s0.1,8.4-6.2,12.3c-6.4,3.9-7.6,2.1-7.6,2.1
		l1.2-14.9L377.8,310.3z"/>
	<path class="st0" d="M227.9,118.7c-6.4-2.8-11.9-25.1-12.2-31.2c-0.3-6.1,24.9-11.6,28.2-9.1c3.3,2.6,16.5,29,13,33.9
		C253.4,117.1,234.6,121.6,227.9,118.7z"/>
	<path class="st0" d="M219.9,84.8c0,0-4.7-5-4.3-13.6c0.4-8.6,4.3-15.3,16.8-18.8c9.7-2.7,16,2,19.8,6.3s4.4,10.3,4.4,10.3h-14.1
		c0,0-1.2-1.2-2.4-4c-1.5-3.5-4.5-2.7-4.5-2.7l3,15.2L219.9,84.8z"/>
	<path class="st0" d="M242.9,119.6c0,0,2,3.2,5,5.2c3,2,6.8,1.3,6.8,1.3l-1.8,5c0,0-6.8,0.2-10.1-2.7c-3.4-2.9-5.5-8.9-5.5-8.9
		L242.9,119.6L242.9,119.6z"/>
	<path class="st1" d="M267,135.5h-8c-2,0-3.5-1.6-3.5-3.5v-3c0-2,1.6-3.5,3.5-3.5h8c2,0,3.5,1.6,3.5,3.5v3
		C270.5,133.9,268.9,135.5,267,135.5z"/>
	<ellipse class="st6" cx="204.3" cy="163.3" rx="20.8" ry="19.3"/>
	<path class="st6" d="M349.8,337.8c0,0-9.6-3.3-12.1-1.7c-2.5,1.6,0,3.8,0,3.8s3.3-0.4,6.3,3.4c3,3.8,7,5.1,7,5.1L349.8,337.8z"/>
	<path class="st6" d="M360.6,367.4l11-8.3c0,0,3.1,17.9,0,21.6s-20.6,12.8-20.7,10.7c-0.1-2.1,11.7-8.8,12.8-13
		C364.6,374.3,360.6,367.4,360.6,367.4z"/>
	<path class="st6" d="M342.2,356.1c0,0-3.3-7.2-9.8-9.6c-6.5-2.3-16.5-5.9-17.5-3.3c-1,2.6,9.8,6,12.8,8.4c3,2.3,3.8,6.7,3.8,6.7
		L342.2,356.1z"/>
	<path class="st6" d="M330.8,370.2l12.2,1.1c0,0-6.3,9.9-12.2,11.9c-5.9,2-22,1.8-21.5-1.9c0.5-3.7,11.5-0.9,15.4-4
		C328.4,374.3,330.8,370.2,330.8,370.2z"/>
	<ellipse transform="matrix(0.5 -0.866 0.866 0.5 38.6414 254.0338)" class="st7" cx="239.3" cy="93.6" rx="2.4" ry="4.7"/>
	<polygon class="st7" points="207.5,128.4 223.5,136.2 249,172.7 248.5,182.8 251.3,172.5 225.3,134.1 	"/>
	<path class="st8" d="M326.3,404.2l-7.3,1.9c-0.6,0.1-1.3-0.2-1.5-0.9l-0.7-2.6c-0.1-0.6,0.2-1.3,0.9-1.5l7.3-1.9
		c0.6-0.1,1.3,0.2,1.5,0.9l0.7,2.6C327.3,403.4,326.9,404.1,326.3,404.2z"/>
	<polyline class="st9" points="269.7,184 259.3,179.9 264.4,169.6 	"/>
	<line class="st9" x1="271.5" y1="164.9" x2="274.6" y2="185.5"/>
	<polyline class="st9" points="275.9,166.5 283.8,171.9 281.2,180.9 	"/>
	<g>
		<path class="st10" d="M394.7,247.1c-1.8-7-10.6-7.1-17.6-7.2c-3.3-0.1-6.4-0.1-8.4-0.8c-4.9-1.7-13.5-7-17.1-9.4
			c13.7-12.8,28.9-27.6,29.4-31c0.2-1.4-0.4-3.8-6.7-9.6c-2-1.8-4.5-4-7.5-6.3c2.3-1,5-2.9,5-6.6c0-2.4-1-3.8-1.8-4.5
			c-0.4-0.3-0.7-0.6-1.1-0.8c2.7-2.2,6-5.9,4.8-10.3c-0.5-1.8-1.5-3.1-3-4c-1.4-0.8-3-0.9-4.5-0.9c0.9-1.6,1.6-3.7,1-5.8
			c-1-3.8-5.2-4.2-9.1-4.5c-1.4-0.1-2.9-0.3-4.3-0.6c-1.5-0.3-5.2-0.6-10.3-1.1c-9.1-0.9-21.7-2.1-31.2-4
			c-11.7-2.2-25.6-6.9-30.8-8.7l0.8-0.9c2.3-0.5,12.8-2.8,21.1-4.6c7.3-1.6,9.8-5.5,10.7-7.7c5.8,1.6,9.6,3.5,9.6,3.5l1.8,1l0.4-2.1
			c0.1-0.9,3-20.7-25.4-40.5c-14.6-10.2-30.5-12.8-42.6-13c-0.9-2.7-3.3-8.9-7.1-12.2c-4.6-4.1-9.8-6.3-20.1-3.7
			c-9.4,2.4-14.2,7.5-16,17.1c-0.6,3.5-0.5,6.6,0.1,9.1c-0.7,0.4-1.7,1.1-2.9,1.8c-1.8-1.6-5.5-4.7-11.5-8.1
			c-9.6-5.6-19.1-4.7-21.4-3.3c-4.1,2.3-5.5,12-3,22.1c1.8,7.4,4.3,11,5.6,12.4c-1.8,2.1-3.7,4.4-5.6,6.9c-2.4-1.1-9.5-3.9-17.8-5
			c-12.5-1.6-20.3,1.8-21.7,4.7c-2.2,4.5,1.6,16.9,9.4,25.5c5.4,5.9,9.2,8.2,11.2,9.1c-0.6,1.7-1.2,3.4-1.8,5.2
			c-3-0.2-13.2-0.9-23,1.6c-9.9,2.5-20.6,7.2-21.3,10.8c-1.1,5.2,7.7,18.4,19.4,26.3c8.4,5.6,15.4,7.2,18.8,7.7
			c0,0.7,0.1,1.3,0.1,2.1c-4.2,0.7-12.7,2.4-20.3,6.2c-10.8,5.4-18.2,14.9-18.1,17.9c0.1,5.8,12.4,14.1,24.2,18.8
			c7.5,3,14.3,3.5,18.8,3.5c2.3,0,4-0.1,4.7-0.3c0.4,0.9,0.8,1.7,1.1,2.5c0.1,0.3,0.3,0.6,0.5,1c-1.2,0.6-4.5,2.3-8.9,5.7
			c-6.2,4.8-8.1,11.4-7.8,13.4c0.1,0.3,0.1,0.6,0.2,0.8c-3.3,1.4-10.8,4.9-12.8,8.7c-2.1,3.8-3.8,23.2-5.4,42.6l-0.4,4
			c-0.9,10.5-0.1,49.5,4.3,55.5c2,2.8,12.3,9.2,22.4,15.1c-5.6,2.2-16.5,7.9-16.5,18.3c0,16.5,27.5,37,67,39.9
			c4.8,0.4,9.4,0.5,13.7,0.5c41.9,0,60.9-15.3,63.9-19.9c2.2-3.4,2.8-6,3-7.4c17.9-4.2,54-12.8,56.4-15c2.1-1.9,0.6-24.4,0.4-31.5
			c2-2.1,2.8-3.8,3.2-5c0.6,0,1.1,0.1,1.7,0.1c0.4,0,0.7,0,1.1,0c5.7,0,10.8-1.1,15.2-3.3c0.8,1.6,1.8,4.7,1.2,7.6
			c-0.4,2.1-4,5.3-6.8,7.9c-3.5,3.3-5.7,5.2-4.5,6.7c0.4,0.4,1,0.7,1.9,0.7c0.2,0,0.4,0,0.6,0c4.4-0.4,14.6-5.1,18.3-11.5
			c3.8-6.7,1.7-20,1.2-22.5c3.9-6.2,6-13.8,6.9-21.5c1-0.4,2.7-1.1,4.3-1.6c2.6-0.9,9.6-9.5,8.9-12.8c-0.6-2.7-2.8-5.5-6.3-9.6
			c-2.8-3.3-6.7-3.5-8.5-3.4c-1.4-5.7-3.5-10.9-6-15.7c0.7-3.2,1.5-9-1.4-11c-2.1-1.5-4.8-2-6.7-2.1c-3.5-5-6.9-8.8-9.2-11.2
			c8.4,0.4,12.1-1.2,16.4-3.5c3.7-2,4.3-6,3.9-8.9c4.5,0.1,14.9-0.4,18.4-4.7C394.9,250.7,395.2,248.9,394.7,247.1z M385.1,313.9
			c3.3,4,5.4,6.5,5.8,8.7c0.4,1.8-5.5,9.8-7.6,10.5c-1.1,0.4-2.4,0.9-3.4,1.3c0.6-7,0.2-13.9-0.7-19.7c-0.2-1.1-0.4-2.3-0.6-3.4
			C380.1,311.1,383,311.4,385.1,313.9z M377.9,198.4c-0.7,2.5-16.1,18.3-44.2,43.6c-26.6,24-45.1,39.1-47.5,39.7l0,0
			c-3.3,0-22.1-15.3-39.3-30.7c3.5-1.3,6.2-3.1,7.2-3.9c0.1,0,0.2,0,0.4,0l21.4,19.2c0.6,0.5,1.3,0.8,1.9,0.8c0.7,0,1.3-0.2,1.9-0.7
			l18.9-16.6c0.6-0.6,1-1.3,1-2.2s-0.4-1.6-1-2.2l-3.3-3l-0.4-0.4l-0.1,0.1l-7.9-6.9l-2.8-3l-0.4,0.3l-9.1-8.1
			c-1.1-0.9-2.6-1-3.8-0.1l-5.2,4.1c-1-1.7-2.2-3.3-3.3-4.5c1.3,0,2.6-0.2,3.4-0.9c0.7-0.6,1.5-1.7,1.1-3.7
			c-0.2-1.3-0.5-2.6-0.9-3.7c3.2-2.6,37.1-30.6,41.7-33.7c1.1-0.7,2.7-1.8,4.6-3.3c6-4.3,18.3-12.9,21-13.7c1.8,0.3,12,6.2,24.1,15
			C372.7,190.8,378,197,377.9,198.4z M251.3,172.5l-2.9,10.3c-3.8,0.1-15.8,1.1-32.4,7.9c-12.5,5.2-23.5,10.9-26,12.2l-10.7-2.4
			l-13.1-41.1l5.3-14.9c1.6-1.1,8.4-5.8,14.8-8.6c6.7-3,19.8-6.7,22.4-7.4l16.6,5.5L251.3,172.5z M240.1,150.4
			c2.4,0.4,5.8,0.9,9.7,0.9c3.2,0,6.7-0.3,10.1-1.1c7.2-1.6,11.4-3.9,13.7-5.4c0.1,1.6,0.3,3.3,0.7,4.8c1.4,5.2,1.5,9.1,1.5,9.2v0.9
			l0.9,0.4c0.1,0,7,3.5,13,15.4c3.8,7.7,5.2,10.9,5.7,12.3c-10.7,8.6-25.7,21-30,24.5c-1.9-4.9-5.1-8.4-9.8-11.4
			c-4.7-2.9-7.7-12.1-8.5-14.9c1.8-0.1,2.8-0.1,2.8-0.1h1.2l3.9-14L240.1,150.4z M217.3,193.5c11.5-4.7,20.8-6.6,26.4-7.3
			c0.3,1,1.1,3.7,2.4,6.7c-4,0-13,0.9-27.9,7.6c-10.7,4.7-15.8,9.9-18,12.8c-1.9-5-3.3-9.1-3.8-10.3
			C201.4,200.7,209,197,217.3,193.5z M219.1,202.5c15.9-7.2,25.1-7.5,28.1-7.4c1.6,3.3,3.8,6.7,6.6,8.4c6,3.8,9,8.4,10.3,16.2
			c0.1,0.4,0.1,0.7-0.1,0.9c-0.6,0.6-3.4,0.1-5.5-0.6L251,217l6,5.4c3.1,2.8,10.6,11.2,7.3,15.9c-4.2,6-10.5,5.9-10.7,5.9H253
			l-0.4,0.4c-0.1,0.1-9.7,7.7-19.6,4.3c-12.9-4.5-21.3-10.7-25.6-19c-2.1-4-4.3-9.3-6.2-14.1C202.5,213.5,207.2,207.8,219.1,202.5z
			 M266.8,239.9c0.6-0.9,1-1.9,1.2-2.9l9.9-8.6l5.1,4.5l-21.7,18.4l-4.9-4.4l0.2-0.2C259.5,246.1,263.6,244.4,266.8,239.9z
			 M266.3,229.2l5.3-4.3c0.7-0.6,1.8-0.6,2.4,0.1l3.2,2.8l-9.1,7.8C268.1,233.4,267.3,231.2,266.3,229.2z M272.9,261.8l-5.3-4.9
			l22.5-17.8l4.1,3.6L272.9,261.8z M294.8,243.3l3,2.7c0.4,0.4,0.6,0.9,0.6,1.4s-0.2,1.1-0.6,1.4l-18.9,16.6c-0.7,0.6-1.8,0.6-2.6,0
			l-3.1-2.8L294.8,243.3z M266.3,256.5l-4.6-4.1l22-18.8l2.4,2.1l2.6,2.9L266.3,256.5z M313.3,143.4c6.4,1.1,13.7,2,20.5,2.7
			c5.7,2.2,14,6.6,14.7,9.5c-0.7,1.4-9.3,2-18,1.1c-0.9-0.1-1.6,0.5-1.6,1.3c-0.1,0.9,0.5,1.6,1.3,1.6c1.7,0.1,5,0.4,8.6,0.4
			c4.9,0,10.1-0.5,11.9-2.6c0.7-0.8,0.9-1.8,0.7-2.8c-0.7-2.9-4.5-5.7-8.4-7.9c4.8,0.5,8.6,0.9,10,1.1c1.6,0.3,3.1,0.4,4.6,0.6
			c3.8,0.4,6.1,0.6,6.5,2.3c0.6,2.3-1.7,5.2-2.6,6.1l-5.1,4.8l6.7-2.3c1.1-0.4,4.3-1.1,6.2-0.1c0.8,0.4,1.3,1.1,1.5,2.1
			c1.2,4.5-6.3,8.9-6.4,8.9l-6.1,3.4l7-0.6c0.4,0,1.8,0,2.6,0.8c0.6,0.5,0.8,1.2,0.8,2.3c0,2.8-3.2,3.9-4.8,4.3
			c-12-9.2-27.8-19.6-30.9-19c-2.8,0.6-12.2,7.1-22.2,14.2c-1.9,1.3-3.5,2.5-4.6,3.2c-1.2,0.9-4.4,3.3-8.5,6.6
			c-0.6-1.7-1.8-4.3-3.9-8.6c-0.4-2.6-1-10.1,3.6-20.1C301.7,147.8,310.1,144.4,313.3,143.4z M309.4,142.7
			c-4.3,1.9-10.3,5.8-14,13.7c-3.1,6.8-4,12.5-4.1,16.4c-5.1-9.5-10.6-13.6-12.7-14.9c-0.1-1.6-0.4-4.9-1.6-9.1
			c-1.2-4.5-0.3-10.9-0.1-12.5l2.1-2.3C283,135.2,297,140.1,309.4,142.7z M244.9,54.5c1.3,0.7,2.6,1.6,3.8,2.6
			c2.8,2.6,4.9,7.2,5.9,10c-4.7,0.1-8.6,0.6-11.5,1c-0.4-0.9-1.1-2.6-2.3-4.3c-1.1-1.6-2.9-2.8-3.7-3.3c0.1-0.4,0.1-0.9,0.1-1.3
			C238.1,54.8,242.7,54.5,244.9,54.5z M228.3,118.9c-3.8-1.1-12-24.8-10.7-30.5c0.4-1.9,2.6-4,6-5.7c4.6-2.5,10.8-3.9,15.4-3.9
			c1.8,0,3.3,0.2,4.4,0.6c4,1.6,12.9,23.8,11.6,31.5c-0.2,1.3-1.3,2.5-3.1,3.7C245.4,118.6,231.9,120,228.3,118.9z M247.9,125.8
			c2.6,1.2,4.7,1.8,6.1,2c-0.4,0.8-0.6,1.6-0.6,2.5c-1.9-0.2-5.2-0.9-8-2.5c-3.4-1.9-4.8-4.7-5.4-6.2c0.9-0.1,1.8-0.4,2.8-0.5
			C243.4,122.4,244.8,124.3,247.9,125.8z M237.9,69.2c-0.4-1.6-0.6-3.3-0.8-5c0.4,0.4,0.9,0.8,1.1,1.2c0.9,1.3,1.4,2.4,1.7,3.2
			c-1.1,0.2-1.6,0.4-1.7,0.4C238.2,69.1,238.1,69.1,237.9,69.2z M217.5,68.8c1.6-8.5,5.5-12.6,13.8-14.7c3.6-0.9,6.5-1.2,8.9-0.9
			c-2.3,0.9-4.2,2.6-4.8,5.7c-1,5,0.9,12.7,2.2,16.9c-4.9,0.2-10.7,1.8-15.4,4.3c-1.1,0.6-2,1.1-2.8,1.8
			C218,79.3,216.3,74.8,217.5,68.8z M177.7,89.3c-2.4-9.8-0.9-18.2,2.1-19.8c1.4-0.8,10.3-2.1,19.4,3.3c5.2,3.1,8.8,6,10.7,7.5
			c-4.5,2.8-10.8,6.7-15.8,10.1c-2.8,1.9-6.9,5.5-11.3,10.3C181.6,99.4,179.3,96.1,177.7,89.3z M180.3,108.2
			c6.8-8.4,12.8-13.7,15.4-15.4c6.8-4.5,15.7-10,19.6-12.4c0.5,1.3,1.1,2.5,1.5,3.3c-1.2,1.3-2,2.6-2.3,4
			c-1.4,6.2,6.6,32.3,12.8,34.1c1,0.3,2.6,0.4,4.4,0.4c1.8,0,3.9-0.1,6.1-0.4c0.6,1.7,2.1,5.3,6.4,7.7c3.4,1.9,7.3,2.6,9.3,2.8
			c0.8,2.6,3.1,4.4,5.9,4.4h5.5c3.4,0,6.2-2.8,6.2-6.2c0-3.4-2.8-6.2-6.2-6.2h-5.5c-1.6,0-3,0.6-4,1.6c-0.9-0.1-3.3-0.4-6.7-1.9
			c-2.3-1.1-3.4-2.4-4-3.4c3.3-0.9,6.3-2,8.7-3.5c2.6-1.6,4.1-3.5,4.5-5.7c1.3-8.1-7.3-32.4-13.5-34.9c-1.3-0.5-3-0.8-4.8-0.9
			c-0.3-1-0.6-2.3-1.1-3.7c0.1,0,0.4,0,0.5-0.1c0.4-0.1,32.4-8.4,59.5,10.6c21.5,15,24,30,24.2,35.5c-4.3-1.9-14.6-5.6-26.8-4.5
			c-15.4,1.3-23.4,2.7-23.5,2.7c-0.9,0.1-1.3,0.9-1.2,1.8s0.9,1.4,1.8,1.2c0.1,0,7.9-1.3,23.2-2.7c5.4-0.5,10.4,0.1,14.7,1
			c-0.7,1.6-2.8,4.3-8.4,5.5c-9.4,2-21.5,4.7-21.6,4.7l-0.5,0.1l-6.1,7.1l-0.1,0.4c-0.1,0.2-0.6,3.3-0.7,7c-1.5,1.2-5.7,4-14.1,6
			c-8.8,2.1-17.7,0.6-21-0.1l-11.1-16.4l-18.3-6.2l-0.4,0.1c-0.4,0.1-6.2,1.7-12.5,3.7c-2-1.1-7.2-4.3-10.8-8.1
			C180.5,116,180.2,110.2,180.3,108.2z M255.4,130.5c0-2.3,1.8-4.1,4.1-4.1h5.5c2.3,0,4.1,1.8,4.1,4.1c0,2.3-1.8,4.1-4.1,4.1h-5.5
			C257.2,134.7,255.4,132.8,255.4,130.5z M147.2,133c-7.7-8.4-10.8-19.8-9.1-23.2c0.6-1.3,6.8-5.2,19.6-3.5
			c7.5,0.9,14.2,3.5,16.8,4.6c-6.1,8.3-12.2,18.8-16.9,30.8C156,140.7,152.3,138.5,147.2,133z M149.1,193c-3.3-0.5-9.9-2.1-17.6-7.3
			c-11.4-7.7-19.3-20.1-18.6-24.2c0.3-1.6,7.4-6.2,19.8-9.3c8.8-2.2,18.5-1.8,21.8-1.6c-0.6,1.8-1.1,3.8-1.6,5.7
			C150,168.2,148.9,180.9,149.1,193z M135.8,238.1c-13.6-5.4-22.8-13-22.9-16.9c-0.1-1.9,6.6-10.9,17-16.1c7.1-3.5,15.2-5.2,19.4-6
			c0.7,13,2.9,25.2,6,35.2l-0.1,0.1c0,0,0.1,0,0.1,0.1c0.8,2.4,1.6,4.7,2.4,6.8C154.9,241.6,145.8,242.1,135.8,238.1z M158.2,233.3
			c-6.3-20.3-8.8-49.8-2.2-76.3c4.9-19.7,14-35.3,22.4-46.3c0.4,3.2,1.7,7.7,5.4,11.7c3,3.3,7.2,6,9.7,7.6c-3,1-6,2.1-8.2,3.1
			c-7.6,3.4-15.4,9-15.7,9.3l-0.4,0.3l-6,16.7l14,43.7l13.5,3l0.5-0.3c0,0,1-0.6,2.7-1.4c1.2,3.5,6.2,17.7,10.9,26.7
			c1.1,2.1,2.4,4,3.9,5.8c-4.3,0.4-18.8,1.3-30.3,0.2C168.8,236.3,161.6,234.3,158.2,233.3z M158.9,235.6c3.8,1.1,10.6,2.8,19.3,3.6
			c4,0.4,8.2,0.5,12.3,0.5c10.2,0,19.3-0.9,19.5-0.9v-0.4c5.1,5.4,12.4,9.7,22,13.1c2.2,0.8,4.4,1.1,6.4,1.1c1.8,0,3.5-0.2,5.1-0.6
			c9.4,8.4,36.8,32.7,42.8,32.7c0.1,0,0.1,0,0.2,0c2.7-0.2,17-12.1,29.5-23c1.7,1.5,8.8,7.9,14,11.8c5,3.8,5.9,18.6,2.6,24.3
			c-0.6,1.1-1.4,1.7-2.3,1.8c-1.8,0.2-4.1-1.8-4.8-2.6l-3.8-4.2l1.2,5.5c0,0.1,2.1,10-3.3,12.5c-5.6,2.6-10.8-1.6-11.1-1.8l-2.3-1.9
			l-0.2,3c0,0.2-0.5,5.9-6.8,6.7c-5.5,0.7-12.1-7.3-14.2-10.5l-0.3-0.4l-0.5-0.1c-0.1,0-7.1-2.6-18-9c-6.1-3.5-8.5-3.3-13.2-3
			c-4.7,0.4-11.8,1-27.6-1.3c-39.8-5.6-58.3-38.3-63-48.2C161.1,241.9,160,238.9,158.9,235.6z M328.9,349.9c-2.5-2-5.9-3.3-8.6-4.3
			c-1.8-0.7-4-1.6-4.6-2.2c3.2-0.2,17.9,1.3,23,7.4c1.3,1.6,2.1,3,2.6,4c-2.3,0.9-4.9,1.4-7.7,1.8
			C333.4,355.1,332.3,352.7,328.9,349.9z M331.7,357c-3.6,0.4-7.4,0.6-10.8,0.6l-1-10.1c2.6,1,5.6,2.1,7.7,3.9
			C330.5,353.8,331.4,355.8,331.7,357z M306.9,364.1c2.1,2.6,6.5,4.5,13,5.9l0.9,7.9c-3.2,0.9-6.5,0.9-8.9,0.9c-2.6,0-3.8,0-4.4,0.9
			c-0.3,0.4-0.4,0.9-0.1,1.3c0.5,1.4,1.8,2.7,3.8,3.5c1.8,0.8,4.5,1.4,7.6,1.4c1,0,2.1-0.1,3.2-0.2l0.1,3.9
			c-6.4,2.5-52.5,12.8-97,22.2c-0.1,0-0.1,0-0.1-0.1c-3.4-13.1-8.3-96.9-6.9-102.4c2.3-2.4,25.6-6.7,47.2-9.7
			c9.5,5.5,15.9,8.1,17.6,8.8c1.5,2.1,8.4,11.4,15.7,11.4c0.4,0,0.7,0,1.1-0.1c5.3-0.7,7.9-4.2,8.9-7.1c1.2,0.7,2.8,1.4,4.8,1.8
			l3.2,26.8c-0.6,0-1.1,0-1.4,0.1c-0.4,0.1-1.1,0.1-1.3,0.7c-0.3,0.6-0.4,1.3-0.1,1.8c0.4,1,1.5,1.7,3,2.3l1.1,11.3
			c-0.5,0-0.9,0-1.4,0c-7.7,0.1-10.6,0.1-10.8,2.3C305.4,361,305.5,362.4,306.9,364.1z M326.2,301.7c0.2,0.1,0.4,0.2,0.6,0.3
			l2.1,2.2l4.1,40.6l-1.3-0.6c-4.1-1.5-8.6-2.3-12-2.6l-3.2-26.8c1.4-0.1,2.8-0.4,4.4-1.1C325.8,311.4,326.4,305.6,326.2,301.7z
			 M340.2,349.5c-1.1-1.3-2.6-2.4-4.2-3.4h0.1l-0.9-8.2c0.9,1.3,2.9,2.3,5,3.4c1.2,0.6,2.5,1.2,3.5,1.9c1.7,1.1,3.5,4.5,4.5,6.5
			c-1.1,1.8-2.9,3.3-5.2,4.4C342.6,352.9,341.7,351.3,340.2,349.5z M345,341.5c-1.1-0.7-2.4-1.3-3.7-2c-1.8-0.9-4.7-2.3-4.4-3.1
			c0,0,0.1-0.2,0.7-0.4c2.3-0.6,7.7,0.4,11,2.3c0.6,2.7,1,5.3,0.9,7.7c0,0.4-0.1,0.7-0.1,1.1C348.3,345.1,346.7,342.6,345,341.5z
			 M336.9,334.2c-1.1,0.4-1.5,0.9-1.8,1.3l-2.8-27.3c5,6.7,12.4,17.4,15.6,27.5C344.3,334.2,339.5,333.4,336.9,334.2z M152.5,254
			c4.3-3.3,7.6-5,8.6-5.5c2.8,5.3,7.9,13.7,15.9,22c-3.5,0.5-13.7,1.9-19.3,1.1c-6.8-1-11.8-4-12.1-6.2
			C145.3,264.4,146.7,258.5,152.5,254z M132,375.5c-3.4-4.7-4.8-41.4-3.8-53.6l0.4-4c1-12.3,3.1-37.8,5-41.4c1.3-2.6,7.8-5.9,12-7.6
			c2.5,2.1,6.8,3.9,11.8,4.6c1.3,0.2,2.8,0.3,4.4,0.3c7.2,0,16.2-1.5,16.6-1.6l-0.1-0.4c2.2,2.2,4.7,4.4,7.3,6.5
			c-4,1.6-11.5,5.1-14.7,9.6c-2.9,4.2-1.6,53-1.1,67.9c0.1,3.9,0.9,26.1,2.1,44.1C156.4,391.7,134.5,379.1,132,375.5z M172.2,403.7
			c0.7,9.4,1.6,17.2,2.6,19.6c-7.3-3-16.7-8.1-17.2-15c-0.4-4.5,4.5-7.7,6.7-8.9C167.9,401.4,170.8,403,172.2,403.7z M277.5,429.7
			c-2.9,4.5-25.3,21.7-74.9,18c-41.3-3-64.2-23.7-64.2-36.9c0-10.3,13.9-15.4,16.9-16.4c2.3,1.3,4.6,2.6,6.7,3.8
			c-2.8,1.7-7,5.2-6.7,10.2c0.7,10.2,17.1,16.6,24,18.8c10.6,5.7,34,10.8,34.3,10.8c0.1,0,0.4,0.1,0.6,0.1c7,0,57-11.5,62.8-12.8
			c0.8-0.1,1.6-0.4,2.6-0.6C279.5,425.8,278.9,427.5,277.5,429.7z M337.4,406.6c-5.1,3.4-116.6,29.3-123,28.5
			c-8.3-1.6-33.9-8.5-36.9-13c-3.7-6.4-7.3-126.2-4-132.1c3.2-4.5,12.3-8.2,15.1-9.2c9.5,7,21.5,12.8,36.6,14.9
			c16.2,2.3,23.5,1.7,28.3,1.3c3.1-0.3,4.8-0.4,7.2,0.4c-4.5,0.6-11.8,1.8-19,3c-24.8,4.4-25.8,6.6-26.3,7.9
			c-2,4.8,3.7,92.6,6.7,104.4c0.4,1.4,1.6,2.4,3,2.4c0.2,0,0.4,0,0.6-0.1c96.9-20.5,98.6-22.7,99.1-23.5l0.4-0.4l-0.2-5.8
			c1.8-0.4,3.8-1.1,5.7-1.9c2.6-1.1,4.7-2.3,6.3-3.5C338.1,391.7,337.9,405.5,337.4,406.6z M329.9,381.4c-7.2,3.2-14.2,2.9-18,1.3
			c-1.1-0.5-2-1.1-2.4-1.8c0.6-0.1,1.6-0.1,2.4-0.1c3.7,0,9.8-0.1,14.7-3.3c3.5-2.3,5.2-4.5,6-5.8c2.6,0.2,5.5,0.4,8.4,0.5
			C340.2,374.2,337.8,378,329.9,381.4z M323,370.6c2.2,0.4,4.6,0.7,7.2,1c-0.9,1.1-2.3,2.7-4.8,4.3c-0.6,0.4-1.1,0.6-1.6,0.9
			L323,370.6z M369.9,379.5c-3.7,6.4-14.5,10.6-17.1,10.6c0.6-0.9,2.5-2.6,4-4c3.2-3,6.9-6.3,7.4-9c0.7-3.6-0.6-7.1-1.4-9
			c2.6-1.6,5-3.5,7.2-6c0.5-0.6,0.9-1.1,1.3-1.8C371.8,364.9,372.8,374.5,369.9,379.5z M369.6,284.1c1.3,0.9,1.3,3.7,1,6.4
			c-1.6-2.8-3.3-5.5-4.9-7.9C367,282.8,368.4,283.3,369.6,284.1z M376.2,315c2.2,13.6,1.3,33.7-8.7,45.1c-5.5,6.3-13.2,9.4-22.8,9.2
			c-27.1-0.6-33.9-5.3-35.6-7.2c-0.3-0.4-0.5-0.7-0.6-1.1c1.3-0.3,4.8-0.3,7.9-0.4c13.1-0.1,35.1-0.4,36.1-14.5
			c1.1-15.4-14.7-36.3-20.8-43.8c1.1-0.4,2.3-1.2,3.4-3c3.5-6,3.5-21-2.2-27.1c2.3-1.1,9.1-4,17.4-3.5
			C353.3,271.7,372.3,291,376.2,315z M391.3,250.2c-2.5,3-12.3,3.8-17.9,3.5l-2.2-0.1l0.6,2.1c0,0.1,1.7,5.4-2,7.3
			c-4.6,2.4-8.1,3.8-18.8,2.8c-11.4-1.1-20.2,4-20.5,4.3l0.2,0.4c-4.7-3.8-10.6-9-12.5-10.7c8.4-7.3,15.6-13.7,17.4-15.4
			c3.5-3.2,8.4-7.6,13.6-12.4c3.3,2.1,12.8,8.1,18.4,10.1c2.4,0.9,5.8,0.9,9.4,0.9c7.9,0.1,13.6,0.5,14.7,4.9
			C392,248.8,391.9,249.6,391.3,250.2z"/>
		<ellipse class="st10" cx="266.6" cy="89.5" rx="2.1" ry="4"/>
		<path class="st10" d="M199.7,137.8c-15,2.9-25.1,16.6-22.3,30.5c1.3,6.7,5.4,12.5,11.5,16.4c4.5,2.8,9.6,4.2,14.9,4.2
			c1.9,0,3.8-0.2,5.7-0.6c7.2-1.4,13.6-5.3,17.8-11.1c4.3-5.7,5.9-12.7,4.5-19.4C229.1,143.8,214.7,134.9,199.7,137.8z M224.8,175.4
			c-3.8,5.1-9.4,8.6-15.9,9.9c-6.5,1.3-13,0.1-18.5-3.3c-5.4-3.3-8.9-8.4-10.1-14.3c-2.4-12.3,6.6-24.4,20-27
			c1.7-0.4,3.4-0.5,5.1-0.5c11.4,0,21.4,7.4,23.5,18.1C229.9,164.3,228.5,170.3,224.8,175.4z"/>
		<path class="st10" d="M208,422.4c-0.6-2.8-1.1-5.6-1.4-8.4c-0.8-5.7-1.3-11.3-1.8-17.1c-0.9-11.4-1.5-22.9-2-34.3l-0.7-17.2
			c-0.3-5.7-0.6-11.5-0.9-17.2s-0.8-11.5-1.1-17.1c-0.1-2.8-0.2-5.7,0-8.6c0.2-2.8,1-5.7,2.8-7.9c-0.9,1.1-1.7,2.3-2.3,3.7
			c-0.6,1.3-0.9,2.8-1.1,4.2c-0.4,2.9-0.4,5.7-0.4,8.6c0,5.7,0.2,11.5,0.4,17.2l1.2,34.4c0.5,11.5,1.2,23,2.4,34.4
			c0.6,5.7,1.3,11.4,2.4,17.1c0.6,2.8,1.1,5.7,1.9,8.4c0.4,1.4,0.8,2.8,1.3,4.1c0.6,1.3,1.1,2.7,2.1,3.8c-0.9-1.2-1.3-2.6-1.8-3.9
			C208.7,425.3,208.4,423.9,208,422.4z"/>
		<path class="st10" d="M200.2,142.7c-11.9,2.3-19.8,13.2-17.7,24.2c1.1,5.4,4.3,9.9,9.1,12.9c3.5,2.2,7.6,3.3,11.8,3.3
			c1.5,0,3-0.1,4.5-0.4c11.9-2.3,19.8-13.2,17.7-24.2C223.5,147.5,212.1,140.4,200.2,142.7z M207.6,180.7c-5.2,1-10.6,0.1-14.9-2.6
			c-4.3-2.7-7.2-6.8-8.1-11.6c-1.9-9.9,5.3-19.7,16.1-21.8c1.4-0.3,2.8-0.4,4.1-0.4c9.2,0,17.3,6,19,14.6
			C225.6,168.8,218.4,178.6,207.6,180.7z"/>
		<path class="st10" d="M323.4,399.1l-4.4,1.1c-0.9,0.2-1.6,0.8-2.1,1.6c-0.4,0.8-0.6,1.7-0.4,2.6c0.4,1.7,2.1,2.7,3.8,2.5
			c0.1,0,0.3-0.1,0.4-0.1l4.4-1.1l0,0c1.8-0.5,2.9-2.3,2.4-4.2C327.1,399.7,325.3,398.6,323.4,399.1z M324.6,403.7l-4.4,1.1
			c-0.7,0.2-1.5-0.2-1.7-1c-0.1-0.4-0.1-0.7,0.1-1.1c0.2-0.4,0.5-0.6,0.9-0.6l4.4-1.1c0.1,0,0.1,0,0.1,0c0.3-0.1,0.6,0,0.9,0.1
			c0.4,0.2,0.6,0.5,0.6,0.9C325.8,402.8,325.4,403.5,324.6,403.7z"/>
		<path class="st10" d="M326.1,182.5c0-0.4-0.1-0.8-0.4-1.1l-2.6-2.8c-0.5-0.6-1.3-0.6-1.9-0.2L277,211.5c-0.4,0.3-0.6,0.6-0.6,1.1
			s0.1,0.9,0.5,1.1l3.8,3.3c0.3,0.2,0.6,0.4,0.9,0.4c0.3,0,0.6-0.1,0.9-0.3l42.9-33.5C325.8,183.2,326,182.8,326.1,182.5z
			 M324.9,182.6l-42.9,33.5c-0.1,0.1-0.4,0.1-0.5,0l-3.8-3.3c-0.1-0.1-0.1-0.2-0.1-0.3s0-0.2,0.1-0.3l44.2-33
			c0.1-0.1,0.4-0.1,0.6,0.1l2.6,2.8c0.1,0.1,0.1,0.2,0.1,0.3C325,182.5,325,182.6,324.9,182.6z"/>
		<path class="st10" d="M283.1,269.6l5.4,6.6l83-74.5l-6.7-5.7l-81.4,73.3L283.1,269.6z M364.9,197.3l5.1,4.3l-81.4,73.1l-4.1-5
			L364.9,197.3z"/>
		<polygon class="st10" points="153.8,315.6 157.1,313.8 156.6,312.8 152.8,315 152.8,359.3 156.5,362.9 157.2,362.2 153.8,358.9 		
			"/>
		<polygon class="st10" points="142.4,313.6 145.8,311.7 145.3,310.9 141.4,313 141.4,357.3 145.1,360.9 145.8,360.2 142.4,356.9 		
			"/>
		<path class="st10" d="M355.4,188.4L355.4,188.4l-13.3-11.5c-0.9-0.8-2.1-0.8-3-0.1l-51.6,42.6c-0.5,0.4-0.9,1.1-0.9,1.7
			c0,0.6,0.2,1.3,0.7,1.8l12,11.7l1.8,2.2l0.2-0.1l5.2,5c0.4,0.4,1.1,0.7,1.6,0.7s1.1-0.2,1.6-0.6l50-45.9c0.5-0.4,0.8-1.1,0.8-1.8
			c0-0.6-0.3-1.3-0.8-1.7l-4-3.5L355.4,188.4z M288,222.2c-0.3-0.3-0.4-0.6-0.4-1c0-0.4,0.2-0.7,0.5-1l51.6-42.6
			c0.2-0.2,0.6-0.3,0.9-0.3s0.6,0.1,0.9,0.4l3.2,2.8l-54.1,44.1L288,222.2z M291.2,225.3l54-44l3.7,3.7l-53.2,44.6L291.2,225.3z
			 M300.1,233.9l-3.3-3.8l53.3-44.8l4.5,3.9l-53.1,46.1L300.1,233.9z M359.6,194.1c0,0.4-0.1,0.7-0.4,1l-50,45.9
			c-0.5,0.5-1.3,0.5-1.8-0.1l-5.1-5l53.2-46.1l3.8,3.3C359.4,193.3,359.6,193.7,359.6,194.1z"/>
		<path class="st10" d="M236.2,111.9c-7.2,0-13-5.8-13-13c0-7.2,5.8-13,13-13c7.2,0,13,5.8,13,13
			C249.1,106.1,243.4,111.9,236.2,111.9z M236.2,87.9c-6,0-11,5-11,11c0,6,5,11,11,11s11-5,11-11C247.1,92.9,242.2,87.9,236.2,87.9z
			"/>
	</g>
	<path class="st11" d="M330.8,270.4c0,0,7.9-3.4,13-3.3c5,0.1,9.3,1.6,9.3,1.6l7.5,10.6c0,0-9.7-1.8-14.9,1.6s24.2,44,20.3,62.4
		c-8.5,40.3-59.1,20.7-59.1,20.7l0.4-5.7c0,0,36.4,2.5,40.8-7.9c4.3-10.4-1.2-22.4-5.7-31.8c-13-12.5-12.5-16.1-12.5-16.1
		s6.3-1.3,6.1-5.6C335.6,292.4,330.8,270.4,330.8,270.4z"/>
	<path class="st11" d="M335.3,337.9c1.5-3.8,8.4-2.8,10.8-1.2c2.5,1.6,4.7,1.2,4.7,1.2l-0.1,10.4c0,0-5-6-7.7-6.5
		C340.4,341.3,335.3,337.9,335.3,337.9z"/>
	<path class="st11" d="M252.9,248.2l20.3,19c7.1,1.3,14.5-7.9,14.5-7.9s-6.9,3.4-12,1.8c-5-1.5-18.2-16-18.2-16L252.9,248.2z"/>
	<path class="st11" d="M290.3,217.1c0,0-5.5,1.3-5.2,3.5c0.2,2.1,17.8,20.7,21.6,21.1c3.8,0.4,6.7-4.3,6.7-4.3s-1.1,1.8-6.4-0.1
		c-5.2-1.8-16.6-13-16.6-16.6C290.3,217.1,290.3,217.1,290.3,217.1z"/>
	<path class="st11" d="M279.9,209.3c0,1.3,2.6,5.2,4.3,5.1c1.8-0.1-1.5,5.5-3.4,4.3c-1.9-1.2-4.8-2.6-5.8-5.2
		C273.9,211,279.9,209.3,279.9,209.3z"/>
	<path class="st11" d="M320.2,152.7c0,0,5.5,1.6,10.6,1.6c4.6,0,18.9,1.3,18.9-0.5s4.8,2.6-2.9,5.7
		C326.1,167.8,320.2,152.7,320.2,152.7z"/>
	<path class="st11" d="M296.9,187.7l29.2-19.9c0,0-15.7,0.1-29-2.8c-13.3-2.8-20.6-12.3-20.6-12.3l-0.7,7c0,0,3.2,2,7.4,5.3
		C287.3,168.3,296.9,187.7,296.9,187.7z"/>
	<path class="st11" d="M183,184.5c19.9,15.7,39.6-2.8,39.6-2.8s-22.5,11.1-34.4,1.4c-18.4-14.9-3.8-37.6-3.8-37.6
		S164.8,170.2,183,184.5z"/>
	<path class="st11" d="M374.2,191.4l2,2.2C375.9,191.6,374.2,191.4,374.2,191.4z"/>
	<path class="st11" d="M239.3,65.3c1.8,0.9,2.4,3.8,2.6,5l-4.6,0.4l1.4,5.7c0,0,0-2.1,4.4-4.4c1.7-0.9,3-1.5,4-1.8l9.5-1.1
		c0,0-0.6-2.8-1.3-5.2c-0.9-2.5-8.2-9.6-8.2-9.6s-4.4-2-7.9,1.7c-3.5,3.7-3.5,6.4-3.5,6.4S237.1,64.3,239.3,65.3z"/>
	<path class="st11" d="M226.2,109.4c9.4,9.4,20-3.6,20-3.6s-7.4,7.4-16.5-0.1c-7.2-5.9-0.3-16.2-0.3-16.2S217.9,101.2,226.2,109.4z"
		/>
	<path class="st11" d="M349.2,229.4c0,0-8.6,11.5-12.6,21.3c-4,9.7-3.4,12.8,0,13.2c3.4,0.4,26.6,2.8,29.8-1.3
		c3.1-4,3.6-11.4,3.6-11.4s9.3,1.5,14.7,0c5.5-1.5,8.4-5,8.4-5s1.6,7.3-8.4,7.9c-9.9,0.6-11.2,0.6-11.2,0.6s2.6,5.7-0.5,7.7
		c-3.1,2.1-14.5,6.9-19.9,6.3c-5.4-0.6-22.2,1.6-22.2,1.6l-14.5-10.6l34.8-30.4H349.2z"/>
	<path class="st7" d="M222.1,327.4c0,0,3.1,67,4.4,71.6c1.4,5.1,7.2,6.5,12.9,6.5c10.8,0,55.8-11.3,55.8-11.3s-48,10.5-59.5,0.1
		C227.5,387,222.1,327.4,222.1,327.4z"/>
	<path class="st11" d="M380.9,198.9l-4.7-5.2c0.1,1.1-0.1,2.8-1.3,5.4c-3.5,7.3-70.9,64.6-78.1,71.3c-10.1,9.5-13,6.7-13,6.7
		l-36-27.6c-1.4,1.6-4.2,3.3-9.3,2.6c-8.8-1.3-22.4-8.2-27.6-12.5c-5.2-4.3-17.8-35.4-17.8-35.4l4.7-3c0,0,9.1,28.8,18.7,36.5
		c17.9,14.5,32.6,9.6,32.6,9.6c2.8-0.7,4.6-1.2,8.4-2.1c5.4-1.3,9.1-11.4,9.1-11.4s-2.2,3-4.7,4.9c-3.3,2.3-11.5,0.5-11.5,0.5
		s-22-14.8-28.1-24.9c-4.3-7.1-6.4-11.3-6.5-15.1c0,0,5.5-3,5.5-3.1c4.6-2.3,24.8-8.2,24.8-8.2l-2.1-3l-25.4,8
		c10.3-4.7,29.9-9.9,29.9-9.9s-18.7,1.5-32.8,7c-14.1,5.5-25.3,11.1-25.3,11.1L180,199l-11.9-39.6l4.1-17.1l-7.4,15l6.3-15.2
		l20.1-9.6l21.3-6l6.6-8c0,0,0,0,6,5.2s11.1,1.6,11.1,1.6s4,3.5,5.6,5.1c1.6,1.5,8.7,3.8,8.7,3.8s0.1,2.3,4.9,3.3
		c5.2,1.1,8.2-0.9,8.2-0.9s-9.9-4.2-18.1-9.2c-7.7-4.7,1.9-8.2-6.7-6.7c-2.1,0.4-3.9,0.4-5.6,0.1c8-0.9,19.8-4.5,19.8-4.5
		s5.5-8.1,2.4-4.4s-20.7,8.1-25.6,5c-4.3-2.7-11.1-21.5-11.3-25.9s4.1-9.4,4.1-9.4s-4.6-7.2-2.7-16.3c1.1-5.5,8-11.8,8-11.8
		s-9.2,4.4-11.9,14.5c-1.8,6.7,0,11.5,1.3,13.8l-2-2.8c0,0-25.9,6.7-50,57.8c-20.3,42.9-8.8,86.8-3.9,101
		c3.9,11.5,7.6,21.9,16.6,30.3l1.9,2.8l-22.7,2.6c0,0-6.3-2.8-8.1-3.9c-1.8-1.1-3.3-1.9-3.3-1.9l-11.9,6l-3.4,3.6
		c0,0-5.6,37.3-5.6,48.9c-0.1,11.6,3.3,48.2,3.3,48.2l4.3,5l23.6,13.8c0,0-18.1,4.7-19.1,13.2c-1,8.5,8.9,27.2,27.8,34.2
		c19,7,23.3,7.4,25.5,7.6c14.7,1.6,80.8-22.7,80.8-22.7s-49.8,10.8-53.3,9.4c-3.5-1.5-4.8-3-9-8.4c-4.2-5.3-8.2-85.5-8.8-95.6
		c-0.9-15.2-1.1-28.8,5-30.4c4.2-1.1,14.5-1.4,18.8-0.9l33.1,10.3c0,0,32.2,15.4,38.5,17.4c6.3,2.1,5.8-4.5,5.8-4.5s3.8,0.6,10.3,0
		c6.6-0.6,12-13.4,12-13.4c4.9-4.6-2-16.8-2-16.8s1.2,5.5-5.2,11.8c-6.4,6.2-15.2-6.8-20.4-11.5c-5.2-4.7-5.4-12.2-5.4-12.2
		l46.8-40.5L380.9,198.9z"/>
	<path class="st11" d="M210.1,77.8c0,0-12.8,2-19.3,5.2c-6.6,3.2-13.7,7.8-13.7,7.8s-0.6,3.8,1.9,7.7c2.6,3.8,2.6,3.8,2.6,3.8
		s7.7-7,12.5-9.9c4.7-2.9,16.2-11.1,16.2-11.1L210.1,77.8L210.1,77.8z"/>
	<path class="st11" d="M177,110.4c0,0-4-4.4-9.1-4.1c-5,0.3-17.2,6.5-21.3,13.3c-1.4,2.4-2.8,5.3-3.5,7c-0.4,0.9-0.3,1.8,0.2,2.5
		c1.6,2.5,5.5,8.1,7.7,9.1c2.8,1.3,6.8,4.6,6.8,4.6s7.9-13.3,10-18.8C170,118.5,177,110.4,177,110.4z"/>
	<path class="st11" d="M156.1,149.8c0,0-4.5,17.3-5.2,24.3c-0.7,7-0.9,20.9-0.9,20.9s-14.5-3.9-22.2-10.5
		c-6.4-5.4-10.3-12.3-10.3-12.3s0.9-7.2,5.9-12.7c3.6-4,12.5-8.8,12.5-8.8s9.4-1.7,12.2-1.3C150.9,149.8,156.1,149.8,156.1,149.8z"
		/>
	<path class="st11" d="M128.3,205.9c0,0-6.9,6.5-8.6,11.1c-1.8,4.7,0,14.2,0,14.2s17.5,9.7,27.6,10.3c10,0.6,12.3,0.6,12.3,0.6
		s-7.2-19.8-6.9-23.4s-1.8-21.3-1.8-21.3s-13,2.7-15,3.5C133.6,201.9,128.3,205.9,128.3,205.9z"/>
	<path class="st11" d="M143.1,266.4c0,0,2.8-8.6,7.2-11.1c4.3-2.6,10.6-8.5,10.6-8.5l18.6,24.9c0,0-8.7,0.8-13.5,1.5
		C151.1,275.8,143.1,266.4,143.1,266.4z"/>
	<path class="st12" d="M221.6,158.6c-2.2-8.7-11.6-13.9-21-11.5c-7.7,2-13,8.4-13.5,15.4c2-2.1,4.6-3.8,7.7-4.5
		c8.6-2.2,17.3,3,19.4,11.6c0.6,2.2,0.6,4.4,0.3,6.4C220.2,172.1,223.3,165.3,221.6,158.6z M216.6,157.1c-1,1-3.6-0.1-5.8-2.3
		c-2.3-2.3-3.3-4.9-2.3-5.8c1-1,3.6,0.1,5.8,2.3C216.6,153.4,217.6,156.1,216.6,157.1z"/>
	<path class="st11" d="M338.7,350.8c0,0,0.6,1.8-3,2.1c-3.7,0.2-7.1-1.1-7.1-1.1l3.9,5.7l10.5-1.6L338.7,350.8z"/>
	<path class="st11" d="M340,375.4c0,0-4.2-0.2-7.6,0c-3.3,0.2-6,2.2-6,2.2l6-5.8l10.5-0.4L340,375.4z"/>
	<path class="st11" d="M371.8,362.9c0,0-1.3,4.5-3.3,6c-2.1,1.3-4.6,2.6-4.6,2.6l-3.3-4l11-8.3L371.8,362.9z"/>
</g>
</svg>
