<?xml version="1.0" encoding="utf-8"?>
<!-- Generator: Adobe Illustrator 27.3.1, SVG Export Plug-In . SVG Version: 6.00 Build 0)  -->
<svg version="1.1" id="Layer_1" xmlns:serif="http://www.serif.com/"
	 xmlns="http://www.w3.org/2000/svg" xmlns:xlink="http://www.w3.org/1999/xlink" x="0px" y="0px" viewBox="0 0 1200 1200"
	 style="enable-background:new 0 0 1200 1200;" xml:space="preserve">
<style type="text/css">
	.st0{fill-rule:evenodd;clip-rule:evenodd;fill:#009A49;}
</style>
<path class="st0" d="M1005.6,59.8c72.8,0,131.9,59.1,131.9,131.9v816.1c0,72.8-59.1,131.9-131.9,131.9H781V732.9h140.5l26.7-174.3
	H781V445.5c0-47.7,23.4-94.2,98.3-94.2h76V203c0,0-69-11.8-135-11.8c-137.7,0-227.7,83.5-227.7,234.6v132.8H439.5v174.3h153.1v406.9
	H189.5c-72.8,0-131.9-59.1-131.9-131.9V191.8c0-72.8,59.1-131.9,131.9-131.9L1005.6,59.8L1005.6,59.8z"/>
</svg>
