<?xml version="1.0" encoding="utf-8"?>
<!-- Generator: Adobe Illustrator 27.3.1, SVG Export Plug-In . SVG Version: 6.00 Build 0)  -->
<svg version="1.1" id="Layer_1" xmlns="http://www.w3.org/2000/svg" xmlns:xlink="http://www.w3.org/1999/xlink" x="0px" y="0px"
	 viewBox="0 0 512 512" style="enable-background:new 0 0 512 512;" xml:space="preserve">
<style type="text/css">
	.st0{fill:#FFFFFF;}
	.st1{fill:#2A2A2D;}
	.st2{fill:#009A44;}
	.st3{fill:#F93838;}
	.st4{opacity:0.42;}
	.st5{fill:#F2E270;}
	.st6{fill:#E2DDAC;}
	.st7{opacity:0.37;}
	.st8{fill:#B5F2F4;}
	.st9{fill:#FF8200;}
	.st10{fill:#C4CED6;}
	.st11{fill:#141416;}
	.st12{fill:#EFE5A5;}
	.st13{opacity:0.3;}
	.st14{fill:#1D1D1B;}
	.st15{fill:none;}
	.st16{opacity:0.2;}
	.st17{fill:#0A0808;}
</style>
<g>
	<g id="COLOR">
		<g>
			<polygon class="st0" points="328.1,294.9 317.8,299.7 297.6,308.6 284.5,315.9 272.5,326 268.6,331.4 205.3,333.3 202.6,329.2 
				196.8,323.1 190.8,318.6 182.6,314.2 168,306.1 150,298.1 144.5,295.6 161.6,294.1 222,294.1 321.8,294.1 			"/>
		</g>
		<g>
			<path class="st1" d="M267.8,333.3c-0.2,14.5-16.7,26-34.7,24.8c-8-0.5-13.7-2.8-19.3-7.4c-4.2-3.5-7.2-7.7-8.2-12.5
				c-0.8-4.1-0.5-9.8,1.3-13.7c1.7-3.6,4.3-6.9,7.8-9.4c9-6.8,22-8.4,33.3-4.6c5.5,1.9,10.2,4.8,13.7,8.5
				C266.1,323.6,268,327.7,267.8,333.3z"/>
		</g>
		<g>
			<path class="st2" d="M214.3,329.1c2.3-8,11.2-14.1,22-14.1c10.8,0,19.8,6.1,22,14.1l0.2,7c-2,8.4-11.2,14.7-22.2,14.7
				c-11.2,0-20.3-6.4-22.2-14.7L214.3,329.1z"/>
		</g>
		<g>
			<path class="st3" d="M301.8,422.1c0.7,10.9,2.5,27.9-3.3,36.1c-0.3-5.3-5.8-7.6-8.2-12.5c-1.8-3.8-5-8.4-5.3-12.5
				c-5.3,16.7,12.3,33-3.3,51.2c0.2-6.4-7-17.3-9-24.3c-4.3,7.7-3.2,22.4-4.5,31.6c-1.3,9.3-4.3,16.1-9.7,24.4
				c-8.3,13-11.8,28.3-18.5,39.9c-6.7-11.7-10.3-26.9-18.5-39.9c-5.3-8.5-8.3-15.3-9.7-24.4s2-27.5-2.3-35.3
				c-2,7.2-10.3,18.7-10.2,25.2c-18-17.5-1.5-31.7-6.8-48.4c-0.3,4.1,0,10.9-2,14.7c-2.3,4.9-9,5.2-9.3,10.4
				c-5.8-8.2-4-25.2-3.3-36.1c0.3-6-1.2-11.9-1.8-17.8c-0.3-3.5-2.2-15.5,4.3-16.5c0.8-0.1,1.7,0,2.3,0.1c2.7,0.5,5.2,1.3,8,1.9
				c3.2,0.7,6.3,0.7,9.5,0.9c6.8,0.4,14,0.7,20.8,0.9c6.2,0.3,12.2,1.7,18.5,1.9c8.7,0.1,17.2-0.7,25.7-1.7c5-0.5,10-1.1,14.7-2.1
				c6.5-1.3,13.2-3.3,20-1.9c5.3,1.3,4,6.6,4,10.4C303.8,406.4,301.1,414.3,301.8,422.1z"/>
		</g>
		<g class="st4">
			<path class="st5" d="M282.5,413.5c0.5,7.4,1.7,18.8-2.3,24.4c-0.2-3.6-3.8-5.2-5.5-8.5c-1.2-2.7-3.3-5.7-3.7-8.5
				c-3.7,11.3,8.3,22.3-2.3,34.8c0.2-4.4-4.8-11.7-6.2-16.5c-3,5.2-2.2,15.1-3,21.4c-0.8,6.4-2.8,10.9-6.5,16.6
				c-5.5,8.9-8,19.1-12.5,27.1c-4.5-7.8-7-18.2-12.5-27.1c-3.7-5.7-5.5-10.2-6.5-16.6c-0.8-6.2,1.3-18.6-1.5-23.8
				c-1.3,4.8-7,12.6-6.8,17c-12.2-11.9-1-21.5-4.5-32.8c-0.2,2.8,0,7.4-1.2,10c-1.7,3.3-6.2,3.5-6.3,7c-4-5.6-2.7-17-2.3-24.4
				c0.2-4-0.8-8.1-1.2-12.1c-0.2-2.4-1.5-10.5,3-11.1c0.5-0.1,1,0,1.7,0.1c1.8,0.4,3.5,0.9,5.3,1.3c2.2,0.4,4.3,0.5,6.5,0.7
				c4.7,0.1,9.3,0.4,14,0.7c4.2,0.1,8.3,1.2,12.5,1.3c5.8,0.1,11.7-0.5,17.5-1.2c3.3-0.4,6.7-0.7,10-1.5c4.3-0.9,9-2.3,13.5-1.2
				c3.7,0.8,2.7,4.5,2.7,7C283.8,402.7,282,408.2,282.5,413.5z"/>
		</g>
		<g>
			<polygon class="st0" points="429.9,272.9 437.3,278.8 441.1,282.2 443.3,293.6 443.9,302 499.1,276.2 506.9,270.1 506.9,262.4 
				496.9,249 490.9,246.5 457.8,257.7 			"/>
		</g>
		<g>
			<path class="st2" d="M400.6,13.3l2.5,101.9l1.3,10.9l4.8,13l8.2,28.8c1.2,10.5,3.7,16.9,16.3,21.8c9.8,3.8,20.2,7.2,30.8,9.7
				c-4.8,3.6-10.8,6.1-17.3,7.2c2,0.4,4,0.9,5.8,2.1c1.8,1.2,2.8,2.8,2.3,4.4c-0.3,1.1-1.3,2-2.3,2.8c-2.5,2.1-5.2,4-7.7,5.8
				c-2.5,1.9-2.5,1.3-1.3,4c0.5,1.3-0.8,2.7-2,3.7c-5.3,4.4-10.8,8.8-17,12.2c-10.3,5.8-25.2,8.6-34.3,15.5
				c-1.2,0.9-1.7,2.4-1.8,3.6c-0.8,4.4-0.5,8.9-1.8,13c-1.2,3.2-2.3,6.5-3.7,9.7l-5.7,6.1l-8.7,0.5l-20.8,2.1l-15.7,1.2l-24,0.9
				h-23.5h-78.5l-54.2-0.1H132l-12-2.9l-11.2-1.6l-12.2-3.2l-7.3-8l-3.3-13l-0.2-8.9l-10.5-3.1c-6.5-1.9-13.7-6.4-19.5-9.4
				c-4.8-2.5-9.3-5.4-13.5-8.8c-2.3-1.9-8.3-6.9-8.8-9.4c-0.2-1.2,0.5-2.5,2-2.7c-2.7,0.3-7.2-3.6-8.7-4.9c-3-2.5-4.5-5.7-5.3-9.2
				c1-0.4,2.3-0.4,3.3-0.7c4-0.7,2.3-2.8,0.5-4.2c-0.8-0.7-2.7-0.8-3.7-1.6c-1.7-0.9-2.8-2.8-4-4.1c10.3-3.2,21.8-6,30.5-11.7
				c4.3-3.1,8.2-7.3,10.2-11.5c1-2.1,0.3-5.4,0.8-7.8c0.5-3.5,1.2-7.2,1.8-10.6l10-31.6l17-30l0.2-13.1l7.2-45.8l7.3-37.8L190,40.6
				l33-5.2l20.5-0.4l30.5,3.6l32,7.2l55.8-20l40.2-14.3h1.3L400.6,13.3z"/>
		</g>
		<g>
			<ellipse class="st6" cx="234.5" cy="130.8" rx="90" ry="71.7"/>
		</g>
		<g>
			<ellipse class="st0" cx="234.5" cy="130.8" rx="71" ry="56.5"/>
		</g>
		<g class="st7">
			<ellipse class="st8" cx="234.5" cy="130.8" rx="71" ry="56.5"/>
		</g>
		<g>
			<path class="st1" d="M228.8,160.9c1.3,1.2,2.8,2.3,4.5,3.2c1.2,0.7,2.8,1.5,4.3,1.1c0.8-0.3,1.7-0.8,2.2-1.5
				c8.7-8.1,11.5-21,12.3-31.3c0.8-10.1-2.3-20.4-8.7-29.2c-8.3-11.4-15.7-10.8-21.3,1.5C214.3,121.2,212.1,147,228.8,160.9z"/>
		</g>
		<g>
			<path class="st0" d="M189.1,293.6c0,0,93.7,0.8,95.5,0.5c1.8-0.4,8-13,8-13l3.5-14.1l-1.3-10.6l20,2.9l29.2,1.6l22-2.1l19.7-2.3
				l9.8-2.7l21.2-7.7l22-14.1l7.3-7.7l-6.7-0.9l14-9.6l3.7-5.7l-13.2-1.9l16.3-5.3l-7.7-4.8l-23.5-8.6l-3.7,2.1l-5.5,1.9l-3.3,3.3
				l-10,8.6l-7.7,4.6l-6,2.5l-47,6.4l-4.3,0.5l-12.2-1.2l-10.2-2l-18-5.4l-17.2-7.7l-8.3-5.4l-20.2,5.2l-19.2,1.2l-22.3-1.1
				l-18.8-4.6l-3.7,2.4l-13,7.4l-16.3,6.2l-11.5,2.9L128,218h-4.3l-48.5-8.5L62.7,201l-8-7.4l-9-4c0,0-4.3,0.1-4.8,0.1
				c-0.3,0-20,8.4-20,8.4l-6.8,1.7l5.5,3.3l9.3,3.5l-10.2,2.4l9.7,11.3l5.3,4.9l1.5,4.4l12.2,11.7l24.2,10.5l17,5.3l9.2,1.6
				l28.3,2.7l25.5-0.7l25.7-2.4h2.8l0.8,15.3l5.8,13.5L189.1,293.6z"/>
		</g>
		<g>
			<ellipse class="st0" cx="100.7" cy="213.7" rx="23" ry="18.3"/>
		</g>
		<g>
			<ellipse class="st9" cx="100.7" cy="213.7" rx="16.2" ry="12.9"/>
		</g>
		<g>
			<ellipse class="st0" cx="368.4" cy="212.1" rx="23" ry="18.3"/>
		</g>
		<g>
			<ellipse class="st9" cx="368.4" cy="213.7" rx="16.2" ry="12.9"/>
		</g>
		<g>
			<path d="M237.5,218.6c1.8-0.9,3-2.7,3-4.4c0-0.5-0.2-1.2-0.5-1.7c-0.8-1.2-2.7-1.6-4.3-1.9c-3-0.3-5.8,0.1-8.7,1.1
				c-0.3,0.1-0.7,0.3-0.8,0.5c-0.2,0.3-0.2,0.7,0,0.9c0.2,0.9,0.5,1.9,1,2.7C229.1,219.7,233.3,221,237.5,218.6z"/>
		</g>
		<g>
			<polygon class="st9" points="288.1,314.7 283.1,324.4 271.5,352.9 265.8,366 247.5,367.7 245.3,367.3 247.5,357.2 252,354.9 
				260.5,348.8 265.3,343 267.1,338.1 268.6,331.4 272.5,326 280.5,319.2 286.5,314.7 			"/>
		</g>
		<g>
			<polygon class="st9" points="182.6,314.2 187,325.3 195.1,343.8 204.8,364.4 212.6,366.9 227.8,368.5 226.8,364.4 225.6,357.2 
				220.6,354.9 216.1,352.5 210.6,348 207.1,342.6 205.8,338.2 205.3,332.1 197.8,323.7 192,319.4 			"/>
		</g>
		<g>
			<polygon class="st0" points="225.6,357.2 232.3,358.3 241.1,357.9 247.5,357.2 246,363.7 245.3,367.3 238,368.5 226.6,366.9 			
				"/>
		</g>
		<g>
			<path class="st9" d="M279.3,334.1l7.2-2l11.7-3.1c0,0,12.5-2.1,13.2-2.1c0.5-0.1,13.8-0.9,13.8-0.9l12.5,0.4l5.7,0.4l6.8-31.9
				v-3.1l-20.2,2.3l-8.3,3.3l-20.8,9.7l-12.3,6.5l-3,5.7L279.3,334.1z"/>
		</g>
		<g>
			<path class="st9" d="M127.8,294.5c-0.2,0.1-0.2,0.4-0.2,1.2c0.5,6.1,8,34.4,8,34.4h5.2h16l18.2,2.7l16,4.8l-3-10l-5.2-13.3
				l-8-4.6l-19.7-9l-14.7-6.6L127.8,294.5z"/>
		</g>
		<g>
			<polygon class="st0" points="136.6,341.3 150.5,351.4 183.6,361 204.8,364.4 198.1,349.9 192.1,337.4 176.5,332.8 159.3,330.5 
				143,330 133.3,330.6 			"/>
		</g>
		<g>
			<polygon class="st0" points="268.8,366 288.1,361.4 314.8,356.3 329.8,350.4 340.1,343.1 343.3,326 336.5,326 325.1,326 
				312.8,326.7 298.1,328.9 286.5,332.1 278.8,335 266.8,364.8 			"/>
		</g>
		<g>
			<polygon class="st1" points="165,356.1 171.6,375.5 176.5,386.4 194.8,391.3 230.5,393.8 260.5,392.6 298.3,388.6 302.8,386.4 
				314.8,356.3 288.1,361.4 260.6,366.9 238,370.7 220.6,367.7 183.6,361 			"/>
		</g>
		<g>
			<path class="st0" d="M343.6,325.2c0,0,22.3-5.7,22.8-5.8c0.5-0.3,41.8-6.6,41.8-6.6l2.7-10.8l-5.7-15.7l-7.2-4.2l-20.8,5.4
				l-10.3,3.3c-2.5,0.4-4.8,0.8-7.3,1.2c-5.2,0.8-8.3-0.3-9.3,4.4c-0.8,3.7-1.7,7.3-2.5,11C346.3,313.4,344.9,319.2,343.6,325.2z"/>
		</g>
		<g>
			<polygon class="st0" points="128.1,293.4 135.3,334.4 117.8,357.2 112.2,356.7 101.3,352.8 91.5,347 85.2,340.5 106.8,305.6 
				117.3,292.8 			"/>
		</g>
		<g>
			<polygon class="st9" points="90.8,332.8 98,331.4 108,328.5 113.5,322.7 128.8,302.6 125.5,292.8 117.3,292.8 			"/>
		</g>
		<g>
			<polygon class="st9" points="130.3,314.2 117.8,332.8 116.7,337.4 121.7,350.4 135.5,332.2 			"/>
		</g>
		<g>
			<polygon class="st9" points="348.4,303.7 363.3,300.7 375.9,299.1 382.3,297.3 392.1,287.5 393.3,284.5 381.6,285 374.8,289 
				360.1,291.1 347.6,292 			"/>
		</g>
		<g>
			<polygon class="st9" points="346.6,311.4 343.8,324.3 364.6,320.7 385.3,317.9 397.1,314.7 390.9,311 382.3,306.6 377.3,306.6 
				362.6,308.9 			"/>
		</g>
		<g>
			<path class="st1" d="M408.3,313.7l2.7,1.1l4.3-2.5l2.3-0.3c0,0,0.3,0.9,1.2,0.7c0.8-0.3,1.8,0.3,1.8,0.3l0.8-2.7l4.5,2.3l2.8,0.3
				l-0.2-3.8l7.2,1.9l2.7-1.9l3-5.8l1.5-9.4l-3.7-11.4l-6.2-6.2l-8-4.6l-6.8-0.9l-0.3,1.9l-5.5-1.2l-1.2,1.6l-0.7,1.6l-4-2l-1.2,0.8
				l-0.5,5.2l-3.3-2.1l-0.7,1.3l0.2,3.5l8.7,15.4l-1.5,15.3L408.3,313.7z"/>
		</g>
		<g>
			<path class="st2" d="M435.1,276c0-0.7,7.2-4.4,7.2-4.4l7.2-4.4V264l-19.8,8.9L435.1,276z"/>
		</g>
		<g>
			<path class="st9" d="M488.4,280.6l-6.8-3.1l-9.3,2.7l-28.8,11c0,0,2.2,10.5,2.5,10C446.1,300.7,488.4,280.6,488.4,280.6z"/>
		</g>
		<g>
			<path class="st9" d="M434.8,275.2c0.5,0.1,5.2,3.8,5.2,3.8l13.3-7.6c0,0,18.2-10,18-10.2s0.7-7.7,0.7-7.7l-20.7,9.3l-2.7,5.3
				L434.8,275.2z"/>
		</g>
		<g>
			<path class="st1" d="M485.9,268.3c0.2-0.1,0.3-0.1,0.5-0.1c2.3-0.9,3.2-3.3,2-5.2c-1.2-1.9-4.2-2.5-6.5-1.6
				c-0.2,0.1-0.3,0.1-0.5,0.3c-1.5-1.2-3.7-1.5-5.7-0.7c-2.3,0.9-3.2,3.3-2,5.2c0.7,0.9,1.7,1.6,2.8,1.9c-0.3,0.9-0.2,2,0.5,2.9
				c1.2,1.9,4.2,2.5,6.5,1.6C485.6,271.5,486.4,269.9,485.9,268.3z"/>
		</g>
		<g>
			<path class="st2" d="M484.6,267.2c0.2,0,0.2-0.1,0.3-0.1c1.5-0.7,2-2.1,1.2-3.2c-0.8-1.2-2.7-1.6-4-0.9c-0.2,0-0.2,0.1-0.3,0.1
				c-0.8-0.7-2.3-0.9-3.7-0.4c-1.5,0.7-2,2.1-1.2,3.2c0.5,0.5,1,0.9,1.8,1.2c-0.2,0.7-0.2,1.3,0.2,1.9c0.8,1.2,2.7,1.6,4,0.9
				C484.3,269.3,484.8,268.3,484.6,267.2z"/>
		</g>
		<g>
			<ellipse class="st1" cx="484.3" cy="256.6" rx="3.3" ry="2.7"/>
		</g>
		<g>
			<ellipse class="st1" cx="494.1" cy="260.3" rx="3.3" ry="2.7"/>
		</g>
		<g>
			<ellipse class="st2" cx="494.1" cy="260.3" rx="1.7" ry="1.3"/>
		</g>
		<g>
			<ellipse class="st1" cx="493.3" cy="268.1" rx="3.3" ry="2.7"/>
		</g>
		<g>
			<ellipse class="st2" cx="493.3" cy="268.1" rx="2" ry="1.6"/>
		</g>
		<g>
			<ellipse class="st2" cx="484.3" cy="256.6" rx="2" ry="1.6"/>
		</g>
		<g>
			<polygon class="st1" points="84.5,342.1 90.8,346.2 101.2,352 109.5,355.6 116.7,357.2 120.8,357.2 123,358.5 125,360.4 
				121,361.4 125,364.2 125.6,365.6 122.3,367.3 121.2,368.5 122.8,370.1 118.5,372.7 119.5,374.8 113,377.9 103.5,377.9 
				86.5,374.8 76.2,370.2 70.5,363 69.2,359.7 75.5,356.1 72,354.1 76,351.4 78.7,350.7 77.3,348.3 80,347 82,346.4 80,342.6 
				83.7,341.3 			"/>
		</g>
		<g>
			<path class="st10" d="M73,369.5c-0.8,0.4-11.2,59.2-11.2,59.2l4.8,4.4l12.8,0.9l15.3,2.1l2.7-3.2l3.7-11.4l9-35.3l0.8-8.4
				l-7.7-0.1l-11.2-1.1l-10.7-4.1c0,0-4.8-0.9-5.2-1.7C76,370.2,73,369.5,73,369.5z"/>
		</g>
		<g>
			<polygon class="st11" points="64.7,429.8 72,426.1 84,425.9 91.2,428.6 97.5,433.1 92.8,436.3 84,436.3 70.8,433.5 			"/>
		</g>
		<g>
			<polygon class="st2" points="80.5,372.5 74.8,386.4 72.5,389.2 71.2,377.9 75.7,369.3 			"/>
		</g>
		<g>
			<path class="st9" d="M79.5,372.3c-0.3-0.7,5.2,2,5.2,2l-11,33.2l-7.5,3.8l4.5-22l4-1.6L79.5,372.3z"/>
		</g>
		<g>
			<polygon class="st9" points="100,377.5 96.8,391.7 94.8,412 102,417.6 111.3,378 			"/>
		</g>
		<g>
			<path class="st5" d="M275.5,412c0.5,6.1,1.5,15.8-2,20.4c-0.2-2.9-3.3-4.4-4.7-7.2c-1-2.1-2.8-4.8-3-7.2c-3,9.4,7,18.7-2,29.1
				c0.2-3.6-4-9.7-5.2-13.8c-2.5,4.4-1.8,12.7-2.7,17.9c-0.8,5.2-2.3,9.2-5.5,13.9c-4.7,7.4-6.7,16.1-10.5,22.6
				c-3.8-6.6-5.8-15.3-10.5-22.6c-3-4.8-4.7-8.6-5.5-13.9c-0.8-5.2,1.2-15.7-1.2-19.9c-1.2,4.1-5.8,10.5-5.8,14.2
				c-10.2-10-0.8-17.9-3.8-27.3c-0.2,2.4,0,6.1-1.2,8.2c-1.3,2.8-5.2,2.9-5.3,5.8c-3.3-4.6-2.3-14.2-2-20.4c0.2-3.3-0.7-6.8-1-10.1
				c-0.2-2-1.2-8.9,2.5-9.3c0.5-0.1,0.8,0,1.3,0.1c1.5,0.3,3,0.8,4.3,1.1c1.8,0.4,3.7,0.4,5.5,0.5c4,0.1,7.8,0.4,11.8,0.5
				c3.5,0.1,6.8,0.9,10.5,1.1c4.8,0.1,9.7-0.4,14.7-0.9c2.8-0.3,5.7-0.7,8.3-1.2c3.7-0.7,7.5-1.9,11.3-0.9c3,0.7,2.3,3.8,2.3,5.8
				C276.8,403,275.3,407.5,275.5,412z"/>
		</g>
		<g>
			<path class="st12" d="M263.8,405.5c-0.5,2.1-0.8,3.8-0.8,4.6c-0.8,5.6-2,12.3-5.7,17.3c-2.5-0.9-3.7-5.2-4.3-7.4
				c-1.7,2.9-1.2,8.6-1.7,12.1c-0.5,3.5-1.7,6.1-3.7,9.4c-3.2,4.9-4.5,10.9-7.2,15.3c-2.7-4.4-4-10.2-7.2-15.3
				c-2-3.2-3.2-5.7-3.7-9.4c-0.5-3.5,0.8-10.5-0.8-13.4c0.8,1.7-3.7,7.4-3.8,9.6c-4-4.2-10.7-11.4-10-16.9c0.2-1.7,1.7-3.3,2-5.2
				c0.3-2.5-0.5-5-0.7-7.4c-0.2-1.3-0.8-6,1.7-6.4c0.3,0,0.5,0,0.8,0.1c1,0.1,2,0.5,3,0.7c1.2,0.3,2.3,0.3,3.7,0.4
				c2.7,0.1,5.3,0.3,8,0.4c2.3,0.1,4.7,0.7,7.2,0.7c3.3,0.1,6.5-0.3,9.8-0.7c2-0.1,3.7-0.4,5.7-0.8c2.5-0.5,5.2-1.3,7.7-0.7
				C265.8,393.2,264.8,400.5,263.8,405.5z"/>
		</g>
		<g>
			<polygon class="st0" points="264.1,329.1 251.3,329.1 251.1,328.5 249.1,326 246,322.9 242.8,321.5 240.3,320.7 237.5,320.4 
				233.5,320.7 230.5,321.2 226.8,322.9 223.8,325.2 221.5,328.5 221.3,329.1 208.5,329.1 208.5,336.1 221,336.1 221.1,336.4 
				223.1,339.5 225,341.7 228.1,343.7 232.3,345 235.1,345.4 238.3,345.2 242,344.6 244.5,343.5 246.8,342.3 248.5,340.9 
				250.6,338.3 251.3,336.6 251.3,336.1 264.1,336.1 			"/>
		</g>
		<g>
			<ellipse class="st0" cx="246.3" cy="113.9" rx="9" ry="7.2"/>
		</g>
		<g>
			<path class="st6" d="M207,37.3c0-11.1,15.2-19.8,34-19.8s34,10,34,21.2c0,0-21-4-32.2-3.8L207,37.3z"/>
		</g>
		<g>
			<polygon class="st11" points="400.6,13.3 376.3,45.4 371.9,79.5 379.8,86.8 389.8,99.6 402.3,121.2 			"/>
		</g>
		<g>
			<polygon class="st11" points="101.8,-0.1 126.5,33.1 130.8,63.5 116.3,70.9 94.7,87.4 85.5,98.4 88.8,74.2 95.3,29.2 			"/>
		</g>
		<path class="st2" d="M236.5,334.9L236.5,334.9c0,0.1,0,0.5-0.2,0.7c0,0.7-0.3,1.3-0.5,2c-0.2,0.4-0.3,0.8-0.7,1.1
			c-0.5,0.7-1.2,0.9-2.3,1.1c-0.7,0-1.2-0.1-1.7-0.3c-0.8-0.4-1.3-0.9-1.7-1.6c-0.2-0.4-0.2-0.9,0-1.3l0,0l0,0
			c-0.7,0-1.2-0.1-1.7-0.3c-1.5-0.4-2-1.5-2-2.7c0.2-0.9,0.8-1.3,1.7-1.9c0.5-0.1,1-0.3,1.5-0.4c0.5-0.1,0.8,0,1.5-0.1
			c0.5-0.1,0.8,0,1.7,0c0.7,0,1.2,0.1,1.8,0.1l0,0l0,0l0,0c-0.3-0.3-0.8-0.4-1.2-0.7c-0.8-0.4-1.2-0.8-2-1.3
			c-0.5-0.4-0.8-0.7-1.2-1.1c-0.2-0.4-0.5-0.7-0.5-1.2s0.2-0.9,0.5-1.5c0.7-0.7,2-1.3,3.3-0.9c0.5,0.3,1.2,0.4,1.7,0.7
			c0.2,0.1,0.2,0.1,0.2,0.1l0,0l0,0c0-0.1,0.3-0.4,0.5-0.7c0.7-0.5,1.2-0.8,2.3-0.7c0.5,0.1,0.8,0.1,1.2,0.3c1.2,0.4,2,1.3,2,2.3
			c0.2,0.4,0,0.7-0.2,1.2c-0.3,0.4-0.8,1.2-1.2,1.6c-0.3,0.4-0.8,1.2-1.2,1.6l0,0l0,0l0,0c0.5-0.3,1.2-0.4,1.7-0.7
			c0.5-0.1,1.2-0.3,1.8-0.4c0.2,0,0.8-0.1,1.2-0.1c0.2,0,0.7,0,0.8,0c0.8,0.1,1.5,0.4,2,0.8c0.7,0.5,1,0.9,0.8,1.9
			c0,0.7-0.5,1.5-1.2,2c-0.3,0.3-0.8,0.4-1.3,0.5l0,0l0,0c0.3,0.3,0.3,0.4,0.5,0.9c0,0.5,0,1.1-0.2,1.5c-0.5,0.9-1.7,1.6-2.7,1.6
			c-0.5,0.1-1.2-0.1-1.7-0.3c-0.5-0.1-0.8-0.4-1.2-0.7c-0.5-0.4-1-0.8-1.3-1.3c-0.3-0.4-0.7-0.7-0.8-1.2l0,0
			c0.2,0.1,0.2,0.1,0.2,0.1c0.2,0.4,0.3,0.8,0.3,1.3c0.2,0.4,0,0.7,0.2,1.2c0,0.1,0,0.7,0,1.1c0,0.5-0.2,1.2-0.2,1.7l0,0
			c-0.2-0.1-1.8,0.1-1.8,0.1l0,0c0.2-0.4,0.2-0.9,0.3-1.3c0.2-0.7,0.3-1.3,0.3-2.1c0-0.5,0.2-0.9,0-1.3c0-0.1,0-0.5,0-0.7
			C236.3,335.3,236.3,335.2,236.5,334.9C236.5,335,236.5,335,236.5,334.9L236.5,334.9z"/>
	</g>
	<g id="SHADOWS">
		<g class="st13">
			<path class="st14" d="M212.6,25c0.5-0.4,1.2-0.7,1.8-1.1c5.2-2.9,9.5-7,16.3-6.6c-5.2,2.7-6.8,8.6-3.7,12.7
				c-8.8,1.3-15,7.4-19.7,13.7c-2,2.5-3.8,5.2-4.3,8.2c-0.5,2.9,0.7,6.4,3.8,8c-10.3,2.9-21.2,7.2-29.8,12.7
				c-12.5,7.8-22.2,18.3-28,30c-3.5,6.9-5.7,14.2-6.3,21.5c-2.3,25.9,15.2,52.3,43.5,65.3c-1.2,8.2-2.5,16.5-1.3,24.6
				c1.5,10.4,8.3,21.4,19.3,27.2c4.7,2.5,11.3,4.9,17,3.6c5.7-1.3,9.5-7.4,16-6.2c1.8,0.4,3.3,1.3,4.8,2.1c3,1.6,13.2,9.2,16.8,9.2
				c-6.5,0.1-13,1.7-18.5,4.6c-13.7,7.2-30,13.7-30.5,28.8c-0.2,3.2,1.5,7.2,5.5,7.4c0.5,0,1.2,0,1.7,0.4c0.8,0.7-0.7,1.6-2,1.9
				c-5.8,0.9-11.5-0.4-17.5,0c-2.7,0.1-5.5,0.4-7.7,1.5c-3.5,1.9-2.7,6.1-3.7,8.9c-1.2,3.8-2.2,7.7-2.7,11.5
				c-1.2,8.2-0.7,16.5,1.2,24.6c0.8,4.1,2.3,8,4,11.9c0.8,1.9,1.8,3.8,2.8,5.7c0.8,1.3,2.7,3.3,2.7,4.8c-8-0.8-16-3.8-23.2-6.4
				c-3.3-1.3-6.8-2.7-10.3-3.5c-2.5-0.7-5-0.9-7.3-1.6c-3.5-0.9-6.8-2.4-10-4c-1.2-0.7-2.5-1.2-3.7-2c-1.5-1.1-2.5-2.4-3.3-3.8
				c-1.2-2-0.8-3.8-1-5.8c-0.5-13-2-25.9-4-38.6c-0.2-1.5-0.5-2.9-1.7-4.1c-1.2-1.2-3.2-1.6-5.2-1.9c-4.3-0.8-8.7-1.7-13-2.5
				c-6.2-1.3-12.7-2.5-17.8-5.6c-4.2-2.4-7.7-6.4-7.7-10.6c0-0.9,0.3-1.9,0.2-2.8c-0.2-1.2-1-2.4-1.3-3.5c-0.7-2.7-0.8-5.4-0.5-8.1
				c0.2-0.9,0.3-2.1-0.5-2.9c-0.5-0.4-1.2-0.7-1.7-0.8c-2.7-0.8-5.2-1.6-8-2.4c-2.5-0.7-5.2-1.6-7.7-2.4
				c-14.7-5.2-26.7-14.3-37-24.2c-0.5-0.4-0.8-1.1-0.3-1.5c0.2-0.1,0.7-0.1,1.2-0.3c1.5-0.3,1.7-2,0.8-2.9c-0.8-0.9-2.3-1.5-3.5-2
				c-5.2-2.4-7.3-7.2-9.3-11.5c1.7-0.1,3.5-0.1,5.2-0.1c2-0.1,3.8-1.9,1.2-2.7c-3.5-1.3-7-2.5-10.7-3.8c-0.7-0.3-1.5-0.5-1.7-1.1
				c-0.3-0.7,0.2-1.5,0.8-1.9c0.7-0.4,1.7-0.7,2.5-0.8c10.8-2.1,22-4.9,29.5-11.3c1.7-1.5,3.2-2.9,4.7-4.6c1.8-2,3.7-4,4.8-6.2
				c1.7-3.2,2-6.6,2.5-10c0.2-2.7,0.5-4.5,1.8-6.9c1.3-2.5,2-5.3,3-8c2.7-8,4.3-15.9,7.2-23.9c2.2-5.7,4.7-11.5,8-17
				c1.5-2.5,3.8-4.9,4.8-7.7c1.2-2.9,0.8-6.1,0.8-9.2c0.2-4.2,1.7-8,2.8-12.1c0.5-1.6-0.2-3.2,0.3-4.8c0.5-2,1.7-3.8,2.3-5.8
				c1.2-2.9,1.5-5.3,1.2-8.4c-0.2-1.2,0-2.4,0-3.5C90,50.3,90.2,44.2,92,38c0.7-2.4,1.7-4.8,2.3-7.2c2.3-7.7,2-15.7,3.2-23.6
				c0.3-2.1-0.7-6.6,3-7.4c1.8-0.4,3.5,1.1,4.5,2.4c3.3,4,5.7,8,8,12.3c0.8,1.6,1.7,3.1,2.3,4.6c0.5,0.9,1,1.9,2,2.7
				c2.7,1.9,2.3-2.4,4-3.2c1.7-0.7,3.5-0.3,5.2,0.3c2.7,0.9,5,2,7.3,3.1c7,3.2,13.7,5.6,21.7,6.9c7.8,1.3,16,1.9,23.3,4.4
				c4.7,1.7,8.7,4.2,13.7,5.2c4.8,1.1,11.2,0.1,13.2-3.6C208.6,29.6,208.3,27.9,212.6,25z"/>
		</g>
		<g class="st13">
			<path class="st14" d="M85,346.6c2.7-0.7,5.5-3.5,7.7-4.1c4.7-1.6,10.2-0.1,14.3,2.4c4,2.4,6.8,5.8,10,9.2c0.8,0.9,2.2,2,3.7,1.9
				c1.7,0,3-1.3,3.8-2.4c5.5-6.9,11.3-14.3,11.3-22.6c0-3.8-1.3-7.6-2.5-11.4c-1.7-5.4-2.8-10.9-3.7-16.5c-0.2-1.7-0.5-3.5-1.5-4.9
				c-2.2-3.3-7.5-5.8-11.7-3.2c-4.3,2.8-3.5,9.7-6.8,13.7c-1.3,1.6-3,2.9-4.3,4.4c-2.3,2.7-3.7,5.7-5.2,8.6
				c-2.8,5.7-6.5,11.1-11.2,16.1c-2.3,2.7-5.7,5.6-6.3,8.9C83.3,347,84.2,346.8,85,346.6z"/>
		</g>
		<g class="st13">
			<path class="st14" d="M164.5,115c1.3-3.1,3.3-6.1,5.2-8.6c3.8-5.2,9.3-9.7,14.5-14.2c3.8-3.3,7.3-6.5,12-9.2
				c1.8-0.9,12.5-7.2,14.5-6.2c-3-1.5-3.3-5-1.7-7.4c1.7-2.4,4.8-4.1,8-5.4c3.2-1.3,6.3-2.7,8.7-4.8c-6.5-1.5-12.7,0.9-18.2,3.2
				c-5.7,2.3-11.5,4.2-17.3,6.4c-4.2,1.6-8.3,3.2-12,5.4c-4,2.5-7.2,5.8-10.3,9.2c-4.2,4.4-8.3,8.8-11.8,13.5
				c-10.3,14.2-13.8,31.3-10.8,47.4c0.5,2.9,1.3,6,3,8.6c1,1.9,2.5,3.5,3.5,5.2c1.8,2.9,2.8,6.4,4.3,9.4
				c4.3,8.2,12.5,14.5,21.5,19.6c4.7,2.7,9.7,4.6,14.5,7.2c3.3,1.9,7.7,1.9,11.5,2.7c3.8,0.8,6.8,2.4,10.5,3.3
				c0.8,0.1,8.7,0.7,8.5,0.5c-1.5-1.6-2.8-3.2-4.3-4.6c-0.8-0.9-1.7-1.9-2.3-3.1c-0.8-2-0.5-4.1-0.2-6.4c-7.8-3.2-15.2-5.3-22.3-9.4
				c-16.2-9.2-27.7-23.9-30.2-39.7c-0.5-3.1,0.2-6,0.2-8.9c-0.2-3.2-1-6.1-0.5-9.3C163.1,118.2,163.8,116.6,164.5,115z"/>
		</g>
		<g class="st13">
			<path class="st14" d="M327.3,45.6c21.3-0.7,42.5-7.2,58.8-18.2c-9.5,15.4-15.2,32.5-16.5,49.6c-19.3-5.4-32.7-20.3-51.8-25.9
				c-4.8-1.5-11.8-1.9-16-4.4C307.3,43.6,321,45.7,327.3,45.6z"/>
		</g>
		<g class="st13">
			<path class="st14" d="M378.3,266.9c4,0.1,8.3,0.4,11.5,2.3c0.3-4.6,0.2-9.2-0.5-13.7c-14,3.2-28.5,5.2-43.2,6.1
				c-4,0.3-8.2,0.4-12.2,0.1c-4.3-0.3-8.8-0.9-13.2-1.7c-7.5-1.3-15.7-3.5-23.3-3.6C300.5,269.7,364.9,266.5,378.3,266.9z"/>
		</g>
		<g class="st13">
			<path class="st14" d="M436.3,307.8c4,0.4,5.5-0.7,6.8-3.7c1.2-2.4,2.3-4.4,5.2-5.4c1.7-0.7,3.5-0.9,5.3-1.6c4.8-1.6,9-4.4,12.8-7
				c2-1.3,3.7-2.7,5.8-3.5c2.3-0.9,4.8-1.9,7.2-2.7c9-3.6,18.2-7.7,26.8-12.2c1.2-0.7,2.5-1.3,3.2-2.4c0.5-0.9,0.7-2,0.7-3.1
				c-0.2-3.3-2.2-6.6-5.3-8.8c0.7,4.1-2.7,7.7-6.7,10.1c-3.7,2.3-8.2,3.8-12.2,5.7c-7,3.2-13.2,7.7-20.2,10.9
				c-6.5,3.1-13.2,4.6-20.8,4.1c-3-0.1-4.3-0.4-5.8-2.7c-1.2-1.7-1.7-4.1-4.2-4.9c-3-0.7-5.7,2.1-6.2,4.6c-0.5,2.5-0.5,5.4-3,7.2
				c-0.5-1.6-3-2.7-4.8-2.1c-0.3,2.4-2.5,5.6-5.2,4.6c-0.8-0.4-1.5-1.2-2.3-1.7c-3-2.4-8-0.7-11.7,0.7c-13.3,5.2-30.7,7.2-42-0.4
				c-1.7-1.2-3.3-2.7-5-3.7c-3.3,4.4-4.7,10.6-5.8,15.7c-1.2,4.6-3,11.1-2.2,15.8c0.2,0.8,54.7-7.8,58.7-8.9
				c1.7-0.4,3.3-0.7,5.2-1.2c0.5-0.1,1-0.1,1.5-0.1c0.5,0.1,1,0.4,1.7,0.7c2.2,0.5,3.3-2.4,5.5-2.7c1.7-0.1,3.3,1.3,4.7,0.4
				c0.2-0.1,0.3-0.4,0.5-0.5c0.8-0.7,2.3,0,3.3,0.7c1,0.7,2.7,1.1,3.3,0.1c0.3-0.7-0.2-1.5,0.3-2c0.3-0.4,1.2-0.4,1.7-0.3
				C434.1,307.6,435.1,307.7,436.3,307.8z"/>
		</g>
		<g class="st13">
			<path class="st14" d="M209.3,366.2c-15.2-2.9-30.3-5.8-45.7-8.9c2.7,6.9,5.7,13.7,9,20.3c1.8,3.7,3.8,7.7,8,10
				c3.5,1.9,8,2.3,12.2,2.7c15,1.1,29.8,2.1,44.8,3.2c-5.8-0.4-13.2-2.7-17.2-6.4c-2.5-2.4-4-3.8-2.7-6.6c1.3-2.7,5.2-4.9,8.5-6.1
				c2.3-0.8,5.2-1.2,7.7-0.4c2.5,0.8,4.5,2.7,4.3,4.6c0.2-2.1,0.2-4.2,0-6.4c-0.2-0.5-0.2-1.1-0.5-1.6c-1.7-2.1-11.7-2-14.5-2.4
				C218.8,367.7,214,367.1,209.3,366.2z"/>
		</g>
		<g class="st13">
			<path class="st14" d="M250.3,374.6c0.5,0.5,0.8,1.1,1.3,1.6c0.5,0.4,1.2,0.7,2,0.9c2.2,1.1,3.5,3.2,3.3,5.2
				c0.8-2.7,1.7-5.4,4.3-7c1.2-0.7,2.7-1.2,4.2-1.5c1.7-0.3,3.2-0.4,4.8-0.1c1.7,0.3,3,1.2,3.5,2.4c2.7-3.3,6.3-6.1,10.3-8.2
				c0.8-0.4,2-0.9,3-1.2c2-0.4,4.2,0.1,5.7,1.2c1.5,1.2,2,2.9,1.7,4.5c0.8-2.1,2.2-4.1,4.3-5.3c2.2-1.3,5.2-1.7,7.7-0.8
				c2.5,0.9,4,3.3,3.2,5.4c0.2-3.2,1.2-6.2,2.8-9.2c0.8-1.6,2-3.2,2.5-4.9c0.2-0.3,0.2-0.7,0-0.9c-0.5-0.9-2.3-0.5-3.3,0
				c-14.7,7-32.8,7.4-49.5,10.9c-3.7,0.7-7.3,1.7-11.2,2.3c-2.8,0.4-7.7,0.1-10,1.3C243.8,372.6,247.8,372.1,250.3,374.6z"/>
		</g>
		<g class="st13">
			<path class="st14" d="M223.5,376.3c-0.3,0.4-0.8,0.7-1.3,0.7"/>
		</g>
		<g class="st13">
			<path class="st14" d="M172.6,87.6c0.2,0.1,0.5,0.4,0.8,0.4c0.8,0.4,2,0.7,3,0.4c1-0.1,2-0.7,2.2-1.6c-0.3,0-0.7,0.1-1,0.1
				c-0.5,0.1-1.2,0.3-1.7,0.1c-0.5-0.1-1.2-0.4-1.3-0.7c-0.2-0.1-0.2-0.4-0.2-0.7c0-0.4,0-0.7,0.2-0.9c0.2-0.1,0.7-0.7,0.7-0.8
				c0-0.5-1-0.4-1.5-0.3C171.6,84.4,171.3,86.6,172.6,87.6z"/>
		</g>
		<g class="st13">
			<path class="st14" d="M150.5,134.6c-0.8,0.4-1.7,1.3-1.7,2.1s0.5,1.7,1.3,2.3c1.2,0.7,3.2,0.5,4-0.5c0.5-0.7,0.7-1.5,0.8-2.1
				c-1,0.9-4,0.7-4-0.8c0-0.1,0-0.4-0.2-0.7c-0.2-0.1-0.5-0.3-0.7-0.1c-0.2,0.1-0.2,0.3-0.3,0.4"/>
		</g>
		<g class="st13">
			<path class="st14" d="M175.8,178.7c0.2,0,0.2,0,0.3-0.1c1-0.1,2.3-0.9,2.3-1.9c0.2-1.7-1.3-0.1-2.3-0.1c-0.5,0.1-1.7,0-2-0.4
				c-0.2-0.1-0.2-0.4-0.2-0.7c0-0.1-0.2-1.6,0-1.6C170.5,175.2,171.6,179.2,175.8,178.7z"/>
		</g>
		<g class="st13">
			<path class="st14" d="M235.5,196.1c-0.3,0-0.7,0-1.2,0c-1-0.1-1.7-1.1-1.5-1.9c-0.7,0.3-1,0.9-0.8,1.7c0.2,0.7,0.7,1.2,1.2,1.6
				c0.3,0.3,0.5,0.4,1,0.7c0.8,0.4,1.8,0.3,2.5-0.1c0.8-0.4,1.3-0.9,1.7-1.6c0.2-0.1,0.2-0.4,0.2-0.4
				C238.6,194.3,236.6,195.9,235.5,196.1z"/>
		</g>
		<g class="st13">
			<path class="st14" d="M231.1,65.2c0-0.1,0-0.3,0-0.4c0-0.7-2.2,0.3-2.3,0.4c-1,0.9-1.7,2.1-0.7,3.2c0.8,0.8,2.5,1.6,3.8,1.3
				c0,0,0.2,0,0.2-0.1c0.2-0.1,0.2-0.3,0-0.4c-0.2-0.1-0.3-0.1-0.5-0.1c-0.8-0.3-1.7-1.1-1.7-1.9C230.1,66.3,230.8,65.9,231.1,65.2z
				"/>
		</g>
		<g class="st13">
			<path class="st14" d="M293,90.8c0.5,0.1,1,0.1,1.7,0c1-0.1,2-0.4,2.5-1.2c0.2-0.3,0.3-0.7-0.2-0.9c-0.2-0.1-0.5,0-0.8,0.1
				c-1,0.3-2.2,0.4-3-0.3c-0.7-0.5-0.5-1.3-0.5-1.9c-0.5-0.1-0.8,0.1-1.2,0.5C290.3,88.6,291.1,90.4,293,90.8z"/>
		</g>
		<g class="st13">
			<path class="st14" d="M312.8,130c0,0.9,0.8,1.9,1.8,2.4c1,0.4,2.3,0.4,3.3-0.1c1-0.5,1.5-1.6,1.2-2.4c-0.5,0.1-0.8,0.4-1.2,0.7
				c-0.8,0.4-2.3,0.3-3-0.4C314.3,129.6,312.8,128.4,312.8,130z"/>
		</g>
		<g class="st13">
			<path class="st14" d="M297.6,172c-0.5,0-1.2-0.1-1.5-0.4c-0.5-0.4-0.3-1.3-0.8-1.7l-0.2-0.1c-0.2,0-0.2,0-0.2,0.1
				c-1.2,0.8-1.3,2.3-0.5,3.2c0.2,0.3,0.5,0.5,0.8,0.7c0.5,0.1,1,0.3,1.7,0.3c0.7,0.1,1.5,0.1,2-0.1c0.5-0.1,0.8-0.7,1-0.9
				c0.3-0.4,0.5-1.1,0.5-1.6c0-0.1-0.3-1.3-0.8-0.9c-0.2,0.1-0.2,0.7-0.2,0.9C299.1,171.8,298.3,172,297.6,172z"/>
		</g>
	</g>
	<g id="LIGHTS">
		<g>
			<path class="st0" d="M277.5,123.9c0.2,9-3.7,18.2-10.8,25.2c5.5,0.1,10.7-2.1,14.3-5.3c3.7-3.2,6-7.2,8-11.1
				c2.2-4.6,4-9.4,3.7-14.2c-0.3-5.4-3.2-10.5-6.7-15.1c-3.7-4.9-8.3-10-14.8-12.7c-5-2.1-10.8-3.1-9.2,2.5c1.3,4.6,6.8,8.9,9.7,13
				C275.3,111.4,277.3,117.6,277.5,123.9z"/>
		</g>
		<g class="st13">
			<path class="st0" d="M361.9,113.6c2,4.2,7.2,8.9,12.2,6.8c4.2-1.7,4-6.5,3-10.2c-1.7-5.2-45.7-65.4-55.3-40.7
				c-2.7,6.8,11.2,13,15.7,17c9.5,8.2,19.8,16.5,24.3,27.1C361.9,113.5,361.9,113.5,361.9,113.6z"/>
		</g>
		<g class="st13">
			<path class="st0" d="M360.1,27.5c-7,2.9-14.3,5.3-21.8,6.8c-2.3,0.4-5.3,1.2-5.5,3.1c16.5,0.7,30.8-8.4,46.7-12.2
				c4.3-0.9,9-1.7,12.8-3.5c4-1.7,7.3-4.9,7.2-8.6c-0.2-1.6-25.3,8.2-27.7,9.3C367.8,24.2,363.9,25.9,360.1,27.5z"/>
		</g>
		<g>
			<path class="st15" d="M389.6,149c-1.7,7.6-2.5,15.3-2.3,23.1c6.8,1.2,12.7-4.6,12.5-10.2c-0.2-5.4-4.3-10.4-8.3-14.7"/>
		</g>
		<g class="st13">
			<path class="st0" d="M286.3,77.3c-2.3-0.4-4.5-0.7-6.8-0.4c-0.5,0.1-0.8,0.1-1.2,0.4c-0.7,0.4-0.5,1.2-0.3,1.9
				c1,2.9,4.5,4.8,7.7,6.6c3.2,2,6,4.1,8.8,6.4c1.7,1.3,3.2,2.5,4.3,4.1c1.2,1.6,1.7,3.5,2.7,5.2c0.3,0.8,1.2,1.9,2.3,1.6
				c0.5-0.1,0.8-0.4,1.2-0.8c1.2-1.6,1.5-3.5,1.5-5.2c0-0.9,0-1.9-0.3-2.7s-0.8-1.5-1.3-2.1c-1.2-1.6-2.5-3.2-3.7-4.9
				c-1.7-2.3-3.5-4.5-6.3-6c-1.3-0.7-2.8-1.3-4.2-2C288.8,78.6,288,77.8,286.3,77.3z"/>
		</g>
		<g class="st13">
			<path class="st0" d="M242.8,22.2c-0.7,0.1-1.5,0.5-1.5,1.2c0,0.5,0.7,0.9,1.3,1.2c2.3,0.9,4.8,1.6,7.2,2.4
				c2.3,0.9,4.3,2.4,5.5,4.1c0.2,0.4,0.3,0.7,0.7,0.9c0.7,0.7,2,0.7,3,0.5c0.8-0.1,1.8-0.1,2.5-0.7c1.7-1.3,0.3-4.4-0.5-5.7
				c-1.2-1.6-2.8-2.7-4.8-3.5C252,21.1,246.8,21,242.8,22.2z"/>
		</g>
		<g>
			<path class="st15" d="M289.5,362.8c-3,6.4-6.7,12.5-10.7,18.4c6.7,1.6,15-0.1,18.2-5.2c3-5-3-12.2-9.7-10.6"/>
		</g>
		<g class="st13">
			<path class="st0" d="M368.3,277.2c-0.8,0.9-1.8,1.7-3,2.4c-3.2,2-6.5,3.6-10.3,4.8c-0.8,0.3-1.8,0.7-2,1.5
				c-0.2,0.9,1.2,1.5,2.2,1.7c6.2,1.6,13.2,0.4,18.3-2.7c1.3-0.8,2.5-1.9,3.3-2.9c1.2-1.7,1.3-3.8,1.3-5.7c0-1.3-0.2-2.7-1-3.8
				c-1.2-2-4.8-3.1-6.8-0.9C368.9,272.8,369.6,275.4,368.3,277.2z"/>
		</g>
		<g class="st16">
			<path class="st2" d="M488.9,254.1c0.3,0.4,0.7,0.9,1.2,1.3c0.8,0.4,2,0.3,2.8,0.3c2.2,0,4.3,0.9,5.3,2.5s1,3.5-0.2,4.9
				c-0.5,0.7-1.5,1.6-1.2,2.4c0.2,0.4,0.5,0.9,0.8,1.3c1.3,1.6,1.5,4.1-0.2,5.4c-1.7,1.5-5,1.6-6.5,0c-0.3-0.4-0.7-0.8-1.2-0.9
				c-1-0.1-1.7,0.8-2.2,1.5c-1.5,2.1-5,2.7-7.8,2.1c-2.8-0.7-5.2-2.4-6.7-4.4c-1.2-1.5-2.3-3.2-2.5-4.9c-0.5-4.5,5.2-4.9,7.2-8.2
				C479.8,254.3,485.1,249.7,488.9,254.1z"/>
		</g>
		<g class="st16">
			<path class="st2" d="M488.4,255.4c0.3,0.4,0.5,0.9,1.2,1.2c0.7,0.4,1.7,0.3,2.5,0.3c2,0,3.7,0.9,4.8,2.1c0.8,1.3,0.8,3.1-0.2,4.4
				c-0.5,0.7-1.2,1.3-1.2,2.1c0.2,0.4,0.5,0.7,0.8,1.1c1.2,1.5,1.2,3.5-0.2,4.9c-1.5,1.3-4.3,1.3-5.8,0c-0.3-0.3-0.5-0.7-1-0.8
				c-0.8-0.1-1.5,0.7-2,1.3c-1.3,1.9-4.3,2.4-6.8,1.9c-2.5-0.7-4.3-2.1-5.8-3.8c-1.2-1.3-2-2.8-2.2-4.4c-0.3-4,4.7-4.4,6.5-7.3
				C480.3,255.5,485.1,251.5,488.4,255.4z"/>
		</g>
		<g class="st16">
			<path class="st2" d="M488.8,252.9c0.5,0.5,0.8,1.2,1.5,1.6c0.8,0.5,2.2,0.3,3.3,0.3c2.5,0,5,1.1,6.2,2.9c1.2,1.7,1.2,4-0.2,5.7
				c-0.7,0.9-1.7,1.7-1.5,2.8c0.2,0.5,0.5,0.9,1,1.5c1.7,1.9,1.7,4.6-0.3,6.4c-2,1.7-5.8,1.9-7.7,0c-0.3-0.4-0.7-0.9-1.3-1.1
				c-1.2-0.3-2,0.9-2.5,1.7c-1.7,2.4-5.8,3.2-9,2.4s-5.8-2.8-7.7-5c-1.5-1.7-2.7-3.6-2.8-5.7c-0.5-5.2,6.2-5.7,8.3-9.6
				C478.3,253.1,484.3,247.8,488.8,252.9z"/>
		</g>
		<g class="st16">
			<path class="st2" d="M489.6,251c0.5,0.7,0.8,1.3,1.7,1.9c1.2,0.7,2.5,0.4,3.8,0.4c3,0,5.8,1.3,7.2,3.3c1.5,2.1,1.3,4.6-0.2,6.6
				c-0.8,0.9-2,2.1-1.7,3.2c0.2,0.7,0.7,1.2,1.2,1.7c2,2.3,2,5.4-0.3,7.4c-2.3,2-6.8,2.1-8.8,0c-0.5-0.4-0.8-1.1-1.7-1.3
				c-1.3-0.3-2.3,1.1-3,2c-2,2.8-6.8,3.7-10.7,2.8c-3.8-0.9-6.8-3.3-9-6c-1.7-2-3.2-4.4-3.3-6.8c-0.5-6.1,7.2-6.8,9.8-11.4
				C477.1,251.1,484.6,244.9,489.6,251z"/>
		</g>
		<g class="st13">
			<path class="st0" d="M322.8,335.3c-2.3,2.8-4.8,5.4-8,7.7c-7.5,5.4-16.2,10.6-26.3,11.5c10.3,1.5,21-2.1,30.3-6.1
				c3.2-1.3,6.3-2.8,8.8-4.8c1.8-1.5,3.3-3.2,4.5-4.9c4.7-6.4,7.2-13.8,7.5-21.2c0.2-4.9-1.2-11.5,3.7-15c1.7-1.2,3-3.2,1.3-4.4
				c-11.8,0.7-23.5,3.8-33.5,8.9c-0.8,0.4-1.8,1.1-1.5,1.9c0.2,0.4,0.5,0.7,1,0.8c5,2.1,10.7-3.1,16-2c2.8,0.5,4.8,2.7,5.3,4.9
				c0.5,2.3,0,4.6-0.7,6.8C329.3,325.2,326.6,330.5,322.8,335.3z"/>
		</g>
		<g class="st13">
			<path class="st0" d="M308,104.2c-1.2,0.8-2.7,1.6-3.2,2.9c-0.5,1.3,0.2,2.9,1.8,3.1c1.2,0.1,2.2-0.4,2.8-1.2
				c1.2-1.2,1.3-2.9,0.7-4.2c-0.2-0.1-0.2-0.4-0.5-0.5c-0.2-0.1-0.5,0-0.7,0.3"/>
		</g>
		<g>
			<path class="st0" d="M262,155.2c-1.2-0.1-2.3,0.9-2.7,1.9c-0.7,1.6-0.2,3.8,1.7,4.5c0.8,0.3,1.7,0.4,2.7,0.3c2-0.1,4-0.9,5.2-2.4
				c1-1.5,0.8-3.5-0.8-4.4c-2-1.1-4.7-0.3-6.8,0.5"/>
		</g>
		<g>
			<path class="st0" d="M400.3,236.5c-7.8,3.3-17.3,4-24.8,8c-0.8,0.4-1.7,1.1-1.5,1.9c0.2,0.8,1.2,0.9,2,1.2
				c4.7,0.9,9.7,0.7,14.3,0.1c10.3-1.3,20.3-4.9,28.5-10.1c2.5-1.6,4.8-3.3,6-5.7c1.2-2.3,2.3-7.6-0.2-9.4c-2.3-1.9-5.8-0.7-7.8,0.8
				C411.1,227.9,407.8,233.2,400.3,236.5z"/>
		</g>
		<g class="st13">
			<path class="st0" d="M377.8,204.8c3.2,4.9,3.3,11,0.3,16.1c-3,5-8.8,8.9-15.5,10.2c5.8,1.3,12.5,0.7,17.8-1.9
				c5.3-2.4,9.3-6.6,10.7-11.4c0.5-1.3,0.5-2.7,0.5-4.1c-0.2-3.7-2-7.2-4.3-10.2c-1.8-2.5-4-4.9-7.2-6.4c-2.7-1.2-5.7-1.6-8.7-1.6
				c-3,0-6.8,0.3-9.5,1.6c2,0.9,4.8,0.9,6.8,1.6C373.1,199.8,375.9,201.9,377.8,204.8z"/>
		</g>
		<g class="st13">
			<path class="st0" d="M102.3,221.7c-5.8-1.6-10.8-5.3-12.8-10c-0.5,0.8-0.3,1.9,0,2.8c0.8,2.4,2,5,4.2,6.9
				c2.3,1.9,6.3,2.4,8.7,0.7c-0.2-0.5-1.5-0.7-1.7,0"/>
		</g>
		<g class="st13">
			<path class="st14" d="M200.1,333.3c-0.2,2,0.3,4,0.8,6c2,8,6.8,16.2,16,19.9c5.5,2.1,11.7,2.4,17.7,2.7c3.7,0.1,7.2,0.3,10.8-0.1
				c3.5-0.4,7-1.6,9.5-3.7c2.7-2.3,3.7-5.2,4.8-8.1c-9.8,7.6-25.5,10-38.2,5.8c-10.7-3.5-16.3-14.2-16.8-23c0-1.3,0.3-2.5,0.7-3.7
				c0.5-1.9,1.2-3.8,1.7-5.7c0.2-0.7,0.3-1.3,0.7-1.9c0.8-1.3,2.7-2.3,2.7-3.6C204.5,320.4,200.3,327.9,200.1,333.3z"/>
		</g>
		<g class="st13">
			<path class="st14" d="M219.6,325.5c-0.8,0.5-1.5,1.3-2.3,1.7c-1.2,0.5-2.3,0.8-3.7,1.1c-1.5,0.3-3,0.5-4.5,0.9
				c2.3,0.1,4.7,0.1,6.8,0.1c1.2,0,2.3,0,3.5,0c0.8,0,2,0.1,2.3-0.7c0.2-0.7,0.7-1.1,1.2-1.6c0.5-0.5,0.8-1.1,1.5-1.6
				c0.5-0.4,1-0.9,1.7-1.5c0.2-0.3,0.5-0.4,0.7-0.7c0.2-0.1,0.5-0.8,0.7-0.8C224.5,322.7,221.6,324,219.6,325.5z"/>
		</g>
		<g class="st13">
			<path class="st14" d="M214.3,338.1c0.2,0.1,0.5,0.1,0.8,0.1c0.8,0.1,1.7,0.3,2.3,0.5c2.8,1.1,4.7,3.7,6.8,5.4
				c4,3.1,10.3,3.8,15.8,2.9c1.5-0.3,3-0.7,4.2-1.3c1.2-0.8,2-2.1,2.2-3.3c-3,1.9-7.2,3.1-10.8,2.7c-1-0.1-2-0.1-3-0.4
				c-2-0.4-4.2-0.9-5.8-1.9c-0.8-0.5-1.7-1.2-2.2-1.9c-0.8-0.8-1.5-1.6-2-2.4c-0.3-0.4-0.8-0.9-0.8-1.3c-0.2-0.3,0.2-0.7-0.2-0.9
				c-0.3-0.3-1.7-0.3-2.3-0.4c-1.2,0-2.3,0-3.3,0c-2.7,0-5.2,0.3-7.7,0.4c1.2,0.4,2.3,0.7,3.3,0.9
				C212.3,337.5,213.1,337.8,214.3,338.1z"/>
		</g>
	</g>
	<g id="DETAILS">
		<g>
			<path d="M412.1,315.6c-0.2,0-0.2,0-0.3,0c-1.3-0.3-3.2-0.8-4.5-2.4c-0.3-0.4-0.2-0.9,0.3-1.3c0.5-0.3,1.2-0.1,1.7,0.3
				c0.5,0.7,1.5,1.3,2.8,1.6c0.7-0.4,1.5-1.2,2.2-1.9c0.5-0.5,1-0.9,1.5-1.5c0.2-0.1,0.5-0.3,0.8-0.3l0,0c0.3,0,0.5,0.1,0.8,0.3
				l0.2,0.1c1,0.8,1.7,1.5,2.7,1.6c0-0.1,0-0.4,0-0.5c0-0.5,0-1.1,0.3-1.6c0.2-0.3,0.3-0.4,0.7-0.4c0.3-0.1,0.7,0,0.8,0.1
				c0.5,0.3,1,0.5,1.5,0.8c1.5,0.8,3.2,1.7,4.3,1.6c0-0.3-0.2-0.9-0.2-1.3c-0.2-0.7-0.3-1.3-0.2-1.9c0-0.3,0.2-0.5,0.5-0.7
				c0.3-0.1,0.7-0.1,1-0.1c0.8,0.1,1.7,0.5,2.3,0.8c1.8,0.7,3.5,1.3,4.8,0.9c0.8-0.5,2-2.7,2.8-4.4c0.8-1.6,1.5-3.1,2.3-4.1
				c0.3-0.4,1.2-0.4,1.7-0.1c0.5,0.3,0.5,0.9,0.2,1.3c-0.7,0.8-1.3,2.3-2,3.6c-1.2,2.4-2.2,4.5-3.8,5.3c-0.2,0-0.2,0.1-0.2,0.1
				c-2.3,0.7-4.7-0.1-6.8-0.9c-0.2-0.1-0.3-0.1-0.5-0.1l0,0c0.2,1.1,0.5,2.4-0.5,3.1c-0.2,0.1-0.2,0.1-0.3,0.1
				c-2.3,0.7-4.7-0.7-6.8-1.7c0,0.7-0.2,1.6-1.3,2c-0.2,0-0.2,0-0.2,0c-2,0.3-3.3-0.7-4.3-1.5c-0.2,0.1-0.3,0.4-0.5,0.7
				c-1,1.1-2.2,2.1-3.5,2.7C412.3,315.6,412.3,315.6,412.1,315.6z"/>
		</g>
		<g>
			<path d="M401.3,283L401.3,283c-0.7,0-1.2-0.4-1.2-0.9c0.2-3.3-0.2-4.4-0.2-4.6c-0.2-0.4-0.2-0.8,0.5-1.2c0.2-0.1,0.2-0.1,0.5-0.5
				c0.2-0.1,0.5-0.4,0.8-0.4c1.5-0.1,2.3,0.4,3.2,1.2c0-0.1,0-0.1-0.2-0.1c-0.5-1.2-0.8-2.8,0.5-4.4c0.2-0.1,0.5-0.3,0.7-0.4
				c1.8-0.3,3.2,0.3,4.3,1.1c-0.2-0.7,0.2-1.2,0.8-1.7c1.7-1.1,3.7-0.5,5.8,0.4c0.2-0.4,0.3-0.9,0.7-1.5c0.2-0.3,0.5-0.4,0.8-0.4
				c3.3-0.1,5.8,1.1,8,2.1c0.5,0.3,0.8,0.4,1.3,0.7c0.5,0.3,0.7,0.8,0.5,1.3c-0.2,0.4-1,0.5-1.7,0.4c-0.5-0.3-1-0.4-1.5-0.7
				c-2-0.9-3.7-1.9-6-1.9c-0.2,0.4,0,0.7,0.7,1.3c0.3,0.3,0.5,0.5,0.8,0.9c0.2,0.4,0.2,0.8-0.2,1.1c-0.3,0.3-1,0.3-1.3,0.1
				c-1.8-0.9-5.5-3.2-6.5-2.5c-0.3,0.3,0.2,1.1,0.8,2.1c0.5,0.7,0.8,1.3,1,2c0.2,0.4-0.2,0.7-0.5,0.9c-0.3,0.1-0.8,0.1-1.2,0
				c-0.8-0.5-1.7-1.3-2.3-1.9c-1.3-1.3-2.3-2.1-3.5-2.1l0,0c-0.5,0.8-0.3,1.6,0.2,2.5c0.3,1.1,0.8,2.4-0.2,3.5
				c-0.2,0.1-0.5,0.4-0.8,0.4c-0.3,0-0.7,0-0.8-0.1c-0.5-0.4-1-0.8-1.3-1.3c-0.5-0.7-0.8-0.9-1.3-1.1c0,0.1-0.2,0.1-0.2,0.1
				c0.2,0.7,0.3,1.9,0.2,4.9C402.4,282.6,401.9,283,401.3,283z"/>
		</g>
		<g>
			<path d="M408.3,314.5c-0.2,0-0.2,0-0.3,0c-1.2-0.1-2.2-0.9-2-2c0.2-0.9,0.5-1.9,0.7-2.7c0.2-0.8,0.5-1.6,0.5-2.4
				c0.3-2.4,0.8-4.9,0.5-7.2c-0.2-1.6-0.7-3.1-1.2-4.6c-0.2-0.5-0.3-1.1-0.5-1.6c-1.2-4.1-2.5-7.8-6.2-10.5c-0.8-0.7-1-1.9-0.2-2.5
				c0.8-0.7,2.3-0.8,3.2-0.1c4.7,3.3,6.2,7.8,7.5,12.2c0.2,0.5,0.3,1.1,0.5,1.6c0.5,1.7,1.2,3.5,1.3,5.2c0.3,2.8-0.2,5.4-0.5,8
				c-0.2,0.9-0.5,1.9-0.7,2.7c-0.2,0.8-0.5,1.6-0.5,2.4C410.4,313.9,409.4,314.5,408.3,314.5z"/>
		</g>
		<g>
			<path d="M443.3,303c-0.2,0-0.3,0-0.5-0.1c-1.2-0.3-2-1.3-1.7-2.1c1.3-4.1,0.2-7.7-1.3-11.9c-0.5-1.6-1-3.1-1.5-4.8
				c-0.2-0.7-1.2-1.9-1.7-2.8c-0.3-0.4-0.5-0.8-0.8-1.2c-0.8-1.3-2.7-2.4-4.7-3.3c-0.5-0.3-1-0.5-1.5-0.8c-0.8-0.4-1.2-0.9-1.7-1.2
				c-0.2-0.1-0.2-0.1-0.2-0.1h-0.2c-1.2-0.1-2-1.1-1.8-2.1c0.2-0.9,1.3-1.6,2.7-1.5c1.8,0.3,2.5,0.9,3.2,1.6
				c0.2,0.1,0.3,0.4,0.7,0.5c0.5,0.3,0.8,0.4,1.3,0.7c2.3,1.2,4.8,2.7,6.2,4.6c0.2,0.3,0.5,0.7,0.7,0.9c0.8,1.3,2,2.7,2.2,3.8
				c0.5,1.6,0.8,3.1,1.5,4.6c1.7,4.4,3,8.6,1.3,13.8C445.1,302.5,444.3,303,443.3,303z"/>
		</g>
		<g>
			<path d="M238,394.8L238,394.8c-0.7,0-1.2-0.4-1.2-0.9c0.2-2.3,0.5-4.4,0.7-6.5c0.7-5.7,1.3-11.1,1-17.5c0-0.5,0.5-0.9,1.2-0.9
				c0.5,0,1.2,0.4,1.2,0.9c0.3,6.6-0.3,12.1-1,17.8c-0.2,2.1-0.5,4.1-0.7,6.4C239.1,394.4,238.6,394.8,238,394.8z"/>
		</g>
		<g>
			<path d="M254.8,394c-0.2,0-0.2,0-0.2,0c-0.5-0.1-1-0.7-0.8-1.1c2-6.4,3.8-15.7,1.7-25c-0.2-0.4,0.3-0.9,0.8-1.1
				c0.7-0.1,1.2,0.3,1.3,0.7c2.3,9.6,0.3,19.2-1.7,25.7C256,393.7,255.5,394,254.8,394z"/>
		</g>
		<g>
			<path d="M218.6,393.7c-0.5,0-0.8-0.3-1.2-0.7c-3.2-9.2-3.3-17-0.2-26.3c0.2-0.4,0.8-0.8,1.3-0.7s0.8,0.7,0.8,1.1
				c-3,8.9-3,16.5,0.2,25.2c0.2,0.4-0.2,0.9-0.8,1.1C218.8,393.7,218.6,393.7,218.6,393.7z"/>
		</g>
		<g>
			<path d="M268.8,392.9c-0.2,0-0.2,0-0.3-0.1c-0.5-0.1-0.8-0.7-0.7-1.2c3-6.6,6.2-16.6,4.8-26.8c-0.2-0.4,0.3-0.9,1-0.9
				c0.5,0,1.2,0.3,1.2,0.8c1.3,10.5-2,20.7-5,27.5C269.6,392.6,269.3,392.9,268.8,392.9z"/>
		</g>
		<g>
			<path d="M290.3,390.1c-0.2,0-0.2,0-0.3,0c-0.5-0.1-0.8-0.7-0.8-1.1c3-8,5.5-16.5,3.3-24.6c-0.2-0.4-0.2-0.8-0.3-1.2
				c-0.2-0.5-0.3-1.2-0.5-1.9c-0.2-0.4,0.3-0.9,0.8-1.1c0.5-0.1,1.2,0.3,1.3,0.7c0.2,0.7,0.3,1.2,0.5,1.7c0.2,0.4,0.2,0.8,0.3,1.2
				c2.3,8.6-0.5,17.3-3.5,25.3C291.3,389.8,290.8,390.1,290.3,390.1z"/>
		</g>
		<g>
			<path d="M200.1,392.2c-0.5,0-0.8-0.3-1.2-0.7c-2.7-7.3-0.5-15,1.5-21.9l0.2-0.8c0.5-1.6,0.8-2.9,1.7-4.5c0.2-0.4,0.8-0.7,1.5-0.4
				c0.7,0.3,0.8,0.7,0.5,1.2c-0.8,1.3-1.2,2.7-1.7,4.1l-0.2,0.8c-2,6.6-4,14.1-1.5,21c0.2,0.4-0.2,0.9-0.8,1.1
				C200.3,392.2,200.1,392.2,200.1,392.2z"/>
		</g>
		<g>
			<path d="M185.6,389.6c-0.5,0-0.8-0.1-1-0.5c-3.5-6.9-2.2-15.1-1-22.4c0.3-1.9,0.5-3.5,0.8-5.2c0.2-0.4,0.5-0.8,1.2-0.8
				c0.5,0.1,1.2,0.4,1,0.9c-0.2,1.7-0.5,3.5-0.8,5.2c-1.2,7.4-2.3,15,0.8,21.5c0.2,0.4,0,0.9-0.7,1.2
				C186,389.6,185.8,389.6,185.6,389.6z"/>
		</g>
		<g>
			<path d="M481.4,273c-1.8,0-3.5-0.7-4.5-2.1c-0.5-0.9-0.8-1.9-0.5-2.9c-1.2-0.4-2.2-0.9-2.7-1.9c-0.7-0.9-0.8-2.1-0.5-3.1
				c0.3-1.1,1.2-1.9,2.5-2.4c2-0.8,4.3-0.7,5.8,0.5c0.2-0.1,0.2-0.1,0.3-0.1c1.2-0.5,2.7-0.7,3.8-0.4c1.3,0.3,2.3,0.9,3,2
				c0.7,0.9,0.8,2.1,0.5,3.1c-0.3,0.9-1.2,1.9-2.5,2.4c-0.2,0.1-0.2,0.1-0.3,0.1c0.3,1.7-0.7,3.3-2.7,4.1
				C482.9,272.9,482.1,273,481.4,273z M478.1,260.7c-0.8,0-1.5,0.1-2.2,0.4c-1,0.4-1.8,1.3-2.2,2.1c-0.3,0.9-0.2,1.9,0.3,2.7
				c0.5,0.8,1.5,1.5,2.7,1.7c0.2,0,0.2,0.1,0.2,0.3c-0.3,0.9-0.2,1.9,0.3,2.7c1.2,1.7,4,2.4,6.2,1.5c1.7-0.7,2.7-2.4,2.3-3.8
				c0-0.1,0-0.1,0.2-0.3s0.3-0.1,0.5-0.1c1-0.4,1.8-1.3,2.2-2.1c0.3-0.9,0.2-1.9-0.3-2.7c-0.5-0.8-1.7-1.5-2.7-1.7
				c-1-0.3-2.3-0.1-3.3,0.3c-0.2,0.1-0.3,0.1-0.5,0.1c-0.2,0.1-0.2,0.1-0.3,0C480.4,261.1,479.3,260.7,478.1,260.7z"/>
		</g>
		<g>
			<path d="M481.6,270.4c-0.3,0-0.5,0-0.8-0.1c-0.8-0.1-1.5-0.7-2-1.2c-0.3-0.5-0.5-1.2-0.3-1.9c-0.8-0.1-1.3-0.7-1.7-1.2
				c-0.5-0.7-0.5-1.3-0.2-1.9c0.3-0.5,0.8-1.2,1.5-1.6c1.2-0.5,2.7-0.4,3.7,0.4c0.2,0,0.2-0.1,0.2-0.1c0.8-0.4,1.7-0.4,2.3-0.1
				c0.8,0.1,1.5,0.7,2,1.2c0.8,1.3,0.2,2.8-1.2,3.5c-0.2,0-0.2,0.1-0.2,0.1c0.2,1.1-0.5,2.1-1.7,2.7
				C482.6,270.1,482.1,270.4,481.6,270.4z M479.6,262.4c-0.5,0-0.8,0.1-1.3,0.3c-0.7,0.3-1.2,0.8-1.3,1.3c-0.2,0.7-0.2,1.2,0.2,1.7
				c0.3,0.5,1,0.9,1.7,1.1c0.2,0,0.2,0.1,0.2,0.1c-0.2,0.5-0.2,1.2,0.2,1.7s1,0.9,1.7,1.1c0.8,0.1,1.5,0.1,2.2-0.1
				c1.2-0.4,1.7-1.5,1.5-2.4c0-0.1,0-0.1,0.2-0.1c0.2,0,0.2-0.1,0.3-0.1c0.7-0.3,1.2-0.8,1.3-1.3c0.2-0.7,0.2-1.2-0.2-1.7
				c-0.8-1.1-2.5-1.6-4-0.9c-0.2,0-0.2,0.1-0.2,0.1h-0.2C481.1,262.8,480.3,262.4,479.6,262.4z"/>
		</g>
		<g>
			<path d="M484.3,259.5c-1.2,0-2.3-0.4-3-1.3c-1-1.3-0.5-3.2,1.2-4s4-0.4,5,0.9c1,1.3,0.5,3.2-1.2,4l0,0
				C485.6,259.4,484.9,259.5,484.3,259.5z M484.3,254.2c-0.5,0-1.2,0.1-1.7,0.4c-1.5,0.7-1.8,2.3-1,3.3c0.8,1.2,2.8,1.5,4.2,0.8
				c1.5-0.7,1.8-2.3,1-3.3C486.3,254.6,485.3,254.2,484.3,254.2z M485.9,258.8L485.9,258.8L485.9,258.8z"/>
		</g>
		<g>
			<path d="M494.1,263.2c-0.2,0-0.5,0-0.8-0.1c-0.8-0.1-1.7-0.7-2.3-1.3c-0.5-0.7-0.7-1.5-0.5-2.1c0.2-0.7,0.8-1.3,1.7-1.9
				c0.8-0.5,1.8-0.5,2.7-0.4c0.8,0.1,1.7,0.7,2.3,1.3c0.5,0.7,0.7,1.5,0.5,2.1c-0.2,0.7-0.8,1.3-1.7,1.9
				C495.6,263.1,494.8,263.2,494.1,263.2z M494.1,258c-0.5,0-1.2,0.1-1.7,0.4c-0.7,0.4-1.2,0.9-1.3,1.6c-0.2,0.7,0,1.3,0.3,1.9
				c0.5,0.5,1.2,0.9,2,1.1c0.8,0.1,1.7,0,2.3-0.3l0,0c0.7-0.4,1.2-0.9,1.3-1.6c0.2-0.7,0-1.3-0.3-1.9c-0.3-0.5-1.2-0.9-2-1.1
				C494.6,258,494.4,258,494.1,258z"/>
		</g>
		<g>
			<path d="M494.1,261.9c-0.2,0-0.2,0-0.5,0c-0.5-0.1-0.8-0.4-1.2-0.7c-0.5-0.7-0.2-1.6,0.5-2c0.8-0.4,2-0.1,2.5,0.4
				c0.5,0.7,0.2,1.6-0.5,2C494.8,261.8,494.4,261.9,494.1,261.9z M494.1,259.1c-0.2,0-0.5,0.1-0.8,0.1c-0.7,0.4-0.8,1.1-0.5,1.7
				c0.2,0.3,0.5,0.4,0.8,0.5c0.5,0.1,0.8,0,1.2-0.1l0,0c0.3-0.1,0.5-0.4,0.7-0.7c0.2-0.4,0-0.7-0.2-0.9
				C495.1,259.4,494.6,259.1,494.1,259.1z"/>
		</g>
		<g>
			<path d="M493.3,271.1c-1.2,0-2.3-0.4-3-1.3c-1-1.3-0.5-3.2,1.2-4c1.7-0.8,4-0.4,5,0.9c1,1.3,0.5,3.2-1.2,4l0,0
				C494.4,270.9,493.9,271.1,493.3,271.1z M493.3,265.7c-0.5,0-1.2,0.1-1.7,0.4c-1.5,0.7-1.8,2.3-1,3.3c0.8,1.2,2.8,1.5,4.2,0.8l0,0
				c1.5-0.7,1.8-2.3,1-3.3C495.3,266.1,494.3,265.7,493.3,265.7z M494.9,270.4L494.9,270.4L494.9,270.4z"/>
		</g>
		<g>
			<path d="M493.3,269.9c-0.2,0-0.3,0-0.5,0c-0.5-0.1-1-0.4-1.3-0.7c-0.5-0.8-0.3-1.9,0.7-2.4c1-0.4,2.3-0.3,3,0.5
				c0.3,0.4,0.3,0.8,0.2,1.3c-0.2,0.4-0.5,0.8-0.8,1.1l0,0C494.1,269.7,493.6,269.9,493.3,269.9z M493.3,266.7
				c-0.3,0-0.7,0.1-0.8,0.1c-0.8,0.4-1.2,1.3-0.5,2c0.2,0.4,0.7,0.5,1.2,0.7c0.5,0.1,0.8,0,1.3-0.1l0,0c0.5-0.1,0.7-0.5,0.8-0.9
				c0.2-0.4,0-0.7-0.2-1.1C494.4,266.9,493.8,266.7,493.3,266.7z"/>
		</g>
		<g>
			<path d="M484.3,258.3c-0.7,0-1.3-0.3-1.8-0.8c-0.3-0.4-0.3-0.8-0.2-1.3c0.2-0.5,0.5-0.8,0.8-1.1c0.5-0.3,1-0.3,1.7-0.1
				c0.5,0.1,1,0.4,1.3,0.7c0.3,0.4,0.3,0.8,0.2,1.3c-0.2,0.4-0.5,0.8-0.8,1.1C484.9,258.3,484.6,258.3,484.3,258.3z M484.3,255.1
				c-0.3,0-0.7,0.1-0.8,0.1c-0.5,0.1-0.7,0.5-0.8,0.9c-0.2,0.4,0,0.7,0.2,1.1c0.5,0.7,1.7,0.9,2.5,0.4c0.5-0.1,0.7-0.5,0.8-0.9
				s0-0.7-0.2-1.1s-0.7-0.5-1.2-0.7C484.4,255.1,484.3,255.1,484.3,255.1z"/>
		</g>
		<g>
			<path d="M442.6,292.6c-0.5,0-0.8-0.1-1-0.4c-0.3-0.4-0.2-0.9,0.5-1.3c11.8-5.2,24-9.7,36.5-13.9c0.7-0.3,1.7-0.5,2.5-0.5
				c1,0,2,0.4,2.7,0.7l6.3,2.4c0.5,0.1,0.8,0.7,0.5,1.2c-0.2,0.4-0.8,0.7-1.5,0.4l-6.3-2.4c-0.5-0.1-1.2-0.4-1.7-0.4
				s-1.2,0.1-1.7,0.4c-12.3,4.1-24.5,8.6-36.2,13.8C442.9,292.6,442.6,292.6,442.6,292.6z"/>
		</g>
		<g>
			<path d="M437.6,280.2c-0.3,0-0.8-0.1-1-0.4c-0.3-0.4-0.2-0.9,0.5-1.3c11.7-5.4,21-10.8,31.5-16.9c0.5-0.3,1-0.7,1.2-0.9
				c0.2-0.4,0.3-0.9,0.5-1.5l0.7-5.4c0.2-0.4,0.5-0.9,1.2-0.8c0.5,0.1,1,0.4,1,0.9l-0.7,5.4c-0.2,0.7-0.2,1.5-0.7,2.1
				c-0.5,0.7-1.2,1.1-1.8,1.5c-10.5,6.2-20,11.5-31.7,17C438.1,280.2,437.9,280.2,437.6,280.2z"/>
		</g>
		<g>
			<path d="M435.1,276.1c-0.3,0-0.8-0.1-0.8-0.4c-0.3-0.4-0.2-0.9,0.3-1.3l13.5-6.9c0.2-0.1,0.3-0.1,0.3-0.3c0-0.1,0.2-0.1,0.2-0.4
				c0.2-1.3,0.8-2.7,1.7-3.7c0.3-0.4,1-0.5,1.7-0.3c0.5,0.3,0.7,0.8,0.3,1.3c-0.7,0.9-1.2,1.9-1.3,2.9c-0.2,0.4-0.2,0.7-0.5,1.1
				c-0.3,0.4-0.8,0.7-1.2,0.8l-13.5,6.9C435.6,276.1,435.4,276.1,435.1,276.1z"/>
		</g>
		<g>
			<path d="M346.9,304.6c-0.5,0-1-0.3-1.2-0.7c-0.2-0.4,0.2-0.9,0.8-1.1l28.3-4.5c2.3-0.4,5.2-0.8,7.2-2c1.7-0.9,3-2.4,4.3-3.8
				l7.3-8.5c0.3-0.4,1-0.5,1.7-0.3c0.5,0.3,0.7,0.8,0.3,1.3l-7.3,8.5c-1.2,1.6-2.7,3.2-4.8,4.4c-2.5,1.3-5.5,1.9-8.2,2.3l-28.3,4.5
				C347.3,304.6,347.1,304.6,346.9,304.6z"/>
		</g>
		<g>
			<path d="M398.1,315.6c-0.2,0-0.5-0.1-0.5-0.1l-11-5.7c-1.8-0.9-3.7-1.9-5.8-2.3c-2.5-0.4-5.2,0-7.7,0.4l-26.5,4.2
				c-0.5,0.1-1.2-0.1-1.3-0.7c-0.2-0.4,0.2-0.9,0.8-1.1l26.5-4.2c2.7-0.4,5.7-0.9,8.7-0.4c2.5,0.4,4.7,1.6,6.5,2.5l10.8,5.6
				c0.5,0.3,0.7,0.8,0.3,1.3C398.8,315.5,398.4,315.6,398.1,315.6z"/>
		</g>
		<g>
			<path d="M265.8,367.8c-0.2,0-0.2,0-0.3,0c-0.5-0.1-0.8-0.7-0.8-1.1c3-7.7,5.7-14.1,8.3-20.3c2.7-6.1,5.3-12.5,8.3-20.2
				c1.7-4.2,3.3-9,7.3-12.7c3.3-3.2,8-5.2,12.2-7c4-1.7,9.7-4.4,15.3-7c5.5-2.7,11.3-5.3,15.3-7c0.5-0.3,1.2-0.1,1.7,0.4
				c0.3,0.4,0.2,0.9-0.5,1.3c-4,1.7-9.7,4.4-15.3,7c-5.5,2.7-11.3,5.3-15.3,7c-4,1.9-8.3,3.7-11.5,6.6c-3.7,3.5-5.5,8-6.8,12.1
				c-3,7.7-5.7,14.1-8.3,20.3c-2.7,6.1-5.3,12.5-8.3,20.2C266.8,367.5,266.3,367.8,265.8,367.8z"/>
		</g>
		<g>
			<path d="M205.3,366.7c-0.5,0-0.8-0.3-1.2-0.7c-3-7.7-6-14.1-9-20.2c-3-6.2-6.2-12.6-9.2-20.3c-1.7-4.1-3.3-8.6-6.8-12.1
				c-3-2.9-7.3-4.8-11.5-6.6L144,296.4c-0.5-0.3-0.8-0.8-0.5-1.3c0.3-0.4,1-0.7,1.7-0.4l23.7,10.5c4,1.9,8.7,3.8,12.2,7
				c4,3.7,5.8,8.5,7.3,12.7c3,7.7,6,14.1,9,20.2c3,6.2,6.2,12.6,9.2,20.3c0.2,0.4-0.2,0.9-0.8,1.1
				C205.5,366.7,205.5,366.7,205.3,366.7z"/>
		</g>
		<g>
			<path d="M416.4,311.9c-0.2,0-0.2,0-0.2,0c-0.5-0.1-1-0.5-0.8-1.1c5.3-20-10.3-31.3-10.3-31.3c-0.5-0.4-0.5-0.9-0.2-1.3
				c0.5-0.4,1.2-0.4,1.7-0.1c0.2,0.1,16.8,12.1,11.2,33C417.6,311.7,417.1,311.9,416.4,311.9z"/>
		</g>
		<g>
			<path d="M421.4,311.1c-0.2,0-0.2,0-0.2,0c-0.5-0.1-1-0.5-0.8-1.1c5.3-20-7.5-32.5-7.7-32.8c-0.5-0.4-0.3-0.9,0.2-1.3
				c0.5-0.4,1.2-0.3,1.7,0.1c0.5,0.5,13.7,13.3,8,34.2C422.4,310.9,422.1,311.1,421.4,311.1z"/>
		</g>
		<g>
			<path d="M428.6,309.4c-0.2,0-0.2,0-0.2,0c-0.5-0.1-1-0.5-0.8-1.1c5.3-20-8.5-33.6-8.7-33.7c-0.5-0.4-0.3-0.9,0.2-1.3
				c0.5-0.4,1.2-0.3,1.7,0.1c0.5,0.5,14.7,14.3,9.2,35.3C429.6,309,429.1,309.4,428.6,309.4z"/>
		</g>
		<g>
			<path d="M109.8,378.8c-25.7,0-36.2-9.2-36.7-9.6c-0.2-0.1-0.2-0.3-0.2-0.4c-0.3-0.9-1.2-2.3-2.2-3.6c-1.5-2.1-3-4.2-2.7-5.7
				c0-0.1,0-0.1,0-0.1c0.8-1.9,3.2-2.7,5.2-3.5c0.2-0.1,0.3-0.1,0.5-0.1l0,0c-1.2-0.5-2.7-1.2-2.7-2.3c0-0.1,0-0.3,0.2-0.4
				c0.8-1.9,3.7-2.4,6-2.9c-0.7-0.4-1.5-1.2-1-2.1c0-0.1,0-0.1,0.2-0.1c0.8-1.3,2.7-1.6,4.2-1.7c-0.2-0.3-0.2-0.4-0.2-0.7
				c-0.3-1.3-0.8-2.7-0.2-3.8c0.2-0.1,0.2-0.3,0.5-0.4c1.2-0.7,2.8-1.5,5.2-1.2c0.5,0.1,1,0.5,1,0.9c-0.2,0.4-0.7,0.8-1.2,0.8
				c-1.2-0.1-2.2,0.1-3.3,0.7c-0.2,0.7,0.2,1.6,0.5,2.5c0.2,0.7,0.3,1.3,0.5,1.9c0,0.3-0.2,0.4-0.2,0.7c-0.2,0.1-0.5,0.3-0.8,0.4
				h-0.3c-1.3,0.1-2.5,0.1-3,0.7c0.2,0.1,0.3,0.3,0.5,0.4c0.5,0.4,1,0.7,1.3,1.3c0.2,0.3,0.2,0.5,0,0.7s-0.3,0.4-0.7,0.5
				c-0.5,0.1-1.2,0.3-1.7,0.4c-1.8,0.4-3.7,0.8-4.3,1.7c0.2,0.1,0.8,0.4,1.3,0.7c0.7,0.3,1.3,0.7,2,1.1c0.2,0.1,0.3,0.4,0.3,0.7
				c0,0.3-0.2,0.5-0.5,0.7c-0.8,0.4-1.7,0.7-2.3,0.9c-1.8,0.7-3.5,1.3-4,2.4c-0.2,0.9,1.2,2.9,2.3,4.5c1,1.3,2,2.7,2.3,3.8
				c1.5,1.2,12.5,9.2,36.5,8.8c2.7,0,5.2-1.1,6.8-2.8c-0.2-0.4-0.7-0.4-1.7-0.4c-0.5,0-0.8,0-1.5-0.1c-0.7-0.1-0.8-0.4-0.8-0.9
				c0-0.4,0.3-0.8,0.8-0.9c2.2-0.4,6.5-1.3,6.5-2.4c-0.2-0.4-1.2-0.7-2.7-0.9c-0.8-0.1-1.8-0.4-2.7-0.7c-0.5-0.1-0.7-0.5-0.7-0.9
				c0-0.4,0.3-0.7,0.8-0.8c1.2-0.1,2.3-0.1,3.3-0.1c2.2,0,3.5-0.1,4.3-0.8c-0.5-0.8-1.2-1.2-2.5-1.6c-1.3-0.4-2.7-0.9-3.3-2.4
				c-0.2-0.3,0-0.5,0.2-0.7s0.5-0.4,0.8-0.4c0.7-0.1,1.3-0.1,2,0c1,0.1,1.7,0.1,2-0.1c0-0.1,0-0.1,0-0.1c-0.7-0.4-2-0.9-4.8-2.9
				c-0.5-0.4-0.5-0.9-0.2-1.3c0.5-0.4,1.2-0.4,1.7-0.1c3.2,2.3,4.3,2.7,4.8,2.9c0.5,0.1,0.8,0.4,0.8,0.9c0,0.1,0,0.3,0.2,0.7
				c0.2,0.3,0,0.5-0.2,0.7c-0.8,0.9-2,1.2-3,1.2c0.2,0,0.2,0.1,0.2,0.1c1.3,0.5,3.3,1.2,4,3.2c0.2,0.1,0,0.4-0.2,0.7
				c-0.8,1.3-2.3,1.9-3.8,2c0.7,0.4,1.2,0.9,1.2,1.6c0.2,1.6-1.8,2.7-4.2,3.2c0.3,0.3,0.7,0.7,0.8,1.3c0.2,0.3,0,0.5-0.2,0.8
				c-2.3,2.4-5.5,3.8-9,3.8C110.8,378.8,110.3,378.8,109.8,378.8z"/>
		</g>
		<g>
			<path d="M64.7,412.1c-0.5,0-0.8-0.1-1-0.5c-0.2-0.4,0-0.9,0.5-1.2l6.3-2.4c0.5-0.1,1.2-0.4,1.7-0.8c0.3-0.3,0.5-0.8,0.7-1.3
				c4.3-11.1,8-23.8,10.2-32.5c0.2-0.4,0.7-0.8,1.3-0.7c0.5,0.1,1,0.5,0.8,1.1c-2.2,8.8-5.8,21.5-10.2,32.6
				c-0.2,0.5-0.5,1.3-1.2,1.9c-0.7,0.7-1.7,0.9-2.3,1.3l-6.3,2.4C64.8,412,64.7,412.1,64.7,412.1z"/>
		</g>
		<g>
			<path d="M101.2,418.5c-0.3,0-0.5-0.1-0.8-0.3l-4.8-4c-0.5-0.4-1.2-0.9-1.7-1.9c-0.3-0.7-0.2-1.5-0.2-2.1
				c0.8-11.1,2.3-22.6,4.5-32.6c0.2-0.4,0.7-0.8,1.3-0.7c0.5,0.1,1,0.5,0.8,1.1c-2.2,10.1-3.7,21.2-4.5,32.5c0,0.4-0.2,0.9,0.2,1.3
				c0.2,0.4,0.7,0.8,1.2,1.2l4.8,4c0.5,0.4,0.5,0.9,0,1.3C101.7,418.5,101.5,418.5,101.2,418.5z"/>
		</g>
		<g>
			<path d="M69.7,391.4c-0.2,0-0.5-0.1-0.8-0.3c-0.5-0.4-0.5-0.9-0.2-1.3c1.2-0.9,2.5-1.7,4-2.3c0.2-0.1,0.5-0.1,0.5-0.1
				c0.2-0.1,0.2-0.3,0.2-0.4c0.8-2,1.8-4.8,2.7-7.4c0.8-2.7,2-5.4,2.7-7.6c0.2-0.4,0.8-0.7,1.5-0.5c0.5,0.1,0.8,0.7,0.7,1.2
				c-0.8,2-1.8,4.8-2.7,7.4s-2,5.4-2.7,7.6c-0.2,0.3-0.3,0.7-0.7,1.1c-0.3,0.3-0.8,0.4-1.2,0.5c-1.2,0.4-2.3,1.1-3.3,1.9
				C70.3,391.3,70,391.4,69.7,391.4z"/>
		</g>
		<g>
			<path d="M122.2,352.9c-0.5,0-0.8-0.3-1.2-0.7c-0.5-1.6-1.3-3.6-2.2-5.6c-0.8-2-1.7-4-2.2-5.6c-0.5-1.7-1.2-3.7-1.2-5.7
				c0.2-2.4,1.7-4.5,3-6.4l11.7-17c0.3-0.4,1-0.7,1.7-0.4c0.5,0.3,0.8,0.8,0.5,1.3l-11.7,17c-1.2,1.7-2.5,3.7-2.7,5.7
				c-0.2,1.7,0.5,3.5,1,5.2c0.5,1.6,1.3,3.6,2.2,5.6c0.8,2,1.7,4,2.2,5.6c0.2,0.4-0.2,0.9-0.8,1.1
				C122.3,352.9,122.3,352.9,122.2,352.9z"/>
		</g>
		<g>
			<path d="M90.2,334.2c-0.5,0-0.8-0.3-1.2-0.7c-0.2-0.4,0.2-0.9,0.8-1.2l12.3-3.1c2.2-0.5,4.3-1.1,6-2.1c2-1.3,3.3-3.2,4.5-4.9
				c2.3-3.3,5-7.3,7.7-11.1c2.7-4,5.3-7.8,7.7-11.1c0.3-0.4,1-0.7,1.7-0.4s0.8,0.8,0.5,1.3c-2.3,3.3-5,7.3-7.7,11.1
				c-2.7,4-5.3,7.8-7.7,11.1c-1.2,1.9-2.7,4.1-5.2,5.4c-2,1.3-4.5,1.9-6.7,2.4l-12.3,3.1C90.5,334.2,90.3,334.2,90.2,334.2z"/>
		</g>
		<g>
			<path d="M116.8,362.1c-6.8,0-23-1.6-35.8-14.6c-0.3-0.4-0.3-0.9,0.2-1.3c0.5-0.3,1.2-0.3,1.7,0.1c15.8,16.1,36.7,13.9,36.8,13.8
				c0.5-0.1,1.2,0.3,1.2,0.7c0.2,0.4-0.3,0.9-0.8,0.9C120,362,118.8,362.1,116.8,362.1z"/>
		</g>
		<g>
			<path d="M116.7,368.2L116.7,368.2c-0.8,0-21.5-0.1-38.2-17c-0.3-0.4-0.3-0.9,0.2-1.3c0.5-0.3,1.2-0.3,1.7,0.1
				c15.8,16.2,36.2,16.5,36.3,16.5c0.7,0,1.2,0.4,1.2,0.9C117.8,367.7,117.3,368.2,116.7,368.2z"/>
		</g>
		<g>
			<path d="M115.5,373.6L115.5,373.6c-0.8,0-23.2-0.3-39.8-17.1c-0.3-0.4-0.3-0.9,0.2-1.3c0.5-0.3,1.2-0.3,1.7,0.1
				c16,16.2,37.8,16.5,38,16.5c0.7,0,1.2,0.4,1.2,0.9C116.7,373.3,116.2,373.6,115.5,373.6z"/>
		</g>
		<g>
			<path d="M96,436c-0.8,0-1.7-0.4-2-0.9c-2.7-4.1-6.2-6.5-10.7-7.4c-9-1.9-18.7,3.3-18.8,3.5c-1,0.5-2.5,0.4-3.2-0.4
				c-0.7-0.8-0.5-2,0.5-2.5c0.5-0.3,11.5-6.1,22.3-3.8c5.8,1.2,10.3,4.2,13.7,9.2c0.5,0.9,0.2,2-0.8,2.4C96.8,435.9,96.5,436,96,436
				z"/>
		</g>
		<g>
			<path d="M117.3,358c-14.3,0-32-14.2-32.7-14.7c-0.5-0.4-0.5-0.9,0-1.3c0.5-0.4,1.2-0.4,1.7,0c0.2,0.1,18.5,15,32,14.2
				c0.7,0,1.2,0.4,1.2,0.8c0,0.5-0.5,0.9-1,0.9C118.2,358,117.8,358,117.3,358z"/>
		</g>
		<g>
			<path d="M268,333.6c-0.2,0-0.2,0-0.5-0.1c-0.5-0.1-0.8-0.7-0.7-1.2c4-8.4,14-17,25.7-21.8c0.5-0.3,1.2-0.1,1.7,0.4
				c0.3,0.4,0.2,0.9-0.5,1.3c-11.2,4.6-20.7,12.7-24.5,20.7C268.8,333.3,268.5,333.6,268,333.6z"/>
		</g>
		<g>
			<path d="M205.3,334.2c-0.5,0-0.8-0.1-1-0.5c-3.7-7.6-13-15-25.2-20c-0.5-0.3-0.8-0.8-0.5-1.3c0.3-0.4,1-0.7,1.7-0.4
				c12.5,5.2,22.3,13.1,26.2,21.1c0.2,0.4-0.2,0.9-0.7,1.2C205.5,334.2,205.5,334.2,205.3,334.2z"/>
		</g>
		<g>
			<path d="M226.6,368.2L226.6,368.2c-0.7,0-1.2-0.4-1.2-0.9c0.3-3.2-0.3-6.6-2-9.7c-0.2-0.4,0-0.9,0.5-1.2c0.5-0.1,1.2,0,1.5,0.4
				c1.7,3.2,2.5,6.9,2.2,10.5C227.8,367.8,227.3,368.2,226.6,368.2z"/>
		</g>
		<g>
			<path d="M245.3,368.2c-0.5,0-1.2-0.4-1.2-0.8c-0.3-3.5,0.5-7.2,2.2-10.5c0.2-0.4,0.8-0.7,1.5-0.4c0.7,0.3,0.8,0.7,0.5,1.2
				c-1.7,2.9-2.3,6.4-2,9.7C246.5,367.7,246,368.2,245.3,368.2L245.3,368.2z"/>
		</g>
		<g>
			<path d="M280.6,335c-0.5,0-0.8-0.1-1-0.5c-0.2-0.4,0-0.9,0.5-1.2c18.5-6.9,39.7-9.6,60-7.4c0.5,0.1,1,0.5,1,0.9s-0.7,0.8-1.2,0.8
				c-19.8-2-40.7,0.7-58.8,7.4C281,334.9,281,335,280.6,335z"/>
		</g>
		<g>
			<path d="M192.6,339c-0.2,0-0.3,0-0.5-0.1c-18.2-6.8-39-9.4-58.8-7.4c-0.5,0.1-1.2-0.3-1.2-0.8c-0.2-0.4,0.3-0.9,1-0.9
				c20.3-2.1,41.5,0.7,60,7.4c0.5,0.1,0.8,0.7,0.5,1.2C193.5,338.7,193.1,339,192.6,339z"/>
		</g>
		<g>
			<path d="M235.6,197.4c-1.7,0-3-1.1-3-2.4s1.3-2.4,3-2.4s3,1.1,3,2.4S237.1,197.4,235.6,197.4z M235.6,193c-1.3,0-2.5,0.9-2.5,2
				s1.2,2,2.5,2s2.5-0.9,2.5-2S237,193,235.6,193z"/>
		</g>
		<g>
			<path d="M175.8,177.9c-1.7,0-3-1.1-3-2.4c0-1.3,1.3-2.4,3-2.4s3,1.1,3,2.4C179,176.8,177.5,177.9,175.8,177.9z M175.8,173.5
				c-1.3,0-2.5,0.9-2.5,2c0,1.1,1.2,2,2.5,2s2.5-0.9,2.5-2C178.3,174.4,177.1,173.5,175.8,173.5z"/>
		</g>
		<g>
			<path d="M237.3,196.9C237.3,196.9,237.1,196.7,237.3,196.9l-3.7-3.5c0-0.1,0-0.1,0-0.1c0.2,0,0.2,0,0.2,0l3.5,3.5
				C237.5,196.7,237.5,196.7,237.3,196.9C237.5,196.9,237.3,196.9,237.3,196.9z"/>
		</g>
		<g>
			<path d="M177,177.6C177,177.6,176.8,177.6,177,177.6l-2.3-4.1c0-0.1,0-0.1,0.2-0.1s0.2,0,0.2,0.1l2.3,4
				C177.1,177.5,177.1,177.6,177,177.6L177,177.6z"/>
		</g>
		<g>
			<path d="M234.5,204.3c-51,0-92.3-33-92.3-73.5s41.5-73.5,92.3-73.5c51,0,92.3,33,92.3,73.5S285.1,204.3,234.5,204.3z M234.5,61
				c-48.3,0-87.7,31.3-87.7,69.8s39.3,69.8,87.7,69.8s87.7-31.3,87.7-69.8S282.8,61,234.5,61z"/>
		</g>
		<g>
			<path d="M234.5,189.2c-40.3,0-73.2-26.1-73.2-58.3s32.8-58.3,73.2-58.3c40.3,0,73.2,26.1,73.2,58.3S274.8,189.2,234.5,189.2z
				 M234.5,76c-38,0-68.7,24.6-68.7,54.7s30.8,54.7,68.7,54.7s68.7-24.6,68.7-54.7S272.1,76,234.5,76z"/>
		</g>
		<g>
			<path d="M231.6,69.5c-1.7,0-3-1.1-3-2.4s1.3-2.4,3-2.4s3,1.1,3,2.4S233.3,69.5,231.6,69.5z M231.6,64.9c-1.3,0-2.5,0.9-2.5,2
				c0,1.1,1.2,2,2.5,2c1.3,0,2.5-0.9,2.5-2C234.1,65.9,233,64.9,231.6,64.9z"/>
		</g>
		<g>
			<path d="M316.3,132.1c-1.7,0-3-1.1-3-2.4c0-1.3,1.3-2.4,3-2.4s3,1.1,3,2.4C319.3,130.9,318,132.1,316.3,132.1z M316.3,127.7
				c-1.3,0-2.5,0.9-2.5,2c0,1.1,1.2,2,2.5,2c1.3,0,2.5-0.9,2.5-2C318.8,128.6,317.6,127.7,316.3,127.7z"/>
		</g>
		<g>
			<path d="M152.3,138.6c-1.7,0-3-1.1-3-2.4s1.3-2.4,3-2.4s3,1.1,3,2.4C155.3,137.4,154,138.6,152.3,138.6z M152.3,134.2
				c-1.3,0-2.5,0.9-2.5,2s1.2,2,2.5,2c1.3,0,2.5-0.9,2.5-2S153.6,134.2,152.3,134.2z"/>
		</g>
		<g>
			<path d="M294.6,90.2c-1.7,0-3-1.1-3-2.4c0-1.3,1.3-2.4,3-2.4s3,1.1,3,2.4C297.6,89.1,296.3,90.2,294.6,90.2z M294.6,85.9
				c-1.3,0-2.5,0.9-2.5,2c0,1.1,1.2,2,2.5,2s2.5-0.9,2.5-2C297.1,86.8,296,85.9,294.6,85.9z"/>
		</g>
		<g>
			<path d="M297.3,173.6c-1.7,0-3-1.1-3-2.4s1.3-2.4,3-2.4s3,1.1,3,2.4S299,173.6,297.3,173.6z M297.3,169.1c-1.3,0-2.5,0.9-2.5,2
				s1.2,2,2.5,2s2.5-0.9,2.5-2S298.6,169.1,297.3,169.1z"/>
		</g>
		<g>
			<path d="M175.8,88c-1.7,0-3-1.1-3-2.4c0-1.3,1.3-2.4,3-2.4s3,1.1,3,2.4C179,87,177.5,88,175.8,88z M175.8,83.8
				c-1.3,0-2.5,0.9-2.5,2c0,1.1,1.2,2,2.5,2s2.5-0.9,2.5-2C178.3,84.7,177.1,83.8,175.8,83.8z"/>
		</g>
		<g>
			<path d="M295.6,173C295.6,173,295.5,173,295.6,173c-0.2-0.1-0.2-0.1-0.2-0.1l3.7-3.3c0-0.1,0.2-0.1,0.2,0c0.2,0,0.2,0.1,0,0.1
				L295.6,173C295.8,173,295.6,173,295.6,173z"/>
		</g>
		<g>
			<path d="M174,87.5L174,87.5c-0.2-0.1-0.2-0.1-0.2-0.1l3.7-3.3c0-0.1,0.2-0.1,0.2,0c0.2,0,0.2,0.1,0,0.1L174,87.5L174,87.5z"/>
		</g>
		<g>
			<path d="M231.3,69.2L231.3,69.2C231.1,69.2,231.1,69.2,231.3,69.2l0.5-4.4c0-0.1,0.2-0.1,0.2-0.1c0.2,0,0.2,0.1,0.2,0.1
				L231.3,69.2C231.5,69.2,231.5,69.2,231.3,69.2z"/>
		</g>
		<g>
			<path d="M297.1,89C297.1,89,297,89,297.1,89l-5-2.1c-0.2,0-0.2-0.1-0.2-0.1c0-0.1,0.2-0.1,0.2-0.1l4.8,2c0.2,0,0.2,0.1,0.2,0.1
				C297.1,89,297.1,89,297.1,89z"/>
		</g>
		<g>
			<path d="M149.5,136.3C149.3,136.3,149.3,136.3,149.5,136.3c-0.2-0.1-0.2-0.1,0-0.1l5.5-0.3c0.2,0,0.2,0,0.2,0.1
				c0,0.1,0,0.1-0.2,0.1L149.5,136.3L149.5,136.3z"/>
		</g>
		<g>
			<path d="M318,131.6C318,131.6,317.8,131.6,318,131.6l-3.3-3.6c0-0.1,0-0.1,0-0.1c0.2,0,0.2,0,0.2,0l3.3,3.5
				C318,131.4,318,131.4,318,131.6L318,131.6z"/>
		</g>
		<g>
			<path d="M392.8,211.1c-0.5,0-0.8-0.1-1-0.5c-0.2-0.4,0-0.9,0.5-1.2c7-2.5,12.3-5.7,16.5-9.7l1.2-1.2c3.7-3.6,7.5-7.4,13-9.4
				c2.3-0.8,6.5-2.1,9.2-1.3c0.5,0.1,0.8,0.7,0.7,1.2c-0.2,0.5-0.8,0.7-1.5,0.5c-1.7-0.4-5,0.4-7.5,1.3c-5,1.9-8.7,5.4-12.2,8.9
				l-1.2,1.2c-4.3,4.2-10,7.6-17.3,10.2C393.1,211.1,392.9,211.1,392.8,211.1z"/>
		</g>
		<g>
			<path d="M345.9,218.2L345.9,218.2c-16-0.3-31.2-3.1-45.3-8.5c-10.8-4.1-19.8-9-26.5-14.3c-0.5-0.4-0.5-0.9,0-1.3
				c0.5-0.4,1.2-0.4,1.7,0c6.5,5.2,15.2,10,25.8,13.9c13.8,5.2,28.8,8,44.3,8.2c0.7,0,1.2,0.4,1.2,0.9
				C346.9,217.8,346.6,218.2,345.9,218.2z"/>
		</g>
		<g>
			<path d="M77,210.3c-0.2,0-0.3,0-0.5-0.1c-6.3-2.5-11.5-5.7-15.3-9.6l-1.2-1.2c-3.5-3.5-7.2-7-12.2-8.9c-0.5-0.1-1.3-0.4-2.3-0.7
				c-0.5-0.1-0.8-0.7-0.7-1.2c0.2-0.4,0.8-0.7,1.5-0.5c1,0.3,2,0.7,2.5,0.8c5.5,2,9.3,5.7,12.8,9.4l1.2,1.2c3.7,3.7,8.7,6.6,14.7,9
				c0.5,0.1,0.8,0.7,0.5,1.2C77.8,210.1,77.5,210.3,77,210.3z"/>
		</g>
		<g>
			<path d="M123.8,218.2c-0.7,0-1.2,0-2,0c-0.7,0-1.2-0.4-1.2-0.9c0-0.5,0.5-0.9,1.2-0.9c16.8,0.1,33.5-2.7,48.3-8.2
				c10.7-4.1,19.3-8.8,25.8-13.9c0.5-0.4,1.2-0.4,1.7,0c0.5,0.4,0.5,0.9,0,1.3c-6.7,5.3-15.5,10.2-26.5,14.3
				C156.6,215.3,140.3,218.2,123.8,218.2z"/>
		</g>
	</g>
	<g id="LINEART">
		<g>
			<path d="M302.8,388.2c-0.2,0-0.5,0-0.8-0.1c-1.2-0.4-1.7-1.5-1.2-2.4c2.3-4.5,7.2-17,11.2-26.9l1.7-4.4c0.3-0.9,1.7-1.5,2.8-1.2
				c1.2,0.3,1.8,1.3,1.5,2.3l-1.7,4.4c-4.2,10.5-8.8,22.6-11.2,27.2C304.6,387.9,303.8,388.2,302.8,388.2z"/>
		</g>
		<g>
			<path d="M240.1,371.4c-0.5,0-0.8,0-1.2,0c-1.2-0.1-2.3-0.9-2.2-1.9c0.2-0.9,1.2-1.9,2.3-1.7h0.2c0.8,0,1.3,0.1,2-0.1
				c0.8-0.1,1.5-0.3,2.2-0.4c1.7-0.1,3-0.4,4.7-0.5c3.7-0.4,7.7-1.1,11.8-1.6c10.5-1.6,19.2-2.9,27-4.5c3.5-0.7,8.2-1.6,12.5-2.8
				c8.7-2.3,31.2-8.2,38.7-17l10-47.4c0.2-0.9,1.3-1.6,2.7-1.5c1.2,0.1,2,1.1,1.8,2.1l-10,47.8c0,0.3-0.2,0.4-0.3,0.7
				c-7,8.9-25.7,14.7-41.2,18.7c-4.7,1.3-9.3,2.1-12.8,2.9c-8,1.6-16.5,2.9-27.2,4.5c-4,0.7-8,1.2-11.8,1.6
				c-1.7,0.1-3.2,0.4-4.8,0.7c-0.5,0.1-1.2,0.1-1.8,0.3C241.5,371.4,240.8,371.4,240.1,371.4z"/>
		</g>
		<g>
			<path d="M237.8,371.4c-1,0-1.7-0.1-2.3-0.1c-0.5-0.1-1.2-0.1-1.8-0.3c-1.7-0.1-3.2-0.4-4.8-0.7c-3.8-0.4-7.8-1.1-11.8-1.6
				c-10.7-1.6-19.2-2.9-27.2-4.5c-3.7-0.7-8.3-1.6-12.8-2.9c-15.5-4.1-34.2-10-41.2-18.7c-0.2-0.1-0.2-0.4-0.3-0.7l-9.8-47.1
				c-0.2-0.9,0.7-1.9,1.8-2.1c1.2-0.1,2.3,0.5,2.7,1.5l9.8,46.7c7.2,8.8,30,14.7,38.7,17c4.5,1.2,9,2.1,12.5,2.8
				c7.8,1.6,16.3,2.9,27,4.5c4,0.5,8,1.2,11.8,1.6c1.7,0.1,3,0.4,4.7,0.5c0.7,0.1,1.3,0.1,2.2,0.4c0.2,0.1,0.8,0.1,2.5,0.1
				c1.2-0.1,2.3,0.7,2.3,1.7c0.2,0.9-0.8,1.9-2.2,1.9C238.6,371.4,238.1,371.4,237.8,371.4z"/>
		</g>
		<g>
			<path d="M176.5,388.2c-0.8,0-1.8-0.4-2.2-1.2l-0.7-1.6c-4.3-9.3-9.2-19.8-13-29.5c-0.3-0.9,0.3-2,1.5-2.3
				c1.2-0.3,2.5,0.3,2.8,1.2c3.7,9.7,8.7,20,12.8,29.3l0.7,1.6c0.5,0.9-0.2,2-1.3,2.4C177.1,388.2,176.8,388.2,176.5,388.2z"/>
		</g>
		<g>
			<path d="M236.8,395.7c-2.8,0-5.8-0.1-8.7-0.3c-4.8-0.3-9.5-0.7-14.2-1.1c-3-0.3-6.2-0.4-9.2-0.7c-9.5-0.7-18.7-2.9-28.8-5.4
				c-1.2-0.3-1.8-1.3-1.5-2.3c0.3-0.9,1.7-1.5,2.8-1.2c9.8,2.5,18.8,4.6,27.8,5.3c3,0.1,6.2,0.4,9.2,0.7c4.7,0.4,9.3,0.7,14,0.9
				c9.7,0.7,19.2,0,29.2-0.7l2.7-0.1c16.2-1.1,29.8-3.1,41.8-6.1c1.2-0.3,2.5,0.1,2.8,1.2c0.3,0.9-0.2,2-1.5,2.3
				c-12.3,3.1-26.3,5.2-42.8,6.4l-2.7,0.1C251.1,395.2,244,395.7,236.8,395.7z"/>
		</g>
		<g>
			<path d="M239.6,558L239.6,558c-0.8,0-1.7-0.4-2-1.1c-3-5.4-5.5-11.4-8-17.7c-3-7.4-6.2-15.1-10.5-22.2
				c-5.8-9.3-8.5-16.1-9.8-25.1c-0.5-3.6-0.3-8.4-0.2-13.4c0.2-5.2,0.3-10.9-0.2-15.3c-0.7,1.3-1.3,2.8-2.2,4.2
				c-2.7,5.2-5.5,10.8-5.5,14.2c0,0.8-0.5,1.5-1.5,1.7c-0.8,0.3-2,0-2.5-0.5c-11.5-11.1-9.7-21-7.8-30.7c-0.8,0.7-1.7,1.3-2.7,1.9
				c-2.3,1.6-3.5,2.4-3.7,4.4c-0.2,0.8-0.8,1.5-1.7,1.6c-1,0.1-2-0.1-2.5-0.9c-5.8-8-4.7-23.2-3.8-34.1c0.2-0.9,0.2-2,0.2-2.9
				c0.2-2.4-0.3-6.4-0.8-10.4c-1.3-10.2-3-21.6,3.2-26c0.8-0.7,2.3-0.5,3.2,0.1c0.8,0.7,0.7,1.9-0.2,2.5c-4.3,3.1-2.8,14.5-1.7,23
				c0.5,4.4,1.2,8.2,0.8,10.9c-0.2,0.9-0.2,1.9-0.2,2.9c-0.7,8.9-1.5,20.6,1.2,28.3c0.8-0.9,2-1.6,3-2.4c1.7-1.1,3.3-2.1,4.2-4
				c1.2-2.5,1.3-6.9,1.7-10.5c0-1.3,0.2-2.7,0.2-3.7c0.2-0.9,0.8-1.6,2-1.6c1.2-0.1,2.2,0.4,2.3,1.3c2.2,6.9,0.8,13.3-0.3,19.4
				c-1.7,8.2-3.3,16.2,3.5,24.8c1-3.3,3-7.2,4.8-10.9c2-3.7,3.7-7.2,4.5-10c0.2-0.7,1-1.3,2-1.5c1-0.1,2,0.4,2.3,1.1
				c3,5.2,2.7,14.2,2.3,22.8c-0.2,4.9-0.3,9.6,0.2,12.9c1.2,8.6,3.7,15,9.3,23.9c4.5,7.3,7.7,15.1,10.8,22.7c2,4.8,3.7,9.3,5.8,13.4
				c2-4.1,3.8-8.8,5.8-13.4c3-7.6,6.2-15.4,10.8-22.7c5.5-8.9,8.2-15.3,9.3-23.9c0.5-2.9,0.5-6.4,0.8-10c0.3-8.2,0.8-16.6,4-22.2
				c0.5-0.7,1.3-1.2,2.3-1.1c1,0.1,1.8,0.7,2,1.5c0.8,2.7,2.3,6,4,9.4c1.7,3.3,3.2,6.8,4.2,10c5-8.6,3-16.7,0.8-25.2
				c-1.7-6.9-3.3-13.9-1.2-21.1c0.2-0.9,1.2-1.5,2.3-1.3c1.2,0.1,2,0.8,2,1.6c0.2,2.8,2,6,3.7,8.9c0.5,1.1,1.2,2.1,1.7,3.2
				c0.8,1.9,2.3,3.2,3.7,4.8c0.8,0.9,1.8,2,2.7,3.1c2.5-7.7,1.7-19,1.2-27.7c-0.2-0.9-0.2-2-0.2-2.9c-0.2-2.7,0.3-6.5,0.8-10.9
				c1.2-8.4,2.7-19.8-1.7-22.8c-0.8-0.7-1-1.9-0.2-2.5c0.8-0.7,2.3-0.8,3.2-0.1c6.2,4.2,4.5,15.8,3.2,26c-0.5,4.1-1,8-0.8,10.4
				c0.2,0.9,0.2,1.9,0.2,2.9c0.8,11.1,1.8,26.1-3.8,34.1c-0.5,0.7-1.5,1.1-2.5,0.9c-1-0.1-1.7-0.8-1.7-1.6c-0.2-2.7-1.8-4.4-3.7-6.4
				c-1.5-1.6-3.2-3.3-4.2-5.6c-0.5-0.9-1-1.9-1.7-2.9c-0.2-0.1-0.2-0.4-0.3-0.7c0.3,3.5,1.2,6.9,2,10.4c2.5,10.2,5.2,21-4.8,32.4
				c-0.5,0.7-1.7,0.9-2.7,0.7c-0.8-0.3-1.7-0.9-1.7-1.7c0.2-3.5-2.3-8.9-4.8-14.1c-0.7-1.3-1.2-2.7-1.8-4c-1,4.6-1.2,10.1-1.7,15.3
				c-0.2,3.7-0.3,7.3-0.8,10.2c-1.2,9-4,15.8-9.8,25.1c-4.3,7-7.5,14.7-10.5,22.2c-2.5,6.4-5,12.3-8,17.8
				C241.5,557.6,240.6,558,239.6,558z"/>
		</g>
		<g>
			<path d="M380.8,287.6c-1,0-2-0.5-2.2-1.5s0.5-1.9,1.7-2.1l20.5-3.7c1.2-0.1,2.3,0.4,2.7,1.3c0.2,0.9-0.5,1.9-1.7,2.1l-20.5,3.7
				C381.1,287.6,381.1,287.6,380.8,287.6z"/>
		</g>
		<g>
			<path d="M343.6,326.3c-1,0-2-0.5-2.2-1.5s0.5-1.9,1.7-2.1l64.7-11.7c1.2-0.1,2.3,0.4,2.7,1.3c0.2,0.9-0.5,1.9-1.7,2.1l-64.7,11.7
				C343.9,326.1,343.8,326.3,343.6,326.3z"/>
		</g>
		<g>
			<g>
				<path d="M442.6,304.4c-1.2,0-0.8-1.2-0.7-1.9c0.2-1.2,0-2.7,1.2-3.5c0.3-0.3,1-0.4,1.5-0.7c1.2-0.7,2.7-1.2,3.8-1.9
					c3.7-1.6,7.2-3.3,10.8-4.9c8.7-4,17.2-8,25.7-11.8c5.5-2.5,11-5,16.3-7.6c0.2-0.1,0.3-0.1,0.5-0.3c3.3-1.6,4.5-5,2.7-7.7
					l-9.3-13c-2-2.7-6.3-3.6-9.7-2.1c-4.3,2.1-9,4.1-13.3,6.1c-8.7,4-17.2,8-25.8,11.8c-3.7,1.7-7.2,3.3-10.8,5
					c-1.2,0.5-2.5,1.2-3.7,1.7c-0.7,0.3-1.3,0.8-2.2,0.7c-1.7-0.1-6-2.7-3.5-3.6l56.5-26c3-1.3,6.5-1.7,9.8-0.9
					c3.3,0.7,6.2,2.4,8,4.8l9.3,13c3.7,4.9,1.5,11.3-4.8,14.2l-60.8,28C443.6,304.2,442.9,304.4,442.6,304.4z"/>
			</g>
		</g>
		<g>
			<path d="M119.5,358c-0.3,0-0.7-0.1-1-0.1c-1.2-0.4-1.7-1.6-1-2.4l16-24.8c0.5-0.9,2-1.3,3-0.8c1.2,0.4,1.7,1.6,1,2.4l-16,24.8
				C121.2,357.7,120.3,358,119.5,358z"/>
		</g>
		<g>
			<path d="M85.5,342.6c-0.3,0-0.7-0.1-1-0.1c-1.2-0.4-1.7-1.6-1-2.4l31-48.2c0.5-0.9,2-1.3,3-0.8c1.2,0.4,1.7,1.6,1,2.4l-30.8,48.2
				C87.3,342.3,86.5,342.6,85.5,342.6z"/>
		</g>
		<g>
			<g>
				<path d="M90.3,438c-0.8,0-1.5-0.1-2.3-0.1l-18.5-2.7c-3.3-0.4-6.5-2-8.3-4.2c-2-2.3-2.7-5-2.2-7.7l12.2-54.9
					c0.2-0.5,0.8-1.7,1.7-1.2c0.2,0.1,0.3,0.3,0.5,0.4c0.5,0.4,0.8,0.5,1.3,0.7c0.5,0.3,0.8,0.5,1,0.9c0,0.1,0,0.3,0,0.4
					c0.2,0.3,0.3,0.4,0.5,0.7c0.5,0.7,0,2-0.2,2.7c-0.8,3.3-1.5,6.8-2.3,10.1c-1,4.4-2,8.9-3,13.3c-1,4.4-2,8.9-3,13.4
					c-0.8,3.5-1.5,6.9-2.3,10.2c-0.3,1.3-0.5,2.7-0.8,4.1c-0.3,1.5,0.2,2.9,1.2,4.2c1.2,1.3,2.7,2.1,4.5,2.4l18.5,2.7
					c3.8,0.5,7.7-1.6,8.3-4.6c0.2-0.4,0.2-0.9,0.3-1.3c0.5-2.4,1-4.8,1.7-7.2c0.8-3.7,1.7-7.4,2.5-11.1c0.8-4.1,1.8-8.2,2.7-12.5
					c0.8-3.7,1.7-7.4,2.5-11c0.3-1.3,0.5-2.8,0.8-4.1c0.2-0.5,0.2-1.1,0.3-1.6c0.2-0.7,0.2-1.5,1.2-1.6c0.3-0.1,0.8,0,1.2-0.1
					c0.2,0,0.5-0.1,0.8-0.1c0.7-0.1,1.3-0.1,2.2-0.1c0.7,0,1.3-0.1,1.2,0.5L103,429.5C102,434.4,96.5,438,90.3,438z"/>
			</g>
		</g>
		<g>
			<path d="M235.8,359.2c-0.8,0-2,0-2.8-0.1c-8.2-0.7-14.2-2.9-20-7.7c-4.3-3.6-7.3-8.2-8.3-12.9c-0.8-4.5-0.3-10.4,1.5-14.2
				c1.7-3.7,4.5-7.2,8.2-9.7c9.2-6.9,22.8-8.8,34.7-4.8c5.7,1.9,10.7,4.9,14.2,8.9c4.3,4.8,6.2,9,6,14.7c-0.2,7.2-4.2,13.9-11,19
				C251.6,356.7,243.8,359.2,235.8,359.2z M236,309.4c-7.5,0-14.7,2.1-20.3,6.4c-3.3,2.5-6,5.7-7.7,9.2c-1.7,3.6-2.3,9-1.3,13.3
				c0.8,4.4,3.7,8.6,7.8,11.9c5.5,4.4,11.2,6.6,18.5,7.2c8.3,0.7,16.8-1.7,23.2-6.4c6.3-4.6,10-11,10.3-17.5l0,0
				c0.2-5.3-1.5-9.3-5.5-13.7c-3.3-3.6-8-6.4-13.2-8.2C244,310.1,240,309.4,236,309.4z"/>
		</g>
		<g>
			<path d="M321.8,295.9h-75.5c-1.2,0-2.3-0.8-2.3-1.9s1-1.9,2.3-1.9h75.5c8.5,0,17-0.9,25.3-2c1.8-0.1,3.7-0.4,5.5-0.7
				c2.3-0.3,4.7-0.4,7.2-0.5c6.8-0.4,14-0.7,18.5-3.7c1.3-0.9,2.8-3.5,3.3-4.2c2.2-3.7,4-7.2,4.3-11c0.2-1.1,0.3-2.1,0.5-2.9
				c0.2-0.9,0.5-2,0.5-3.2c0-1.6,0-2.7,0-4v-2.4c0-0.9,1-1.9,2.3-1.9c1.2,0,2.3,0.8,2.3,1.9v2.4c0,1.3,0,2.4,0,4s-0.3,2.9-0.7,4
				c-0.2,0.8-0.5,1.6-0.5,2.4c-0.3,4.6-2.7,8.5-4.8,12.2c-1.2,2-2.7,4.2-4.5,5.4c-5.8,3.8-14,4.1-21.2,4.5c-2.5,0.1-4.8,0.3-6.8,0.4
				c-1.8,0.1-3.7,0.4-5.3,0.7C339.3,294.8,330.5,295.9,321.8,295.9z"/>
		</g>
		<g>
			<path d="M344.6,262.6c-12.8,0-26-0.9-39.3-2.9l-2.7-0.4c-10-1.5-20.3-2.9-30.5-5.2c-6-1.3-11.2-2.7-16.2-4.4
				c-1.2-0.4-2.3-0.7-3.5-1.1c-3.2-0.9-6.5-1.9-9.3-3.5l-0.5-0.3c-1.7-0.9-3.5-1.9-5.2-2.9c-1.3,1.1-2.7,1.7-4,2.4
				c-0.5,0.3-1.2,0.5-1.8,0.9c-3,1.6-6.2,2.5-9.3,3.5c-1.2,0.4-2.3,0.7-3.5,1.1c-4.8,1.6-10.2,3.1-16.2,4.4
				c-10,2.1-20.3,3.7-30.5,5.2l-2.7,0.4c-15.2,2.1-30.3,3.2-45,2.8c-3-0.1-5.8-0.4-8.7-0.9c-2.7-0.4-5-0.7-7.7-0.8
				c-31.2-1.1-62.7-15-81.8-36.5c-0.5-0.7-0.5-1.6,0-2.1c0.3-0.4,0.8-0.7,1.3-0.7c-5.3-3.5-9.3-8-11.7-13c-0.2-0.7-0.2-1.3,0.5-1.9
				c0.7-0.5,1.3-0.7,2.2-0.5c2,0.4,3.8,0.4,5.8,0.1c-5.5-1.3-10.7-3.6-15.2-6.6c-0.7-0.4-1-1.2-0.8-1.9c0.2-0.7,0.8-1.2,1.7-1.3
				c11.5-1.9,20-4.2,27.2-7.6c4.3-2.1,12.5-6.4,16.3-12.5c2-3.2,2.5-7.2,3-11c0.2-1.9,0.5-3.7,0.8-5.4c0.8-4.2,2-8.4,3-12.3
				c11.3-40.3,29.8-66.4,56.3-79.5C121,66,125.1,64,129,62c13.2-6.8,25.5-13.1,41.2-17.8c21.8-6.4,40.3-10.2,56.3-11.4
				c12.5-0.9,26-0.1,41.7,2.7c6.5,1.2,13.3,2.7,20.7,4.5c24.2,6.1,44,16.1,65.2,26.5l3.3,1.6c26.7,13.1,45,39.2,56.3,79.5
				c1.2,4,2.2,8.1,3,12.3c0.3,1.9,0.5,3.6,0.8,5.4c0.5,3.8,0.8,7.8,3,11c3.8,6,11.8,10.4,16.3,12.5c7.2,3.3,15.7,5.7,27.2,7.6
				c0.8,0.1,1.7,0.7,1.7,1.3c0.2,0.7-0.2,1.3-0.8,1.9c-4.5,2.9-9.7,5.2-15.2,6.6c2,0.3,3.8,0.1,5.8-0.1c0.8-0.1,1.7,0.1,2.2,0.5
				c0.5,0.4,0.7,1.2,0.5,1.9c-2.3,5.2-6.5,9.7-11.7,13c0.5,0.1,1,0.4,1.3,0.7c0.5,0.7,0.5,1.6,0,2.1c-19.2,21.5-50.7,35.4-81.8,36.5
				c-2.7,0.1-5,0.4-7.7,0.8c-2.7,0.4-5.5,0.8-8.7,0.9C348.4,262.6,346.6,262.6,344.6,262.6z M233.3,219.6L233.3,219.6
				c1.3,0.1,2.3,0.9,2.3,1.9l-0.2,1.5c-0.3,4.6-0.8,10.2,2,13.7c1.8,2.3,4.8,3.8,7.8,5.4l0.5,0.3c2.5,1.3,5.5,2.3,8.5,3.1
				c1.2,0.4,2.5,0.7,3.7,1.1c4.8,1.6,9.8,2.9,15.7,4.1c9.8,2.1,20.2,3.6,30.2,5l2.7,0.4c15,2.1,29.7,3.1,44,2.8
				c2.7-0.1,5.2-0.4,8-0.8c2.7-0.4,5.3-0.8,8.2-0.9c28-0.9,56.2-12.7,74.7-31.2c-1.5,0.1-3,0.1-4.3-0.1c-1-0.1-1.8-0.7-2-1.6
				c-0.2-0.8,0.5-1.6,1.3-1.9c7.2-2.4,13.3-6.9,16.8-12.5c-4,0-8.2-0.9-11.5-2.8c-0.8-0.4-1.2-1.2-0.8-1.9c0.2-0.7,1-1.3,2-1.3
				c5.7-0.7,11.2-2.3,16-4.6c-9.5-1.9-17.2-4.1-23.7-7.2c-4.8-2.3-13.7-7.2-18-13.9c-2.3-3.8-3-8.1-3.3-12.2
				c-0.2-1.9-0.5-3.5-0.8-5.2c-0.8-4.1-2-8.2-3-12.2c-11-39.4-28.8-64.6-54.3-77.2l-3.3-1.6c-21-10.4-40.7-20-64.2-26
				c-7.3-1.9-14-3.3-20.3-4.5c-15-2.7-28.3-3.5-40.2-2.7c-15.5,1.3-33.7,4.9-55.2,11.3c-15.2,4.4-27.3,10.8-40.3,17.4
				c-4,2-8,4.1-12.2,6.2c-25.7,12.6-43.2,37.8-54.3,77.2c-1.2,3.8-2,8-3,12.2c-0.3,1.6-0.5,3.3-0.8,5.2c-0.5,4.1-1,8.5-3.3,12.2
				c-4.3,6.8-13.2,11.7-18,13.9c-6.5,3.1-14.2,5.3-23.7,7.2c4.8,2.4,10.3,4.1,16,4.6c0.8,0.1,1.7,0.7,2,1.3c0.3,0.7-0.2,1.5-0.8,1.9
				c-3.3,1.9-7.3,2.9-11.5,2.8c3.5,5.6,9.7,10.2,16.8,12.5c1,0.3,1.7,1.1,1.3,1.9c-0.2,0.8-1,1.5-2,1.6c-1.5,0.1-3,0.1-4.3,0.1
				c18.7,18.4,46.8,30.3,74.7,31.2c2.8,0.1,5.5,0.4,8.2,0.9c2.7,0.4,5.2,0.7,8,0.8c14.3,0.4,29.2-0.7,44-2.8l2.7-0.4
				c10-1.5,20.3-2.9,30.2-5c5.8-1.3,10.8-2.7,15.7-4.1c1.2-0.4,2.3-0.7,3.7-1.1c3-0.9,6-1.9,8.5-3.1c0.7-0.4,1.3-0.7,2-0.9
				c1.2-0.7,2.2-0.9,3.2-1.9c-0.3-0.4-0.5-0.7-0.8-0.9c-3.5-4.4-3-10.8-2.7-15.9l0.2-1.3C231,220.4,232,219.6,233.3,219.6z"/>
		</g>
		<g>
			<path d="M144.1,295.9c-3.7,0-7.3-0.3-11-0.5c-1.2-0.1-2.3-0.1-3.3-0.3c-6.3-0.4-12.2-1.7-18.2-2.9l-0.8-0.1
				c-1.5-0.3-3-0.5-4.5-0.8c-1.5-0.3-3.2-0.5-4.8-0.9c-6.3-1.3-10.3-3.7-13.2-8c-2.5-3.6-4-7.7-4.3-11.9c-0.2-0.9-0.2-1.6-0.5-2.4
				c-0.3-1.1-0.7-2.4-0.7-4c0-1.7,0-3.5,0-5v-2.5c0-0.9,1-1.9,2.3-1.9c1.3,0,2.3,0.8,2.3,1.9v2.5c0,1.7,0,3.5,0,5.2
				c0,1.2,0.2,2.1,0.5,3.2c0.2,0.9,0.5,1.9,0.5,2.9c0.3,3.6,1.7,7.3,3.8,10.4c2.3,3.2,5.3,5,10.3,6.1c1.5,0.4,3,0.5,4.5,0.8
				c1.7,0.3,3.2,0.5,4.8,0.9l0.8,0.1c5.8,1.3,11.5,2.4,17.5,2.9c1.2,0.1,2.3,0.1,3.3,0.3c3.7,0.3,7.5,0.5,11,0.5c2,0,4,0,5.8,0h2
				h93.7c1.2,0,2.3,0.8,2.3,1.9c0,1.1-1,1.9-2.3,1.9h-95.7c-2,0-4,0-5.8,0C144.5,295.9,144.5,295.9,144.1,295.9z"/>
		</g>
		<g>
			<path d="M85,100.1c-0.2,0-0.2,0-0.3,0c-1.2-0.1-2.2-0.9-2-2L98.3-2.4c0.2-0.9,1.2-1.7,2.5-1.6c1.2,0.1,2.2,0.9,2,2L87.2,98.5
				C87.2,99.4,86.2,100.1,85,100.1z"/>
		</g>
		<g>
			<path d="M371.9,81.4c-0.2,0-0.2,0-0.2,0c-1.2-0.1-2.2-0.9-2-2l4.3-34.5c0-0.3,0.2-0.5,0.3-0.7c1.2-1.7,2.5-3.5,3.7-5
				c5.8-8,11.8-16.2,18.3-24l-90.2,32.1c-1.2,0.4-2.5,0-3-0.9s0-2,1.2-2.4l96.3-34.4c0.8-0.3,1.7-0.1,2.3,0.3s0.8,1.2,0.7,1.9
				c-0.7,1.9-2,3.3-3.2,4.8c-6.7,7.8-12.8,16.2-18.7,24.3c-1.2,1.6-2.3,3.2-3.5,4.8l-4.3,34.1C373.9,80.7,373.1,81.4,371.9,81.4z"/>
		</g>
		<g>
			<path d="M402.9,124.5c-1.2,0-2.3-0.8-2.3-1.9l-1.3-111.5c0-0.9,1-1.9,2.3-1.9l0,0c1.2,0,2.3,0.8,2.3,1.9l1.3,111.5
				C405.1,123.6,404.3,124.5,402.9,124.5L402.9,124.5z"/>
		</g>
		<g>
			<path d="M316.3,52.2c-1.2,0-2.2-0.7-2.3-1.6s0.8-1.9,2-2l60.2-5.3c1.2-0.1,2.3,0.7,2.5,1.6c0.2,0.9-0.8,1.9-2,2l-60.2,5.3H316.3z
				"/>
		</g>
		<g>
			<path d="M130.1,65.3c-1.2,0-2.2-0.7-2.3-1.6l-4-31.6c-1.2-1.6-2.3-3.2-3.5-4.8c-5.8-8.1-12-16.5-18.7-24.3
				c-1.2-1.3-2.5-2.9-3.2-4.8c-0.2-0.7,0-1.5,0.8-1.9c0.7-0.4,1.7-0.5,2.7-0.1l90.5,42.9c1,0.5,1.5,1.6,0.8,2.4
				c-0.7,0.8-2,1.2-3,0.7L107.2,2.8c6.2,7.4,11.8,15.3,17.3,22.7c1.2,1.7,2.5,3.5,3.7,5c0.2,0.1,0.2,0.4,0.3,0.7l4,31.9
				c0.2,0.9-0.8,1.9-2,2C130.3,65.3,130.3,65.3,130.1,65.3z"/>
		</g>
		<g>
			<path d="M191.3,42.5c-0.2,0-0.2,0-0.3,0l-65.3-9.2c-1.2-0.1-2-1.1-1.8-2.1c0.2-0.9,1.3-1.6,2.7-1.5l65.3,9.2
				c1.2,0.1,2,1.1,1.8,2.1C193.5,41.8,192.5,42.5,191.3,42.5z"/>
		</g>
		<g>
			<path d="M241,19.5L241,19.5c-1.3,0-2.3-0.9-2.3-1.9l2-45.9c0-0.9,1.2-1.9,2.3-1.7c1.2,0,2.3,0.9,2.2,1.9l-2,45.9
				C243.1,18.8,242.1,19.5,241,19.5z"/>
		</g>
		<g>
			<path d="M100.7,233.8c-14,0-25.2-9-25.2-20c0-11,11.3-20,25.2-20s25.2,9,25.2,20C126,224.7,114.7,233.8,100.7,233.8z
				 M100.7,197.3c-11.5,0-20.7,7.4-20.7,16.5c0,9.2,9.3,16.5,20.7,16.5s20.7-7.4,20.7-16.5C121.5,204.6,112.2,197.3,100.7,197.3z"/>
		</g>
		<g>
			<path d="M100.7,226.7c-9,0-16.3-5.8-16.3-13c0-7.2,7.3-13,16.3-13c9,0,16.3,5.8,16.3,13C117.2,220.9,109.8,226.7,100.7,226.7z
				 M100.7,201c-8.8,0-16,5.7-16,12.7s7.2,12.7,16,12.7s16-5.7,16-12.7C116.8,206.7,109.7,201,100.7,201z"/>
		</g>
		<g>
			<path d="M368.4,233.8c-14,0-25.2-9-25.2-20c0-11,11.3-20,25.2-20c14,0,25.2,9,25.2,20C393.6,224.7,382.3,233.8,368.4,233.8z
				 M368.4,197.3c-11.5,0-20.7,7.4-20.7,16.5c0,9.2,9.3,16.5,20.7,16.5c11.5,0,20.7-7.4,20.7-16.5
				C389.1,204.7,379.8,197.3,368.4,197.3z"/>
		</g>
		<g>
			<path d="M368.4,226.7c-9,0-16.3-5.8-16.3-13c0-7.2,7.3-13,16.3-13c9,0,16.3,5.8,16.3,13C384.8,220.9,377.4,226.7,368.4,226.7z
				 M368.4,201c-8.8,0-16,5.7-16,12.7s7.2,12.7,16,12.7s16-5.7,16-12.7S377.3,201,368.4,201z"/>
		</g>
		<g>
			<path d="M232.3,221.7c-2.3,0-4.3-0.7-6.2-1.7c-1.5-0.9-2.3-2.4-2.8-4.4c-0.2-0.7-0.3-1.6,0-2.4c0.5-1.3,1.7-2.3,3.3-2.8
				c1.2-0.4,2.5-0.4,3.7-0.5l6.8-0.4c0.8-0.1,3-0.1,4.3,0.9c0.5,0.4,1,1.2,1.2,1.9c0.7,3.3-1.2,6.6-5.2,8.2
				C235.8,221.3,234,221.7,232.3,221.7z M238,212.9c-0.2,0-0.3,0-0.5,0l-6.8,0.4c-0.8,0.1-1.7,0.1-2.3,0.3c-0.5,0.1-0.7,0.4-0.7,0.4
				s0,0.4,0.2,0.7c0.2,1.1,0.7,1.9,1.3,2.3c2,1.3,4.7,0.9,6.2,0.3C236.8,216.6,238.5,215,238,212.9
				C238.1,212.9,238.1,212.9,238,212.9z"/>
		</g>
		<g>
			<path d="M190.8,295.9c-0.7,0-1.3-0.3-1.8-0.7c-4-4.4-6-9.6-8-14.5l-0.2-0.4c-1-2.4-2-4.9-2.7-7.4c-1.5-5.8-1-11-0.5-16.6
				c0.2-0.9,1.2-1.7,2.5-1.6c1.2,0.1,2.2,0.9,2,2c-0.5,5.4-1,10.2,0.3,15.7c0.5,2.4,1.7,4.6,2.5,6.9l0.2,0.4c2,4.9,3.8,9.4,7.5,13.4
				c0.7,0.8,0.5,1.9-0.5,2.5C191.6,295.7,191.3,295.9,190.8,295.9z"/>
		</g>
		<g>
			<path d="M284.5,295.9c-0.5,0-0.8-0.1-1.3-0.4c-1-0.5-1.2-1.7-0.5-2.5c3.7-4,5.5-8.6,7.5-13.4l0.2-0.4c0.8-2.3,2-4.6,2.5-6.9
				c1.3-5.4,1-10.1,0.3-15.5c-0.2-0.9,0.8-1.9,2-2c1.2-0.1,2.3,0.7,2.5,1.6c0.7,5.7,1,10.6-0.5,16.5c-0.7,2.5-1.7,5-2.7,7.4
				l-0.2,0.4c-2,4.9-4,10-8,14.5C286,295.6,285.1,295.9,284.5,295.9z"/>
		</g>
		<g>
			<path d="M275,40.5c-1.2,0-2.3-0.8-2.3-1.9c0-10.5-14.5-19.2-31.7-19.2c-17.8,0-31.7,7.8-31.7,17.9c0,0.9-1,1.9-2.3,1.9
				s-2.3-0.8-2.3-1.9c0-12.1,16-21.5,36.2-21.5c19.7,0,36.2,10.5,36.2,23C277.1,39.7,276.1,40.5,275,40.5z"/>
		</g>
		<g>
			<ellipse cx="243" cy="-36.3" rx="10.3" ry="8.2"/>
		</g>
		<g>
			<path class="st17" d="M236.5,351.1c-11.2,0-20.7-6.4-22.7-15l0.8-0.1c2,8.4,11,14.5,21.7,14.5c10.8,0,20-6.1,21.7-14.5l0.8,0.1
				C257,344.8,247.5,351.1,236.5,351.1z"/>
		</g>
		<g>
			<path class="st17" d="M258,329.1c-2.3-8-11.3-13.8-21.7-13.8s-19.3,5.7-21.7,13.8l-0.8-0.1c2.3-8.2,11.8-14.3,22.3-14.3
				c10.8,0,20.2,6.1,22.3,14.3L258,329.1z"/>
		</g>
		<g>
			<path class="st17" d="M236.5,345.6c-7.2,0-13.7-3.8-15.5-9.4c-2,0-12.5,0-12.5,0H208v-7.7h13.2c2.3-5.2,8.3-8.6,15.3-8.6
				s13,3.5,15.3,8.6h12.8v7.7H252C250,341.9,243.6,345.6,236.5,345.6z M221.6,336c1.8,5.3,7.8,9,14.8,9c6.8,0,13-3.8,14.8-9.2
				l0.2-0.3H264v-6.4h-12.7l-0.2-0.1c-2-5-8-8.4-14.7-8.4s-12.5,3.5-14.7,8.4l-0.2,0.3h-12.8v6.4h5.8
				C221.3,335.7,221.6,335.7,221.6,336z"/>
		</g>
	</g>
</g>
</svg>
