<?xml version="1.0" encoding="utf-8"?>
<!-- Generator: Adobe Illustrator 27.3.1, SVG Export Plug-In . SVG Version: 6.00 Build 0)  -->
<svg version="1.1" id="Layer_1" xmlns="http://www.w3.org/2000/svg" xmlns:xlink="http://www.w3.org/1999/xlink" x="0px" y="0px"
	 viewBox="0 0 304 182" style="enable-background:new 0 0 304 182;" xml:space="preserve">
<style type="text/css">
	.st0{fill:#EA4335;}
	.st1{fill:#4285F4;}
	.st2{fill:#34A853;}
	.st3{fill:#FBBC05;}
	.st4{fill:#FFFFFF;}
</style>
<g>
	<path class="st0" d="M164.5,44.9l3,0.1l8.1-8.1l0.4-3.4c-6.5-5.8-15-9.3-24.3-9.3c-16.9,0-31.1,11.5-35.3,27
		c0.9-0.6,2.8-0.2,2.8-0.2l16.3-2.7c0,0,0.8-1.4,1.3-1.3C143.9,39.1,156.1,38.2,164.5,44.9L164.5,44.9z"/>
	<path class="st1" d="M187,51.2c-1.9-6.9-5.7-13.1-11-17.8l-11.5,11.5c4.8,3.8,7.6,9.7,7.6,15.8v2c5.6,0,10.2,4.6,10.2,10.2
		c0,5.6-4.6,10.2-10.2,10.2h-20.3l-2,2v12.2l2,2h20.3c14.6,0,26.4-11.8,26.4-26.4C198.4,63.9,193.9,55.9,187,51.2L187,51.2z"/>
	<path class="st2" d="M131.4,99.3h20.3V83.1h-20.3c-1.4,0-2.9-0.3-4.2-0.9l-2.9,0.9l-8.1,8.1l-0.7,2.7
		C120,97.5,125.6,99.4,131.4,99.3L131.4,99.3z"/>
	<path class="st3" d="M131.4,46.5c-14.6,0-26.4,11.8-26.4,26.4c0,8.3,3.9,16.1,10.5,21l11.8-11.8c-3.6-1.6-6-5.3-6-9.3
		c0-5.6,4.6-10.2,10.2-10.2c4,0,7.6,2.3,9.3,6L152.4,57C147.6,50.6,140,46.5,131.4,46.5L131.4,46.5z"/>
	<path class="st4" d="M26.1,150.6c-5.5,0-10.3-2-14.3-5.9s-6-8.6-6-14.2c0-5.5,2-10.2,6-14.2c4-3.9,8.8-5.9,14.3-5.9
		c5.1-0.1,10.1,1.9,13.7,5.5l-3.9,3.9c-2.6-2.6-6.2-4-9.9-3.9c-4,0-7.4,1.4-10.2,4.3c-2.7,2.7-4.3,6.5-4.2,10.3
		c0,4,1.4,7.5,4.2,10.3c2.7,2.8,6.4,4.3,10.2,4.3c4.1,0,7.4-1.3,10.1-4c1.6-1.6,2.6-3.9,3-6.9H26.1v-5.5h18.4c0.2,1,0.3,2.1,0.3,3.4
		c0,5.4-1.6,9.6-4.7,12.8C36.4,148.7,31.8,150.6,26.1,150.6L26.1,150.6z M68.9,146.9c-2.5,2.5-5.6,3.7-9.2,3.7
		c-3.6,0-6.7-1.2-9.2-3.7c-2.5-2.4-3.8-5.5-3.8-9.2s1.3-6.8,3.8-9.2c2.5-2.5,5.6-3.7,9.2-3.7c3.6,0,6.7,1.2,9.2,3.7
		c2.5,2.4,3.8,5.5,3.8,9.2S71.4,144.5,68.9,146.9z M54.6,143.3c1.3,1.4,3.2,2.2,5.1,2.2c2,0,3.7-0.7,5.1-2.2s2.2-3.4,2.2-5.6
		c0-2.3-0.7-4.2-2.1-5.6c-1.4-1.5-3.1-2.2-5.2-2.2c-2,0-3.8,0.8-5.2,2.2c-1.4,1.5-2.1,3.3-2.1,5.6C52.4,139.9,53.1,141.8,54.6,143.3
		L54.6,143.3z M97.2,146.9c-2.5,2.5-5.6,3.7-9.2,3.7s-6.7-1.2-9.2-3.7c-2.5-2.4-3.8-5.5-3.8-9.2s1.3-6.8,3.8-9.2
		c2.5-2.5,5.6-3.7,9.2-3.7s6.7,1.2,9.2,3.7c2.5,2.4,3.8,5.5,3.8,9.2S99.7,144.5,97.2,146.9z M82.8,143.3c1.3,1.4,3.2,2.2,5.1,2.2
		c2,0,3.7-0.7,5.1-2.2s2.2-3.4,2.2-5.6c0-2.3-0.7-4.2-2.1-5.6c-1.4-1.5-3.1-2.2-5.2-2.2c-2,0-3.8,0.8-5.2,2.2
		c-1.4,1.5-2.1,3.3-2.1,5.6C80.7,139.9,81.4,141.8,82.8,143.3L82.8,143.3z M115.8,162.2c-2.9,0-5.3-0.8-7.2-2.3
		c-2-1.5-3.4-3.3-4.2-5.3l4.9-2c0.5,1.2,1.3,2.3,2.4,3.2c1.1,0.9,2.5,1.4,4.1,1.4c2.2,0,3.8-0.7,5.1-2c1.2-1.3,1.8-3.2,1.8-5.6v-1.8
		h-0.2c-1.6,2-3.9,2.9-6.8,2.9c-3.3,0-6.2-1.3-8.7-3.8c-2.4-2.4-3.8-5.7-3.7-9.1c-0.1-3.4,1.3-6.7,3.7-9.2c2.5-2.5,5.4-3.8,8.7-3.8
		c1.5,0,2.8,0.3,4,0.8c1.2,0.6,2.1,1.2,2.8,2h0.2v-2.1h5.4v23.2c0,4.5-1.1,7.9-3.5,10.1C122.3,161.1,119.4,162.3,115.8,162.2
		L115.8,162.2z M116.2,145.5c1.9,0,3.7-0.8,4.9-2.2c1.3-1.5,2-3.3,2-5.6c0-2.2-0.7-4.1-2-5.6c-1.2-1.5-3-2.3-4.9-2.2
		c-2,0-3.7,0.8-5.1,2.2c-1.4,1.5-2.1,3.4-2.1,5.6c0,2.2,0.7,4.1,2.1,5.6C112.5,144.8,114.2,145.5,116.2,145.5L116.2,145.5z
		 M137.6,111.8v38H132v-38H137.6z M153.2,150.6c-3.7,0-6.7-1.2-9.1-3.7s-3.7-5.5-3.7-9.2c0-3.8,1.2-6.9,3.5-9.3
		c2.2-2.4,5.4-3.7,8.6-3.6c1.6,0,3,0.3,4.4,0.9c1.2,0.5,2.4,1.3,3.3,2.2c0.8,0.8,1.5,1.7,2.1,2.6c0.5,0.8,0.9,1.7,1.3,2.5l0.6,1.5
		l-17.3,7.2c1.3,2.6,3.4,3.9,6.3,3.9c2.6,0,4.7-1.2,6.4-3.6l4.4,2.9c-1,1.5-2.4,2.8-4.2,4C158,150,155.8,150.6,153.2,150.6
		L153.2,150.6z M146,137.3l11.5-4.8c-0.3-0.8-0.9-1.5-1.8-2c-0.9-0.5-1.9-0.8-3-0.8c-1.7,0-3.2,0.7-4.7,2S145.9,135,146,137.3
		L146,137.3z M194,150.6c-5.2,0-9.5-1.7-13-5.2c-3.5-3.5-5.2-7.8-5.2-13.1c0-5.2,1.7-9.6,5.2-13.1c3.5-3.5,7.8-5.2,13-5.2
		c5.3,0,9.6,1.9,12.9,5.7l-3.1,3c-2.4-3-5.6-4.5-9.7-4.5c-3.8,0-7,1.3-9.7,3.9c-2.7,2.6-3.9,5.9-3.9,10.1c0,4.2,1.3,7.5,3.9,10.1
		c2.6,2.6,5.8,3.9,9.7,3.9c4.2,0,7.8-1.7,10.7-5.1l3.1,3.1c-1.6,2-3.7,3.5-6,4.6C199.3,150,196.7,150.6,194,150.6L194,150.6z
		 M216.4,149.8h-4.5v-35h4.5V149.8z M223.7,128.7c2.3-2.4,5.2-3.6,8.9-3.6s6.5,1.2,8.9,3.6c2.3,2.4,3.5,5.5,3.5,9.1
		s-1.2,6.7-3.5,9.1c-2.3,2.4-5.2,3.6-8.9,3.6c-3.6,0-6.5-1.2-8.9-3.6c-2.3-2.4-3.5-5.5-3.5-9.1S221.4,131.1,223.7,128.7z
		 M227.1,144.1c1.6,1.6,3.4,2.4,5.5,2.4c2.1,0,3.9-0.8,5.5-2.4c1.6-1.6,2.3-3.7,2.3-6.3c0-2.6-0.8-4.7-2.3-6.3
		c-1.5-1.6-3.4-2.4-5.5-2.4c-2.1,0-3.9,0.8-5.5,2.4c-1.6,1.6-2.3,3.7-2.3,6.3C224.7,140.4,225.5,142.5,227.1,144.1z M269.8,149.8
		h-4.3v-3.3h-0.2c-0.7,1.1-1.7,2.1-3.1,2.9c-1.4,0.8-2.9,1.2-4.5,1.2c-3,0-5.3-0.9-6.8-2.7c-1.5-1.8-2.3-4.3-2.3-7.3v-14.7h4.5v13.9
		c0,4.5,2,6.7,5.9,6.7c1.8,0,3.5-0.8,4.5-2.2c1.2-1.5,1.8-3.3,1.8-5.2v-13.2h4.5L269.8,149.8L269.8,149.8z M285,150.6
		c-3.1,0-5.8-1.2-8-3.7s-3.4-5.5-3.4-9.1s1.1-6.7,3.4-9.1s4.9-3.7,8-3.7c1.8,0,3.5,0.4,4.9,1.2s2.5,1.8,3.3,2.9h0.2l-0.2-3.3v-11
		h4.5v35h-4.3v-3.3h-0.2c-0.7,1.2-1.8,2.2-3.3,2.9C288.5,150.2,286.9,150.6,285,150.6L285,150.6z M285.8,146.5c2.1,0,4-0.8,5.4-2.3
		c1.5-1.6,2.2-3.7,2.2-6.3s-0.7-4.7-2.2-6.3c-1.4-1.5-3.4-2.4-5.4-2.3c-2.1,0-3.9,0.8-5.4,2.4c-1.5,1.6-2.2,3.7-2.2,6.3
		s0.7,4.7,2.2,6.3C281.8,145.7,283.7,146.5,285.8,146.5L285.8,146.5z"/>
</g>
</svg>
