<?xml version="1.0" encoding="utf-8"?>
<!-- Generator: Adobe Illustrator 27.3.1, SVG Export Plug-In . SVG Version: 6.00 Build 0)  -->
<svg version="1.1" id="Layer_1" xmlns:serif="http://www.serif.com/"
	 xmlns="http://www.w3.org/2000/svg" xmlns:xlink="http://www.w3.org/1999/xlink" x="0px" y="0px" viewBox="0 0 1200 1200"
	 style="enable-background:new 0 0 1200 1200;" xml:space="preserve">
<style type="text/css">
	.st0{fill:#009A49;}
</style>
<path class="st0" d="M1021.8,59.8H173.2c-63.9,0-115.7,51.8-115.7,115.5v847.3c0,63.8,51.8,115.5,115.7,115.5h848.6
	c63.9,0,115.7-51.8,115.7-115.5V175.4C1137.5,111.6,1085.7,59.8,1021.8,59.8z M726,983.4c-20.2,3.6-27.7-8.9-27.7-19.3
	c0-13,0.5-79.4,0.5-133.1c0-37.6-12.5-61.4-27.2-73.9c89.2-9.9,183.2-22.1,183.2-176c0-43.8-15.7-65.7-41.2-93.9
	c4.1-10.4,17.8-53-4.1-108.3C776,368.5,699.3,422,699.3,422c-31.8-8.9-66.3-13.5-100.3-13.5s-68.5,4.6-100.3,13.5
	c0,0-76.7-53.4-110.2-43.1c-21.9,55.1-8.4,97.7-4.1,108.3c-25.6,28.2-37.6,50.1-37.6,93.9c0,153.1,89.9,166.1,179.1,176
	c-11.6,10.4-21.9,28.2-25.6,53.7c-22.9,10.4-81.5,28.2-116.4-33.5c-21.9-38-61.5-41.2-61.5-41.2c-39.1-0.5-2.7,24.6-2.7,24.6
	c26,12,44.4,58.3,44.4,58.3c23.4,71.5,135.2,47.4,135.2,47.4c0,33.5,0.5,87.9,0.5,97.7c0,10.4-7.2,22.9-27.7,19.3
	C313,930.2,201.6,779,201.6,602.4c0-221,169.2-388.7,390.5-388.7s400.7,167.8,400.7,388.7C993.1,779.1,885.1,930.5,726,983.4z
	 M489.5,836.4c-4.6,1-8.9-1-9.4-4.1c-0.5-3.6,2.7-6.7,7.2-7.7c4.6-0.5,8.9,1.4,9.4,4.6C497.5,832.3,494.3,835.4,489.5,836.4
	L489.5,836.4z M466.6,834.2c0,3.1-3.6,5.8-8.4,5.8c-5.3,0.5-8.9-2.2-8.9-5.8c0-3.1,3.6-5.8,8.4-5.8
	C462.3,827.9,466.6,830.6,466.6,834.2z M433.6,831.5c-1,3.1-5.8,4.6-9.9,3.1c-4.6-1-7.7-4.6-6.8-7.7c1-3.1,5.8-4.6,9.9-3.6
	C431.6,824.8,434.8,828.4,433.6,831.5L433.6,831.5z M403.9,818.5c-2.2,2.6-6.8,2.2-10.4-1.4c-3.6-3.1-4.6-7.7-2.2-9.9
	c2.2-2.6,6.8-2.2,10.4,1.4C404.9,811.8,406.1,816.6,403.9,818.5z M382,796.6c-2.2,1.4-6.3,0-8.9-3.6c-2.7-3.6-2.7-7.7,0-9.4
	c2.7-2.2,6.8-0.5,8.9,3.1C384.6,790.4,384.6,794.7,382,796.6z M366.3,773.3c-2.2,2.2-5.8,1-8.4-1.4c-2.7-3.1-3.1-6.7-1-8.4
	c2.2-2.2,5.8-1,8.4,1.4C368,768,368.5,771.6,366.3,773.3z M350.2,755.5c-1,2.2-4.1,2.6-6.8,1c-3.1-1.4-4.6-4.1-3.6-6.3
	c1-1.4,3.6-2.2,6.8-1C349.7,750.9,351.1,753.6,350.2,755.5z"/>
</svg>
