<?xml version="1.0" encoding="utf-8"?>
<!-- Generator: Adobe Illustrator 27.3.1, SVG Export Plug-In . SVG Version: 6.00 Build 0)  -->
<svg version="1.1" id="Layer_1" xmlns:serif="http://www.serif.com/"
	 xmlns="http://www.w3.org/2000/svg" xmlns:xlink="http://www.w3.org/1999/xlink" x="0px" y="0px" viewBox="0 0 1200 1200"
	 style="enable-background:new 0 0 1200 1200;" xml:space="preserve">
<style type="text/css">
	.st0{fill-rule:evenodd;clip-rule:evenodd;fill:#009A49;}
</style>
<path class="st0" d="M1005.1,59.3c72.8,0,131.9,59.1,131.9,131.9v816.1c0,72.8-59.1,131.9-131.9,131.9H189
	c-72.8,0-131.9-59.1-131.9-131.9v-816c-0.1-72.8,59-132,131.9-132H1005.1L1005.1,59.3z M597,230.2c-100.3,0-112.8,0.4-152.2,2.2
	c-39.3,1.8-66.1,8-89.6,17.2c-24.3,9.4-44.9,22.1-65.4,42.6s-33.1,41.1-42.6,65.4c-9.1,23.5-15.4,50.3-17.2,89.6
	c-1.8,39.4-2.2,51.9-2.2,152.2s0.4,112.8,2.2,152.2c1.8,39.3,8,66.1,17.2,89.6c9.4,24.3,22.1,44.9,42.6,65.4s41.1,33.1,65.4,42.6
	c23.5,9.1,50.3,15.4,89.6,17.2c39.4,1.8,51.9,2.2,152.2,2.2s112.8-0.4,152.2-2.2c39.3-1.8,66.1-8,89.6-17.2
	c24.3-9.4,44.9-22.1,65.4-42.6s33.1-41.1,42.6-65.4c9.1-23.5,15.4-50.3,17.2-89.6c1.8-39.4,2.2-51.9,2.2-152.2s-0.4-112.8-2.2-152.2
	c-1.8-39.3-8-66.1-17.2-89.6c-9.4-24.3-22.1-44.9-42.6-65.4s-41.1-33.1-65.4-42.6c-23.5-9.1-50.3-15.4-89.6-17.2
	C709.8,230.6,697.3,230.2,597,230.2L597,230.2z M597,296.7c98.6,0,110.2,0.4,149.2,2.2c36,1.6,55.5,7.7,68.5,12.7
	c17.2,6.7,29.5,14.7,42.4,27.6s20.9,25.2,27.6,42.4c5.1,13,11.1,32.6,12.7,68.5c1.8,38.9,2.2,50.6,2.2,149.2s-0.4,110.2-2.2,149.2
	c-1.6,36-7.7,55.5-12.7,68.5c-6.7,17.2-14.7,29.5-27.6,42.4c-12.9,12.9-25.2,20.9-42.4,27.6c-13,5.1-32.6,11.1-68.5,12.7
	c-38.9,1.8-50.6,2.2-149.2,2.2s-110.2-0.4-149.2-2.2c-36-1.6-55.5-7.7-68.5-12.7c-17.2-6.7-29.5-14.7-42.4-27.6
	C324,846.5,316,834.2,309.3,817c-5.1-13-11.1-32.6-12.7-68.5c-1.8-38.9-2.2-50.6-2.2-149.2s0.4-110.2,2.2-149.2
	c1.6-36,7.7-55.5,12.7-68.5c6.7-17.2,14.7-29.5,27.6-42.4s25.2-20.9,42.4-27.6c13-5.1,32.6-11.1,68.5-12.7
	C486.8,297.1,498.4,296.7,597,296.7L597,296.7z M597,409.8c-104.7,0-189.6,84.9-189.6,189.6S492.3,788.9,597,788.9
	S786.6,704,786.6,599.3S701.7,409.8,597,409.8L597,409.8z M597,722.4c-68,0-123-55.1-123-123s55.1-123,123-123s123,55.1,123,123
	S665,722.4,597,722.4z M838.3,402.3c0,24.5-19.8,44.3-44.3,44.3s-44.3-19.8-44.3-44.3S769.5,358,794,358S838.3,377.8,838.3,402.3
	L838.3,402.3z"/>
</svg>
