<?xml version="1.0" encoding="utf-8"?>
<!-- Generator: Adobe Illustrator 27.3.1, SVG Export Plug-In . SVG Version: 6.00 Build 0)  -->
<svg version="1.1" id="Layer_1" xmlns:serif="http://www.serif.com/"
	 xmlns="http://www.w3.org/2000/svg" xmlns:xlink="http://www.w3.org/1999/xlink" x="0px" y="0px" viewBox="0 0 1200 1200"
	 style="enable-background:new 0 0 1200 1200;" xml:space="preserve">
<style type="text/css">
	.st0{fill-rule:evenodd;clip-rule:evenodd;fill:#009A49;}
</style>
<path class="st0" d="M1005.1,60c72.8,0,131.9,59.1,131.9,131.9V1008c0,72.8-59.1,131.9-131.9,131.9H189
	c-72.8,0-131.9-59.1-131.9-131.9V191.9C57,119.1,116.1,60,189,60H1005.1L1005.1,60z M395.5,952.9V476.7H237.2v476.1L395.5,952.9
	L395.5,952.9z M966.1,952.9v-273c0-146.2-78.1-214.3-182.2-214.3c-84,0-121.6,46.2-142.6,78.6v-67.4H483.1c2.1,44.7,0,476.1,0,476.1
	h158.2V687c0-14.2,1-28.5,5.2-38.6c11.4-28.4,37.5-57.9,81.2-57.9c57.2,0,80.2,43.7,80.2,107.7v254.7H966.1L966.1,952.9z
	 M317.4,247.1c-54.2,0-89.5,35.6-89.5,82.3c0,45.7,34.3,82.3,87.4,82.3h1c55.2,0,89.5-36.6,89.5-82.3
	C404.9,282.8,371.6,247.2,317.4,247.1L317.4,247.1z"/>
</svg>
