<?xml version="1.0" encoding="utf-8"?>
<!-- Generator: Adobe Illustrator 27.3.1, SVG Export Plug-In . SVG Version: 6.00 Build 0)  -->
<svg version="1.1" id="Layer_1" xmlns="http://www.w3.org/2000/svg" xmlns:xlink="http://www.w3.org/1999/xlink" x="0px" y="0px"
	 viewBox="0 0 500 500" style="enable-background:new 0 0 500 500;" xml:space="preserve">
<style type="text/css">
	.st0{fill:#009A44;}
	.st1{fill:#FF8200;}
	.st2{fill:#BAE1EF;}
	.st3{fill:#FFFFFF;}
	.st4{fill:#A7A9AC;}
	.st5{fill:#FEE44C;}
	.st6{fill:#AF6F29;}
	.st7{fill:#EBF1F4;}
	.st8{fill:#8BA3B4;}
	.st9{fill:#5C97D1;}
	.st10{opacity:0.4;fill:#55285B;enable-background:new    ;}
	.st11{opacity:0.4;}
	.st12{fill:#55285B;}
	.st13{opacity:0.3;fill:#FFFFFF;enable-background:new    ;}
	.st14{fill:none;}
	.st15{fill:#010101;}
</style>
<g>
	<path class="st0" d="M225,253.7c0,0-95.4-17.1-135.1-43.5C20.2,163.9,9.9,123,43.8,89.9c16.5-16.2,52.8-10.8,73.7-2.9
		c39.5,15,93.8,69.8,93.8,69.8s-18.2,15.5-16.5,30.4c3.8,34,28.7,36.1,28.6,35.4l-2.4,7.7l11.2,3.9c0,0-7.3,10.6-5.3,12.8
		c1.8,2.2,7.1-2,7.1-2L225,253.7"/>
	<path class="st1" d="M282.4,154.9c0,0,74.2-77,96.9-84.2c22.8-7.1,30.6-12.3,59.6-3.1c40,12.7,33,45.3,28.2,58
		c-5,12.7-18.3,43.2-62.5,68.5s-64.4,34-64.4,34s29.7-6.7,54-2.9c24.2,3.8,31.1,21.8,32.9,32c2.9,17.2-5.6,41.3-37.5,50.9
		c-29.5,8.9-80.8,8.7-104.3,3.6c-23.5-5.1-14-10.9-14-10.9l4.5-6.4l-6.6-10.7l4.8-2.2l-6.2-16.5l9.2,1.4l-7.3-15.4l5.7-3.9
		l-9.4-10.1c0,0,8.3-7.2,6.5-6.4c-1.8,0.6-1.2-5.1-1.2-5.1s18.4-7.2,23-16c4.7-8.8,11.8-20.7,5.6-34.7
		C293.8,160.4,282.4,154.9,282.4,154.9z"/>
	<path class="st0" d="M224.5,254.7c0,0-9.5-1-22.4-3.9c-12.9-2.8-28.9-4-28.9-4s-58.7-5.6-75.4,5.1s-27.6,26.8-26.4,40.8
		c1.7,18.1,5.1,34.3,31.2,42.9s62.8,3.5,72.9,0.6c23-6.9,49-23,49-23l7.5-9.8c0,0-7.3,2.3-9.2-0.3c-1.8-2.6,8.2-15.2,8.2-15.2
		s-10.2,2.4-11.8,0c-1.7-2.4,10.5-15.2,10.5-15.2s-10.6,2.7-11.8,0c-1.2-2.7,10.6-10.1,10.6-10.1s-4.8,0.3-6.9-1.4
		C219.3,259.4,224.5,254.7,224.5,254.7z"/>
	<path class="st2" d="M301.4,188.2c0,22.2-23.1,40.3-53.1,40.3S194,210.4,194,188.2s19.4-40.9,54.3-41.5
		C278.4,146.2,301.4,165.9,301.4,188.2z"/>
	<path class="st3" d="M308,195.3c-0.6-6.4,13.5-17.1,13.8-18.7c1.5-9.9-14.4-24.3-12.3-27.1s4.7-9.2,9-7.4
		c4.3,1.7,12.8,15.7,15.7,16.1c2.9,0.4,21.1-13.4,27.8-9.7s14.1,12.8,15.8,22.4s-2,19.1-6.5,23.9c-4.5,4.8-32.1,29.2-37.5,29.3
		c-5.4,0.1-19-9.6-21.5-13.7S308,195.3,308,195.3z"/>
	<path class="st3" d="M193,202.2c0.6-6.4-13.5-17.1-13.8-18.7c-1.5-9.9,14.4-24.3,12.3-27.1c-2.1-2.8-4.7-9.2-9-7.4
		s-12.8,15.7-15.7,16.1c-2.9,0.4-21.1-13.4-27.8-9.7s-14.1,12.8-15.8,22.4s2,19.1,6.5,23.9c4.5,4.8,32.1,29.2,37.5,29.3
		s19-9.6,21.5-13.7C191.3,213.1,193,202.2,193,202.2z"/>
	<path class="st3" d="M309.4,261.1c7-1.7,16.3-0.5,20.5-1.2c4-0.7,5.1-24.1,10.6-24.1c5.5,0,5.1,0.6,7.6,1
		c2.5,0.5-2.1,16.9,1.2,20.4c3.3,3.5,19.9,5.1,22.2,14.3c2.8,10.8-7.3,28-15.6,30.1c-5.3,1.4-45.4-2.8-49-3.1
		c-3.7-0.3-8.1-16.3-5.6-22.4C304,270,309.4,261.1,309.4,261.1z"/>
	<path class="st4" d="M223.5,222.4c0,0,16,6.6,24.9,6.1c8.9-0.6,23-3.5,23-3.5s4-0.1,1.2,5.1c-2.8,5.2-18.2,6.5-24.1,6.4
		c-5.9,0-26-3.2-27.5-6.5C219.5,226.8,223.5,222.4,223.5,222.4z"/>
	<polygon class="st4" points="229.8,163.4 240.6,159.3 236.3,138.4 226.3,141.9 	"/>
	<polygon class="st4" points="257.8,159.3 261.9,138.4 271.4,141.1 267.7,165.2 	"/>
	<path class="st3" d="M185.5,272.5c0,0,11.6,7,13,12.6c1.5,5.7-2.6,22.7-2.6,22.7s-40.6,17.4-45.2,15.4c-4.6-2.1-19-10.6-19-15.4
		c0-4.8-2.3-14,0.2-17.8s13.8-10.7,13.8-10.7s-4.1-18.8-2.8-20.4c1.3-1.7,6.2-4.2,9.5-1.7c3.3,2.4,7.7,18.3,15.1,18.9
		C174.9,276.6,185.5,272.5,185.5,272.5z"/>
	<path class="st0" d="M218,394.7c0,0-0.9,9.5,0,12.5c0.9,2.9,1.8,12,1.8,12s-10.9,9-11.6,10.9c-0.6,1.9-1.4,15.1,1.6,17
		s28.4,3,35.1-3.1c6.8-6.2,5.8-10.4,6.4-13.6c0.6-3.2-1.9-10.3-1.9-10.3s5.3-18.7,3.2-21.8c-2.1-3.1-15.1-7.1-18.7-7.1
		C230.4,391.2,218,394.7,218,394.7z"/>
	<path class="st0" d="M243.5,377.3c0,0,3-5.2,1.5-7.1c-1.6-1.8-1.3-4.6-1.3-4.6s29.1-14.5,29-12.8c-0.2,1.7,6.6,6.5,10.5,12.1
		c3.8,5.6,5.5,15.4,3.9,17.5c-1.7,2.1-16.2,4.5-16.2,4.5s1.7,14.9-4.7,18.5c-6.3,3.7-13,4.5-13,4.5l-1.7-4.5l-1.9-8.4l-3.1-2.7
		L243.5,377.3z"/>
	<path class="st0" d="M150.1,218.1c0,0,12.1-1.5,21-9c8.9-7.6,10.6-21.1,10.6-21.1l5.2,5c0,0-0.3,9.7-10.7,19.9
		c-8.4,8.3-20.5,11.2-20.5,11.2L150.1,218.1z"/>
	<path class="st1" d="M172.4,275.9l5.7-1.3c0,0,8.7,6.9,10.6,13.1c3,9.7-0.7,23.9-0.7,23.9l-6.2,3c0,0,3.3-9.9,1.5-20
		C180.6,280.4,172.4,275.9,172.4,275.9z"/>
	<path class="st1" d="M318.4,260.1l5.2,0.9c0,0-7.5,7.3-6.4,18.9c1.1,11.6,6.4,20.6,6.4,20.6l-7.9-1.3c0,0-4.7-9.5-4.8-18.8
		C310.9,271.1,318.4,260.1,318.4,260.1z"/>
	<path class="st0" d="M314.1,184.6l4.4-4.5c0,0,2.1,13.4,9,20.2c7.5,7.4,23.1,9.8,23.1,9.8l-5,5.6c0,0-9.9-0.8-19.9-9.2
		C315.7,198.2,314.1,184.6,314.1,184.6z"/>
	<path class="st1" d="M218,407.2c0,0,7.3-2.3,10.3-2.4s13,1.2,13,1.2v-5.2c0,0-10-2-14.2-1c-4.2,1-9.1,2-9.1,2V407.2z"/>
	<path class="st1" d="M261,357.3c0,0,7.6,5.5,9.8,10.7c2.3,5.3,6.9,16.9,6.9,16.9l5.2-2.1c0,0-3.8-11.2-7.3-17
		c-3.5-5.8-8.9-11.1-8.9-11.1L261,357.3z"/>
	<ellipse class="st3" cx="248.9" cy="191" rx="32.6" ry="31.1"/>
	<circle class="st5" cx="223.4" cy="195.7" r="14.4"/>
	<circle class="st5" cx="276.5" cy="194.9" r="14.6"/>
	<path class="st3" d="M232.2,234.1c0,0,8.4,3,16.3,2.6c7.9-0.5,17.6-2.4,17.6-2.4l9.4,12.5l-5.7,3.9l5.7,9.4l-1.4,8l-4.7,0.6
		l4.7,12.6l-4.8,2.2l6.6,10.7l-4.5,6.4l1.8,10.9l-1.3,3.6l-4.2,2.7c0,0,2.1,6.8,1.7,10c-0.4,3.2-1.4,7-3.4,6c-2-1.1-2-1.1-2-1.1
		s-3.4,12-6.3,15.7c-2.9,3.7-8.6-5.3-8.6-5.3s-4.6,5.5-5.6,4.5c-1-1-3-13.7-3-13.7s-7.9-0.2-7.9-2.6c0-2.4,1.9-9.6,1.9-9.6
		s-10.8,1.3-10.6-2.2s7.9-16.1,7.9-16.1s-8.6,4.7-9.2-0.3c-0.6-5,8.2-15.2,8.2-15.2s-12.7,3.2-11.8,0c0.8-3.2,10.5-15.2,10.5-15.2
		s-12.3,5.6-11.8,0c0.5-5.6,10.6-10.1,10.6-10.1s-9.1,1.1-6-5.3c3.2-6.4,8.6-11,8.6-11s-2.5,4.7-4.5-0.7s3.5-9.9,3.5-9.9
		L232.2,234.1z"/>
	<path class="st6" d="M232,225l2-5.3c0,0,6.2,2.4,12.3,2.3c6.1-0.1,16.5-2.8,16.5-2.8l1.4,5.9c0,0-8,2.1-15.8,2.3
		C240.6,227.4,232,225,232,225z"/>
	<polygon class="st7" points="185.5,222.2 189.9,213 226.3,245.3 225,253.7 	"/>
	<polygon class="st7" points="275.5,246.8 271.4,240.3 312.2,210.1 318.4,216.2 	"/>
	<polygon class="st7" points="270.6,269.9 301.4,272.4 300.8,281.3 274.1,280.1 	"/>
	<polygon class="st7" points="227.1,272 219.7,281.9 200.2,290.4 198.5,282.7 	"/>
	<path class="st3" d="M263.8,138.6c-0.2,0.4-10-32.8-9.1-38.9c0.4-2.5,4.9,5.1,4.9,5.1s-2.6-15,0.9-22.6c3.5-7.6,5.9-18.3,8.5-16.7
		c1.4,0.8,2.2,10.3,1.7,10.9c0,0,10.1-14,14.6-15.8c4.5-1.7,36.9-8.1,36.9-8.1l-6.6,8c0,0,15.5,5.4,12.5,8.3
		c-3,2.8-29.6,7.9-29.6,7.9s8.5,2.8,8.8,5.4c0.3,2.6-24.4,9.7-24.4,9.7c11.6,1.6-8.8,19.1-8.8,19.1s2.6,4.3,1.4,6.3s-6,6.7-6,6.7
		v15.4L263.8,138.6z"/>
	<path class="st3" d="M228.8,140.2l4.5-0.7c0,0,2.1-7.9,0.5-10.8c-1.7-2.9-4.9-5-4.6-7.3c0.3-2.4,1-12,0-14.4c-1-2.4-8,1.3-8,1.3
		s1.7-20.7-3.6-31.2s-8.2-15.2-8.6-14.3s-4.2,12.8-4.2,12.8s-14.9-21.6-24-23.5c-9.1-1.9-12,0.6-12,0.6s-17.2-2.4-17.2-0.6
		c0,4.8,20.6,14.1,20.6,14.1S158,67,158,69.3c0,2.3,25.2,10.9,25.2,10.9s-9.7,1-9.2,4.1c0.6,3.1,13.1,3.7,14.9,5.2
		c1.7,1.6,12.9,8.2,12.9,8.2s-6.1-0.6-6.8,2.1s16.6,13.9,16.6,13.9s-2.1,5-1.5,5.9s7.3,3.3,10.4,6.7
		C223.7,129.7,228.8,140.2,228.8,140.2z"/>
	<polygon class="st8" points="228.4,149.5 238.3,147.9 240.6,159.3 229.8,163.4 	"/>
	<polygon class="st8" points="257.8,159.3 260,148.3 270,150.2 267.7,165.2 	"/>
	<polygon class="st7" points="269.8,331.9 269.5,319.6 294.3,345.4 288.7,350.1 	"/>
	<polygon class="st7" points="236.1,334.9 240.6,333.7 241.3,343.9 243.7,347.5 241.3,362.8 234,360.8 	"/>
	<polygon class="st7" points="280.1,358.8 288.5,355.7 292.2,362.1 283.1,365.1 	"/>
	<polygon class="st7" points="233,379.6 240.2,379.6 237.8,391.2 230.5,390 	"/>
	<circle class="st1" cx="237" cy="370.3" r="8.5"/>
	<circle class="st1" cx="297.8" cy="353.8" r="8"/>
	<path class="st4" d="M209.9,439.7c0,0-3.4,2.8,0.9,5.8c6.8,4.8,26.9,3.4,34.1-1.5c7.3-4.9,3.9-8.7,3.9-8.7s-2.8,7.1-19.6,6.7
		C209.9,441.5,209.9,439.7,209.9,439.7z"/>
	<path class="st4" d="M243.5,377.3l2.8-3.8c0,0,4.7,17.5,6.9,22.6c2.2,5,6.9,12.2,6.9,12.2h-6.1l-2.5-2.8l-1.9-8.4l-3.1-2.7
		L243.5,377.3z"/>
	
		<rect x="141.1" y="45.1" transform="matrix(0.5435 -0.8394 0.8394 0.5435 -35.9219 173.6749)" class="st9" width="1.2" height="149.5"/>
	
		<rect x="186.9" y="170.8" transform="matrix(0.5102 -0.8601 0.8601 0.5102 -61.8628 248.7777)" class="st9" width="1.2" height="15.8"/>
	
		<rect x="95.5" y="61.7" transform="matrix(0.5101 -0.8601 0.8601 0.5101 -60.0183 143.6369)" class="st9" width="1.2" height="125.6"/>
	
		<rect x="73.4" y="92.4" transform="matrix(0.5008 -0.8656 0.8656 0.5008 -92.9287 138.9422)" class="st9" width="1.2" height="115.2"/>
	
		<rect x="128.3" y="123.9" transform="matrix(0.4277 -0.9039 0.9039 0.4277 -119.6882 239.0146)" class="st9" width="1.2" height="180.3"/>
	
		<rect x="274.5" y="112.7" transform="matrix(0.7938 -0.6082 0.6082 0.7938 4.2855 239.3293)" class="st9" width="161.1" height="1.2"/>
	
		<rect x="325" y="117.4" transform="matrix(0.8383 -0.5452 0.5452 0.8383 -0.3603 234.8453)" class="st9" width="141.5" height="1.2"/>
	
		<rect x="368.2" y="137.5" transform="matrix(0.857 -0.5154 0.5154 0.857 -10.7562 237.5181)" class="st9" width="108.7" height="1.2"/>
	
		<rect x="345.9" y="181.6" transform="matrix(0.8715 -0.4904 0.4904 0.8715 -37.6779 220.5653)" class="st9" width="112.4" height="1.2"/>
	
		<rect x="210" y="204.4" transform="matrix(0.5145 -0.8575 0.8575 0.5145 -92.4724 290.8549)" class="st9" width="1.2" height="45.4"/>
	
		<rect x="298.7" y="174.4" transform="matrix(0.8166 -0.5773 0.5773 0.8166 -44.0909 211.3465)" class="st9" width="23.6" height="1.2"/>
	<path class="st9" d="M271.8,228.8l-0.6-1c6.2-3.8,37-22.5,37.9-22.8l0.4,1.2l-0.2-0.6l0.2,0.6C308.3,206.6,281.9,222.6,271.8,228.8
		z"/>
	
		<rect x="285" y="229" transform="matrix(0.9058 -0.4236 0.4236 0.9058 -68.4517 151.2875)" class="st9" width="42.2" height="1.2"/>
	
		<rect x="191.3" y="231" transform="matrix(3.424489e-03 -1 1 3.424489e-03 -74.3581 456.5258)" class="st9" width="1.2" height="69.1"/>
	
		<rect x="110.9" y="232.9" transform="matrix(3.412080e-03 -1 1 3.412080e-03 -154.1629 375.8878)" class="st9" width="1.2" height="64.8"/>
	
		<rect x="69.3" y="290.9" transform="matrix(0.9954 -9.564259e-02 9.564259e-02 0.9954 -27.4165 11.0087)" class="st9" width="63.7" height="1.2"/>
	<polygon class="st9" points="198.8,299.7 198.6,298.5 227.6,292.2 225.8,293.9 	"/>
	
		<rect x="82" y="317.6" transform="matrix(0.9775 -0.2107 0.2107 0.9775 -64.5841 30.2706)" class="st9" width="55.4" height="1.2"/>
	
		<rect x="121.1" y="326.8" transform="matrix(0.9625 -0.2714 0.2714 0.9625 -82.3363 59.4408)" class="st9" width="105.4" height="1.2"/>
	
		<rect x="347.9" y="237.4" transform="matrix(0.9694 -0.2453 0.2453 0.9694 -46.84 99.9111)" class="st9" width="59.4" height="1.2"/>
	
		<rect x="273" y="255.6" transform="matrix(0.9694 -0.2453 0.2453 0.9694 -53.5308 82.7259)" class="st9" width="64.5" height="1.2"/>
	
		<rect x="364.2" y="258.2" transform="matrix(0.9855 -0.1698 0.1698 0.9855 -38.2199 70.7605)" class="st9" width="60.8" height="1.2"/>
	
		<rect x="367.1" y="282.2" transform="matrix(0.9948 -0.1016 0.1016 0.9948 -26.6823 41.6893)" class="st9" width="57.6" height="1.2"/>
	
		<rect x="272.2" y="293.3" transform="matrix(0.9948 -0.1016 0.1016 0.9948 -28.3687 30.7932)" class="st9" width="31.8" height="1.2"/>
	<polygon class="st9" points="277.5,312.2 277.5,311 392.6,307.2 392.6,308.4 	"/>
	<path class="st10" d="M122.3,194c0,0,0.3,9.1,2.5,13.7c2.2,4.6,36.2,28.7,40,30.3c3.9,1.6,15.4-0.7,18.5-2.7c3-1.9,7.5-4.4,7.5-4.4
		l31.5,26.2l4.1-6.7l-37.4-31.2l-10,6.6l-10.9,5.7l-7.9-4.2L122.3,194z"/>
	<path class="st10" d="M194.8,186.9c0,0-2.7,14.9,0,25.2c2.2,8.5,3.8,11.1,3.8,11.1l26.1,22l5.7-7.1l-8.6-7.3l2.8-5.9
		c0,0-16.5-9.5-19.9-12.9C196.8,204.4,194.8,186.9,194.8,186.9z"/>
	<path class="st10" d="M266.2,235.6c0,0-3.8,3.5-13.5,6.7c-13.6,4.5-13.6,4.5-13.6,4.5s-9.6,4-7.1,8.1c2.6,4.1,8.3,0.4,8.3,0.4
		s-8.3,7.7-7.3,10.7c1,3.1,5.7,3.9,5.7,3.9s-11.7,8.4-8.3,10c3.5,1.6,7.4,2.3,7.4,2.3s-11,9.5-5.9,11.6c5.1,2,7.3,2,7.3,2
		s-11.6,14.9-7.3,16.4c4.1,1.6,12.9-0.4,12.9-0.4s-10,11.3-6.2,12.9c3.9,1.6,9.4-3.2,9.4-3.2s-6.1,10-1.4,12.1
		c4.7,2.2,6.4-4.3,6.4-4.3s-3.2,11.1,1.5,11c4.7-0.1,6.3-4.8,6.3-4.8s-0.1,14.9-3.1,14.5c-7.3-0.9-8.6-7.2-8.6-7.2s-3.2,8.1-5.6,4.5
		s-3-13.7-3-13.7s-8.3,0.2-7.9-2.6c0.4-2.8,2.8-9.6,2.8-9.6s-10.2,0.4-10.7-0.9s8-18.9,8-18.9s-12.1,3.5-12,0
		c0.2-3.3,9.8-15.2,9.8-15.2s-10.6,2-9.5-0.2c1.1-2.2,8.7-13.7,8.7-13.7s-12,4.5-11.8,0S229,260,229,260s-8.4,5-7.5,1.1
		c0.9-3.9,9.5-15,9.5-15s-6.4,3.1-6.2-0.7c0.2-3.9,7.6-10,7.6-10l16.3,1.4L266.2,235.6z"/>
	<path class="st10" d="M271.4,225c0,0-9,5.3-21.8,5.3c-4.6,0-13-0.2-13-0.2l-2.4,5.5l-12.4-4.8l2.8-5.9c0,0,15.5,1.7,20.2,2
		C249.4,227.2,271.4,225,271.4,225z"/>
	<polygon class="st10" points="226.3,141.9 230.1,141.7 234.5,157.8 240.6,159.3 229.8,163.4 	"/>
	<polygon class="st10" points="261.9,138.4 265.7,140.8 262.8,158.1 267.7,165.2 257.8,159.3 	"/>
	<path class="st10" d="M128.9,294.6c0,0,3.9,5.4,8,5.1c0,0-1.9,4.7,1.7,8.1c3.4,3.2,9.7,1.9,9.7,1.9s1.7,2.7,6.4,2.8
		c16.2,0.6,43.9-14,43.9-14l-2.6,9.3c0,0-36.5,15.1-43,15.6c-6.4,0.4-15.3-7.9-18.3-11.7C131.8,307.7,128.9,294.6,128.9,294.6z"/>
	<path class="st10" d="M128.9,294.6c0,0-10.5,12.8,0.6,26.9c9.7,12.6,21.5,10.7,27.7,10c6.2-0.8,38.7-11.8,42.7-14.5
		c3.9-2.7,5.6-12.4,6-17.3c0.4-4.9,0-8.2,0-8.2l15-5.3l3.8-9.7l-25.2,9.9c0,0,0.6-1.5,0.6,7.4c-0.1,8.9-3.9,14-3.9,14
		s-38.1,15.6-43,15.6c-4.9-0.1-14.7-6.1-18.3-11.7C131.1,305.9,128.9,294.6,128.9,294.6z"/>
	<path class="st10" d="M229.5,207.7c0,0,3.8,5.5,7.9,7.8c8.9,4.9,25.5,3.7,25.5,3.7s-10.6,4.7-25.4,1.6c-5.3-1.1-14.5-7.9-14.5-7.9
		L229.5,207.7z"/>
	<path class="st10" d="M216.3,181.3l7.8-1.2c0,0-0.1-4,1.7-7.7c1.7-3.4,6.3-9,6.3-9s-12.4,6.7-13.7,8.9
		C217.2,174.5,216.3,181.3,216.3,181.3z"/>
	<path class="st10" d="M168.7,52.5c0,0-7.3-1.7-9.5,1.3c-1.3,1.7,7,6.3,13.9,9.8c4.7,2.4,8.8,4.2,8.8,4.2s-10.2-0.1-10.7,2.8
		c-0.6,2.8,20.3,9.8,20.3,9.8s-6.1,0.3-4.2,4.8c0.4,0.8,1.2,1.9,2.8,2.7c6.2,3,20.6,12,20.6,12s-10.8-0.1-8,1.7s14,11.6,14,11.6
		s3.9,7.1,8.3,11.2c4.4,4.1,5.5,17.2,5.5,17.2s-6.9-14.2-10.5-16.2c-3.6-1.9-9.5-5.8-9.5-5.8l1.7-5.9c0,0-17.9-11.7-16.8-13.9
		c1.4-2.7,6.8-2.1,6.8-2.1s-6.3-4.8-12.9-7.6c-7.3-3-14.8-4.2-14.9-5.8c-0.3-2.6,9.2-4.1,9.2-4.1l-24.9-10l2.9-2.8l9.3-1.8
		c0,0-20.3-10.2-19.1-13.9C152.3,49.5,168.7,52.5,168.7,52.5z"/>
	<path class="st10" d="M243.7,347.5c0,0-0.6,1.5-3.7,2.7c-1.9,0.7-2.2,2.7-2.2,2.7l-0.9,7.6l-3,0.4l2.2-26l4.5-1.2l1.3,11.1
		L243.7,347.5z"/>
	<path class="st10" d="M270.6,322.1c0,0,0.8,5.8,2,8.4c1.2,2.7,18,17.9,18,17.9l-0.8,3l0,0L269.5,333L270.6,322.1z"/>
	<path class="st10" d="M302.7,272c0,0-1.6,18.8,11.4,20.5c8.6,1.1,36.1,3.9,40.9,2.8c5-1.3,14.8-11.6,14.8-11.6s-7.3,16.2-11.5,17.1
		c-4.2,0.9-48.7-0.9-51.3-2.3s-7.3-11-7.3-11L302.7,272z"/>
	<polygon class="st10" points="273.7,276.5 301.1,278.3 299.8,281.2 274.1,280.1 	"/>
	<path class="st10" d="M274.1,280.1l-4,4.6l24.9,1.7c0,0-1.5,11.3,2.8,15.3c4.3,4,50.6,6.6,57.3,4.2c6.7-2.4,9.3-10.7,9.3-10.7
		s-7.7,5.6-10.3,6.5c-2.6,0.9-43.1,0.4-47.1-3.3c-3.9-3.8-7.3-17.2-7.3-17.2L274.1,280.1z"/>
	<path class="st10" d="M230.7,390c0,0-4.1,1.5-4.8,5.4c-0.3,1.7-0.6,19.6-0.6,19.6s1.6-0.6,7.6,0.6c3.9,0.8,6.2,5.8,6.2,5.8
		s-7.6-2.2-11.2-1.7c-3.6,0.5-7.5,8.1-8.2,12.5c-0.6,4.4,6.1,16.5,6.1,16.5s-12.1,0.3-15.1-3.1c-2.8-3.4-4.9-10.5-3.1-13.7
		c1.7-3.2,12.9-11.9,12.9-11.9l-2.3-25.3L230.7,390z"/>
	<path class="st10" d="M280.1,360.8c0,0,0.8-0.6-4.2-0.6c-4.1,0-14,10.9-19.2,21.3c-3.8,7.4-2.2,28.5-2.2,28.5l-7.6-16.5l-3.2-15
		l1.8-8.1l-1.2-5.3l26.5-11.2l4.9,0.9L280.1,360.8z"/>
	<path class="st10" d="M232.2,363.2c0,0-2.3,6.4,0.8,9.4c4.9,4.6,10.6,0.9,10.6,0.9s-3.9,6.8-7.5,6.1s-9.1-5.4-9.1-5.4L232.2,363.2z
		"/>
	<g class="st11">
		<polygon class="st12" points="239.1,380.2 230.7,390 233,379.6 		"/>
	</g>
	<path class="st10" d="M290.7,348.5c0,0-0.2,3.7,2.8,6.2c2.8,2.6,11,3.6,11,3.6l-6.6,5l-9.6-5.1L290.7,348.5z"/>
	<polygon class="st10" points="292.1,362.8 280.1,358.8 287.3,356.2 	"/>
	<polygon class="st10" points="273.3,243.3 309.4,218 312.2,212.2 318.4,216.2 273.3,250.1 	"/>
	<path class="st10" d="M305.8,194.2c0,0-2.4,9.3-1.8,13.8c0.5,4.5,2.1,7.8,2.1,7.8l6.1-3.6L305.8,194.2z"/>
	<path class="st10" d="M273.3,250.1l45.1-34l6.5,3.9l11.1,2.3l33.7-27.5c0,0-26.7,29-30.4,30.7c-3.7,1.6-9.2,4.3-14,2.5
		c-4.7-1.8-10.2-2-10.2-2L273.3,250.1z"/>
	<path class="st10" d="M368.3,193.7l1.5-1.3l-2.6,0.3c-1.6-1.4-3.6-3.5-5.3-5.9c-3.3-4.7-1.5-9.2-1.5-9.2s-7-0.2-8.2-2.4
		c-1.2-2.2-1.7-8.9-1.7-8.9s-5.5-0.4-8.6-3c-3.1-2.7-2.2-7.9-2.2-7.9s-6.2,9.2-3.7,12.7c4.5,6.4,9.8,4.1,9.8,4.1s-1.5,4,1.2,6.7
		c2.7,2.8,8,4.1,8,4.1s-2.5,4.2,1.2,8.6c1.2,1.5,2.5,2.4,3.8,2.9c-4.6,4.8-22.9,21.2-25.8,21.4c-3.4,0.3-12.3-1.8-17-7.2
		c-6.1-6.9-8.6-17.3-8.6-17.3s-4.8,6.9,7.1,21.1c8.4,10.1,20.4,10.6,20.4,10.6l29.9-25.4c2.2-0.2,3.8-3.3,3.8-3.3
		S369.3,194.4,368.3,193.7z"/>
	<path class="st10" d="M145.7,198.8l1.3-4.8c0,0,2.8-1.9,5.5-4.2c3.6-3,3.6-10.2,3.6-10.2s3.2,0.7,7-1.7c5.7-3.8,1.3-11.7,1.3-11.7
		s-1.3,8.8-2.8,10.3c-1.6,1.5-9.7-0.5-9.7-0.5s2,8.1-0.8,10.9c-2.8,2.8-9.1,1.9-9.1,1.9s1.4,2.7,1,5.6c-0.1,0.6-1.7,1.2-2.8-0.6
		c-3.1-5-0.8-5.6-0.7-7.1c0.1-0.8-1.1-1.7-1.5-2.7c-0.8-2.7-4.1-6.1-3.4-9.5c1.2-5.2,4.2-5.7,4.8-8.4c0.9-4.1,1.6-5.7,4.5-9.4
		c0,0-10.2,0.6-16.5,10.7c-3.6,5.7-5.3,22.9-2.6,26.3c2.8,3.3,39.7,36.4,43.3,37.5c3.7,1,10.9-5.7,10.9-5.7S157.9,211.8,145.7,198.8
		z"/>
	<path class="st10" d="M154.6,285.6c0,0,0.2,0.2,0.1,4.5c0,2.1-1.7,6.1-1.7,6.1l-2.9-0.9L154.6,285.6z"/>
	<polygon class="st10" points="158,302.9 158,306.9 154.7,307.2 	"/>
	<path class="st10" d="M343.5,265.6c0,0-0.2,3.6,0,5.2c0.3,2.6,4.7,3.9,4.7,3.9l2.5-1L343.5,265.6z"/>
	<path class="st10" d="M343.5,279.5c0,0-1.5,2.6-0.4,4.8c1.1,2.1,3,3.4,3,3.4l0.8-1.4L343.5,279.5z"/>
	<ellipse transform="matrix(0.5 -0.866 0.866 0.5 -4.3589 321.4633)" class="st13" cx="276.2" cy="164.5" rx="6.7" ry="13.6"/>
	<path class="st13" d="M386.7,67.4l-11,142.6l21.6-12.7l31.9-132.5c0,0-16.8-3.8-27.1-0.9C397.2,65.2,386.7,67.4,386.7,67.4z"/>
	<path class="st13" d="M406.4,192.5l36.2-124.9c0,0,9.4,4.1,18.2,13c0.8,0.8,6.3,14.2,6.7,11.5c0.4-2.8-48.8,91.2-48.8,91.2
		L406.4,192.5z"/>
	<path class="st13" d="M376.3,223.9l-7.8,39.1l3.6,11.9c0.3,5-3.5,11-5.8,15.4l-5.2,10.1l-2.8,14.1h10l31.1-89L376.3,223.9z"/>
	<polygon class="st13" points="408.2,229.5 375.2,311.9 382.7,311.4 424.9,246.1 415.6,235.7 	"/>
	<g id="ink_1_">
		<path class="st14" d="M231.8,139c0.5-3.4,1-8.6,0.7-10c-0.2-1-2.6-3.6-4.6-5.3l-0.5-0.5l0.1-0.6c0.6-4.6,1-12.6,0.1-14.9
			c-0.1-0.3-0.3-0.4-0.4-0.4c-1.2-0.3-3.9,1.3-5.5,2.4l-2.1,1.6l0.2-2.7c0-0.2,1-19.8-1.8-27.1c-3.3-8.4-7.4-15.9-9.1-17.3
			c-0.8,1.5-1.9,7.2-2.5,12.1l-0.4,3.5l-1.8-3c-0.1-0.2-12.2-19.6-21.2-23.4c-8.7-3.7-13.1-0.3-13.3-0.2l-0.5,0.4l-0.6-0.1
			c-6.8-1.5-15-2.1-16.2-0.6c0.6,2,11.4,7.8,21.2,11.9l5,2.1l-5.3,0.2c-6.4,0.3-12.7,1.4-13.9,2.4c1.9,1.8,14.9,6.2,26.3,9.2
			l5.7,1.6l-5.9,0.8c-5,0.7-9.8,2.3-10.2,3.3c0.5,1,6.1,2.3,8.7,2.8c2.8,0.6,5.1,1.2,6.4,1.9c3,1.7,13.1,7.5,13.2,7.6l3.7,2.1
			l-4.2,0.2c-2.8,0.1-5.5,0.5-6.7,0.8c2,2.1,9.4,7.9,16.2,13l1,0.7l-0.7,1c-1.3,1.8-2.1,4-1.7,4.5c0.6,0.6,2.5,1.7,4.1,2.7
			c2.5,1.4,5,2.8,6.4,4.3c3.7,3.8,7.9,12.9,8.1,13.4L231.8,139z"/>
		<path class="st14" d="M196,187.2c0,20.4,15.1,32.1,33.7,36.7l2.4-4.2c-4.2-2.1-8-5-10.9-8.4c-8.1-1.1-14.2-8.1-14.2-16.4
			c0-5.9,3.1-11.1,7.7-14c2.4-7.7,7.5-14.3,14.5-18.5l-2.8-11C207.3,156.6,196,169.6,196,187.2z"/>
		<path class="st14" d="M185.8,223.6c-5,5.4-12.7,8.5-18.3,8.5c-0.7,0-1.4-0.1-1.9-0.2c-6.2-0.9-38.7-30.1-42.6-36.1
			c-4.4-7-0.6-29,10.9-38.3c9.5-7.7,22.9,0.1,29.3,3.9c0.7,0.5,1.7,0.9,2.1,1.2c1.3-0.9,4.4-4.1,6.5-6.3c5.3-5.6,7.6-7.9,9.4-8.2
			c3.1-0.6,6.1,0.4,8.3,2.6c2.3,2.3,3.5,5.6,3.1,8.5c-0.2,1.5-2.1,4.4-5.9,9.8c-0.7,1-1.3,1.9-1.7,2.4c-2.3,3.6-4.7,10.5-4.1,11.9
			c1,1.3,2.8,3.2,4.8,5.1c5.9,6,9.6,10.2,9.7,13.4c0,3.9-1.2,8.3-3.7,12.9l0.5-0.6l32.8,27.1c0.8-2,2.3-4.2,3.6-5.9
			c-4.9-1.8-8.4-4.1-8.6-6.5c-0.1-1.9,0.6-3.9,1.2-5.2c-17.1-6.5-27.4-19.7-27.4-36.7c0-12.8,5.5-23.1,15.3-30.4
			c-6.1-6.3-63.6-65.3-112.8-74.7c-33.2-6.4-50.9,7.1-58.4,15.7c-10.6,12-14.4,28.6-9.8,42.5c10,30.2,41.3,59.6,85.6,80.5
			c30.8,14.6,96.4,29.5,107.5,31.9L185.8,223.6z"/>
		<path class="st14" d="M224.5,245.8l-34.3-28.4c-0.6,1.1-1.4,2.2-2.2,3.3l36.4,29.9c0.6-0.9,1.3-1.8,1.9-2.8
			C225.6,247.6,224.9,246.9,224.5,245.8z"/>
		<path class="st14" d="M232.3,160.4c2.2-1.1,4.6-1.9,7.1-2.6l-2.4-8.9c-2.5,0.3-4.9,0.7-7.2,1.3L232.3,160.4z"/>
		<path class="st14" d="M247.8,156.8c2.8,0,5.7,0.4,8.4,1v-0.1l1.7-8.8c-3.1-0.4-6.3-0.6-9.6-0.6c-2.6,0-5.1,0.1-7.5,0.3l2.3,8.6
			C244.5,157,246.2,156.8,247.8,156.8z"/>
		<path class="st14" d="M130.8,299.3c0.1,0.5,0.2,1,0.3,1.5c2.4-0.8,15-6,18.9-8.9c1.4-1.1,2.3-2.8,2.3-4.6c0-1.5-0.6-2.8-1.7-3.7
			c-2.2-1.7-6-0.9-9,0.4C136.4,287.1,129.7,292.5,130.8,299.3z"/>
		<path class="st14" d="M136.1,160.5c-0.5,0.4-0.9,0.8-1.4,1.3c1.5,1.3,14.2,11.5,19.6,13.8c1.8,0.8,4.1,0.7,6-0.3
			c1.6-0.8,2.5-2.2,2.8-3.9c0.6-3.4-2.8-6.8-5.8-9.1c-4-2.1-9.1-4.3-13.8-4.3C140.8,158.1,138.3,158.7,136.1,160.5z"/>
		<path class="st14" d="M222.1,275L222.1,275l-23.1,8.7c0.5,0.9,0.9,1.8,1.4,2.8c0.2,0.4,0.3,0.7,0.5,1.1l18.9-7.2l0.1,0.1
			c1-1.6,2.4-3.5,4.3-5.8C223.4,275,222.8,275,222.1,275z"/>
		<path class="st14" d="M227.1,305.7c-2.6,0.4-5.5,0.2-6.9-1.8c-1.5-2.1,0.6-6.9,6.3-14.1c-3.8,0.5-7.6,0.4-8.9-1.7
			c-0.2-0.4-0.6-1.1-0.2-2.8l-15.7,5.9c1.2,6.4-0.3,13.3-3.1,16.8c-3.4,4.3-40.2,16.8-46.5,17.2c-0.1,0-0.2,0-0.3,0
			c-7.5,0-22.5-12.5-24.7-25.2c-1.8-10.7,10.6-18,15.9-21.1c0.6-0.4,1.3-0.7,1.7-1c-0.2-1.5-1.3-5.1-2-7.6c-2-6.6-2.8-9.4-2.2-10.9
			c1-2.7,3-4.6,5.8-5.4c2.8-0.8,6-0.3,8.1,1.4c1.1,0.8,2.5,3.5,5,9c0.5,1,0.8,1.8,1.1,2.3c1.7,3.2,5.9,7.9,7.3,8.3
			c1.4-0.2,3.7-0.8,6-1.4c7.3-1.9,12.1-3,14.7-1.7c3.2,1.7,6.1,4.8,8.6,9l19.1-7.2c-0.1-0.2-0.3-0.4-0.4-0.6
			c-0.4-0.9-1.3-3.2,7.8-9.8c-1.7-0.4-3.1-0.9-3.9-1.7c-0.5-0.6-0.6-1.2-0.6-1.9c0.1-0.6,0.6-1.7,1.5-3.1
			c-3.6-0.8-14.8-3.3-29.1-6.9l0,0c-0.6-0.1-63.7-7.3-89.2,2.7c-19.9,7.8-31.8,27.2-28.9,47.1c2.5,16.9,16.8,36.1,49.9,39
			c58.8,5.2,97.7-25.5,101.6-28.7C225.7,308.1,226.3,306.9,227.1,305.7z"/>
		<path class="st14" d="M267.9,150.9c-2.1-0.6-4.2-1.1-6.5-1.5l-1.7,9c0,0.2-0.1,0.3-0.2,0.5c2.2,0.7,4.3,1.7,6.2,2.9L267.9,150.9z"
			/>
		<path class="st14" d="M140.7,185.5c0.2,0,0.4,0.1,0.6,0.3c0.1,0.1,0.2,0.1,0.3,0.2c0.8,0.5,1.6,0.8,1.9,0.9
			c2.7,0.7,5.5,0.8,8.1-3.9c1.6-2.8-4.2-8-6.7-10.1c-0.8-0.6-1.4-1.2-1.7-1.6c0,0,0-0.1-0.1-0.1c-4.2-2.9-8.4-6.2-9.9-7.8l0,0
			c-2.9,3.5-5,8-6.4,12.6C131,179.1,137,183.3,140.7,185.5z"/>
		<path class="st14" d="M184.3,219.7c4.9-6.6,7.4-12.7,7.4-17.7c0-1.2-2-3.7-4.2-6.2c-0.7,3.6-2.9,11.5-9.5,17.7
			c-7.3,6.9-14.3,9.5-18.8,10.6c3.3,2.5,5.9,4.1,6.9,4.3C170.4,229,179.5,226.1,184.3,219.7z"/>
		<path class="st14" d="M137.4,199.7c1-0.1,2.7-1.3,4-3.1c0.7-1,1.8-3.1,1.3-5.2c-0.2-0.8-1.7-2.3-2.7-3.3c-4.1-2.4-11-7.3-14-9.5
			c-1.7,6.7-1.7,12.9,0,15.5c0.3,0.5,0.7,1,1.3,1.7C129.8,197.5,133.9,200,137.4,199.7z"/>
		<path class="st14" d="M176.4,211.8c7.9-7.5,9-18,9-18.2h0.1c-0.8-0.9-1.7-1.7-2.4-2.5L183,191c-0.4,3.8-2.2,10.6-9.7,18.2
			c-7.7,7.7-15.8,9.5-20.2,10c1.3,1,2.5,2,3.7,2.9C160.3,221.5,168.3,219.4,176.4,211.8z"/>
		<path class="st14" d="M171.5,207.6c9.5-9.5,9.2-17.9,9.1-19c-1-1.1-1.9-2.1-2.6-2.9l0,0c-2.8-3.6,3-14.5,3.9-16
			c0.3-0.5,0.9-1.4,1.7-2.5c1.5-2.1,5-7.2,5.3-8.4c0.3-1.7-0.6-3.9-2-5.4c-1-0.9-2.7-2-5.1-1.7c-1,0.4-4.8,4.4-7.3,7.1
			c-5.9,6.2-7.5,7.8-9.3,7.6c-0.3,0-0.6-0.1-1-0.3c1,1.7,1.6,3.6,1.2,5.6c-0.4,2.4-1.8,4.4-3.9,5.6c-1.4,0.7-2.9,1.1-4.5,1.1
			c-1.3,0-2.5-0.3-3.7-0.7c-0.2-0.1-0.6-0.3-0.9-0.5c1.6,2.3,2.4,4.7,1.2,6.9c-2.4,4.4-5.3,5.6-7.8,5.6c-0.4,0-0.7,0-1.1-0.1
			c0.2,0.4,0.4,0.6,0.4,1c0.6,2.3,0,4.8-1.7,7.2c-1.6,2.3-3.9,3.9-5.7,4.2c-0.4,0.1-0.7,0.1-1.1,0.1c-1.3,0-2.6-0.3-3.8-0.6
			c4.8,4.7,11.3,10.5,17.3,15.4C152.2,216.9,162.2,216.8,171.5,207.6z"/>
		<path class="st14" d="M229.2,147.9c2.3-0.6,4.6-0.9,7.1-1.3l-1.3-4.7l-6.8,1.8L229.2,147.9z"/>
		<path class="st14" d="M344,154.5c-3.1,2.3-6.3,5.7-5.9,9.1c0.3,1.7,1.3,3,2.8,3.9c1.8,1,4,1.1,6,0.3c5.2-2.3,18-12.5,19.6-13.8
			c-0.5-0.5-0.9-0.9-1.4-1.3C359.1,147.8,350.3,151.2,344,154.5z"/>
		<path class="st14" d="M336,158.6c-1.7,0.1-3.4-1.5-9.3-7.6c-2.6-2.7-6.3-6.7-7.4-7.1c-0.4-0.1-0.6-0.1-1-0.1c-1.8,0-3.2,0.9-4,1.7
			c-1.5,1.5-2.3,3.7-2,5.4c0.3,1.1,3.8,6.2,5.3,8.4c0.7,1.1,1.4,2,1.7,2.5c0.9,1.6,6.7,12.4,3.9,16c-0.6,0.8-1.6,1.8-2.6,2.9
			c-0.1,1.1-0.5,9.5,9.1,19c9.4,9.4,19.4,9.5,21.4,9.4c6.1-5,12.5-10.8,17.3-15.4c-1.2,0.4-2.5,0.6-3.8,0.6c-0.4,0-0.7,0-1.1-0.1
			c-1.8-0.3-4.1-1.9-5.7-4.2c-1.7-2.4-2.2-4.9-1.7-7.2c0.1-0.3,0.3-0.6,0.4-1c-0.4,0.1-0.7,0.1-1.1,0.1c-2.6,0-5.4-1.2-7.8-5.6
			c-1.2-2.2-0.4-4.6,1.2-6.9c-0.4,0.2-0.6,0.4-0.9,0.5c-1.1,0.5-2.4,0.7-3.7,0.7c-1.6,0-3.1-0.4-4.5-1.1c-2.2-1.2-3.6-3.2-3.9-5.6
			c-0.3-2,0.2-3.9,1.2-5.6C336.7,158.5,336.3,158.6,336,158.6z"/>
		<path class="st14" d="M368,155.7L368,155.7L368,155.7c-1.6,1.7-5.7,4.9-9.9,7.8v0.1c-0.3,0.4-0.8,0.8-1.7,1.6
			c-2.5,2.2-8.3,7.3-6.7,10.1c2.6,4.8,5.4,4.7,8.1,3.9c0.4-0.1,1.1-0.5,1.9-0.9c0.1-0.1,0.2-0.2,0.3-0.2c0.2-0.1,0.4-0.2,0.6-0.3
			c3.7-2.2,9.7-6.5,14-9.5C373,163.7,370.9,159.2,368,155.7C368,155.6,368,155.6,368,155.7z"/>
		<path class="st14" d="M363.8,191.8c3.5,0.5,7.6-2.1,10.1-3.9c0.6-0.6,1-1.3,1.3-1.7c1.6-2.6,1.7-8.8,0-15.5c-2.9,2.1-9.7,7-14,9.5
			c-1.1,0.9-2.5,2.5-2.8,3.3c-0.6,2.1,0.6,4.2,1.3,5.2C361.1,190.6,362.7,191.7,363.8,191.8z"/>
		<path class="st14" d="M269,163.8c4.6,3.4,8.4,8,10.6,13.2c8.1,1.5,14.1,8.5,14.1,17.1c0,9.5-7.8,17.3-17.3,17.3
			c-0.6,0-1.3-0.1-1.9-0.1c-2.8,3.2-6.2,6-10,8h0.1l1.4,4.9c19-4.4,34.4-16.2,34.4-36.9c0-16.2-11.3-29.2-28.9-35.2l-2.1,11.1
			C269.3,163.3,269.1,163.6,269,163.8z"/>
		<path class="st14" d="M316.8,211.9c4.8,6.4,13.9,9.4,18.3,8.7c1-0.2,3.5-1.8,6.9-4.3c-4.5-1-11.6-3.7-18.8-10.6
			c-6.6-6.2-8.7-14.1-9.5-17.7c-2.3,2.5-4.2,5-4.2,6.2C309.4,199.1,312,205.3,316.8,211.9z"/>
		<path class="st14" d="M217.6,206.4c1.6,0.8,3.4,1.3,5.3,1.4c0.2,0,0.3,0,0.5,0c7.2,0,12.9-5.8,12.9-12.9c0-7.2-5.8-12.9-12.9-12.9
			c-2,0-4,0.5-5.7,1.4c-1.7,0.8-3.1,2-4.3,3.4c-1.8,2.2-2.9,5-2.9,8.2C210.5,199.9,213.4,204.3,217.6,206.4z M214.2,193.1
			c0.6-0.2,1.3,0.1,1.6,0.7c0.1,0.2,1.7,4.7,6.5,4.7l0,0c6.5,0,7.5-3.8,7.5-3.9c0.2-0.6,0.8-1.1,1.5-0.9c0.6,0.2,1.1,0.7,0.9,1.4
			c-0.1,0.3-1.3,5.9-9.9,5.9l0,0c-5.2,0-8-4.1-8.8-6.3C213.3,193.9,213.6,193.2,214.2,193.1z"/>
		<path class="st14" d="M262.3,224.7l-1.1-4c-4.1,1.7-8.6,2.6-13.4,2.6c-4.4,0-8.6-0.8-12.5-2.2l-2,3.6c4.9,0.9,9.8,1.4,14.9,1.4
			C253,226,257.7,225.6,262.3,224.7z"/>
		<path class="st14" d="M290.2,194c0-5.9-3.8-10.9-9-12.9c-1.3-0.5-2.7-0.7-4.1-0.8c-0.2,0-0.4,0-0.6,0c-7.5,0-13.7,6.2-13.7,13.7
			c0,6.3,4.4,11.7,10.3,13.2c1.1,0.3,2.3,0.5,3.5,0.5c0.3,0,0.5,0,0.7,0C284.4,207.3,290.2,201.3,290.2,194z M276.6,201.1
			L276.6,201.1c-5.2,0-8.1-4.1-8.8-6.3c-0.2-0.6,0.1-1.3,0.7-1.6c0.6-0.2,1.3,0.1,1.6,0.7c0.1,0.2,1.7,4.7,6.5,4.7l0,0
			c6.5,0,7.5-3.8,7.5-3.9c0.2-0.6,0.8-1.1,1.5-0.9c0.6,0.2,1.1,0.7,0.9,1.4C286.5,195.5,285.3,201.1,276.6,201.1z"/>
		<path class="st14" d="M268.2,138.4v-15l0.4-0.4c2.6-2.4,5.5-5.5,5.8-6.6c0.3-1.5-0.6-4.2-0.9-5l-0.3-0.7l0.5-0.6
			c5.5-6.2,11.4-13.2,12.4-15c-0.4-0.5-1.7-1.6-2.9-2.3l-2.3-1.4l2.6-0.8c9.8-3.1,20.5-7,22.9-8.6c-1-0.9-4.3-2.7-7.7-3.9l-3.9-1.5
			l4-0.8c12.7-2.7,26.5-6.3,28.9-8c-1.1-1.4-6.9-4.4-13.3-6.9L312,60l2.1-1.3c2.7-1.6,5.7-3.6,7.1-5c-2.8,0.3-10.2,1.7-30.6,7.4
			C280.2,64,272,76,271.9,76.1l-2.1,3l-0.1-3.7c-0.1-3-0.5-6.5-0.9-8.2c-1,1.7-2.6,5.4-3.7,8.1c-1.2,2.9-2.5,6-3.6,7.9
			c-2.1,3.9-1.5,15.4-1.1,19.6l0.6,6l-2.8-5.2c-1.1-1.9-2.6-3.7-3.4-3.9c-0.1,1.8,1.9,8.1,3.2,11.9c1,3.1,2,6.1,2.5,8.2
			c1.2,5.3,4.1,15.8,4.7,18L268.2,138.4z"/>
		<path class="st14" d="M275.4,244.6l40.3-28.6c-0.6-0.6-1.2-1.3-1.7-2c-0.3-0.4-0.6-0.7-0.8-1.2l-39.8,27.6
			C274.2,241.9,274.9,243.4,275.4,244.6z"/>
		<path class="st14" d="M270.5,210.2c-6.6-2.5-11.3-8.8-11.3-16.2c0-9.2,7.3-16.8,16.3-17.3c-5.1-9.6-15.6-16.2-27.7-16.2
			c-1.9,0-3.9,0.2-5.7,0.6H242c-0.1,0-0.3,0.1-0.4,0.1c-10.2,1.9-18.6,8.7-22.6,17.7c1.4-0.4,2.8-0.6,4.2-0.6
			c9.2,0,16.6,7.4,16.6,16.6c0,8.3-6.1,15.1-14,16.3c5.6,5.3,13.3,8.5,21.8,8.5C256.7,219.7,264.8,216,270.5,210.2z M238.9,210.8
			c0.3-0.6,1-0.8,1.7-0.6c0.1,0,5.9,3,11.1,3l0,0c8.2,0,11.9-2.8,11.9-2.9c0.6-0.4,1.3-0.4,1.7,0.2c0.5,0.6,0.4,1.3-0.2,1.7
			c-0.2,0.2-4.4,3.5-13.5,3.5l0,0c-5.9,0-11.9-3.2-12.2-3.3C238.8,212.2,238.5,211.4,238.9,210.8z"/>
		<path class="st14" d="M269.8,225.6c-6.4,1.8-13.7,2.8-21.6,2.8c-8.7,0-16.7-1.2-23.7-3.4c-0.6,1.1-1.1,2.5-1.1,3.7
			c1.1,1.9,11.9,6.5,23.2,6.6c12.6,0.1,22.4-2.8,24.2-4.5C271.4,230.3,270.9,227.9,269.8,225.6z"/>
		<path class="st14" d="M269.6,142.4l-6.5-1.3l-1.1,6c2.2,0.4,4.4,0.9,6.5,1.5L269.6,142.4z"/>
		<path class="st14" d="M315.7,185.8L315.7,185.8c0.1,0.1,1.2,10.6,9.1,18.2c8.1,7.6,16.1,9.7,19.7,10.4c1.2-0.9,2.4-1.8,3.7-2.9
			c-4.4-0.4-12.5-2.3-20.2-10c-7.5-7.5-9.4-14.4-9.7-18.2l-0.1,0.1C317.4,184.1,316.6,184.9,315.7,185.8z"/>
		<path class="st14" d="M299.3,278.2c0.2-1.3,0.5-2.4,0.7-3.6l-26.3-2.2c0.7,1.7,1.5,3.6,1.7,5.2l23.6,1.5
			C299.2,278.9,299.3,278.6,299.3,278.2z"/>
		<path class="st14" d="M274.7,253.8c-0.5,0.2-0.8,0.3-1.2,0.4c3,4.7,5.4,9.8,3.4,12.2c-1.1,1.3-2.5,1.9-3.9,2.3l28,2.4
			c1.5-4.4,3.5-7.9,6.1-10.4c2.1-2,7.2-2.1,14.7-2c2.5,0,4.8,0.1,6.2-0.1c1.3-0.6,4.1-6.2,5-9.7c0.1-0.5,0.3-1.4,0.6-2.5
			c1.2-6,1.9-8.8,2.8-9.9c1.7-2.1,4.6-3.4,7.5-3.3c2.8,0.1,5.2,1.5,6.9,3.9c0.9,1.4,0.8,4.3,0.6,11.1c-0.1,2.7-0.3,6.4-0.2,7.9
			c0.5,0.2,1.3,0.4,1.9,0.6c5.9,1.7,19.6,5.7,20.5,16.6c1,13.1-10.8,29.1-18.1,30.6c-0.9,0.2-2.6,0.3-4.8,0.3
			c-12.3,0-40.8-2.8-44.5-5.6c-3.7-2.8-6.9-9.5-7.1-16.2v0.6l-23.5-1.5c-0.7,1.8-2.1,2.7-3.6,3c2.8,4.9,5.7,11.2,2.9,13.8
			c-1.3,1.3-2.5,2-3.4,2.5c1,2.1,2,4.7,2.8,7.1v-0.1c0.2,0,14.2,4,38.4,6.2c24.5,2.2,81.3,0.3,100.7-20.2
			c10.4-10.9,14.7-26.3,11.3-39.9c-3-12.3-11.9-21.5-25.1-26c-17.2-5.9-61.1,3.5-67.2,4.8C310.7,241.5,290.3,248.8,274.7,253.8z"/>
		<path class="st14" d="M266.2,298.1l2.6-0.3l0,0c0,0,1.5-0.3,3.6-2.3c0.6-1.2-1.9-7.1-5.4-12.2l-3.1-4.8l5.3,2.1
			c0.3,0.1,2.5,0.9,3-0.6c0.5-1.3-1.7-7-4.8-12.1l-2.3-3.9l4.4,1.3c0,0,2.9,0.8,4.6-1c0.4-1.6-3-7.6-7.3-13.2l-3.3-4.2l5.1,1.4
			c0,0,2.8,0.6,3.6-0.9c0.3-1.2-2.6-6.1-6.1-10.5c-5,1.4-11.7,2.3-18.9,2.3c-0.2,0-0.4,0-0.6,0c-4.6,0-9.8-0.9-14.5-2.2
			c-2.5,3.1-4.5,6.5-4.3,7.5c0.2,0.8,1,0.6,1.4,0.6l4.8-1.1L231,248c-3.1,4.2-6.7,9.4-7.8,11.5c1.2,0.4,3.5,0.6,5.7,0.7l5.7,0.2
			l-4.8,3.1c-4.6,3-8.8,6.4-10.1,8.1c1.6,0.2,5.3-0.2,8.6-1l5.6-1.4l-3.9,4.3c-4.2,4.7-8.7,10.7-9.3,12.9c1.4,0.5,5.7,0.1,9.7-0.8
			l5.4-1.3l-3.6,4.2c-5,5.8-9,11.8-9.2,13.7c0.8,0.6,4,0.3,7.2-0.8l5.1-1.7l-3,4.5c-4.6,6.8-7.9,14.3-6.8,15.6
			c1.4,1.7,6.7,0.6,9.9-0.6l5.1-2l-2.8,4.7c-2.3,3.7-4,8.6-2.8,9.8c2,2,5.5-0.2,5.6-0.2l3.3-2.1l-0.6,3.9
			c-0.8,5.7-0.5,11.7,0.7,12.3c0.1,0.1,0.2,0.1,0.5,0c1.4-0.5,3.2-3.2,4-5l3.5-7.2v8c0,1.7,0.6,6.9,3.2,7.2c1.7-0.3,4.8-9,6.4-17.9
			l1.3-7.2l2.2,6.9c0,0.1,0.2,0.5,0.6,0.6c0.3,0.1,0.8,0,1.5-0.4c1-1.1-0.2-8.5-2.6-15.6l-2.8-8.3l5.9,6.5c0,0,2.5,2.7,3.9,1.5
			c0.6-1.2-1.4-7.9-4.4-14L266.2,298.1z"/>
		<path class="st14" d="M281.9,359.4c0.7,1.1,1.4,2.3,2,3.5l5.9-1.7c-0.9-1-1.7-2.2-2.2-3.5L281.9,359.4z"/>
		<path class="st14" d="M347.6,239c-1.2-1.7-2.8-2.1-3.9-2.1c-1.7-0.1-3.7,0.7-4.6,1.9c-0.6,0.9-1.6,6.2-2,8.4
			c-0.3,1.2-0.5,2.1-0.6,2.7c0,0.1-3.5,11.9-8,12.5c-0.9,0.1-2.2,0.1-3.6,0.2c-1,0.9-6.2,5.9-6.4,17.2c-0.3,11.2,5.3,17.6,6.9,19.2
			c6.6,0.7,14,1.4,19.8,1.7c-1.1-0.6-2-1.5-2.8-2.5c-1-1.4-1.3-3.9-0.8-6.3c0.6-2.5,1.8-4.5,3.7-5.5c0.2-0.1,0.5-0.2,0.7-0.3
			c-2.5-2.2-3.1-5.1-1.8-9.1c0.6-2,2.5-3,4.7-3.4c-0.1,0-0.2-0.1-0.3-0.1c-2.3-1-4.1-3.1-4.8-5.5c-0.6-2.2-0.2-4.3,1.2-6.1
			c1-1.3,2.4-2.1,3.9-2.6c-0.2-0.1-0.3-0.2-0.5-0.3c-1.2-1.1-1.2-3.1-0.8-10.7C347.8,244.8,348,240.2,347.6,239z"/>
		<path class="st14" d="M270.9,330.8l18,17.4c0.8-1.2,1.9-2.2,3.2-3l-21.3-21.1C271.2,326.6,271.3,329,270.9,330.8z"/>
		<circle class="st14" cx="297.4" cy="354.2" r="6.7"/>
		<path class="st14" d="M364.4,291.1c-3.3-0.6-10.3-1.9-14.3-3.1c-1.4-0.1-3.1-0.1-3.7,0.3c-1.7,0.9-2.3,2.8-2.5,3.9
			c-0.5,1.9-0.1,3.7,0.4,4.4c1.7,2.4,5.6,3.5,8.3,3.9c0.9,0,1.7-0.1,2.2-0.2C357.3,299.8,361.2,296.1,364.4,291.1z"/>
		<path class="st14" d="M302.9,278.9c-1.2,6.9,2.4,14.4,5.5,16.8c0.7,0.6,3.1,1.1,6.5,1.7c-2-3.6-4.5-9.6-4.5-18.3
			c0-7.8,3.5-13.9,5.4-16.7c-2.8,0.1-5.4,0.4-6.1,1C306.5,266.4,304.2,271.7,302.9,278.9z"/>
		<path class="st14" d="M387.7,69.7c-37,11-97.3,79-103.3,85.8c11.5,7.4,18.4,18.5,18.4,31.7c0,17.6-11.2,31.1-29.5,37.5
			c1.2,2.6,2.5,6.7,0.1,9c-0.7,0.6-1.9,1.3-3.5,1.9c0.5,0.6,1,1.3,1.5,2l39.7-27.6c-3.6-5.7-5.3-11-5.3-15.7c0-3.2,3.9-7.3,9.7-13.4
			c1.9-2,3.8-3.9,4.8-5.1c0.6-1.5-1.8-8.3-4.1-11.9c-0.3-0.5-0.9-1.3-1.6-2.3c-3.9-5.5-5.7-8.4-6-9.9c-0.5-2.9,0.8-6.2,3.1-8.5
			c2.2-2.2,5.1-3.1,8.3-2.6c1.7,0.3,4,2.6,9.4,8.2c2.1,2.2,5.2,5.5,6.5,6.3c0.6-0.3,1.4-0.7,2.1-1.2c6.4-3.8,19.8-11.6,29.3-3.9
			c11.5,9.4,15.3,31.3,10.9,38.3c-3.8,6-36.4,35.2-42.6,36.1c-0.6,0.1-1.3,0.2-1.9,0.2c-4.6,0-10.6-2.1-15.3-5.8l-43.1,30.7
			c-0.2,0.4-0.5,0.6-0.6,0.8c15.4-5,35.2-12,56.3-20.8v-0.1c0.1,0,0.3-0.1,0.5-0.1c38.3-16.2,80.9-38.1,109.3-64.9
			c26.2-24.6,34.9-62.6,18.6-81.2C443.6,65,418.9,60.4,387.7,69.7z"/>
		<path class="st14" d="M151.8,306.6c0.1-0.1,0.3-0.3,0.5-0.3c0.1,0,0.2-0.1,0.3-0.1c0.7-0.5,1.3-0.8,1.6-1c1.7-1.7,2.9-3.9,0.5-7.8
			c-1.5-2.4-7.8-0.2-10.6,0.8c-0.9,0.3-1.5,0.6-1.9,0.6H142c-3.9,1.8-8.1,3.7-10.1,4.2c1.4,3.7,3.9,7.2,6.7,10.2
			C142.7,311.2,148.6,308.4,151.8,306.6z"/>
		<path class="st14" d="M272.5,354.7c-0.5,0.1-1.6,0.4-3,0.9c2.1,2.1,5.1,5.7,7.6,10.6c2.9,6,5.5,12.9,6.4,15.2
			c0.8-0.2,1.4-0.4,1.7-0.6c1.1-0.7-1.5-8.4-2.7-12C279.7,360.5,274.1,355.2,272.5,354.7z"/>
		<path class="st14" d="M359,275.9L359,275.9c-0.6,0-1.2,0-2.1-0.1c-2.8-0.3-9.5-0.8-10.5,1.8c-1.5,4.5,0.3,6.2,2.4,7.4
			c0.3,0.2,0.9,0.4,1.7,0.6c0.1,0,0.2,0,0.3,0c0.2,0,0.4,0.1,0.6,0.2c3.6,1,9.9,2.3,14.4,3.1c2-3.6,3.6-7.6,4-11.5
			C367.7,277.4,363.3,276.7,359,275.9z"/>
		<path class="st14" d="M355.7,261.3c-3.2-0.5-7.1-0.5-8.8,1.8c-0.8,1.1-1.1,2.6-0.7,4c0.5,1.7,1.7,3.2,3.4,3.9
			c4.6,1.9,18,3.8,20.5,4c0-0.5,0-1,0-1.5C369.4,266.8,361.5,263.3,355.7,261.3z"/>
		<path class="st14" d="M318.8,262.4c-0.5,0.6-6.1,7.4-6.1,16.7c0,9.6,3.4,16,5.3,18.7c1.2,0.2,2.4,0.4,3.7,0.5
			c-2.5-3.2-6-9.5-5.7-18.8c0.2-9.2,3.3-14.5,5.5-17.2c-0.7,0-1.7,0-2.6,0C319,262.4,318.9,262.4,318.8,262.4z"/>
		<path class="st14" d="M264.7,334.2c-1.7,7.8-4.7,17.7-9.4,17.7c-0.2,0-0.3,0-0.5,0c-3.1-0.4-4.9-2.9-5.7-5.8
			c-1,1.1-2.2,2.2-3.5,2.6c-0.3,0.1-0.6,0.2-0.9,0.2l-1.3,13.1c0.3,0.2,0.5,0.5,0.7,0.6c11.9-5.6,26.3-12.1,28.8-11.7
			c1.7,0.3,4.2,2.2,6.6,5.1l7.4-2.3c0-0.7,0.1-1.6,0.3-2.3l-18.6-18C266.9,334.6,265.6,334.5,264.7,334.2z"/>
		<path class="st14" d="M241.8,379.6c-0.1,0-0.1,0.1-0.2,0.1l-1.6,10.1c1.7,0.4,3.2,0.8,4.6,1.5L241.8,379.6z"/>
		<path class="st14" d="M240,360.1l1.3-12.6c-2.1-2.5-2.1-7.9-1.8-11.9c-0.5,0.1-0.9,0.2-1.4,0.3l-1.9,23.8c0.2,0,0.4,0,0.6,0
			C237.8,359.6,238.9,359.8,240,360.1z"/>
		<circle class="st14" cx="236.6" cy="370.3" r="7.1"/>
		<path class="st14" d="M236.6,389.2l1.3-8.4c-0.4,0.1-0.8,0.1-1.2,0.1c-0.8,0-1.7-0.1-2.5-0.3L233,389c0.4,0,0.7,0,1.1,0
			C235,389.1,235.8,389.2,236.6,389.2z"/>
		<path class="st14" d="M182.2,292.6c-3-11-9.2-14.5-10.5-15.1c-1.4,0.4-2.6,0.6-3.5,0.7c-4.5,0.6-10.7-10-10.8-10.1
			c-0.3-0.5-0.6-1.3-1.2-2.4c-1-2.1-3.3-6.9-4-7.7c-1.2-0.9-3.1-1.2-4.9-0.7c-1.1,0.3-2.6,1.1-3.3,3c-0.1,1.2,1.3,5.7,2.2,8.7
			c2.2,7.3,2.7,9.3,1.8,10.6c-0.1,0.2-0.2,0.3-0.4,0.4c1.6,0.1,3.1,0.5,4.4,1.5c1.7,1.4,2.7,3.4,2.6,5.6c0,2.5-1.3,5-3.3,6.5
			c-0.1,0.1-0.2,0.1-0.3,0.2c2.3-0.1,4.3,0.4,5.4,2.2c2.2,3.5,2.3,6.5,0.5,9.3c0.3,0,0.6,0.1,0.7,0.1c2,0.6,3.8,2.2,4.9,4.5
			s1.4,4.8,0.7,6.3c-0.5,1.1-1.2,2.1-2.1,3c5.6-1.7,12.6-4,18.8-6.4C181.3,311,185.1,303.4,182.2,292.6z"/>
		<path class="st14" d="M154.2,321.2c2.4-1.1,5.9-3.1,7.1-5.9c0.3-0.7,0.2-2.6-0.7-4.3c-0.5-1-1.6-2.7-3.4-3.2
			c-0.6-0.2-2.3,0.2-3.7,0.6c-3.6,2.1-10.1,5.1-13.1,6.5c4.3,4,9,6.7,11.7,6.5C152.5,321.5,153.3,321.4,154.2,321.2z"/>
		<path class="st14" d="M187,310.2c1.2-3.1,2.9-10.1,0.6-19.5c-2.3-9.1-9.4-14.3-9.9-14.8c-1,0.3-1.9,0.5-2.7,0.6
			c2.8,2,7.2,6.4,9.5,15.3c2.5,9,0.6,15.9-1,19.6C184.8,311.1,185.9,310.6,187,310.2z"/>
		<path class="st14" d="M195.9,305.8c2.4-3,4-11.3,1.2-17.6c-2.9-6.6-6.5-11.2-10.3-13.3c-0.8-0.5-3.4-0.1-6.2,0.6
			c2.6,2.3,7.4,7.3,9.3,14.9c2.1,8.4,1.2,14.9,0,18.8C193.1,307.5,195.3,306.4,195.9,305.8z"/>
		<path class="st14" d="M240.1,404.7l0.3-2.9c-2.2-0.4-7.3-1-10.2-1c-4.5,0-8.7,1.4-10.3,2c0.1,0.9,0.2,1.8,0.4,2.8
			c2-0.8,5.2-1.8,10-1.8C234.5,403.8,238.2,404.4,240.1,404.7z"/>
		<path class="st14" d="M227.3,443.7c-8.4,0-13.4-1.5-16.3-2.8c0.2,1.5,0.6,2.7,1.5,3.6c2.4,2.3,8.1,3,17.4,2.3
			c13.1-1,16.9-5.7,18.2-9C244.3,440.4,237.4,443.7,227.3,443.7z"/>
		<path class="st14" d="M227.3,441.4c12.4,0,19.6-5.5,21.6-7.2c0-1.4-0.2-4.4-0.4-6.8c-0.2-2.8-0.4-5.6-0.4-7.4c0-1.2,0.2-3,0.6-5.3
			c0.6-4.8,1.8-14.7-0.5-16.7c-0.6-0.6-1.4-1.2-2.1-1.7l0,0l0,0c-2.8-1.9-6.1-3.1-12.1-3.4c-7.6-0.4-14.1,1.8-14.5,3.1
			c-0.1,1.1,0,2.7,0.2,4.5c2.1-0.7,6.1-1.9,10.6-1.9c3.9,0,11.4,1.2,11.7,1.2l1.1,0.2l-0.6,8l-1.4-0.4c-0.1,0-4.8-1.2-10.7-1.2
			c-5,0-8.1,1.2-9.6,1.9c0.6,4.7,1.4,8.9,1.6,10c1.8-0.5,3.8-0.7,5.7-0.9c0.6,0,0.9-0.1,1.6-0.1c0.6,0,1.1,0.1,1.7,0.2
			c1,0.2,2,0.5,3,0.7c1,0.3,1.9,0.6,2.8,1c0.8,0.6,1.6,1.5,2.2,2.3c-1.1,0.1-2.2,0.1-3.1,0c-0.8-0.4-1.7-0.7-2.7-1
			c-0.9-0.3-1.8-0.6-2.7-0.6c-0.5-0.1-0.9-0.1-1.3-0.1c-0.4,0-0.9,0.1-1.4,0.1c-1.9,0.2-3.8,0.5-5.6,0.9c-0.8,0.2-1.6,0.5-2.3,0.7
			c-3.4,2.8-9.2,8.6-9.2,13.6c0,0.7,0,1.5-0.1,2.2c0,0.4,0,0.7,0,1.1C213,439.4,218,441.4,227.3,441.4z"/>
		<path class="st14" d="M247.2,381.3c-0.6-2.2-1.1-3.9-1.6-5.3c-0.2,0.4-0.5,0.6-0.6,0.9l4.2,17.2c0.5,0.4,0.9,0.7,1.4,1.2
			c2.1,1.9,2.6,5.5,2.5,10.2c0.7,0.7,1.9,1.8,2.8,1.8c0.6,0,1.2,0,1.9,0c-1.6-1.7-3.3-4.2-5-8.4
			C250.9,394.1,248.7,386.7,247.2,381.3z"/>
		<path class="st14" d="M261.8,358.8c-4.6,2-10.1,4.5-15.4,7c0.6,1.4,1,2.8,1,4.5c0,0.6-0.1,1.2-0.2,1.7c1.4,5.1,5.1,18.7,8,26
			c2.1,5.2,4.5,7.8,5.9,8.8c1.9-0.4,4.1-1.2,6-2.8c2.5-2.1,2.5-11.8,1.7-18.2l-0.2-1.7l1.7-0.3c1.8-0.3,3.7-0.6,5.5-0.8
			c-0.6-1.8-2.3-6.9-5.1-12.6C267.6,364.3,263.2,360.1,261.8,358.8z"/>
		<path class="st14" d="M267,356.6c-0.9,0.4-1.8,0.7-2.8,1.2c2,1.9,5.8,5.9,8.5,11.6c3.1,6.3,4.9,11.7,5.4,13.2
			c1.1-0.2,2.1-0.4,3-0.6c-0.9-2.6-3.4-9-6.2-14.7C272.3,362.1,268.9,358.5,267,356.6z"/>
		<path class="st15" d="M222.2,200.9C222.3,200.9,222.3,200.9,222.2,200.9c8.6,0,9.9-5.7,9.9-5.9c0.1-0.6-0.3-1.3-0.9-1.4
			c-0.6-0.2-1.3,0.3-1.5,0.9c0,0.2-1,3.9-7.5,3.9l0,0c-4.8,0-6.4-4.5-6.5-4.7c-0.2-0.6-0.9-1-1.6-0.7c-0.6,0.2-1,0.9-0.7,1.6
			C214.2,196.7,217.1,200.9,222.2,200.9z"/>
		<path class="st15" d="M285.6,193.9c-0.6-0.2-1.3,0.3-1.5,0.9c0,0.2-1,3.9-7.5,3.9l0,0c-4.8,0-6.4-4.5-6.5-4.7
			c-0.2-0.6-0.9-1-1.6-0.7c-0.6,0.2-1,0.9-0.7,1.6c0.7,2.2,3.6,6.3,8.8,6.3l0,0c8.6,0,9.8-5.7,9.9-5.9
			C286.6,194.6,286.3,194,285.6,193.9z"/>
		<path class="st15" d="M251.6,215.7c9.1,0,13.3-3.3,13.5-3.5c0.6-0.5,0.6-1.2,0.2-1.7c-0.5-0.6-1.2-0.6-1.7-0.2
			c0,0-3.8,2.9-11.9,2.9l0,0c-5.2,0-11-3-11.1-3c-0.6-0.3-1.3-0.1-1.7,0.6c-0.3,0.6-0.1,1.3,0.6,1.7
			C239.6,212.5,245.8,215.7,251.6,215.7L251.6,215.7z"/>
		<path class="st15" d="M462.1,80.6c-11.7-13.3-34.1-26.7-75.4-14.4c-39.6,11.7-102.1,83.6-105.4,87.5c-2.8-1.6-6.1-2.9-9.4-4
			l1.9-10l-3.2-0.6v-14.3c1.7-1.6,5.7-5.4,6.2-7.5c0.4-1.8-0.4-4.5-0.7-5.7c12.9-14.4,12.7-15.6,12.6-16.2c-0.1-0.9-1.1-1.9-2.1-2.8
			c23-7.4,22.7-9.3,22.4-10.4c-0.4-1.6-3.1-3.2-6-4.5c27.5-6,27.3-8.5,27.2-9.6c-0.3-2.7-7.3-6.1-12.8-8.3c8-5,7.3-6.6,6.9-7.3
			c-0.6-1.3-1.3-2.6-34.2,6.6c-8.1,2.3-14.8,9.4-18,13.2c-0.6-7.6-2.1-7.8-2.8-7.8c-1.7-0.2-2.8,1.9-6.2,10.2
			c-1.2,2.8-2.5,5.8-3.5,7.6c-1.9,3.6-1.9,11.7-1.7,16.7c-1.2-1.2-2.6-2-4-1.6c-2.4,0.8-1.4,4.8,1.9,15c1,3.1,1.9,6,2.4,7.9
			c1.1,4.7,3.4,13.3,4.4,16.9l-2.3-0.5l-1.8,9.7c-3.3-0.4-6.6-0.6-10.1-0.6c-2.8,0-5.6,0.1-8.3,0.4l-2.4-8.7l-3.2,0.8
			c0.4-2.7,0.9-8,0.6-9.7c-0.4-2.1-3.6-5.1-5-6.3c0.3-2.8,1.2-12.2-0.2-15.4c-0.4-0.9-1.1-1.6-2-1.7c-1.7-0.5-3.9,0.6-5.5,1.5
			c0.2-5.6,0.4-19.5-2.1-25.7c-1.4-3.4-8.2-20.3-12.1-18.8c-1.6,0.6-2.8,4.2-3.7,10.9c-3.9-5.7-12.9-18.4-20.6-21.6
			c-8.4-3.6-13.7-1.1-15.2-0.2c-4.4-0.9-16.2-3-18.4,0.7c-0.2,0.4-0.5,1-0.2,1.8c1.1,3.3,11.6,8.5,18,11.5c-6,0.6-11.4,1.8-11.4,4.5
			c0,1.1,0,2.8,14.5,7.4c3.1,1,6.2,1.9,8.7,2.7c-3.8,0.9-7.3,2.5-7.2,4.9c0.3,2.5,4.1,3.6,10.6,5c2.4,0.6,4.9,1.1,5.8,1.7
			c1.8,1,6.5,3.7,9.8,5.6c-5.3,0.6-5.4,2-5.5,2.7c-0.1,0.7-0.2,2.1,16.7,14.6c-1,1.7-2.5,4.9-0.7,6.6c0.8,0.8,2.7,1.8,4.7,3
			c2.2,1.3,4.8,2.8,6,3.9c3,3,6.6,10.6,7.4,12.3l-3.8,1l1.8,7.6c-5.1,1.5-9.7,3.5-13.8,6c-3.8-4-62.9-66.2-115.1-76.2
			c-35.1-6.8-53.8,7.6-61.8,16.8c-11.4,12.9-15.5,31-10.5,46c10.4,31.1,42.2,61.2,87.6,82.7c15,7.1,37.8,14.1,58.8,19.9
			c-21.1-1.4-52.9-1.9-69.8,4.8c-21.5,8.4-34.3,29.5-31.2,51c2.7,18.3,18,38.9,53.2,42c4.7,0.5,9.3,0.6,13.7,0.6
			c43,0,73.8-18.2,85.6-26.5c-0.6,2.4-0.6,4.5,0.5,5.9c2.1,2.8,6.5,2.6,9.9,1.8c-1.5,3.4-2.8,8-0.2,10.5c0.6,0.6,1.2,1,1.9,1.3
			l-2,25.2c-3.8,1.7-6.4,5.4-6.4,9.8c0,3.7,1.9,7,4.8,8.9l-1.4,10c-6.4,0.5-13.2,2.5-13.5,6.5c-0.3,5.3,1.8,18.5,2.6,22.4
			c-2.8,2.3-11.1,9.5-11.1,16.9c0,0.7,0,1.4-0.1,2.1c-0.1,3.7-0.3,7.4,2.7,10.2c2.5,2.4,6.9,3.6,13.8,3.6c1.9,0,4.1-0.1,6.5-0.3
			c13.1-1,20.5-5.8,22-14.2c0-0.2,0.1-0.3,0.1-0.4c0.3-1,0.2-3.3-0.2-8.6c-0.2-2.7-0.4-5.5-0.4-7.3c0-1,0.2-2.8,0.5-4.9
			c0.2-1.8,0.5-3.6,0.6-5.2c0.9,0.6,2,1,3.2,1c2.6,0,8.5,0,13.4-4c4.2-3.5,3.6-14.8,3.1-19.6c4.8-0.6,12.9-2,14.8-3.3
			c3.1-2.2,1.7-7.1-1.4-16.2c-0.2-0.5-0.4-0.9-0.6-1.5l8.4-2.5c1.1,0.5,2.3,0.6,3.6,0.6c5.7,0,10.3-4.6,10.3-10.3
			c0-5.7-4.6-10.3-10.3-10.3c-0.5,0-0.9,0-1.4,0.1l-25.8-25.6c1.3,0.2,2.7-0.1,3.9-1.2c1.3-1.1,1.5-3.1,1.1-5.6
			c4.6,1.2,17.4,4,37.1,5.9c4.9,0.5,10.9,0.7,17.8,0.7c28.5,0,69.6-4.8,85.8-22c11.2-11.8,15.9-28.4,12.1-43.2
			c-3.3-13.5-13.1-23.7-27.4-28.5c-12.3-4.2-36.4-1.3-52.8,1.6c34.3-15.4,70.2-35.2,95.3-58.9c12.8-12,22.3-28.1,26.2-44.2
			C473.4,105.8,470.9,90.8,462.1,80.6z M271.4,151.9c17.6,6.1,28.9,19,28.9,35.2c0,20.7-15.5,32.5-34.4,36.9l-1.4-4.9h-0.1
			c3.9-2,7.3-4.8,10-8c0.6,0.1,1.3,0.1,1.9,0.1c9.5,0,17.3-7.8,17.3-17.3c0-8.4-6.2-15.5-14.1-17.1c-2.4-5.2-6.1-9.7-10.6-13.2
			c0.2-0.2,0.3-0.5,0.3-0.7L271.4,151.9z M358.4,183.4c0.2-0.8,1.7-2.3,2.8-3.3c4.1-2.4,11-7.3,14-9.5c1.7,6.7,1.7,12.9,0,15.5
			c-0.3,0.5-0.7,1.1-1.3,1.7c-2.4,1.8-6.5,4.3-10.1,3.9c-1-0.1-2.7-1.3-4-3.1C359.1,187.6,358,185.5,358.4,183.4z M360.4,177.7
			c-0.2,0-0.4,0.1-0.6,0.3c-0.1,0.1-0.2,0.1-0.3,0.2c-0.8,0.5-1.6,0.8-1.9,0.9c-2.7,0.7-5.5,0.8-8.1-3.9c-1.6-2.8,4.2-8,6.7-10.1
			c0.8-0.6,1.4-1.2,1.7-1.6v-0.1c4.2-2.9,8.4-6.2,9.9-7.8l0,0l0,0l0,0c2.9,3.5,5,8,6.4,12.6C370.3,171.3,364.1,175.5,360.4,177.7z
			 M347,167.7c-1.8,0.8-4.1,0.7-6-0.3c-1.6-0.8-2.5-2.2-2.8-3.9c-0.6-3.4,2.8-6.8,5.9-9.1c6.2-3.3,15.1-6.7,21-1.8
			c0.5,0.4,0.9,0.8,1.4,1.3C364.9,155.2,352.2,165.4,347,167.7z M335.8,164c0.4,2.4,1.8,4.4,3.9,5.6c1.4,0.7,2.9,1.1,4.5,1.1
			c1.3,0,2.5-0.3,3.7-0.7c0.2-0.1,0.6-0.3,0.9-0.5c-1.6,2.3-2.4,4.7-1.2,6.9c2.4,4.4,5.3,5.6,7.8,5.6c0.4,0,0.7,0,1.1-0.1
			c-0.2,0.4-0.4,0.6-0.4,1c-0.6,2.3,0,4.8,1.7,7.2c1.6,2.3,3.9,3.9,5.7,4.2c0.4,0.1,0.7,0.1,1.1,0.1c1.3,0,2.6-0.3,3.8-0.6
			c-4.8,4.7-11.3,10.5-17.3,15.4c-2,0.1-12,0-21.4-9.4c-9.5-9.5-9.2-17.9-9.1-19c1-1.1,1.9-2.1,2.6-2.9c2.8-3.6-3-14.5-3.9-16
			c-0.3-0.5-0.9-1.4-1.7-2.5c-1.5-2.1-5-7.2-5.3-8.4c-0.3-1.7,0.6-3.9,2-5.4c0.8-0.8,2.2-1.7,4-1.7c0.3,0,0.6,0,1,0.1
			c1.1,0.5,5,4.4,7.4,7.1c5.9,6.2,7.6,7.7,9.3,7.6c0.3,0,0.6-0.1,1-0.3C336,160.1,335.5,161.9,335.8,164z M318.2,183.2
			c0.4,3.8,2.2,10.6,9.7,18.2c7.7,7.7,15.8,9.5,20.2,10c-1.3,1-2.5,2-3.7,2.9c-3.7-0.6-11.7-2.7-19.7-10.4c-7.9-7.5-9-18-9-18.2
			h-0.1c0.8-0.9,1.7-1.7,2.4-2.5C318.1,183.3,318.2,183.2,318.2,183.2z M313.7,188c0.7,3.6,2.9,11.5,9.5,17.7
			c7.3,6.9,14.3,9.5,18.8,10.6c-3.3,2.5-5.9,4.1-6.9,4.3c-4.4,0.6-13.5-2.3-18.3-8.7c-4.9-6.6-7.4-12.7-7.4-17.7
			C309.4,193,311.4,190.5,313.7,188z M313.9,214c0.6,0.7,1.1,1.4,1.7,2l-40.3,28.6c-0.5-1.3-1.2-2.8-2-4.1l39.8-27.6
			C313.4,213.3,313.6,213.6,313.9,214z M246.7,235.4c-11.3-0.1-22.1-4.7-23.2-6.6c0-1.2,0.6-2.7,1.1-3.7c7,2.2,15,3.4,23.7,3.4
			c7.9,0,15.1-1,21.6-2.8c1.1,2.3,1.7,4.7,1.1,5.2C269.1,232.4,259.2,235.4,246.7,235.4z M217.6,183.1c1.7-0.8,3.7-1.4,5.7-1.4
			c7.2,0,12.9,5.8,12.9,12.9c0,7.2-5.8,12.9-12.9,12.9c-0.2,0-0.3,0-0.5,0c-1.9-0.1-3.7-0.6-5.3-1.4c-4.2-2.1-7.2-6.5-7.2-11.6
			c0-3.1,1.1-6,2.9-8.2C214.5,185.2,216,184,217.6,183.1z M239.9,194.8c0-9.2-7.4-16.6-16.6-16.6c-1.5,0-2.8,0.2-4.2,0.6
			c3.9-9,12.3-15.7,22.6-17.7c0.1,0,0.3,0,0.4-0.1h0.1c1.8-0.4,3.8-0.6,5.7-0.6c12.1,0,22.6,6.6,27.7,16.2
			c-9.1,0.6-16.3,8.1-16.3,17.3c0,7.4,4.7,13.8,11.3,16.2c-5.7,5.8-13.8,9.5-22.7,9.5c-8.5,0-16.2-3.3-21.8-8.5
			C233.9,209.9,239.9,203,239.9,194.8z M276.5,207.7c-1.2,0-2.3-0.2-3.5-0.5c-5.9-1.6-10.3-6.9-10.3-13.2c0-7.5,6.2-13.7,13.7-13.7
			c0.2,0,0.4,0,0.6,0c1.5,0.1,2.8,0.4,4.1,0.8c5.2,1.9,9,7,9,12.9c0,7.3-5.8,13.3-13,13.7C277,207.7,276.7,207.7,276.5,207.7z
			 M235.3,221.1c3.9,1.5,8.1,2.2,12.5,2.2c4.8,0,9.3-0.9,13.4-2.6l1.1,4c-4.6,0.8-9.4,1.2-14.1,1.2c-5,0-10-0.5-14.9-1.4
			L235.3,221.1z M260.4,119.8c-0.5-2-1.5-5-2.5-8.2c-1.3-3.9-3.3-10.1-3.2-11.9c0.8,0.3,2.3,2,3.4,3.9l2.8,5.2l-0.6-6
			c-0.4-4.1-1-15.8,1.1-19.6c1.1-1.9,2.3-5,3.6-7.9c1.1-2.7,2.8-6.4,3.7-8.1c0.5,1.7,0.8,5.1,0.9,8.2l0.1,3.7l2.1-3
			c0.1-0.1,8.4-12.1,18.7-15c20.4-5.7,27.8-7.2,30.6-7.4c-1.5,1.3-4.4,3.3-7.1,5l-2.1,1.3l2.3,0.9c6.4,2.5,12.2,5.6,13.3,6.9
			c-2.4,1.7-16.2,5.3-28.9,8l-4,0.8l3.9,1.5c3.4,1.3,6.7,3,7.7,3.9c-2.4,1.7-13,5.5-22.9,8.6l-2.6,0.8l2.3,1.4
			c1.3,0.8,2.6,1.8,2.9,2.3c-1,1.7-6.9,8.7-12.4,15l-0.5,0.6l0.3,0.7c0.4,0.8,1.2,3.7,0.9,5c-0.2,1.1-3.2,4.2-5.8,6.6l-0.4,0.4v15
			l-3.1-0.6C264.4,135.5,261.6,125.1,260.4,119.8z M263.1,141.1l6.5,1.3l-1.2,6.2c-2.1-0.6-4.2-1.1-6.5-1.5L263.1,141.1z
			 M259.7,158.4l1.7-9c2.2,0.4,4.4,0.9,6.5,1.5l-2.1,10.8c-1.9-1.2-4-2.1-6.2-2.9C259.7,158.7,259.7,158.5,259.7,158.4z
			 M248.2,148.3c3.3,0,6.6,0.2,9.6,0.6l-1.7,8.8v0.1c-2.7-0.6-5.5-1-8.4-1c-1.7,0-3.3,0.1-4.9,0.4l-2.4-8.4
			C243,148.4,245.6,148.3,248.2,148.3z M239.4,157.8c-2.5,0.6-4.8,1.5-7.1,2.6l-2.5-10.1c2.3-0.6,4.7-0.9,7.2-1.3L239.4,157.8z
			 M235.1,141.9l1.3,4.7c-2.5,0.3-4.8,0.7-7.1,1.3l-1-4.1L235.1,141.9z M221.9,126.1c-1.5-1.5-3.9-2.9-6.4-4.3c-1.7-1-3.5-2-4.1-2.7
			c-0.5-0.5,0.4-2.7,1.7-4.5l0.7-1l-1-0.7c-6.9-5-14.3-10.9-16.2-13c1.2-0.4,4-0.7,6.7-0.8l4.2-0.2l-3.7-2.1
			c-0.1-0.1-10.3-6-13.2-7.6c-1.3-0.7-3.7-1.3-6.4-1.9c-2.7-0.6-8.3-1.9-8.7-2.8c0.4-1,5.1-2.6,10.2-3.3l5.9-0.8l-5.7-1.6
			c-11.4-3-24.3-7.3-26.3-9.2c1.2-1,7.4-2.1,13.9-2.4l5.3-0.2l-5-2.1c-9.8-4.2-20.6-9.9-21.2-11.9c1.2-1.5,9.4-0.8,16.2,0.6l0.6,0.1
			l0.5-0.4c0.2-0.2,4.7-3.5,13.3,0.2c9.1,3.8,21.1,23.2,21.2,23.4l1.8,3l0.4-3.5c0.6-4.9,1.7-10.6,2.5-12.1
			c1.7,1.4,5.8,8.8,9.1,17.3c2.8,7.3,1.8,26.9,1.8,27.1l-0.2,2.7l2.1-1.6c1.5-1.2,4.3-2.7,5.5-2.4c0.2,0,0.3,0.1,0.4,0.4
			c0.9,2.2,0.5,10.3-0.1,14.9l-0.1,0.6l0.5,0.5c2.1,1.7,4.4,4.3,4.6,5.3c0.3,1.4-0.3,6.6-0.7,10l-1.8,0.5
			C229.8,139.1,225.6,129.9,221.9,126.1z M226.2,151.1l2.8,11c-6.9,4.3-12.1,10.8-14.5,18.5c-4.7,2.9-7.7,8.1-7.7,14
			c0,8.4,6.2,15.2,14.2,16.4c3,3.5,6.7,6.3,10.9,8.4l-2.4,4.2c-18.6-4.5-33.7-16.3-33.7-36.7C196,169.6,207.3,156.6,226.2,151.1z
			 M113.6,220.7C69.2,199.8,38,170.4,28,140.2c-4.6-13.8-0.7-30.5,9.8-42.5c7.5-8.6,25.2-22,58.4-15.7
			c49.2,9.5,106.8,68.4,112.8,74.7c-9.8,7.2-15.3,17.6-15.3,30.4c0,17,10.4,30.1,27.4,36.7c-0.6,1.5-1.4,3.4-1.2,5.2
			c0.2,2.3,3.8,4.7,8.6,6.5c-1.3,1.7-2.8,3.9-3.6,5.9l-32.8-27.1l-0.5,0.6c2.5-4.7,3.8-9,3.7-12.9c0-3.2-3.9-7.3-9.7-13.4
			c-1.9-2-3.8-3.9-4.8-5.1c-0.6-1.5,1.8-8.3,4.1-11.9c0.3-0.5,0.9-1.3,1.7-2.4c3.9-5.5,5.7-8.4,5.9-9.8c0.5-2.9-0.8-6.2-3.1-8.5
			c-2.2-2.2-5.1-3.1-8.3-2.6c-1.7,0.3-4,2.6-9.4,8.2c-2.1,2.2-5.2,5.5-6.5,6.3c-0.6-0.3-1.4-0.7-2.1-1.2
			c-6.4-3.8-19.8-11.6-29.3-3.9c-11.5,9.4-15.3,31.3-10.9,38.3c3.8,6,36.4,35.2,42.6,36.1c0.6,0.1,1.3,0.2,1.9,0.2
			c5.6,0,13.3-3.1,18.3-8.5l35.3,29.1C210,250.2,144.5,235.3,113.6,220.7z M224.4,250.7L188,220.8c0.8-1.1,1.6-2.2,2.2-3.3
			l34.3,28.4c0.5,1,1.1,1.7,1.8,2.2C225.7,248.9,225.1,249.8,224.4,250.7z M157.1,162.3c3.1,2.3,6.3,5.7,5.8,9.1
			c-0.3,1.7-1.3,3-2.8,3.9c-1.8,1-4,1.1-6,0.3c-5.3-2.3-18-12.5-19.6-13.8c0.5-0.5,0.9-0.9,1.4-1.3c2.1-1.7,4.7-2.4,7.3-2.4
			C148.1,158.1,153.2,160.2,157.1,162.3z M133.2,163.4C133.2,163.5,133.2,163.5,133.2,163.4c1.6,1.7,5.8,4.9,9.9,7.8
			c0,0,0,0.1,0.1,0.1c0.3,0.4,0.8,0.8,1.7,1.6c2.5,2.2,8.3,7.3,6.7,10.1c-2.6,4.8-5.4,4.7-8.1,3.9c-0.4-0.1-1.1-0.5-1.9-0.9
			c-0.1-0.1-0.2-0.2-0.3-0.2c-0.2-0.1-0.4-0.2-0.6-0.3c-3.7-2.2-9.7-6.5-14-9.5C128.1,171.5,130.2,167,133.2,163.4z M126,194
			c-1.6-2.6-1.7-8.8,0-15.5c2.9,2.1,9.7,7,14,9.5c1.1,0.9,2.5,2.5,2.7,3.3c0.6,2.1-0.6,4.2-1.3,5.2c-1.3,1.9-3,3-4,3.1
			c-3.5,0.5-7.6-2.1-10.1-3.9C126.7,195.1,126.4,194.4,126,194z M136.6,202.1c0.4,0,0.7,0,1.1-0.1c1.8-0.3,4.1-1.9,5.7-4.2
			c1.7-2.4,2.2-4.9,1.7-7.2c-0.1-0.3-0.3-0.6-0.4-1c0.4,0.1,0.7,0.1,1.1,0.1c2.6,0,5.4-1.2,7.8-5.6c1.2-2.2,0.4-4.6-1.2-6.9
			c0.4,0.2,0.6,0.4,0.9,0.5c1.1,0.5,2.4,0.7,3.7,0.7c1.6,0,3.1-0.4,4.5-1.1c2.2-1.2,3.6-3.2,3.9-5.6c0.3-2-0.2-3.9-1.2-5.6
			c0.4,0.2,0.6,0.3,1,0.3c1.7,0.2,3.4-1.5,9.3-7.6c2.6-2.7,6.3-6.7,7.3-7.1c2.5-0.4,4.1,0.6,5.1,1.7c1.5,1.5,2.3,3.7,2,5.4
			c-0.3,1.2-3.8,6.2-5.3,8.4c-0.7,1.1-1.4,2-1.7,2.5c-0.9,1.6-6.7,12.4-3.9,16l0,0c0.6,0.8,1.6,1.8,2.6,2.9c0.1,1.1,0.5,9.5-9.1,19
			c-9.4,9.3-19.4,9.5-21.4,9.4c-6.1-5-12.5-10.8-17.3-15.4C134.1,201.9,135.4,202.1,136.6,202.1z M173.2,209.2
			c7.5-7.5,9.4-14.4,9.7-18.2l0.1,0.1c0.7,0.7,1.6,1.6,2.4,2.5h-0.1c0,0.1-1.1,10.6-9,18.2c-8.1,7.6-16.1,9.7-19.7,10.4
			c-1.2-0.9-2.4-1.8-3.7-2.9C157.4,218.8,165.5,216.9,173.2,209.2z M178.1,213.5c6.6-6.2,8.7-14.1,9.5-17.7c2.3,2.5,4.2,5,4.2,6.2
			c0,5-2.6,11.1-7.4,17.7c-4.8,6.4-13.9,9.5-18.3,8.7c-1-0.2-3.5-1.8-6.9-4.3C163.7,223.1,170.8,220.4,178.1,213.5z M123.4,338.2
			c-33.1-2.9-47.5-22-49.9-39c-2.8-19.9,9-39.3,28.9-47.1c25.5-10,88.6-2.8,89.2-2.7l0,0c14.3,3.6,25.5,6.2,29.1,6.9
			c-0.8,1.4-1.4,2.5-1.5,3.1c-0.1,0.6,0.1,1.4,0.6,1.9c0.7,0.8,2.2,1.4,3.9,1.7c-9.1,6.6-8.2,8.9-7.8,9.8c0.1,0.2,0.2,0.4,0.4,0.6
			l-19.1,7.2c-2.6-4.1-5.5-7.2-8.6-9c-2.6-1.4-7.4-0.3-14.7,1.7c-2.4,0.6-4.6,1.2-6,1.4c-1.4-0.3-5.5-5-7.3-8.3
			c-0.2-0.5-0.6-1.3-1.1-2.3c-2.7-5.5-3.9-8.1-5-9c-2.1-1.7-5.3-2.2-8.1-1.4c-2.8,0.7-4.8,2.7-5.8,5.4c-0.6,1.6,0.2,4.3,2.2,10.9
			c0.7,2.5,1.9,6.2,2,7.6c-0.5,0.3-1.1,0.6-1.7,1c-5.3,3.1-17.7,10.3-15.9,21.1c2.1,12.9,17.2,25.2,24.7,25.2c0.1,0,0.2,0,0.3,0
			c6.2-0.3,43.1-12.8,46.5-17.2c2.8-3.5,4.3-10.4,3.1-16.8l15.7-5.9c-0.5,1.7-0.1,2.4,0.2,2.8c1.3,2.1,5.1,2.2,8.9,1.7
			c-5.7,7.3-7.8,11.9-6.3,14.1c1.4,2,4.3,2.2,6.9,1.8c-0.7,1.2-1.4,2.4-2,3.7C221.1,312.7,182.2,343.4,123.4,338.2z M219.7,280.7
			L219.7,280.7l-19,7.1c-0.1-0.4-0.3-0.7-0.5-1.1c-0.5-1-0.9-1.9-1.4-2.8l23.1-8.6l0,0c0.6,0,1.2-0.1,1.9-0.2
			C222.1,277.2,220.7,279.2,219.7,280.7z M141.6,283.8c3-1.3,6.8-2.2,9-0.4c1.1,0.9,1.7,2.2,1.7,3.7c0,1.7-0.9,3.6-2.3,4.6
			c-3.9,3-16.5,8.1-18.9,8.9c-0.1-0.5-0.3-1-0.3-1.5C129.7,292.5,136.4,287.1,141.6,283.8z M142,298.7L142,298.7
			c0.6-0.1,1.1-0.3,2-0.6c2.8-0.9,9.1-3.1,10.6-0.8c2.5,3.9,1.3,6.1-0.5,7.8c-0.3,0.3-0.8,0.6-1.6,1c-0.1,0-0.2,0.1-0.3,0.1
			c-0.2,0.1-0.4,0.2-0.5,0.3c-3.2,1.8-9.1,4.6-13.3,6.5c-2.8-2.9-5.3-6.5-6.7-10.2C133.9,302.4,137.9,300.6,142,298.7z M153.5,308.4
			c1.4-0.5,3-0.8,3.7-0.6c1.8,0.6,2.9,2.2,3.4,3.2c0.8,1.7,1,3.6,0.7,4.3c-1.1,2.8-4.6,4.8-7.1,5.9c-0.9,0.2-1.7,0.3-2.2,0.3
			c-2.6,0.1-7.3-2.5-11.7-6.5C143.4,313.6,149.9,310.6,153.5,308.4z M163.5,316.2c0.6-1.6,0.4-4-0.7-6.3s-2.8-3.9-4.9-4.5
			c-0.2-0.1-0.5-0.1-0.7-0.1c1.8-2.8,1.7-5.8-0.5-9.3c-1.1-1.8-3.1-2.3-5.4-2.2c0.1-0.1,0.2-0.1,0.3-0.2c2-1.5,3.2-4,3.3-6.5
			c0-2.3-0.9-4.2-2.6-5.6c-1.3-1-2.8-1.5-4.4-1.5c0.1-0.1,0.3-0.3,0.4-0.4c0.9-1.3,0.4-3.3-1.8-10.6c-0.9-3-2.3-7.5-2.2-8.7
			c0.7-1.9,2.2-2.8,3.3-3c1.7-0.5,3.7-0.2,4.9,0.7c0.7,0.7,3.1,5.6,4,7.7c0.6,1.1,0.9,1.9,1.2,2.4c0.1,0.1,6.3,10.7,10.8,10.1
			c0.9-0.1,2.1-0.4,3.5-0.7c1.2,0.6,7.4,4,10.5,15.1c2.9,10.8-0.9,18.5-2,20.3c-6.2,2.4-13.2,4.8-18.8,6.4
			C162.3,318.4,163,317.3,163.5,316.2z M184.5,291.9c-2.4-8.8-6.8-13.2-9.5-15.3c0.8-0.2,1.7-0.5,2.7-0.6c0.6,0.5,7.6,5.7,9.9,14.8
			c2.4,9.4,0.6,16.3-0.6,19.5c-1.1,0.5-2.2,0.9-3.4,1.4C185.1,307.9,187,301,184.5,291.9z M189.9,290.2c-1.9-7.5-6.7-12.6-9.3-14.9
			c2.8-0.6,5.3-1,6.2-0.6c3.8,2.1,7.3,6.7,10.3,13.3c2.8,6.4,1.2,14.6-1.2,17.6c-0.6,0.6-2.8,1.8-5.9,3.2
			C191.1,305,192,298.4,189.9,290.2z M238.1,335.9c0.5-0.1,0.9-0.1,1.4-0.3c-0.4,4-0.3,9.5,1.8,11.9l-1.3,12.6
			c-1.1-0.4-2.2-0.6-3.4-0.6c-0.2,0-0.4,0-0.6,0L238.1,335.9z M268.7,333.7l18.6,18c-0.2,0.7-0.3,1.5-0.3,2.3l-7.4,2.3
			c-2.4-2.9-4.9-4.9-6.6-5.1c-2.6-0.5-16.9,6.1-28.8,11.7c-0.3-0.3-0.5-0.5-0.7-0.6l1.3-13.1c0.3,0,0.6-0.1,0.9-0.2
			c1.3-0.5,2.5-1.5,3.5-2.6c0.8,2.8,2.6,5.4,5.7,5.8c0.2,0,0.3,0,0.5,0c4.8,0,7.8-9.9,9.4-17.7C265.6,334.5,266.9,334.6,268.7,333.7
			z M241.7,379.7c0.1,0,0.1-0.1,0.2-0.1l2.9,11.7c-1.4-0.6-2.9-1.1-4.6-1.5L241.7,379.7z M229.5,370.3c0-3.9,3.1-7.1,7.1-7.1
			c3.9,0,7.1,3.1,7.1,7.1c0,3.9-3.1,7.1-7.1,7.1C232.8,377.3,229.5,374.2,229.5,370.3z M234.1,380.7c0.8,0.2,1.7,0.3,2.5,0.3
			c0.5,0,0.8,0,1.2-0.1l-1.3,8.4c-0.7-0.1-1.6-0.2-2.5-0.2c-0.4,0-0.7,0-1.1,0L234.1,380.7z M219.8,402.8c1.7-0.6,5.8-2,10.3-2
			c2.8,0,8,0.7,10.2,1l-0.3,2.9c-1.9-0.4-5.6-0.9-9.9-0.9c-4.7,0-8,1-10,1.8C220,404.6,219.9,403.7,219.8,402.8z M210.9,434.9
			c0-5,5.8-10.7,9.2-13.6c0.7-0.3,1.6-0.6,2.3-0.7c1.8-0.5,3.7-0.7,5.6-0.9c0.5,0,1-0.1,1.4-0.1c0.4,0,0.8,0.1,1.3,0.1
			c0.9,0.2,1.7,0.4,2.7,0.6c0.9,0.3,1.8,0.6,2.7,1c1,0.1,2,0.1,3.1,0c-0.6-0.9-1.4-1.7-2.2-2.3c-0.9-0.3-1.9-0.7-2.8-1
			c-1-0.3-1.9-0.6-3-0.7c-0.6-0.1-1.1-0.2-1.7-0.2c-0.6,0-1,0.1-1.6,0.1c-1.9,0.2-3.8,0.5-5.7,0.9c-0.2-1.1-0.9-5.3-1.6-10
			c1.6-0.7,4.7-1.9,9.6-1.9c6,0,10.6,1.2,10.7,1.2l1.4,0.4l0.6-8l-1.1-0.2c-0.3-0.1-7.7-1.2-11.7-1.2c-4.4,0-8.4,1.2-10.6,1.9
			c-0.2-1.7-0.2-3.3-0.2-4.5c0.4-1.3,6.9-3.6,14.5-3.1c6.1,0.4,9.4,1.5,12.1,3.4l0,0l0,0c0.7,0.6,1.4,1.1,2.1,1.7
			c2.3,2.1,1,12,0.5,16.7c-0.3,2.3-0.6,4.1-0.6,5.3c0,1.8,0.2,4.7,0.4,7.4c0.2,2.3,0.4,5.4,0.4,6.8c-1.9,1.7-9.3,7.2-21.6,7.2
			c-9.3,0-14.1-1.9-16.4-3.1c0-0.4,0-0.7,0-1.1C210.9,436.4,210.9,435.7,210.9,434.9z M229.8,446.8c-9.4,0.7-15.1,0-17.4-2.3
			c-0.9-0.9-1.4-2.1-1.5-3.6c2.9,1.4,8,2.8,16.3,2.8c10.2,0,17.1-3.5,20.7-6C246.7,441.1,243,445.8,229.8,446.8z M256,407.2
			c-0.9,0-2.2-1.1-2.8-1.8c0.2-4.7-0.4-8.3-2.5-10.2c-0.5-0.5-0.9-0.8-1.4-1.2l-4.2-17.2c0.3-0.3,0.5-0.6,0.6-0.9
			c0.4,1.5,0.9,3.2,1.6,5.3c1.6,5.4,3.8,12.8,5.7,17.5c1.7,4,3.5,6.7,5,8.4C257.2,407.2,256.4,407.2,256,407.2z M270.2,383.8
			l-1.7,0.3l0.2,1.7c0.8,6.3,0.7,16.1-1.7,18.2c-1.9,1.6-4,2.4-6,2.8c-1.4-1.1-3.8-3.6-5.9-8.8c-2.9-7.2-6.7-20.7-8-26
			c0.1-0.6,0.2-1.2,0.2-1.7c0-1.6-0.4-3.1-1-4.5c5.3-2.5,10.8-5,15.4-7c1.6,1.4,5.8,5.4,8.9,11.7c2.8,5.8,4.6,10.8,5.1,12.6
			C273.9,383.3,272,383.6,270.2,383.8z M278.1,382.6c-0.5-1.6-2.2-6.9-5.4-13.2c-2.8-5.7-6.5-9.6-8.5-11.6c1-0.5,1.9-0.8,2.8-1.2
			c1.9,1.8,5.3,5.5,7.9,10.7c2.8,5.7,5.2,12.1,6.2,14.7C280.2,382.2,279.2,382.4,278.1,382.6z M285.2,381c-0.3,0.2-0.8,0.4-1.7,0.6
			c-0.8-2.4-3.4-9.2-6.4-15.2c-2.5-4.9-5.5-8.5-7.6-10.6c1.5-0.6,2.5-0.8,3-0.9c1.6,0.4,7.2,5.8,9.9,14.1
			C283.7,372.5,286.3,380.1,285.2,381z M283.9,362.9c-0.6-1.2-1.3-2.4-2-3.5l5.8-1.7c0.5,1.3,1.2,2.5,2.2,3.5L283.9,362.9z
			 M297.4,347.5c3.7,0,6.7,3,6.7,6.7s-3,6.7-6.7,6.7s-6.7-3-6.7-6.7C290.7,350.4,293.7,347.5,297.4,347.5z M292.2,345.3
			c-1.3,0.7-2.4,1.7-3.2,3l-18-17.4c0.5-1.8,0.4-4.1,0-6.7L292.2,345.3z M271.7,314.4c-1.5,1.2-3.9-1.5-3.9-1.5l-5.9-6.5l2.8,8.3
			c2.4,7.1,3.6,14.5,2.6,15.6c-0.6,0.4-1.2,0.5-1.5,0.4c-0.3-0.1-0.5-0.6-0.6-0.6l-2.2-6.9l-1.3,7.2c-1.6,8.9-4.8,17.6-6.4,17.9
			c-2.7-0.4-3.2-5.4-3.2-7.2v-8l-3.5,7.2c-0.8,1.7-2.8,4.5-4,5c-0.3,0.1-0.4,0-0.5,0c-1.2-0.6-1.5-6.6-0.7-12.3l0.6-3.9l-3.3,2.1
			c0,0-3.5,2.2-5.6,0.2c-1.2-1.2,0.5-6.2,2.8-9.8l2.8-4.7l-5.1,2c-3.2,1.3-8.6,2.3-9.9,0.6c-1-1.4,2.2-8.8,6.8-15.6l3-4.5l-5.1,1.7
			c-3.1,1.1-6.4,1.3-7.2,0.8c0.2-1.8,4.2-7.9,9.2-13.7l3.6-4.2l-5.4,1.3c-4,0.9-8.4,1.3-9.7,0.8c0.6-2.1,5-8.1,9.3-12.9l3.9-4.3
			l-5.6,1.4c-3.4,0.8-7.1,1.2-8.6,1c1.3-1.7,5.5-5,10.1-8.1l4.8-3.1l-5.7-0.2c-2.1-0.1-4.5-0.4-5.7-0.7c1.2-2.1,4.7-7.2,7.8-11.5
			l2.9-3.9l-4.8,1.1c-0.4,0.1-1.2,0.2-1.4-0.6c-0.1-1,1.9-4.4,4.3-7.5c4.7,1.3,9.9,2.2,14.5,2.2c0.2,0,0.4,0,0.6,0
			c7.2,0,14-1,18.9-2.3c3.5,4.4,6.3,9.4,6.1,10.5c-0.8,1.7-3.6,0.9-3.6,0.9l-5.1-1.4l3.3,4.2c4.3,5.6,7.7,11.7,7.3,13.2
			c-1.7,1.8-4.6,1-4.6,1l-4.4-1.3l2.3,3.9c3,5.2,5.2,10.8,4.8,12.1c-0.6,1.5-2.8,0.6-3,0.6l-5.3-2.1l3.1,4.8c3.4,5.2,6,11,5.4,12.2
			c-2.1,2-3.6,2.3-3.6,2.3l0,0l-2.6,0.3l1.2,2.3C270.3,306.5,272.4,313.2,271.7,314.4z M273.9,272.5l26.3,2.2
			c-0.3,1.1-0.6,2.3-0.7,3.6c-0.1,0.4-0.1,0.6-0.1,1l-23.6-1.5C275.3,276,274.6,274.2,273.9,272.5z M399.6,227.7
			c13.1,4.5,22,13.7,25.1,26c3.4,13.7-0.9,29-11.3,39.9C394,314,337.1,316,312.6,313.8c-24.1-2.2-38.2-6.2-38.4-6.2v0.1
			c-0.7-2.4-1.8-5-2.8-7.1c0.9-0.5,2.1-1.3,3.4-2.5c2.8-2.6-0.1-8.9-2.9-13.8c1.5-0.3,2.8-1.2,3.6-3l23.5,1.5v-0.6
			c0.2,6.7,3.4,13.4,7.1,16.2c3.7,2.8,32.1,5.6,44.5,5.6c2.2,0,3.9-0.1,4.8-0.3c7.3-1.5,19.1-17.4,18.1-30.6
			c-0.8-10.9-14.6-14.9-20.5-16.6c-0.7-0.2-1.5-0.5-1.9-0.6c-0.2-1.5,0-5.2,0.2-7.9c0.4-6.9,0.4-9.8-0.6-11.1
			c-1.7-2.4-4-3.7-6.9-3.9c-2.9-0.1-5.9,1.2-7.5,3.3c-0.8,1.1-1.6,3.9-2.8,9.9c-0.2,1.1-0.4,2-0.6,2.5c-0.9,3.5-3.8,9.1-5,9.7
			c-1.5,0.2-3.8,0.1-6.2,0.1c-7.4-0.1-12.6,0-14.7,2c-2.6,2.4-4.6,5.9-6.1,10.4l-28-2.4c1.3-0.3,2.7-0.9,3.9-2.3
			c2.1-2.4-0.4-7.6-3.4-12.2c0.4-0.1,0.7-0.3,1.2-0.4c15.6-5.1,35.9-12.3,57.6-21.3C338.3,231.2,382.3,221.9,399.6,227.7z
			 M348.4,258.8c0.1,0.1,0.3,0.2,0.5,0.3c-1.6,0.5-2.9,1.2-3.9,2.6c-1.3,1.7-1.7,3.9-1.2,6.1c0.6,2.4,2.5,4.5,4.8,5.5
			c0.1,0,0.2,0.1,0.3,0.1c-2.2,0.5-4,1.4-4.7,3.4c-1.3,3.9-0.6,6.9,1.8,9.1c-0.3,0.1-0.5,0.2-0.7,0.3c-1.8,1-3.1,3-3.7,5.5
			c-0.6,2.5-0.2,5,0.8,6.3c0.7,1,1.7,1.7,2.8,2.5c-5.8-0.3-13.2-0.9-19.8-1.7c-1.5-1.6-7.2-8-6.9-19.2c0.3-11.4,5.4-16.3,6.4-17.2
			c1.4,0,2.6,0,3.6-0.2c4.5-0.5,8-12.3,8-12.5c0.1-0.5,0.3-1.5,0.6-2.7c0.5-2.2,1.6-7.5,2-8.4c0.9-1.2,2.8-2,4.6-1.9
			c1.1,0,2.8,0.5,3.9,2.1c0.4,1.1,0.1,5.9,0,9C347.2,255.7,347.2,257.7,348.4,258.8z M354.8,300.3c-0.6,0.1-1.3,0.2-2.2,0.2
			c-2.6-0.5-6.5-1.6-8.3-3.9c-0.5-0.6-0.8-2.5-0.4-4.4c0.2-1.1,0.8-3,2.5-3.9c0.6-0.3,2.3-0.4,3.7-0.3c4,1.2,11,2.5,14.3,3.1
			C361.2,296.1,357.3,299.8,354.8,300.3z M365.8,288.9c-4.5-0.8-10.8-2.1-14.4-3.1c-0.2-0.1-0.4-0.2-0.6-0.2c-0.1,0-0.2,0-0.3,0
			c-0.8-0.3-1.5-0.5-1.7-0.6c-2.1-1.2-3.8-3-2.4-7.4c0.8-2.7,7.5-2,10.5-1.8c0.9,0.1,1.6,0.2,2,0.1h0.1c4.3,0.8,8.7,1.6,10.8,1.6
			C369.3,281.3,367.8,285.3,365.8,288.9z M349.4,271c-1.7-0.7-2.9-2.2-3.4-3.9c-0.4-1.5-0.1-2.8,0.7-4c1.7-2.3,5.6-2.3,8.8-1.8
			c5.9,1.9,13.7,5.4,14.2,12.3c0,0.5,0.1,1,0,1.5C367.4,274.8,354,272.9,349.4,271z M316,279.5c-0.2,9.4,3.2,15.6,5.7,18.8
			c-1.3-0.2-2.5-0.4-3.7-0.5c-1.9-2.8-5.3-9.1-5.3-18.7c0-9.3,5.6-16.2,6.1-16.7c0.1,0,0.1,0,0.2,0c0.9,0,1.8,0,2.6,0
			C319.4,265,316.2,270.4,316,279.5z M310.3,279.1c0,8.6,2.5,14.7,4.5,18.3c-3.4-0.6-5.8-1.2-6.5-1.7c-3.1-2.4-6.7-9.9-5.5-16.8
			c1.2-7.2,3.6-12.5,6.8-15.4c0.6-0.6,3.3-0.9,6.1-1C313.8,265.2,310.3,271.4,310.3,279.1z M440.7,164.2
			c-28.5,26.8-71,48.7-109.4,64.8c-0.2,0-0.4,0.1-0.5,0.1v0.1c-21.1,8.8-40.8,15.8-56.3,20.8c0.3-0.3,0.5-0.6,0.6-0.8l43.1-30.7
			c4.8,3.8,10.7,5.8,15.3,5.8c0.6,0,1.4-0.1,1.9-0.2c6.2-0.9,38.7-30.1,42.6-36.1c4.4-7,0.6-29-10.9-38.3
			c-9.5-7.7-22.9,0.1-29.3,3.9c-0.7,0.5-1.7,0.9-2.1,1.2c-1.3-0.9-4.4-4.1-6.5-6.3c-5.3-5.6-7.6-7.9-9.4-8.2
			c-3.1-0.6-6.1,0.5-8.3,2.6c-2.3,2.3-3.5,5.6-3.1,8.5c0.2,1.5,2.1,4.4,6,9.9c0.7,1,1.3,1.8,1.6,2.3c2.3,3.6,4.7,10.5,4.1,11.9
			c-1,1.3-2.8,3.2-4.8,5.1c-5.9,6-9.6,10.2-9.7,13.4c0,4.7,1.7,10,5.3,15.7l-39.7,27.6c-0.5-0.7-1-1.4-1.5-2
			c1.6-0.6,2.8-1.3,3.5-1.9c2.5-2.2,1.1-6.4-0.1-9c18.3-6.2,29.5-19.7,29.5-37.5c0-13.1-6.9-24.2-18.4-31.7
			c6-6.8,66.3-74.9,103.3-85.8c31.2-9.3,56-4.7,71.6,13.3C475.6,101.6,466.8,139.6,440.7,164.2z"/>
	</g>
</g>
</svg>
