<?xml version="1.0" encoding="utf-8"?>
<!-- Generator: Adobe Illustrator 27.3.1, SVG Export Plug-In . SVG Version: 6.00 Build 0)  -->
<svg version="1.1" id="Layer_1" xmlns="http://www.w3.org/2000/svg" xmlns:xlink="http://www.w3.org/1999/xlink" x="0px" y="0px"
	 viewBox="0 0 500 500" style="enable-background:new 0 0 500 500;" xml:space="preserve">
<style type="text/css">
	.st0{fill:#169B62;}
	.st1{fill:#009A44;}
	.st2{fill:#FFFFFF;}
	.st3{fill:#FF8200;}
	.st4{fill:#BAE1EF;}
	.st5{fill:#C3A3CD;}
	.st6{fill:#F1BF66;}
	.st7{fill:#EBF1F4;}
	.st8{fill:#FF883E;}
	.st9{fill:#3AC6F4;}
	.st10{fill:#A7A9AC;}
	.st11{fill:#2DB9EC;}
	.st12{fill:#433643;}
	.st13{opacity:0.4;fill:#55285B;enable-background:new    ;}
	.st14{opacity:0.4;fill:#009A44;enable-background:new    ;}
	.st15{opacity:0.3;fill:#FFFFFF;enable-background:new    ;}
	.st16{opacity:0.5;fill:#FFFFFF;enable-background:new    ;}
	.st17{fill:#010101;}
</style>
<g>
	<path class="st0" d="M87.4,417.8c-4.6,2.9-2.7-7.7-6.3-19.1c-5.9-19-39-17.8-45.2-32.4c-5.5-13-1.3-25,4.8-33.8
		c4.5-6.6,19.9-12.2,19.9-12.2s-9.7-35.6,3-52.7c12.7-17.1,30.8-27.2,43.4-30.1c22.2-5.2,62.7,4.2,72.4,17.9
		c17.1,24.4,7.6,50.4,15,56s16.2,9.8,14.5,13.8c-1.7,4-11.1,2.3-20.6-2.4c-13-6.5-8.4-27.2-17.7-33.9c-11.1-8.1-31.3-16-46-16.6
		c-5.1-0.2-9.6,0.4-12.7,2.3c-11.4,6.6-6.5,18.2-6.5,18.2s10.3-10.5,11.5-11.2s9.9-2.5,9.9-2.5s7.4,2.8,9.2,8.5
		c1.7,5.8,9.4,7.5,9.4,7.5c10.6-1.9,8.1,0.2,13.1,8.7c2.8,4.8,4.2,15.1,4.2,15.1c-4.3-2.6-1.5,3.4-1.5,3.4c3.4,2.2,12.1,4,18.1,8.3
		c9.6,7,13.8,15.4,13.8,15.4s-18.6,3.6-16.7,7.6c1.9,4,5,18.3,5,18.3s-17.7,1.6-16.7,12.8c1.1,11.2,21.6,17.9,40.1,14.8s29-16,29-16
		l-4.6-18.1c0,0,12.2,3.8,15.5,9.6c3.3,5.8,16.4,30-1.3,45.9c-17.8,16-58,24.8-81,20.7c-24.8-4.3-39.8-21.8-45-40.7
		c-7.1-25.4,8.3-48.7,8.3-48.7s-19.3,0.4-25.3-1.3c-6-1.7-15.1-5.4-15.1-5.4s-12.8,7.8-13.3,15.3c-0.3,5,21.4,14.2,21.6,26.1
		C93.6,398.8,96.8,411.8,87.4,417.8z"/>
	<path class="st1" d="M296.6,362.3c0,0,0.7-23,6.6-37.8c4.2-10.6,14.5-18.6,14.5-18.6l-19.5-11.6l19.5-53.5c0,0,7.3-4.8,16.5-4.8
		c19.1,0,31.5,25.1,31.5,25.1s12.4,2.7,18.4,5.5s14.2,7.8,14.2,7.8s-5.7-22.2-13.6-31c-8-8.8-18-16.9-20.3-23.7
		c-2.3-6.7-3.5-12.2-3.5-12.2s15.2-5.9,16.4-8.7c1.2-2.7-15.4-34.1-15.4-34.1s7.7-20.7,17.8-23.3c14.9-3.8,34.1,7.8,33.5,15.1
		c-1.2,15.1-14.5,15.5-16.6,12.8c-2-2.7,8.7-5.1,5.4-8.7c-3.3-3.5-11.8-7.4-14.9-2.9c-6.6,9.6-4.6,36.6-1.2,42.4
		s29.2,25.8,42.9,47.3c18.3,28.8,9.7,68.9,9.7,68.9s5.2,5.1,7.6,15.2c4.3,18.8-12.3,32.9-4.4,41.4c0,0,4,8.5,12.1,13.2
		c2.9,1.7,14.3,8.9,12.1,10.6c-2.2,1.9-21.1,0.6-25.4-3.7c-4.3-4.3-16.2-7.7-19.9-22.8c-1.9-8.1,7.1-22.8,4.5-24.5
		c-2.6-1.9-2.9-4.4-2.9-4.4l-15,14.4c0,0,0.4,16.5-4.8,31.4c-4.6,13.4-30.1,47.4-50.2,50.1c-29.4,3.9-36.6-8-42.9-10.3
		c-6.3-2.4-36.2-6.8-43.2-13c-6.9-6.2-5.8-15.4-2.4-18.9c3.4-3.5,5.7,5.6,12.1,6.2c6.4,0.6,30.8,0.2,38.1,2c7.3,1.9,12.8,6.7,21.5,7
		c9.3,0.4,24-8.1,28.2-22.3c4.2-14.3,3.7-24,3.7-24s-4.6,0.8-9.7,2.2c-5.1,1.3-8.2,0-8.2,0l-8.2-11.5l-15.7,7.4l0.8,8.1L296.6,362.3
		z"/>
	<path class="st2" d="M226.3,357.3c0,0,11.1-5,26.1-5.4c15-0.4,44.2,10.3,44.2,10.3s-0.2-31.9,7.2-41.9c7.4-10,13.9-14.4,13.9-14.4
		l-19.5-11.6c0,0,22.7-59.1,23.8-63.7c1.2-4.6,0-12.8,0-12.8s-9-11.1-24.7-13.3c-15.8-2.2-69.2-2-69.2-2l-42,22.9l-6.6,30.1
		c0,0,7.8,9.4,10.1,16.2c2.3,6.8,1.7,37.5,4.9,39.8c3.2,2.3,16.4,8.4,14.5,13.8c-1.9,5.4-20.3-1.5-25.9-6.9
		c-5.6-5.4-6.5-26.4-12.4-29.5s-6.5-5.2-6.5-5.2l-11.6,11.1l7,10.8l3.2,13.4l-4,4.6c0,0,12.1-0.3,20.6,7.1
		c8.3,7.4,13.8,15.4,13.8,15.4s24.4-10.1,26.2-6.6C221.3,342.7,226.3,357.3,226.3,357.3z"/>
	<path class="st3" d="M185,224.8l43.1-22.5h8.2l0.4-19.9h-11.6l-44.2-9.2c0,0,3.9,17.5,4.2,24.1S185,224.8,185,224.8z"/>
	<path class="st4" d="M142.8,140.6c0,0,9.7-43.7,83.2-43.7c67.3,0,82.5,42.7,86.7,52.1c7.7,17.6,11.1,43.8,11.1,43.8
		s-14.7-7.1-29-9.7c-13.7-2.7-69.6-1.8-69.6-1.8l-45.5-6.7c0,0-3.7-14-12.6-24.4C154.5,135.4,142.8,140.6,142.8,140.6z"/>
	<path class="st3" d="M236.3,202.3l0.4-19.9c0,0,49.3-2.1,58,0.6c8.7,2.7,29,9.7,29,9.7s1.4,12.4,0,14.5c-1.4,2.2-1.8,10.3-1.8,10.3
		s-15.4-12.5-28.9-14.1C279.6,202,236.3,202.3,236.3,202.3z"/>
	<path class="st5" d="M161.7,144.8c0,0-0.9-6.9,4.3-8.4c5.1-1.4,12.6-3.3,12.6-3.3s1.5-8.1,6.9-12.1c9.1-6.6,22.3-2.5,22.3-2.5
		s0.8-4.9,6.6-4.5c10,0.5,16.1,9.6,16.1,9.6l4.2-0.4c0,0-2.8-3.3,2.8-7.9c7.1-5.8,14.8,3.8,14.8,3.8s5.3-3.6,11.7-2.6
		c6.3,1.1,10.9,11.5,10.9,11.5s5.8,0.4,10.8,3c9.1,5,7.4,19.1,7.4,19.1s7.7-2.1,11.6,3.7c4.2,6.2,4.2,22.8,4.2,22.8s1.4-2.1,4.2,1.2
		c2.7,3.4,0,10.5,0,10.5s-26.8-9.7-51.5-7.3c-6.7,0.6-36.3,0.2-36.3,0.2l-45.5-6.7c0,0-7.6-16.9-10.1-20.6
		C167.2,150.1,161.7,144.8,161.7,144.8z"/>
	<ellipse class="st6" cx="224.7" cy="261.6" rx="19.9" ry="23.7"/>
	<ellipse class="st6" cx="281.3" cy="260.4" rx="18.9" ry="23.7"/>
	<path class="st7" d="M240.3,262.9c-1,11.7-6.9,17.3-15.5,17.3c-8.6,0-16-7.8-15.7-20.4c0.2-10,6.9-18.1,15.5-18.1
		C233.2,241.7,241.1,252.9,240.3,262.9z"/>
	<path class="st7" d="M296,259.7c0,9.9-5.4,18.7-14.5,19.2c-7.4,0.4-13.3-9.3-13.3-19.2c0-9.9,5.9-18,13.3-18
		C288.9,241.8,296,249.7,296,259.7z"/>
	<path class="st3" d="M128.5,154.4c0,0,9.5-12.3,14.4-13.8c16-4.9,32.9,17.9,38.6,42.4c7,29.6-2,72.4-2,72.4s-11.5-9.2-17.9-12.3
		c-4.8-2.3-33.4-10.5-45.1-8.2s-9.3,2.6-9.3,2.6s-6.5-23.7-6.6-36.5c0-7.9,6.9-22.6,6.9-22.6l-18.7-77.1c0,0,7.4-5.5,12.2-7
		C105.7,92.8,128.5,154.4,128.5,154.4z"/>
	<path class="st8" d="M124.7,272.3c0,0,19,1,23.9,2.7c5,1.7,15.7,8.6,15.7,8.6s-4.6,10.5-11.7,11c-7.1,0.4-17.1-4.8-19.9-9.4
		C130,280.6,124.7,272.3,124.7,272.3z"/>
	<circle class="st9" cx="221.5" cy="267.6" r="9.5"/>
	<circle class="st9" cx="278.1" cy="266.1" r="9"/>
	<path class="st3" d="M188.5,398.7l-12.1-45.1l6-4.2l33.9-11.3l5.2,2l14.2,44c0,0-5.6,7.4-18.6,12.1
		C205.4,400.5,188.5,398.7,188.5,398.7z"/>
	<polygon class="st10" points="93.4,97.8 87,72.1 90.8,70.2 100.2,94 	"/>
	<circle class="st3" cx="86.7" cy="60.7" r="9.5"/>
	<path class="st3" d="M324.4,197.4c1.9-0.2,7.7,21.4,11.3,22.2c3.5,0.8,41.4-20.9,41.4-20.9s2.3-4.4,0-5.8
		c-2.3-1.5-35.9-72.1-35.9-72.1l-7.5-3.7l-28.9,16.4c0,0,7.7,15,11.2,20.9C321.7,164.2,324.4,197.4,324.4,197.4z"/>
	<path class="st11" d="M324.6,181.9l6.9,12.2c0.8,1.3,2.5,1.9,3.9,1.1l24.8-12.6c1.3-0.8,1.8-2.4,1.1-3.7l-24.9-48.9
		c-0.7-1.4-3.7-1.9-5.1-1.2l-19.7,10.5c-1.2,0.7-0.5,2.3,0.1,3.6c1.9,4.1,5.8,12.6,6.4,17.2c0.8,5.8,5.7,19.5,6.4,21.4
		C324.4,181.6,324.5,181.8,324.6,181.9z"/>
	<path class="st10" d="M202.6,367.4l-7.9,2.3c-1.4,0.4-3-0.4-3.4-1.9L189,360c-0.4-1.4,0.4-3,1.9-3.4l7.9-2.3c1.4-0.4,3,0.4,3.4,1.9
		l2.3,7.9C204.9,365.5,204,367.1,202.6,367.4z"/>
	<path class="st3" d="M271.5,399.1c0,0-6.2-15.7-4.1-17c2-1.3,20.3-9.3,19.7-7.4c-0.6,1.9,7.3,9.2,9.1,9.1s23.7-6.8,27.4-11.5
		c3.7-4.8-3.2-8.4,1.9-10.8c5.1-2.4,15.8-7.2,19.1-2.7c4.9,6.8,17,32.5,17,32.5s-7.9,16.9-22.8,18.2c-9.2,0.8-16.1-4.2-24.9-6.6
		c-8.7-2.5-20.1-1.7-26.8-1.7C280.5,401.3,271.5,399.1,271.5,399.1z"/>
	<path class="st3" d="M278.1,418.9l30.9,7.6l5.1,3.1c0,0-5.5,16.2-14.1,19.1c-8.6,2.8-9.7-3.5-13.1-6
		C283.8,440.2,278.1,418.9,278.1,418.9z"/>
	<path class="st12" d="M267.4,382.1c0,0,1.7,6.1,5,5.5c3.3-0.6,13.6-3.9,14.9-6.2s-0.3-6.6-0.3-6.6L267.4,382.1z"/>
	<path class="st12" d="M324.2,361.5l16.9-7.4c0,0,5.6,1.3,3.3,4.7c-2.3,3.4-13.1,9-16.3,8.4C324.8,366.7,324.2,361.5,324.2,361.5z"
		/>
	<path class="st6" d="M182.2,259.7l22.5-6.7c0,0-1.2,2.4-1.2,8.7c0,6,0.4,7.3,0.4,7.3l-17.2,0.4L182.2,259.7z"/>
	<path class="st6" d="M244.6,255.3c0,0,6.1-3.2,9.6-2.4c3.5,0.7,9.9,1.2,9.9,1.2l-1.7,6.3c0,0-6.4-0.6-8.1-0.2
		c-1.7,0.4-9.7,1.4-9.7,1.4V255.3z"/>
	<polygon class="st6" points="300.2,252.9 310.9,255.8 307.7,266.1 300.2,267.6 	"/>
	<path class="st6" d="M152.6,294.6l4.4-1.7c0,0,5.2,8.1,5.9,10.1c0.7,2,3.1,13,3.1,13l-3.4,2.7c0,0-0.7-8.9-3.2-13.4
		C157,300.8,152.6,294.6,152.6,294.6z"/>
	<path class="st6" d="M158.8,323.4l4-4.6c0,0,13.6,2.2,19.4,7.5c5.4,5.1,14.4,18.3,14.4,18.3l-3.5,1.4c0,0-10.3-14.3-16.7-17.6
		C170,325,158.8,323.4,158.8,323.4z"/>
	<path class="st6" d="M292.7,362l3.8,0.2c0,0,0.6-22.6,5.4-34.5c4.8-11.8,15.7-22,15.7-22l-5.6-3.3c0,0-12.1,15.5-14.8,21.4
		C289.8,340.6,292.7,362,292.7,362z"/>
	<path class="st13" d="M130.2,272.3c0,0,8.9,17.9,17.2,18.1c7.9,0.1,13.2-9,13.2-9s-10.1-6.6-16.2-6.4
		C138.4,275.3,130.2,272.3,130.2,272.3z"/>
	<g>
		<path class="st13" d="M155.3,173.3c3.3-7.3,5.1-16.4,5.8-20.8c-6-5.4-12.7-6.4-18.3-4.3c-7.5,2.8-11.3,11.7-11.3,11.7v8.5
			c0,0,10,4.7,16.7,16.1C150.2,182.3,152.8,178.8,155.3,173.3z"/>
		<path class="st13" d="M164.3,202.3c-5.1,0.5-8.4,1.8-10.1,2.6c0.1,1.5,0.1,3.1,0,4.7c-0.5,13.5-1.6,28.6-1.6,28.6s2.7,3,9,4.8
			c6.3,1.7,12,7.6,12,7.6c1.2,3.4,8.1-10.4,5.6-43.2C176.9,204.7,169.8,201.7,164.3,202.3z"/>
	</g>
	<path class="st13" d="M148.3,214.7c-0.1-5.7-0.7-13.4-2.5-20.6c-0.4,1.3-1,2.5-1.9,3.5c-4.2,4.2-12.5,2.5-18.6-3.7
		c-6.2-6.2-7.5-13.9-4.5-17.3c2.9-3.3,9.7-3.3,14.4-1.5c-5.7-7.6-23-1.7-23-1.7l12.7-5c0,0-20-66.7-26.1-68.9
		c-4.5-1.6-5.5,0.2-5.5,0.2l16.7,78.7c0,0-5.6,14.5-5,31.4c0.4,11.8,4.1,25.3,4.1,25.3l38.6,1C147.5,235.9,148.4,227.6,148.3,214.7z
		 M127,208.8l3.8-1l1.6,1.9l1.1,6.5c0,0-1.4-1.9-4.2-5C127.8,209.4,127.3,208.9,127,208.8L127,208.8
		C127,208.8,126.9,208.6,127,208.8z M112.7,211.6l-0.7,0.3C112,211.8,112.2,211.6,112.7,211.6l3.4-1.2h2.2l1.8,7.4
		c0,0-2.6-3.4-4.8-5.1C114,211.6,113.2,211.5,112.7,211.6z M136.8,228.1l-0.1-1c-0.3-1-1.2-2.5-4.3-3.2c-4.8-1.2-19.1-0.4-19.1-0.4
		l22-2.9c0.3-0.1,0.6,0.2,0.6,0.4l0.7,6C136.9,227.7,136.8,228.1,136.8,228.1z"/>
	<path class="st13" d="M292.1,202.2c-23-4-66.6-1.3-66.6-1.3l-36.7,17.6c0,0,0.1-1.2,0.2-2.9l32.4-16.6l-31.9,5.7
		c0.1-2.5,0.1-5-0.1-6.7c-0.8-11.8-8.5-24.7-8.5-24.7s1.9,12.8,3.2,22.2c1.2,9.5,0,34.6,0,34.6l46.9-22.7c0,0,44-1.2,61.1,2.5
		c19.9,4.3,30.4,15,30.4,15l1.2-10.1C323.6,214.7,314.8,206.1,292.1,202.2z"/>
	<path class="st13" d="M214.9,240.2c0,0-12.9,11-11.3,25.9c1.2,10.4,15.8,20.1,21.1,19.2c5.4-0.9,15.1-4.4,15.7-8.1
		c0.6-3.6-6.5,11.6-18.8,10.5s-20.5-10.5-22.3-20c-1.7-8.4,2.5-19.3,8.6-24.1C214,238.8,214.9,240.2,214.9,240.2z"/>
	<path class="st14" d="M63.3,291.6c1.1-16.7,11.5-40.2,37-44.5c24-4,61,5.7,75.1,25.2c11.2,15.4,10.6,37.7,14.3,41.4
		c4.7,4.8,11.4,6.6,15,8.9c1.2,0.8,0.6,1.5-0.9,1.3c-5.2-0.6-17.5-5.8-19.6-10.8c-4.4-11-6.5-35.9-31.5-40.8
		c-26-5.1-46.2-4.6-52.9,11.7c-4.2,9.9,0.8,18.9,19.1,21.9c18.3,3,33.9-11.3,33.9-11.3l8.1,15.3l2.2,8.9l-35,29.3
		c0,0-28,1.4-39.2-5.5C72.6,332.5,61.5,320.3,63.3,291.6z"/>
	<path class="st13" d="M106.8,294.1c0,0,6.9-7.5,12.7-9.6c5-1.8,10-2.2,10-2.2s2.6-0.4,5.5,5.3c2.9,5.8,6.6,5.9,6.6,5.9
		s-11.3,6.6-17.3,6.6C115.6,299.8,106.8,294.1,106.8,294.1z"/>
	<path class="st14" d="M83.3,385.3c-4.3-6.6-26.9-16.7-27.7-33.8c-0.4-6.9,4.1-10.7,8.6-12.8c0.2,0.2,0.4,0.4,0.5,0.5
		c8,8.3,15.5,9.9,15.5,9.9l5.1-3.6c0,0-12.8-9.5-16-13.2c-3.2-3.7-7.2-13.6-7.2-13.6l-14.2,7.7c0,0,1.2,0.2,3.8,1.7
		c-8.1,4.8-17.8,18.1-13.6,32.4c3.3,11.3,30.6,20.1,39,25.3s8.9,23.2,9,24.8c0.2,1.6,0.3,1.2,1.9-1.4
		C89.6,406.8,87.5,391.8,83.3,385.3z"/>
	<path class="st13" d="M379.7,407c-1.4-0.7-2.7-3.6-3.3-7.1c-0.5-2.7-0.4-5.6,0.6-8.2c4.5-12.8,6.6-26.1,5-43.5
		c-2.5-25.6-15.5-48.1-40.6-62.9c-18.8-11.1-36.5-9.6-36.5-9.6l-6.7,18.6c0,0,13.9,7.1,26.1,15.9c12.1,8.8,37,21.1,43.2,52.1
		c4.4,22.7-16,42.9-25.9,47.3c-9.8,4.4-22.8-4.4-30.5-7.4c-7.7-2.9-30.8-1.4-35.2-1.4s-7.5-8.4-9.3-6.6c-1.9,1.9-7.4,3.5-7.5,9.8
		c-0.2,6.4,9.7,12.3,13.3,12.8c3.6,0.5,23.1,5.1,33.3,8.6s18,11.3,29.1,11.8c1.1,0.1,2.1,0,3.3-0.2l0.8,2.4c0,0,19-7.1,31.3-11.5
		c12.4-4.4,25.6-28.9,25.6-28.9S384.8,409.6,379.7,407z"/>
	<path class="st13" d="M298.2,294.2c0,0-1.8,25.6,9.5,43.8c10,16.1,19.7,22.2,19.7,22.2s11.1-5.1,14.2-3.2s7.4,11.5,7.4,11.5
		l16.3-1.9c0,0,2-14.3-1.8-20.7c-3.8-6.5-18.3-21.6-28.6-28.7C324.2,310.1,298.2,294.2,298.2,294.2z"/>
	<path class="st13" d="M226.3,350.6c0,0,20-4.6,34.6-2.9c10.4,1.2,41.1,13.3,50.1,14.6s12.8,0.6,12.8,0.6l0.6,8
		c0,0-30.6-9.5-36.6-10.1s-25.6-10-33.4-8.9c-7.9,1.2-28.1,5.4-28.1,5.4L226.3,350.6L226.3,350.6L226.3,350.6z"/>
	<path class="st13" d="M195,345.2c0,0-14.5,6.6-14,10.5c0.5,3.9,11.4,43.2,11.4,43.2l-4.9-2.1l-11.1-43.2c0,0,1.2-1.8,4-3.5
		C182.3,348.9,195,345.2,195,345.2z"/>
	<path class="st14" d="M161.6,323.9c0,0-37.5,27.6-40.7,50.9c-3.1,23.2,6.7,44,20,54.4c15.2,12.1,67.9,13.5,95.8-8.4
		c12.1-9.5,13.2-22.2,10-29.2c-3.3-7.1-6.3-9.7-13.5-4.9c-0.9,0.6-6,8.3-19,15.4c-13.6,7.5-58.4,22-68.1-3.1
		c-8.4-21.9,32.3-30.4,32.3-30.4l-2.1-15l4-3.5l12-4.5c0,0-7-12.7-11.5-15.8C176.3,326.7,161.6,323.9,161.6,323.9z"/>
	<path class="st14" d="M363.8,206.1c0,0,2,9.8,4.3,13.6c4.5,7,24.3,25.2,29.5,34.9c8.8,16.1,4.3,36.9-2.1,42.6
		c-4.1,3.6-6.3,4.3-6.3,4.3s9,12.8,10.2,22.3c1.2,9.6,7.9,26.9,7.9,26.9s24.5-26.1,26.8-41.7c3.4-23.6-7.1-47.7-19.9-62.5
		c-8.4-9.7-26.5-18.3-35.2-32.3c-3.5-5.7-5.8-12.7-5.8-12.7L363.8,206.1z"/>
	<path class="st13" d="M358.7,272.5c0,0,5.3-1.6,12.8,0c11.5,2.5,22,13.9,22,13.9l-6.5,12.1c0,0-14-16.4-18.3-18.9
		C364.3,277.3,358.7,272.5,358.7,272.5z"/>
	<path class="st13" d="M313.2,252.9c0,0,6.4-9.7,14.1-9.7c14.2,0,26.5,20.3,26.5,20.3l-4.7,4.2c0,0-17.7-0.2-24.9-1.7
		c-7.1-1.4-17.1,3.6-17.1,3.6L313.2,252.9z"/>
	<path class="st13" d="M165,284c0,0,5.7,12.1,6.3,18.5c0.6,6.5-0.6,13,5.1,18.4c5.8,5.3,21.2,7.6,25.8,7.5c4.6-0.2,5.5-1.9,5.5-1.9
		s-18.6-0.2-23.6-6.3c-5-6.1-6.1-27-11.8-30C166.7,287.4,165,284,165,284z"/>
	<path class="st13" d="M267.4,244.4c0,0-7.8,7.6-6.6,19.5c1,9.6,4.8,17.1,10.2,19.6c9.3,4.3,14.3,0,14.3,0s-9.7,1.2-13.5-3.4
		c-3.8-4.6-11.1-17.8-9.4-21.9C264.1,254.1,267.4,244.4,267.4,244.4z"/>
	<polygon class="st13" points="324.3,181.4 332,197 335.4,195.2 363.8,206.1 341.4,217.8 333.8,217.8 324.4,197.4 	"/>
	<polygon class="st15" points="304.7,133.4 370.1,181.4 358.7,157.2 317.7,126.1 	"/>
	<polygon class="st15" points="313,145.8 374.2,190.1 376.4,195.5 315.7,152.3 	"/>
	<path class="st13" d="M370.1,181.4c0,0-2.5-21.5,14.6-30.6c5.7-2.9,14.1-4.5,10.9-6c-8.8-4.3-22,5-25.5,10.2
		c-4.6,6.8-4.9,15.6-4.9,15.6L370.1,181.4z"/>
	<path class="st13" d="M433.5,328.2c0,0,3.3,4.6,3.8,10.5s-8.6,27.9-6.5,33.7c2.2,5.8,14.8,14.4,16.5,18c1.7,3.5-18.9-8.2-21.6-15
		c-2.7-6.6,0.4-18.3,2.7-24.5c1.9-5.2-1.7-12.7-1.7-12.7L433.5,328.2z"/>
	<path class="st13" d="M193.4,119.5c0,0-8.2,1.9-7.1,9c1.1,7,11,23.8,15.2,22.5c4.3-1.3,4.3-1.3,4.3-1.3l-3.4,8.1
		c0,0-2.8,6.5,2.3,10.7c5.1,4.3,11.5-2.6,11.5-2.6s2.7,4.3,8.4,1.6c5.7-2.7,7.1-6.9,7.1-6.9s0.9,13.6,6.1,12.8s-7.4-49.6-7.4-49.6
		l5.8-7.2c0,0,4.4,28.3,9.4,30.7c6.7,3.2,10.1,3.5,10.1,3.5l-3.4-0.3c-1.9,3.7-4.2,3.4-4.3,7.5c-0.2,6.6,1.3,12.8,4.3,15.5
		c3.6,3.5,17.6,1.1,18.4,0c0,0-1.2,3.2,2.3,5.1c3.5,1.9,9.5,3.1,9.5,3.1s-23-0.6-32.1-0.3c-9.1,0.3-25.3,0.1-25.3,0.1l-44.2-8
		l-19.3-28.4c0,0,0.8-7.1,4.5-9.3c6.7-4,14.9-1.2,14.9-1.2s-2.9-9.6,3.2-12.2C188.2,120.5,193.4,119.5,193.4,119.5z"/>
	<path class="st15" d="M298,185c0,0,7.1,3.9,9.1,5.3c1.9,1.4,0,12,0,12l10.5,5.1c0,0,1.8-7.6,2-11.2c0.2-3.5,0-6.5,0-6.5L298,185z"
		/>
	<path class="st15" d="M164.3,157.6c-3.9,0.1,4.3,11.4,7.9,19.1c3.7,7.8,3.7,21.4,5.4,22s0-17.6-2.9-23.8
		C171.7,168.6,168.3,157.6,164.3,157.6z"/>
	<ellipse transform="matrix(0.7681 -0.6403 0.6403 0.7681 -86.7699 130.3218)" class="st15" cx="136.5" cy="185" rx="4.7" ry="9"/>
	<path class="st15" d="M312.5,271.8c0,0,37.2,0,60.8,30.8c23.8,31,15.8,77.2,20.1,85.1s14.1-36.8-2.7-73.8
		C371,270.4,326.1,264.5,312.5,271.8z"/>
	<path class="st15" d="M117.8,240c-5.8,4.4,13.6,1.8,39.3,12.8c20.5,8.9,21.4,28.3,28.5,28.3c3.2,0-7.9-26.2-24.1-33.7
		C145.5,240.1,122.1,236.7,117.8,240z"/>
	<ellipse class="st16" cx="228.2" cy="256.9" rx="8.5" ry="10.3"/>
	<ellipse class="st16" cx="284.4" cy="256.3" rx="7.7" ry="9.7"/>
	<path class="st13" d="M280.4,377.3c0,0,0.8,11.6,2.1,15.8c1.3,4.2,4.9,8.3,4.9,8.3l12.8-1.7c0,0-0.7-6.9,0-11
		c0.7-4.1,24.8-11.3,27.1-11.3c2.3,0,21.6,27.5,21.6,27.5s-10.8,9.1-15.9,7c-5.1-2.1-22.1-8.3-27.4-10.2c-5.3-1.9-20.6-0.2-25.2-0.4
		c-4.7-0.3-8.9-5.2-8.9-5.2l-4.2-13.8L280.4,377.3z"/>
	<path class="st15" d="M334.6,359.1c0,0,9.3,11.2,14.3,22.1c5,11,7.6,17.9,7.6,17.9l5-6.4c0,0-3.3-14.3-7.7-20.6
		c-4.4-6.3-12.4-15.1-12.4-15.1L334.6,359.1z"/>
	<g>
		<path class="st17" d="M464.1,392.3c-1.2-1.1-2.8-1.9-5.1-3c-5.6-2.8-13.9-7.2-17.3-17.2c-2.2-6.6,0-11.5,2.5-17.1
			c2.6-5.8,5.6-12.3,4.3-22c-1.2-8.9-7-15.7-9.2-18.1c1.2-4.1,2.1-8.2,2.4-12.7c2.7-51.5-24.5-75.1-40.9-89.2
			c-5.1-4.4-9.7-8.3-11.6-11.7c-7.5-12.9-7.9-37.4-0.6-42.3c4.7-3.1,9.2-1.2,10.9,1.2c0.3,0.4,0.8,1.2,0.3,1.6
			c-1,0.7-1.9,1.3-2.7,1.8c-2.2,1.4-4.7,2.9-3.3,6.2c0.7,1.6,2.7,2.7,5.4,2.8c3.9,0.4,9.7-1.2,13.1-6.7c2.9-4.8,2.9-10.8-0.1-16.2
			c-4-7.2-12.4-11.5-22.5-11.5l0,0c-18.4,0-25.2,14.4-27.6,22.5l-19.5-39.4c-1.9-3.8-6.4-5.5-10.3-4l-26.9,13.8
			c-5-6.8-10.9-12.9-17.9-17.8c-25.6-18-57.8-23.4-90.4-15.4c-24.9,6.1-53.3,22.1-57.1,42.8c-5.2,2.9-9.1,7.7-11.4,11.2
			c-7.8-20.5-20.5-53.3-22.8-56.6c-1.1-1.6-2.7-2.4-4.7-2.2l-8.2-22.7c3-1.9,5.1-5.4,5.1-9.3c0-6.1-5-11.1-11.1-11.1
			c-6.1,0-11.1,5-11.1,11.1c0,5.8,4.4,10.5,10.1,11.1l6.4,25.3c-1.9,1.7-3.4,3.5-4,5l-0.2,0.5l16.3,77.6h0.2
			c-4,7.2-5.7,16.9-5.1,29.2c0.5,11.5,3.1,21.9,4.3,26.1c-6.4,1.8-12.7,4.3-18.5,8.1c-20.5,12.8-26.9,30.7-28.7,43.4
			c-1.5,10.5-0.3,21.3,3,30.8c-8.1,3.3-28.5,14-27.8,38.1c0.4,15.8,12.9,20.9,25,25.9c5.8,2.4,12,5,16.3,8.6
			c9.2,7.9,9.2,12.6,9.2,17.1c0,1.7,0,3.5,0.5,5.2c0.7,2.6,1.9,5.6,4.3,6.1c0.2,0,0.4,0.1,0.6,0.1c1.9,0,3.5-1.9,4-2.6
			c2.3-2.9,8.2-27.6,0-38.5c-3.5-4.7-7.4-7.3-10.6-9.4c-3.9-2.6-6.5-4.3-7-8.2c-0.8-5.6,8.2-10.6,12.7-12.5
			c11.4,5.3,23.4,6.4,31.4,6.4c2.2,0,4.2-0.1,5.7-0.2c-6.6,9.9-11,20.7-10,31.7c2.1,22.6,9.1,38.3,21.4,47.8
			c9.5,7.4,22,11.1,37.8,11.1c6.4,0,13.2-0.6,20.7-1.8c50.6-8,61.2-28.1,61.2-43.4c0-30.9-24.1-35.6-24.3-35.7l0,0l-1.8-5.9
			c5.4-1.5,21.5-5.4,33.3-3.5c8.4,1.3,13.8,3.5,20,5.8c4.6,1.8,9.8,3.8,17.1,5.8c13.6,3.8,20.7,5.1,23,5.5
			c-1.8,0.7-4.7,1.9-10.1,4.3c-5.3,2.3-13.1,5.8-15.3,6.4c-1.1-0.9-3.6-3.8-5.1-5.5c-2.3-2.7-2.8-3.3-3.4-3.5
			c-2.3-1.2-17.8,5.4-20.6,7.7c-1.4,1.2-1.9,2.3-1.6,3.5c0.4,1.2,1.4,4.7,2.4,8.2c-1-0.7-2.3-1-4.3-0.2c-2.3,0.9-4.1,2.8-4.8,5.4
			c-1.3,4.5,0.3,10.7,4,15.7c2.3,3.1,7.4,5.5,13.8,7.4c1.3,5.4,7.6,28,16.8,29.7c0.8,0.2,1.7,0.3,2.5,0.3c9,0,16.2-9.5,18-14.8
			c0.4-1.2,0.6-2.2,0.8-3.1c4.8,3.4,10.7,6.7,23.7,6.7c1.5,0,3.2-0.1,4.9-0.2c27.6-1.5,60.7-31.5,63.9-69.6
			c0.4-4.4,0.4-8.7,0.4-12.9c2.2-1.7,7.9-6.3,14.1-13.1l0.7,1.4c0.6,1.3,0.1,3.2-1.1,6.4c-1.7,4.9-4,11.4-2.2,21.4
			c3,17.3,30.2,25.5,35.1,26.3c0.5,0.1,1.6,0.2,2.9,0.2c2.9,0,6.9-0.5,8.1-2.9C465.7,395.8,466.1,394.2,464.1,392.3z M424.5,334.6
			c-0.6-5.3-3.1-17.5-13.3-26.7c-7.4-6.6-17.3-9.9-20.6-10.9c3-3.2,8.7-10.4,9-19.7c1.9-0.6,10.3-3,18.3-1.8
			c10.5,1.6,17.5,7.8,20,10.5c0.4,5,0.4,10.3,0.2,16C437.3,314.4,431.3,325.8,424.5,334.6z M404.1,363.5c-2.5-2.1-6.9-5-13.5-5.9
			c-11.5-1.7-19.6,3.2-22,4.9c-0.4-4.4-1.2-8.7-2.6-12.6c-1.4-4.1-3.8-8.2-6.6-12.1c1.3-2.9,6.2-11.1,19.9-13.8
			c9.7-1.9,16.7,0.7,19.4,1.9C402.5,337.3,404.5,350,404.1,363.5z M361.9,386.5c-1.2-2.9-2.7-6.9-4.3-10c-0.9-1.9-2.5-4.7-4.3-7.6
			c1,0,2.1-0.1,3.5-0.3c3.1-0.4,6.2-1.2,8.3-1.9C365.2,373.4,364,380.3,361.9,386.5z M325.9,363.3c2.2-1.8,13.1-6,15.4-5.2
			c0.4,0.4,0.9,1,1.4,1.6c-0.2,0.6-0.5,1.2-1.2,1.6c-3.2,2.3-10.9,5.3-13.4,5l-2.2-2.7C325.9,363.4,325.9,363.3,325.9,363.3z
			 M343.9,355.3c-1-1-2.7-1.2-5.1-0.9c-3.1,0.5-8.6,2.4-12.3,4.3c-0.3-3-1-12.3,1.3-20c2.9-9.8,6.6-15.6,8.8-18.3
			c6.8,5.4,13.6,11.7,18.9,18.3c-0.4,2.6-0.8,6.9-0.7,12.9c0.1,5.1,0.7,10.5,1.1,13.3c-2.1,0.3-3.7,0.2-4.7,0.2
			C348.3,360.9,345.6,356.9,343.9,355.3z M362.5,351.1c1.2,3.5,2,7.5,2.4,11.7c-1.7,0.5-4.9,1.4-8,1.9c-0.4-2.7-0.9-8.2-1-13.2
			c-0.1-5,0.2-8.9,0.5-11.4C359.1,343.7,361.2,347.4,362.5,351.1z M379.1,322.8c-13.6,2.7-18.8,10.3-20.6,13.8
			c-6.3-8.2-15-15.8-23.1-22c1.2-4.2,5.7-15.6,20.1-21.7c13.6-5.8,22.2-1.5,25.4,0.9c7.1,8.5,13,18.8,17.2,30.5
			C394.8,322.9,388,321,379.1,322.8z M297,328.8c5.8-15.2,13.9-22.4,16.3-24.3c0.6,0.4,1.3,0.8,2.1,1.2
			c-3.3,2.7-10.8,10.2-16.4,24.8c-3.9,10.3-3.9,24.3-3.7,30.5c-0.6-0.2-1.2-0.4-1.9-0.6C293.3,356.3,292.8,340,297,328.8z
			 M246.8,259.9c-0.1-1.5-0.3-3-0.6-4.4c0.8-0.3,4.3-1.3,8.2-1.3c3.6,0,6.4,0.5,8,0.9c-0.3,1.5-0.4,3-0.5,4.5
			c-1.5-0.4-3.9-0.7-7.8-0.6C251.5,259.1,248.5,259.6,246.8,259.9z M224.6,236.1c-9.5,0-17.5,6.7-20.7,16.3l-21.4,5.2
			c-0.5-0.8-1.1-1.5-1.7-2.3c0.7-2.7,3.9-14.7,5.4-30.1c11.2-5.8,37.8-19.5,41-20.2c3.9-0.9,34.8-2,58,0c21.4,1.9,32.8,10.6,36,13.5
			c-2.1,10.6-6.3,23.5-10.5,35.6l-9.7-2.3c-2.9-9.1-10.3-15.7-18.9-15.7c-8.9,0-16.4,6.9-19.1,16.5c-1.7-0.4-4.6-1-8.3-1
			c-0.1,0-0.2,0-0.3,0c-4.1,0-7.6,1.1-8.8,1.4C242.5,243.2,234.3,236.1,224.6,236.1z M244.4,261.4c0,12.6-8.9,22.9-19.8,22.9
			c-10.9,0-19.8-10.3-19.8-22.9s8.9-22.9,19.8-22.9C235.5,238.6,244.4,248.9,244.4,261.4z M203,267.4h-9l-1.2-9.7l10.4-2.6
			c-0.4,2-0.7,4.2-0.7,6.3C202.4,263.5,202.6,265.5,203,267.4z M190.1,321.6c-0.1-1.7,0-4.1,1.2-5.8c1.1-1.4,2.7-1.9,4.2-2.1
			c1.9,1.9,4.3,3.3,6.3,4.5c2.8,1.7,5.2,3.1,5.8,5.3c0.4,1.2,0.2,1.6,0.1,1.7c-0.3,0.3-1.7,0.5-4.4-0.3c-0.4-0.1-1.2-0.3-2.2-0.4
			C198.7,324,194.1,323.1,190.1,321.6z M190.3,315.1c-1.2,1.8-1.5,4.2-1.5,5.9c-2.6-1.2-4.9-2.6-5.9-4.4c-1.2-2.1-1.9-5.1-2.6-8.7
			c-0.1-0.6-0.3-1.2-0.4-1.9c1-1.3,3-4,5.3-4.6c2.9-0.8,5.1-0.1,6,0.4c0.2,3.7,0.5,6.5,1.6,8.5c0.4,0.8,1,1.6,1.6,2.2
			C193,312.9,191.4,313.6,190.3,315.1z M184.9,300.3c-2.2,0.6-4.2,2.7-5.3,4.2c-1.1-4.9-2.7-10.3-6.4-15.3c1.1-1.9,3.1-4.8,6.3-6.5
			c3.3-1.7,7.3-1.7,9.5-1.6c1.6,6.9,1.9,13.1,2.1,18.1c0,0.4,0,0.9,0.1,1.3C189.9,300,187.7,299.6,184.9,300.3z M178.9,281.6
			c-3.3,1.7-5.4,4.5-6.6,6.5c-0.9-1.2-1.9-2.3-3.1-3.4c-3.1-2.9-7.4-5.6-12.3-7.8c-0.1-2.2-0.1-10.5,5.5-17.1
			c3.9-4.6,9.4-5.4,12.4-5.5c1.1,1.1,2,2.1,2.8,3.2c5.9,7.7,9.1,15.3,10.9,22.3C186.2,279.7,182.3,279.9,178.9,281.6z M184.9,330.1
			c6.6,6.2,9,11.4,9.9,14l-1.8,0.5c-1-2.5-3.9-8.3-12.2-14.9c-8.2-6.5-15-7.8-19.6-7.6c0.6-0.4,1.2-0.9,1.8-1.3
			C165.7,320.4,174.1,319.8,184.9,330.1z M242,419.7c-5.8,5.8-14.7,10.5-26.2,14.2c-1.6-3.3-5.1-11.2-6.1-16.8
			c-1.1-5.6-0.1-13.2,0.4-16.6l0,0c8.3-1.6,14.4-4.5,18.6-7.4c1.1,0.4,7.4,3,10,9.3C241.9,410,242,417.7,242,419.7z M233.7,383.5
			c-1.3,1.9-8.1,10.3-24.4,13.4c-6.9,1.3-14,1.3-20.4,0.4l-9-34.4c-0.1-0.9-0.4-2-0.9-3.5l-0.8-3.1c-0.5-2.2,0.7-4.4,2.8-5.1
			l34.7-11.3c1.1-0.4,2.3-0.3,3.3,0.3c1.1,0.5,1.8,1.4,2.1,2.5 M167.3,386.2c-0.6-1.9-0.4-3.6,0.4-5.2c2.8-5.2,12.1-7.7,12.1-7.7
			c0.1,0,0.2-0.1,0.3-0.1l6.1,23.7C176.4,394.9,168.8,390.7,167.3,386.2z M139.8,321.4c-1.6-11.5-5.8-19.5-6.7-21.3
			c1-0.3,1.8-0.5,2.4-0.8c3.4-1.3,5.7-2.8,7.1-4.1c1.9,0.9,4.1,1.4,6.1,1.4c1,0,2-0.1,3.1-0.4c0.2-0.1,0.4-0.1,0.6-0.2
			c1.2,1.9,3.9,5.8,5.1,8.6c2,4.5,3.1,10.4,3.5,12.8c-5.9,4.3-13.8,10.4-21.5,17.8C140.1,331.7,140.5,326.4,139.8,321.4z M72,332.9
			c-4.7-5.2-8.2-12.1-10.4-19.8c5.8-0.7,19.8-2.7,27-5.9c6.7-3,12.1-9.7,14.7-13.1c0.3,0.7,0.6,1.3,1.1,1.8c2.7,3,6.2,4.7,9.9,5.5
			c-0.4,4.5-1.8,17.3-5.4,25.1c-4.1,9-12.4,17.8-15,20.5C86.3,344.3,78.4,340,72,332.9z M138.9,238c-2,2.2-6.1,7.4-7.2,14.4
			c-1.2,8,0.6,15.2,1.8,18.5c-6.3-0.5-12.4,0-17.5,1.9c-0.9,0.4-1.7,0.7-2.5,1.1c-2.2-1.9-8-7.4-11-17.5c-2.5-8.5,0.6-14.7,1.9-16.7
			C115.9,236.4,127.8,236.2,138.9,238z M173.6,253.1c-3.3,0.3-8.3,1.5-12.1,5.9c-5.5,6.5-5.9,14.3-5.8,17.3
			c-6.4-2.7-13.6-4.6-20.8-5.4c-1.1-2.9-3.2-10.3-1.9-18.4c1.2-7.2,5.8-12.7,7.4-14.3C154,240.8,166,246.4,173.6,253.1z
			 M117.2,276.2c2.2-0.8,4.7-1.3,7.3-1.6c0.4,0.9,0.9,1.9,1.4,3c-2.5,0-5.9,0.6-9.7,2.6c-4.9,2.6-7.9,5.8-9.7,8.6
			c0.1-0.7,0.2-1.4,0.4-2.1C107.6,284,109.9,278.9,117.2,276.2z M108,294.1c0.8-1.9,3.1-6.6,9.1-10c1.6,1,5.1,3.5,7.1,7.7
			c0.8,1.6,1.8,4.7,2.2,6.2C120,298.8,112.5,298.4,108,294.1z M127.6,297.7c-0.4-1.4-1.4-4.8-2.3-6.5c-1.9-4.1-5.1-6.6-6.9-7.8
			c4.8-2.4,8.5-2,9.9-1.9c2.7,4.3,6.6,8.8,10.9,11.8c-1.2,0.8-2.8,1.8-5,2.6C132.5,296.6,130.1,297.2,127.6,297.7z M176,353.9
			c-2.1-2.7-5.2-5.9-9.8-9.3c-9.8-7.3-18.2-8-22.5-7.6c4.5-4.3,9.1-8.2,13.3-11.3c2.6-1,10.9-3,22.5,6.2
			c7.8,6.1,10.5,11.5,11.4,13.7l-10.3,3.4C178.1,349.6,176.4,351.6,176,353.9z M142,338.4c3.4-0.5,12.4-0.9,23.3,7.2
			c5.2,3.9,8.5,7.4,10.5,10.3c0,0.4,0.1,0.8,0.2,1.2l3.3,12.6c-0.1,0-0.2,0-0.4,0.1c-0.4,0.1-6.6,1.8-11.1,5.5
			c-2.2-4.1-8.2-12.1-21.5-16.7c-8.3-2.8-16.1-1.6-21-0.2C129.9,351.1,135.8,344.3,142,338.4z M163.3,316c-0.5-3-1.6-8.1-3.5-12.3
			c-1.2-2.7-3.6-6.5-5.1-8.5c0.4-0.3,1-0.5,1.4-0.8c1.4,2,3.5,5,4.4,7.2c2.4,5.1,3.6,11.7,4,13.6C164.2,315.4,163.7,315.8,163.3,316
			z M151,292.7c-9.1,2.2-19.1-11.1-22.5-18.3c11.4-0.1,24.6,3.8,33.2,9.2C159.6,286.7,155.2,291.8,151,292.7z M183.9,259.8l5.1-1.2
			l1.2,8.8h-2.1C187,264.9,185.5,262.4,183.9,259.8z M183.8,170.3c0.1,0.3,0.4,0.4,0.6,0.4c0.1,0,0.2,0,0.3,0
			c0.3-0.1,5.7-2.2,6.8-5.3c0.5-1.4-0.7-3.7-1.9-5.3c-2.4-3.4-7.2-7.9-10-7.9l0,0c-3.1,0-6.4,1.9-7.5,2.7c-2.6-4-5.4-7.5-8.5-10.3
			l0.6-0.1c-0.1-0.5-0.8-4.9,3.9-7.1c5.6-2.6,11.1-1.5,11.2-1.5l2.1,0.4c2.7,3.2,15,17.8,19.7,18.1h0.1c2,0,5.6-3.3,6-4.3
			c0.4-1.2-3.8-10.1-6.4-13.7c-1.3-1.9-2.4-2.8-3.3-2.8c-1.5,0-3,0.9-4,2.4c-1.1,1.8-1.2,4.1,0,6.3c2.2,4.4,4.8,5.5,4.9,5.5
			c0.4,0.1,0.7,0,0.8-0.4c0.1-0.4,0-0.7-0.4-0.8c0,0-2.2-1-4.3-5c-0.9-1.8-0.9-3.6,0-5.1c0.7-1.1,1.8-1.9,2.9-1.9
			c1.9,0,8.2,12.8,8.4,15c-0.4,0.8-3.5,3.5-4.8,3.5c0,0,0,0-0.1,0c-3.5-0.2-14.1-12-18.5-17.4l-1.3-2.6c-0.1-0.2-2.1-4.3,4.1-9.7
			c8.5-7.4,20.6-3,20.6-2.9l0.8,0.3c-0.9,4.3-2.1,13.9,1.9,17.3c3.2,2.7,7.5,4.3,11.3,4.3c2,0,3.9-0.5,5.2-1.8
			c3.5-3.3,0.4-10.4,0.4-10.6l-0.2-0.3l-9.7-1.7c-0.4-0.1-0.6,0.2-0.7,0.5c-0.1,0.4,0.2,0.6,0.5,0.7l9,1.6c0.5,1.3,2.4,6.6-0.2,9
			c-2.9,2.7-9.8,1.5-14.8-2.7c-4.1-3.4-1.8-14.8-1.2-17.5c0.3-0.5,2.4-3.8,8.2-3.5c7.5,0.4,12,7.4,12,7.4l0.6,1h0.2
			c1.7,3.1,5.2,10,7.1,17.5c0.4,1.8,0.9,4.2,1.4,6.8c-1.2-1.2-2.9-2.5-5.8-2.9c-5.8-0.9-9.7-0.5-11.9,1.2c-1.2,1-1.8,2.2-1.9,3.9
			c-0.1,0.8-0.4,2.2-0.8,3.7c-1.3,5.2-3.3,13,2.5,14.6c1.9,0.5,3.6,0.7,5.2,0.7c2.2,0,4-0.5,5.1-1.5c1.2-1,1.6-2.3,1.4-3.9
			c-0.1-1.2,0-2.7,0.2-4.2c0.3-2.7,0.5-5.3-0.7-6.6c-0.5-0.6-1.4-0.9-2.4-0.8c-4.6,0.3-5.1,1.6-5.1,2.1c0,0.4,0.3,0.7,0.6,0.7
			c0.4,0,0.6-0.2,0.6-0.5c0,0,0.4-0.8,4-1c0.6,0,1.2,0.1,1.4,0.4c0.9,0.9,0.6,3.3,0.4,5.7c-0.2,1.5-0.4,3.1-0.2,4.4
			c0.1,1.2-0.3,2.1-1.1,2.8c-1.7,1.4-5.1,1.6-9.2,0.4c-4.3-1.2-3.2-6.8-1.6-13.1c0.4-1.6,0.8-3,0.8-4c0.1-1.3,0.5-2.3,1.4-3
			c1.9-1.5,5.5-1.8,10.9-1c4.4,0.7,6,3.5,6.6,5c1.9,10.6,4.2,24.1,4.8,27.9c-8.8,0.1-15.3,0.3-16.6,0.4c-1.7-0.3-19.7-3.5-24.3-4.4
			c-6.6-1.3-15.2-2.3-21.2-2.5c-2.2-6-5.1-12.1-8.4-17.4c1.1-0.7,4.1-2.6,6.9-2.6l0,0c1.9,0,6.2,3.5,9,7.4c1.6,2.2,1.9,3.6,1.8,4.2
			c-0.8,2.1-4.6,4.1-6,4.6C183.9,169.6,183.7,170,183.8,170.3z M250.1,119.6l0.9,1.9c0.9,2.3,2,6.2,2,10.5c0,3.1-2.1,5.2-4.1,5.8
			c-1.3,0.4-2.4,0.2-3-0.6c-0.4-0.4-0.8-1.1-1.2-1.6c-1.4-1.7-3.3-3.9-2.9-5.5c0.1-0.7,0.6-1.2,1.5-1.8c2.5-1.3,3.5-1.7,3.8-1.8
			c0.1,0,0.1,0.1,0.2,0.1c0.4,0.1,0.7-0.1,0.8-0.4l0.1-0.4l-0.4-0.3c-0.4-0.3-0.8-0.6-5.1,1.8c-1.2,0.7-1.9,1.5-2.1,2.6
			c-0.4,2.2,1.6,4.6,3.2,6.5c0.4,0.5,0.9,1.1,1.2,1.5c0.6,0.9,1.6,1.3,2.7,1.3c0.5,0,1.1-0.1,1.6-0.3c2.4-0.8,4.9-3.3,4.9-7
			c0-4.6-1.2-8.6-2.1-11l0.9-0.9c0.2-0.2,3.6-3.4,9.4-2c9.4,2.2,10.6,9.7,10.7,10l0.2,0.9c-3.9,0.9-10.5,3-11,7.4
			c-0.2,1.3-0.4,2.4-0.5,3.4c-0.6,3.3-1,5.2,2.1,6.8c1.6,0.9,3.9,1.4,5.9,1.4c1.4,0,2.7-0.3,3.5-0.8c0.9-0.6,1.2-1.4,1.1-2.5
			c-0.4-3.3-0.4-7.1-0.4-7.2c0-0.4-0.3-0.6-0.6-0.6c-0.4,0-0.6,0.3-0.6,0.6c0,0,0,4,0.4,7.3c0.1,0.5-0.1,1-0.5,1.2
			c-1.5,1.1-5.6,0.7-8.2-0.6c-2.2-1.2-2-2.3-1.5-5.5c0.2-1,0.4-2.1,0.5-3.5c0.6-5.2,12.7-6.9,12.8-6.9c0.1,0,0.2-0.1,0.3-0.2
			c1.6,0,4.9,0.5,9.4,3.5c7.7,5.2,5.2,17,5.2,17.1l-0.4,1.7c-2.4,2.6-6.1,7.5-4.3,11.8c0.8,1.9,1.3,3.9,1.9,5.7
			c0.8,2.9,1.4,5.1,2.6,5.7c0.2,0.1,0.4,0.2,0.7,0.2c0.2,0,0.4-0.1,0.6-0.1c0.7-0.3,1.6-0.5,2.6-0.9c2.8-0.9,4.8-1.6,5.5-2.5
			c1-1.3-1.9-7.2-4.5-11.9c-0.2-0.3-0.5-0.4-0.9-0.3c-0.3,0.2-0.4,0.5-0.3,0.9c2.5,4.4,4.9,9.7,4.6,10.5c-0.5,0.7-3,1.5-4.9,2.1
			c-1,0.4-1.9,0.6-2.7,0.9c-0.2,0.1-0.3,0.1-0.4,0c-0.7-0.4-1.3-2.7-1.9-4.9c-0.5-1.8-1.1-3.9-1.9-5.8c-1.2-3.1,1.2-6.9,3.2-9.4
			l3.1-1.6c0,0,4.4-2.2,9,4c5.5,7.4,3.5,19.6,3.5,19.7l-0.4,2.1h2.2c0,0,3.4,0.1,3.6,2.3s0.2,4.6,0.1,6.2c-4.3-1.6-9.7-3.3-15.9-4.5
			c-10.3-2-31.8-2.4-48.3-2.3c-0.4-2.4-1.7-9.2-3.2-16.8c0.1-0.1,0.2-0.3,0.2-0.4c0-3.3,0.9-11.8,5.1-12.2
			c4.7-0.5,12.1,0.9,14.8,3.5c0.8,0.7,1.2,1.5,1.2,2.3c0,1,0,2.1,0,3.4c0.1,4.2,0.3,11.1-1.9,11.3c-2.5,0.2-6.6-1-8.6-2.8
			c-0.8-0.7-1.2-1.5-1.2-2.3c0-3.4,1.8-7.4,1.8-7.5c0.2-0.4,0-0.7-0.4-0.8c-0.4-0.2-0.7,0-0.8,0.4c-0.1,0.2-1.9,4.4-1.9,8
			c0,1.2,0.5,2.3,1.6,3.3c2.3,2.1,6.6,3.2,9,3.2c0.2,0,0.4,0,0.4,0c3.4-0.2,3.2-6.7,3.1-12.5c0-1.2-0.1-2.4,0-3.3
			c0-1.2-0.5-2.3-1.6-3.3c-3.4-3.1-11.5-4.3-15.8-3.8c-4.1,0.4-5.5,5.8-6,9.6c-1-4.9-1.9-9.8-2.7-14.1c-2.4-12.1-5.1-20.5-5.8-22.4
			l-0.2-0.7c0-0.2-1-4,3.8-5.7C246.7,113.2,249.9,118.9,250.1,119.6z M311.2,140.4l22.1-11.2c0.4-0.2,0.6-0.2,1-0.1
			c0.4,0.1,0.6,0.4,0.7,0.6l25.9,49.3c0.2,0.4,0.2,0.7,0.1,1c-0.1,0.4-0.4,0.6-0.7,0.7l-26.4,13.8c-0.4,0.2-0.7,0.2-1,0.1
			c-0.4-0.1-0.6-0.4-0.8-0.7l-7.4-14.5C322.5,165.5,318.2,152.7,311.2,140.4z M332.3,216.5L332.3,216.5c1.6,2.5,4.3,3.9,7,3.9
			c1.3,0,2.7-0.4,3.8-1l15.9-8.6c0.4,3.6,2,10.9,8.2,18c1.6,1.9,3.6,3.8,5.7,5.9c8.2,8.2,19.1,19.1,22.2,35.9
			c-4.4-2.7-12.8-6.9-22.6-9c-1.5-0.4-3-0.5-4.4-0.6c-1.9-4.2-9.9-19.3-23.7-25.5c-10.2-4.6-19.4-0.5-24.8,3.2
			c3.3-10.6,5.8-20.8,6.5-28.8c0.1-1.5,0.2-3.1,0.3-4.6L332.3,216.5z M437.7,284.2c-3.3-3.1-9.9-8.3-19.7-9.8
			c-7.9-1.2-15.9,0.9-18.4,1.7c0-0.6-0.1-1.2-0.1-1.9c-1-8.8-3.8-16.1-7.5-22.3c1.8-2.4,6.4-7.6,14.5-8.6c9.8-1.1,18.4,3.2,19.9,4
			C431.9,257.1,436.1,269.1,437.7,284.2z M353.5,268c3.2-1.9,9.4-4.6,18.3-2.7c4.2,0.9,8.2,2.3,11.6,3.7c-1.6,1.1-4.1,3-5.8,5.8
			c-1.5,2.4-2,5.4-2.2,7.7C368.4,276.2,361,271.2,353.5,268z M328.4,263.6c0.2-3,0.9-9.5,3.8-14.3c4.2-6.9,10.7-8.6,13.6-9
			c9.4,5.6,15.5,15.8,18,20.6c-7.7,0.4-12.7,3.8-14.6,5.4C342.4,264,335,263.4,328.4,263.6z M317.6,245c1.8-1.8,12.8-11.9,25.3-6.2
			c0.4,0.2,0.8,0.4,1.2,0.6c-3.5,0.8-9.2,2.9-13,9.2c-3.1,5.1-3.8,11.8-4,14.9c-7.2,0.3-13.4,1.4-16.7,2.2
			C312.7,259.2,315.3,252.1,317.6,245z M322.4,209.6c-0.1,1.9-0.4,3.9-0.7,6c-4.5-3.7-16-11.3-36.2-13.1
			c-15.8-1.4-35.1-1.3-47.3-0.9v-19.1c16.3-0.3,45.6-0.4,57.8,2.1c13.9,2.7,23.5,7.7,26.7,9.5C322.7,199.4,322.7,204.6,322.4,209.6z
			 M228.1,202.3l-0.4-19.7c1.5,0,4.3-0.1,7.9-0.2v19.2C232.2,201.9,229.7,202.1,228.1,202.3z M234.6,123.7c1,3.1,3.3,10.7,5.4,21.2
			c2.4,12,5.8,30.3,6.7,34.9c-0.8,0-1.7,0-2.4,0c-0.5-3.5-2.7-16.4-4.6-27c0-0.1,0.1-0.2,0-0.3c0,0-0.1-0.4-0.3-0.9
			c-0.8-4-1.5-7.6-2.1-10.1c-1.8-7.4-5.1-14.1-6.9-17.4L234.6,123.7z M201.7,178.2c4.3,0.9,19.4,3.6,23.5,4.3l0.4,20.4
			c-6.1,2.3-30.9,15.1-39.3,19.4c0.8-9.9,0.9-20.9-0.8-31.7c-0.7-4.5-1.9-9.6-3.7-14.7C187.8,176,195.5,176.9,201.7,178.2z
			 M261.7,261.5c0,0.2,0,0.4,0,0.5C261.7,261.9,261.7,261.7,261.7,261.5z M264.2,261.5c0-0.4,0-0.6,0-1c0-12.1,8-21.9,17.7-21.9
			c9.7,0,17.7,9.8,17.7,21.9c0,12.1-8,21.9-17.7,21.9c-9.3,0-17-9-17.6-20.3l0.2-0.2L264.2,261.5z M301.5,254.5l8.2,1.9
			c-0.9,2.6-1.9,5.1-2.7,7.6l-5.2,1c0.3-1.5,0.4-3,0.4-4.6C302.2,258.5,301.9,256.5,301.5,254.5z M308.9,270
			c2-0.5,14.3-3.5,27.2-2.5c-4.3,1.1-9.6,2.9-13.6,6.5c-10.5,9.5-12.1,19.9-12.4,24.5c-3.7-1.9-7.5-4.2-8.4-5.1
			C301.5,290.7,305.1,280.5,308.9,270z M311.6,299.2c-0.1,0-0.2-0.1-0.3-0.1c0.1-4.1,1.3-14.5,12-24.2c5-4.4,12.2-6.2,16.9-6.9
			c3,0.4,5.9,1.2,8.8,2.2c10.3,3.8,20.6,11,29.4,20.7c-4.6-2.1-12.5-3.8-23.5,0.8c-14.4,6.1-19.2,17.4-20.6,22.1
			C322.8,305.4,312.6,299.7,311.6,299.2z M386.9,295.5c-3.3-4.3-6.8-8.3-10.5-11.9c0.1-2.2,0.5-5.7,2-8.2c1.9-2.9,4.8-5,6.2-5.8
			c5.5,2.4,9.5,4.9,11.1,5.9C396.4,285.5,388.9,293.5,386.9,295.5z M425.2,245.4c-3.4-1.5-10.5-4.2-18.9-3.3
			c-8.2,0.9-13,5.9-15.1,8.7c-4.6-7.4-10.2-13.1-15.1-18c0.7-3.2,2.9-10.2,9.3-13.7c5.6-3.1,12.4-1.5,16.6,0
			C409.6,225.7,418.2,234,425.2,245.4z M386,203.3c2.3,3.9,6.7,7.8,12.4,12.7c0.4,0.4,0.8,0.7,1.2,1.1c-4.3-1.2-9.8-1.7-14.7,1.1
			c-6.4,3.5-8.8,10.1-9.7,13.7c-1.9-1.9-3.7-3.7-5.1-5.4c-6.6-7.6-7.4-15.7-7.4-17.5l11.4-6.2c3.9-2.1,5.4-6.8,3.5-10.8l-5.8-11.7
			c3.3,0.2,6.6,1.9,8.4,3.2C380.9,190.8,382.9,198.1,386,203.3z M408.9,151.6c2.3,4.2,2.4,8.9,0.2,12.5c-2.6,4.2-6.6,4.9-8.2,5
			c-2.2,0.2-3.5-0.4-3.6-0.6s-0.1-0.2-0.1-0.3c0.2-0.3,1.2-0.9,1.9-1.4c0.8-0.5,1.9-1.2,2.9-1.9c2.1-1.5,2.3-4.3,0.6-6.8
			c-1-1.4-2.7-2.7-4.7-3.5c0.7-0.5,1.5-1.6,2.4-3.4c1-2.1,0.4-5-0.3-7.3C403.9,145.6,407,148.2,408.9,151.6z M389.6,142L389.6,142
			c3.2,0,6.1,0.4,8.7,1.3c0.9,2.2,1.7,5.2,0.7,7.3c-1.6,3.3-2.7,3.4-2.7,3.4v0.1c-2.8-0.7-6.3-0.4-9.7,1.9c-1.1,0.7-1.9,1.7-2.7,2.8
			c-1.1-2.2-2.9-5.4-5.8-7.2c-2.2-1.4-4.5-1.8-6.3-1.8C375.4,145.5,381.1,142,389.6,142z M370.7,151.2c1.7-0.2,4.3,0,6.7,1.5
			c2.9,1.9,4.8,5.5,5.7,7.4c-2.8,5.1-3.8,13.4-3.1,21.7c-2.1-1.3-5.4-2.9-8.8-2.9v0.2l-6.5-13.1
			C364.9,164.1,366.2,157.1,370.7,151.2z M333.7,120.9c2.1-0.8,4.5,0.2,5.5,2.2l34.9,70.5c1.1,2.1,0.3,4.7-1.9,5.8l-30.9,16.7
			c-2,1.1-4.5,0.4-5.8-1.5l-9.3-17.4c-0.1-3.1-0.3-7.4-0.6-10.5l2.6,4.3c1.2,1.9,2.8,5.7,3.8,6c0.4,0.2,0.9,0.3,1.3,0.3
			c0.5,0,1.2-0.1,1.6-0.4l26.4-13.8c0.9-0.4,1.6-1.2,1.9-2.2c0.4-1,0.3-2-0.2-2.9l-25.9-49.3c-0.4-0.9-1.2-1.6-2.2-1.9
			c-1-0.4-1.9-0.3-2.9,0.2L310,138.2c-0.8-1.3-1.6-2.7-2.5-3.9L333.7,120.9z M197.9,101.6c31.5-7.7,62.7-2.5,87.4,14.9
			c23.4,16.4,34.8,46.7,37,74.6c-1.5-0.8-3.7-1.9-6.5-3.1c0.1-1.4,0.3-4.9-0.1-8c-0.4-3.3-3-4.8-5.2-5.3c0.4-4.1,0.6-13.8-4.4-20.6
			c-3.6-4.9-7.7-6-10.6-5.8c0.4-4.5,0.1-13.3-7.2-18.2c-5.4-3.6-9.4-4.3-11.7-4.3c-1-3.1-4.1-9.3-13.1-11.4c-5.1-1.2-9,0.4-11.1,1.7
			c-2.4-3-7.3-6.2-14.5-3.7c-4.9,1.7-6.3,5.3-6.4,8l-0.6,0.1c-1.7-2.3-6.6-7.8-14.3-8.2c-6-0.4-9.3,2.5-10.8,4.3
			c-3.8-1.1-14.6-3.3-23,4.1c-5.1,4.4-5.9,8.6-5.8,11.3c-2.6-0.1-6.6,0.2-10.6,2.1c-4.2,1.9-5.7,5.3-6,8.2c-2.7-1.9-5.6-3.2-8.5-3.6
			c-2.7-0.4-5.2-0.2-7.6,0.5C149.4,121.1,175.1,107.2,197.9,101.6z M151.2,142.2c14.7,2.2,27.7,30,30.7,48.9
			c3.8,25.2-1.9,52.1-4.2,60.9c-5.6-5.7-13.9-10.6-23.7-14c1.6-4.3,4.1-15.2,0.4-38c-2.4-14.9-8.7-26.1-17.3-30.8
			c-1-0.5-1.9-1-2.8-1.3l0.2-0.1c-0.6-1.5-2.2-5.8-4.3-11.4C132.5,152.2,140.4,140.5,151.2,142.2z M78,61.1c0-4.8,3.9-8.6,8.6-8.6
			c4.8,0,8.6,3.9,8.6,8.6c0,4.8-3.9,8.6-8.6,8.6C81.9,69.7,78,65.9,78,61.1z M88.2,72.1c0.8-0.1,1.6-0.3,2.3-0.6l8,22.1
			c-1.4,0.5-2.9,1.3-4.3,2.3L88.2,72.1z M91.9,103.4c1.3-2.4,6.1-6.4,9.2-6.6c1-0.1,1.4,0.3,1.6,0.6c1.9,2.7,13.6,33.1,23.4,58.7
			l0,0l0,0c1.4,3.7,2.8,7.4,4.1,10.8c-4.2-0.5-8.6,0.2-13.3,2.2c-3.9,1.7-7.1,4.2-9.7,7.4L91.9,103.4z M102.9,209.6
			c-0.9-20.1,4.2-32.3,15.4-37.2c6.3-2.7,12.1-2.7,17-0.1c7.6,4.2,13.2,14.4,15.4,28.2c3.6,22.7,0.9,33-0.4,36.2
			c-13.1-4-28.5-5.1-43.3-1.9C106,231,103.4,220.9,102.9,209.6z M86.9,247.1c5-3.1,10.4-5.4,15.8-7.1c-1.5,2.9-3.7,8.9-1.4,16.7
			c2.9,10,8.3,15.5,11,17.8c-4.6,2.6-7,6.1-8.2,9c-4.1,0-14.5-0.6-22.1-5.4c-7.8-4.9-11.2-11.8-12.3-15
			C73.8,257.4,79.3,251.8,86.9,247.1z M60,287.9c1-6.9,3.4-15.3,8.9-23.6c1.4,3.5,5,10,12.5,14.8c7.6,4.8,17.7,5.5,22.2,5.6
			c-0.2,0.4-0.3,0.8-0.4,1.2c-0.6,2.3-0.7,4.7-0.3,6.7c-2.1,3-7.8,10.5-14.8,13.6c-7.1,3.2-21.3,5.2-26.9,5.8
			C59.3,304.2,58.8,295.9,60,287.9z M88.4,414.2c-0.4,0.6-0.8,0.9-1,1.1c-0.3-0.4-0.7-1.2-1.3-3.3c-0.4-1.3-0.4-2.7-0.4-4.3
			c0-4-0.1-8.9-6.1-15.6H80c0-0.2,0.1-3.5,4.3-6c2.1-1.3,4.8-1.3,6.4-1.2C93.8,395.4,90,412.1,88.4,414.2z M78.7,371.8
			c3.1,2,6.6,4.3,9.7,8.5c0.8,1,1.3,2.2,1.9,3.5c-1.9-0.2-4.4,0-6.6,1.3c-3.5,2.1-4.5,4.9-4.8,6.2c-1.1-1.1-2.2-2.2-3.6-3.5
			c-4.8-4.1-11.2-6.7-17.3-9.2c-3.2-1.3-6.3-2.7-9.2-4.1c1.2-2.4,4-6.7,9-8.3c6.6-2.1,11.3-1.2,14.2-0.3
			C73.5,368.4,76.1,370.1,78.7,371.8z M70,361c0.2,1.2,0.5,2.4,1,3.4c-3.1-0.9-7.6-1.2-13.6,0.7c-5.5,1.8-8.5,6.4-9.7,9
			c-6.9-3.7-12.1-8.7-12.3-17.9c-0.2-5.1,0.7-9.5,2.2-13.3l0.1,0.1c0-0.1,3.7-5,13.9-3.7c14,1.7,20.6,10.1,22.2,12.6
			C71.2,354.2,69.5,357.3,70,361z M74.7,350.9c-1.9-2.9-8.9-11.3-23-12.9c-6.8-0.8-10.9,0.9-13.1,2.4c5.6-11.2,16.7-16.7,22.1-18.8
			c2.2,5.2,5.1,10,8.6,13.9c3.9,4.3,8.4,7.8,13,10.4C80,347,77.1,348.6,74.7,350.9z M95.3,347.3c3-3.1,10.8-11.7,14.8-20.4
			c3.6-8,5.1-20.6,5.5-25.3c5.8,1,12.1,0.1,16.2-1.1c0.4,0.8,5.1,8.9,6.7,21.1c0.8,5.6,0.1,11.6-0.5,15.3
			c-4.1,4.1-8.2,8.5-11.7,13.2C124.1,350.4,110.1,351.8,95.3,347.3z M124.3,359.9c4.5-1.5,12.7-3.3,21.6-0.3
			c13,4.4,18.9,12.6,20.9,16.4c-1,1-1.9,1.9-2.5,3.2c-0.8,1.4-1.2,2.9-1.2,4.5c-3.5-1.5-12.6-5.1-19.9-4
			c-14.6,2.4-21.4,12.1-24.2,18.3c-0.8-3.9-1.4-8.1-1.9-12.5C116.4,376.8,119.4,368.1,124.3,359.9z M119.5,400.1
			c2.2-5.8,8.4-16.7,23.9-19.1c7.4-1.2,17.1,2.9,19.8,4.2c0.1,0.8,0.3,1.5,0.5,2.3c0.7,2.2,2.3,4.3,4.5,6c-4.3,1-11.7,3.5-18.7,10.2
			c-8,7.6-9.8,24.5-10.2,28.7c-0.7-0.5-1.5-1.1-2.2-1.6C128.6,424,122.7,413.9,119.5,400.1z M140.5,433c0.2-2.2,1.8-20.8,9.8-28.5
			c7.4-7,15.2-9.3,19.2-10c2.8,1.9,6.5,3.5,10.5,4.8c-1.9,2.3-6.9,9.4-6.9,20.3c0,8.4,1.7,17.1,3.3,21.3
			C161.7,441.3,149.6,438.7,140.5,433z M192.8,439.2c-5.3,0.8-10.3,1.3-15,1.6c-1.2-3.3-3.4-11.5-3.4-21.3c0-11.2,5.7-18.4,7-19.9
			c5.1,1.3,10.7,2.1,16.6,2.1c3.5,0,7.2-0.3,10.7-0.9c-0.5,3.6-1.4,11-0.4,16.6c1.1,5.8,4.5,13.6,6.2,16.9
			C208.1,436.3,200.9,437.9,192.8,439.2z M243.2,418.5c-0.1-3.2-0.5-9.7-3.4-16.4c-2.6-5.8-7.8-8.7-9.9-9.7c5.1-3.6,7.1-7.1,7.3-7.4
			c0.5-0.9,0.3-2-0.6-2.6c-0.2-0.1-0.4-0.2-0.6-0.2l-1.2-3.8c1.2,0,4.6,0.2,7.5,1.8c2,1.1,5.1,4.2,6.6,5.8c1.2,3.6,1.9,8.1,1.9,13.3
			C250.8,406.6,248.3,413,243.2,418.5z M247.8,383.2c-1.6-1.6-3.5-3.3-5-4.1c-3.6-1.9-7.8-1.9-8.5-1.9l-2.8-9.3
			C235.3,369.1,243.4,372.9,247.8,383.2z M262.4,350.6c-12.7-2-29.3,2-35,3.6l-3.7-12.2c-0.5-1.8-1.8-3.2-3.4-4
			c-1.6-0.8-3.5-1-5.2-0.4l-17.9,5.8c-1-2.9-3.6-8.5-10.5-15.1c-8.2-7.8-15.2-9.8-19.9-10.1c3.3-2.3,5.3-3.5,5.5-3.6l-1.9-3.2
			c-0.4,0.2-1.6,1-3.5,2.2c-0.5-2.7-1.8-8.5-4-13.1c-1.2-2.4-3.2-5.5-4.7-7.6c2.9-2.4,5.3-5.4,6.6-7.2c0.7,0.5,1.3,1.1,1.9,1.6
			c6.9,6.5,8.5,14.4,9.9,21.3c0.8,3.9,1.5,7.2,3,9.8c3.7,6.5,15.2,8.6,20.8,9.6c0.8,0.2,1.6,0.3,1.9,0.4c2.7,0.8,6.1,1.3,8.2-0.6
			c0.9-0.8,1.7-2.5,0.9-5.3c-1.1-3.5-4.3-5.6-7.5-7.4c-2.9-1.7-5.9-3.5-7.5-6.5c-1-1.8-1.1-5.2-1.3-9.6c-0.4-7.5-0.8-17.8-5.7-29.2
			h14.4c3,9.8,11.3,16.9,20.9,16.9c12,0,21.7-10.8,22.2-24.4c1.5-0.4,4.7-1,7.2-1c5.6-0.1,7.4,0.5,7.8,0.8
			c0.7,12.7,9.5,22.7,20.1,22.7c9,0,16.7-7.3,19.3-17.2l4.8-0.9c-5.6,15.7-8.5,24.1-7.9,27.4c0.2,0.8,0.5,2.8,11.8,8.3
			c0,0,0.4,0.3,1,0.5c-3.3,2.7-10.8,10.2-16.3,24.8c-4.2,11-3.9,26.2-3.7,31.7c-2.9-1-5.4-2-7.8-2.9
			C276.7,354.1,271.1,352,262.4,350.6z M297.8,361.8c-0.2-5.6-0.3-20.1,3.5-30.4c5.7-15.2,13.8-22.3,16.3-24.3
			c4.8,3,11.3,7.3,17.9,12.4c-2.2,2.8-6,8.7-9,18.8c-2.6,8.5-1.6,18.6-1.3,21c-1.3,0.8-2.3,1.5-2.7,2.1c-0.5,1.1-0.4,2.7-0.2,6.2
			c-2.3-0.4-9.3-1.7-22.5-5.3C299.1,362.2,298.5,362,297.8,361.8z M295.5,385.9c1.2,0.4,3-0.2,17.7-6.6c4.2-1.9,9.3-4.1,10.8-4.6
			l0.5,0.2l0.8-0.6c1.2-0.9,1.1-2.1,0.7-6.1c-0.1-0.7-0.2-1.7-0.2-2.7l1.4,1.8l0.2,0.1c0.3,0.1,0.6,0.1,1,0.1c3.6,0,11-3.3,13.6-5.2
			c0.6-0.4,1.1-0.9,1.3-1.4c1.5,2,3.4,4.8,5.1,7.6v0.2c0,0,0.1,0,0.2,0c2.2,3.5,4.3,7.2,5.5,9.6c2.2,4.6,4.8,11.3,5.6,13.4
			c-0.1,0.1-0.1,0.2-0.2,0.4c-3.8,7.7-9.4,12.8-16.1,15c-9.5,3-14,0.6-19.8-2.4c-3.2-1.7-6.8-3.5-11.6-4.5
			c-3.6-0.7-8.1-0.5-13.1-0.3c-5.7,0.3-12.1,0.5-19.3-0.3c-2.7-0.3-4.5-0.8-5.9-1.4c-0.6-2.2-2-7-3.2-10.6c0.6,0.3,1.2,0.5,1.9,0.5
			c0.1,0,0.2,0,0.2,0c3.3,0,12.8-4.7,14.4-6.2c0.6-0.6,0.9-1.9,0.9-3c0.2,0.2,0.4,0.4,0.5,0.5C292.7,383.8,294.2,385.4,295.5,385.9z
			 M270.7,405.4c0.7-1.9,2.1-2.8,3.5-3.4c1.4,0.4,3,0.8,5.1,1c3,0.4,5.8,0.4,8.5,0.5c-1.3,2.1-3.2,5.6-3.5,9.2
			c-0.3,2.7,0.1,4.8,0.5,6.2c-5.5-1.2-10.9-2.8-14.6-4.8C269.5,412.5,269.2,409.3,270.7,405.4z M286.3,419.4
			c-0.5-1.3-1.2-3.4-0.8-6.5c0.4-3.8,2.5-7.4,3.8-9.4c3.5,0,6.8-0.1,9.9-0.3c4.1-0.2,7.7-0.4,10.6,0c-1.4,2.1-3.3,5.8-3.3,10.4
			c0,4.3,1.4,8.2,2.8,11c-1.7-0.8-3.5-1.5-5.8-1.9c-1.2-0.3-2.7-0.5-4.3-0.8C295.6,421.3,291,420.4,286.3,419.4z M286.5,376.6
			c0.1,0.1,0.2,0.3,0.4,0.4c0.1,1.5,0,3.1-0.5,3.6c-1.3,1.3-11,6-13.6,5.8c-1-0.1-1.9-0.5-2.6-1.1c-0.2-0.6-0.4-1.2-0.4-1.7
			C271.8,381.7,283.3,377.4,286.5,376.6z M266,411.1c-3-4.1-4.3-9-3.4-12.4c0.4-1.5,1.3-2.5,2.6-3c0.6-0.3,0.9-0.3,0.9-0.3
			c0.2,0.1,0.4,0.5,0.6,0.9c0.9,1.5,2.2,3.6,5.8,5.1c-1.2,0.7-2.4,1.8-3,3.5c-1.3,3.5-1.3,6.4-0.9,8.4
			C267.5,412.7,266.6,411.9,266,411.1z M310.7,434.8c-1.4,4.2-8.1,13.6-16.2,12.1c-5.1-1-10.6-14.8-13.4-24.9
			c5.4,1.4,11.4,2.6,17.5,3.6c1.6,0.3,3,0.5,4.3,0.8c3.6,0.7,6,2,8.4,3.7C311.4,430.4,311.6,431.9,310.7,434.8z M313.6,427.3
			C313.5,427.3,313.5,427.2,313.6,427.3L313.6,427.3c-0.8-0.5-1.5-1.1-2.3-1.5c-1.5-2.7-3.5-7.2-3.5-12.1c0-4.6,2.1-8.3,3.5-10.2
			c0.1,0,0.2,0,0.3,0c4.3,0.8,7.5,2.5,10.6,4.2c3.1,1.6,6,3.1,9.7,3.8c-0.8,2.3-1.9,6.6-1.9,12.6c0,5.5,1.9,9.4,3.1,11.4
			c-9.2-0.9-13.4-4-17.5-7C314.7,428.1,314.2,427.7,313.6,427.3z M343.4,435.7c-3.5,0.2-6.4,0.2-9,0c-1.1-1.5-3.5-5.7-3.5-11.6
			c0-5.8,1.2-10.2,1.9-12.3c3.2,0.4,7,0.1,11.7-1.4c3.6-1.2,7-3.1,9.9-5.7c1.2,0.5,7.2,3.3,9.7,8.2c2.2,4.3,2.1,12.4,2,15.4
			C358.7,432.6,350.8,435.2,343.4,435.7z M367.6,427.4c0.1-3.6,0-11-2.2-15.2c-2.5-4.7-7.8-7.5-9.7-8.5c2.8-2.7,5.3-6.2,7.4-10.3
			c1.2-2.5,2.2-5.1,3.1-7.9c2.3-0.8,7.3-1.9,12.8,0.5c10.8,4.5,14,12.8,14.5,14.7C386.8,412,377.6,421.2,367.6,427.4z M394.3,399.4
			c-1.2-3.1-5-10.3-14.9-14.4c-5.4-2.3-10.2-1.6-12.9-0.8c1.8-6.5,2.6-13.5,2.2-20.2c0.8-0.6,9.3-7,21.7-5.1
			c7,1.1,11.4,4.3,13.6,6.4c-0.1,1.4-0.2,2.9-0.3,4.4C402.8,380.4,399.4,390.5,394.3,399.4z M407.6,352.3
			c-1.4-20.9-8.5-39.3-18.5-53.8c0.1-0.1,0.3-0.3,0.4-0.4c2.3,0.6,13.1,3.8,20.8,10.8c10.9,9.9,12.7,23.2,13,27.2
			C417.5,343.7,411.2,349.4,407.6,352.3z M437.9,319c2.3,2.8,6,8.1,6.9,14.5c0.5,4.1,0.3,7.5-0.5,10.6c-1.3-2.1-4-5.3-9-5.9
			c-4.9-0.6-8.2,1.9-10.1,3.9l-0.7-1.4C429.6,334.7,434.6,327.3,437.9,319z M425.1,352.7c1.2-3.5,2.2-6.5,0.9-9.2l-0.1-0.2
			c1.5-1.8,4.8-4.5,9.3-3.9c5.4,0.7,7.9,4.9,8.7,6.5c-0.8,2.7-1.9,5.1-3,7.5c-2.1,4.7-4.1,9.2-3.7,14.7c-1.7-1.8-4.2-3-8.7-2
			c-2.6,0.5-4.5,2-5.8,3.5C421.9,362,423.7,356.7,425.1,352.7z M423,372.4c-0.1-0.4-0.1-0.7-0.2-1.1c1.2-1.4,3.1-3.4,5.9-4
			c5.1-1.1,7,0.8,8.7,3.1c0.2,0.9,0.4,1.9,0.8,2.8c1,2.9,2.2,5.3,3.7,7.4c-0.7,0-1.4,0.2-2.2,0.4c-3,1.2-4.4,4.2-5.1,5.9
			C429.1,383.4,424.1,378.5,423,372.4z M455,395.6c-2-0.4-11.2-2.9-19.2-7.9c0.4-1.4,1.7-4.4,4.3-5.4c1.1-0.4,1.9-0.4,2.7-0.4
			c4.3,5.5,10.1,8.4,14.4,10.6c1.9,1,3.5,1.8,4.3,2.5c0,0,0.1,0,0.1,0.1C460.4,395.6,457.5,396.1,455,395.6z"/>
		<path class="st17" d="M263.8,335.4c-2.5,3.2-5.3,6.6-6.4,7.7c-1.9-0.9-8.7-5.6-14.2-9.3c-6.5-4.4-13.1-9-15.9-10.4l-1.1,2.2
			c2.6,1.2,9.2,5.8,15.6,10.2c12.2,8.4,14.6,9.9,15.8,9.9c0.1,0,0.3,0,0.4,0c0.9-0.2,1.9-1.3,7.8-8.7c4-5.1,10.7-13.6,12.4-14.1
			l-0.4-2.5C275.7,320.6,271.9,325.1,263.8,335.4z"/>
		<path class="st17" d="M224.8,240.7c-9.4,0-17,9.1-17,20.3c0,11.2,7.6,20.3,17,20.3c9.4,0,17-9.1,17-20.3
			C241.8,249.8,234.2,240.7,224.8,240.7z M212.9,267.6c0-4.8,3.5-8.7,7.9-8.7s7.9,3.9,7.9,8.7c0,4.8-3.5,8.7-7.9,8.7
			S212.9,272.4,212.9,267.6z M224.8,278.9c-0.8,0-1.5-0.1-2.2-0.3c4.9-0.9,8.6-5.5,8.6-11c0-6.2-4.6-11.2-10.4-11.2
			c-5,0-9.1,3.8-10.1,9c-0.3-1.4-0.4-2.8-0.4-4.3c0-9.8,6.6-17.8,14.5-17.8c8,0,14.5,8,14.5,17.8
			C239.3,270.8,232.9,278.9,224.8,278.9z"/>
		<path class="st17" d="M281.9,279.8c8.5,0,15.4-8.8,15.4-19.5c0-10.7-6.9-19.5-15.4-19.5c-8.5,0-15.4,8.8-15.4,19.5
			C266.4,271,273.4,279.8,281.9,279.8z M271,266.2c0-4.7,3.4-8.5,7.4-8.5s7.4,3.8,7.4,8.5c0,4.7-3.4,8.5-7.4,8.5
			S271,270.9,271,266.2z M281.9,243.2c7.2,0,12.9,7.6,12.9,17c0,9.4-5.8,17-12.9,17c-0.6,0-1.3-0.1-1.9-0.2
			c4.8-0.8,8.5-5.3,8.5-10.9c0-6-4.4-11-9.9-11c-4.3,0-8.1,3.1-9.4,7.4c-0.1-0.8-0.2-1.6-0.2-2.4
			C268.8,250.8,274.7,243.2,281.9,243.2z"/>
		<path class="st17" d="M114,219.8l3.9-0.6c1.6-0.3,2.7-1.7,2.4-3.3l-0.6-3.9c-0.3-1.6-1.7-2.7-3.3-2.4l-3.9,0.6
			c-0.8,0.1-1.4,0.5-1.9,1.2c-0.4,0.6-0.6,1.4-0.5,2.1l0.6,3.9c0.2,1.4,1.4,2.5,2.8,2.5C113.8,219.9,113.8,219.9,114,219.8z
			 M112,217.2l-0.6-3.9c-0.1-0.4,0-0.9,0.3-1.2c0.3-0.4,0.6-0.6,1.1-0.6l3.9-0.6c0.1,0,0.2,0,0.3,0c0.8,0,1.5,0.6,1.6,1.4l0.6,3.9
			c0.2,0.9-0.4,1.8-1.3,1.9l-3.9,0.6c-0.4,0.1-0.9,0-1.2-0.3C112.2,218,112,217.7,112,217.2z"/>
		<path class="st17" d="M124.9,215.2c0.2,1.4,1.4,2.5,2.8,2.5c0.2,0,0.3,0,0.4,0l3.9-0.6c0.8-0.1,1.4-0.5,1.9-1.2
			c0.4-0.6,0.6-1.4,0.5-2.1l-0.6-3.9c-0.3-1.6-1.7-2.7-3.3-2.4l-3.9,0.6c-1.6,0.3-2.7,1.7-2.4,3.3L124.9,215.2z M125.8,210
			c0.3-0.4,0.6-0.6,1.1-0.6l3.9-0.6c0.1,0,0.2,0,0.3,0c0.4,0,0.7,0.1,1,0.4c0.4,0.3,0.6,0.6,0.6,1.1l0.6,3.9c0.1,0.4,0,0.9-0.3,1.2
			c-0.3,0.4-0.6,0.6-1.1,0.6l-3.9,0.6c-0.9,0.2-1.8-0.4-1.9-1.3l-0.6-3.9C125.5,210.8,125.5,210.3,125.8,210z"/>
		<path class="st17" d="M136.8,228.1c0.4-0.6,0.6-1.4,0.5-2.1l-0.6-3.9c-0.3-1.6-1.7-2.7-3.3-2.4l-19.1,2.9
			c-1.6,0.3-2.7,1.7-2.4,3.3l0.6,3.9c0.2,1.4,1.4,2.5,2.8,2.5c0.2,0,0.3,0,0.4,0l19.1-2.9C135.7,229.1,136.4,228.7,136.8,228.1z
			 M115.7,231c-0.9,0.2-1.8-0.4-1.9-1.3l-0.6-3.9c-0.2-0.9,0.4-1.8,1.3-1.9l19.1-2.9c0.1,0,0.2,0,0.3,0c0.8,0,1.5,0.6,1.6,1.4
			l0.6,3.9c0.1,0.4,0,0.9-0.3,1.2c-0.3,0.4-0.6,0.6-1.1,0.6L115.7,231z"/>
		<path class="st17" d="M358.2,192.6c-1.2-0.4-2.3-0.3-3.3,0.3l-7.5,3.9c-1.1,0.5-1.8,1.4-2.1,2.6c-0.4,1.2-0.3,2.3,0.3,3.3
			c0.5,1,1.4,1.8,2.6,2.1c0.5,0.2,1,0.3,1.5,0.2c0.6,0,1.2-0.2,1.8-0.4l7.5-3.9c1.1-0.5,1.8-1.4,2.1-2.6c0.4-1.2,0.3-2.3-0.3-3.3
			C360.2,193.7,359.3,192.9,358.2,192.6z M358.3,199.5l-7.5,3.9c-0.7,0.4-1.6,0.4-2.4,0.2c-0.8-0.3-1.4-0.8-1.9-1.5
			c-0.4-0.7-0.4-1.6-0.2-2.4c0.3-0.8,0.8-1.4,1.5-1.9l7.5-3.9c0.4-0.2,0.9-0.4,1.3-0.4c0.4,0,0.7,0,1.1,0.2c0.8,0.3,1.4,0.8,1.9,1.5
			C360.4,196.8,359.8,198.7,358.3,199.5z"/>
		<path class="st17" d="M203.4,357.3c-0.3-1.3-1.2-2.4-2.3-3.2c-1.2-0.7-2.5-1-3.8-0.6l-4.9,1.2c-2.7,0.6-4.4,3.4-3.8,6.1l1.2,4.9
			c0.3,1.3,1.2,2.4,2.3,3.2c0.8,0.5,1.8,0.8,2.7,0.8c0.4,0,0.8-0.1,1.2-0.2l4.9-1.2c2.7-0.6,4.4-3.4,3.8-6.1L203.4,357.3z
			 M200.5,367.2l-4.9,1.2c-1,0.3-2,0.1-2.9-0.4c-0.9-0.5-1.5-1.4-1.7-2.4l-1.2-4.9c-0.4-2,0.8-4.2,2.8-4.6l4.9-1.2
			c0.3-0.1,0.6-0.1,0.9-0.1c0.7,0,1.4,0.2,2,0.6c0.9,0.5,1.5,1.4,1.7,2.4l1.2,4.9C203.9,364.6,202.6,366.6,200.5,367.2z"/>
		<path class="st17" d="M196.6,357.3c-2.3,0-4.2,1.9-4.2,4.2c0,2.3,1.9,4.2,4.2,4.2c2.3,0,4.2-1.9,4.2-4.2
			C200.8,359.2,198.9,357.3,196.6,357.3z M196.6,364.5c-1.6,0-2.9-1.3-2.9-2.9s1.3-2.9,2.9-2.9c1.6,0,2.9,1.3,2.9,2.9
			S198.2,364.5,196.6,364.5z"/>
	</g>
	
		<ellipse transform="matrix(0.5476 -0.8367 0.8367 0.5476 16.492 280.1622)" class="st15" cx="267.3" cy="124.8" rx="13.3" ry="22.8"/>
</g>
</svg>
