<?xml version="1.0" encoding="utf-8"?>
<!-- Generator: Adobe Illustrator 27.3.1, SVG Export Plug-In . SVG Version: 6.00 Build 0)  -->
<svg version="1.1" id="Layer_1" xmlns="http://www.w3.org/2000/svg" xmlns:xlink="http://www.w3.org/1999/xlink" x="0px" y="0px"
	 viewBox="0 0 500 500" style="enable-background:new 0 0 500 500;" xml:space="preserve">
<style type="text/css">
	.st0{fill:#009A44;}
	.st1{fill:#FFFFFF;}
	.st2{fill:#FDEF3C;}
	.st3{fill:#FFC430;}
	.st4{fill:#FF8200;}
	.st5{fill:#EBF1F4;}
	.st6{fill:none;}
	.st7{fill:#F1BF66;}
	.st8{opacity:0.4;fill:#55285B;enable-background:new    ;}
	.st9{opacity:0.4;}
	.st10{fill:#55285B;}
	.st11{opacity:0.31;fill:#3F5C7E;enable-background:new    ;}
	.st12{opacity:0.3;fill:#FFFFFF;enable-background:new    ;}
	.st13{fill:#010101;}
</style>
<g>
	<path class="st0" d="M217.5,354.2c-6.3-9-51.6-191.5-15.1-223.3s78.6-26.1,97.5-22.6c47.7,8.9,59.9,118.8,65.5,150.6
		c5.5,31.8,6.2,58.3,6.4,67c0,3.4-23.6,63.5-27.4,70.2s-72.9,11.8-78.6,9.1C259.9,402.5,217.5,354.2,217.5,354.2"/>
	<path class="st1" d="M353.1,199.2c0,0,14.7-8,27.3-22.4c12.6-14.4,34.4-36.7,34.4-36.7s15.2,50.2-2.3,81.3
		c-23.9,42.7-48.6,48.4-48.6,48.4L353.1,199.2z"/>
	<path class="st1" d="M101,254.8c0,0,29-1.9,50.9-10.3c21.8-8.3,37-15.7,37-15.7l13.4,74.7c0,0-43.2-4.2-58.8-12.9
		C109.4,271.8,101,254.8,101,254.8z"/>
	
		<ellipse transform="matrix(0.1557 -0.9878 0.9878 0.1557 22.1389 378.49)" class="st1" cx="232.5" cy="176.3" rx="28.7" ry="28.7"/>
	<path class="st1" d="M330.3,169.6c-0.6,15.9-13,28.3-27.7,27.8c-14.7-0.6-27.2-13.9-26.6-29.8s14-28.3,28.7-27.7
		C319.5,140.3,330.9,153.7,330.3,169.6z"/>
	<path class="st2" d="M254.7,178.1c-0.4,11.8-11.4,21-23.2,20.5c-11.8-0.4-21-10.4-20.6-22.2c0.4-11.8,10.4-22.1,22.2-21.6
		C244.9,155.3,255.1,166.3,254.7,178.1z"/>
	
		<ellipse transform="matrix(3.776312e-02 -0.9993 0.9993 3.776312e-02 122.7148 465.5956)" class="st2" cx="303.1" cy="169.1" rx="21.6" ry="20.3"/>
	
		<ellipse transform="matrix(3.776318e-02 -0.9993 0.9993 3.776318e-02 40.5089 403.726)" class="st3" cx="229.9" cy="180.8" rx="16.7" ry="16.7"/>
	<path class="st3" d="M318.1,174.6c-0.3,8.9-7.9,15.9-16.8,15.6s-17-7.9-16.6-16.8s8.9-16.9,17.9-16.6
		C311.6,157.1,318.4,165.6,318.1,174.6z"/>
	<path class="st4" d="M189.2,216.2c0,0,32.3,7.7,43.5,8.6c11.2,0.9,42.2-1.2,42.2-1.2s2.4,4.3,4.8,5c2.4,0.7,4.1-5.3,4.1-5.3
		s29.5-6.3,41.4-11c13.3-5.3,28-16.2,28-16.2l7.5,37.7c0,0-15.3,17.6-18.6,22.4c-3.3,4.9-19.5,18.7-19.5,18.7l-69.5,5.5
		c0,0-24.3-7.5-32.1-11.2c-7.7-3.7-27.1-12.3-27.1-12.3L189.2,216.2z"/>
	<path class="st1" d="M322.8,270.6c-0.7,19.7-19.7,35.1-38.5,34.4c-18.7-0.7-33.4-17.3-32.6-37.1c0.7-19.7,16.5-35.2,35.3-34.5
		C305.9,234.1,323.6,250.7,322.8,270.6z"/>
	<path class="st5" d="M316.4,270.2c-0.6,14.7-14.1,26.2-30.4,25.6c-16.2-0.6-28.8-13.1-28.3-27.8c0.6-14.7,14.2-28.3,30.5-27.7
		C304.4,240.8,317,255.4,316.4,270.2z"/>
	<path class="st1" d="M193.8,256.8c0,0,12.8,6.9,27.1,12.3c14.2,5.4,32.1,11.2,32.1,11.2s10,23.7,31.5,24.4
		c21.4,0.7,35.8-21.4,36.9-25.7c1.2-4.3,14.1-14.6,20.7-23c6.6-8.3,18.6-22.4,18.6-22.4l6.5,40.3c0,0-23.7,31.5-32,37
		c-8.2,5.5-31.4,25-31.4,25s-42.9-11-56.7-15.1c-22.6-6.6-46.3-23.1-46.3-23.1L193.8,256.8z"/>
	<line class="st6" x1="188.8" y1="212.9" x2="189.4" y2="212.9"/>
	<path class="st1" d="M189.4,211.2c0,0,26.6,7.1,41.8,7.7c15.1,0.6,41.5,0.1,41.5,0.1l2.3,4.5c0,0-30.1,2.9-45.6,0.8
		c-15.5-2.1-40.1-8.2-40.1-8.2L189.4,211.2z"/>
	<path class="st1" d="M283.8,223.3l1.5-5.5c0,0,30.2-6.3,35.3-8.3c11.7-4.5,30.8-17.4,30.8-17.4l1.9,4c0,0-24.5,16.6-32.9,18.8
		C312,217.2,283.8,223.3,283.8,223.3z"/>
	<path class="st7" d="M279.7,228.6c0,0-4.8-3.9-8.1-9.6c-3.3-5.6-4.3-9.8-4.3-9.8s0.8-7,1.7-11.5c0.7-3.6,3.2-9.8,3.2-9.8
		s6.8,7,8.6,10.6c1.8,3.6,4.6,10,4.6,10s0.4,3.5-0.1,9.1C284.6,225.9,279.7,228.6,279.7,228.6z"/>
	<path class="st4" d="M203.3,300.6c0,0,29.5,16.2,43.8,20.1c14.3,4,56.7,15.1,56.7,15.1s31.2-23.3,38-31.1c6.8-7.7,25.3-31,25.3-31
		l2.7,39c0,0-20.3,25.4-28,31.7s-35.7,24.2-35.7,24.2s-36.3-7.3-50-11.7c-13.7-4.4-46.4-21.2-46.4-21.2L203.3,300.6z"/>
	<path class="st1" d="M264.5,405.2l-14.2-16c0,0,26.2,5.9,50.2,1s49.7-10.5,49.7-10.5l-5,17.5c0,0-24.1,5.5-43.8,6.2
		C281.9,404.1,264.5,405.2,264.5,405.2z"/>
	<path class="st0" d="M101,254.8c0,0-23.3,4.5-44.3,4.7s-40.5-0.3-40.5-0.3l16.5,20.1c14.8,2.3,30.3,4.8,45,5.1
		c15.7,0.4,38.7-1.8,38.7-1.8s-13.4,11.1-23.7,15.4c-10.3,4.4-44.8,2.2-44.8,2.2l33,19.7c0,0,26.2-0.7,36.2-8.1
		c9.9-7.4,22.6-15.1,22.6-15.1s-1.2,11.7-8.5,22.5c-6,8.8-22.8,17.3-22.8,17.3l28.4,5.5c0,0,13.2-7.1,19.4-18
		c6.3-10.9,9.4-16.6,9.4-16.6s4,13.7,1.2,21.1c-2.8,7.4-7.2,16-7.2,16l15.9-1c0,0,6.5-3.1,10.5-15.5c3.6-11.2,4.2-17,4.2-17
		s7.1,4.2,7.6,10.8s-2.6,15.1-2.6,15.1l7.8-1.1l4.1-5.8l-5.2-26.5c0,0-39-1.7-66.8-18.4C107.3,268.3,101,254.8,101,254.8z"/>
	<path class="st0" d="M367.7,268.3l1.9,23c0,0,1.2,0.1,2.9-3.3c1.7-3.4,1.3-5.9,1.3-5.9s3.1,3.3,9.6,5.3c7.6,2.4,21.6,0.2,21.6,0.2
		s-8.9-4.4-12.8-9.3c-4.5-5.6-2.9-13.6-2.9-13.6s0.2,3,13.6,6.7c13.4,3.7,25,3.3,25,3.3l14.7-14.5c0,0-9.6,2.9-18.1,0.4
		c-8.7-2.6-14.7-12.5-14.7-12.5s9.3,3.5,17.9,3.6c9.8,0.1,26.3-7.1,26.3-7.1l11.8-14.8c0,0-16.3-0.3-27.9-0.4
		c-11.6-0.2-18-7.6-18-7.6s9.2,0.9,26.9-2.9c17.5-3.7,25.6-12.8,25.6-12.8l8.1-29.8c0,0-15.3,15.8-28.7,17.7
		c-13.3,1.9-19.9,0.2-19.9,0.2s21.2-19.2,30-24.7c8.7-5.5,10.9-19.6,12.8-23.3c1.8-3.7-2.6-29.3-2.6-29.3s-11.3,18.6-20.5,28.7
		c-9.2,10.1-21.4,14.2-21.4,14.2s21.3-30.6,27.7-46.3c6.4-15.7,5.5-27.2,5.5-27.2l-10.7-26c0,0-4.4,18.8-11.4,32.6
		c-7,13.7-27.9,47.8-27.9,47.8s7.3,13,7,43.3c-0.4,37.9-21.8,59.3-27.1,66.2C388.4,256.4,367.7,268.3,367.7,268.3z"/>
	<polygon class="st1" points="179.1,91.8 184.4,88.4 212.8,121.1 201.2,130.9 	"/>
	<polygon class="st1" points="300.9,108.4 316.1,71.6 321.7,74.2 313.6,114.9 	"/>
	<ellipse class="st4" cx="177.4" cy="81.7" rx="9" ry="9"/>
	
		<ellipse transform="matrix(3.776310e-02 -0.9993 0.9993 3.776310e-02 244.2654 382.8593)" class="st4" cx="320.9" cy="64.6" rx="8.7" ry="8.7"/>
	<path class="st8" d="M272.1,187.9c0,0-0.3,8.3,1.9,19.8c2,10.5,6.6,21.9,6.6,21.9s-7.8-2.2-12.5-6.5c-4.7-4.3-7-7.6-6.5-10.5
		C263.3,204.1,272.1,187.9,272.1,187.9z"/>
	<path class="st8" d="M275.4,158.9c0,0-2.1,11.8-1.1,19.5c1,7.6,7.6,20.7,20.6,22.7c20,3.2,29.3-10.9,29.3-10.9s-17.6,11.4-29.1,5.6
		c-11.5-5.8-20.6-20.8-20.5-23.5C274.4,169.8,275.4,158.9,275.4,158.9z"/>
	<path class="st8" d="M254,252.3c0,0-4.6,20.8-2.2,27.7c3,8.3,12,20,27.8,23.9c16,4,33.7-9.5,33.7-9.5s-25.3,33.4-54.5,9.5
		C234.5,283.9,254,252.3,254,252.3z"/>
	<path class="st8" d="M184.8,87.9c0,0,1.8,2.5,0.2,4.6c-1.2,1.5-1.4,1.7-1.4,1.7l18.4,30.3l8.9-3.4l-11,10.9l-20.8-40.2l5.2-3.4
		L184.8,87.9z"/>
	<path class="st8" d="M188.8,228.9c0,0-1,25.3,1,41.8c4,33.6,17.6,59.5,17.6,59.5s-9.1-41.9-9.9-51.9
		C196.7,268.3,188.8,228.9,188.8,228.9z"/>
	<path class="st8" d="M99.3,256c0,0,16.2,27,47.8,39.5c33.2,13,51.6,8.8,51.6,8.8s-35.2-3.3-54.4-14.2
		C125.3,279.4,99.3,256,99.3,256z"/>
	<path class="st8" d="M23.2,259.5c0,0,5.3,12.6,12.5,15.9c21.3,9.5,80.4,5.8,80.4,5.8l-31.7,4.6l-50.8-5.3l-17.5-21.2L23.2,259.5z"
		/>
	<path class="st8" d="M62.5,300.6c0,0-6.5,1.2-2.2,4c4.3,2.8,15.6,9.8,21.2,11.8c3.4,1.2,26.1-3.7,34.8-7.3
		c10.3-4.3,26-15.5,26-15.5l-23.2,18.6c0,0-16.8,5.9-24.1,6.7c-7.3,0.8-12.1,2.8-12.1,2.8l-35-21.3L62.5,300.6z"/>
	<path class="st8" d="M110.3,335.8c0,0,1.4,1.5,10.7,3.3c9.3,1.8,15.8,3.1,15.8,3.1s18.9-12.8,21.7-17.5c2.8-4.8,7.9-21.5,7.9-21.5
		s-9.7,18.1-16.7,24.8c-7,6.7-9.5,8.9-14,10.2C131.2,339.5,110.3,335.8,110.3,335.8z"/>
	<path class="st8" d="M162.6,338.7l-3,6.6l18.5-2.1l8.1-17.6c0,0-5.6,9-9.5,14c-2.6,3.3-10.5,2.6-10.5,2.6
		C163.8,341.9,162.6,338.7,162.6,338.7z"/>
	<path class="st8" d="M198.1,329.8c0,0-0.1,4.1,2.4,4.1c2.6,0.1,6.7-5,6.7-5s0.6,3.4-1,4.7c-1.6,1.3-4.8,2.9-4.8,2.9l-6.1,1
		L198.1,329.8z"/>
	<path class="st8" d="M316.8,71.6l5.6,2.7c0,0-2.5,1.8-4.9,1.5l-14.1,31.8c0,0,3.1,2.3,5.8,4c2.3,1.5,5.1,3.4,5.1,3.4l-14.3-6.6
		L316.8,71.6z"/>
	<path class="st8" d="M319.5,56.4c0,0-6.7,2.6-2.8,9.9c2.9,5.6,9.5,4.3,9.5,4.3l-2.7,2.7c0,0-5.8,1.3-9-2.4
		c-3.3-3.8-2.5-9.2-0.5-11.1C316,57.8,319.5,56.4,319.5,56.4z"/>
	<path class="st8" d="M171.6,74.7c0,0-3.8,5.5,2.9,9.8c6.7,4.3,11.9-1.8,11.9-1.8l-2.1,5.6l-6.6,2.9l-7.3-3.5l-2.7-7.5L171.6,74.7z"
		/>
	<g class="st9">
		<path class="st10" d="M256.2,110.8C256.3,110.8,256.3,110.8,256.2,110.8C256.3,110.8,256.3,110.8,256.2,110.8z"/>
		<path class="st10" d="M332.7,399.7c0.1,0,0.2,0,0.2,0S332.8,399.6,332.7,399.7z"/>
		<path class="st10" d="M337,343.4c-5.7,5.6-34.3,25.8-36.6,24.6c-2.3-1.1-35.3-7.6-47.4-12.8c-3.8-1.6-9.4-4-15.4-6.5
			c-9.1-22.1-17.9-49.8-23.5-78.2c-4.9-24.5-6.9-60.9-6.9-60.9s16.4,3.5,25.1-0.4c9.1-4.1,17.8-12.9,17.8-12.9s-25.4,20.1-43.9-3.2
			c-7.3-9.3-5.1-26.4-3.2-30.4c1.9-4,12.6-12.4,12.6-12.4s3.3-12.7,12.4-25.8c8.7-12.7,23.2-14.6,24.3-14.8
			c-1.5,0.2-31.4,3.9-50.1,22.4c-19.1,19-11.8,92.6-9.1,119.3c2,19.9,12.7,61.8,20.6,87.5c-2.8-1.1-4.5-1.8-4.5-1.8s1.8,1.1,4.7,2.7
			c1,3.2,1.9,6.2,2.8,8.8c1,3,2.4,5.9,4.5,8.4l39.9,43.3l3.6,3.9c0,0,18-1.4,24.6-1.6c6.2-0.3,36.8-3.7,39.4-4
			c-3.5,0.4-52.8,5.8-63.8-2.4c-6.7-5.1-16.3-20.9-25.6-42.8c6.4,3.1,12.6,5.8,17.2,7.2c15.1,4.5,39.3,10.3,43.6,10.2
			c4.4-0.1,21.1-9.7,33.5-20.4c12.3-10.7,31-37.1,31-37.1S342.7,337.8,337,343.4z"/>
	</g>
	<path class="st8" d="M367.7,268.3c0,0,31.4-14.3,45.8-49.8c12.8-31.7,3.9-67.8,3.9-67.8s11.5,41.5-2.6,70.6
		C395.8,260.9,367.7,268.3,367.7,268.3z"/>
	<path class="st8" d="M369.4,267.1c0,0,1.4,5,7.2,10.3c5.8,5.3,11.1,8.2,14.4,8.2c3.2,0,7.9-1.7,7.9-1.7l6.3,3.7
		c0,0-14.4,2-17.8,2.1c-3.4,0.1-13.9-8.6-13.9-8.6s2.1,3.7-0.8,7c-2.9,3.3-2.9,3.3-2.9,3.3l-4.1-24.2L369.4,267.1z"/>
	<path class="st8" d="M387.6,262.1c0,0,11.2,5.8,20.3,7.7c9,1.9,14.8,1.2,18.3,1.6c3.6,0.3,11.1-9.4,11.1-9.4l3.4-2.6
		c0,0-8.5,12.7-11.3,14c-2.8,1.3-19.9,0.2-21.6,0C398.4,272.2,387.6,262.1,387.6,262.1z"/>
	<path class="st8" d="M405,245.9c0,0,9.7,1.1,22.5,1.6c11,0.4,18.3-2.3,22.4-3.8c4.1-1.6,14.2-14.4,14.2-14.4l3.2-0.8
		c0,0-10.9,16.7-14.3,18.4c-3.4,1.7-20.6,4.8-24.9,4.6C424.3,251.4,405.5,246.1,405,245.9z"/>
	<path class="st8" d="M414.9,221.3c0,0,39.2-6,43.9-9.3c4.7-3.3,7-3.9,9.4-6.8c2.5-2.9,10.1-24.6,10.1-24.6l2-2.3l-7.5,27.6
		l-4.8,5.2l-18.2,7L414.9,221.3z"/>
	<path class="st8" d="M431,193.9c0,0,25.7-22.3,30-28c4.1-5.7,9.9-15.8,10.5-20.1c0.6-4.3-0.2-24-0.2-24l4.1,16.6l-2.6,14.3
		l-6.9,13.4L431,193.9z"/>
	<path class="st11" d="M288.2,244.3c-11.4-0.4-21.3,7.1-24.3,17.7c4.1-2.7,9-4.2,14.2-4c13.3,0.5,23.8,11.7,23.3,25.1
		c-0.1,2.1-0.4,4.2-1,6.1c6.5-4.1,11-11.3,11.3-19.6C312.1,256.1,301.6,244.8,288.2,244.3z M299.6,253.4c-0.7,1.7-3.9,2-7.1,0.7
		c-3.2-1.4-5.2-3.9-4.5-5.6c0.7-1.7,3.9-2,7.1-0.7C298.4,249.2,300.4,251.7,299.6,253.4z"/>
	
		<ellipse transform="matrix(0.3116 -0.9502 0.9502 0.3116 90.9916 361.9371)" class="st12" cx="295.3" cy="118.2" rx="4.7" ry="14"/>
	<ellipse class="st12" cx="179.5" cy="77.4" rx="2.3" ry="2.3"/>
	
		<ellipse transform="matrix(3.776311e-02 -0.9993 0.9993 3.776311e-02 250.731 381.4777)" class="st12" cx="323.4" cy="60.5" rx="2.2" ry="2.2"/>
	
		<ellipse transform="matrix(0.9909 -0.1345 0.1345 0.9909 -30.2451 49.7629)" class="st12" cx="353.2" cy="248.7" rx="3.6" ry="66.3"/>
	<g id="inks">
		<path class="st13" d="M302.3,191.4c-12-0.5-21.3-10.9-20.9-23.4c0.5-12.4,10.6-22.2,22.6-21.7c12,0.5,21.3,10.9,20.9,23.4
			C324.5,182.2,314.3,191.9,302.3,191.4z M303.9,148.5c-10.8-0.4-20,8.4-20.4,19.7c-0.4,11.3,8,20.8,18.9,21.2
			c10.8,0.4,20-8.4,20.4-19.7C323.2,158.4,314.7,148.9,303.9,148.5z"/>
		<path class="st13" d="M273.5,406.7c-4.3-0.2-7.7-0.6-9.5-1.5l0,0c-4.1-2.2-38.9-39.4-44.9-46.7c-14.8-17.9-30.8-115.7-31.6-140.2
			c0-1.5-0.1-3.4-0.2-5.5c-1-20.5-3.4-68.6,19-88.3c21-18.5,81.4-28,106-11.7c25.6,17.1,40.6,70,48.5,111.4
			c9,46.9,11.8,91.9,11.4,101.9c-0.5,11.8-23.3,65.9-27.4,71.3c-3.1,4-32.7,7.2-38.6,7.8C301.8,405.5,284.9,407.1,273.5,406.7z
			 M265.5,402.4c3.4,1.8,19.8,1.6,39.9-0.4c20.7-2.1,35.3-5.1,36.9-6.7c3.9-5.1,26.3-58.4,26.8-69.4c0.4-9.9-2.4-54.5-11.3-101.1
			c-7.8-40.8-22.3-92.9-47.1-109.4c-23.5-15.7-81.8-6.4-102.2,11.4c-21.2,18.7-18.9,65.8-17.9,85.8c0.1,2.2,0.2,4.1,0.3,5.6
			c0.9,27,17.3,122,30.9,138.3C228.9,365.2,262.2,400.7,265.5,402.4L265.5,402.4z"/>
		<path class="st13" d="M285.5,306.3c-20.6-0.8-36.8-18.2-36-38.8c0.8-20.6,18.2-36.8,38.8-36c20.6,0.8,36.8,18.2,36,38.8
			C323.4,290.9,306,307.1,285.5,306.3z M288.2,234.7c-18.9-0.7-34.9,14-35.6,33s14,34.9,33,35.6c18.9,0.7,34.9-14,35.6-33
			S307,235.4,288.2,234.7z"/>
		<path class="st13" d="M285.9,298.1c-16.2-0.6-28.8-14.3-28.2-30.5c0.6-16.2,14.3-28.8,30.5-28.2c16.2,0.6,28.8,14.3,28.2,30.5
			C315.8,286.1,302.1,298.8,285.9,298.1z M288.1,241.5c-15-0.6-27.7,11.2-28.2,26.2c-0.5,15,11.2,27.7,26.2,28.2
			c15,0.6,27.7-11.2,28.2-26.2C314.8,254.8,303.1,242.1,288.1,241.5z"/>
		<path class="st13" d="M231.8,207.4c-16.6-0.6-29.5-14.6-28.9-31.3c0.6-16.6,14.6-29.5,31.3-28.9s29.5,14.6,28.9,31.3
			C262.3,195,248.4,208,231.8,207.4z M234,150.4c-14.8-0.6-27.3,11-27.9,25.9c-0.6,14.8,11,27.3,25.9,27.9
			c14.8,0.6,27.3-11,27.9-25.9C260.4,163.5,248.8,150.9,234,150.4z"/>
		<path class="st13" d="M302.1,198.8c-16.4-0.6-29.2-14.4-28.5-30.9c0.7-16.4,14.4-29.2,30.9-28.5c16.4,0.6,29.2,14.4,28.5,30.9
			C332.3,186.6,318.4,199.5,302.1,198.8z M304.2,142.6c-14.6-0.6-27,10.9-27.5,25.5c-0.6,14.6,10.9,27,25.5,27.5
			c14.6,0.6,27-10.9,27.5-25.5C330.3,155.5,318.8,143.2,304.2,142.6z"/>
		<path class="st13" d="M368.9,293c-0.7,0-1.1-0.5-1.3-0.8c-0.8-1.4,0.5-2.3,2.4-3.7c2.6-1.9,2.3-6.7,2.3-6.7l-0.3-3.5l2.8,2.2
			c0,0,4.5,3.5,9.4,6c2.9,1.5,10.7,0.9,16,0.2c-3.2-2.2-7.6-5.3-9.2-7.3c-2.6-3.2-3.3-13.2-3.3-14.3l-0.2-3l2.6,1.5
			c0.1,0.1,12.8,7.7,18.6,8.4l1.6,0.2c5.8,0.7,14.7,1.8,17.9,0.5c2-0.8,6.3-5.5,9.8-9.7c-3.2,0.3-8,0.3-13.3-1.5
			c-9.6-3.2-17.4-12.6-17.7-13l-3-3.7l4.6,1.1c7.5,1.9,18.9,4.3,20.9,3.9c0.5-0.1,1.1-0.2,2-0.3c4.6-0.7,15.5-2.5,19.7-5.2
			c5-3.3,10.4-10,13.3-13.7c-6.6,0.5-20.9,1.4-28.4,0.6c-7.7-0.8-16.9-8-17.3-8.3l-3.1-2.5l4-0.3c0.2,0,23-2,30.8-3.9
			c12-2.9,19.3-8.3,21.2-11.3c1.3-2,4.5-14.5,6.8-24.4c-4,3.3-10.6,8.4-17.5,11.6c-10.9,5-28.1,3.3-28.9,3.3l-4-0.4l3.2-2.4
			c8.8-6.7,32.5-25.1,35.1-29.4c3.3-5.4,6.3-13.4,7.5-18.2c0.7-2.9-0.8-14.1-2.3-23.1c-3.2,5.8-9.6,16.7-17.4,24.8
			c-11.1,11.5-23.2,14.2-23.7,14.3l-4.1,0.9l2.5-3.3c0.2-0.3,19.5-26.3,26.5-39.7c7.5-14.1,7-28.4,6.7-32.5
			c-0.3-3.7-5.4-15.8-9-23.8c-2.2,13.9-12,51.8-54.4,98.9c-17.3,19.1-43.5,39.7-43.7,39.9l-1.9-2.5c0.3-0.2,26.2-20.5,43.3-39.6
			c52-57.6,54.3-102.2,54.3-102.6l0.2-6.5l2.7,5.9c0.5,1,11.1,23.8,11.6,30.1c0.3,4.3,0.8,19.3-7,34.3
			c-5.5,10.5-18.1,28.2-23.9,36.1c4.3-1.8,11.2-5.3,17.6-11.9c10.6-11,18.9-27.9,19-28.1l2.1-4.3l0.9,4.7c0.5,2.4,4.4,23.8,3.1,28.9
			c-1.2,5-4.4,13.4-7.9,19.1c-2.9,4.7-23.8,21.1-32.5,27.7c5.7,0.2,16,0,23.1-3.2c10.3-4.7,20.3-14.2,20.4-14.2l3.8-3.6l-1.1,5.1
			c-0.6,2.7-6,26.7-8.3,30.3c-2.7,4.2-10.9,9.7-23.1,12.6c-5.9,1.4-19.8,2.9-26.9,3.5c3.2,2.1,8.1,4.8,12.2,5.2
			c9.4,1,31.1-0.9,31.3-0.9l3.3-0.3l-1.9,2.7c-0.3,0.5-8.4,12.3-16.1,17.3c-4.7,3.1-15.7,4.9-20.9,5.7c-0.8,0.1-1.5,0.2-1.9,0.3
			c-2.4,0.4-11.1-1.4-17-2.7c3,2.9,7.6,6.6,12.7,8.3c8.7,2.9,15.7,0.7,15.7,0.6l4.9-1.6l-3.1,4.1c-1,1.3-9.6,12.3-13.7,14
			c-3.7,1.5-11,0.8-19.5-0.3l-1.6-0.2c-4.8-0.6-13-4.9-17.2-7.3c0.4,3.7,1.2,8.1,2.4,9.5c1.8,2.2,9.2,7.1,11.9,8.9l3.4,2.2l-3.9,0.7
			c-1.7,0.3-16.5,2.9-22,0.1c-3-1.5-5.7-3.3-7.5-4.6c-0.3,2.1-1.2,4.8-3.5,6.4c-1.3,0.9-1.6,1.2-1.6,1.2c0.3-0.3-0.5,0.5-0.9-0.1
			c-0.3-0.5,0,0-0.4,0l1.4,0.5C369.7,293,369.3,293.1,368.9,293z"/>
		<path class="st13" d="M156.9,346.7l1.4-2.3c0.1-0.1,5.9-9.8,7.4-16.1c1-3.8,0.1-11-0.7-16c-1.6,3.7-3.9,8.7-6.5,12.4
			c-4.7,6.9-13.6,15-18.6,18c-5.3,3.1-29.1-3.4-33.9-4.7l-6.1-1.7l6.2-1.3c0.1,0,13.7-3,22.2-13.8c3-3.8,6.8-14.2,8.9-20.4
			c-4.3,3.4-11.2,8.7-15.4,11.8c-6,4.4-31.2,9.9-39,9.2c-7.5-0.6-34.3-18.2-37.3-20.2l-4.5-3l5.4,0.1c16.5,0.4,42.5,0.3,46.3-1.4
			c6.9-3.1,14.5-8.9,18.9-12.5c-7.8,0.6-23,1.8-31.1,1.7c-10.2-0.1-40.2-3.4-46.9-5.9c-6.4-2.4-17.6-19-18.8-20.9l-1.8-2.6l3.2,0.2
			c0.7,0,70.8,4.4,124.8-11.5c26.3-7.7,47.8-19.4,48-19.5l0.4,3.8c-0.2,0.1-20.8,10.9-47.5,18.7c-47.9,14.1-108.2,12.4-122.7,11.7
			c4.1,5.8,11.6,15.5,15.5,17c5.8,2.2,35,5.6,45.8,5.7c10.6,0.1,35.4-2.1,35.7-2.1l4.6-0.4l-3.4,3.1c-0.5,0.5-12.4,11.3-23.4,16.2
			c-4.7,2.1-30.4,2-42.2,1.8c9.8,6.3,26.4,16.3,31.3,16.7c7.1,0.6,31.6-4.7,36.9-8.6c6.5-4.8,19.3-14.9,19.4-15l4-3.1l-1.5,4.8
			c-0.3,0.8-6.3,20.3-11,26.3c-5.8,7.4-13.6,11.3-18.7,13.2c10.6,2.7,23.5,5.2,26.1,3.6c4.7-2.8,13.3-10.7,17.6-17
			c4.3-6.2,8.1-16.7,8.2-16.8l1.9-5.2l1.1,5.4c0.1,0.6,3.3,15.9,1.6,22.8c-1.2,4.8-4.5,11.2-6.4,14.6c4.8,0,10.9-0.4,12.9-1.6
			c3.4-2.2,7.2-8.1,9.2-14.4c0.1-0.5,0.4-1,0.6-1.7c1.1-3,3-8.1,3.1-15.1v-3.1l2.5,1.9c0.2,0.2,5.3,4,7.8,10.6
			c2,5.3,0,11.9-1.3,15.3c1.5-0.1,3.5-0.3,5.1-1c2.4-1.1,4.5-5,5.1-6.5l2.9,1.2c-0.3,0.6-2.8,6.3-6.7,8.1c-3.8,1.7-8.7,1.3-8.9,1.3
			l-2.3-0.2l1-2.1c0-0.1,4.4-9,2.1-15.1c-1.1-3-2.9-5.4-4.3-7c-0.5,5.9-2.2,10.2-3.1,12.8c-0.2,0.6-0.4,1.1-0.5,1.5
			c-2.2,7-6.5,13.4-10.5,16.1c-3.9,2.5-15.9,2.1-17.3,2.1L156.9,346.7z"/>
		<path class="st13" d="M203.1,183l-6.3-0.2c-1.2,0-2.1-1-2-2.2c0-1.2,1-2.1,2.2-2l6.3,0.2c1.2,0,2.1,1,2,2.2
			C205.2,182.1,204.2,183,203.1,183z"/>
		<path class="st13" d="M200,195.5c-0.8,0-1.5-0.5-1.8-1.3c-0.5-1.1,0-2.3,1.1-2.8l6.6-2.8c1.1-0.5,2.3,0,2.8,1.1s0,2.3-1.1,2.8
			l-6.6,2.8C200.6,195.4,200.3,195.5,200,195.5z"/>
		<path class="st13" d="M207.1,207c-0.5,0-1-0.2-1.3-0.6c-0.8-0.8-0.9-2.1-0.1-3l5.3-5.6c0.8-0.8,2.1-0.9,3-0.1
			c0.8,0.8,0.9,2.1,0.1,3l-5.3,5.6C208.2,206.8,207.6,207,207.1,207z"/>
		<path class="st13" d="M333.2,193.2c-0.5,0-1-0.2-1.4-0.6l-5.4-5.4c-0.8-0.8-0.8-2.1,0-3c0.8-0.8,2.1-0.8,3,0l5.4,5.4
			c0.8,0.8,0.8,2.1,0,3C334.4,193,333.8,193.2,333.2,193.2z"/>
		<path class="st13" d="M338.7,180.1c-0.1,0-0.1,0-0.2,0l-6.6-0.9c-1.1-0.2-1.9-1.2-1.8-2.4c0.1-1.2,1.2-1.9,2.4-1.8l6.6,0.9
			c1.1,0.2,1.9,1.2,1.8,2.4C340.7,179.4,339.8,180.1,338.7,180.1z"/>
		<path class="st13" d="M332.4,168.5c-1,0-1.8-0.8-2-1.8c-0.2-1.1,0.6-2.2,1.7-2.4l5.3-0.8c1.1-0.2,2.2,0.6,2.4,1.7
			c0.2,1.1-0.6,2.2-1.7,2.4l-5.3,0.8C332.7,168.5,332.6,168.5,332.4,168.5z"/>
		<path class="st13" d="M198.6,304.3c-8.5-0.3-32.6-2.1-51.3-11.5c-34.7-17.5-47.6-36.1-48.1-36.8l1.7-1.2
			c0.1,0.2,13.2,18.8,47.3,36.2c22.5,11.4,53.1,11.4,53.4,11.4v2.1C201.6,304.4,200.5,304.4,198.6,304.3z"/>
		<path class="st13" d="M366.1,269.1l-0.6-2c0.3-0.1,29.5-9,46.1-47.7c16.6-38.8,2.3-78.8,2.2-79.2l2-0.7
			c0.1,0.4,14.7,41.3-2.2,80.8C396.6,259.9,366.4,269.1,366.1,269.1z"/>
		<g>
			<path class="st6" d="M278.6,219.7c-1.7,0.2-3.5,0.4-5.2,0.6c0.5,0.8,1.1,1.6,1.6,2.3c1.4-0.1,2.8-0.3,4.2-0.5
				c1.3-0.2,2.5-0.3,3.8-0.5c0.2-0.8,0.3-1.7,0.5-2.5C281.9,219.3,280.2,219.5,278.6,219.7z"/>
			<path class="st6" d="M283.8,216.9c0.5-3.9,0.6-7.5,0.4-8.8c-0.6-3.3-9.7-17.5-12-18.9c-1.6,1.9-3.5,15.1-3.7,20.3
				c-0.1,1.7,1.6,5.3,3.7,8.8c2-0.2,4.1-0.4,6.2-0.7C280.2,217.4,282,217.1,283.8,216.9z"/>
			<path class="st6" d="M276.5,224.5c1.5,1.8,2.9,3.1,3.9,3.4c0,0,0.1,0,0.3-0.1c0.7-0.6,1.3-2.1,1.8-4c-1,0.1-2,0.3-3,0.4
				C278.5,224.3,277.5,224.4,276.5,224.5z"/>
			<path class="st13" d="M351.6,192.6c0.4-0.4,0.3-1.1-0.1-1.5s-1.1-0.3-1.5,0.1c-0.2,0.2-17,18-64.1,25.2c-0.1,0.7-0.2,1.4-0.3,2.2
				C333.9,211.5,351,193.4,351.6,192.6z"/>
			<path class="st13" d="M189.8,210.1c-0.5-0.2-1.1,0.1-1.4,0.6c-0.2,0.5,0.1,1.1,0.6,1.4c0.3,0.1,21.1,7.9,54,9.2
				c8.8,0.3,17.5,0.1,27.9-0.8c-0.4-0.7-0.8-1.3-1.2-2C221.9,222.4,190.2,210.2,189.8,210.1z"/>
			<path class="st13" d="M352.4,195.6c-0.4-0.4-1.1-0.3-1.5,0.1c-0.2,0.2-17.4,18.4-65.7,25.5c-0.1,0.8-0.3,1.5-0.5,2.2
				c49.8-7.1,67.1-25.5,67.8-26.3C352.9,196.6,352.9,195.9,352.4,195.6z"/>
			<path class="st13" d="M190.7,214.6c-0.5-0.2-1.1,0.1-1.4,0.6c-0.2,0.5,0.1,1.1,0.6,1.4c0.3,0.1,21.1,7.9,54,9.2
				c9.4,0.4,18.8,0.1,30.1-1c-0.5-0.6-1-1.3-1.5-2C223.6,227.2,191,214.7,190.7,214.6z"/>
			<path class="st13" d="M268.3,209.4c0.2-5.2,2.1-18.4,3.7-20.3c2.3,1.4,11.4,15.6,12,18.9c0.3,1.3,0.1,5-0.4,8.8
				c0.7-0.1,1.5-0.2,2.2-0.3c0.4-3.9,0.5-7.5,0.3-8.9c-0.6-3.3-9.8-18.5-13.2-20.4c-0.7-0.4-1.2-0.3-1.5-0.2l0,0
				c-3.2,1.3-5,18.9-5.1,22.3c-0.1,1.9,1.4,5.4,3.5,9.1c0.8-0.1,1.5-0.1,2.3-0.2C269.9,214.7,268.2,211.2,268.3,209.4z"/>
			<path class="st13" d="M273.3,220.2c-0.8,0.1-1.6,0.1-2.4,0.2c0.5,0.8,1,1.6,1.5,2.3c0.8-0.1,1.6-0.1,2.5-0.2
				C274.4,221.8,273.8,221,273.3,220.2z"/>
			<path class="st13" d="M283,221.6c0.7-0.1,1.5-0.2,2.2-0.3c0.2-0.8,0.3-1.7,0.4-2.5c-0.7,0.1-1.5,0.2-2.2,0.3
				C283.3,219.9,283.2,220.7,283,221.6z"/>
			<path class="st13" d="M280.7,227.7c-0.2,0.2-0.3,0.2-0.3,0.1c-1-0.3-2.4-1.6-3.9-3.4c-0.8,0.1-1.7,0.2-2.5,0.3
				c2.1,2.6,4.2,4.6,5.8,5.1c0.2,0.1,0.4,0.1,0.6,0.1c0.6,0,1.2-0.2,1.8-0.7c1.1-1,2-3.2,2.6-5.8c-0.7,0.1-1.5,0.2-2.2,0.3
				C282,225.6,281.4,227.1,280.7,227.7z"/>
			<path class="st13" d="M272,218.2c-0.8,0.1-1.6,0.1-2.3,0.2c0.4,0.7,0.8,1.3,1.2,2c0.8-0.1,1.6-0.1,2.4-0.2
				C272.9,219.6,272.4,218.9,272,218.2z"/>
			<path class="st13" d="M283.5,219c0.8-0.1,1.5-0.2,2.2-0.3c0.1-0.7,0.2-1.4,0.3-2.2c-0.7,0.1-1.4,0.2-2.2,0.3
				C283.7,217.6,283.6,218.3,283.5,219z"/>
			<path class="st13" d="M283,221.6c-0.2,0.8-0.3,1.5-0.5,2.2c0.7-0.1,1.5-0.2,2.2-0.3c0.2-0.7,0.3-1.4,0.5-2.2
				C284.5,221.4,283.7,221.5,283,221.6z"/>
			<path class="st13" d="M274.9,222.5c-0.8,0.1-1.6,0.2-2.5,0.2c0.5,0.7,1,1.3,1.5,2c0.8-0.1,1.7-0.2,2.5-0.3
				C276,223.9,275.5,223.2,274.9,222.5z"/>
		</g>
		<path class="st13" d="M253,282.5c-0.1,0-14.3-4.4-27.4-9.2c-14.9-5.4-33-15.4-33.2-15.5l1-1.8c0.2,0.1,18.1,10,32.9,15.3
			c13,4.7,27.1,9.1,27.3,9.1L253,282.5z"/>
		<path class="st13" d="M323.1,275.7l-1.4-1.6c0.1-0.1,14.8-12.5,23.3-22.1c7.5-8.5,14.7-18.6,14.8-18.7l1.7,1.2
			c-0.1,0.1-7.3,10.4-14.9,18.9C338.1,263.1,323.3,275.6,323.1,275.7z"/>
		<path class="st13" d="M302.7,336.3c-3-0.1-36.8-7.4-61-16.3c-24-8.9-41.7-20.8-41.8-20.9l1.2-1.7c0.2,0.1,17.6,11.9,41.4,20.7
			c23.4,8.7,57.5,16.1,60.3,16.2c2.8-0.4,26.7-19.1,37.1-29c9.6-9.2,25.7-31.1,25.9-31.3l1.7,1.2c-0.2,0.2-16.4,22.1-26.1,31.6
			C333.2,314.2,306.4,336.4,302.7,336.3z"/>
		<path class="st13" d="M232,199.9c-12.5-0.5-22.2-11-21.8-23.5c0.5-12.5,11-22.2,23.5-21.8c12.5,0.5,22.2,11,21.8,23.5
			C255.1,190.5,244.4,200.3,232,199.9z M233.6,156.6c-11.3-0.4-20.9,8.4-21.3,19.7c-0.4,11.3,8.4,20.9,19.7,21.3
			c11.3,0.4,20.9-8.4,21.3-19.7C253.8,166.6,244.9,157.1,233.6,156.6z"/>
		
			<rect x="189" y="88.6" transform="matrix(0.8812 -0.4728 0.4728 0.8812 -30.0918 103.0953)" class="st13" width="2.1" height="45.7"/>
		<polygon class="st13" points="210.9,121 183.8,88.7 185.5,87.4 213.5,120.7 		"/>
		
			<rect x="288.1" y="89.4" transform="matrix(0.3934 -0.9194 0.9194 0.3934 103.7432 338.1296)" class="st13" width="40" height="2.1"/>
		<polygon class="st13" points="314.4,116.1 312.4,115.6 320.6,74.2 322.7,73.6 		"/>
		<path class="st13" d="M177.2,92.1c-5.8-0.2-10.3-5.1-10.1-10.9c0.2-5.8,5.1-10.3,10.9-10.1c5.8,0.2,10.3,5.1,10.1,10.9
			C187.8,87.8,182.9,92.3,177.2,92.1z M177.9,73.2c-4.6-0.2-8.5,3.4-8.7,8.1c-0.2,4.6,3.4,8.5,8.1,8.7c4.6,0.2,8.5-3.4,8.7-8.1
			C186.1,77.2,182.5,73.3,177.9,73.2z"/>
		<path class="st13" d="M320.5,74.5c-5.4-0.2-9.7-4.8-9.5-10.2c0.2-5.4,4.8-9.7,10.2-9.5s9.7,4.8,9.5,10.2
			C330.5,70.5,325.9,74.7,320.5,74.5z M321.1,57c-4.3-0.2-7.9,3.2-8,7.4c-0.2,4.3,3.2,7.9,7.4,8c4.3,0.2,7.9-3.2,8-7.4
			C328.7,60.7,325.4,57.1,321.1,57z"/>
		<path class="st13" d="M229.1,198.6c-9.7-0.4-17.2-8.5-16.9-18.2c0.4-9.7,8.5-17.2,18.2-16.9c9.7,0.4,17.2,8.5,16.9,18.2
			C246.9,191.4,238.7,199,229.1,198.6z M230.3,165.6c-8.5-0.3-15.7,6.3-16,14.9s6.3,15.7,14.9,16c8.5,0.3,15.7-6.3,16-14.9
			C245.5,173.1,238.8,165.9,230.3,165.6z"/>
		<path class="st13" d="M300.5,191c-9.7-0.4-17.2-8.5-16.9-18.2c0.4-9.7,8.5-17.2,18.2-16.9c9.7,0.4,17.2,8.5,16.9,18.2
			C318.3,183.8,310.1,191.4,300.5,191z M301.7,158c-8.5-0.3-15.7,6.3-16,14.9c-0.3,8.5,6.3,15.7,14.9,16c8.5,0.3,15.7-6.3,16-14.9
			C316.9,165.5,310.2,158.3,301.7,158z"/>
		<path class="st13" d="M304.4,369.7c-6-0.2-31.1-6.5-45.1-10.7c-15.1-4.5-48.4-21.7-49.8-22.4l1-1.9c0.3,0.2,34.5,17.8,49.5,22.2
			c15.8,4.7,40.5,10.6,44.9,10.6c4.1-0.1,22.8-11.9,34.3-22.5c10.7-9.9,29.8-32.7,30.1-32.9l1.6,1.3c-0.2,0.2-19.4,23-30.3,33.1
			c-10.3,9.6-30.3,23-35.7,23.1C304.7,369.7,304.5,369.7,304.4,369.7z"/>
		<path class="st13" d="M265.1,391.9c-9.2-0.3-14.9-1.1-15-1.1l0.3-2.1c0.2,0,23.8,3.2,54.5-0.6c27.2-3.3,46.2-10.2,46.4-10.3l0.7,2
			c-0.2,0.1-19.4,7.1-46.9,10.4C289.2,392.2,275.1,392.3,265.1,391.9z"/>
		<path class="st13" d="M203.4,255.6c-1.6-0.1-2.8-1.4-2.8-3c0.1-1.6,1.4-2.8,3-2.8c1.6,0.1,2.8,1.4,2.8,3
			C206.3,254.5,205,255.7,203.4,255.6z M203.6,250.9c-1,0-1.9,0.8-1.9,1.8s0.8,1.9,1.8,1.9s1.9-0.8,1.9-1.8S204.6,251,203.6,250.9z"
			/>
		<path class="st13" d="M222.1,263.8c-1.6-0.1-2.8-1.4-2.8-3c0.1-1.6,1.4-2.8,3-2.8c1.6,0.1,2.8,1.4,2.8,3
			C225,262.6,223.7,263.8,222.1,263.8z M222.2,259c-1,0-1.9,0.8-1.9,1.8s0.8,1.9,1.8,1.9s1.9-0.8,1.9-1.8
			C224.1,259.9,223.3,259,222.2,259z"/>
		<path class="st13" d="M241.8,269.8c-1.6-0.1-2.8-1.4-2.8-3c0.1-1.6,1.4-2.8,3-2.8c1.6,0.1,2.8,1.4,2.8,3
			C244.7,268.6,243.4,269.8,241.8,269.8z M241.9,265c-1,0-1.9,0.8-1.9,1.8s0.8,1.9,1.8,1.9s1.9-0.8,1.9-1.8
			C243.7,265.9,243,265.1,241.9,265z"/>
		<path class="st13" d="M329.2,261.5c-1.6-0.1-2.8-1.4-2.8-3c0.1-1.6,1.4-2.8,3-2.8s2.8,1.4,2.8,3
			C332.1,260.4,330.8,261.6,329.2,261.5z M329.4,256.7c-1,0-1.9,0.8-1.9,1.8s0.8,1.9,1.8,1.9c1,0,1.9-0.8,1.9-1.8
			S330.4,256.7,329.4,256.7z"/>
		<path class="st13" d="M341.3,249.3c-1.6-0.1-2.8-1.4-2.8-3c0.1-1.6,1.4-2.8,3-2.8c1.6,0.1,2.8,1.4,2.8,3
			C344.2,248.1,342.9,249.4,341.3,249.3z M341.4,244.6c-1,0-1.9,0.8-1.9,1.8s0.8,1.9,1.8,1.9s1.9-0.8,1.9-1.8
			C343.3,245.5,342.5,244.6,341.4,244.6z"/>
		<path class="st13" d="M352.2,237.1c-1.6-0.1-2.8-1.4-2.8-3c0.1-1.6,1.4-2.8,3-2.8c1.6,0.1,2.8,1.4,2.8,3
			C355.1,236,353.8,237.2,352.2,237.1z M352.4,232.4c-1,0-1.9,0.8-1.9,1.8c0,1,0.8,1.9,1.8,1.9s1.9-0.8,1.9-1.8
			C354.2,233.3,353.4,232.5,352.4,232.4z"/>
		<polygon class="st4" points="194.7,72.8 207.2,73.1 207.1,73.1 217.5,62.8 217.7,62.6 217.9,62.8 227,76.9 226.5,76.9 231.4,70.8 
			231.8,70.3 232,70.9 237.2,82.6 236.4,82.8 237.5,52.8 237.5,50.5 238.4,52.6 244.7,67.8 243.9,67.6 249.2,64.3 249.6,64 
			249.9,64.4 258.6,74.8 257.8,74.9 265.3,62.4 265.8,61.7 266.2,62.4 275.5,78.7 274.5,78.8 276.3,70.4 276.4,69.6 277,70.2 
			282.4,75.8 281.7,76 284.4,54.5 284.5,53.6 284.9,54.4 291.4,67.6 291.2,67.5 307,66.9 291.3,67.8 291.2,67.8 291.1,67.7 
			284.4,54.7 284.9,54.6 282.5,76.1 282.4,76.9 281.8,76.3 276.4,70.7 277.1,70.5 275.5,79 275.3,80.3 274.6,79.1 265.3,62.9 
			266.2,62.9 258.7,75.4 258.3,76 257.9,75.5 249.1,65 249.8,65.1 244.5,68.4 244,68.7 243.7,68.2 237.5,53 238.4,52.8 237.3,82.8 
			237.2,84.7 236.4,83 231.4,71.2 232,71.2 227,77.3 226.7,77.7 226.5,77.3 217.5,63.1 217.8,63.1 207.3,73.3 207.3,73.3 
			207.2,73.3 		"/>
		<path class="st4" d="M290.2,431.9c-3.1-0.1-6-0.3-8.6-0.6c-10.5-1.2-11.8-3.2-11.9-4.7c-0.1-1.5,1-3.6,11.3-5.9
			c6.9-1.5,16.1-2.6,26-3.1c13-0.7,37.8-0.5,38.1,5.1l0,0c0.3,5.6-24.3,8.3-37.4,9C301.5,432.1,295.5,432.1,290.2,431.9z
			 M324.4,419.5c-4.9-0.2-10.6-0.2-17.3,0.2c-22.8,1.2-35.2,5-35.4,6.8c0.4,1.7,13,4.3,35.9,3.1c22.8-1.2,35.2-5,35.4-6.8
			C342.8,421.6,336.3,420,324.4,419.5z"/>
		<path class="st4" d="M303.8,451c-5.6-0.2-11.9-1-12.1-3.7c-0.1-1.6,1.9-2.9,6.3-3.9c3.7-0.9,8.6-1.5,13.8-1.8
			c2.1-0.1,20.3-0.9,20.6,3.7l0,0c0.1,1.6-1.9,2.9-6.3,3.9c-3.7,0.9-8.6,1.5-13.8,1.8C311.4,450.9,307.8,451.1,303.8,451z
			 M293.9,447.1c1,0.9,7.6,2.2,18.3,1.7c10.7-0.5,17.1-2.5,18-3.5c-1-0.9-7.6-2.2-18.3-1.7C301.3,444.1,294.9,446.1,293.9,447.1z"/>
		<path class="st13" d="M209.9,299.5c-1.6-0.1-2.8-1.4-2.8-3c0.1-1.6,1.4-2.8,3-2.8c1.6,0.1,2.8,1.4,2.8,3
			C212.8,298.3,211.5,299.5,209.9,299.5z M210.1,294.7c-1,0-1.9,0.8-1.9,1.8s0.8,1.9,1.8,1.9c1,0,1.9-0.8,1.9-1.8
			S211.1,294.8,210.1,294.7z"/>
		<path class="st13" d="M229.6,307.5c-1.6-0.1-2.8-1.4-2.8-3c0.1-1.6,1.4-2.8,3-2.8c1.6,0.1,2.8,1.4,2.8,3
			C232.5,306.4,231.2,307.6,229.6,307.5z M229.8,302.8c-1,0-1.9,0.8-1.9,1.8s0.8,1.9,1.8,1.9s1.9-0.8,1.9-1.8
			S230.8,302.9,229.8,302.8z"/>
		<path class="st13" d="M250.3,315.7c-1.6-0.1-2.8-1.4-2.8-3c0.1-1.6,1.4-2.8,3-2.8c1.6,0.1,2.8,1.4,2.8,3
			C253.2,314.5,251.8,315.7,250.3,315.7z M250.4,310.9c-1,0-1.9,0.8-1.9,1.8s0.8,1.9,1.8,1.9s1.9-0.8,1.9-1.8S251.5,311,250.4,310.9
			z"/>
		<path class="st13" d="M332.5,305.5c-1.6-0.1-2.8-1.4-2.8-3c0.1-1.6,1.4-2.8,3-2.8c1.6,0.1,2.8,1.4,2.8,3
			C335.5,304.3,334.1,305.6,332.5,305.5z M332.7,300.8c-1,0-1.9,0.8-1.9,1.8c0,1,0.8,1.9,1.8,1.9s1.9-0.8,1.9-1.8
			C334.5,301.7,333.7,300.8,332.7,300.8z"/>
		<path class="st13" d="M346.8,291c-1.6-0.1-2.8-1.4-2.8-3c0.1-1.6,1.4-2.8,3-2.8c1.6,0.1,2.8,1.4,2.8,3
			C349.7,289.8,348.4,291.1,346.8,291z M347,286.3c-1,0-1.9,0.8-1.9,1.8s0.8,1.9,1.8,1.9s1.9-0.8,1.9-1.8S348,286.3,347,286.3z"/>
		<path class="st13" d="M358.9,276.8c-1.6-0.1-2.8-1.4-2.8-3c0.1-1.6,1.4-2.8,3-2.8c1.6,0.1,2.8,1.4,2.8,3
			C361.8,275.6,360.4,276.8,358.9,276.8z M359,272c-1,0-1.9,0.8-1.9,1.8s0.8,1.9,1.8,1.9s1.9-0.8,1.9-1.8S360,272.1,359,272z"/>
		<path class="st13" d="M272.1,322.4c-1.6-0.1-2.8-1.4-2.8-3c0.1-1.6,1.4-2.8,3-2.8c1.6,0.1,2.8,1.4,2.8,3
			C275.1,321.2,273.7,322.4,272.1,322.4z M272.3,317.5c-1,0-1.9,0.8-1.9,1.8s0.8,1.9,1.8,1.9s1.9-0.8,1.9-1.8
			C274.1,318.4,273.3,317.6,272.3,317.5z"/>
		<path class="st13" d="M296.1,328.5c-1.6-0.1-2.8-1.4-2.8-3c0.1-1.6,1.4-2.8,3-2.8c1.6,0.1,2.8,1.4,2.8,3
			C299,327.3,297.7,328.6,296.1,328.5z M296.2,323.8c-1,0-1.9,0.8-1.9,1.8s0.8,1.9,1.8,1.9c1,0,1.9-0.8,1.9-1.8
			C298.1,324.7,297.3,323.8,296.2,323.8z"/>
		<path class="st13" d="M316.8,320.7c-1.6-0.1-2.8-1.4-2.8-3c0.1-1.6,1.4-2.8,3-2.8s2.8,1.4,2.8,3
			C319.7,319.5,318.4,320.7,316.8,320.7z M317,315.8c-1,0-1.9,0.8-1.9,1.8s0.8,1.9,1.8,1.9s1.9-0.8,1.9-1.8S318,315.9,317,315.8z"/>
		<path class="st13" d="M215.6,333.4c-1.6-0.1-2.8-1.4-2.8-3c0.1-1.6,1.4-2.8,3-2.8c1.6,0.1,2.8,1.4,2.8,3
			C218.5,332.2,217.2,333.4,215.6,333.4z M215.8,328.7c-1,0-1.9,0.8-1.9,1.8s0.8,1.9,1.8,1.9s1.9-0.8,1.9-1.8
			C217.6,329.5,216.8,328.7,215.8,328.7z"/>
		<path class="st13" d="M235.2,341.5c-1.6-0.1-2.8-1.4-2.8-3c0.1-1.6,1.4-2.8,3-2.8c1.6,0.1,2.8,1.4,2.8,3
			C238.1,340.3,236.8,341.5,235.2,341.5z M235.4,336.7c-1,0-1.9,0.8-1.9,1.8s0.8,1.9,1.8,1.9c1,0,1.9-0.8,1.9-1.8
			C237.2,337.6,236.4,336.8,235.4,336.7z"/>
		<path class="st13" d="M255.9,349.6c-1.6-0.1-2.8-1.4-2.8-3c0.1-1.6,1.4-2.8,3-2.8c1.6,0.1,2.8,1.4,2.8,3
			C258.8,348.4,257.5,349.6,255.9,349.6z M256,344.8c-1,0-1.9,0.8-1.9,1.8s0.8,1.9,1.8,1.9c1,0,1.9-0.8,1.9-1.8
			S257.1,344.9,256,344.8z"/>
		<path class="st13" d="M338.2,338.4c-1.6-0.1-2.8-1.4-2.8-3c0.1-1.6,1.4-2.8,3-2.8c1.6,0.1,2.8,1.4,2.8,3
			C341.2,337.2,339.8,338.4,338.2,338.4z M338.4,333.7c-1,0-1.9,0.8-1.9,1.8c0,1,0.8,1.9,1.8,1.9s1.9-0.8,1.9-1.8
			C340.2,334.5,339.4,333.7,338.4,333.7z"/>
		<path class="st13" d="M352.4,323.9c-1.6-0.1-2.8-1.4-2.8-3c0.1-1.6,1.4-2.8,3-2.8c1.6,0.1,2.8,1.4,2.8,3
			C355.4,322.7,354,323.9,352.4,323.9z M352.6,319.1c-1,0-1.9,0.8-1.9,1.8s0.8,1.9,1.8,1.9c1,0,1.9-0.8,1.9-1.8
			S353.6,319.2,352.6,319.1z"/>
		<path class="st13" d="M363.4,310.6c-1.6-0.1-2.8-1.4-2.8-3c0.1-1.6,1.4-2.8,3-2.8c1.6,0.1,2.8,1.4,2.8,3
			C366.3,309.4,365,310.6,363.4,310.6z M363.6,305.8c-1,0-1.9,0.8-1.9,1.8s0.8,1.9,1.8,1.9s1.9-0.8,1.9-1.8S364.6,305.9,363.6,305.8
			z"/>
		<path class="st13" d="M277.8,356.2c-1.6-0.1-2.8-1.4-2.8-3c0.1-1.6,1.4-2.8,3-2.8c1.6,0.1,2.8,1.4,2.8,3
			C280.7,355,279.4,356.3,277.8,356.2z M278,351.5c-1,0-1.9,0.8-1.9,1.8s0.8,1.9,1.8,1.9s1.9-0.8,1.9-1.8S279,351.5,278,351.5z"/>
		<path class="st13" d="M301.7,362.3c-1.6-0.1-2.8-1.4-2.8-3c0.1-1.6,1.4-2.8,3-2.8c1.6,0.1,2.8,1.4,2.8,3
			C304.6,361.2,303.3,362.4,301.7,362.3z M301.9,357.6c-1,0-1.9,0.8-1.9,1.8c0,1,0.8,1.9,1.8,1.9s1.9-0.8,1.9-1.8
			S302.9,357.6,301.9,357.6z"/>
		<path class="st13" d="M321.4,352.3c-1.6-0.1-2.8-1.4-2.8-3c0.1-1.6,1.4-2.8,3-2.8c1.6,0.1,2.8,1.4,2.8,3S323,352.4,321.4,352.3z
			 M321.6,347.6c-1,0-1.9,0.8-1.9,1.8s0.8,1.9,1.8,1.9s1.9-0.8,1.9-1.8S322.6,347.6,321.6,347.6z"/>
		<path class="st13" d="M116.4,265.3c-1.3,0-2.3-1.1-2.3-2.4c0-1.3,1.1-2.3,2.4-2.3s2.3,1.1,2.3,2.4
			C118.8,264.3,117.7,265.3,116.4,265.3z M116.6,261.6c-0.7,0-1.3,0.5-1.3,1.2s0.5,1.3,1.2,1.3s1.3-0.5,1.3-1.2
			C117.8,262.3,117.3,261.7,116.6,261.6z"/>
		<path class="st13" d="M137.9,280.8c-1.3,0-2.3-1.1-2.3-2.4s1.1-2.3,2.4-2.3c1.3,0,2.3,1.1,2.3,2.4
			C140.3,279.8,139.2,280.8,137.9,280.8z M138,277.1c-0.7,0-1.3,0.5-1.3,1.2c0,0.7,0.5,1.3,1.2,1.3s1.3-0.5,1.3-1.2
			C139.3,277.7,138.7,277.1,138,277.1z"/>
		<path class="st13" d="M157.5,290.9c-1.3,0-2.3-1.1-2.3-2.4c0-1.3,1.1-2.3,2.4-2.3c1.3,0,2.3,1.1,2.3,2.4
			C159.9,290,158.8,291,157.5,290.9z M157.6,287.3c-0.7,0-1.3,0.5-1.3,1.2c0,0.7,0.5,1.3,1.2,1.3s1.3-0.5,1.3-1.2
			C158.9,287.9,158.4,287.3,157.6,287.3z"/>
		<path class="st13" d="M178.2,298c-1.3,0-2.3-1.1-2.3-2.4s1.1-2.3,2.4-2.3c1.3,0,2.3,1.1,2.3,2.4C180.6,297,179.5,298,178.2,298z
			 M178.3,294.4c-0.7,0-1.3,0.5-1.3,1.2c0,0.7,0.5,1.3,1.2,1.3c0.7,0,1.3-0.5,1.3-1.2C179.6,295,179.1,294.4,178.3,294.4z"/>
		<path class="st13" d="M374.9,259.3c-1.3,0-2.3-1.1-2.3-2.4c0-1.3,1.1-2.3,2.4-2.3c1.3,0,2.3,1.1,2.3,2.4
			C377.3,258.2,376.2,259.3,374.9,259.3z M375.1,255.6c-0.7,0-1.3,0.5-1.3,1.2c0,0.7,0.5,1.3,1.2,1.3c0.7,0,1.3-0.5,1.3-1.2
			C376.4,256.2,375.8,255.6,375.1,255.6z"/>
		<path class="st13" d="M390.1,246.1c-1.3,0-2.3-1.1-2.3-2.4s1.1-2.3,2.4-2.3c1.3,0,2.3,1.1,2.3,2.4
			C392.5,245.2,391.4,246.2,390.1,246.1z M390.3,242.5c-0.7,0-1.3,0.5-1.3,1.2s0.5,1.3,1.2,1.3c0.7,0,1.3-0.5,1.3-1.2
			S391,242.5,390.3,242.5z"/>
		<path class="st13" d="M194.4,300.7c-1.3,0-2.3-1.1-2.3-2.4c0-1.3,1.1-2.3,2.4-2.3c1.3,0,2.3,1.1,2.3,2.4
			C196.8,299.7,195.7,300.8,194.4,300.7z M194.6,297.1c-0.7,0-1.3,0.5-1.3,1.2c0,0.7,0.5,1.3,1.2,1.3c0.7,0,1.3-0.5,1.3-1.2
			C195.9,297.7,195.3,297.1,194.6,297.1z"/>
		<path class="st13" d="M402.4,229.8c-1.3,0-2.3-1.1-2.3-2.4s1.1-2.3,2.4-2.3s2.3,1.1,2.3,2.4C404.7,228.9,403.7,229.9,402.4,229.8z
			 M402.5,226.2c-0.7,0-1.3,0.5-1.3,1.2s0.5,1.3,1.2,1.3c0.7,0,1.3-0.5,1.3-1.2C403.8,226.8,403.2,226.2,402.5,226.2z"/>
		<path class="st13" d="M410.5,209.2c-1.3,0-2.3-1.1-2.3-2.4s1.1-2.3,2.4-2.3s2.3,1.1,2.3,2.4S411.8,209.2,410.5,209.2z
			 M410.6,205.5c-0.7,0-1.3,0.5-1.3,1.2s0.5,1.3,1.2,1.3c0.7,0,1.3-0.5,1.3-1.2C411.9,206.2,411.3,205.6,410.6,205.5z"/>
		<path class="st13" d="M413.5,184c-1.3,0-2.3-1.1-2.3-2.4s1.1-2.3,2.4-2.3c1.3,0,2.3,1.1,2.3,2.4
			C415.9,183.1,414.8,184.1,413.5,184z M413.7,180.4c-0.7,0-1.3,0.5-1.3,1.2s0.5,1.3,1.2,1.3c0.7,0,1.3-0.5,1.3-1.2
			C414.9,181,414.4,180.4,413.7,180.4z"/>
		<path class="st13" d="M413.3,161c-1.3,0-2.3-1.1-2.3-2.4s1.1-2.3,2.4-2.3c1.3,0,2.3,1.1,2.3,2.4S414.6,161,413.3,161z
			 M413.5,157.3c-0.7,0-1.3,0.5-1.3,1.2s0.5,1.3,1.2,1.3c0.7,0,1.3-0.5,1.3-1.2C414.8,157.9,414.2,157.3,413.5,157.3z"/>
		<path class="st13" d="M234.4,361.9c-2.2-0.1-4.4-0.9-6.3-2.2c-4-2.8-4.7-15.1-4.7-16.5l2.1-0.1c0.2,4.9,1.4,13.3,3.8,14.9
			c2.9,2,7.1,2.7,9.4,0.2c2.3-2.6,1.3-7,1.3-7.1l2-0.5c0.1,0.2,1.3,5.5-1.8,8.9C238.8,361.3,236.6,362,234.4,361.9z"/>
		<path class="st13" d="M221.9,355.7c-1.7-0.1-4.6-1.3-4.9-1.4l0.8-1.9c1.1,0.5,3.2,1.2,4.2,1.3l0,0c0.2,0,0.9,0,1.5-1
			c0.8-1.3,0.8-3.3,0.6-3.7c0,0,0.1,0.2,0.3,0.2l0.6-2c1.6,0.5,1.3,3,1.2,3.8C225.7,353.8,224.1,355.7,221.9,355.7L221.9,355.7z"/>
		<path class="st13" d="M233.5,371.6l-0.6-2c0.1,0,1.5-0.5,1.7-1.8s-0.6-4.7-1.2-6.5l2-0.6c0.2,0.5,1.7,5.3,1.2,7.5
			C236.2,370.8,233.6,371.5,233.5,371.6z"/>
		<path class="st13" d="M244.5,375.3c-1.6-0.1-3.3-0.6-4.9-1.6c-3.7-2.4-4.9-6.3-4.9-6.5l2-0.6c0,0,1.1,3.4,4.1,5.4
			c1.7,1.1,3.7,1.6,5.3,1.1c1.3-0.3,2.2-1.1,2.8-2.3c1.3-2.6,0.5-5.8,0.5-5.8l2-0.5c0,0.2,1,4.1-0.7,7.3c-0.9,1.7-2.3,2.9-4.2,3.4
			C246,375.2,245.3,375.3,244.5,375.3z"/>
		<path class="st13" d="M248.6,366.6c-1.5-0.1-3-0.4-4.2-1.3c-3.2-2.3-3.8-11.4-3.9-12.5l2.1-0.1c0.2,3.5,1.3,9.6,3,10.9
			c2.5,1.8,7.2,0.6,8.8-0.6c0.9-0.8,1.1-4.1,1-6.2l2.1-0.2c0.1,1,0.4,6.2-1.7,7.9C254.4,365.6,251.5,366.7,248.6,366.6z"/>
		<path class="st13" d="M246.1,385.2l-1.7-1.2c0,0,1.5-2.2,1.3-4.2c-0.2-2.3-1.1-5.2-1.1-5.2l2-0.6c0,0.1,0.9,3.1,1.1,5.6
			C248.1,382.4,246.2,385.1,246.1,385.2z"/>
		<path class="st13" d="M265.1,368c-1.3,0-2.7-0.4-4.1-0.9c-5.6-2.2-5.6-7.8-5.6-8h2.1c0,0.2,0.1,4.4,4.3,6c3.1,1.2,5.6,1,7.8-0.6
			c0.9-0.7,0.8-2.5,0.7-3.1l2.1-0.4c0,0.1,0.6,3.5-1.5,5.2C269.1,367.5,267.2,368.1,265.1,368z"/>
		<path class="st13" d="M258.2,378.1c-0.3,0-0.7,0-1-0.1c-2-0.3-3.6-1.3-4.6-2.8c-1.4-2-2.7-9.2-2.8-10l2.1-0.4
			c0.5,2.9,1.6,8,2.5,9.2c0.9,1.3,2.3,1.8,3.3,1.9c1.7,0.3,3.8-0.2,5.1-1.3c1.8-1.3,1-6,0.6-7.5l2-0.6c0.2,0.7,1.9,7.3-1.3,9.7
			C262.4,377.5,260.2,378.2,258.2,378.1z"/>
		<path class="st13" d="M253.7,387c-1.2,0-2.5-0.5-3.8-1.3c-3.3-2.1-4.1-5.6-4.1-5.8l2.1-0.4l-1,0.2l1-0.2c0,0,0.6,2.8,3.2,4.5
			c1.3,0.8,2.5,1.1,3.7,0.9c1.1-0.3,2.2-1.1,3-2.3c1.3-2.1,1.2-5.4,1.2-5.4l2.1-0.1c0,0.2,0.2,3.9-1.5,6.6c-1.1,1.7-2.6,2.9-4.3,3.3
			C254.7,387,254.2,387,253.7,387z"/>
		<path class="st13" d="M255.2,391.3L255.2,391.3l0.1-2.1c-0.2,0-0.4,0.1-0.6,0.2c-0.2,0.2-0.3,0.4-0.3,0.4c0-0.4-0.5-2.1-1.2-3.5
			l1.9-0.9c1.9,4.2,1.4,4.9,1.1,5.3C256,391.2,255.6,391.4,255.2,391.3z"/>
		<path class="st13" d="M281.2,374.2c-2.4-0.1-4.9-0.9-6.7-2.3c-2.3-1.8-3.4-8.2-3.6-9.5l2.1-0.3c0.4,2.8,1.6,7.2,2.8,8.1
			c1.8,1.4,4.7,2.1,7,1.8c1.2-0.2,2.1-0.7,2.7-1.5c0.9-1.2,0.5-4.3,0.3-5.3l2.1-0.4c0.1,0.5,0.9,4.7-0.7,6.9
			c-0.9,1.3-2.3,2.1-4.1,2.3C282.5,374.2,281.9,374.2,281.2,374.2z"/>
		<path class="st13" d="M270,382.7c-1.4-0.1-2.8-0.6-4.1-1.7c-1.6-1.3-3.3-4.7-3.5-5l1.9-0.9c0.4,0.9,1.8,3.5,2.9,4.3
			c1.2,1,2.5,1.4,3.7,1.2c1.7-0.3,3-1.6,3.7-2.7c0.8-1.3,0-4.9-0.5-6.4l2-0.7c0.2,0.6,1.9,5.7,0.3,8.2c-0.5,0.7-2.2,3.1-5.2,3.6
			C270.8,382.7,270.4,382.8,270,382.7z"/>
		<path class="st13" d="M265.6,389.7c-1.6-0.1-3.2-0.6-4.6-1.5c-2.8-1.8-2.5-6.8-2.4-7.3l2.1,0.2c-0.1,1.1,0,4.5,1.5,5.4
			c1.6,1,3.5,1.4,5.1,1c1-0.2,1.8-0.7,2.2-1.4c0.6-0.9,0.7-3.3,0.6-4.5l2.1-0.1c0,0.4,0.2,4-0.9,5.7c-0.7,1.1-2,1.9-3.5,2.3
			C267.1,389.6,266.4,389.7,265.6,389.7z"/>
		
			<rect x="265" y="388.7" transform="matrix(3.776312e-02 -0.9993 0.9993 3.776312e-02 -133.3025 641.0142)" class="st13" width="2.4" height="2.1"/>
		<path class="st13" d="M368,334.5c-0.1,0-3.1-0.1-5-1.4c-1.8-1.3-3.2-7.3-3.5-9.1l2.1-0.4c0.7,3.3,1.9,7.2,2.7,7.8
			c1.1,0.8,3.2,1,3.9,1L368,334.5z"/>
		<path class="st13" d="M356.3,345.1c-1.4-0.1-2.8-0.5-3.9-1.2c-2.2-1.4-3.5-6.3-3.8-7.3l2-0.5c0.5,2.1,1.8,5.3,2.9,6
			c1.6,1,3.6,1.2,5.6,0.4c1.7-0.7,3-1.9,3.3-3.3c0.8-3,0.3-6.8,0.3-6.8l2.1-0.3c0,0.2,0.6,4.2-0.3,7.6c-0.5,2-2.3,3.8-4.6,4.8
			C358.7,345,357.5,345.2,356.3,345.1z"/>
		<path class="st13" d="M363.2,349.4c-0.2,0-1.6-0.2-2.7-1.3c-1-1-1.6-3.8-1.7-4.6l2.1-0.4c0.3,1.5,0.8,3.2,1.1,3.5
			c0.6,0.6,1.5,0.7,1.5,0.7L363.2,349.4z"/>
		<path class="st13" d="M278.9,387.9c-1.6-0.1-3.2-0.6-4.8-1.9c-1.7-1.4-2.5-5.1-2.6-5.5l2.1-0.4c0.2,1.3,1,3.5,1.8,4.2
			c2.9,2.3,6.1,1.6,7.8-0.4c1.1-1.3,0-7-1-10.4l2-0.6c0.5,1.6,2.9,9.8,0.6,12.4C283.3,387,281.2,388,278.9,387.9z"/>
		<path class="st13" d="M278,391.8l-1.6-1.4l1.5-1.7c0-0.8,0.1-1.9,0.1-1.9l2.1,0.1c0,0-0.1,1.4-0.1,2.2v0.4L278,391.8z"/>
		<path class="st13" d="M345.3,352.1c-1.2,0-2.4-0.5-3.7-1.3c-2.5-1.6-2.9-4.7-2.9-4.8l2.1-0.2c0,0,0.3,2.2,1.9,3.3
			c1.5,1,2.8,1.2,4.3,0.7c0.2-0.1,0.4-0.1,0.6-0.2c1-0.3,1.8-0.5,2.3-2c0.9-2.6,0.2-6.8,0.2-6.8l2.1-0.3c0,0.2,0.7,4.7-0.3,7.8
			c-0.8,2.5-2.5,3-3.7,3.3c-0.2,0-0.3,0.1-0.5,0.1C346.9,352,346.1,352.1,345.3,352.1z"/>
		<path class="st13" d="M355.3,360.8c-1.2,0-2.5-0.5-3.7-1.5c-2.7-2.4-3.7-8.1-3.7-8.3l2.1-0.4c0.2,1.4,1.3,5.5,3,7.1
			c2.9,2.6,6.4-0.6,6.5-0.7l1.4,1.5C359.9,359.6,357.7,360.9,355.3,360.8z"/>
		<path class="st13" d="M334,362.1c-1,0-2-0.3-2.7-0.6c-2.2-1.2-4.8-5.5-5.1-6l1.8-1.1c0.7,1.2,2.8,4.4,4.3,5.2
			c1.5,0.8,6,0.3,7.5-2.2c1.1-1.7,1.2-6,1.2-7.5h2.1c0,0.6,0.1,6.1-1.5,8.7C340.2,361.1,336.8,362.2,334,362.1z"/>
		<path class="st13" d="M347.5,369.9c-3-0.1-5.5-1.4-6.8-3.4c-1.4-2.2-2.5-6.9-2.5-7.1l2-0.5c0.3,1.3,1.2,4.9,2.2,6.5
			c1,1.5,3.1,2.5,5.6,2.4c2,0,3.6-0.7,3.9-1.3c0.6-1,0.6-4.6,0.4-6.8l2.1-0.2c0.1,1,0.5,6.2-0.7,8.1c-1,1.7-3.6,2.3-5.7,2.3
			C347.9,369.9,347.7,369.9,347.5,369.9z"/>
		<path class="st13" d="M353.9,374.2c-0.2,0-1.7-0.1-2.8-1.5c-1-1.2-2.3-3.8-2.3-3.9l1.9-0.9c0.3,0.7,1.4,2.6,2.1,3.4
			c0.6,0.7,1.3,0.8,1.3,0.8L353.9,374.2z"/>
		<path class="st13" d="M325.2,371.1c-1.3-0.1-2.6-0.3-3.5-0.9c-2.2-1.3-4.6-6.9-5.1-8l1.9-0.8c1,2.5,3,6.3,4.1,7
			c1.3,0.7,3.7,0.8,5.5,0.2c1-0.3,1.7-0.8,2-1.4c0.8-1.7,0.7-5.3,0.5-6.5l2.1-0.2c0,0.2,0.5,5-0.7,7.6c-0.5,1.1-1.7,2-3.3,2.5
			C327.7,371,326.5,371.2,325.2,371.1z"/>
		<path class="st13" d="M336.3,377.1c-1.3,0-2.6-0.4-4-1.1c-3.1-1.5-3.2-6.3-3.2-6.8h2.1c0,1.1,0.4,4.2,2,5c2.9,1.4,5,1.2,7.4-0.7
			c1.5-1.2,0.6-5.3-0.1-7.1l2-0.7c0.3,0.7,2.5,7.1-0.6,9.5C340.1,376.5,338.3,377.2,336.3,377.1z"/>
		<path class="st13" d="M346.5,381.5c-0.4-0.1-3.6-0.9-4.7-1.5c-1.3-0.6-2.1-3.4-2.6-5.6l2.1-0.4c0.4,1.9,1.1,3.8,1.4,4.1
			c0.8,0.3,3.4,1.1,4.3,1.3L346.5,381.5z"/>
		<path class="st13" d="M295,379.2c-1.3,0-2.7-0.4-4-1.2c-4.4-2.7-4.9-8.9-4.9-9.2l2.1-0.2c0,0.1,0.4,5.4,3.9,7.5
			c3.3,2,7.1,0.2,7.9-1c0.5-0.7,0.4-4-0.1-6.6l2.1-0.3c0.2,1.5,0.9,6.4-0.3,8.1C300.8,377.6,298.1,379.3,295,379.2z"/>
		<path class="st13" d="M315.8,379c-1.3,0-2.6-0.5-4-1.2c-3.8-2.1-3.5-9.3-3.5-10.1l2.1,0.1c-0.1,1.8,0.1,6.9,2.4,8.2
			c2.8,1.6,4.8,1.3,7.2-1.1c2.2-2.2,1.8-5.5,1.8-5.5l2.1-0.3c0,0.2,0.5,4.3-2.4,7.2C319.6,378.1,317.8,379,315.8,379z"/>
		<path class="st13" d="M290.1,388.6c-0.7,0-1.4-0.2-2.1-0.3l-0.5-0.1c-4.2-0.7-4.5-3.2-4.5-3.4l2.1-0.2c0,0,0.2,1.1,2.8,1.6
			l0.6,0.1c2,0.4,3.2,0.6,5-1.1c1.6-1.5,1.3-5.6,1-6.9l2.1-0.4c0.1,0.6,1,6.3-1.7,8.8C293,388.3,291.5,388.7,290.1,388.6z"/>
		
			<rect x="289.8" y="387.8" transform="matrix(3.776312e-02 -0.9993 0.9993 3.776312e-02 -108.223 665.4099)" class="st13" width="3.2" height="2.1"/>
		<path class="st13" d="M308.1,384c-1.4-0.1-2.9-0.4-4.1-0.8c-3-1.1-4-6.7-4.1-7.3l2.1-0.4c0.4,2.1,1.4,5.2,2.8,5.7
			c2.1,0.7,5.1,1.2,6.9-0.1c1.4-1,1-3.1,1-3.2l2-0.5c0,0.1,0.8,3.5-1.8,5.4C311.5,383.8,309.8,384.1,308.1,384z"/>
		<path class="st13" d="M298.2,390.9c-1.3-0.1-3.1-0.4-3.8-1.5c-0.8-1.3-1.4-3-1.4-3.1l2-0.6c0,0,0.5,1.6,1.1,2.6
			c0.3,0.4,1.9,0.7,3.4,0.5c0.8-0.1,3.1-0.8,3.7-2.3c0.7-1.8,0.1-4,0.1-4l2-0.5c0,0.1,0.7,2.9-0.2,5.3c-1.1,2.9-5.2,3.6-5.4,3.6
			C299.5,390.9,298.9,390.9,298.2,390.9z"/>
		<path class="st13" d="M326.2,383.2c-0.7,0-1.3-0.1-1.9-0.3c-2.8-0.7-4.3-6.1-4.6-7.1l2-0.5c0.5,2.1,1.8,5.3,3,5.6
			c2.2,0.5,5.1-0.1,5.8-1c0.9-1.1,0.9-1.9,1-4.7h1h1c-0.1,2.9-0.2,4.4-1.5,6C331.1,382.7,328.5,383.3,326.2,383.2z"/>
		
			<rect x="328.2" y="381.8" transform="matrix(0.9643 -0.2647 0.2647 0.9643 -89.6493 100.8268)" class="st13" width="2.1" height="2.4"/>
		<path class="st13" d="M316,388.3c-0.2-0.1-2.4-1-3.4-2.7c-0.3-0.5-1.2-2.7-1.4-3.1l1.9-0.8c0.4,0.9,1.1,2.5,1.3,2.9
			c0.5,0.9,1.9,1.6,2.4,1.8L316,388.3z"/>
		<path class="st13" d="M320.3,387.9l-0.8-2c1.5-0.6,3-1.4,3.2-1.7c0.3-0.5,0.6-1.9,0.8-2.5l2,0.4c0,0.2-0.5,2.1-1,3.1
			C324,386.4,321.6,387.4,320.3,387.9z"/>
		<path class="st13" d="M303.3,365.7c-5.9-0.2-31-6.5-45-10.6c-15.1-4.5-49.4-22.2-49.8-22.4l0.5-0.9c0.3,0.2,34.6,17.8,49.6,22.3
			c15.8,4.7,40.6,10.7,45.1,10.6c4.5-0.1,23.9-12.8,34.7-22.7s29.8-32.8,30.1-33l0.8,0.7c-0.2,0.2-19.4,23-30.2,33.1
			c-11,10.2-30.6,22.8-35.4,22.9C303.6,365.7,303.5,365.7,303.3,365.7z"/>
		<path class="st13" d="M266.6,399.4c-1.3,0-2.2-1.1-2.2-2.4c0-1.3,1.1-2.2,2.4-2.2c1.3,0,2.2,1.1,2.2,2.4
			C268.9,398.5,267.9,399.5,266.6,399.4z M266.7,395.9c-0.7,0-1.2,0.5-1.3,1.2c0,0.7,0.5,1.3,1.2,1.3c0.7,0,1.2-0.5,1.3-1.2
			C267.9,396.5,267.4,395.9,266.7,395.9z"/>
		<path class="st13" d="M282.1,400c-1.3,0-2.2-1.1-2.2-2.4c0-1.3,1.1-2.2,2.4-2.2c1.3,0,2.2,1.1,2.2,2.4
			C284.4,399.1,283.3,400,282.1,400z M282.2,396.5c-0.7,0-1.2,0.5-1.3,1.2c0,0.7,0.5,1.3,1.2,1.3c0.7,0,1.3-0.5,1.3-1.2
			S282.9,396.5,282.2,396.5z"/>
		<path class="st13" d="M297.4,398.9c-1.3,0-2.2-1.1-2.2-2.4c0-1.3,1.1-2.2,2.4-2.2c1.3,0,2.2,1.1,2.2,2.4
			C299.7,398,298.7,399,297.4,398.9z M297.5,395.4c-0.7,0-1.2,0.5-1.3,1.2c0,0.7,0.5,1.2,1.2,1.3c0.7,0,1.2-0.5,1.3-1.2
			C298.7,396,298.2,395.5,297.5,395.4z"/>
		<path class="st13" d="M327,395.2c-1.3,0-2.2-1.1-2.2-2.4s1.1-2.2,2.4-2.2c1.3,0,2.2,1.1,2.2,2.4S328.2,395.2,327,395.2z
			 M327.1,391.7c-0.7,0-1.3,0.5-1.3,1.2c0,0.7,0.5,1.2,1.2,1.3c0.7,0.1,1.2-0.5,1.3-1.2C328.3,392.3,327.8,391.7,327.1,391.7z"/>
		<path class="st13" d="M339.9,391.9c-1.3,0-2.2-1.1-2.2-2.4c0-1.3,1.1-2.2,2.4-2.2c1.3,0,2.2,1.1,2.2,2.4S341.2,392,339.9,391.9z
			 M340.1,388.4c-0.7,0-1.2,0.5-1.3,1.2c0,0.7,0.5,1.2,1.2,1.3c0.7,0,1.3-0.5,1.3-1.2C341.3,389,340.8,388.4,340.1,388.4z"/>
		<path class="st13" d="M312.8,397.8c-1.3,0-2.2-1.1-2.2-2.4c0-1.3,1.1-2.2,2.4-2.2s2.2,1.1,2.2,2.4
			C315.1,396.8,314,397.8,312.8,397.8z M312.9,394.3c-0.7,0-1.2,0.5-1.3,1.2c0,0.7,0.5,1.3,1.2,1.3s1.3-0.5,1.3-1.2
			S313.6,394.3,312.9,394.3z"/>
	</g>
	
		<ellipse transform="matrix(3.776307e-02 -0.9993 0.9993 3.776307e-02 48.7411 402.5511)" class="st1" cx="233.4" cy="176" rx="6.8" ry="6.8"/>
	<ellipse class="st1" cx="305.1" cy="167.9" rx="6.8" ry="6.8"/>
</g>
</svg>
