<?xml version="1.0" encoding="utf-8"?>
<!-- Generator: Adobe Illustrator 27.3.1, SVG Export Plug-In . SVG Version: 6.00 Build 0)  -->
<svg version="1.1" id="Layer_1" xmlns="http://www.w3.org/2000/svg" xmlns:xlink="http://www.w3.org/1999/xlink" x="0px" y="0px"
	 viewBox="0 0 500 500" style="enable-background:new 0 0 500 500;" xml:space="preserve">
<style type="text/css">
	.st0{fill:#FFFFFF;}
	.st1{fill:#2A2A2D;}
	.st2{fill:#009A44;}
	.st3{fill:#F93838;}
	.st4{opacity:0.42;}
	.st5{fill:#F2E270;}
	.st6{fill:#E2DDAC;}
	.st7{opacity:0.37;}
	.st8{fill:#B5F2F4;}
	.st9{fill:#FF8200;}
	.st10{fill:#C4CED6;}
	.st11{fill:#141416;}
	.st12{fill:#EFE5A5;}
	.st13{opacity:0.3;}
	.st14{fill:#1D1D1B;}
	.st15{fill:none;}
	.st16{opacity:0.2;}
	.st17{fill:#0A0808;}
</style>
<g>
	<g id="COLOR">
		<g>
			<polygon class="st0" points="287.3,275.9 281.8,279.1 271.1,285 264.2,289.9 257.8,296.6 255.7,300.2 222.2,301.5 220.8,298.7 
				217.7,294.7 214.5,291.7 210.2,288.7 202.4,283.4 192.9,278.1 189.9,276.4 199,275.4 231,275.4 283.9,275.4 			"/>
		</g>
		<g>
			<path class="st1" d="M255.3,301.5c-0.1,9.6-8.8,17.3-18.4,16.5c-4.2-0.4-7.3-1.9-10.3-4.9c-2.2-2.3-3.8-5.2-4.3-8.3
				c-0.5-2.8-0.2-6.5,0.7-9.1c0.9-2.4,2.3-4.6,4.1-6.3c4.7-4.5,11.7-5.6,17.7-3.1c2.9,1.2,5.4,3.2,7.3,5.6
				C254.5,295,255.4,297.7,255.3,301.5z"/>
		</g>
		<g>
			<path class="st2" d="M227,298.6c1.2-5.3,5.9-9.4,11.6-9.4s10.5,4,11.6,9.4l0.1,4.7c-1,5.6-5.9,9.8-11.8,9.8
				c-5.9,0-10.7-4.3-11.8-9.8L227,298.6z"/>
		</g>
		<g>
			<path class="st3" d="M273.3,360.6c0.4,7.3,1.3,18.5-1.8,24.1c-0.2-3.5-3.1-5-4.3-8.3c-1-2.6-2.6-5.6-2.8-8.3
				c-2.8,11.1,6.5,22-1.8,34.1c0.1-4.3-3.7-11.5-4.8-16.2c-2.3,5.2-1.7,14.9-2.4,21.1c-0.7,6.2-2.3,10.7-5.1,16.3
				c-4.4,8.7-6.3,18.8-9.8,26.6c-3.5-7.7-5.5-17.9-9.8-26.6c-2.8-5.6-4.4-10.1-5.1-16.3c-0.7-6.1,1.1-18.3-1.2-23.5
				c-1.1,4.7-5.5,12.5-5.4,16.7c-9.5-11.7-0.8-21.1-3.6-32.3c-0.2,2.8,0,7.3-1,9.8c-1.3,3.3-4.7,3.4-5,6.9
				c-3.1-5.5-2.2-16.8-1.8-24.1c0.2-4-0.7-8-1-11.9c-0.2-2.3-1.1-10.3,2.3-11c0.4-0.1,0.8,0,1.3,0.1c1.4,0.4,2.8,0.9,4.2,1.3
				c1.7,0.4,3.4,0.5,5,0.6c3.7,0.2,7.4,0.4,11,0.7c3.3,0.2,6.5,1.1,9.8,1.3c4.6,0.1,9.1-0.5,13.6-1.1c2.6-0.4,5.3-0.7,7.8-1.4
				c3.4-0.9,7-2.2,10.6-1.2c2.8,0.8,2.2,4.4,2.2,6.9C274.4,350.1,273,355.4,273.3,360.6z"/>
		</g>
		<g class="st4">
			<path class="st5" d="M263,354.8c0.2,4.9,0.9,12.5-1.2,16.3c-0.1-2.4-2-3.4-2.9-5.6c-0.7-1.7-1.8-3.8-1.9-5.6
				c-1.9,7.5,4.4,14.9-1.2,23.1c0.1-2.9-2.5-7.7-3.2-11c-1.6,3.5-1.1,10.1-1.6,14.2c-0.5,4.2-1.5,7.2-3.4,11
				c-2.9,5.9-4.3,12.7-6.7,18c-2.4-5.2-3.7-12.1-6.7-18c-1.9-3.8-2.9-6.8-3.4-11c-0.5-4.1,0.7-12.4-0.8-15.8
				c-0.7,3.2-3.7,8.4-3.7,11.3c-6.5-7.9-0.5-14.3-2.4-21.8c-0.1,1.9,0,4.9-0.7,6.7c-0.8,2.2-3.2,2.3-3.4,4.7
				c-2.1-3.7-1.4-11.3-1.2-16.3c0.1-2.6-0.4-5.4-0.7-8c-0.1-1.6-0.8-7,1.6-7.4c0.3-0.1,0.5,0,0.8,0.1c1,0.2,1.9,0.6,2.8,0.8
				c1.1,0.3,2.3,0.4,3.4,0.4c2.5,0.1,5,0.3,7.4,0.4c2.2,0.1,4.4,0.8,6.7,0.8c3.1,0.1,6.2-0.4,9.2-0.8c1.8-0.2,3.5-0.5,5.3-1
				c2.3-0.6,4.7-1.5,7.1-0.8c1.9,0.5,1.4,3,1.4,4.7C263.8,347.7,262.9,351.3,263,354.8z"/>
		</g>
		<g>
			<polygon class="st0" points="341.2,261.2 345.2,265.2 347.2,267.4 348.3,275 348.7,280.6 377.9,263.5 382.1,259.4 382.1,254.3 
				376.7,245.4 373.6,243.7 356,251.2 			"/>
		</g>
		<g>
			<path class="st2" d="M325.7,88.5l1.3,67.9l0.7,7.2l2.5,8.6l4.3,19.2c0.6,7,2,11.2,8.6,14.5c5.2,2.6,10.7,4.7,16.3,6.4
				c-2.5,2.4-5.8,4.1-9.2,4.7c1.1,0.3,2.2,0.7,3.1,1.4c0.9,0.7,1.5,1.9,1.2,2.9c-0.2,0.7-0.7,1.3-1.2,1.9c-1.3,1.4-2.7,2.6-4.1,3.9
				c-1.3,1.3-1.3,0.8-0.7,2.6c0.3,0.9-0.4,1.8-1.1,2.5c-2.8,2.9-5.7,5.8-9,8.1c-5.5,3.9-13.3,5.7-18.2,10.3c-0.7,0.6-0.8,1.6-1,2.4
				c-0.5,2.9-0.2,5.9-1,8.6c-0.6,2.2-1.3,4.3-1.9,6.4l-3,4.1l-4.6,0.4l-11,1.4l-8.3,0.8l-12.7,0.6h-12.4h-41.6l-28.7-0.1h-10.9
				l-6.4-1.9l-5.9-1l-6.4-2.1l-3.9-5.3l-1.8-8.7l-0.1-5.9l-5.6-2c-3.5-1.3-7.2-4.3-10.3-6.3c-2.6-1.7-5-3.7-7.1-5.8
				c-1.3-1.3-4.4-4.6-4.7-6.2c-0.1-0.8,0.3-1.7,1.1-1.8c-1.4,0.2-3.8-2.4-4.6-3.2c-1.6-1.7-2.4-3.8-2.8-6.1c0.5-0.3,1.2-0.3,1.8-0.4
				c2.2-0.4,1.3-1.9,0.2-2.8c-0.5-0.4-1.4-0.5-1.9-1c-0.8-0.7-1.5-1.9-2.2-2.7c5.5-2.1,11.6-4,16.1-7.8c2.3-2,4.3-4.9,5.4-7.7
				c0.5-1.4,0.2-3.7,0.4-5.2c0.3-2.3,0.7-4.7,1-7.1l5.3-21l9-19.9l0.1-8.8l3.8-30.5l3.9-25.1l46.3,28l17.5-3.5l10.9-0.2l16.2,2.4
				l17,4.8l29.7-13.3l21.3-9.5h0.7L325.7,88.5z"/>
		</g>
		<g>
			<circle class="st6" cx="237.6" cy="166.7" r="47.7"/>
		</g>
		<g>
			<circle class="st0" cx="237.6" cy="166.7" r="37.6"/>
		</g>
		<g class="st7">
			<circle class="st8" cx="237.6" cy="166.7" r="37.6"/>
		</g>
		<g>
			<path class="st1" d="M234.6,186.7c0.7,0.8,1.5,1.5,2.4,2.2c0.7,0.5,1.5,1,2.3,0.7c0.5-0.2,0.8-0.5,1.1-1
				c4.6-5.4,6.1-13.9,6.5-20.9c0.4-6.7-1.2-13.6-4.6-19.4c-4.4-7.6-8.3-7.1-11.3,1C226.9,160.3,225.8,177.4,234.6,186.7z"/>
		</g>
		<g>
			<path class="st0" d="M213.6,275c0,0,49.6,0.5,50.6,0.4c1-0.2,4.2-8.7,4.2-8.7l1.9-9.4l-0.7-7.1l10.6,1.9l15.4,1l11.7-1.4
				l10.4-1.5l5.2-1.7l11.2-5.2l11.6-9.4l3.9-5.2l-3.5-0.7l7.4-6.4l1.9-3.8l-7-1.2l8.7-3.5l-4-3.2l-12.4-5.8l-2,1.4l-2.9,1.2
				l-1.7,2.2l-5.3,5.8l-4,3.1l-3.2,1.7l-24.9,4.3l-2.3,0.4l-6.4-0.8l-5.4-1.3l-9.5-3.7l-9.1-5.2l-4.4-3.7l-10.7,3.5l-10.2,0.8
				l-11.9-0.7l-10-3.1l-1.9,1.6l-6.9,4.9l-8.7,4.1l-6.1,2l-12,1.6h-2.3l-25.7-5.6l-6.6-5.6l-4.3-4.9l-4.7-2.6c0,0-2.3,0.1-2.5,0.1
				c-0.2,0-10.6,5.6-10.6,5.6l-3.6,1.1l2.9,2.2l4.9,2.3l-5.4,1.6l5.1,7.5l2.8,3.3l0.8,2.9l6.4,7.8l12.8,7l9,3.5l4.9,1l15,1.8
				l13.5-0.5l13.6-1.6h1.5l0.5,10.2l3.1,9L213.6,275z"/>
		</g>
		<g>
			<circle class="st0" cx="166.8" cy="221.9" r="12.2"/>
		</g>
		<g>
			<circle class="st9" cx="166.8" cy="221.9" r="8.6"/>
		</g>
		<g>
			<circle class="st0" cx="308.6" cy="220.9" r="12.2"/>
		</g>
		<g>
			<circle class="st9" cx="308.6" cy="221.9" r="8.6"/>
		</g>
		<g>
			<path d="M239.2,225.1c1-0.7,1.6-1.8,1.6-2.9c0-0.4-0.1-0.8-0.2-1.1c-0.4-0.8-1.4-1.1-2.3-1.2c-1.6-0.2-3.1,0.1-4.6,0.7
				c-0.2,0.1-0.4,0.2-0.5,0.4c-0.1,0.2-0.1,0.4,0,0.7c0.1,0.6,0.3,1.2,0.5,1.8C234.8,225.8,237,226.7,239.2,225.1z"/>
		</g>
		<g>
			<polygon class="st9" points="266.1,289.1 263.5,295.6 257.2,314.6 254.3,323.2 244.5,324.4 243.4,324.1 244.5,317.4 247,315.9 
				251.5,311.8 254,307.9 254.9,304.7 255.7,300.2 257.8,296.6 262,292.1 265.2,289.1 			"/>
		</g>
		<g>
			<polygon class="st9" points="210.2,288.7 212.5,296.2 216.8,308.5 221.9,322.1 226.1,323.8 234.1,324.8 233.6,322.1 233,317.4 
				230.3,315.9 227.9,314.3 225,311.3 223.2,307.6 222.4,304.7 222.2,300.7 218.2,295.1 215.1,292.2 			"/>
		</g>
		<g>
			<polygon class="st0" points="233,317.4 236.5,318.1 241.2,317.8 244.5,317.4 243.8,321.7 243.4,324.1 239.5,324.8 233.5,323.8 
							"/>
		</g>
		<g>
			<path class="st9" d="M261.4,302l3.8-1.3l6.2-2c0,0,6.7-1.4,7-1.4c0.3-0.1,7.3-0.6,7.3-0.6l6.6,0.3l3,0.3l3.7-21.2v-2l-10.7,1.5
				l-4.4,2.2l-11,6.4l-6.5,4.3l-1.6,3.8L261.4,302z"/>
		</g>
		<g>
			<path class="st9" d="M181.1,275.6c-0.1,0.1-0.1,0.3-0.1,0.8c0.2,4,4.2,22.9,4.2,22.9h2.7h8.5l9.7,1.8l8.5,3.2l-1.6-6.7l-2.8-8.8
				l-4.2-3.1l-10.4-6l-7.7-4.4L181.1,275.6z"/>
		</g>
		<g>
			<polygon class="st0" points="185.8,306.8 193.1,313.5 210.7,319.9 221.9,322.1 218.4,312.5 215.2,304.2 206.9,301.1 197.8,299.6 
				189.1,299.3 184,299.7 			"/>
		</g>
		<g>
			<polygon class="st0" points="255.8,323.2 266.1,320.2 280.2,316.7 288.2,312.8 293.6,308 295.3,296.6 291.7,296.6 285.7,296.6 
				279.1,297.1 271.4,298.6 265.2,300.7 261.1,302.6 254.8,322.4 			"/>
		</g>
		<g>
			<polygon class="st1" points="200.8,316.6 204.3,329.6 206.9,336.8 216.6,340.1 235.5,341.8 251.5,341 271.5,338.3 273.9,336.8 
				280.2,316.7 266.1,320.2 251.5,323.8 239.5,326.4 230.3,324.4 210.7,319.9 			"/>
		</g>
		<g>
			<path class="st0" d="M295.5,296c0,0,11.9-3.8,12.1-3.9c0.2-0.2,22.1-4.4,22.1-4.4l1.4-7.1l-3-10.4l-3.8-2.8l-11,3.6l-5.5,2.2
				c-1.3,0.2-2.6,0.5-3.9,0.8c-2.7,0.5-4.4-0.2-5,2.9c-0.4,2.5-0.8,4.9-1.3,7.3C296.9,288.2,296.2,292.1,295.5,296z"/>
		</g>
		<g>
			<polygon class="st0" points="181.3,274.9 185.1,302.2 175.8,317.3 172.8,317 167.1,314.5 161.9,310.6 158.5,306.2 170,283 
				175.6,274.6 			"/>
		</g>
		<g>
			<polygon class="st9" points="161.5,301.1 165.3,300.2 170.6,298.3 173.5,294.4 181.6,281 179.9,274.6 175.6,274.6 			"/>
		</g>
		<g>
			<polygon class="st9" points="182.4,288.7 175.8,301.1 175.2,304.2 177.9,312.9 185.2,300.7 			"/>
		</g>
		<g>
			<polygon class="st9" points="298.1,281.8 305.9,279.8 312.7,278.7 316,277.6 321.2,271 321.8,269 315.6,269.3 312.1,272 
				304.3,273.4 297.6,274 			"/>
		</g>
		<g>
			<polygon class="st9" points="297.1,286.9 295.6,295.5 306.6,293 317.6,291.2 323.9,289.1 320.6,286.6 316,283.7 313.3,283.7 
				305.6,285.2 			"/>
		</g>
		<g>
			<path class="st1" d="M329.8,288.4l1.4,0.7l2.3-1.7l1.3-0.2c0,0,0.2,0.7,0.7,0.5s1,0.2,1,0.2l0.4-1.8l2.4,1.5l1.5,0.2l-0.1-2.5
				l3.8,1.3l1.4-1.3l1.6-3.9l0.8-6.3l-1.9-7.6l-3.3-4.1l-4.3-3.1l-3.6-0.6l-0.2,1.3l-2.9-0.8l-0.6,1.1l-0.4,1l-2.1-1.3l-0.6,0.5
				l-0.3,3.4l-1.8-1.4l-0.4,0.8l0.1,2.3l4.6,10.3l-0.8,10.1L329.8,288.4z"/>
		</g>
		<g>
			<path class="st2" d="M344,263.3c0-0.4,3.8-2.9,3.8-2.9l3.8-2.9v-2.2l-10.5,5.9L344,263.3z"/>
		</g>
		<g>
			<path class="st9" d="M372.2,266.4l-3.7-2l-4.9,1.7l-15.3,7.3c0,0,1.1,7,1.3,6.7C349.9,279.8,372.2,266.4,372.2,266.4z"/>
		</g>
		<g>
			<path class="st9" d="M343.8,262.8c0.2,0.1,2.7,2.6,2.7,2.6l7.1-5c0,0,9.6-6.7,9.5-6.8c-0.1-0.2,0.4-5.1,0.4-5.1l-10.9,6.2
				l-1.4,3.5L343.8,262.8z"/>
		</g>
		<g>
			<path class="st1" d="M371,258.2c0.1-0.1,0.2-0.1,0.3-0.1c1.3-0.7,1.7-2.2,1-3.5c-0.7-1.3-2.2-1.7-3.5-1c-0.1,0.1-0.2,0.1-0.2,0.2
				c-0.8-0.8-2-1-3-0.4c-1.3,0.7-1.7,2.2-1,3.5c0.4,0.6,0.9,1,1.5,1.2c-0.2,0.6-0.1,1.3,0.2,1.9c0.7,1.3,2.2,1.7,3.5,1
				C370.7,260.3,371.2,259.3,371,258.2z"/>
		</g>
		<g>
			<path class="st2" d="M370.2,257.5c0.1,0,0.1-0.1,0.2-0.1c0.8-0.4,1.1-1.4,0.7-2.2c-0.4-0.8-1.4-1.1-2.2-0.7
				c-0.1,0-0.1,0.1-0.2,0.1c-0.5-0.5-1.3-0.6-1.9-0.3c-0.8,0.4-1.1,1.4-0.7,2.2c0.2,0.4,0.5,0.7,1,0.8c-0.1,0.4-0.1,0.8,0.1,1.2
				c0.4,0.8,1.4,1.1,2.2,0.7C370,258.9,370.3,258.2,370.2,257.5z"/>
		</g>
		<g>
			<circle class="st1" cx="370" cy="250.4" r="1.7"/>
		</g>
		<g>
			<circle class="st1" cx="375.3" cy="252.9" r="1.7"/>
		</g>
		<g>
			<circle class="st2" cx="375.3" cy="252.9" r="0.9"/>
		</g>
		<g>
			<circle class="st1" cx="374.8" cy="258.1" r="1.7"/>
		</g>
		<g>
			<circle class="st2" cx="374.8" cy="258.1" r="1"/>
		</g>
		<g>
			<circle class="st2" cx="370" cy="250.4" r="1"/>
		</g>
		<g>
			<polygon class="st1" points="158.2,307.3 161.5,310.1 167,313.9 171.4,316.3 175.2,317.3 177.4,317.3 178.6,318.2 179.6,319.5 
				177.5,320.2 179.6,322 180,322.9 178.2,324.1 177.6,324.8 178.5,326 176.2,327.7 176.7,329.2 173.3,331.1 168.3,331.1 
				159.3,329.2 153.7,326 150.7,321.3 150,319 153.4,316.6 151.5,315.3 153.6,313.4 155.1,313.1 154.3,311.5 155.8,310.6 
				156.8,310.2 155.8,307.6 157.8,306.8 			"/>
		</g>
		<g>
			<path class="st10" d="M152.1,325.6c-0.4,0.3-5.9,39.4-5.9,39.4l2.5,2.9l6.8,0.7l8.2,1.4l1.4-2.1l2-7.6l4.8-23.5l0.5-5.6l-4-0.1
				l-5.9-0.7l-5.6-2.7c0,0-2.5-0.6-2.8-1.1C153.7,326,152.1,325.6,152.1,325.6z"/>
		</g>
		<g>
			<polygon class="st11" points="147.6,365.7 151.5,363.2 157.9,363.1 161.7,364.9 165,367.9 162.6,370 157.9,370 150.9,368.1 			
				"/>
		</g>
		<g>
			<polygon class="st2" points="156,327.5 153.1,336.8 151.8,338.6 151.1,331.1 153.5,325.4 			"/>
		</g>
		<g>
			<path class="st9" d="M155.5,327.4c-0.2-0.5,2.7,1.3,2.7,1.3l-5.8,22.1l-4,2.5l2.4-14.7l2.1-1L155.5,327.4z"/>
		</g>
		<g>
			<polygon class="st9" points="166.4,330.9 164.7,340.3 163.6,353.8 167.5,357.6 172.3,331.3 			"/>
		</g>
		<g>
			<path class="st5" d="M259.4,353.8c0.2,4.1,0.8,10.5-1,13.6c-0.1-2-1.7-2.9-2.5-4.7c-0.5-1.4-1.5-3.2-1.6-4.7
				c-1.6,6.3,3.7,12.5-1,19.3c0.1-2.4-2.1-6.5-2.7-9.2c-1.3,2.9-1,8.5-1.4,11.9c-0.4,3.5-1.3,6.1-2.9,9.2
				c-2.5,4.9-3.5,10.7-5.6,15.1c-2-4.4-3.1-10.1-5.6-15.1c-1.6-3.2-2.5-5.7-2.9-9.2c-0.4-3.5,0.6-10.4-0.7-13.3
				c-0.6,2.7-3.1,7-3.1,9.5c-5.4-6.6-0.4-11.9-2-18.2c-0.1,1.6,0,4.1-0.6,5.5c-0.7,1.9-2.7,1.9-2.8,3.9c-1.7-3.1-1.2-9.5-1-13.6
				c0.1-2.2-0.4-4.5-0.5-6.7c-0.1-1.3-0.7-5.9,1.3-6.2c0.2-0.1,0.5,0,0.7,0.1c0.8,0.2,1.6,0.5,2.3,0.7c1,0.2,1.9,0.3,2.9,0.4
				c2.1,0.1,4.1,0.2,6.2,0.4c1.9,0.1,3.7,0.7,5.6,0.7c2.6,0.1,5.2-0.3,7.7-0.7c1.5-0.2,3-0.4,4.4-0.8c1.9-0.5,4-1.3,6-0.7
				c1.6,0.5,1.2,2.5,1.2,3.9C260,347.8,259.3,350.8,259.4,353.8z"/>
		</g>
		<g>
			<path class="st12" d="M253.2,349.6c-0.2,1.4-0.4,2.6-0.5,3.1c-0.5,3.7-1.1,8.2-3,11.5c-1.3-0.7-1.9-3.4-2.3-4.9
				c-0.9,2-0.7,5.7-0.9,8c-0.3,2.3-0.8,4.1-1.9,6.2c-1.7,3.3-2.4,7.2-3.8,10.1c-1.4-2.9-2.1-6.8-3.8-10.1c-1.1-2.2-1.7-3.8-1.9-6.2
				c-0.2-2.3,0.4-7-0.5-8.9c0.5,1.1-1.9,4.9-2,6.4c-2.1-2.8-5.6-7.6-5.3-11.2c0.1-1.1,0.9-2.2,1-3.4c0.2-1.7-0.2-3.4-0.4-5
				c-0.1-0.9-0.4-4,0.9-4.2c0.2,0,0.3,0,0.5,0.1c0.5,0.1,1.1,0.4,1.6,0.5c0.7,0.2,1.3,0.2,1.9,0.2c1.4,0.1,2.8,0.2,4.2,0.2
				c1.3,0.1,2.5,0.4,3.8,0.5c1.7,0.1,3.5-0.2,5.2-0.4c1-0.1,2-0.3,3-0.5c1.3-0.4,2.7-0.8,4-0.5C254.3,341.3,253.7,346.1,253.2,349.6
				z"/>
		</g>
		<g>
			<polygon class="st0" points="253.4,298.6 246.5,298.6 246.5,298.3 245.5,296.6 243.8,294.6 242,293.6 240.7,293.1 239.2,292.9 
				237.1,293 235.5,293.4 233.6,294.5 232,296.1 230.8,298.3 230.7,298.6 223.9,298.6 223.9,303.3 230.5,303.3 230.6,303.5 
				231.6,305.6 232.6,307 234.3,308.4 236.5,309.2 238,309.5 239.7,309.4 241.6,308.9 242.9,308.3 244.1,307.4 245,306.5 
				246.2,304.8 246.6,303.7 246.6,303.3 253.4,303.3 			"/>
		</g>
		<g>
			<circle class="st0" cx="243.9" cy="155.5" r="4.8"/>
		</g>
		<g>
			<path class="st6" d="M223.1,104.5c0-7.4,8-13.1,18-13.1c10,0,18,6.6,18,14c0,0-11.1-2.6-17-2.6L223.1,104.5z"/>
		</g>
		<g>
			<polygon class="st11" points="325.7,88.5 312.8,109.9 310.5,132.6 314.7,137.5 320,145.9 326.6,160.3 			"/>
		</g>
		<g>
			<polygon class="st11" points="167.4,79.6 180.4,101.7 182.7,121.9 175,126.9 163.6,137.8 158.7,145.1 160.5,129 163.9,99.1 			
				"/>
		</g>
		<path class="st2" d="M238.7,302.5L238.7,302.5c0,0.1,0,0.4-0.1,0.4c0,0.5-0.2,0.9-0.2,1.3c-0.1,0.2-0.2,0.5-0.4,0.7
			c-0.3,0.4-0.7,0.7-1.2,0.7c-0.4,0-0.6-0.1-0.9-0.2c-0.4-0.3-0.7-0.6-0.9-1c-0.1-0.2-0.1-0.6,0-0.8l0,0l0,0c-0.4,0-0.6-0.1-0.9-0.2
			c-0.8-0.3-1.1-1-1-1.7c0.1-0.6,0.4-0.9,0.9-1.3c0.2-0.1,0.5-0.2,0.8-0.3s0.5,0,0.8-0.1c0.3-0.1,0.5,0,0.8,0s0.6,0.1,1,0.1l0,0l0,0
			l0,0c-0.2-0.2-0.4-0.3-0.6-0.5c-0.4-0.3-0.7-0.5-1-0.9c-0.2-0.2-0.4-0.4-0.6-0.7c-0.1-0.2-0.3-0.4-0.3-0.8s0.1-0.6,0.2-1
			c0.4-0.5,1-0.9,1.7-0.7c0.3,0.2,0.6,0.2,0.8,0.5c0.1,0.1,0.1,0.1,0.1,0.1l0,0l0,0c0-0.1,0.2-0.3,0.3-0.4c0.4-0.4,0.7-0.5,1.2-0.5
			c0.2,0.1,0.4,0.1,0.7,0.2c0.6,0.2,1,0.9,1,1.5c0.1,0.2,0,0.5-0.1,0.8c-0.2,0.3-0.4,0.8-0.6,1.1c-0.2,0.3-0.4,0.8-0.7,1l0,0l0,0
			l0,0c0.3-0.2,0.6-0.2,0.9-0.4c0.2-0.1,0.7-0.2,1-0.2c0.1,0,0.4-0.1,0.6-0.1c0.1,0,0.4,0,0.5,0c0.4,0.1,0.8,0.3,1,0.5
			c0.4,0.4,0.5,0.7,0.5,1.2c0,0.5-0.2,1-0.6,1.3c-0.2,0.2-0.4,0.3-0.7,0.4l0,0l0,0c0.2,0.2,0.2,0.3,0.2,0.6c0,0.4,0,0.7-0.1,1
			c-0.2,0.6-0.9,1-1.4,1.1c-0.2,0.1-0.6-0.1-0.9-0.2c-0.2-0.1-0.4-0.3-0.6-0.5c-0.2-0.2-0.5-0.5-0.7-0.8c-0.2-0.3-0.4-0.5-0.4-0.8
			l0,0c0.1,0.1,0.1,0.1,0.1,0.1c0.1,0.2,0.2,0.5,0.2,0.9c0.1,0.2,0,0.5,0.1,0.8c0,0.1,0,0.5,0,0.7c0,0.4-0.1,0.8-0.1,1.1l0,0
			c-0.1-0.1-1,0.1-1,0.1l0,0c0.1-0.2,0.1-0.6,0.2-0.9c0.1-0.4,0.2-0.9,0.2-1.4c0-0.4,0.1-0.6,0-0.8c0-0.1,0-0.4,0-0.5
			C238.6,302.8,238.6,302.7,238.7,302.5C238.7,302.6,238.7,302.6,238.7,302.5L238.7,302.5z"/>
	</g>
	<g id="SHADOWS">
		<g class="st13">
			<path class="st14" d="M226.1,96.3c0.3-0.2,0.6-0.5,1-0.7c2.7-2,5-4.7,8.7-4.4c-2.7,1.7-3.6,5.8-1.9,8.5c-4.7,0.8-8,5-10.4,9.1
				c-1,1.7-2,3.5-2.3,5.5c-0.2,2,0.4,4.2,2,5.3c-5.5,1.9-11.2,4.8-15.8,8.5c-6.6,5.2-11.8,12.2-14.9,20c-1.9,4.6-3,9.4-3.4,14.3
				c-1.3,17.2,8,34.8,23,43.5c-0.7,5.5-1.3,11-0.7,16.4c0.8,6.9,4.4,14.2,10.3,18.1c2.5,1.7,6,3.2,9,2.4c3-0.8,5-4.9,8.5-4.1
				c1,0.2,1.8,0.8,2.6,1.4c1.6,1.1,7,6.1,8.9,6.1c-3.5,0.1-6.9,1.1-9.8,3.1c-7.2,4.8-15.9,9.1-16.2,19.2c-0.1,2.2,0.8,4.8,2.9,5
				c0.3,0,0.7,0,0.8,0.2c0.4,0.5-0.4,1.1-1,1.2c-3.1,0.6-6.1-0.2-9.2,0c-1.4,0.1-2.9,0.2-4.1,1c-1.9,1.2-1.4,4-2,5.9
				c-0.7,2.5-1.1,5.1-1.4,7.7c-0.6,5.5-0.4,11,0.6,16.3c0.5,2.7,1.2,5.3,2.1,7.9c0.4,1.3,1,2.5,1.5,3.8c0.4,0.9,1.4,2.2,1.4,3.2
				c-4.2-0.5-8.5-2.5-12.2-4.3c-1.8-0.8-3.6-1.7-5.5-2.3c-1.3-0.4-2.6-0.7-3.9-1.1c-1.9-0.7-3.6-1.6-5.3-2.6
				c-0.7-0.4-1.3-0.8-1.9-1.3c-0.8-0.7-1.3-1.6-1.8-2.6c-0.6-1.3-0.5-2.5-0.5-3.9c-0.3-8.6-1-17.2-2.2-25.7c-0.1-1-0.3-2-0.9-2.7
				c-0.7-0.8-1.7-1-2.7-1.3c-2.3-0.5-4.6-1.1-6.9-1.7c-3.3-0.8-6.7-1.7-9.5-3.7c-2.2-1.6-4-4.3-4.1-7.1c0-0.6,0.2-1.3,0.1-1.9
				c-0.1-0.8-0.5-1.6-0.7-2.3c-0.4-1.8-0.5-3.6-0.2-5.4c0.1-0.7,0.2-1.4-0.2-1.9c-0.2-0.2-0.6-0.4-0.9-0.5c-1.4-0.5-2.8-1-4.2-1.6
				c-1.3-0.5-2.7-1-4-1.6c-7.8-3.5-14.1-9.5-19.6-16.1c-0.2-0.3-0.5-0.7-0.2-1c0.1-0.1,0.4-0.1,0.6-0.2c0.8-0.2,0.9-1.3,0.4-1.9
				c-0.4-0.7-1.2-1-1.9-1.3c-2.7-1.6-3.9-4.7-4.9-7.7c0.9-0.1,1.9-0.1,2.8-0.1c1.1-0.1,2-1.2,0.7-1.8c-1.9-0.8-3.7-1.7-5.6-2.6
				c-0.4-0.2-0.8-0.4-0.9-0.7c-0.2-0.4,0.1-1,0.4-1.3c0.4-0.3,0.8-0.4,1.3-0.5c5.7-1.4,11.6-3.2,15.7-7.5c0.9-1,1.7-2,2.5-3.1
				c1-1.3,1.9-2.6,2.6-4.1c0.9-2.1,1.1-4.4,1.3-6.7c0.1-1.7,0.3-3,1-4.6c0.7-1.7,1.1-3.5,1.6-5.3c1.4-5.3,2.3-10.6,3.8-15.9
				c1.1-3.8,2.5-7.7,4.2-11.3c0.8-1.7,2-3.3,2.5-5.1c0.6-2,0.4-4.1,0.5-6.1c0.1-2.8,0.9-5.3,1.5-8c0.2-1.1-0.1-2.1,0.2-3.2
				c0.2-1.3,0.8-2.6,1.3-3.9c0.6-2,0.8-3.5,0.7-5.6c-0.1-0.8,0-1.6,0-2.3c0.2-4.2,0.3-8.3,1.2-12.4c0.4-1.6,0.8-3.2,1.2-4.8
				c1.2-5.2,1.1-10.4,1.7-15.7c0.2-1.4-0.4-4.4,1.6-4.9c1-0.2,1.9,0.7,2.4,1.6c1.7,2.6,3,5.3,4.2,8.2c0.4,1,0.8,2,1.3,3.1
				c0.2,0.6,0.5,1.3,1,1.7c1.4,1.3,1.2-1.6,2.2-2.2c0.8-0.5,1.9-0.2,2.8,0.2c1.4,0.6,2.6,1.3,3.9,2c3.7,2.1,7.3,3.7,11.5,4.6
				c4.1,0.8,8.5,1.2,12.4,2.9c2.5,1.1,4.6,2.8,7.2,3.5c2.6,0.7,5.9,0.1,7-2.4C223.9,99.4,223.7,98.2,226.1,96.3z"/>
		</g>
		<g class="st13">
			<path class="st14" d="M158.4,310.3c1.4-0.5,2.9-2.3,4-2.8c2.5-1,5.4-0.1,7.6,1.6c2.1,1.6,3.7,3.9,5.3,6.1
				c0.5,0.6,1.1,1.3,1.9,1.3c0.9,0,1.6-0.8,2-1.6c2.9-4.6,6-9.5,6-15c0-2.6-0.7-5-1.3-7.6c-0.8-3.6-1.5-7.2-1.9-10.9
				c-0.1-1.1-0.2-2.3-0.8-3.3c-1.1-2.2-4-3.9-6.2-2.1c-2.3,1.9-1.9,6.5-3.6,9.1c-0.7,1-1.6,1.9-2.3,2.9c-1.3,1.7-1.9,3.8-2.7,5.8
				c-1.5,3.8-3.5,7.4-5.9,10.7c-1.3,1.7-3,3.7-3.4,5.9C157.6,310.6,158,310.5,158.4,310.3z"/>
		</g>
		<g class="st13">
			<path class="st14" d="M200.5,156.2c0.7-2,1.8-4.1,2.8-5.7c2-3.5,5-6.5,7.7-9.4c2-2.2,3.9-4.3,6.4-6.1c1-0.7,6.6-4.8,7.7-4.1
				c-1.6-1-1.8-3.4-0.9-5c0.9-1.6,2.6-2.7,4.2-3.6c1.6-0.9,3.4-1.7,4.6-3.2c-3.4-1-6.7,0.6-9.7,2.1c-3,1.5-6.1,2.8-9.2,4.2
				c-2.2,1-4.4,2.1-6.4,3.6c-2.2,1.7-3.8,3.9-5.5,6.1c-2.2,2.9-4.4,5.8-6.3,9c-5.5,9.4-7.3,20.8-5.7,31.6c0.3,2,0.7,4,1.6,5.8
				c0.5,1.2,1.3,2.3,1.9,3.5c1,2,1.5,4.2,2.3,6.2c2.3,5.5,6.7,9.7,11.4,13.1c2.5,1.7,5.2,3.1,7.7,4.8c1.8,1.2,4,1.3,6.1,1.7
				c2,0.5,3.7,1.6,5.6,2.2c0.4,0.1,4.6,0.5,4.5,0.4c-0.8-1-1.5-2.1-2.3-3.1c-0.5-0.7-0.9-1.3-1.2-2c-0.5-1.3-0.2-2.8-0.1-4.2
				c-4.1-2.1-8-3.5-11.8-6.2c-8.6-6.1-14.7-15.9-16-26.4c-0.2-2,0.1-4,0.1-5.9c-0.1-2.1-0.5-4-0.3-6.2
				C199.9,158.3,200.2,157.3,200.5,156.2z"/>
		</g>
		<g class="st13">
			<path class="st14" d="M286.9,109.9c11.3-0.4,22.5-4.7,31.2-12.1c-5,10.3-8,21.6-8.8,33c-10.3-3.6-17.3-13.5-27.5-17.2
				c-2.6-1-6.3-1.2-8.5-2.9C276.2,108.6,283.5,110.1,286.9,109.9z"/>
		</g>
		<g class="st13">
			<path class="st14" d="M313.9,257.3c2.1,0.1,4.4,0.3,6.1,1.5c0.2-3.1,0.1-6.1-0.3-9.1c-7.4,2.2-15.1,3.5-22.9,4.1
				c-2.2,0.2-4.3,0.2-6.5,0.1c-2.3-0.2-4.7-0.7-7-1.1c-4-0.8-8.3-2.3-12.4-2.4C272.6,259.1,306.8,257,313.9,257.3z"/>
		</g>
		<g class="st13">
			<path class="st14" d="M344.6,284.5c2.1,0.3,2.9-0.5,3.7-2.5c0.6-1.6,1.2-2.9,2.8-3.7c0.9-0.4,1.9-0.6,2.8-1
				c2.6-1.1,4.7-2.9,6.8-4.7c1-0.9,1.9-1.8,3.1-2.3c1.3-0.6,2.6-1.2,3.8-1.8c4.8-2.4,9.7-5.2,14.2-8.1c0.7-0.4,1.3-0.9,1.7-1.6
				c0.3-0.6,0.4-1.3,0.4-2c-0.1-2.2-1.1-4.4-2.8-5.8c0.4,2.8-1.4,5.1-3.5,6.7c-2,1.5-4.3,2.5-6.5,3.8c-3.7,2.2-7,5.1-10.7,7.3
				c-3.4,2-7,3.1-11,2.7c-1.6-0.1-2.3-0.2-3.1-1.8c-0.6-1.1-0.8-2.8-2.2-3.2c-1.6-0.5-3,1.4-3.3,3.1c-0.3,1.7-0.3,3.7-1.6,4.7
				c-0.2-1.1-1.6-1.8-2.6-1.4c-0.2,1.6-1.3,3.7-2.8,3.1c-0.5-0.2-0.8-0.8-1.2-1.1c-1.6-1.6-4.2-0.5-6.2,0.5
				c-7.1,3.4-16.3,4.7-22.3-0.3c-0.9-0.8-1.7-1.7-2.6-2.5c-1.7,2.9-2.5,7.1-3.1,10.4c-0.6,3.1-1.6,7.4-1.1,10.5
				c0.1,0.5,29-5.2,31.1-5.9c0.9-0.2,1.8-0.5,2.7-0.8c0.2-0.1,0.5-0.1,0.8-0.1c0.3,0.1,0.5,0.3,0.8,0.4c1.1,0.4,1.7-1.6,2.9-1.7
				c0.8-0.1,1.8,0.9,2.5,0.3c0.1-0.1,0.2-0.2,0.3-0.4c0.5-0.5,1.3,0,1.8,0.5c0.5,0.4,1.4,0.7,1.7,0.1c0.2-0.4-0.1-1,0.2-1.3
				c0.2-0.2,0.6-0.2,0.9-0.2C343.5,284.3,344,284.5,344.6,284.5z"/>
		</g>
		<g class="st13">
			<path class="st14" d="M224.3,323.4c-8-2-16.1-3.9-24.2-5.9c1.4,4.6,3,9.1,4.7,13.5c1,2.5,2,5.1,4.3,6.6c1.9,1.3,4.3,1.5,6.5,1.7
				c7.9,0.7,15.8,1.4,23.8,2.2c-3.1-0.3-7-1.8-9.1-4.2c-1.3-1.6-2.2-2.6-1.4-4.4c0.7-1.8,2.8-3.3,4.5-4.1c1.3-0.5,2.8-0.8,4.1-0.3
				c1.3,0.5,2.4,1.7,2.3,3.1c0.1-1.4,0.1-2.8,0-4.2c-0.1-0.4-0.1-0.7-0.3-1c-0.9-1.4-6.2-1.3-7.7-1.6
				C229.3,324.4,226.8,324,224.3,323.4z"/>
		</g>
		<g class="st13">
			<path class="st14" d="M246,329c0.2,0.4,0.4,0.7,0.7,1s0.7,0.4,1,0.7c1.1,0.7,1.9,2.1,1.7,3.4c0.4-1.7,0.9-3.6,2.3-4.7
				c0.7-0.5,1.4-0.8,2.2-1c0.8-0.2,1.7-0.3,2.5-0.1c0.8,0.2,1.6,0.8,1.9,1.6c1.4-2.2,3.4-4.1,5.5-5.5c0.5-0.3,1-0.6,1.6-0.8
				c1-0.3,2.2,0.1,3,0.8c0.8,0.8,1.1,1.9,0.8,3c0.4-1.4,1.1-2.7,2.3-3.5c1.1-0.8,2.8-1.1,4.1-0.5c1.3,0.6,2.2,2.2,1.7,3.6
				c0.1-2.1,0.6-4.1,1.5-6.1c0.5-1.1,1.1-2.1,1.3-3.2c0.1-0.2,0.1-0.4,0-0.6c-0.2-0.6-1.2-0.4-1.7,0c-7.8,4.7-17.4,4.9-26.2,7.2
				c-2,0.5-3.9,1.1-5.9,1.5c-1.5,0.3-4.1,0.1-5.3,0.9C242.6,327.6,244.7,327.2,246,329z"/>
		</g>
		<g class="st13">
			<path class="st14" d="M231.8,330.1c-0.2,0.2-0.4,0.4-0.7,0.5"/>
		</g>
		<g class="st13">
			<path class="st14" d="M204.8,138c0.1,0.1,0.3,0.2,0.4,0.3c0.5,0.2,1,0.4,1.6,0.3c0.5-0.1,1-0.5,1.1-1c-0.2,0-0.4,0.1-0.5,0.1
				c-0.3,0.1-0.6,0.2-0.9,0.1c-0.3-0.1-0.6-0.2-0.7-0.5c-0.1-0.1-0.1-0.3-0.1-0.4c0-0.2,0-0.4,0.1-0.7c0.1-0.1,0.4-0.4,0.4-0.5
				c0-0.4-0.5-0.3-0.8-0.2C204.4,135.9,204.1,137.2,204.8,138z"/>
		</g>
		<g class="st13">
			<path class="st14" d="M193.1,169.3c-0.5,0.2-0.8,0.8-0.8,1.4c0,0.5,0.3,1.1,0.7,1.5c0.7,0.5,1.7,0.4,2.1-0.4
				c0.3-0.4,0.4-1,0.4-1.4c-0.5,0.7-2.1,0.5-2.2-0.5c0-0.1,0-0.3-0.1-0.4s-0.3-0.2-0.4-0.1c-0.1,0.1-0.1,0.2-0.2,0.2"/>
		</g>
		<g class="st13">
			<path class="st14" d="M206.6,198.5c0.1,0,0.1,0,0.2-0.1c0.5-0.1,1.3-0.7,1.3-1.3c0.1-1.1-0.7-0.1-1.3-0.1c-0.2,0.1-0.9,0-1.1-0.2
				c-0.1-0.1-0.1-0.3-0.1-0.5c0-0.1-0.1-1.1,0-1.1C203.7,196.3,204.4,198.9,206.6,198.5z"/>
		</g>
		<g class="st13">
			<path class="st14" d="M238.2,210.1c-0.2,0-0.4,0-0.6,0c-0.5-0.1-0.9-0.7-0.8-1.3c-0.4,0.2-0.5,0.7-0.5,1.1
				c0.1,0.4,0.4,0.8,0.7,1.1c0.2,0.2,0.3,0.3,0.5,0.4c0.4,0.2,1,0.2,1.3-0.1c0.4-0.2,0.7-0.6,0.9-1c0.1-0.1,0.1-0.2,0.1-0.3
				C239.8,209,238.8,210.1,238.2,210.1z"/>
		</g>
		<g class="st13">
			<path class="st14" d="M235.9,123c0-0.1,0-0.2,0-0.2c0-0.4-1.1,0.2-1.2,0.2c-0.5,0.7-0.9,1.4-0.4,2.1c0.5,0.5,1.3,1,2,0.8
				c0,0,0.1,0,0.1-0.1c0.1-0.1,0.1-0.2,0-0.3c-0.1-0.1-0.2-0.1-0.3-0.1c-0.5-0.2-0.8-0.7-0.8-1.3C235.3,123.7,235.7,123.5,235.9,123
				z"/>
		</g>
		<g class="st13">
			<path class="st14" d="M268.6,140.1c0.2,0.1,0.5,0.1,0.8,0c0.5-0.1,1.1-0.3,1.3-0.8c0.1-0.2,0.2-0.5-0.1-0.6
				c-0.1-0.1-0.3,0-0.4,0.1c-0.5,0.2-1.1,0.2-1.6-0.2c-0.4-0.4-0.2-0.8-0.2-1.3c-0.2-0.1-0.4,0.1-0.6,0.4
				C267.2,138.6,267.7,139.8,268.6,140.1z"/>
		</g>
		<g class="st13">
			<path class="st14" d="M279.1,166.1c0,0.7,0.4,1.3,1,1.6c0.5,0.3,1.3,0.3,1.8-0.1c0.5-0.4,0.8-1.1,0.6-1.6
				c-0.2,0.1-0.4,0.3-0.7,0.5c-0.5,0.3-1.2,0.2-1.6-0.3C280,165.8,279.1,165.1,279.1,166.1z"/>
		</g>
		<g class="st13">
			<path class="st14" d="M271.1,194.1c-0.3,0-0.6-0.1-0.8-0.2c-0.3-0.3-0.2-0.8-0.4-1.1l-0.1-0.1c-0.1,0-0.1,0-0.1,0.1
				c-0.6,0.5-0.7,1.5-0.3,2.2c0.1,0.2,0.3,0.4,0.5,0.5c0.2,0.1,0.5,0.2,0.8,0.2c0.4,0.1,0.8,0.1,1.1-0.1c0.2-0.1,0.4-0.4,0.5-0.7
				c0.2-0.3,0.2-0.7,0.2-1.1c0-0.1-0.2-0.8-0.5-0.7c-0.1,0.1-0.1,0.5-0.1,0.6C271.9,194,271.5,194.1,271.1,194.1z"/>
		</g>
	</g>
	<g id="LIGHTS">
		<g>
			<path class="st0" d="M260.5,162.1c0.1,6-1.9,12.1-5.8,16.7c2.9,0.1,5.6-1.4,7.6-3.5c1.9-2.1,3.2-4.8,4.2-7.4
				c1.1-3.1,2.1-6.2,1.9-9.5c-0.2-3.6-1.7-7-3.5-10.1c-1.9-3.3-4.4-6.7-7.9-8.5c-2.6-1.4-5.7-2-4.9,1.7c0.7,3.1,3.6,5.9,5.1,8.7
				C259.3,153.8,260.3,157.9,260.5,162.1z"/>
		</g>
		<g class="st13">
			<path class="st0" d="M305.2,155.3c1,2.8,3.8,5.9,6.5,4.5c2.2-1.1,2.2-4.3,1.6-6.8c-0.8-3.4-24.2-43.6-29.3-27.1
				c-1.4,4.5,5.9,8.7,8.3,11.3c5,5.5,10.5,10.9,12.9,18C305.2,155.2,305.2,155.2,305.2,155.3z"/>
		</g>
		<g class="st13">
			<path class="st0" d="M304.3,98c-3.7,1.9-7.6,3.5-11.6,4.5c-1.3,0.3-2.8,0.8-2.9,2c8.8,0.4,16.3-5.6,24.7-8.1
				c2.3-0.7,4.7-1.1,6.8-2.3c2.1-1.1,3.9-3.3,3.8-5.7c-0.1-1-13.4,5.5-14.7,6.2C308.3,95.8,306.3,96.9,304.3,98z"/>
		</g>
		<g>
			<path class="st15" d="M319.9,178.8c-0.9,5-1.3,10.2-1.2,15.4c3.6,0.8,6.7-3.1,6.7-6.8c-0.1-3.7-2.3-6.9-4.4-9.8"/>
		</g>
		<g class="st13">
			<path class="st0" d="M265.1,131.1c-1.2-0.3-2.4-0.4-3.6-0.2c-0.2,0.1-0.5,0.1-0.6,0.2c-0.4,0.3-0.3,0.8-0.2,1.2
				c0.5,2,2.4,3.2,4,4.4c1.7,1.3,3.2,2.8,4.7,4.3c0.8,0.8,1.7,1.7,2.3,2.7c0.6,1.1,0.9,2.3,1.4,3.5c0.2,0.5,0.7,1.2,1.2,1
				c0.2-0.1,0.4-0.3,0.6-0.5c0.6-1,0.8-2.3,0.8-3.5c0-0.6,0-1.2-0.2-1.8c-0.2-0.5-0.4-1-0.7-1.4c-0.7-1.1-1.3-2.2-2-3.2
				c-0.9-1.5-1.9-3-3.4-4c-0.7-0.5-1.5-0.8-2.2-1.3C266.5,132,266,131.4,265.1,131.1z"/>
		</g>
		<g class="st13">
			<path class="st0" d="M242,94.4c-0.4,0.1-0.8,0.4-0.8,0.8c0,0.4,0.4,0.6,0.7,0.8c1.3,0.6,2.5,1,3.8,1.6c1.2,0.7,2.3,1.6,2.9,2.8
				c0.1,0.2,0.2,0.5,0.4,0.7c0.4,0.4,1,0.4,1.6,0.4c0.5-0.1,1-0.1,1.3-0.5c0.9-0.8,0.2-2.9-0.3-3.8c-0.6-1-1.5-1.8-2.6-2.3
				C246.9,93.7,244.2,93.6,242,94.4z"/>
		</g>
		<g>
			<path class="st15" d="M266.8,321.1c-1.6,4.2-3.5,8.3-5.6,12.3c3.5,1,8-0.1,9.6-3.5s-1.6-8.2-5.2-7.1"/>
		</g>
		<g class="st13">
			<path class="st0" d="M308.6,264.1c-0.4,0.7-1,1.1-1.6,1.6c-1.7,1.3-3.5,2.4-5.5,3.2c-0.5,0.2-1,0.5-1,1c-0.1,0.6,0.6,1,1.1,1.1
				c3.3,1,7,0.3,9.7-1.8c0.7-0.5,1.3-1.2,1.7-2c0.6-1.1,0.7-2.5,0.7-3.8c0-0.9-0.1-1.8-0.5-2.6c-0.7-1.3-2.5-2-3.6-0.7
				C308.9,261.2,309.3,262.9,308.6,264.1z"/>
		</g>
		<g class="st16">
			<path class="st2" d="M372.5,248.8c0.2,0.3,0.4,0.7,0.7,0.9c0.4,0.3,1,0.2,1.5,0.2c1.1,0,2.3,0.7,2.8,1.7c0.5,1,0.5,2.3-0.1,3.3
				c-0.3,0.5-0.8,1-0.7,1.6c0.1,0.3,0.3,0.6,0.5,0.8c0.7,1.1,0.8,2.7-0.1,3.7s-2.6,1-3.5,0c-0.2-0.2-0.4-0.5-0.6-0.6
				c-0.5-0.1-0.8,0.5-1.1,1c-0.8,1.4-2.6,1.8-4.1,1.4c-1.5-0.4-2.7-1.6-3.5-2.9c-0.7-1-1.2-2.1-1.3-3.3c-0.2-3,2.8-3.3,3.8-5.5
				C367.7,248.9,370.5,245.8,372.5,248.8z"/>
		</g>
		<g class="st16">
			<path class="st2" d="M372.2,249.7c0.2,0.3,0.3,0.6,0.6,0.8c0.4,0.2,0.9,0.2,1.3,0.2c1,0,2,0.6,2.5,1.4c0.5,0.9,0.5,2-0.1,2.9
				c-0.3,0.4-0.7,0.9-0.6,1.4c0.1,0.3,0.2,0.5,0.4,0.7c0.7,1,0.7,2.3-0.1,3.2c-0.8,0.8-2.3,0.9-3.1,0c-0.2-0.2-0.3-0.5-0.5-0.5
				c-0.5-0.1-0.8,0.5-1,0.9c-0.7,1.2-2.3,1.6-3.7,1.2c-1.3-0.4-2.3-1.4-3.1-2.6c-0.6-0.9-1.1-1.9-1.1-2.9c-0.2-2.6,2.5-2.9,3.4-4.9
				C368,249.7,370.5,247,372.2,249.7z"/>
		</g>
		<g class="st16">
			<path class="st2" d="M372.4,248c0.2,0.4,0.4,0.8,0.8,1c0.5,0.4,1.1,0.2,1.7,0.2c1.3,0,2.6,0.7,3.3,1.9c0.7,1.1,0.6,2.6-0.1,3.8
				c-0.4,0.6-0.9,1.1-0.8,1.9c0.1,0.4,0.3,0.7,0.5,1c0.8,1.3,0.8,3.1-0.2,4.2c-1,1.1-3.1,1.2-4,0c-0.2-0.3-0.4-0.6-0.7-0.7
				c-0.6-0.2-1,0.6-1.3,1.1c-0.9,1.6-3.1,2.1-4.7,1.6s-3.1-1.9-4.1-3.4c-0.8-1.1-1.4-2.4-1.5-3.8c-0.2-3.4,3.2-3.8,4.4-6.4
				C366.8,248.1,370.1,244.6,372.4,248z"/>
		</g>
		<g class="st16">
			<path class="st2" d="M372.9,246.7c0.3,0.4,0.5,0.9,0.9,1.2c0.6,0.4,1.3,0.2,2,0.2c1.6,0,3.1,0.9,3.8,2.2c0.8,1.4,0.7,3.1-0.1,4.4
				c-0.4,0.7-1.1,1.4-0.9,2.2c0.1,0.4,0.4,0.8,0.6,1.1c1,1.5,1,3.7-0.2,5c-1.2,1.3-3.6,1.4-4.7,0c-0.2-0.3-0.5-0.7-0.8-0.8
				c-0.7-0.2-1.2,0.7-1.6,1.3c-1.1,1.9-3.6,2.5-5.6,1.9c-2-0.6-3.6-2.2-4.8-4c-0.9-1.3-1.7-2.9-1.8-4.5c-0.3-4.1,3.8-4.5,5.2-7.6
				C366.3,246.8,370.2,242.6,372.9,246.7z"/>
		</g>
		<g class="st13">
			<path class="st0" d="M284.5,302.8c-1.2,1.9-2.6,3.6-4.3,5.1c-4,3.7-8.6,7.1-14,7.7c5.5,1,11.1-1.4,16.1-4
				c1.7-0.9,3.4-1.9,4.7-3.2c1-1,1.7-2.1,2.4-3.2c2.5-4.3,3.8-9.2,4-14.1c0.1-3.2-0.6-7.7,1.9-10c0.8-0.8,1.6-2.2,0.7-2.9
				c-6.3,0.5-12.4,2.5-17.8,5.9c-0.4,0.3-1,0.7-0.8,1.3c0.1,0.2,0.3,0.4,0.5,0.5c2.6,1.4,5.6-2,8.5-1.3c1.5,0.4,2.5,1.8,2.8,3.3
				s0,3.1-0.4,4.5C287.9,296.1,286.5,299.6,284.5,302.8z"/>
		</g>
		<g class="st13">
			<path class="st0" d="M276.6,149c-0.7,0.5-1.4,1.1-1.7,1.9c-0.3,0.8,0.1,1.9,1,2c0.6,0.1,1.1-0.3,1.5-0.8c0.6-0.8,0.7-1.9,0.4-2.8
				c-0.1-0.1-0.1-0.3-0.2-0.4c-0.1-0.1-0.3,0-0.4,0.2"/>
		</g>
		<g>
			<path class="st0" d="M252.2,182.9c-0.7-0.1-1.2,0.6-1.4,1.3c-0.4,1.1-0.1,2.5,0.9,3c0.4,0.2,0.9,0.2,1.4,0.2
				c1.1-0.1,2.2-0.6,2.7-1.6c0.5-1,0.4-2.3-0.5-2.9c-1-0.7-2.5-0.2-3.7,0.4"/>
		</g>
		<g>
			<path class="st0" d="M325.5,237.1c-4.1,2.2-9.2,2.6-13.1,5.3c-0.4,0.3-0.9,0.7-0.8,1.2c0.1,0.5,0.6,0.7,1.1,0.8
				c2.5,0.6,5.1,0.5,7.6,0.1c5.5-0.9,10.7-3.2,15.1-6.7c1.3-1,2.6-2.2,3.2-3.8c0.6-1.5,1.2-5-0.1-6.3c-1.3-1.3-3.1-0.5-4.1,0.5
				C331.3,231.3,329.5,234.8,325.5,237.1z"/>
		</g>
		<g class="st13">
			<path class="st0" d="M313.6,216c1.7,3.3,1.7,7.3,0.2,10.7c-1.6,3.4-4.7,5.9-8.2,6.8c3.1,0.9,6.6,0.5,9.4-1.2
				c2.8-1.6,4.9-4.4,5.6-7.6c0.2-0.9,0.3-1.8,0.3-2.7c-0.1-2.5-1.1-4.7-2.3-6.8c-1-1.7-2.1-3.3-3.8-4.3c-1.4-0.8-3-1-4.6-1
				c-1.6,0-3.7,0.2-5,1c1,0.7,2.5,0.7,3.7,1C311.1,212.6,312.7,214,313.6,216z"/>
		</g>
		<g class="st13">
			<path class="st0" d="M167.6,227.2c-3.1-1.1-5.7-3.5-6.8-6.7c-0.3,0.5-0.2,1.3,0,1.9c0.5,1.6,1,3.4,2.2,4.6
				c1.2,1.2,3.4,1.6,4.6,0.5c-0.1-0.4-0.8-0.4-0.9,0"/>
		</g>
		<g class="st13">
			<path class="st14" d="M219.4,301.4c-0.1,1.3,0.2,2.6,0.4,4c1.1,5.3,3.7,10.8,8.5,13.3c2.9,1.4,6.2,1.6,9.4,1.8
				c1.9,0.1,3.8,0.2,5.7-0.1s3.7-1.1,5-2.5c1.4-1.5,2-3.5,2.6-5.4c-5.2,5-13.5,6.7-20.2,3.9c-5.6-2.3-8.7-9.4-8.9-15.2
				c0-0.8,0.2-1.7,0.4-2.5c0.3-1.3,0.6-2.6,0.9-3.8c0.1-0.4,0.2-0.8,0.4-1.2c0.4-0.8,1.4-1.5,1.4-2.4
				C221.8,292.9,219.5,297.8,219.4,301.4z"/>
		</g>
		<g class="st13">
			<path class="st14" d="M229.8,296.2c-0.4,0.4-0.8,0.8-1.3,1.1c-0.6,0.4-1.3,0.5-1.9,0.7c-0.8,0.2-1.6,0.4-2.4,0.6
				c1.2,0.1,2.5,0.1,3.7,0.1c0.6,0,1.3,0,1.9,0c0.4,0,1,0.1,1.2-0.5c0.1-0.4,0.4-0.7,0.6-1.1s0.5-0.7,0.8-1c0.2-0.3,0.5-0.6,0.8-1
				c0.1-0.2,0.2-0.3,0.4-0.5c0.1-0.1,0.2-0.5,0.4-0.5C232.4,294.4,230.9,295.3,229.8,296.2z"/>
		</g>
		<g class="st13">
			<path class="st14" d="M226.9,304.6c0.1,0.1,0.3,0.1,0.4,0.1c0.4,0.1,0.8,0.2,1.2,0.4c1.5,0.7,2.5,2.5,3.7,3.6
				c2.2,2,5.5,2.6,8.4,2c0.8-0.2,1.6-0.4,2.2-0.9c0.7-0.5,1.1-1.4,1.1-2.2c-1.6,1.2-3.8,2-5.8,1.8c-0.5-0.1-1-0.1-1.6-0.2
				c-1.1-0.2-2.2-0.6-3.1-1.3c-0.5-0.4-0.8-0.8-1.1-1.2c-0.4-0.5-0.8-1.1-1.1-1.6c-0.2-0.2-0.4-0.6-0.5-0.9
				c-0.1-0.2,0.1-0.5-0.1-0.7c-0.2-0.2-0.9-0.2-1.2-0.2c-0.6,0-1.2,0-1.8,0c-1.4,0-2.7,0.2-4.1,0.2c0.6,0.2,1.2,0.4,1.8,0.7
				C225.9,304.3,226.4,304.5,226.9,304.6z"/>
		</g>
	</g>
	<g id="DETAILS">
		<g>
			<path d="M331.8,289.7c-0.1,0-0.1,0-0.2,0c-0.7-0.2-1.7-0.5-2.4-1.6c-0.2-0.3-0.1-0.7,0.2-0.8c0.3-0.2,0.7-0.1,0.8,0.2
				c0.3,0.5,0.8,0.8,1.5,1c0.4-0.2,0.8-0.8,1.1-1.3c0.2-0.4,0.5-0.7,0.8-1c0.1-0.1,0.2-0.2,0.4-0.2l0,0c0.2,0,0.3,0.1,0.4,0.2
				l0.1,0.1c0.5,0.5,0.9,1,1.4,1c0-0.1,0-0.2,0-0.4c0-0.4,0-0.7,0.2-1.1c0.1-0.2,0.2-0.3,0.4-0.3c0.2-0.1,0.4,0,0.5,0.1
				c0.2,0.2,0.5,0.4,0.8,0.5c0.8,0.5,1.7,1.1,2.3,1.1c0-0.2-0.1-0.6-0.1-0.8c-0.1-0.4-0.2-0.8-0.1-1.2c0-0.2,0.1-0.4,0.2-0.5
				c0.2-0.1,0.4-0.1,0.5-0.1c0.4,0.1,0.8,0.4,1.3,0.5c1,0.4,1.9,0.8,2.6,0.6c0.5-0.4,1-1.7,1.5-2.9c0.4-1.1,0.8-2,1.3-2.7
				c0.2-0.2,0.6-0.3,0.8-0.1c0.2,0.2,0.3,0.6,0.1,0.8c-0.4,0.5-0.7,1.5-1.1,2.4c-0.6,1.6-1.1,3-2,3.5c-0.1,0-0.1,0.1-0.1,0.1
				c-1.2,0.5-2.5-0.1-3.6-0.7c-0.1-0.1-0.2-0.1-0.3-0.1l0,0c0.1,0.7,0.3,1.6-0.3,2c-0.1,0.1-0.1,0.1-0.2,0.1
				c-1.3,0.4-2.5-0.4-3.6-1.1c0,0.5-0.1,1.1-0.7,1.3c-0.1,0-0.1,0-0.1,0c-1,0.2-1.7-0.4-2.3-1c-0.1,0.1-0.2,0.2-0.3,0.4
				c-0.5,0.7-1.1,1.4-1.9,1.7C331.9,289.7,331.9,289.7,331.8,289.7z"/>
		</g>
		<g>
			<path d="M326.1,268L326.1,268c-0.4,0-0.6-0.3-0.6-0.6c0.1-2.2-0.1-2.9-0.1-3.1c-0.1-0.3-0.1-0.5,0.2-0.8c0.1-0.1,0.1-0.1,0.3-0.4
				c0.1-0.1,0.2-0.2,0.4-0.2c0.8-0.1,1.3,0.3,1.7,0.8c0-0.1,0-0.1-0.1-0.1c-0.2-0.8-0.5-1.9,0.3-2.9c0.1-0.1,0.2-0.2,0.4-0.2
				c1-0.2,1.7,0.2,2.3,0.7c-0.1-0.4,0.1-0.8,0.4-1.1c0.8-0.7,1.9-0.4,3.1,0.3c0.1-0.3,0.2-0.6,0.4-1c0.1-0.2,0.3-0.2,0.5-0.2
				c1.7-0.1,3.1,0.7,4.2,1.4c0.2,0.2,0.5,0.3,0.7,0.5c0.3,0.2,0.4,0.5,0.2,0.8c-0.1,0.3-0.5,0.4-0.8,0.2c-0.2-0.2-0.5-0.3-0.8-0.5
				c-1-0.7-2-1.3-3.2-1.3c-0.1,0.3,0,0.5,0.4,0.8c0.2,0.2,0.3,0.4,0.5,0.7c0.1,0.2,0.1,0.5-0.1,0.7c-0.2,0.2-0.5,0.2-0.7,0.1
				c-1-0.7-2.9-2.1-3.4-1.7c-0.2,0.2,0.1,0.7,0.4,1.4c0.2,0.4,0.4,0.9,0.5,1.3c0.1,0.2-0.1,0.5-0.2,0.7c-0.2,0.1-0.5,0.1-0.7,0
				c-0.5-0.4-0.9-0.8-1.3-1.3c-0.7-0.8-1.3-1.4-1.9-1.4l0,0c-0.2,0.5-0.2,1,0.1,1.7c0.2,0.7,0.4,1.6-0.1,2.3
				c-0.1,0.1-0.2,0.2-0.4,0.2c-0.2,0-0.4,0-0.5-0.1c-0.3-0.2-0.5-0.5-0.7-0.8c-0.3-0.4-0.5-0.7-0.7-0.7c0,0.1-0.1,0.1-0.1,0.1
				c0.1,0.4,0.2,1.3,0.1,3.2C326.7,267.7,326.4,268,326.1,268z"/>
		</g>
		<g>
			<path d="M329.8,289c-0.1,0-0.1,0-0.2,0c-0.7-0.1-1.1-0.7-1-1.3c0.1-0.7,0.2-1.3,0.4-1.8c0.1-0.5,0.2-1,0.3-1.6
				c0.2-1.6,0.4-3.2,0.2-4.8c-0.1-1-0.4-2-0.7-3.1c-0.1-0.4-0.2-0.7-0.3-1.1c-0.7-2.7-1.3-5.2-3.2-7c-0.5-0.4-0.5-1.2-0.1-1.7
				c0.4-0.5,1.2-0.5,1.7-0.1c2.5,2.2,3.2,5.2,4,8.2c0.1,0.4,0.2,0.7,0.3,1.1c0.3,1.1,0.6,2.3,0.7,3.5c0.2,1.9-0.1,3.6-0.2,5.3
				c-0.1,0.7-0.2,1.3-0.4,1.8c-0.1,0.5-0.2,1-0.3,1.6C330.9,288.5,330.4,289,329.8,289z"/>
		</g>
		<g>
			<path d="M348.3,281.3c-0.1,0-0.2,0-0.3-0.1c-0.7-0.2-1-0.8-0.8-1.4c0.7-2.8,0.1-5.2-0.7-7.9c-0.3-1-0.5-2-0.8-3.2
				c-0.1-0.4-0.6-1.3-0.9-1.9c-0.2-0.3-0.3-0.5-0.4-0.8c-0.4-0.8-1.4-1.6-2.5-2.2c-0.2-0.2-0.5-0.4-0.8-0.5
				c-0.4-0.3-0.7-0.6-0.8-0.8c-0.1-0.1-0.1-0.1-0.1-0.1c0,0-0.1,0-0.1,0c-0.7-0.1-1.1-0.7-1-1.4c0.1-0.7,0.7-1.1,1.4-1
				c1,0.2,1.3,0.6,1.7,1c0.1,0.1,0.2,0.2,0.4,0.4c0.2,0.2,0.5,0.3,0.7,0.5c1.2,0.8,2.6,1.7,3.2,3.1c0.1,0.2,0.2,0.4,0.4,0.7
				c0.5,0.8,1,1.8,1.1,2.5c0.2,1,0.5,2,0.8,3.1c0.8,2.9,1.6,5.8,0.7,9.2C349.3,281,348.8,281.3,348.3,281.3z"/>
		</g>
		<g>
			<path d="M239.5,342.4L239.5,342.4c-0.4,0-0.6-0.3-0.6-0.7c0.1-1.5,0.2-2.9,0.4-4.3c0.4-3.8,0.7-7.4,0.5-11.7
				c0-0.4,0.2-0.6,0.6-0.6c0.3,0,0.6,0.2,0.6,0.6c0.2,4.4-0.2,8-0.5,11.9c-0.1,1.4-0.2,2.8-0.4,4.3
				C240.1,342.1,239.9,342.4,239.5,342.4z"/>
		</g>
		<g>
			<path d="M248.5,341.8c-0.1,0-0.1,0-0.1,0c-0.3-0.1-0.5-0.4-0.4-0.7c1-4.2,2-10.4,0.9-16.6c-0.1-0.3,0.2-0.7,0.5-0.7
				c0.4-0.1,0.7,0.2,0.7,0.5c1.2,6.4,0.2,12.8-0.9,17.1C249,341.6,248.8,341.8,248.5,341.8z"/>
		</g>
		<g>
			<path d="M229.3,341.7c-0.2,0-0.5-0.2-0.6-0.4c-1.7-6.1-1.7-11.3-0.1-17.5c0.1-0.3,0.4-0.5,0.7-0.4c0.3,0.1,0.5,0.4,0.4,0.7
				c-1.6,5.9-1.6,10.9,0.1,16.8c0.1,0.3-0.1,0.7-0.4,0.7C229.3,341.7,229.3,341.7,229.3,341.7z"/>
		</g>
		<g>
			<path d="M255.8,341.2c-0.1,0-0.1,0-0.2-0.1c-0.3-0.1-0.5-0.5-0.4-0.8c1.6-4.4,3.3-11,2.6-17.8c-0.1-0.3,0.2-0.6,0.5-0.7
				c0.3,0,0.6,0.2,0.7,0.5c0.7,7-1.1,13.8-2.6,18.3C256.3,341,256.1,341.2,255.8,341.2z"/>
		</g>
		<g>
			<path d="M267.2,339.2c-0.1,0-0.1,0-0.2,0c-0.3-0.1-0.5-0.4-0.4-0.7c1.6-5.3,2.9-10.9,1.8-16.3c-0.1-0.2-0.1-0.5-0.2-0.8
				c-0.1-0.4-0.2-0.8-0.2-1.2c-0.1-0.3,0.2-0.7,0.5-0.7c0.3-0.1,0.7,0.2,0.7,0.5c0.1,0.4,0.2,0.8,0.2,1.1c0.1,0.2,0.1,0.5,0.2,0.8
				c1.2,5.7-0.2,11.5-1.9,16.9C267.8,339.1,267.5,339.2,267.2,339.2z"/>
		</g>
		<g>
			<path d="M219.4,340.7c-0.2,0-0.5-0.2-0.6-0.4c-1.4-4.9-0.2-10,0.8-14.6l0.1-0.5c0.2-1,0.4-1.9,0.9-3c0.1-0.3,0.5-0.4,0.8-0.3
				s0.4,0.5,0.3,0.8c-0.4,0.9-0.6,1.7-0.8,2.8l-0.1,0.5c-1,4.4-2.1,9.4-0.8,14c0.1,0.3-0.1,0.7-0.4,0.7
				C219.5,340.7,219.5,340.7,219.4,340.7z"/>
		</g>
		<g>
			<path d="M211.8,338.9c-0.2,0-0.5-0.1-0.5-0.4c-1.9-4.6-1.1-10.1-0.5-14.9c0.2-1.2,0.3-2.3,0.4-3.5c0.1-0.3,0.3-0.5,0.7-0.5
				c0.3,0.1,0.6,0.3,0.5,0.7c-0.1,1.1-0.2,2.3-0.4,3.5c-0.6,4.9-1.3,10,0.5,14.3c0.1,0.3,0,0.7-0.4,0.8
				C212,338.9,211.9,338.9,211.8,338.9z"/>
		</g>
		<g>
			<path d="M368.5,261.4c-1,0-1.9-0.5-2.4-1.4c-0.3-0.6-0.4-1.3-0.2-1.9c-0.6-0.2-1.1-0.7-1.4-1.3c-0.4-0.7-0.4-1.4-0.2-2
				c0.2-0.7,0.7-1.3,1.3-1.6c1-0.5,2.3-0.4,3.1,0.4c0.1-0.1,0.1-0.1,0.2-0.1c0.7-0.4,1.4-0.4,2-0.2c0.7,0.2,1.3,0.7,1.6,1.3
				c0.4,0.7,0.4,1.4,0.2,2c-0.2,0.7-0.7,1.3-1.3,1.6c-0.1,0.1-0.1,0.1-0.2,0.1c0.2,1.1-0.4,2.2-1.4,2.8
				C369.4,261.2,368.9,261.4,368.5,261.4z M366.8,253.1c-0.4,0-0.8,0.1-1.1,0.3c-0.5,0.3-1,0.8-1.1,1.4c-0.2,0.6-0.1,1.3,0.2,1.8
				c0.3,0.5,0.8,1,1.4,1.1c0.1,0,0.1,0.1,0.1,0.2c-0.2,0.6-0.1,1.3,0.2,1.8c0.7,1.1,2.1,1.6,3.2,1c0.9-0.5,1.4-1.6,1.2-2.6
				c0-0.1,0-0.1,0.1-0.2c0.1-0.1,0.2-0.1,0.2-0.1c0.5-0.3,1-0.8,1.1-1.4c0.2-0.6,0.1-1.3-0.2-1.8c-0.3-0.5-0.8-1-1.4-1.1
				c-0.6-0.2-1.3-0.1-1.8,0.2c-0.1,0.1-0.2,0.1-0.2,0.1c-0.1,0.1-0.1,0.1-0.2,0C368,253.4,367.4,253.1,366.8,253.1z"/>
		</g>
		<g>
			<path d="M368.6,259.6c-0.2,0-0.3,0-0.5-0.1c-0.4-0.1-0.8-0.4-1-0.8c-0.2-0.4-0.2-0.8-0.2-1.2c-0.4-0.1-0.7-0.4-0.9-0.8
				c-0.2-0.4-0.2-0.8-0.1-1.3s0.4-0.8,0.8-1c0.7-0.4,1.4-0.2,1.9,0.2c0.1,0,0.1-0.1,0.1-0.1c0.4-0.2,0.8-0.2,1.3-0.1
				c0.4,0.1,0.8,0.4,1,0.8c0.4,0.8,0.1,1.9-0.7,2.3c-0.1,0-0.1,0.1-0.1,0.1c0.1,0.7-0.2,1.4-0.8,1.7
				C369.2,259.4,368.9,259.6,368.6,259.6z M367.6,254.3c-0.2,0-0.5,0.1-0.7,0.2c-0.4,0.2-0.6,0.5-0.7,0.9c-0.1,0.4-0.1,0.8,0.1,1.1
				c0.2,0.4,0.5,0.6,0.9,0.7c0.1,0,0.1,0.1,0.1,0.1c-0.1,0.4-0.1,0.8,0.1,1.1c0.2,0.4,0.5,0.6,0.9,0.7c0.4,0.1,0.8,0.1,1.1-0.1
				c0.6-0.3,0.9-1,0.8-1.6c0-0.1,0-0.1,0.1-0.1s0.1-0.1,0.2-0.1c0.4-0.2,0.6-0.5,0.7-0.9c0.1-0.4,0.1-0.8-0.1-1.1
				c-0.4-0.7-1.3-1-2.1-0.6c-0.1,0-0.1,0.1-0.1,0.1c0,0-0.1,0-0.1,0C368.3,254.5,367.9,254.3,367.6,254.3z"/>
		</g>
		<g>
			<path d="M370,252.4c-0.7,0-1.3-0.3-1.6-0.9c-0.5-0.9-0.3-2.1,0.6-2.6c0.9-0.5,2.1-0.3,2.6,0.6c0.5,0.9,0.3,2.1-0.6,2.6l0,0
				C370.7,252.2,370.4,252.4,370,252.4z M370,248.8c-0.3,0-0.6,0.1-0.8,0.2c-0.8,0.5-1,1.5-0.5,2.2c0.5,0.8,1.5,1,2.2,0.5
				c0.8-0.5,1-1.5,0.5-2.2C371.1,249.1,370.6,248.8,370,248.8z M371,251.9L371,251.9L371,251.9z"/>
		</g>
		<g>
			<path d="M375.3,254.8c-0.1,0-0.3,0-0.4-0.1c-0.5-0.1-0.9-0.4-1.2-0.8c-0.3-0.4-0.4-1-0.2-1.4c0.1-0.5,0.4-0.9,0.8-1.2
				c0.4-0.3,1-0.4,1.4-0.2c0.5,0.1,0.9,0.4,1.2,0.8c0.3,0.4,0.4,1,0.2,1.4c-0.1,0.5-0.4,0.9-0.8,1.2
				C376,254.8,375.7,254.8,375.3,254.8z M375.3,251.3c-0.3,0-0.6,0.1-0.8,0.2c-0.4,0.2-0.6,0.6-0.7,1s0,0.8,0.2,1.2
				c0.2,0.4,0.6,0.6,1,0.7c0.4,0.1,0.8,0,1.2-0.2l0,0c0.4-0.2,0.6-0.6,0.7-1c0.1-0.4,0-0.8-0.2-1.2c-0.2-0.4-0.6-0.6-1-0.7
				C375.5,251.3,375.4,251.3,375.3,251.3z"/>
		</g>
		<g>
			<path d="M375.3,253.9c-0.1,0-0.1,0-0.2,0c-0.2-0.1-0.5-0.2-0.6-0.4c-0.3-0.5-0.1-1,0.3-1.3c0.5-0.3,1-0.1,1.3,0.3
				c0.3,0.5,0.1,1-0.3,1.3C375.7,253.9,375.5,253.9,375.3,253.9z M375.3,252.1c-0.1,0-0.3,0.1-0.4,0.1c-0.4,0.2-0.5,0.7-0.2,1.1
				c0.1,0.2,0.3,0.3,0.5,0.4c0.2,0.1,0.4,0,0.6-0.1l0,0c0.2-0.1,0.3-0.3,0.4-0.5c0.1-0.2,0-0.4-0.1-0.6
				C375.8,252.2,375.5,252.1,375.3,252.1z"/>
		</g>
		<g>
			<path d="M374.8,260c-0.7,0-1.3-0.3-1.6-0.9c-0.5-0.9-0.3-2.1,0.6-2.6c0.9-0.5,2.1-0.3,2.6,0.6c0.5,0.9,0.3,2.1-0.6,2.6l0,0
				C375.5,259.9,375.2,260,374.8,260z M374.8,256.5c-0.3,0-0.6,0.1-0.8,0.2c-0.8,0.5-1,1.5-0.5,2.2c0.5,0.8,1.5,1,2.2,0.5l0,0
				c0.8-0.5,1-1.5,0.5-2.2C375.9,256.8,375.4,256.5,374.8,256.5z M375.7,259.6L375.7,259.6L375.7,259.6z"/>
		</g>
		<g>
			<path d="M374.8,259.3c-0.1,0-0.2,0-0.2,0c-0.3-0.1-0.5-0.2-0.7-0.5c-0.3-0.5-0.2-1.2,0.4-1.6c0.5-0.3,1.2-0.2,1.6,0.4
				c0.2,0.2,0.2,0.5,0.1,0.8c-0.1,0.3-0.2,0.5-0.5,0.7l0,0C375.2,259.2,375,259.3,374.8,259.3z M374.8,257.2c-0.2,0-0.4,0.1-0.5,0.1
				c-0.5,0.3-0.6,0.9-0.3,1.3c0.1,0.2,0.4,0.4,0.6,0.4s0.5,0,0.7-0.1l0,0c0.2-0.1,0.4-0.4,0.4-0.6c0.1-0.2,0-0.5-0.1-0.7
				C375.4,257.3,375.1,257.2,374.8,257.2z"/>
		</g>
		<g>
			<path d="M370,251.5c-0.4,0-0.7-0.2-1-0.5c-0.2-0.2-0.2-0.5-0.1-0.8c0.1-0.3,0.2-0.5,0.5-0.7c0.2-0.2,0.5-0.2,0.8-0.1
				c0.3,0.1,0.5,0.2,0.7,0.5c0.2,0.2,0.2,0.5,0.1,0.8c-0.1,0.3-0.2,0.5-0.5,0.7C370.4,251.5,370.2,251.5,370,251.5z M370,249.5
				c-0.2,0-0.4,0.1-0.5,0.1c-0.2,0.1-0.4,0.4-0.4,0.6c-0.1,0.2,0,0.5,0.1,0.7c0.3,0.5,0.9,0.6,1.3,0.3c0.2-0.1,0.4-0.4,0.4-0.6
				s0-0.5-0.1-0.7c-0.1-0.2-0.4-0.4-0.6-0.4C370.1,249.5,370.1,249.5,370,249.5z"/>
		</g>
		<g>
			<path d="M347.9,274.4c-0.2,0-0.4-0.1-0.5-0.3c-0.2-0.3-0.1-0.7,0.2-0.8c6.2-3.4,12.7-6.5,19.3-9.2c0.4-0.2,0.8-0.4,1.3-0.4
				c0.5,0,1,0.2,1.4,0.4l3.4,1.6c0.3,0.1,0.4,0.5,0.3,0.8c-0.1,0.3-0.5,0.4-0.8,0.3l-3.4-1.6c-0.3-0.1-0.7-0.3-0.9-0.3
				s-0.6,0.1-0.9,0.2c-6.5,2.7-13,5.8-19.2,9.2C348.1,274.4,348,274.4,347.9,274.4z"/>
		</g>
		<g>
			<path d="M345.4,266.1c-0.2,0-0.4-0.1-0.5-0.3c-0.2-0.3-0.1-0.7,0.2-0.8c6.2-3.6,11.2-7.1,16.7-11.2c0.2-0.2,0.5-0.4,0.7-0.6
				c0.1-0.2,0.2-0.6,0.2-1l0.4-3.7c0.1-0.3,0.3-0.6,0.7-0.5c0.3,0.1,0.5,0.3,0.5,0.7l-0.4,3.7c-0.1,0.4-0.1,1-0.4,1.4
				c-0.2,0.4-0.7,0.7-1,1c-5.6,4.1-10.6,7.7-16.8,11.3C345.6,266.1,345.5,266.1,345.4,266.1z"/>
		</g>
		<g>
			<path d="M344,263.4c-0.2,0-0.4-0.1-0.5-0.3c-0.2-0.3-0.1-0.7,0.2-0.8l7.1-4.6c0.1-0.1,0.2-0.1,0.2-0.2c0-0.1,0.1-0.1,0.1-0.2
				c0.1-0.9,0.5-1.7,0.9-2.5c0.2-0.3,0.5-0.4,0.8-0.2c0.3,0.2,0.4,0.5,0.2,0.8c-0.4,0.6-0.6,1.3-0.7,2c-0.1,0.2-0.1,0.5-0.2,0.7
				c-0.2,0.3-0.4,0.4-0.6,0.5l-7.1,4.6C344.3,263.4,344.2,263.4,344,263.4z"/>
		</g>
		<g>
			<path d="M297.3,282.4c-0.3,0-0.5-0.2-0.6-0.5s0.1-0.7,0.5-0.7l15-3c1.3-0.2,2.8-0.5,3.8-1.3c0.9-0.7,1.6-1.6,2.3-2.6l3.9-5.6
				c0.2-0.3,0.5-0.4,0.8-0.2c0.3,0.2,0.4,0.5,0.2,0.8l-3.9,5.6c-0.7,1-1.4,2.1-2.6,2.9c-1.3,0.9-2.9,1.3-4.3,1.5l-15,3
				C297.4,282.4,297.4,282.4,297.3,282.4z"/>
		</g>
		<g>
			<path d="M324.4,289.7c-0.1,0-0.2-0.1-0.3-0.1l-5.8-3.7c-1-0.6-2-1.3-3.1-1.5c-1.3-0.3-2.8,0-4.1,0.2l-14,2.8
				c-0.3,0.1-0.7-0.1-0.7-0.5c-0.1-0.3,0.1-0.7,0.5-0.7l14-2.8c1.4-0.3,3-0.6,4.6-0.2c1.3,0.3,2.5,1,3.5,1.7l5.8,3.7
				c0.3,0.2,0.4,0.5,0.2,0.8C324.8,289.6,324.5,289.7,324.4,289.7z"/>
		</g>
		<g>
			<path d="M254.3,324.4c-0.1,0-0.1,0-0.2,0c-0.3-0.1-0.5-0.4-0.4-0.7c1.6-5.2,3-9.4,4.4-13.5c1.4-4.1,2.8-8.3,4.4-13.4
				c0.8-2.8,1.8-6,3.9-8.5c1.8-2.1,4.3-3.4,6.4-4.7c2.1-1.1,5.2-2.9,8.1-4.7c2.9-1.7,6-3.5,8.1-4.7c0.3-0.2,0.7-0.1,0.8,0.2
				c0.2,0.3,0.1,0.7-0.2,0.8c-2.1,1.1-5.2,2.9-8.1,4.7c-2.9,1.7-6,3.5-8.1,4.7c-2.2,1.2-4.4,2.5-6.1,4.4c-1.9,2.3-2.9,5.3-3.7,8
				c-1.6,5.2-3,9.4-4.4,13.5c-1.4,4.1-2.8,8.3-4.4,13.4C254.8,324.3,254.5,324.4,254.3,324.4z"/>
		</g>
		<g>
			<path d="M222.2,323.8c-0.2,0-0.5-0.2-0.6-0.4c-1.6-5.1-3.2-9.4-4.8-13.4c-1.6-4.1-3.3-8.4-4.9-13.5c-0.8-2.7-1.7-5.8-3.7-8
				c-1.6-1.9-3.9-3.2-6.1-4.4l-12.5-7c-0.3-0.2-0.4-0.5-0.2-0.8c0.2-0.3,0.5-0.4,0.8-0.2l12.5,7c2.2,1.2,4.6,2.6,6.4,4.7
				c2.1,2.5,3.1,5.6,3.9,8.5c1.6,5.1,3.2,9.4,4.8,13.4c1.6,4.1,3.3,8.4,4.9,13.5c0.1,0.3-0.1,0.7-0.4,0.7
				C222.3,323.8,222.2,323.8,222.2,323.8z"/>
		</g>
		<g>
			<path d="M334.1,287.2c-0.1,0-0.1,0-0.1,0c-0.3-0.1-0.5-0.4-0.5-0.7c2.8-13.3-5.5-20.8-5.5-20.9c-0.2-0.2-0.3-0.6-0.1-0.8
				c0.2-0.2,0.6-0.3,0.8-0.1c0.1,0.1,8.9,8,5.9,22C334.7,287,334.4,287.2,334.1,287.2z"/>
		</g>
		<g>
			<path d="M336.8,286.7c-0.1,0-0.1,0-0.1,0c-0.3-0.1-0.5-0.4-0.5-0.7c2.8-13.3-4-21.7-4-21.8c-0.2-0.2-0.2-0.7,0.1-0.8
				c0.2-0.2,0.7-0.2,0.8,0.1c0.3,0.4,7.2,8.8,4.3,22.8C337.3,286.6,337.1,286.7,336.8,286.7z"/>
		</g>
		<g>
			<path d="M340.6,285.5c-0.1,0-0.1,0-0.1,0c-0.3-0.1-0.5-0.4-0.5-0.7c2.8-13.4-4.5-22.4-4.6-22.4c-0.2-0.2-0.2-0.7,0.1-0.8
				c0.2-0.2,0.7-0.2,0.8,0.1c0.3,0.4,7.8,9.5,4.9,23.5C341.1,285.3,340.9,285.5,340.6,285.5z"/>
		</g>
		<g>
			<path d="M171.6,331.7c-13.6,0-19.2-6.1-19.4-6.4c-0.1-0.1-0.1-0.2-0.1-0.2c-0.2-0.6-0.7-1.5-1.1-2.4c-0.8-1.4-1.6-2.8-1.4-3.8
				c0-0.1,0-0.1,0-0.1c0.4-1.3,1.7-1.8,2.8-2.3c0.1-0.1,0.2-0.1,0.3-0.1l0,0c-0.7-0.4-1.4-0.8-1.4-1.5c0-0.1,0-0.2,0.1-0.2
				c0.5-1.2,1.9-1.6,3.2-2c-0.4-0.3-0.8-0.8-0.5-1.4c0-0.1,0-0.1,0.1-0.1c0.5-0.8,1.4-1.1,2.2-1.1c-0.1-0.2-0.1-0.3-0.1-0.5
				c-0.2-0.9-0.4-1.8-0.1-2.5c0.1-0.1,0.1-0.2,0.2-0.3c0.6-0.4,1.5-1,2.8-0.8c0.3,0.1,0.5,0.4,0.5,0.7c-0.1,0.3-0.4,0.5-0.7,0.5
				c-0.6-0.1-1.1,0.1-1.7,0.5c-0.1,0.4,0.1,1.1,0.2,1.7c0.1,0.4,0.2,0.8,0.2,1.3c0,0.2-0.1,0.3-0.1,0.5c-0.1,0.1-0.2,0.2-0.4,0.2
				h-0.2c-0.7,0.1-1.3,0.1-1.6,0.4c0.1,0.1,0.2,0.2,0.2,0.2c0.2,0.2,0.5,0.5,0.7,0.8c0.1,0.2,0.1,0.4,0,0.5s-0.2,0.3-0.4,0.4
				c-0.3,0.1-0.6,0.2-0.9,0.3c-1,0.2-2,0.5-2.3,1.1c0.1,0.1,0.5,0.3,0.7,0.4c0.4,0.2,0.7,0.4,1,0.7c0.1,0.1,0.2,0.3,0.2,0.5
				c0,0.2-0.1,0.4-0.3,0.4c-0.4,0.2-0.8,0.4-1.3,0.7c-1,0.4-1.9,0.8-2.2,1.6c-0.1,0.6,0.7,1.9,1.3,3c0.5,0.9,1,1.8,1.2,2.5
				c0.8,0.8,6.6,6.1,19.4,5.8c1.4,0,2.7-0.7,3.7-1.9c-0.1-0.3-0.4-0.3-0.8-0.3c-0.2,0-0.5,0-0.8-0.1c-0.3-0.1-0.5-0.3-0.5-0.6
				c0-0.3,0.2-0.5,0.5-0.6c1.1-0.3,3.5-0.8,3.5-1.6c-0.1-0.2-0.6-0.4-1.4-0.6c-0.5-0.1-1-0.2-1.4-0.4c-0.2-0.1-0.4-0.4-0.4-0.6
				s0.2-0.5,0.5-0.5c0.6-0.1,1.2-0.1,1.8-0.1c1.1,0,1.9-0.1,2.3-0.5c-0.2-0.5-0.7-0.8-1.3-1.1c-0.7-0.3-1.4-0.7-1.7-1.6
				c-0.1-0.2,0-0.4,0.1-0.5s0.2-0.2,0.4-0.3c0.4-0.1,0.7-0.1,1.1,0c0.5,0.1,0.8,0.1,1-0.1c0-0.1,0-0.1,0-0.1c-0.4-0.2-1.1-0.7-2.6-2
				c-0.2-0.2-0.3-0.6-0.1-0.8c0.2-0.2,0.6-0.3,0.8-0.1c1.7,1.5,2.3,1.8,2.5,1.9c0.3,0.1,0.4,0.3,0.5,0.7c0,0.1,0,0.2,0.1,0.5
				c0.1,0.2,0,0.4-0.1,0.5c-0.5,0.6-1.1,0.8-1.6,0.8c0.1,0,0.1,0.1,0.1,0.1c0.7,0.4,1.7,0.8,2.1,2.1c0.1,0.1,0,0.3-0.1,0.4
				c-0.5,0.8-1.3,1.2-2,1.3c0.4,0.2,0.6,0.6,0.7,1.1c0.1,1.1-1,1.7-2.2,2.2c0.2,0.2,0.4,0.5,0.5,0.9c0.1,0.2,0,0.4-0.1,0.5
				c-1.2,1.6-2.9,2.6-4.8,2.6C172.2,331.7,171.9,331.7,171.6,331.7z"/>
		</g>
		<g>
			<path d="M147.6,353.9c-0.2,0-0.4-0.1-0.5-0.4c-0.1-0.3,0-0.7,0.3-0.8l3.4-1.6c0.3-0.1,0.7-0.3,0.8-0.5c0.2-0.2,0.3-0.5,0.4-0.8
				c2.3-7.4,4.2-15.8,5.4-21.6c0.1-0.3,0.4-0.5,0.7-0.5c0.3,0.1,0.5,0.4,0.5,0.7c-1.1,5.8-3.1,14.3-5.4,21.7
				c-0.1,0.4-0.3,0.8-0.6,1.3c-0.4,0.4-0.8,0.7-1.2,0.8l-3.4,1.6C147.7,353.9,147.7,353.9,147.6,353.9z"/>
		</g>
		<g>
			<path d="M167,358.2c-0.2,0-0.3-0.1-0.4-0.2l-2.6-2.6c-0.3-0.3-0.7-0.7-0.8-1.2c-0.2-0.5-0.1-1-0.1-1.4c0.4-7.4,1.3-15,2.4-21.7
				c0.1-0.3,0.4-0.5,0.7-0.5c0.3,0.1,0.5,0.4,0.5,0.7c-1.1,6.7-2,14.2-2.4,21.6c0,0.3-0.1,0.7,0.1,0.9c0.1,0.3,0.4,0.5,0.6,0.8
				l2.6,2.6c0.2,0.2,0.2,0.6,0,0.8C167.3,358.1,167.2,358.2,167,358.2z"/>
		</g>
		<g>
			<path d="M150.3,340.1c-0.1,0-0.3-0.1-0.4-0.2c-0.2-0.2-0.2-0.6-0.1-0.8c0.6-0.7,1.3-1.1,2.1-1.5c0.1-0.1,0.2-0.1,0.2-0.1
				c0.1-0.1,0.1-0.2,0.1-0.2c0.4-1.3,1-3.2,1.4-5c0.5-1.8,1-3.7,1.4-5c0.1-0.3,0.4-0.5,0.8-0.4c0.3,0.1,0.5,0.4,0.4,0.8
				c-0.4,1.3-1,3.2-1.4,5c-0.5,1.8-1,3.7-1.4,5c-0.1,0.2-0.2,0.5-0.4,0.7c-0.2,0.2-0.4,0.3-0.6,0.4c-0.7,0.3-1.3,0.7-1.7,1.2
				C150.6,340.1,150.4,340.1,150.3,340.1z"/>
		</g>
		<g>
			<path d="M178.2,314.5c-0.2,0-0.5-0.2-0.6-0.4c-0.3-1.1-0.7-2.4-1.1-3.7c-0.4-1.3-0.8-2.6-1.1-3.7c-0.3-1.1-0.7-2.5-0.6-3.8
				c0.1-1.6,0.9-3,1.6-4.3l6.2-11.3c0.2-0.3,0.5-0.4,0.8-0.2s0.4,0.5,0.2,0.8l-6.2,11.3c-0.6,1.1-1.3,2.5-1.4,3.8
				c-0.1,1.1,0.2,2.3,0.5,3.4c0.3,1.1,0.7,2.4,1.1,3.7c0.4,1.3,0.8,2.6,1.1,3.7c0.1,0.3-0.1,0.7-0.4,0.7
				C178.2,314.5,178.2,314.5,178.2,314.5z"/>
		</g>
		<g>
			<path d="M161.2,302.1c-0.2,0-0.5-0.2-0.6-0.4c-0.1-0.3,0.1-0.7,0.4-0.8l6.5-2c1.1-0.4,2.3-0.7,3.2-1.4c1.1-0.8,1.8-2.1,2.4-3.2
				c1.2-2.2,2.6-4.9,4-7.4c1.4-2.6,2.8-5.2,4.1-7.4c0.2-0.3,0.5-0.4,0.8-0.2c0.3,0.2,0.4,0.5,0.2,0.8c-1.2,2.2-2.6,4.9-4,7.4
				c-1.4,2.6-2.8,5.2-4.1,7.4c-0.7,1.3-1.4,2.7-2.7,3.7c-1.1,0.8-2.4,1.2-3.5,1.6l-6.5,2C161.3,302.1,161.2,302.1,161.2,302.1z"/>
		</g>
		<g>
			<path d="M175.3,320.6c-3.6,0-12.2-1-19-9.7c-0.2-0.2-0.2-0.7,0.1-0.8c0.3-0.2,0.7-0.2,0.8,0.1c8.4,10.7,19.4,9.2,19.6,9.2
				c0.3-0.1,0.7,0.2,0.7,0.5c0.1,0.3-0.2,0.7-0.5,0.7C177,320.6,176.4,320.6,175.3,320.6z"/>
		</g>
		<g>
			<path d="M175.2,324.7L175.2,324.7c-0.5,0-11.4-0.1-20.2-11.3c-0.2-0.2-0.2-0.7,0.1-0.8c0.2-0.2,0.7-0.2,0.8,0.1
				c8.4,10.7,19.1,10.9,19.3,10.9c0.4,0,0.6,0.3,0.6,0.6C175.8,324.4,175.5,324.7,175.2,324.7z"/>
		</g>
		<g>
			<path d="M174.6,328.3L174.6,328.3c-0.5,0-12.3-0.2-21.1-11.4c-0.2-0.2-0.2-0.7,0.1-0.8c0.2-0.2,0.7-0.2,0.8,0.1
				c8.5,10.7,20,10.9,20.2,10.9c0.4,0,0.6,0.3,0.6,0.6C175.2,328.1,175,328.3,174.6,328.3z"/>
		</g>
		<g>
			<path d="M164.3,369.8c-0.4,0-0.8-0.2-1.1-0.7c-1.4-2.7-3.3-4.3-5.6-4.9c-4.7-1.2-9.9,2.2-10,2.3c-0.5,0.4-1.3,0.2-1.7-0.3
				c-0.4-0.5-0.2-1.3,0.3-1.7c0.2-0.2,6.1-4.1,11.9-2.6c3.1,0.8,5.5,2.8,7.2,6.1c0.3,0.6,0.1,1.3-0.5,1.6
				C164.7,369.8,164.5,369.8,164.3,369.8z"/>
		</g>
		<g>
			<path d="M175.6,317.9c-7.6,0-16.9-9.4-17.3-9.8c-0.2-0.2-0.2-0.6,0-0.8c0.2-0.2,0.6-0.2,0.8,0c0.1,0.1,9.8,10,17,9.5
				c0.4,0,0.6,0.2,0.7,0.5c0,0.4-0.2,0.6-0.5,0.7C176,317.9,175.8,317.9,175.6,317.9z"/>
		</g>
		<g>
			<path d="M255.4,301.7c-0.1,0-0.1,0-0.2-0.1c-0.3-0.1-0.5-0.5-0.4-0.8c2.2-5.6,7.4-11.3,13.6-14.5c0.3-0.2,0.7-0.1,0.8,0.2
				c0.2,0.3,0.1,0.7-0.2,0.8c-5.9,3.1-11,8.5-13,13.8C255.8,301.5,255.7,301.7,255.4,301.7z"/>
		</g>
		<g>
			<path d="M222.2,302.1c-0.2,0-0.5-0.1-0.5-0.4c-1.9-5-6.9-10-13.3-13.4c-0.3-0.2-0.4-0.5-0.2-0.8c0.2-0.3,0.5-0.4,0.8-0.2
				c6.7,3.5,11.8,8.8,13.9,14c0.1,0.3-0.1,0.7-0.4,0.8C222.3,302.1,222.2,302.1,222.2,302.1z"/>
		</g>
		<g>
			<path d="M233.5,324.7L233.5,324.7c-0.4,0-0.6-0.3-0.6-0.7c0.2-2.2-0.2-4.4-1.1-6.4c-0.1-0.3,0-0.7,0.3-0.8c0.3-0.1,0.7,0,0.8,0.3
				c0.9,2.2,1.3,4.6,1.1,7C234.1,324.4,233.8,324.7,233.5,324.7z"/>
		</g>
		<g>
			<path d="M243.4,324.7c-0.3,0-0.6-0.2-0.6-0.5c-0.2-2.3,0.2-4.7,1.1-7c0.1-0.3,0.5-0.4,0.8-0.3c0.3,0.1,0.4,0.5,0.3,0.8
				c-0.8,2-1.2,4.2-1.1,6.4C244,324.4,243.8,324.7,243.4,324.7L243.4,324.7z"/>
		</g>
		<g>
			<path d="M262.1,302.6c-0.2,0-0.4-0.1-0.5-0.4c-0.1-0.3,0-0.7,0.3-0.8c9.8-4.6,21.1-6.4,31.8-5c0.3,0.1,0.5,0.4,0.5,0.7
				s-0.4,0.5-0.7,0.5c-10.5-1.3-21.5,0.4-31.1,4.9C262.3,302.5,262.3,302.6,262.1,302.6z"/>
		</g>
		<g>
			<path d="M215.5,305.3c-0.1,0-0.2,0-0.2-0.1c-9.6-4.5-20.6-6.2-31.1-4.9c-0.3,0.1-0.6-0.2-0.7-0.5c-0.1-0.3,0.2-0.6,0.5-0.7
				c10.7-1.4,22,0.4,31.8,5c0.3,0.1,0.4,0.5,0.3,0.8C215.9,305.1,215.7,305.3,215.5,305.3z"/>
		</g>
		<g>
			<path d="M238.3,211c-0.9,0-1.6-0.7-1.6-1.6c0-0.9,0.7-1.6,1.6-1.6c0.9,0,1.6,0.7,1.6,1.6C239.9,210.3,239.1,211,238.3,211z
				 M238.3,208.1c-0.7,0-1.3,0.6-1.3,1.3s0.6,1.3,1.3,1.3c0.7,0,1.3-0.6,1.3-1.3S239,208.1,238.3,208.1z"/>
		</g>
		<g>
			<path d="M206.6,198c-0.9,0-1.6-0.7-1.6-1.6c0-0.9,0.7-1.6,1.6-1.6c0.9,0,1.6,0.7,1.6,1.6C208.2,197.3,207.4,198,206.6,198z
				 M206.6,195.1c-0.7,0-1.3,0.6-1.3,1.3s0.6,1.3,1.3,1.3c0.7,0,1.3-0.6,1.3-1.3S207.3,195.1,206.6,195.1z"/>
		</g>
		<g>
			<path d="M239.2,210.7C239.2,210.7,239.1,210.6,239.2,210.7l-1.9-2.3c0-0.1,0-0.1,0-0.1c0.1,0,0.1,0,0.1,0l1.9,2.3
				C239.2,210.5,239.2,210.6,239.2,210.7C239.2,210.7,239.2,210.7,239.2,210.7z"/>
		</g>
		<g>
			<path d="M207.2,197.8C207.2,197.8,207.1,197.8,207.2,197.8l-1.3-2.7c0-0.1,0-0.1,0.1-0.1c0.1,0,0.1,0,0.1,0.1l1.2,2.6
				C207.2,197.8,207.2,197.8,207.2,197.8L207.2,197.8z"/>
		</g>
		<g>
			<path d="M237.6,215.6c-27,0-48.9-22-48.9-48.9s22-48.9,48.9-48.9c27,0,48.9,22,48.9,48.9S264.5,215.6,237.6,215.6z M237.6,120.2
				c-25.6,0-46.5,20.9-46.5,46.5s20.9,46.5,46.5,46.5s46.5-20.9,46.5-46.5S263.2,120.2,237.6,120.2z"/>
		</g>
		<g>
			<path d="M237.6,205.5c-21.4,0-38.8-17.4-38.8-38.8s17.4-38.8,38.8-38.8s38.8,17.4,38.8,38.8S259,205.5,237.6,205.5z M237.6,130.2
				c-20.1,0-36.4,16.3-36.4,36.4s16.3,36.4,36.4,36.4c20.1,0,36.4-16.3,36.4-36.4S257.6,130.2,237.6,130.2z"/>
		</g>
		<g>
			<path d="M236.1,125.8c-0.9,0-1.6-0.7-1.6-1.6s0.7-1.6,1.6-1.6c0.9,0,1.6,0.7,1.6,1.6S237,125.8,236.1,125.8z M236.1,122.9
				c-0.7,0-1.3,0.6-1.3,1.3s0.6,1.3,1.3,1.3c0.7,0,1.3-0.6,1.3-1.3S236.8,122.9,236.1,122.9z"/>
		</g>
		<g>
			<path d="M281,167.5c-0.9,0-1.6-0.7-1.6-1.6c0-0.9,0.7-1.6,1.6-1.6c0.9,0,1.6,0.7,1.6,1.6C282.6,166.8,281.9,167.5,281,167.5z
				 M281,164.6c-0.7,0-1.3,0.6-1.3,1.3c0,0.7,0.6,1.3,1.3,1.3c0.7,0,1.3-0.6,1.3-1.3C282.3,165.2,281.7,164.6,281,164.6z"/>
		</g>
		<g>
			<path d="M194.1,171.8c-0.9,0-1.6-0.7-1.6-1.6c0-0.9,0.7-1.6,1.6-1.6c0.9,0,1.6,0.7,1.6,1.6C195.7,171.1,194.9,171.8,194.1,171.8z
				 M194.1,169c-0.7,0-1.3,0.6-1.3,1.3s0.6,1.3,1.3,1.3s1.3-0.6,1.3-1.3S194.8,169,194.1,169z"/>
		</g>
		<g>
			<path d="M269.5,139.7c-0.9,0-1.6-0.7-1.6-1.6c0-0.9,0.7-1.6,1.6-1.6c0.9,0,1.6,0.7,1.6,1.6C271.1,139,270.4,139.7,269.5,139.7z
				 M269.5,136.8c-0.7,0-1.3,0.6-1.3,1.3c0,0.7,0.6,1.3,1.3,1.3s1.3-0.6,1.3-1.3C270.8,137.4,270.2,136.8,269.5,136.8z"/>
		</g>
		<g>
			<path d="M271,195.2c-0.9,0-1.6-0.7-1.6-1.6c0-0.9,0.7-1.6,1.6-1.6s1.6,0.7,1.6,1.6C272.6,194.5,271.9,195.2,271,195.2z
				 M271,192.2c-0.7,0-1.3,0.6-1.3,1.3c0,0.7,0.6,1.3,1.3,1.3s1.3-0.6,1.3-1.3C272.3,192.8,271.7,192.2,271,192.2z"/>
		</g>
		<g>
			<path d="M206.6,138.3c-0.9,0-1.6-0.7-1.6-1.6c0-0.9,0.7-1.6,1.6-1.6c0.9,0,1.6,0.7,1.6,1.6C208.2,137.5,207.4,138.3,206.6,138.3z
				 M206.6,135.4c-0.7,0-1.3,0.6-1.3,1.3s0.6,1.3,1.3,1.3c0.7,0,1.3-0.6,1.3-1.3S207.3,135.4,206.6,135.4z"/>
		</g>
		<g>
			<path d="M270.1,194.8C270.1,194.8,270,194.8,270.1,194.8c-0.1-0.1-0.1-0.1-0.1-0.1l1.9-2.2c0-0.1,0.1-0.1,0.1,0
				c0.1,0,0.1,0.1,0,0.1L270.1,194.8C270.1,194.8,270.1,194.8,270.1,194.8z"/>
		</g>
		<g>
			<path d="M205.6,137.9C205.6,137.9,205.6,137.9,205.6,137.9c-0.1-0.1-0.1-0.1-0.1-0.1l1.9-2.2c0-0.1,0.1-0.1,0.1,0
				c0.1,0,0.1,0.1,0,0.1L205.6,137.9L205.6,137.9z"/>
		</g>
		<g>
			<path d="M236,125.7L236,125.7C235.9,125.7,235.9,125.7,236,125.7l0.2-2.9c0-0.1,0.1-0.1,0.1-0.1c0.1,0,0.1,0.1,0.1,0.1L236,125.7
				C236,125.7,236,125.7,236,125.7z"/>
		</g>
		<g>
			<path d="M270.8,138.9C270.8,138.9,270.8,138.9,270.8,138.9l-2.6-1.4c-0.1,0-0.1-0.1-0.1-0.1c0-0.1,0.1-0.1,0.1-0.1l2.6,1.3
				c0.1,0,0.1,0.1,0.1,0.1C270.9,138.9,270.8,138.9,270.8,138.9z"/>
		</g>
		<g>
			<path d="M192.6,170.4C192.5,170.4,192.5,170.3,192.6,170.4c-0.1-0.1-0.1-0.1,0-0.1l2.9-0.2c0.1,0,0.1,0,0.1,0.1s0,0.1-0.1,0.1
				L192.6,170.4L192.6,170.4z"/>
		</g>
		<g>
			<path d="M281.9,167.2C281.9,167.2,281.8,167.2,281.9,167.2l-1.8-2.4c0-0.1,0-0.1,0-0.1c0.1,0,0.1,0,0.1,0l1.7,2.3
				C281.9,167.1,281.9,167.1,281.9,167.2L281.9,167.2z"/>
		</g>
		<g>
			<path d="M321.6,220.1c-0.2,0-0.4-0.1-0.5-0.4c-0.1-0.3,0-0.7,0.3-0.8c3.7-1.7,6.5-3.8,8.8-6.5l0.7-0.8c2-2.4,4-4.9,6.9-6.2
				c1.2-0.5,3.4-1.4,4.9-0.9c0.3,0.1,0.5,0.4,0.4,0.8c-0.1,0.4-0.4,0.5-0.8,0.4c-0.8-0.3-2.6,0.2-4,0.9c-2.6,1.2-4.6,3.6-6.4,5.9
				l-0.7,0.8c-2.3,2.8-5.3,5-9.2,6.8C321.8,220.1,321.7,220.1,321.6,220.1z"/>
		</g>
		<g>
			<path d="M296.7,224.9L296.7,224.9c-8.5-0.2-16.6-2-24-5.6c-5.8-2.8-10.5-6-14-9.5c-0.2-0.2-0.2-0.6,0-0.8c0.2-0.2,0.6-0.2,0.8,0
				c3.4,3.5,8,6.6,13.7,9.3c7.3,3.5,15.2,5.3,23.5,5.5c0.4,0,0.6,0.3,0.6,0.6C297.3,224.6,297.1,224.9,296.7,224.9z"/>
		</g>
		<g>
			<path d="M154.2,219.6c-0.1,0-0.2,0-0.2-0.1c-3.4-1.7-6.1-3.8-8.2-6.4l-0.7-0.8c-1.9-2.3-3.8-4.7-6.4-5.9
				c-0.3-0.1-0.7-0.3-1.3-0.5c-0.3-0.1-0.5-0.5-0.4-0.8c0.1-0.3,0.5-0.5,0.8-0.4c0.5,0.2,1,0.4,1.3,0.5c2.9,1.3,4.9,3.8,6.8,6.2
				l0.7,0.8c2,2.5,4.6,4.4,7.7,6c0.3,0.1,0.4,0.5,0.2,0.8C154.6,219.5,154.5,219.6,154.2,219.6z"/>
		</g>
		<g>
			<path d="M179,224.9c-0.4,0-0.7,0-1,0s-0.6-0.3-0.6-0.6c0-0.4,0.2-0.6,0.6-0.6c8.9,0.1,17.8-1.7,25.6-5.5
				c5.6-2.7,10.3-5.8,13.7-9.3c0.2-0.2,0.6-0.2,0.8,0s0.2,0.6,0,0.8c-3.5,3.5-8.2,6.8-14,9.5C196.4,223,187.8,224.9,179,224.9z"/>
		</g>
	</g>
	<g id="LINEART">
		<g>
			<path d="M273.9,338c-0.1,0-0.3,0-0.4-0.1c-0.6-0.2-0.9-1-0.7-1.6c1.2-3,3.8-11.3,5.9-17.9l0.9-2.9c0.2-0.7,0.9-1,1.5-0.8
				c0.7,0.2,1,0.9,0.8,1.5l-0.9,2.9c-2.2,7-4.7,15-5.9,18.1C274.8,337.8,274.4,338,273.9,338z"/>
		</g>
		<g>
			<path d="M240.7,326.8c-0.2,0-0.4,0-0.6,0c-0.7-0.1-1.2-0.6-1.1-1.3c0.1-0.7,0.6-1.2,1.3-1.1h0.1c0.4,0,0.7,0.1,1-0.1
				c0.4-0.1,0.8-0.2,1.1-0.2c0.8-0.1,1.6-0.2,2.5-0.4c2-0.3,4.1-0.7,6.2-1.1c5.6-1,10.1-2,14.3-3c1.9-0.5,4.3-1.1,6.7-1.9
				c4.6-1.5,16.6-5.5,20.5-11.3l5.3-31.6c0.1-0.7,0.7-1.1,1.4-1c0.7,0.1,1.1,0.7,1,1.4l-5.3,31.8c0,0.2-0.1,0.3-0.2,0.4
				c-3.7,5.9-13.6,9.8-21.8,12.5c-2.5,0.8-5,1.4-6.8,1.9c-4.2,1-8.8,2-14.4,3c-2.2,0.4-4.3,0.8-6.2,1.1c-0.8,0.1-1.7,0.2-2.5,0.4
				c-0.3,0.1-0.7,0.1-1,0.2C241.4,326.8,241,326.8,240.7,326.8z"/>
		</g>
		<g>
			<path d="M239.4,326.8c-0.5,0-0.9-0.1-1.3-0.1c-0.3-0.1-0.7-0.1-1-0.2c-0.8-0.1-1.7-0.2-2.5-0.4c-2-0.3-4.1-0.7-6.2-1.1
				c-5.6-1-10.2-2-14.4-3c-1.9-0.5-4.4-1.1-6.8-1.9c-8.2-2.7-18.1-6.6-21.8-12.5c-0.1-0.1-0.1-0.3-0.2-0.4l-5.2-31.3
				c-0.1-0.7,0.4-1.3,1-1.4c0.7-0.1,1.3,0.4,1.4,1l5.2,31.1c3.8,5.8,15.9,9.8,20.5,11.3c2.4,0.8,4.8,1.4,6.7,1.9c4.1,1,8.7,2,14.3,3
				c2.1,0.4,4.2,0.8,6.2,1.1c0.8,0.1,1.6,0.2,2.5,0.4c0.4,0.1,0.7,0.1,1.1,0.2c0.1,0.1,0.5,0.1,1.3,0.1c0.7-0.1,1.2,0.5,1.3,1.1
				c0.1,0.7-0.5,1.2-1.1,1.3C239.9,326.8,239.6,326.8,239.4,326.8z"/>
		</g>
		<g>
			<path d="M206.9,338c-0.5,0-1-0.3-1.1-0.8l-0.4-1c-2.3-6.2-4.9-13.1-6.9-19.6c-0.2-0.7,0.2-1.3,0.8-1.5c0.7-0.2,1.3,0.2,1.5,0.8
				c2,6.4,4.6,13.4,6.8,19.5l0.4,1c0.2,0.6-0.1,1.3-0.7,1.6C207.2,338,207.1,338,206.9,338z"/>
		</g>
		<g>
			<path d="M238.9,343c-1.5,0-3.1-0.1-4.6-0.2c-2.5-0.2-5-0.5-7.5-0.7c-1.6-0.2-3.2-0.3-4.9-0.5c-5-0.5-9.9-1.9-15.3-3.6
				c-0.7-0.2-1-0.9-0.8-1.5c0.2-0.7,0.9-1,1.5-0.8c5.2,1.7,10,3.1,14.8,3.5c1.6,0.1,3.2,0.3,4.9,0.5c2.5,0.2,5,0.5,7.4,0.7
				c5.2,0.4,10.2,0,15.5-0.5l1.4-0.1c8.6-0.7,15.8-2,22.1-4.1c0.7-0.2,1.3,0.1,1.5,0.8c0.2,0.7-0.1,1.3-0.8,1.5
				c-6.5,2-13.9,3.4-22.7,4.2l-1.4,0.1C246.5,342.6,242.6,343,238.9,343z"/>
		</g>
		<g>
			<path d="M240.4,451L240.4,451c-0.5,0-0.9-0.3-1.1-0.7c-1.6-3.6-2.9-7.6-4.3-11.8c-1.6-5-3.2-10.1-5.6-14.8
				c-3.1-6.2-4.5-10.7-5.2-16.7c-0.3-2.4-0.2-5.6-0.1-8.9c0.1-3.4,0.2-7.2-0.1-10.2c-0.4,0.9-0.7,1.9-1.1,2.8
				c-1.4,3.5-2.9,7.1-2.9,9.4c0,0.5-0.3,1-0.8,1.1c-0.5,0.2-1,0-1.3-0.4c-6.1-7.4-5.2-14-4.1-20.4c-0.5,0.5-0.9,0.8-1.4,1.2
				c-1.3,1-1.9,1.6-2,2.9c-0.1,0.5-0.4,1-0.9,1.1c-0.5,0.1-1.1-0.1-1.3-0.6c-3.1-5.3-2.5-15.4-2-22.7c0.1-0.7,0.1-1.3,0.1-1.9
				c0.1-1.6-0.2-4.2-0.5-6.9c-0.7-6.8-1.6-14.4,1.7-17.3c0.5-0.4,1.3-0.4,1.7,0.1c0.4,0.5,0.4,1.3-0.1,1.7c-2.3,2-1.5,9.7-0.9,15.2
				c0.3,2.9,0.6,5.5,0.5,7.3c-0.1,0.6-0.1,1.3-0.1,2c-0.4,5.9-0.8,13.7,0.7,18.8c0.5-0.6,1.1-1.1,1.6-1.6c0.9-0.7,1.7-1.4,2.2-2.6
				c0.7-1.7,0.7-4.6,0.8-7c0-0.9,0.1-1.7,0.1-2.5c0.1-0.6,0.5-1.1,1.1-1.1c0.6-0.1,1.1,0.3,1.3,0.9c1.1,4.6,0.5,8.8-0.2,12.9
				c-0.9,5.5-1.7,10.7,1.9,16.6c0.5-2.2,1.6-4.7,2.6-7.2c1-2.5,2-4.8,2.4-6.7c0.1-0.5,0.5-0.9,1.1-1c0.5-0.1,1,0.2,1.2,0.7
				c1.6,3.5,1.4,9.4,1.2,15.2c-0.1,3.3-0.2,6.4,0.1,8.6c0.7,5.7,2,10,5,15.9c2.4,4.9,4.1,10.1,5.7,15.1c1,3.2,2,6.2,3.1,8.9
				c1.1-2.8,2-5.8,3.1-8.9c1.6-5,3.3-10.3,5.7-15.1c2.9-5.9,4.3-10.2,5-15.9c0.2-1.9,0.3-4.2,0.4-6.7c0.2-5.5,0.4-11,2.1-14.8
				c0.2-0.5,0.7-0.8,1.2-0.7c0.5,0.1,1,0.4,1.1,1c0.4,1.8,1.2,4,2.1,6.2c0.8,2.2,1.7,4.5,2.2,6.6c2.6-5.7,1.6-11.1,0.5-16.8
				c-0.9-4.6-1.8-9.2-0.6-14c0.1-0.6,0.7-1,1.3-0.9c0.6,0.1,1,0.5,1.1,1.1c0.1,1.9,1,4,1.9,5.9c0.3,0.7,0.6,1.4,0.8,2.1
				c0.5,1.2,1.2,2.2,1.9,3.2c0.5,0.7,1,1.3,1.4,2c1.3-5.1,0.9-12.7,0.6-18.4c-0.1-0.7-0.1-1.3-0.1-2c-0.1-1.8,0.2-4.3,0.5-7.3
				c0.6-5.6,1.4-13.2-0.9-15.2c-0.5-0.4-0.5-1.2-0.1-1.7s1.2-0.5,1.7-0.1c3.2,2.8,2.4,10.5,1.7,17.3c-0.3,2.7-0.5,5.3-0.5,6.9
				c0.1,0.6,0.1,1.3,0.1,1.9c0.4,7.4,1,17.4-2,22.7c-0.2,0.5-0.8,0.7-1.3,0.6c-0.5-0.1-0.9-0.5-0.9-1.1c-0.1-1.7-1-2.9-2-4.3
				c-0.8-1-1.7-2.2-2.2-3.7c-0.2-0.6-0.5-1.3-0.8-2c-0.1-0.1-0.1-0.3-0.2-0.4c0.2,2.3,0.6,4.6,1.1,6.9c1.3,6.8,2.7,13.9-2.6,21.5
				c-0.3,0.4-0.8,0.6-1.4,0.5c-0.5-0.2-0.8-0.7-0.8-1.1c0.1-2.3-1.3-5.9-2.6-9.4c-0.4-0.9-0.7-1.8-1-2.6c-0.5,3.1-0.7,6.7-0.8,10.1
				c-0.1,2.5-0.2,4.9-0.4,6.8c-0.7,6-2.1,10.5-5.2,16.7c-2.3,4.7-4,9.8-5.6,14.8c-1.3,4.2-2.6,8.2-4.3,11.8
				C241.3,450.7,240.9,451,240.4,451z"/>
		</g>
		<g>
			<path d="M315.2,271.1c-0.5,0-1-0.4-1.1-1c-0.1-0.7,0.2-1.3,0.9-1.4l10.9-2.5c0.7-0.1,1.3,0.2,1.4,0.9c0.1,0.7-0.2,1.3-0.9,1.4
				l-10.9,2.5C315.4,271.1,315.4,271.1,315.2,271.1z"/>
		</g>
		<g>
			<path d="M295.5,296.8c-0.5,0-1-0.4-1.1-1c-0.1-0.7,0.2-1.3,0.9-1.4l34.3-7.8c0.7-0.1,1.3,0.2,1.4,0.9c0.1,0.7-0.2,1.3-0.9,1.4
				l-34.3,7.8C295.7,296.7,295.6,296.8,295.5,296.8z"/>
		</g>
		<g>
			<g>
				<path d="M347.9,282.2c-0.7,0-0.4-0.8-0.4-1.3c0.1-0.8,0-1.7,0.6-2.3c0.2-0.2,0.5-0.3,0.8-0.4c0.7-0.4,1.4-0.8,2-1.2
					c1.9-1.1,3.8-2.2,5.7-3.3c4.6-2.6,9.1-5.3,13.6-7.9c2.9-1.7,5.8-3.4,8.7-5c0.1-0.1,0.2-0.1,0.3-0.2c1.8-1,2.4-3.4,1.4-5.2
					l-5-8.7c-1-1.8-3.4-2.4-5.2-1.4c-2.3,1.4-4.7,2.7-7.1,4.1c-4.6,2.6-9.1,5.3-13.7,7.9c-1.9,1.1-3.8,2.2-5.8,3.4
					c-0.7,0.4-1.3,0.8-2,1.1c-0.4,0.2-0.7,0.5-1.1,0.5c-0.8-0.1-3.2-1.7-1.9-2.4l29.9-17.3c1.6-0.9,3.4-1.1,5.2-0.7
					c1.8,0.5,3.2,1.6,4.2,3.2l5,8.7c1.9,3.3,0.8,7.5-2.5,9.4l-32.2,18.6C348.5,282.1,348.2,282.2,347.9,282.2z"/>
			</g>
		</g>
		<g>
			<path d="M176.7,317.9c-0.2,0-0.4-0.1-0.5-0.1c-0.6-0.3-0.8-1-0.5-1.6l8.5-16.5c0.3-0.6,1-0.8,1.6-0.5c0.6,0.3,0.8,1,0.5,1.6
				l-8.5,16.5C177.6,317.7,177.1,317.9,176.7,317.9z"/>
		</g>
		<g>
			<path d="M158.7,307.7c-0.2,0-0.4-0.1-0.5-0.1c-0.6-0.3-0.8-1-0.5-1.6l16.4-32c0.3-0.6,1-0.8,1.6-0.5c0.6,0.3,0.8,1,0.5,1.6
				l-16.4,32C159.6,307.4,159.2,307.7,158.7,307.7z"/>
		</g>
		<g>
			<g>
				<path d="M161.2,371.1c-0.4,0-0.8-0.1-1.2-0.1l-9.8-1.7c-1.8-0.3-3.4-1.3-4.4-2.8c-1.1-1.5-1.4-3.4-1.1-5.2l6.4-36.6
					c0.1-0.4,0.4-1.1,0.9-0.8c0.1,0.1,0.2,0.2,0.2,0.2c0.2,0.2,0.5,0.4,0.7,0.5c0.2,0.2,0.5,0.4,0.5,0.7c0,0.1,0,0.2,0,0.2
					c0.1,0.2,0.2,0.3,0.2,0.5c0.3,0.4,0,1.3-0.1,1.8c-0.4,2.2-0.8,4.5-1.2,6.7c-0.5,2.9-1,5.9-1.6,8.8c-0.5,2.9-1,5.9-1.6,8.9
					c-0.4,2.3-0.8,4.6-1.2,6.8c-0.2,0.9-0.3,1.8-0.5,2.8c-0.2,1,0.1,2,0.6,2.8c0.6,0.8,1.4,1.4,2.4,1.6l9.8,1.7c2,0.4,4-1,4.4-3.1
					c0.1-0.3,0.1-0.6,0.2-0.8c0.3-1.6,0.5-3.2,0.8-4.8c0.4-2.5,0.9-5,1.3-7.4c0.5-2.8,1-5.5,1.4-8.3c0.4-2.5,0.8-4.9,1.3-7.3
					c0.2-0.9,0.3-1.9,0.5-2.8c0.1-0.4,0.1-0.7,0.2-1.1c0.1-0.4,0.1-1,0.6-1c0.2-0.1,0.4,0,0.6-0.1c0.1,0,0.3-0.1,0.4-0.1
					c0.4-0.1,0.7-0.1,1.1-0.1c0.4,0,0.7-0.1,0.6,0.4l-6,34.1C167.4,368.8,164.5,371.1,161.2,371.1z"/>
			</g>
		</g>
		<g>
			<path d="M238.4,318.7c-0.5,0-1,0-1.5-0.1c-4.3-0.4-7.5-1.9-10.6-5.1c-2.3-2.4-3.9-5.5-4.4-8.6c-0.5-3-0.2-6.9,0.8-9.4
				c0.9-2.5,2.4-4.7,4.3-6.5c4.9-4.6,12.1-5.8,18.4-3.2c3,1.3,5.6,3.3,7.5,5.9c2.3,3.2,3.2,6,3.2,9.8c-0.1,4.7-2.2,9.3-5.8,12.6
				C246.8,317,242.6,318.7,238.4,318.7z M238.4,285.6c-4,0-7.8,1.4-10.7,4.2c-1.7,1.7-3.2,3.8-4,6.1c-0.9,2.4-1.2,6-0.7,8.8
				c0.5,2.9,2,5.8,4.1,8c2.9,2.9,5.9,4.4,9.8,4.7c4.4,0.4,8.9-1.1,12.3-4.2c3.4-3.1,5.3-7.3,5.5-11.7l0,0c0.1-3.5-0.8-6.2-2.9-9.1
				c-1.7-2.4-4.2-4.3-7-5.5C242.7,286,240.5,285.6,238.4,285.6z"/>
		</g>
		<g>
			<path d="M283.9,276.6h-40c-0.7,0-1.2-0.5-1.2-1.2s0.5-1.2,1.2-1.2h40c4.5,0,9-0.7,13.4-1.3c1-0.1,1.9-0.3,2.9-0.4
				c1.2-0.2,2.5-0.2,3.8-0.4c3.7-0.2,7.4-0.5,9.8-2.5c0.7-0.6,1.5-2.3,1.7-2.8c1.1-2.5,2.2-4.7,2.3-7.3c0.1-0.7,0.2-1.4,0.3-2
				c0.1-0.7,0.3-1.3,0.3-2.1c0-1.1,0-1.8,0-2.6v-1.6c0-0.7,0.5-1.2,1.2-1.2s1.2,0.5,1.2,1.2v1.6c0,0.8,0,1.6,0,2.6s-0.2,1.9-0.4,2.6
				c-0.1,0.5-0.2,1-0.2,1.6c-0.2,3.1-1.4,5.6-2.6,8.2c-0.6,1.3-1.4,2.8-2.4,3.7c-3.1,2.5-7.4,2.8-11.2,3c-1.3,0.1-2.5,0.2-3.7,0.3
				c-1,0.1-1.9,0.3-2.8,0.4C293.2,275.9,288.5,276.6,283.9,276.6z"/>
		</g>
		<g>
			<path d="M296,254.4c-6.8,0-13.8-0.7-20.8-1.9l-1.4-0.2c-5.3-1-10.8-2-16.1-3.4c-3.2-0.8-5.9-1.8-8.6-2.9
				c-0.6-0.2-1.2-0.5-1.9-0.7c-1.7-0.6-3.4-1.3-5-2.3l-0.3-0.2c-0.9-0.6-1.9-1.2-2.7-2c-0.7,0.7-1.4,1.1-2.1,1.6
				c-0.3,0.2-0.6,0.4-1,0.6c-1.6,1-3.3,1.7-5,2.3c-0.6,0.2-1.3,0.5-1.9,0.7c-2.6,1.1-5.4,2-8.6,2.9c-5.3,1.4-10.8,2.5-16.1,3.4
				l-1.4,0.2c-8,1.4-16.1,2.1-23.8,1.9c-1.6-0.1-3.1-0.3-4.6-0.6c-1.4-0.2-2.6-0.5-4-0.5c-16.6-0.7-33.2-10-43.4-24.3
				c-0.3-0.4-0.3-1,0-1.4c0.2-0.2,0.4-0.4,0.7-0.5c-2.8-2.3-5-5.3-6.2-8.7c-0.1-0.4-0.1-0.9,0.2-1.2c0.3-0.3,0.7-0.5,1.1-0.4
				c1,0.2,2,0.2,3.1,0.1c-2.9-0.9-5.6-2.4-8-4.4c-0.4-0.3-0.5-0.8-0.4-1.2c0.1-0.4,0.5-0.8,0.9-0.9c6.1-1.2,10.6-2.8,14.4-5
				c2.3-1.4,6.6-4.3,8.6-8.3c1.1-2.1,1.3-4.7,1.6-7.3c0.1-1.2,0.2-2.5,0.4-3.7c0.5-2.8,1-5.6,1.6-8.2c6-26.9,15.8-44.2,29.9-52.9
				c2.2-1.4,4.4-2.8,6.4-4.1c7-4.5,13.5-8.8,21.8-11.8c11.6-4.3,21.4-6.8,29.8-7.6c6.6-0.7,13.8-0.1,22.1,1.8c3.5,0.8,7.1,1.7,11,3
				c12.8,4.1,23.3,10.7,34.6,17.6l1.8,1.1c14.1,8.8,23.9,26,29.9,52.9c0.6,2.6,1.1,5.4,1.6,8.2c0.2,1.2,0.3,2.4,0.4,3.7
				c0.2,2.6,0.5,5.2,1.6,7.3c2,4,6.2,6.9,8.6,8.3c3.8,2.2,8.3,3.8,14.4,5c0.5,0.1,0.8,0.4,0.9,0.9c0.1,0.4-0.1,0.9-0.4,1.2
				c-2.4,2-5.1,3.5-8,4.4c1,0.2,2,0.1,3.1-0.1c0.4-0.1,0.9,0.1,1.1,0.4c0.3,0.3,0.4,0.8,0.2,1.2c-1.2,3.4-3.4,6.4-6.2,8.7
				c0.3,0.1,0.5,0.2,0.7,0.5c0.3,0.4,0.3,1,0,1.4c-10.2,14.3-26.8,23.6-43.4,24.3c-1.4,0.1-2.6,0.3-4,0.5c-1.4,0.2-2.9,0.5-4.6,0.6
				C298,254.4,297.1,254.4,296,254.4z M237,225.8L237,225.8c0.7,0.1,1.2,0.6,1.2,1.3l-0.1,1c-0.2,3.1-0.4,6.8,1,9.1
				c1,1.5,2.6,2.6,4.1,3.7l0.3,0.2c1.3,0.8,2.9,1.5,4.5,2c0.7,0.2,1.3,0.5,1.9,0.7c2.5,1,5.2,1.9,8.3,2.8c5.2,1.4,10.7,2.4,16,3.4
				l1.4,0.2c7.9,1.4,15.7,2,23.3,1.9c1.4-0.1,2.8-0.3,4.2-0.5c1.4-0.2,2.8-0.5,4.3-0.6c14.8-0.7,29.8-8.5,39.6-20.8
				c-0.8,0.1-1.6,0.1-2.3-0.1c-0.5-0.1-1-0.5-1.1-1c-0.1-0.5,0.2-1.1,0.7-1.3c3.8-1.6,7.1-4.6,8.9-8.3c-2.2,0-4.3-0.7-6.1-1.9
				c-0.4-0.3-0.6-0.8-0.5-1.3c0.1-0.5,0.5-0.8,1-0.9c3-0.4,5.9-1.5,8.5-3.1c-5-1.2-9.1-2.8-12.5-4.7c-2.6-1.5-7.3-4.7-9.5-9.2
				c-1.3-2.5-1.6-5.4-1.8-8.2c-0.1-1.2-0.2-2.3-0.4-3.5c-0.5-2.8-1-5.5-1.6-8.1c-5.8-26.2-15.2-43-28.8-51.4l-1.8-1.1
				c-11.1-6.9-21.5-13.4-34-17.3c-3.9-1.3-7.4-2.2-10.8-3c-8-1.8-15-2.3-21.3-1.7c-8.2,0.8-17.8,3.2-29.2,7.5
				c-8,2.9-14.5,7.1-21.4,11.6c-2.1,1.3-4.3,2.8-6.5,4.1c-13.6,8.4-22.9,25.2-28.8,51.4c-0.6,2.6-1.1,5.3-1.6,8.1
				c-0.2,1.1-0.3,2.2-0.4,3.5c-0.2,2.8-0.5,5.6-1.8,8.2c-2.3,4.5-7,7.7-9.5,9.2c-3.4,2-7.5,3.5-12.5,4.7c2.6,1.6,5.5,2.8,8.5,3.1
				c0.5,0.1,0.9,0.4,1,0.9c0.1,0.5-0.1,1-0.5,1.3c-1.7,1.3-3.9,1.9-6.1,1.9c1.9,3.7,5.1,6.8,8.9,8.3c0.5,0.2,0.8,0.7,0.7,1.3
				c-0.1,0.5-0.5,1-1.1,1c-0.8,0.1-1.6,0.1-2.3,0.1c9.9,12.2,24.8,20.2,39.6,20.8c1.5,0.1,2.9,0.3,4.3,0.6c1.4,0.2,2.8,0.5,4.2,0.5
				c7.6,0.2,15.4-0.4,23.3-1.9l1.4-0.2c5.3-1,10.7-1.9,16-3.4c3.1-0.8,5.8-1.7,8.3-2.8c0.6-0.2,1.3-0.5,1.9-0.7
				c1.6-0.6,3.2-1.2,4.5-2c0.4-0.2,0.7-0.5,1-0.7c0.7-0.4,1.1-0.7,1.7-1.2c-0.2-0.2-0.3-0.4-0.5-0.7c-1.9-2.9-1.6-7.1-1.4-10.6
				l0.1-0.9C235.8,226.3,236.3,225.8,237,225.8z"/>
		</g>
		<g>
			<path d="M189.8,276.6c-1.9,0-3.9-0.2-5.8-0.4c-0.6-0.1-1.2-0.1-1.8-0.2c-3.4-0.3-6.4-1.1-9.6-2l-0.5-0.1
				c-0.8-0.2-1.6-0.4-2.4-0.5c-0.8-0.2-1.7-0.4-2.6-0.6c-3.4-0.9-5.5-2.5-7-5.3c-1.3-2.4-2.2-5.2-2.3-7.9c-0.1-0.6-0.1-1.1-0.2-1.6
				c-0.2-0.7-0.4-1.6-0.4-2.6c0-1.1,0-2.3,0-3.4v-1.7c0-0.7,0.5-1.2,1.2-1.2c0.7,0,1.2,0.5,1.2,1.2v1.7c0,1.1,0,2.3,0,3.4
				c0,0.8,0.1,1.4,0.3,2.1c0.1,0.6,0.2,1.2,0.3,2c0.2,2.4,0.9,4.9,2,6.9c1.2,2.2,2.8,3.4,5.5,4.1c0.8,0.2,1.6,0.4,2.4,0.5
				c0.8,0.2,1.7,0.4,2.5,0.6l0.5,0.1c3.1,0.8,6.1,1.6,9.2,1.9c0.6,0.1,1.2,0.1,1.8,0.2c1.9,0.2,4,0.4,5.8,0.4c1,0,2.1,0,3.1,0h1.1
				h49.6c0.7,0,1.2,0.5,1.2,1.2s-0.5,1.2-1.2,1.2h-50.7c-1,0-2.1,0-3.1,0C190,276.6,189.9,276.6,189.8,276.6z"/>
		</g>
		<g>
			<path d="M158.4,146.3c-0.1,0-0.1,0-0.2,0c-0.7-0.1-1.1-0.7-1-1.3l8.3-66.9c0.1-0.7,0.7-1.1,1.3-1c0.7,0.1,1.1,0.7,1,1.3
				l-8.3,66.9C159.6,145.9,159,146.3,158.4,146.3z"/>
		</g>
		<g>
			<path d="M310.5,133.8c-0.1,0-0.1,0-0.1,0c-0.7-0.1-1.1-0.7-1.1-1.3l2.3-23c0-0.2,0.1-0.4,0.2-0.5c0.7-1.1,1.3-2.3,2-3.4
				c3.1-5.3,6.2-10.8,9.7-16l-47.8,21.4c-0.6,0.3-1.3,0-1.6-0.6c-0.3-0.6,0-1.3,0.6-1.6l51.1-22.9c0.4-0.2,0.9-0.1,1.3,0.2
				c0.4,0.3,0.5,0.8,0.4,1.3c-0.4,1.2-1.1,2.2-1.7,3.2c-3.5,5.2-6.8,10.8-9.9,16.2c-0.6,1.1-1.2,2.1-1.9,3.2l-2.3,22.7
				C311.6,133.4,311.1,133.8,310.5,133.8z"/>
		</g>
		<g>
			<path d="M326.9,162.5c-0.7,0-1.2-0.5-1.2-1.2L325,87.1c0-0.7,0.5-1.2,1.2-1.2l0,0c0.7,0,1.2,0.5,1.2,1.2l0.7,74.2
				C328.1,161.9,327.7,162.5,326.9,162.5L326.9,162.5z"/>
		</g>
		<g>
			<path d="M281,114.4c-0.6,0-1.1-0.5-1.2-1.1c-0.1-0.7,0.4-1.3,1.1-1.3l31.9-3.5c0.7-0.1,1.3,0.4,1.3,1.1c0.1,0.7-0.4,1.3-1.1,1.3
				l-31.9,3.5C281.1,114.4,281,114.4,281,114.4z"/>
		</g>
		<g>
			<path d="M182.4,123.1c-0.6,0-1.1-0.5-1.2-1.1l-2.2-21c-0.6-1.1-1.2-2.1-1.9-3.2c-3.1-5.4-6.4-11-9.9-16.2c-0.6-0.9-1.3-2-1.7-3.2
				c-0.1-0.5,0-1,0.4-1.3c0.4-0.3,0.9-0.4,1.4-0.1l48,28.6c0.5,0.4,0.8,1.1,0.4,1.6c-0.4,0.5-1.1,0.8-1.6,0.4l-44-26.2
				c3.2,4.9,6.2,10.1,9.2,15.1c0.7,1.1,1.3,2.3,2,3.4c0.1,0.1,0.1,0.3,0.2,0.5l2.2,21.2c0.1,0.7-0.4,1.3-1.1,1.3
				C182.5,123.1,182.4,123.1,182.4,123.1z"/>
		</g>
		<g>
			<path d="M214.8,108c-0.1,0-0.1,0-0.2,0l-34.6-6.1c-0.7-0.1-1.1-0.7-1-1.4c0.1-0.7,0.7-1.1,1.4-1l34.6,6.1c0.7,0.1,1.1,0.7,1,1.4
				C215.9,107.5,215.3,108,214.8,108z"/>
		</g>
		<g>
			<path d="M241.1,92.7L241.1,92.7c-0.7,0-1.2-0.6-1.2-1.3l1.1-30.5c0-0.7,0.6-1.2,1.3-1.1c0.7,0,1.2,0.6,1.1,1.3l-1.1,30.5
				C242.3,92.1,241.7,92.7,241.1,92.7z"/>
		</g>
		<g>
			<path d="M166.8,235.2c-7.4,0-13.4-6-13.4-13.4c0-7.4,6-13.4,13.4-13.4s13.4,6,13.4,13.4C180.1,229.2,174.1,235.2,166.8,235.2z
				 M166.8,210.9c-6.1,0-11,4.9-11,11c0,6.1,4.9,11,11,11c6.1,0,11-4.9,11-11C177.7,215.8,172.8,210.9,166.8,210.9z"/>
		</g>
		<g>
			<path d="M166.8,230.5c-4.8,0-8.6-3.9-8.6-8.6c0-4.8,3.9-8.6,8.6-8.6c4.7,0,8.6,3.9,8.6,8.6C175.5,226.6,171.6,230.5,166.8,230.5z
				 M166.8,213.4c-4.7,0-8.5,3.8-8.5,8.5c0,4.7,3.8,8.5,8.5,8.5c4.7,0,8.5-3.8,8.5-8.5C175.3,217.2,171.5,213.4,166.8,213.4z"/>
		</g>
		<g>
			<path d="M308.6,235.2c-7.4,0-13.4-6-13.4-13.4c0-7.4,6-13.4,13.4-13.4c7.4,0,13.4,6,13.4,13.4C322,229.2,316,235.2,308.6,235.2z
				 M308.6,210.9c-6.1,0-11,4.9-11,11c0,6.1,4.9,11,11,11c6.1,0,11-4.9,11-11S314.7,210.9,308.6,210.9z"/>
		</g>
		<g>
			<path d="M308.6,230.5c-4.8,0-8.6-3.9-8.6-8.6c0-4.8,3.9-8.6,8.6-8.6s8.6,3.9,8.6,8.6C317.3,226.6,313.4,230.5,308.6,230.5z
				 M308.6,213.4c-4.7,0-8.5,3.8-8.5,8.5c0,4.7,3.8,8.5,8.5,8.5c4.7,0,8.5-3.8,8.5-8.5C317.2,217.2,313.3,213.4,308.6,213.4z"/>
		</g>
		<g>
			<path d="M236.5,227.2c-1.2,0-2.3-0.4-3.2-1.1c-0.8-0.6-1.3-1.6-1.5-2.9c-0.1-0.5-0.2-1,0-1.6c0.2-0.8,0.9-1.5,1.7-1.9
				c0.7-0.2,1.3-0.3,1.9-0.4l3.7-0.3c0.5-0.1,1.6-0.1,2.3,0.7c0.3,0.3,0.5,0.8,0.6,1.3c0.4,2.2-0.7,4.4-2.7,5.5
				C238.4,226.9,237.4,227.2,236.5,227.2z M239.5,221.3c-0.1,0-0.2,0-0.3,0l-3.7,0.3c-0.4,0.1-0.8,0.1-1.2,0.2
				c-0.2,0.1-0.4,0.2-0.4,0.3s0,0.2,0.1,0.5c0.1,0.7,0.4,1.3,0.7,1.5c1.1,0.9,2.5,0.7,3.3,0.2C238.9,223.9,239.8,222.8,239.5,221.3
				C239.6,221.3,239.6,221.3,239.5,221.3z"/>
		</g>
		<g>
			<path d="M214.5,276.6c-0.4,0-0.7-0.2-1-0.5c-2.1-2.9-3.2-6.4-4.3-9.6l-0.1-0.3c-0.5-1.6-1-3.2-1.4-4.9c-0.8-3.9-0.5-7.3-0.2-11
				c0.1-0.7,0.7-1.1,1.3-1.1s1.1,0.7,1.1,1.3c-0.3,3.7-0.5,6.8,0.2,10.4c0.3,1.6,0.8,3.1,1.3,4.6l0.1,0.3c1.1,3.2,2,6.3,4,8.9
				c0.4,0.5,0.2,1.3-0.3,1.7C215,276.5,214.7,276.6,214.5,276.6z"/>
		</g>
		<g>
			<path d="M264.2,276.6c-0.2,0-0.5-0.1-0.7-0.2c-0.5-0.4-0.7-1.1-0.3-1.7c1.9-2.6,2.9-5.7,4-8.9l0.1-0.3c0.5-1.5,1-3.1,1.3-4.6
				c0.7-3.6,0.5-6.7,0.2-10.3c-0.1-0.7,0.4-1.3,1.1-1.3c0.7-0.1,1.3,0.4,1.3,1.1c0.4,3.8,0.5,7.1-0.2,11c-0.4,1.7-0.8,3.4-1.4,4.9
				l-0.1,0.3c-1.1,3.2-2.2,6.7-4.3,9.6C264.9,276.4,264.5,276.6,264.2,276.6z"/>
		</g>
		<g>
			<path d="M259.1,106.6c-0.7,0-1.2-0.5-1.2-1.2c0-7-7.7-12.8-16.8-12.8c-9.4,0-16.8,5.2-16.8,11.9c0,0.7-0.5,1.2-1.2,1.2
				c-0.7,0-1.2-0.5-1.2-1.2c0-8,8.5-14.3,19.2-14.3c10.4,0,19.2,7,19.2,15.2C260.3,106.1,259.7,106.6,259.1,106.6z"/>
		</g>
		<g>
			<circle cx="242.2" cy="55.5" r="5.5"/>
		</g>
		<g>
			<path class="st17" d="M238.7,313.3c-5.9,0-10.9-4.2-12-10l0.4-0.1c1,5.6,5.8,9.7,11.5,9.7s10.6-4.1,11.5-9.7l0.4,0.1
				C249.6,309.1,244.6,313.3,238.7,313.3z"/>
		</g>
		<g>
			<path class="st17" d="M250.1,298.6c-1.2-5.3-6-9.2-11.5-9.2s-10.3,3.8-11.5,9.2l-0.4-0.1c1.2-5.5,6.2-9.5,11.9-9.5
				c5.7,0,10.7,4,11.9,9.5L250.1,298.6z"/>
		</g>
		<g>
			<path class="st17" d="M238.7,309.7c-3.8,0-7.2-2.5-8.2-6.2c-1,0-6.6,0-6.6,0h-0.2v-5.2h7c1.2-3.4,4.4-5.8,8.1-5.8
				s6.9,2.3,8.1,5.8h6.8v5.2h-6.7C245.9,307.2,242.5,309.7,238.7,309.7z M230.8,303.2c1,3.5,4.1,6,7.9,6c3.7,0,6.9-2.5,7.9-6.1
				l0.1-0.2h6.6v-4.3h-6.7l-0.1-0.1c-1.1-3.4-4.2-5.6-7.7-5.6s-6.6,2.3-7.7,5.6l-0.1,0.2H224v4.3h3.1
				C230.6,303.1,230.8,303.1,230.8,303.2z"/>
		</g>
	</g>
</g>
</svg>
