<?xml version="1.0" encoding="utf-8"?>
<!-- Generator: Adobe Illustrator 27.3.1, SVG Export Plug-In . SVG Version: 6.00 Build 0)  -->
<svg version="1.1" id="Layer_1" xmlns:serif="http://www.serif.com/"
	 xmlns="http://www.w3.org/2000/svg" xmlns:xlink="http://www.w3.org/1999/xlink" x="0px" y="0px" viewBox="0 0 1200 1200"
	 style="enable-background:new 0 0 1200 1200;" xml:space="preserve">
<style type="text/css">
	.st0{fill-rule:evenodd;clip-rule:evenodd;fill:#009A49;}
</style>
<path class="st0" d="M1035.7,60.4H159.6c-55.7,0-101.3,45.7-101.3,101.2v878c0,55.8,45.6,101.2,101.3,101.2h876.2
	c55.7,0,101.3-45.7,101.3-101.2v-878C1137,105.8,1091.4,60.4,1035.7,60.4z M729.7,262.4c11.3,96,64.7,153.4,157.6,159.5v108
	c-54,5.2-101.3-12.3-156.3-45.7v202c0,256.8-279.2,337.2-391.5,153C267.3,720.8,311.3,513,543,504.6v114.1
	c-17.5,2.9-36.6,7.5-53.7,13c-51.4,17.5-80.6,50.3-72.5,107.6c15.5,110.6,218.1,143,200.9-72.9V262.1h111.6L729.7,262.4z"/>
</svg>
