<?xml version="1.0" encoding="utf-8"?>
<!-- Generator: Adobe Illustrator 27.3.1, SVG Export Plug-In . SVG Version: 6.00 Build 0)  -->
<svg version="1.1" id="Layer_1" xmlns="http://www.w3.org/2000/svg" xmlns:xlink="http://www.w3.org/1999/xlink" x="0px" y="0px"
	 viewBox="0 0 500 500" style="enable-background:new 0 0 500 500;" xml:space="preserve">
<style type="text/css">
	.st0{fill:#F4E5F0;}
	.st1{fill:#EBF1F4;}
	.st2{fill:#EE708E;}
	.st3{fill:#009A44;}
	.st4{fill:#FF8200;}
	.st5{fill:#A7A9AC;}
	.st6{opacity:0.7;fill:#B1D235;enable-background:new    ;}
	.st7{fill:#FFFFFF;}
	.st8{fill:#433643;}
	.st9{opacity:0.4;fill:#55285B;enable-background:new    ;}
	.st10{opacity:0.3;fill:#FFFFFF;enable-background:new    ;}
	.st11{fill:#010101;}
	.st12{fill:#DFDDCE;}
	.st13{fill:#231F20;}
	.st14{fill:#EDEDEB;}
	.st15{fill:#3AA41E;}
	.st16{fill:#169B62;}
</style>
<g>
	<g>
		<g>
			<path class="st0" d="M243.6,212.6c0,0,0.5-7.8,1.5-12.9c1.2-6.6-5.6-14.2-5.6-14.2l6.4,1.7l6.4,3.7c0,0-2-10.7-4.2-15.6
				c-3.2-6.9-10-12.7-10-12.7s-9.1,2.2-17.1-0.2c-3.9-1.2-11.5-7.8-8.1-10c3.2-2.2,18.3-4.6,21.9-4.2c3.7,0.3,12.6,2,12.6,2
				s6.4-3,12.7-4.6c8.8-2,37.5,3.7,37.5,3.7l2.7-11.9c0,0,10.5,5.6,17.8,5.2c7.3-0.3,14.6-1.5,19.3-0.7c6.9,1.2,15.6,10.8,13.5,16.1
				c-1,2.4-25.4,10.8-31.5,12.9c-0.9,0.3-1.4,1.2-1.2,1.9c0.5,3.2,6.9,9.3,10.2,10.3c6.8,2.2,18.3,0.3,19,1.5c0.7,1.2,0.5,7.1-1.2,8
				c-1.7,0.9-17.6,10.8-40.4,0.9c-1.5-0.7-9.6,7.3-9.6,7.3l3.9,7.5c0,0-7.6,7.1-14.9,9.3c-7.3,2.2-13.4,1.5-13.4,1.5
				s-4.9-5.2-9.8-7.6C254.1,207.9,243.6,212.6,243.6,212.6z"/>
			<path class="st0" d="M324.8,237.4c0,0-1.4-5.9-2.5-9.3c-1.2-3.6-3.2-6.6-3.2-6.6l5.2-6.6c0,0,23.9-7.3,28.6-9.6
				c4.8-2.4,17.3-10.2,17.3-10.2s2,19.3,3.6,21c2.5,2.9,12.9,1.2,12.9,1.2s2.4,0.2,0.9,3s-25.1,11.9-32.9,13.4
				C347,235.8,324.8,237.4,324.8,237.4z"/>
			<path class="st0" d="M233.2,237c0,0,9.8-2.7,16.9,0.5c7.1,3.4,16.9,12.9,16.9,12.9s-25.9,8.1-33.9,14.2
				c-7.8,6.1-23.9,26.8-27.4,27.1c-3.6,0.3-14.2,0.9-18.3-2.9c-4.1-3.6-8.3-9.1-7.1-12.2c1.2-3.2,15.7-20.8,22.9-25.9
				C210.3,245.6,233.2,237,233.2,237z"/>
			<path class="st0" d="M301.2,313.3c0,0-2.4-12.2,0-15.7c2.4-3.6,7.3-11.7,7.3-11.7s15.6-2.7,30.9,1.7
				c15.3,4.4,35.3,28.5,34.8,33.6c-0.5,5.1-5.4,7.6-11.2,10c-5.7,2.2-13.2,4.4-16.3,2.5c-3.2-2-14.9-16.8-20.7-18.5
				C320.2,313.4,301.2,313.3,301.2,313.3z"/>
			<path class="st0" d="M338.2,283.3c0,0,0-1.7,2.2-5.4s0-7.8,0-7.8s18.1-2.2,33.9,6.1c17.1,9,26.8,21.3,27.6,25.4
				c0.9,4.2-10.5,8-12.6,10.8c-2,2.8-8.7,2.9-10.8,1.5c-2-1.4-14.4-10.2-14.4-10.2l-9.3,3.7l-14.2-20.2L338.2,283.3z"/>
			<path class="st0" d="M275.3,121.4l1.5-8.5c0,0,32.4-61.7,36.5-60.5c3.9,1-22.2,58.5-22.2,58.5s-4.8,2.2-8.1,4.8
				C275.3,121.4,275.3,121.4,275.3,121.4z"/>
			<path class="st1" d="M316.2,172c0,0,14.9,2.4,21-0.2c5.9-2.5,9.3-6.9,9.3-6.9v-2.4l-22.2,5.2L316.2,172z"/>
			<path class="st2" d="M316.2,172l10.8,1c0,0,6.1,3.2,7.8,5.2c1.9,1.9,3.4,6.3,3.4,6.3h-6.3l-9.8-4.1l-5.9-6.1L316.2,172L316.2,172
				z"/>
			<path class="st3" d="M218.2,222.2c0,0-22.9-2-27.6-5.7c-4.8-3.9-12.2-9.3-12.2-9.3s8.5-0.2,12.9,0c4.4,0.2,9.5-2.7,9.5-2.7
				s-11.9-4.8-15.9-9c-4.1-4.1-7.8-9.8-7.8-9.8s10.8-0.2,17.1-0.2c5.2,0,12.4-5.4,12.4-5.4l-7.5-5.7c0,0,9.1-0.9,13.7-3.9
				c4.4-2.9,8.5-7.8,8.5-7.8l17.1,0.2c0,0,6.3,4.9,10,12.7c4.4,9.1,4.2,15.6,4.2,15.6s-1.9-2-6.4-3.7c-6.1-2.4-10.5-3.2-10.5-3.2
				s7.8,3.9,9.3,10c1.5,5.9-1,19-1,19l-9.3,3.7L218.2,222.2z"/>
			<path class="st4" d="M180,278.6c0,0,6.9-12.2,8.8-13.4c1.9-1.2,7.6-5.9,7.6-5.9s0.2,7.1,6.6,12.2c7.1,5.6,17.6,5.2,17.6,5.2
				l-15.1,15.1c0,0-14.1-0.3-18.3-2.9C183,286.6,180,278.6,180,278.6z"/>
			<path class="st5" d="M233.2,237c0,0-4.9-10.5-0.7-16.5s11.5-10.3,20.2-10.2c11.7,0.3,18.5,9,18.5,9s15.3-0.7,19.6-3.7
				c3.9-2.5,8.7-7.1,8.7-7.1l-2.5-4.9c0,0,13.5-1.7,18.1-0.9c4.6,0.9,13.4,3.2,13.5,5.1s-8.7,14.1-8.7,14.1s2,5.7,2.9,8.3
				c0.7,2.7,1.9,7.5,1.9,7.5s-5.7,7.1-8.5,8c-2.9,0.9-21.3,2-26.8,1.7c-5.6-0.5-6.9,0-6.9,0l-8.7,5.2l-2.4-1c0,0-16.5-13-23.4-14.1
				C241,236.6,233.2,237,233.2,237z"/>
			<path class="st5" d="M334.3,264.2c0,6.4-6.3,11.7-13.9,11.7s-16.3-5.7-13.9-11.7c2.7-6.6,6.3-10.8,13.9-10.8
				S334.3,257.8,334.3,264.2z"/>
			<path class="st3" d="M233,148c0,0,5.2-13,6.8-15.6c3.2-5.2,22-10,23.5-18.1c1.5-8.1-4.1-9.6-4.1-9.6s5.2-1.9,14.1,5.2
				c4.8,3.9,1.7,10,1.7,10s4.9-0.5,7.6-4.2c2.9-3.7,19.2-8.5,19.2-8.5s-0.9,3.7-1.7,7.8c-0.9,4.1-0.5,8.8-2.4,10.7
				c-1.9,1.9-8,4.8-8,4.8s9.1-1.4,8.7,7.1c-0.5,8.5-1.5,12.9-1.5,12.9s-22.2-4.2-30.3-5.1c-12-1.4-19.8,6.4-19.8,6.4L233,148z"/>
			<path class="st6" d="M256.6,158.9l20.7,18.8c0,0,39.7-36,42.8-37.9c3.9-2.4,6.1-3.7,6.1-3.7l-17.4-20.4c0,0-0.7-1.9-5.4,0.9
				C297.2,120.1,256.6,158.9,256.6,158.9z"/>
			<polygon class="st5" points="256.6,158.9 260.5,155.2 265.4,158.9 265.4,162.5 272,167.8 275.3,167.8 281.6,173 277.5,177.7 			
				"/>
			<path class="st4" d="M214.9,242.9c0,0-0.7-14.7,3.4-20.7s15.9-5.7,15.9-5.7s-5.6,7.8-5.4,11c0.3,3.2,4.4,9.5,4.4,9.5L214.9,242.9
				z"/>
			<path class="st3" d="M273.9,298c0,0,4.1-6.8,14.2-12.9c10.2-6.1,22.5-10.8,22.5-10.8s9.6,3.2,14.1,1.2c9.3-4.4,9.5-11.2,9.5-11.2
				h3.9c0,0,4.4,8.1,2.2,13.5c-2.2,5.4-4.4,8.7-4.4,8.7s-9.1-2.4-15.7-1.7c-6.6,0.5-9.8,0.9-9.8,0.9s-5.7,4.9-9,11.7
				c-3.6,7.5,0.9,16.6,0.9,16.6l-15.6,2.9c0,0,4.6-7.5-1.2-13.7C279.5,296.8,273.9,298,273.9,298z"/>
			<path class="st4" d="M225.8,272c0,0,14.9,37.5,33.9,50.4c19.8,13.4,49.2,6.3,59.5,1.7c10.3-4.8,9.5-5.7,9.5-5.7s-0.5-1.4-4.8-3.6
				c-7.5-4.1-36.5,2.2-36.5,2.2s3.2-8.5-2-13.7c-6.9-7.1-13.5-4.6-13.5-4.6s3.2-9.5-0.9-14.6c-4.1-5.1-13.5-5.1-13.5-5.1
				s2.9-9.6-0.9-14.6c-4.9-6.6-10.2-5.2-10.2-5.2L225.8,272z"/>
			<path class="st5" d="M339.7,326.6l-9.3-8.8c0,0,2.5-15.1,9.1-19.2c5.6-3.4,13.9-5.1,13.9-5.1l4.9,3.9c0,0,0-6.1,3.2-10.2
				c4.8-5.9,14.6-9.1,14.6-9.1l10.5,6.8c0,0-12.9,6.1-15.3,8.7c-2.4,2.5-5.7,10.3-5.7,10.3s-11.7-3.6-18.1,4.4
				C340,317.2,339.7,326.6,339.7,326.6z"/>
			<path class="st3" d="M321.1,241.8c0,0,4.1,2.5,6.9,5.6c2.9,3,4.9,6.1,4.9,6.1l-3.6,1.2c0,0-4.4-3.2-12.6-0.7
				c-8.1,2.5-8.8,5.9-8.8,5.9l-19.2,7.6c0,0,0.3-4.6-3.2-9c-3.6-4.6-7.5-7.1-7.5-7.1l4.6-4.9c0,0,23.4,2.4,28.6,0.3
				C317.2,244.7,321.1,241.8,321.1,241.8z"/>
			<path class="st4" d="M374,227.8c0,0-11.5-3.7-13.7-9.6c-2.2-5.7-1.5-15.9-1.5-15.9l11.4-6.9l2.4,16.8c0,0-0.7,5.4,3,6.3
				c3.7,0.9,12.6-1.2,12.6-1.2l-0.5,3.7L374,227.8z"/>
			<path class="st4" d="M339.7,326.6c0,0-0.3-11.7,7.6-18.3c10.2-8.5,18.1-4.4,18.1-4.4s2.9-9.1,8.8-13c5.7-3.7,12.2-5.9,12.2-5.9
				s16.3,14.9,15.3,16.8c-2.5,5.2-3.4,4.8-8,7.8c-4.6,3-11.2,7.3-15.4,4.6c-4.2-2.7-11-6.6-11-6.6s7.6,9.1,8,13.2
				c0.5,5.6-7.3,8.1-12.6,10.2c-5.2,1.9-10.5,5.1-16.3,2.5C340.9,330.7,339.7,326.6,339.7,326.6z"/>
			<path class="st7" d="M247.1,258.4c0,0,6.8,1,9.3,6.1c4.2,7.8,1.9,14.6,1.9,14.6s5.2,0.5,7.3,1.5c2.2,1,4.4,2.7,4.4,2.7
				s3.2-5.1,8.5-9c6.4-4.8,10.7-6.6,10.7-6.6s0-5.2-3.2-9c-3.2-3.7-7.5-7.1-7.5-7.1l-4.9,1.2l-6.4-2.9c0,0-10.5,3.7-12.4,4.8
				C252.7,255.4,247.1,258.4,247.1,258.4z"/>
			<path class="st5" d="M210.1,246.8c0,0-4.4-11.7-2.4-15.7c2-3.9,10.5-8.8,10.5-8.8s-3.7,6.1-3.6,9.3c0.1,3.2,0.9,11.2,0.9,11.2
				L210.1,246.8z"/>
			<path class="st5" d="M218.2,280.5l7.5-8.3c0,0,16.8,42.1,33.9,50.4s40,8.3,49.7,4.9s20.8-9.6,20.8-9.6s3.7,4.9,3.9,5.4
				c0.2,0.5-15.3,9.8-24.7,12.6c-13,3.9-47.6,2-57.4-6.1C233,313.4,218.2,280.5,218.2,280.5z"/>
			<path class="st5" d="M212.7,357.7c-19.8-18.1-27.1-38.9-22.5-44.3c4.9-5.9,9.3-5.6,12.9-3.9c3.7,1.7,8.1-3.4,8.1-3.4
				s10,19.6,19.8,27.1c9.7,7.5,31.9,15.8,31.9,15.8l-8.8,7.5c0,0,6.3,5.7,1.7,10.5c-4.6,4.8-10.5,6.4-17.1,4.4
				C232.2,369.8,212.7,357.7,212.7,357.7z"/>
			<path class="st8" d="M271.9,298.7c0,0,1.9-5.1,1.2-8.8c-1.2-6.1-2.9-6.6-2.9-6.6s8.3-10,19.2-15.7c10.7-5.6,19.2-7.6,19.2-7.6
				s-2.5,5.7-1.4,8.1c3.7,6.8,3.7,6.1,3.7,6.1s-17.4,5.9-22.5,10.8C276.3,296.2,271.9,298.7,271.9,298.7z"/>
			<path class="st8" d="M334.3,264.2c0,0,2.4-0.5-1.2-5.1c-3.6-4.4-3.6-4.4-3.6-4.4l3.6-1.2c0,0,1.9,4.4,3.7,5.4
				c1.9,1,1.4,5.4,1.4,5.4L334.3,264.2L334.3,264.2z"/>
			<path class="st1" d="M291.5,339.2c0,0-20.2,11.5-28.5,9.8c-12.9-2.7-29.7-10.5-37.1-21.2c-9.3-13.2-14.2-18.5-14.2-25.8
				c0-14.2,6.8-21.9,6.8-21.9s12.4,32.7,31.9,45.5C269.7,338.7,291.5,339.2,291.5,339.2z"/>
			<path class="st7" d="M138,391.8c0,0-21.7,11.2-19.5,17.8c3,9.1,32.7,13.7,32.7,13.7s-8,8.3-1.4,10.5c6.6,2.2,16.3-7.5,16.3-7.5
				s-13,5.1,4.4,11c9.6,3.2,24.4-21,24.4-21l25.4-51.1c0,0,3,2.2-7.6-7.6c-10.8-9.8-13-13.7-13-13.7L138,391.8z"/>
			<path class="st3" d="M113.6,340.2c0,0,2,10,8.5,14.1c6.4,4.1,15.7,7.1,36.1-2.5c19.3-9.3,30.5-21,30.9-22.9l9.1,14.6
				c0,0-63.2,49.7-70.7,45.1c-7.5-4.6-28.3-17.1-28.3-33.4C99.2,338.5,113.6,340.2,113.6,340.2z"/>
			<path class="st3" d="M110.3,375.9c0,0,36.1,1,52.9-10.5s32-24.6,32-24.6l7.6,7.3c0,0-16.8,18.1-26.2,27.8
				c-22.2,22.4-43.3,39.5-49.6,38.5c-3.7-0.7-1.2,1.2-4.8-0.3c-2.9-1.4-3.9-1.5-3.9-4.4c-0.2-11.1,24.7-17.7,24.7-17.7
				s-10.7,2-16.1-1.7C121.8,386.2,110.3,375.9,110.3,375.9z"/>
			<path class="st4" d="M143.5,341.6c0,4.1-3.4,7.5-7.5,7.5s-7.5-3.4-7.5-7.5s3.4-8.3,7.5-8.3S143.5,337.5,143.5,341.6z"/>
			<ellipse class="st3" cx="130.1" cy="312.5" rx="7.1" ry="1.7"/>
			<path class="st7" d="M173.5,438.2c-11.5-1.5-12-9.1-12-9.1s-32,12.6,0.3-13.2c19.6-15.7,50.9-58.2,50.9-58.2l8.5,6.4
				c0,0-13,29.7-14.4,49.7c-0.9,15.1,6.6,26.6,6.6,26.6l-10.2-14.4c0,0,2.5,9.6-2.9,9.6c-8.1,0-5.7-23.4-5.7-23.4
				S181.5,439.3,173.5,438.2z"/>
			<path class="st4" d="M203,434.3c-7.6,3.4-7.6-24.7,3.7-47.2c8.8-16.9,14.4-22.9,14.4-22.9l9.6,4.2c0,0-10.7,21.5-12.6,40.2
				c-1.7,17.4,13.4,23.2,13.4,23.2s19,10,8,14.9c-11,4.9-25.2-4.8-29.5-11c-4.4-6.3-6.9-9.6-6.9-9.6L203,434.3z"/>
			<path class="st4" d="M238.9,371.6c0,0-12.6,18.5-11.5,27.4c1,9.1,3.9,23.5,18.8,27.3c14.9,3.8,12.4,0.7,11.2,3.2
				c-1.2,2.6-11,4.6-16.8,3.6c-5.7-1.2-18.1-2.2-22.2-10.8c-4.2-8.8-3.7-15.1,0-27.6c3.7-12.6,12.6-26.1,12.6-26.1L238.9,371.6z"/>
			<circle class="st4" cx="289.5" cy="406.2" r="5.1"/>
			<ellipse class="st3" cx="266.1" cy="414.1" rx="9.5" ry="5.2"/>
			<path class="st7" d="M255.6,397.4c0,0,6.1-5.7,8.7-4.8c0,0-3.6-8.5-0.3-12.2c0,0-5.2,6.1-10.5,3.4c-1.4-0.7,3.7,2.2,3.2,6.4
				C256.1,394.6,255.6,397.4,255.6,397.4z"/>
			<path class="st7" d="M284.1,373.1c0,0,3-0.9,3.6-2.4c0.3-0.9,0.5-1.9,0.5-1.9l2.4,3.9l1.7,1.7l-2.4,2.5l-0.5,1.7l-2-3.9
				L284.1,373.1z"/>
			<path class="st7" d="M148.5,321.4c0,0,2.9-2.5,2.9-4.8c0-0.9-0.5-5.4-0.5-5.4s3.4,3.2,5.2,3.7s5.7,1,5.7,1s-2,5.1-1.9,6.1
				c0.2,1,0.9,3.6,0.9,3.6s-3.9-4.2-6.3-4.4C152.1,321.1,148.5,321.4,148.5,321.4z"/>
			<path class="st9" d="M260.5,195.7c0,0,2.5,10.2,19.3,15.3c14.2,4.4,21.9-1.9,20-4.8l-3.9-5.6l6.1-7.3c0,0-14.4,9.3-20.5,9.8
				C270.2,204.7,260.5,195.7,260.5,195.7z"/>
			<path class="st9" d="M256.6,157.4l-1.4,2.4l22.7,20.7c0,0,19-18.1,29.5-27.1c6.6-5.6,11.4-10.3,11.4-10.3l-2.4-1.5l-38,34.9
				L256.6,157.4z"/>
			<path class="st9" d="M285.1,217.7c0,0-1.9,3.6,2.4,14.2c5.6,13.9,27,13.9,27,13.9s-15.7,4.2-22.5,2.5s-8.3-1.9-8.3-1.9
				s-0.3-5.4-4.6-13.2s-7.3-14.1-7.3-14.1L285.1,217.7z"/>
			<path class="st9" d="M269.5,250.2c0,0-8-7.3-15.7-10.5c-7.8-3.4-22.9-3.7-22.9-3.7s10.8,1.9,16.3,5.9c-9.6,4.1-27.3,12.4-35.5,19
				c-12.6,10.2-25.1,26.4-25.1,26.4s2,2.7,5.6,3.6c5.6,1.4,9.1,0,9.1,0s14.2-13.2,22.7-21.2c8.7-8,22.5-13.5,32.5-18.6
				c0.9,1.2,2,2.2,2,2.2L269.5,250.2z"/>
			
				<ellipse transform="matrix(0.7855 -0.6189 0.6189 0.7855 -68.8258 237.0452)" class="st10" cx="307.5" cy="217.8" rx="3.6" ry="7.1"/>
			
				<ellipse transform="matrix(0.6178 -0.7864 0.7864 0.6178 -73.205 290.4308)" class="st10" cx="262.1" cy="220.5" rx="4.1" ry="9.5"/>
			<path class="st9" d="M250.2,212.6c0,0-5.7,0.9-4.1,11.4c1.7,10.5,30,26.1,30,26.1l-2.7,2.4c0,0-16.1-12.7-23.4-14.2
				c-7.3-1.5-11.7-2.5-11.7-2.5s-6.1,0.7-5.2-8.5C234.2,214.2,250.2,212.6,250.2,212.6z"/>
			<path class="st9" d="M312,210.6c0,0,4.6,1.7,7.3,2c2.7,0.3,7.1-1,7.1-1l-6.8,10.7L312,210.6z"/>
			<path class="st9" d="M322.3,228.3c0,0,8.3,0.9,24.1-2.7c15.7-3.7,23.5-11.4,23.5-11.4l-2.5-17.2l2.9-1.7c0,0-1.7,18.1,3.6,21
				c5.3,2.9,14.2,0.7,14.2,0.7s-1-0.7-1.2,1.5c-0.2,2.2-19.2,10-33.2,13.5s-31,3.6-31,3.6s1.9,0.9,1-2.4
				C322.8,230,322.3,228.3,322.3,228.3z"/>
			<polygon class="st9" points="330.4,167 329.5,172.1 316.2,173 			"/>
			<path class="st9" d="M316.2,173l11,0.2c0,0,2.7,1,4.4,2.4c1.7,1.4-3.2,0.3-5.2,2.2c-2,2,1.9,5.6,1.9,5.6L316.2,173z"/>
			<path class="st9" d="M338.5,281.5c0,0,12.6,0.5,25.4,10.8c12.9,10.3,14.7,16.5,21,17.3c6.1,0.9,11.9-2,11.9-2s-6.9,7.8-14.1,7.3
				c-6.9-0.5-19-11-19-11s-10.8-11.5-19.3-14.4c-8.5-2.9-7.6-4.2-7.6-4.2L338.5,281.5z"/>
			<path class="st9" d="M355.2,326.6c-5.9-1.4-6.8-20.2-21-27c-14.1-6.8-22-1-37.5-2.2c-15.4-1.2-19.5-12.7-28.6-23.2
				c-5.7-6.6-9-13-10.5-17.1l6.9-3.7c0,0,8.5,2.4,12.7,1.2c4.1-1.2,5.4-4.6,5.4-4.6s21.5,0.9,28-0.5c6.5-1.6,10.6-7.9,10.6-7.9
				s-6.6,4.1-13.5,5.6c-6.9,1.5-23.9-1-23.9-1s-1.4,0.7-7.3,3.7c-5.9,2.9-9.5,0-9.5,0l-10.3,3.6v-0.2l-0.7,0.3l-0.9,0.3v0.2
				l-8.5,4.8c0,0,6.1-1,10.2,5.2c4.2,6.1,0.7,15.7,0.7,15.7s9-4.2,14.1,3.6c2.9,4.4-0.3,14.2-0.3,14.2s9.6-1.2,15.7,6.8
				c4.2,5.6,0.9,12,0.9,12s29.5-3.4,39.5-0.3c10,3,17.4,17.3,23.9,17.6c6.5,0.3,15.7-5.6,15.7-5.6S361.2,328,355.2,326.6z"/>
			<path class="st9" d="M233.7,236.8l-24.8,11.5c0,0-4.1-10.8-1.5-16.1c2.5-5.4,23.1-14.6,23.1-14.6l5.6-0.9c0,0-8,4.9-6.6,10.2
				C230.5,232.2,233.7,236.8,233.7,236.8z"/>
			<path class="st9" d="M253.7,261.7c0,0-14.1,3.9-17.4,8.1c-3.4,4.1-6.4,6.4-3.2,10.7c3.2,4.2,13.4,1.4,13.4,1.4s-7.3,8.1-0.3,16.3
				c6.9,8.3,15.7,6.4,15.7,6.4s-6.3,10,3.4,14.1c9.6,4.1,22-1.7,22-1.7s25.9-5.2,32.7-2.9c6.8,2.4,14.1,9,14.1,9
				s-20.2,15.1-37.1,14.6c-16.9-0.5-45.3-4.4-54.3-17.4c-9-13-21.7-33.2-22-37.1c-0.3-4-2.2-5.7-2.2-5.7l29.5-19.5L253.7,261.7z"/>
			
				<ellipse transform="matrix(0.9406 -0.3394 0.3394 0.9406 -76.5392 101.7004)" class="st10" cx="252.5" cy="269.7" rx="2.5" ry="4.6"/>
			
				<ellipse transform="matrix(0.9406 -0.3394 0.3394 0.9406 -82.0266 107.1875)" class="st10" cx="265.4" cy="288.1" rx="2.5" ry="4.6"/>
			
				<ellipse transform="matrix(0.7396 -0.6731 0.6731 0.7396 -133.2189 268.0566)" class="st10" cx="279.8" cy="306.2" rx="2.5" ry="4.6"/>
			<path class="st9" d="M289.2,339.7c0,0-19.5,0.5-34.9-5.6c-8.8-3.4-15.1-7.8-17.1-9.3c-0.3-0.3-1-0.2-1.2,0.2l-1.9,2.5
				c-0.5,0.7-0.5,1.5,0.2,2.2c1.5,1.7,4.8,5.1,6.6,6.9c2.5,2.5,10.8,7.6,10.8,7.6c0.3,1.5-17.6-2.4-31-24.1
				c-9.5-15.3-1.5-40.2-0.5-39.7c0,0,15.7,31.7,21.2,38C254.3,334.1,289.2,339.7,289.2,339.7z"/>
			<path class="st9" d="M207.3,313.4l3.6-3.9l0.3-4.1c0,0,12.6,22.2,21.9,29.1c9.5,6.9,28,13.9,28,13.9s-12.6,2-33-13
				c-10.8-8.1-10.2-9-10.2-9l-2.5,2.2L207.3,313.4z"/>
			<path class="st9" d="M203,313.9l8.5,14.9c0,0-3.7-1-6.9,2.5c-3.2,3.5-4.2,5.4-4.2,5.4s9.8,14.9,22.7,23.7c10,6.9,28.5,10,28.5,10
				s-24.7,1-36.7-9.5c-23.1-20.2-25.9-41.6-25.9-41.6l2,3.7c0,0-0.7-5.6,3.4-9C199.8,309.7,203,313.9,203,313.9z"/>
			<path class="st10" d="M214.3,331.9c0,0,8.7,15.1,22.2,20.7c7.3,3,15.3,5.2,17.4,7.1c1.7,1.5,1.2,2.5-2.4,2.4
				c-2.9,0-15.4-5.6-20.5-8.8C222.3,347.8,214.3,331.9,214.3,331.9z"/>
			<path class="st10" d="M366.2,311.8c2.9,3.6,5.9,7.3,4.8,8.3c-1.2,1-4.1-2.9-6.9-6.4c-2.9-3.6-6.4-5.6-5.1-6.4
				C360.1,305.9,363.3,308,366.2,311.8z"/>
			<path class="st10" d="M392.6,295c2.9,3.6,6.3,7.3,5.1,8.1c-1.2,1-4.4-2.9-7.3-6.4c-2.9-3.6-6.4-5.6-5.1-6.4
				C386.6,289.2,389.9,291.3,392.6,295z"/>
			<path class="st10" d="M324.8,207.5c-0.2,0.7-4.6,0.5-7.6-0.2c-3-0.7-5.2-2-5.1-2.7c0.1-0.7,2.7-0.5,5.7,0.2
				C320.9,205.7,325,206.9,324.8,207.5z"/>
			<path class="st10" d="M320.7,260c4.8,0,9,2.5,11,6.3c0.2-0.5,0.2-1.2,0.2-1.7c0-4.9-5.1-9-11.2-9c-6.3,0-11.2,4.1-11.2,9
				c0,0.7,0,1.2,0.3,1.9C311.6,262.7,315.8,260,320.7,260z"/>
			<path class="st9" d="M239.2,163l10-1.5l-1.9,4.9c0,0,1.4,0.3,4.1,7.5c2.7,7.1,0.5,18.6,0.5,18.6s-0.3-15.4-4.4-20
				C242.6,167,239.2,163,239.2,163z"/>
			<path class="st9" d="M250.2,152.8c0,0,2.5-2.5,6.4-3.7c4.1-1.2,12.4-2.5,12.4-2.5s-6.4-2.7-12.9,0c-6.4,2.7-9.5,5.1-9.5,5.1
				L250.2,152.8z"/>
			<path class="st9" d="M252.7,193.1c0-0.3-3.2-2.4-4.9-3.2c-1.9-0.9-2-0.7-2-0.7s1.7,3.7,2.4,9c1,7.8,0.2,13-0.3,12l-4.4,0.5
				c0,0,4.1-15.7,0-19.6c-4.1-3.9-4.8-6.6-4.8-6.6s8.5,2.4,10.8,4.1C251.7,190.6,252.7,193.1,252.7,193.1z"/>
			<path class="st9" d="M244.3,208.1c0,0-10,3.7-16.1,2.5c-12.2-2.4-16.9-16.9-16.9-16.9s-2.5,8.3,0.9,14.4c3.6,6.1,6.6,8.3,6.6,8.3
				s-4.1,1.7-13.4,0.9c-12.9-1.2-26.1-11-26.1-11s10.2,11.7,17.4,13.2s22,3.4,22,3.4l24.7-11.7L244.3,208.1z"/>
			<path class="st9" d="M242,166.6c0,0-5.6-0.2-11.2-0.5c-5.6-0.3-11.9-4.4-11.9-4.4l0,0c0,0,7.5,2.2,11.4,1.9c3.9-0.3,6.1,0,6.1,0
				L242,166.6z"/>
			<path class="st9" d="M278.5,113.6c0,0,0.9,0.9,4.6,0.5c3.7-0.3,2.5-0.5,2.5-0.5s-4.9,4.1-6.1,4.6c-1.2,0.5-5.4,1.9-5.4,1.9
				l2.2-4.9L278.5,113.6z"/>
			<g>
				<path class="st11" d="M368.9,193.9c-1.4,1.2-8.5,7.1-19,11.4c-9.3,3.9-20,6.9-23.9,8c0.5-0.7,1-1.4,1.5-1.9
					c1.2-1.5,2.2-2.7,1.9-4.2c-0.3-1-1.2-2-3.2-2.9c-8.8-4.2-24.3-2.9-28.8-2.4l-0.7-1.2c0.7-0.5,1.4-1.2,2-1.7
					c0.7-0.5,1.2-1.2,1.9-1.7c0.3-0.3,0.7-0.5,1-0.7c0.2-0.2,0.3-0.2,0.5-0.3c0.2-0.2,0.2,0,0.3-0.2c1.5-0.3,3-0.2,4.8,0.2
					c3.4,0.5,6.8,1.7,10.3,2.5c0.9,0.2,1.9,0.5,2.7,0.5c1,0.2,1.9,0.2,2.9,0.3c1.9,0,3.7,0,5.6-0.2c3.7-0.3,7.1-1.2,10.5-2.2
					c1.7-0.5,3.2-1.2,4.9-1.9c0.3-0.2,0.9-0.3,1.2-0.5l0.5-0.3l0.5-0.3c0,0,0.2-0.2,0.3-0.3c0.2-0.2,0.3-0.3,0.3-0.3
					c0.2-0.2,0.3-0.5,0.5-0.7c0.3-0.5,0.5-0.9,0.5-1.4c0.5-1.7,0.9-3.6,0.3-5.4c-0.3-0.9-0.7-2-1.7-2.5c-0.3-0.2-0.5-0.3-0.9-0.3
					s-0.5-0.2-0.7-0.2c-0.5,0-0.9,0-1.4,0c-1.7,0-2.9,0.3-4.4,0.5c-0.3,0-0.5,0-0.9,0.2c0-0.9-0.5-2.2-2-4.4
					c-1.7-2.4-4.9-4.4-7.3-5.7c1.4-0.2,2.5-0.3,4.1-0.7c10-1.9,14.6-6.9,14.7-7.3l0.3-0.5l-1.2-2.4c1-0.5,2-0.9,3.2-1.7
					c0.3-0.3,0.9-0.5,1.2-0.9c0.3-0.3,0.9-0.9,1-1.7c0.2-1.4,0-2.2-0.3-3.2c-0.5-1.9-1.4-3.6-2.2-5.1c-0.9-1.5-2-3.2-3.4-4.6
					c-0.3-0.3-0.9-0.7-1.2-1l-1-0.9c-0.7-0.5-1.4-1.2-2.2-1.7c-0.7-0.5-1.5-1.2-2.4-1.5c-0.9-0.5-1.9-0.9-2.9-0.9
					c-1.2-0.2-2,0-2.9,0c-0.9,0.2-1.9,0.2-2.7,0.3c-3.6,0.5-6.9,1.2-10.2,1.4c-0.5,0-1,0-1.5,0.2c1.9-1.4,3.4-2.4,4.9-3
					c0.9-0.5,1.5-1.2,1.7-2.2c0.2-1,0-2-0.7-2.7l-15.6-18.2c-0.5-0.7-1.5-1-2.4-1c-2,0.2-4.4,1.5-6.8,3c1-4.8,2.5-10.3,2.5-10.5
					l0.3-1.5l-1.5,0.3c-0.3,0.2-5.2,1.5-10.2,3.6c7.1-15.7,24.4-55,22.7-58.5c-0.2-0.3-0.3-0.5-0.7-0.7c-1.2-0.3-2.7-0.9-20.8,32.2
					c-6.9,12.7-13.7,25.8-16.3,30.7c-0.5-1.9-1.5-3.7-3.7-4.9c-6.4-3.7-13.5-4.9-13.9-4.9l-2.9-0.3l2.2,1.9c0,0,5.4,4.9,4.1,9.6
					c-1,3.7-7.6,7.3-13.2,10.3c-1.7,0.9-3.4,1.9-4.9,2.7c-6.1,3.6-10.8,16.1-12.2,19.6c-14.9,1.7-20.5,3-21.3,5.2
					c-0.5,1.2-0.2,2.9,0.9,4.6c1.4,2.2,3.7,4.6,6.8,5.9c-1.2,1.2-4.1,4.6-7.1,6.9c-3.7,2.9-12.6,4.4-12.6,4.4l-2.2,0.3l7.6,5.2
					c-0.9,1-2.9,3.2-8,3.9c-7.1,1-19.3,0-19.5,0l-1.5-0.2l0.7,1.5c0,0.2,2.4,4.4,8.8,10.3c4.6,4.2,10.3,7.8,13.2,9.5l-4.9,1.4
					c-1.4,0.3-2.5,0.5-3.9,0.3l-11.4-0.9l0.7,1.4c0.2,0.3,3.9,7.8,16.3,11.7c7.6,2.4,15.9,3.2,20.5,3.4c-4.1,2.4-7.3,5.2-8.5,8.7
					c-1.7,4.9,0.5,13.7,1.2,16.3c-1.7,1.2-3.4,2.4-4.9,3.6c-11.7,9.5-24.1,23.9-24.1,28c0,3.7,5.1,9.3,8.7,11.5
					c2.9,1.9,9.6,2.9,14.2,2.9c1.5,0,2.7-0.2,3.6-0.3c1.4-0.3,3.6-2.4,7.5-6.1c-1,4.6-2.5,11.7-2.5,15.3c0,0.3,0,0.9,0,1.2l-5.6,6.3
					c-1.7-1.7-3.7-2.9-6.4-2.9c-5.9-0.2-11.5,6.6-11.7,12.2c0,1.7,0.5,5.4,2.2,10.2c-4.1,3.2-21.2,16.8-38.9,23.7
					c-11,4.2-19.8,4.6-25.9,0.9c-7.3-4.4-8.5-13.2-8.5-13.4l-0.2-1.4l-1.4,0.2c-0.5,0-12.6,1.7-16.3,10.2
					c-2.4,5.4-0.7,12.2,4.9,20.2c11.9,16.6,23.4,22.2,29.8,24.3c-5.2,2-12.9,6.1-15.3,13c-0.5,1.5-0.3,3,0.5,4.6
					c4.2,7.1,24.4,11.7,31.5,13c-1.5,2-3.4,5.2-2.9,7.6c0.2,1,0.7,1.9,1.5,2.4c2.9,1.7,9-0.9,13.2-3c-0.2,0.9-0.2,2,0.3,3
					c1,2.5,3.7,4.2,8.5,5.1c9.5,1.7,18.1-10.3,22.2-17.4c0.2,5.4,1.2,13,5.4,14.9c2,0.9,3.6,0.5,4.6-0.2c1.5-0.9,2.4-2.7,2.7-4.4
					c4.4,5.7,15.3,18.3,27.4,18.3c1.7,0,3.6-0.3,5.2-0.9c4.8-1.5,7.3-3.6,7.6-6.4c0.3-3.2-2.9-6.4-5.9-8.8
					c5.9,0.5,14.4,0.5,18.1-2.9c0.3-0.3,1.5-1.5,1-2.7c-0.5-1.5-2.2-1.7-5.2-2c-5.9-0.9-15.9-2.4-21.3-12.7
					c-7.5-14.2,3.7-35.6,6.9-41.4c1.7,0.3,3.4,0.5,4.9,0.5c0.9,0,1.5,0,2-0.2c5.2-0.7,10-3.7,12-7.5c1.2-2.2,1.2-4.4,0.3-6.4
					c-0.5-1.2-1.2-2-2-2.7l6.9-6.3c2,0.3,3.4,0.3,4.1,0.5c0.2,0,0.2,0,0.3,0c4.1,0,12-3.6,19-6.6c4.1-1.7,9-4.1,10.2-4.1l0,0
					c0.3,0,0.7-0.2,1-0.3c9.6-0.9,19-3.4,27.1-7.8c5.7-3,8.5-5.9,9.8-7.8c1.7,1.7,3.4,3.6,4.9,5.1c3.2,3.6,5.7,6.1,7.8,6.8
					c0.9,0.3,1.7,0.3,2.7,0.3c3.7,0,8.1-1.9,12-3.6c0.9-0.3,1.5-0.7,2.2-0.9c4.6-1.9,12.4-6.1,12.6-10.5c0-1.5-2.2-5.6-5.7-10.5
					c3.6,2.7,6.6,5.1,7.6,5.6c0.5,0.3,1.2,0.3,2,0.3c3.7,0,9.6-2.4,14.4-5.6l0.7-0.5c5.2-3.7,7.6-5.4,7.6-8.8
					c0.2-4.1-24.4-29.7-46.5-33.6c-6.4-1.2-13-0.5-15.9-0.2c-0.5-2.4-1.2-4.9-2.4-7.8c-3.6-9.1-12-16.3-15.4-18.6
					c0.5-0.7,0.9-1.4,1.2-2l0.9-0.2c0.7,0,2-0.2,3.2-0.2c4.8-0.2,12.7-0.5,23.4-2.7c14.6-3,23.9-7.5,29.5-10c1.2-0.5,2.2-1,2.9-1.4
					c3.9-1.7,4.9-4.8,5.2-6.4 M378.6,283.5c-0.3,0.3-0.9,0.3-1.2-0.2c-0.2-0.2-0.2-0.3-0.2-0.5s0.2-0.3,0.3-0.5
					c0.3-0.3,0.9-0.3,1.2,0.2C378.9,282.7,378.8,283.2,378.6,283.5z M378.6,280.3c-0.7-0.2-1.5,0-2.2,0.5l0,0
					c-0.5,0.5-0.9,1-0.9,1.7c0,0.7,0.2,1.4,0.5,1.9c0.5,0.5,1.2,0.9,2,0.9c0.5,0,1.2-0.2,1.7-0.5c1-0.9,1.2-2.4,0.5-3.4
					c1.7,1.2,3.2,2.4,4.8,3.7c-2.5,0.3-6.3,1.5-10.2,4.4c-4.1,2.9-8.8,7.5-9.3,13c-1.4-1.2-2.7-2.2-3.7-3.2
					c-0.5-0.5-1.2-1.2-1.7-1.7v-0.2c-0.3-2.9,0.3-8.7,7.6-14.1c4.4-3.4,7.8-4.1,9.5-4.2C377.4,279.6,377.9,280,378.6,280.3z
					 M341.4,270.3c2.7-0.3,9-0.9,15.1,0.2c6.1,1.2,12.4,3.9,18.1,7.3c-2,0.5-4.9,1.7-8.1,4.2c-6.8,5.1-8.1,10.3-8.3,13.9
					c-3.7-3.4-7.5-6.3-11-8.1c-2.4-1.2-4.9-2-7.6-2.7C340.6,282.9,342.4,278.1,341.4,270.3z M329.7,316.4c-1.5-1-3-1.9-4.6-2.4
					c-5.2-2-14.2-1.7-22.2-1c-0.9-1.9-3-7.3-2-12c2-10.8,9.5-14.6,11.4-15.4c10.3-0.3,24.6,0.3,33.2,4.8c1.7,0.9,3.4,1.9,5.1,3.2
					c-3,0-7.6,0.9-11.9,4.6C330.7,305.5,329.7,312.7,329.7,316.4z M262.7,302.4c-1.7,0.9-3.2,1.9-4.8,3.2c-0.7,0.7-1.5,1.4-2,2
					c-0.5,0.9-1.2,1.5-1.7,2.4c-0.9,1.5-1.5,3.2-1.5,4.9c-6.1-5.9-11.4-14.2-15.4-22.2c0.5-1.2,1.4-2,2-3c1.2-1.5,2.5-2.9,4.1-4.2
					c1.5-1.2,3.2-2.2,5.1-2.9c1.9-0.9,3.7-1.4,5.7-1.7c-2-0.3-4.2,0-6.3,0.5c-0.5,0.2-1,0.3-1.5,0.5c-0.5,0.2-1,0.3-1.5,0.7
					c-1,0.5-1.9,1-2.7,1.7c-1.7,1.2-3.2,2.9-4.4,4.8c-0.5,0.9-1,1.9-1.4,2.9c-4.6-9-7.6-17.1-8.7-19.6c1.7-1.5,3.2-2.9,4.8-3.7
					c3.2-2.2,9.1-5.6,15.4-8.7c2,0.3,5.2,1.4,7.6,5.4c3.4,6.3,1.7,14.1,1.7,14.1l-0.3,1.2h1.2c0,0,9.3-0.3,12.2,4.9
					c3,5.2,0.3,13,0.3,13l-0.7,2l1.9-0.9c0.2,0,4.9-2.2,11.5,3.4c1.4,1.7,4.4,6.4,3.7,9.3c-0.9,4.1-1,5.1-1,5.1l-0.3,1.7l1.5-0.7
					c0.3-0.2,0.9-0.3,1.4-0.5c0.2,0,0.3,0,0.5,0c0.3,0,25.2-4.4,34.8-0.9c1,0.3,1.9,0.9,2.9,1.4c-6.4,4.9-37.3,20.4-68.3,2
					c-2-1.2-4.1-2.9-6.1-4.8c0.7-1.5,1.5-3,2.5-4.4c1.2-1.5,2.4-2.7,3.7-3.9c0.7-0.5,1.4-1.2,2.2-1.7c0.7-0.5,1.5-1.2,2.2-1.7
					c1.5-1,3-2,4.8-2.9C266.3,300.7,264.4,301.6,262.7,302.4z M230.9,235.1c-2.5,1-7.8,3.4-13.5,6.4c-0.3-3-1-8.5-0.3-11.4
					c0.9-4.1,5.7-8.5,5.7-8.7l0,0c2.9-1.2,6.1-2.4,10-3.6c-0.3,0.5-0.9,1-1.2,1.5C227,226.4,229.3,232.4,230.9,235.1z M233.8,220.8
					c2.7-4.2,8.3-7.6,14.2-9c6.1-1.2,12-0.2,16.8,2.9c11,7.3,17.1,27.1,16.6,30.7c-0.3,2.4-5.4,4.8-8.1,5.6c-1-0.3-3-1.7-5.2-3
					l-0.2-0.2c-0.5-0.3-0.9-0.5-1.4-0.9c-4.2-2.9-9.6-6.6-14.9-9c-7.1-3.2-13.7-3.7-16.8-3.7c-0.5,0-0.9,0-1.2,0
					C232.4,232.7,229.3,227.4,233.8,220.8z M273.8,220c3.2,0.2,8.8-0.2,14.4-2.4c5.1-2,8.5-4.9,10.8-7.3c1.4-1.2,2.7-2.5,3.4-2.4
					c2.2,0.2,8.5,4.2,12.6,9.6c4.2,5.6,7.8,15.1,7.8,18.1s-3.7,7.5-9.8,9.5c-5.9,2-24.9,0.3-28.8,0
					C284.1,240.7,280.4,228.8,273.8,220z M306,268.5c0.5,2,1.7,3.9,3.6,5.2c-2.7,1.2-9.6,4.2-18.3,8.8
					c-11.4,5.9-16.9,14.1-17.1,14.4c0,0,0,0,0,0.2c-0.3,0-0.5,0-0.9,0.2c0.7-2.7,1.7-8.7-1-13c-0.3-0.3-0.5-0.9-0.9-1.2
					c1.4-1.5,7.5-8.5,17.1-13.5c8-4.2,14.9-6.6,18.1-7.8C305.7,263.7,305.3,266.1,306,268.5z M317.7,254.9c1.5-0.3,2.9-0.5,4.2-0.5
					c5.2,0,9.8,2.7,11,6.9c0.7,2.5,0,5.2-1.9,7.8c-1.9,2.5-4.9,4.4-8.3,5.2c-6.9,1.9-13.7-1-15.3-6.4
					C306.1,262.5,310.8,256.8,317.7,254.9z M287.5,267.8c-10,5.2-16.1,12-17.6,13.9c-2.4-1.9-5.6-2.7-8-3c0.5-2.2,2.9-8.7,10.5-14.2
					c5.7-4.1,11.7-6.3,11.9-6.3c3.4,5.1,3.9,8.3,3.9,9.3C288,267.6,287.8,267.6,287.5,267.8z M271.5,263.1
					c-8.5,6.1-10.8,13.2-11.4,15.4c-0.3,0-0.5,0-0.9,0c0.3-2.4,0.9-8.5-2-13.9c0,0,0,0,0-0.2c0,0,0.9-3.7,5.6-7.3
					c3.6-2.9,6.4-4.1,7.5-4.4c1.2,0.7,2,1,2.7,1.2h0.3h0.3c0.3-0.2,2-0.7,4.1-1.5c1.2,0.7,3.7,2.2,5.6,4.6
					C281.7,257.3,276.6,259.5,271.5,263.1z M267.1,250.5c0.5,0.3,1,0.7,1.5,0.9c-1.5,0.7-3.9,1.9-6.8,4.1c-3.4,2.7-4.9,5.4-5.6,6.9
					c-1.7-2.4-3.7-3.6-5.6-4.1C258,254.7,264.9,251.5,267.1,250.5z M336.5,284.5c-14.2-2.9-28.5-1.7-32.9-1.2l-2.4,0.3
					c-0.5,0-0.9,0.2-1.4,0.3c-0.5,0.3-1.5,0.5-1.9,1c-0.7,0.5-2,2.4-2,2.4s0.7-0.3,1.7-0.5c1.5-0.3,2.9-0.5,3-0.5
					c1.5-0.2,4.2-0.3,7.8-0.5c-3.2,2.2-7.6,6.8-9.3,14.9c-1,4.9,0.9,10.2,2,12.6c-6.4,0.7-11.7,1.5-12.2,1.7c-0.2,0-0.3,0-0.3,0.2
					c0.2-0.7,0.3-1.5,0.5-2.7c0.9-4.4-4.1-10.5-4.2-10.8l-0.2-0.2c-3.6-2.9-6.6-4.1-9-4.2c1.7-2.2,6.9-8.5,15.9-13
					c10.3-5.4,18.1-8.8,19.3-9.1c2.2,1.2,4.8,1.9,7.5,1.9c1.5,0,3-0.2,4.8-0.5c3.7-1,7.1-3,9.1-5.9c1.2-1.5,2-3.2,2.4-5.1l0,0
					c0,0,1-0.7,2.5-0.9C341.2,276.9,337.3,283.2,336.5,284.5z M336.1,260.8c0.2,0.5,0.3,1,0.5,1.5c-0.7,0.2-1.4,0.3-1.9,0.5
					c0-0.7-0.2-1.5-0.3-2.2c-0.7-2.4-2.2-4.4-4.4-5.9c0.7-0.2,1.5-0.3,2.4-0.5C334.2,256.4,335.3,258.4,336.1,260.8z M331.6,252.9
					c-1.5,0.3-2.9,0.7-3.4,0.9c-3-1.4-6.9-1.7-10.8-0.5c-4.1,1-7.3,3.4-9.3,6.3c-1.4,0.3-8.7,2.5-18,7.3c-0.3-1.7-1.2-5.2-4.9-10.5
					c-1.7-2.4-4.1-4.1-5.6-5.1c1.5-0.9,2.9-2,3.7-3.4c1.5,0.2,10.8,1,19,1c4.6,0,9-0.3,11.4-1.2c3.2-1.2,5.7-2.7,7.6-4.4
					C323.3,244.6,327.9,248.1,331.6,252.9z M360.7,202.8c3.9-2.4,6.8-4.6,8.5-5.9l2,17.1c0.3,3,2.9,5.4,6.1,5.4c0.2,0,0.5,0,0.7,0
					l9-1c-0.3,1.2-1.4,2.7-3.6,3.6c-0.9,0.3-1.9,0.9-3,1.5c-1.9,0.9-4.1,1.9-6.8,3c-1.5-0.2-8.8-1.5-12-9.5
					C358.3,208.9,359.5,204.8,360.7,202.8z M351.1,207.7c2.5-1,4.9-2.2,7.1-3.4c-0.9,2.7-0.7,6.9,1.7,13.2c2.5,6.4,7.6,9,10.8,10
					c-4.9,2-11.4,4.1-19.3,5.7c-10.5,2.2-18.3,2.5-23.1,2.7c-1.2,0-2.4,0-3,0.2c0-0.3,0-0.5,0-0.7c0-2.7-2-8.5-4.8-13.7
					c0.3-0.7,1.2-2.2,3.4-5.6c0.5,0,1-0.2,1.2-0.2C325.3,216.2,339.2,212.6,351.1,207.7z M325.6,205.9c1.7,0.9,2,1.4,2.2,1.7
					c0.2,0.5-0.7,1.5-1.5,2.7s-2,2.5-2.9,4.2v0.2c-1.7,2.5-2.9,4.2-3.6,5.4c-0.9-1.5-1.7-2.9-2.7-4.1c-4.4-5.7-11.2-10.3-14.4-10.7
					c-1,0-1.9,0.3-2.9,1.2l-1.4-2.9C303.4,203,317.7,202,325.6,205.9z M335.3,180.3c1.5,2,1.7,3,1.7,3.6c-0.3,0-0.9,0-1.2,0
					c-1.2,0-2.4,0-3.4-0.2c-0.5,0-1-0.3-1.5-0.3c-0.5-0.2-0.9-0.3-1.4-0.5c-1.7-0.7-3.2-1.5-4.4-2.4c-1.2-0.7-2-1.4-2.5-1.9
					c-0.5-0.5-0.9-0.7-0.9-0.7s-0.3-0.3-0.9-0.7s-1.4-1.2-2.2-2.2c-0.3-0.3-0.5-0.5-0.7-0.9c-0.2-0.2-0.2-0.3-0.3-0.5
					c0,0,0-0.2-0.2-0.2c2,0.2,4.1,0.3,5.7,0.3c1,0,2,0,2.9,0C327.9,174.5,333.1,177.4,335.3,180.3z M333.1,170.9
					c-2.2,0.3-4.2,0.7-6.4,0.9c-0.3,0-0.5,0-0.9,0c-2,0.2-4.1,0-6.4,0c1.4-0.9,3-1.5,4.9-2.4c2.4-0.9,4.9-1.7,7.6-2.4
					c1.4-0.3,2.9-0.5,4.4-1c1.5-0.3,3-0.9,4.8-1.2c1.5-0.5,3.2-1,4.8-1.5l0,0l0.7,1.4C345.1,166,340.9,169.6,333.1,170.9z
					 M307.7,116c0.3,0,0.7,0.2,0.9,0.3l15.6,18.1c0.3,0.3,0.3,0.9,0.3,1.2c0,0.5-0.3,0.9-0.7,1c-2,1.2-4.1,2.4-6.9,4.8
					c-0.2,0-0.3,0-0.3,0c-0.9,0-1.5-0.2-2.4-0.3c-0.3,0-0.9-0.2-1.2-0.2l-0.5-0.2c-0.2,0-0.3,0-0.3,0c-2.4-0.5-4.2-1.2-5.1-1.5
					c-2.9-1-4.8-1.5-6.9-1.9c-0.2-2.2-0.5-4.1-1.4-4.9c-1.4-1.5-3-2.4-4.4-2.7c2.4-1.5,5.6-4.1,5.9-7.3c0-0.7,0.2-1.5,0.3-2.5
					C303.4,117.5,306.1,116.2,307.7,116z M271.7,169.3l3.4-0.5l5.2,4.6c-1.2,1-2.2,2-3.2,2.9l-19.5-17.4c0.9-0.9,1.9-1.9,3-2.9
					l3.7,3.6v3L271.7,169.3z M275.6,166.9l-3.4,0.5l-5.9-5.7v-3l-4.4-3.9c2.5-2.4,5.6-5.2,8.8-8.3c11.9,1,26.6,4.9,26.8,5.1l0.9,0.3
					l0.2-0.9c0.3-1.7,1.2-7.5,1.2-12.2c1.7,1.4,3.6,2.4,6.3,3.2c1,0.3,2.9,1,5.2,1.5c0,0,0.2,0,0.3,0l0.5,0.2c0.3,0,0.9,0.2,1.2,0.2
					h0.2c-6.8,5.4-22,19-32.4,28.3L275.6,166.9z M291.4,131.1c0,0,3.6,0.2,5.7,2.5c1.5,1.7,0.9,10.2,0,15.6
					c-3.4-0.9-14.6-3.7-24.6-4.8c9-8.5,19.3-18,25.8-23.1c0,0.3,0,0.5,0,0.9c-0.3,3.9-7.1,6.9-7.1,6.9l-3.6,1.5L291.4,131.1z
					 M277.1,115.6l0.2,0.2c11.7-22.7,31.1-58.4,36-63.4c-0.9,6.4-14.4,37.9-23.5,58c-3.4,1.5-6.4,3.2-7.8,5.1
					c-1.4,1.9-3.7,3-5.4,3.6C277,118,277.1,116.8,277.1,115.6z M245.3,128.9c1.5-0.9,3.2-1.7,4.9-2.7c6.3-3.4,12.9-6.9,14.2-11.4
					c1-3.7-1-7.3-2.7-9.3c2.5,0.5,6.8,1.9,10.7,4.1c5.6,3.2,2.2,10.3,2,10.7l-0.9,1.7l1.9-0.5c0.2,0,5.6-1.5,8.1-4.9
					c1.2-1.5,4.1-3.2,7.3-4.8l0.2,0.2c0,0,0-0.2,0.2-0.3c3.6-1.5,7.6-2.9,10.2-3.7c-0.7,2.4-1.9,7.1-2.5,11
					c-0.2,0.2-0.3,0.2-0.3,0.3c-6.4,5.1-18.3,15.9-28.2,25.1c-2.5-0.2-5.1-0.3-7.3,0c-9.3,0.9-14.2,4.2-15.9,5.7
					c-3.2-1.4-8.5-3.2-12.9-3.4C235.8,142.8,240,131.9,245.3,128.9z M214.2,155.9c-0.9-1.4-1-2.4-1-2.4c0.9-1.2,7.6-2.4,19.6-3.7
					c6.1-0.7,15.7,4.4,15.9,4.4h0.2l0,0c0.3,0.2,0.9,0.5,1.2,0.7c0.3,0.2,1.5,0.9,2.2,1.2c0.2,0,0.3,0,0.3-0.3
					c-0.2-0.5-0.5-1.5-0.9-2c-0.3-0.9-1.5-1.9-1.9-1.9l0,0c0,0-0.5-0.3-1.2-0.5c2-1.5,6.4-4.2,14.2-4.9c1.5-0.2,3.4-0.2,5.4,0
					c-5.4,5.1-10,9.5-12.7,12.2l-0.7,0.7l22,19.8l0.5-0.5c9.6-9.1,30.1-27.4,37.9-33.4c0.3-0.3,0.5-0.5,0.9-0.7c1.7,0,3.2,0,4.9-0.2
					c3.6-0.3,6.9-0.9,10.5-1.5c0.9-0.2,1.7-0.3,2.5-0.3s1.7-0.2,2.4,0c1.5,0.2,2.9,1,4.2,2c0.7,0.5,1.4,1.2,2,1.7l1,0.9
					c0.3,0.3,0.5,0.5,0.9,0.9c1.2,1.2,2,2.5,2.9,4.1c0.9,1.5,1.5,3,2,4.6c0.2,0.7,0.3,1.5,0.3,2c0,0-0.2,0.3-0.3,0.5
					c-0.1,0.2-0.5,0.5-0.9,0.7c-1.4,0.9-2.9,1.5-4.4,2c-1.5,0.5-3,1-4.6,1.5c-1.5,0.5-3,0.9-4.6,1.2c-1.5,0.3-2.9,0.5-4.4,1
					c-2.9,0.7-5.6,1.5-8,2.5c-2.4,1-4.6,1.9-6.4,3.2c-0.5,0.3-0.9,0.7-1.4,1.2c-0.2,0.2-0.5,0.7-0.5,1.2c-0.2,0.5,0,0.9,0.2,1.4
					c0,0.2,0.2,0.3,0.2,0.5c0,0.2,0.2,0.3,0.2,0.3c0.2,0.2,0.3,0.3,0.3,0.5c0.3,0.3,0.5,0.7,0.9,1c1,1.2,1.9,2,2.4,2.5
					c0.5,0.5,0.9,0.9,0.9,0.9s0.3,0.3,0.9,0.9c0.7,0.5,1.5,1.2,2.9,2c1.2,0.9,2.9,1.7,4.8,2.5c0.5,0.2,1,0.3,1.5,0.5
					c0.5,0.2,1.2,0.3,1.7,0.3c1.2,0.3,2.5,0.3,3.7,0.2c1.2-0.2,2.7-0.2,4.1-0.3c1.4-0.1,2.7-0.5,4.1-0.5c0.7,0,1.4,0,1.5,0.2
					c0.3,0.2,0.5,0.5,0.7,1.2c0.3,1.2,0.2,2.5-0.3,3.9c-0.2,0.7-0.5,1.4-0.9,1.5l-0.3,0.3l-0.5,0.3c-0.3,0.2-0.7,0.3-1,0.5
					c-1.5,0.7-3,1.2-4.6,1.7c-3.2,1-6.6,1.7-10,2c-3.6,0.3-6.9,0.3-10.3-0.5c-3.4-0.9-6.8-2-10.5-2.7c-1.9-0.3-3.7-0.5-5.7,0
					c-0.2,0-0.3,0.2-0.5,0.2l-0.3,0.2l-0.2,0.2c-0.2,0.2-0.5,0.3-0.7,0.3c-0.3,0.3-0.9,0.5-1.2,0.9c-0.7,0.5-1.4,1.2-2,1.7
					c-2.5,2.2-4.9,4.4-7.5,6.1c-1.2,0.9-2.5,1.7-3.7,2.2c-0.3,0.2-0.7,0.3-0.9,0.3c-0.3,0.2-0.7,0.2-0.9,0.3c-0.3,0-0.7,0.2-1,0.2
					s-0.5,0-0.9,0c-0.5,0-1,0-1.4,0c-0.5,0-0.9,0-1.2,0s-0.7,0-0.9-0.2c-3.4-0.5-5.4-1.2-8.7-1.5c2.5,1.7,4.4,3.2,8.3,3.7
					c0.3,0,0.5,0,1,0.2c0.3,0,0.9,0,1.4,0s1,0,1.7,0c0.3,0,0.5,0,0.9,0c0.3,0,0.9-0.2,1.2-0.2s0.9-0.2,1.2-0.3
					c0.3-0.2,0.9-0.3,1.2-0.5c1.5-0.7,2.9-1.5,4.2-2.4c1.5-1,2.9-2.2,4.4-3.4l0.9,1.9v0.2l0,0l1.9,3.7c-0.3,0.3-0.7,0.5-1,0.9
					c-2.4,2-5.4,4.9-10,6.8c-7.1,2.7-14.1,2.2-15.7,2c-1.5-1.7-3.4-3.2-5.2-4.6c-5.2-3.6-12-4.8-18.8-3.2c-1.2,0.3-2.2,0.5-3.4,0.9
					c0.5-2.5,1.7-8.5,1.7-14.1c0-4.2-2.5-7.6-4.8-9.8c1.2,0.3,2.5,0.7,3.6,1c2.9,0.9,7.3,4.8,7.3,4.9l1.5,1.4v-2.2
					c0-0.5-0.5-12.4-5.2-19.3c-2.4-3.7-5.2-6.3-7.3-7.8c2.4,0,3.7-0.2,4.1-0.2c0.3,0,0.3,0,0.5-0.2c0.5-0.2,1.5-0.3,2-0.7
					c1-0.5,1.9-1.7,1.9-1.9c0-0.3-1.2,0-1.5,0c-0.9,0-2.9,0.2-2.9,0.2c-0.2,0-13.4,0.5-20.8,0C219.3,161.3,215.9,158.4,214.2,155.9z
					 M195.1,217.1c-8.5-2.7-12.6-7.1-14.2-9.3l8.1,0.5c1.5,0.2,3,0,4.6-0.5l9.1-2.4l-2-1c0,0-8.7-4.6-14.7-10.2
					c-4.1-3.7-6.4-6.8-7.5-8.5c3.7,0.3,12.4,0.7,18.1-0.2c7.6-1,9.6-5.4,9.8-5.6l0.3-0.7l-5.4-3.7c2.9-0.7,8.5-2,11.4-4.4
					c3.7-2.9,7.3-6.9,7.8-7.6c1.2,0.3,2.2,0.5,3.4,0.7c2.5,0.2,5.7,0.2,9,0.2c1.9,0,3.7,0,5.2,0c1.9,1.2,5.6,4.1,8.7,8.8
					c3.2,4.9,4.4,12.7,4.8,16.5c-1.7-1.4-4.2-3.2-6.3-3.9c-3-1-7.5-2-7.6-2l-5.2-1.2l4.6,2.7c0,0,7.1,4.4,7.1,10.8
					c0,6.4-1.7,13.9-1.9,14.7c-1.7,0.7-3.2,1.5-4.8,2.5c-4.6,1.4-13,2.7-18.6-4.1c-4.1-5.1-5.4-10.7-5.7-13.7c2.4,2,6.9,5.6,9.6,6.4
					c4.4,1.4,7.5,1.2,8.8,0.9c0.2,0,1.2-0.5,1.2-0.5l1.5-1.2c0,0-6.4,0.7-11-0.7c-3.4-1-10.7-7.5-10.7-7.5l-1.5-1.4v2
					c0,0.3,0,9.3,6.4,16.9c3.2,3.9,7.3,5.4,11.2,5.7c-3,1-6.8,2.4-10.3,4.1C216.4,220.4,205,220.3,195.1,217.1z M209.3,231.7
					c0.9-2.5,3.4-4.9,7.6-7.5c-1.2,1.5-2,3.6-2.5,5.2c-0.7,3.7,0.2,10.5,0.5,13.4c-1.5,0.9-3,1.7-4.6,2.7
					C209.5,242,208.1,235.2,209.3,231.7z M197.2,259.5c2.4-2.2,4.9-4.6,7.6-6.8c10-8.1,26.6-15.1,28.3-15.7c1.2,0,8.8-0.3,17.3,3.4
					c4.9,2.2,9.8,5.6,14.1,8.5c-6.6,3-26.4,12.4-33.4,17.4c-2.9,2-6.6,5.4-10.3,9.1c-2.2,0.7-9,2-17.6-4.9
					C195.9,264.6,197.2,259.8,197.2,259.5L197.2,259.5z M204.9,290.1c-2.7,0.7-12.6-0.2-15.7-2.2c-3.6-2.2-7.5-7.1-7.5-9.3
					c0-1.5,5.4-9.1,13.7-17.4c0.2,2.4,1.4,6.1,6.4,10.3c5.9,4.8,11.2,5.9,14.9,5.9c0.5,0,1.2,0,1.7,0c-1,1-2,2-3,3
					C211.3,284.5,206.2,289.8,204.9,290.1z M229.5,415c5.9,11.7,17.3,13.2,23.4,14.1c0.9,0.2,1.9,0.3,2.5,0.3
					c-3.9,3.6-16.9,2.2-21.5,1.4l-8.3-1.5l7.5,3.9c3.9,2,9.8,6.4,9.6,9.5c-0.2,2-3.2,3.2-5.7,4.1c-15.7,4.9-31.5-18.8-31.7-19.2
					l-2.2-3.6l-0.2,4.1c0,1.5-0.5,4.8-2,5.6c-0.2,0.2-0.9,0.5-2,0c-3.6-1.5-4.1-11.7-3.7-17.8l0.5-6.9l-2.9,6.3
					c-0.2,0.2-10.8,22.7-21.9,20.7c-3.6-0.7-5.7-1.7-6.4-3.4c-0.7-2,1-4.2,1-4.4l4.4-5.6l-6.1,3.7c-5.4,3.2-12.2,5.9-14.1,4.9
					c-0.2-0.2-0.3-0.3-0.3-0.5c-0.3-1.7,2-5.2,3.7-7.3l1.5-1.7l-2.2-0.3c-7.6-1.4-28.3-6.1-31.9-12.2c-0.5-0.9-0.5-1.5-0.3-2.4
					c3-9,18.3-12.9,18.3-12.9l10-2.5h-10.4c-0.2,0-16.1-0.3-33-23.9c-5.1-7.1-6.6-13-4.8-17.4c2.4-5.6,10-7.8,13-8.5
					c0.7,2.9,2.9,9.8,9.5,13.9c6.9,4.1,16.5,3.9,28.3-0.7c17.3-6.8,33.9-19.5,39.1-23.5c2.9,6.6,8,14.9,16.8,23.1
					c10,9.3,20.7,15.1,29.1,17.4C232.2,378.7,221.7,399.9,229.5,415z M255.4,364.2c-1.5,3-5.6,5.6-10,6.1
					c-7.6,1.2-23.4-5.2-36.8-17.8c-16.1-15.3-19.3-29.8-19.2-33.9c0.2-4.2,4.6-9.6,8.8-9.6h0.2c4.6,0.2,6.8,4.4,10.3,11
					c3.6,6.6,8,14.9,16.8,22.4c9.8,8.3,17.1,11,22.5,13c4.1,1.5,6.4,2.4,7.6,4.8C256.4,361.6,256,363.1,255.4,364.2z M253.7,354.8
					c-1.4-0.7-2.9-1.2-4.8-1.9c-5.2-1.9-12.2-4.6-21.7-12.6c-8.5-7.1-12.7-15.3-16.1-21.5c-1.5-2.9-2.9-5.4-4.4-7.5l4.6-5.1
					c2.7,9.1,12.7,21,18.3,26.6c10.7,10.7,22.5,14.9,30,16.5L253.7,354.8z M285.3,341.4c-6.6,2.9-14.7,6.4-18.1,6.4
					c-3.2-0.2-20.5-1.7-35.6-16.8c-9.1-9-18.3-22-18.3-29.1c0-4.9,3.4-18.3,3.4-18.6c0.2-0.2,0.5-0.5,0.7-0.7c0.3-0.3,0.7-0.7,1-1
					c2.7,7.8,14.7,39.1,37.5,50.2c10.3,5.1,21.9,7.8,33.2,8.1C288,340.2,286.8,340.7,285.3,341.4z M323.4,329.2
					c-19.3,10.3-45.5,10.3-66.5,0c-23.1-11.4-35.1-45.8-36.5-49.9c1.9-1.9,3.7-3.6,5.4-5.2c2.9,8,14.9,38.2,31.7,48.2
					c11.2,6.8,22.7,9,33.2,9c18.3,0,33.6-7.3,38.7-11.7c1,0.9,2,1.5,3,2.5C331.6,323.5,329.2,326.2,323.4,329.2z M339.2,324.8
					c-2.4-2.4-4.8-4.9-7.5-6.9c-0.3-2.4-0.7-10.3,8.5-18.5c5.2-4.8,11.5-4.2,13-4.1c2,1.7,4.2,3.7,6.1,5.7l0,0
					c0.2,0.2,0.3,0.3,0.5,0.3l0.2,0.2c-3,0-7.6,0.9-11.9,4.6C340,313.7,339,321.1,339.2,324.8z M374.2,321.1c-0.2,2-5.1,5.9-11,8.3
					c-0.7,0.3-1.5,0.5-2.4,0.9c-4.6,1.9-9.6,4.1-13,3c-1.5-0.5-4.1-3.2-6.8-6.1l0,0c0,0,0,0,0-0.2c-0.2-0.3-2.4-9.6,8.3-19.2
					c4.8-4.2,10-4.2,12.4-4.1C368.9,311.2,374.2,319.4,374.2,321.1z M394.4,308.2l-0.7,0.5c-5.4,3.9-12.2,5.7-13.9,4.9
					c-1.2-0.5-6.9-5.2-12.6-9.8c-0.3-5.4,4.4-10,8.7-13c4.8-3.4,9-4.1,11-4.2c8,6.8,13.5,13.4,13.9,14.9
					C400.8,303.6,399.2,304.8,394.4,308.2z"/>
				<ellipse transform="matrix(0.866 -0.5 0.5 0.866 -41.341 163.5108)" class="st11" cx="284.4" cy="158.9" rx="3.2" ry="4.9"/>
				<ellipse class="st11" cx="334" cy="149.2" rx="2" ry="1"/>
				<path class="st11" d="M266.1,406.3c-6.6,0-11.9,3.2-11.9,7.5s5.2,7.5,11.9,7.5s11.9-3.2,11.9-7.5
					C278,409.8,272.7,406.3,266.1,406.3z M266.1,418.7c-5.4,0-9.3-2.5-9.3-4.8c0-2.4,3.7-4.8,9.3-4.8s9.3,2.5,9.3,4.8
					C275.3,416.2,271.5,418.7,266.1,418.7z"/>
				<path class="st11" d="M289.8,398.4c-3.7,0-6.8,3-6.8,6.8c0,3.8,3,6.8,6.8,6.8c3.7,0,6.8-3,6.8-6.8
					C296.8,401.4,293.7,398.4,289.8,398.4z M289.8,409.6c-2.4,0-4.2-1.9-4.2-4.2c0-2.4,1.9-4.2,4.2-4.2s4.2,1.9,4.2,4.2
					C294,407.7,292.2,409.6,289.8,409.6z"/>
				<path class="st11" d="M128.6,340.9c0,5.4,3.4,10,7.5,10c4.1,0,7.5-4.4,7.5-10c0-5.6-3.4-10-7.5-10
					C131.9,330.9,128.6,335.3,128.6,340.9z M140.8,340.9c0,3.9-2.2,7.3-4.8,7.3c-2.5,0-4.8-3.4-4.8-7.3c0-3.9,2.2-7.3,4.8-7.3
					C138.6,333.6,140.8,336.8,140.8,340.9z"/>
				<path class="st11" d="M130.1,316.6c4.1,0,7.1-1.7,7.1-4.1c0-2.4-3-4.1-7.1-4.1s-7.1,1.8-7.1,4.1
					C123,314.9,125.9,316.6,130.1,316.6z M130.1,311c2.9,0,4.4,1,4.6,1.4c0,0.3-1.5,1.4-4.6,1.4c-3,0-4.4-1-4.6-1.4
					C125.7,312.2,127.2,311,130.1,311z"/>
				<path class="st11" d="M199.8,320.9c-1.9,0-3.2,1.5-3.2,3.2s1.5,3.2,3.2,3.2c1.7,0,3.2-1.5,3.2-3.2S201.5,320.9,199.8,320.9z
					 M199.8,325.6c-0.9,0-1.5-0.7-1.5-1.5c0-0.9,0.7-1.5,1.5-1.5c0.9,0,1.5,0.7,1.5,1.5C201.3,325,200.7,325.6,199.8,325.6z"/>
				<path class="st11" d="M209.3,336.8c-0.9,0.2-1.5,0.9-2,1.5c-0.5,0.9-0.5,1.7-0.3,2.5c0.2,0.9,0.9,1.5,1.5,2
					c0.5,0.3,1,0.5,1.7,0.5c0.3,0,0.5,0,0.9-0.2c1.7-0.5,2.9-2.4,2.4-4.1C212.8,337.3,211.2,336.3,209.3,336.8z M210.6,341.6
					c-0.3,0.2-0.9,0-1.2-0.2c-0.3-0.2-0.5-0.5-0.7-0.9c-0.2-0.3,0-0.9,0.2-1.2c0.2-0.3,0.5-0.5,0.9-0.7c0.2,0,0.3,0,0.3,0
					c0.7,0,1.4,0.5,1.5,1.2C211.8,340.6,211.3,341.2,210.6,341.6z"/>
				<path class="st11" d="M223.2,350c-1.7,0.5-2.9,2.4-2.4,4.1c0.3,1.5,1.7,2.4,3.2,2.4c0.3,0,0.5,0,0.9-0.2
					c1.7-0.5,2.9-2.4,2.4-4.1C226.8,350.5,224.9,349.5,223.2,350z M224.4,354.6c-0.9,0.2-1.7-0.3-1.9-1.2c-0.2-0.3,0-0.9,0.2-1.2
					c0.2-0.3,0.5-0.5,0.9-0.7c0.9-0.2,1.7,0.3,1.9,1.2C225.8,353.6,225.2,354.4,224.4,354.6z"/>
				<path class="st11" d="M242,358.9c-1.7,0.5-2.9,2.4-2.4,4.1c0.3,1.5,1.7,2.4,3.2,2.4c0.3,0,0.5,0,0.9-0.2c0.9-0.2,1.5-0.9,2-1.5
					c0.5-0.9,0.5-1.7,0.3-2.5C245.6,359.3,243.8,358.3,242,358.9z M244.3,362.8c-0.2,0.3-0.5,0.5-0.9,0.7c-0.9,0.2-1.7-0.3-1.9-1.2
					c-0.2-0.9,0.3-1.7,1.2-1.9c0.9-0.2,1.7,0.3,1.9,1.2C244.4,362.1,244.4,362.4,244.3,362.8z"/>
				<path class="st11" d="M150.4,313.3c0.2,0.5,0.3,1,0.3,1.5l0.2,0.7c0,0.3,0,0.5,0,0.7c0,0.9-0.2,1.9-0.7,2.9
					c-0.5,0.9-1.2,1.7-1.9,2.4c0.9-0.5,1.7-1.4,2.2-2.2c0.5-0.9,1-1.9,1-3c0-0.3,0-0.5,0-0.9v-0.9c0-0.5-0.2-1-0.2-1.5
					c0-0.2,0-0.3,0-0.3c0.2,0.2,0.3,0.3,0.5,0.5c0.9,0.9,1.9,1.5,2.9,2c1.2,0.5,2.4,0.9,3.6,1.2c0.7,0.2,1.5,0.2,2,0.2
					c-0.2,0.5-0.3,0.9-0.5,1.4c-0.3,0.9-0.5,1.9-0.5,3c0,0.9,0.3,1.7,0.5,2.5c-0.2-0.2-0.3-0.2-0.3-0.3c-1-0.9-2.2-1.5-3.4-2
					c-0.5-0.3-1.2-0.5-1.9-0.7c-0.7-0.2-1.4-0.2-2,0c-1.4,0.2-2.5,0.3-3.7,0.7c1.2-0.2,2.5-0.2,3.7-0.2c0.5,0,1.2,0,1.7,0.3
					s1.2,0.5,1.7,0.7c1.2,0.5,2,1.2,3,2c0.9,0.9,1.9,1.7,2.5,2.5l3.2,4.4l-2-5.1c-0.3-0.9-0.7-1.7-0.9-2.5c-0.3-0.9-0.5-1.7-0.5-2.5
					c0-0.7,0.3-1.5,0.5-2.4c0.3-0.9,0.7-1.7,1.2-2.4l0.9-1.5l-1.7,0.2c-1,0-2.2,0-3.2-0.2s-2-0.5-3-0.9c-0.9-0.5-1.9-1-2.5-1.7
					c-0.9-0.7-1.5-1.5-2.2-2.4l-2.9-3.7l1.7,4.4C149.9,311.2,150.2,312.2,150.4,313.3z"/>
				<path class="st11" d="M286.8,375c0.2,0.3,0.3,0.5,0.5,0.9c0.3,0.5,0.7,1.4,0.9,2s0.3,1.5,0.5,2l0.5,5.2l0.9-5.2
					c0-0.5,0.2-1,0.3-1.5c0.2-0.5,0.3-1,0.5-1.4c0.2-0.3,0.5-0.7,1-1c0.3-0.3,0.9-0.7,1.4-0.9l1.5-0.9l-1.5-0.7
					c-0.5-0.3-1-0.5-1.5-1c-0.5-0.3-0.9-0.9-1.2-1.4c-0.3-0.5-0.5-1-0.9-1.7c-0.2-0.5-0.3-1.2-0.5-1.9l-0.7-4.8l-0.5,4.8
					c0,0.5-0.2,1.2-0.3,1.7l-0.3,0.9l-0.2,0.5c0,0.2,0,0.3-0.2,0.3c-0.5,1-1.5,1.7-2.9,2c0.7,0,1.2-0.2,1.9-0.3
					c0.5-0.3,1.2-0.7,1.5-1.2c0.2-0.2,0.2-0.3,0.3-0.5l0.2-0.3l0.2-0.3c0.2,0.7,0.5,1.2,0.9,1.9c0.3,0.7,0.9,1.2,1.5,1.7
					c0.2,0.2,0.5,0.3,0.7,0.5c-0.2,0-0.3,0.2-0.3,0.3c-0.5,0.3-0.9,0.9-1.4,1.5c-0.2,0.3-0.3,0.5-0.3,0.9c-0.3-0.5-0.5-1.2-1-1.7
					c-0.3-0.3-0.5-0.5-0.9-0.9s-0.7-0.5-1-0.7c-0.7-0.3-1.5-0.5-2.2-0.7c0.7,0.3,1.4,0.9,2,1.2C286.3,374.7,286.6,374.8,286.8,375z"
					/>
				<path class="st11" d="M254.9,397.9l-2,5.1l3.4-4.4c0.5-0.7,1.2-1.5,1.7-2c0.5-0.5,1.2-1.2,2-1.7c0.7-0.3,1.5-0.5,2.4-0.7
					c0.9-0.2,1.7-0.2,2.5-0.3h1.7l-0.9-1.4c-0.5-0.9-1-1.9-1.5-2.9c-0.3-1-0.5-2-0.7-3c0-1,0-2,0.2-3.2c0.2-1,0.5-2.2,0.9-3l1.7-4.4
					l-2.9,3.7c-0.5,0.7-1.4,1.5-2,2.2c-0.3,0.3-0.7,0.7-1.2,1l-0.5,0.5c-0.2,0.2-0.3,0.3-0.5,0.5c-0.9,0.5-1.7,0.9-2.7,0.9
					c-1,0-2-0.2-3-0.3c0.9,0.5,1.9,0.9,3,0.9c1,0,2.2,0,3.2-0.5c0.3-0.2,0.5-0.3,0.7-0.5l0.7-0.5c0.3-0.3,0.9-0.5,1.2-0.9
					c0,0,0.2-0.2,0.3-0.2c0,0.3-0.2,0.5-0.2,0.7c-0.3,1.2-0.3,2.4-0.3,3.6c0,1.2,0.3,2.4,0.7,3.6c0.3,0.7,0.5,1.4,0.9,2
					c-0.5,0-1,0.2-1.5,0.2c-1,0.2-2,0.3-2.9,1c-0.9,0.5-1.4,1.2-1.9,1.7c0-0.2,0-0.3,0-0.5c0.2-1.4,0.2-2.5,0-3.9
					c0-0.7-0.2-1.2-0.3-2c-0.3-0.7-0.5-1.2-0.9-1.7c-0.7-1-1.5-2-2.5-2.9c0.7,1,1.5,2,2,3.2c0.3,0.5,0.5,1.2,0.7,1.7
					c0.2,0.5,0.2,1.2,0.2,1.7c0,1.2,0,2.4-0.3,3.7C255.6,395.5,255.3,396.7,254.9,397.9z"/>
				<path class="st11" d="M336.9,310.9c-1.5,0-2.5,1.2-2.5,2.5c0,1.3,1.2,2.5,2.5,2.5c1.3,0,2.5-1.2,2.5-2.5
					C339.4,312.1,338.2,310.9,336.9,310.9z M336.9,314.3c-0.5,0-0.9-0.3-0.9-0.9c0-0.5,0.3-0.9,0.9-0.9s0.9,0.3,0.9,0.9
					C337.7,313.9,337.3,314.3,336.9,314.3z"/>
				<path class="st11" d="M342.3,302.4c-0.7,0-1.4,0.2-1.9,0.5c-0.5,0.5-0.9,1-0.9,1.7c0,0.7,0.2,1.4,0.5,1.9c0.5,0.5,1,0.9,1.7,0.9
					c0,0,0.2,0,0.3,0c0.5,0,1.2-0.2,1.7-0.5c0.5-0.5,0.9-1,0.9-1.7c0-0.7-0.2-1.4-0.5-1.9C343.5,302.8,342.9,302.4,342.3,302.4z
					 M342.4,305.6c-0.2,0.2-0.3,0.2-0.5,0.2s-0.3-0.2-0.5-0.3c-0.2-0.2-0.2-0.3-0.2-0.5s0.2-0.3,0.3-0.5c0.2-0.2,0.3-0.2,0.5-0.2
					l0,0c0.2,0,0.3,0.2,0.5,0.3c0.2,0.1,0.2,0.3,0.2,0.5S342.6,305.5,342.4,305.6z"/>
				<path class="st11" d="M350.5,302.2c0,0,0.2,0,0.3,0c0.5,0,1.2-0.2,1.7-0.5c0.5-0.5,0.9-1,0.9-1.7c0-0.7-0.2-1.4-0.5-1.9
					c-0.3-0.5-1-0.9-1.7-0.9c-0.7,0-1.4,0.2-1.9,0.5c-0.5,0.3-0.9,1-0.9,1.7c0,0.7,0.2,1.4,0.5,1.9
					C349.2,301.9,349.9,302.2,350.5,302.2z M350.2,299c0.2-0.2,0.3-0.2,0.5-0.2l0,0c0.2,0,0.3,0.2,0.5,0.3c0.2,0.2,0.2,0.3,0.2,0.5
					s-0.2,0.3-0.3,0.5c-0.2,0.2-0.3,0.2-0.5,0.2c-0.2,0-0.3-0.2-0.5-0.3c-0.2-0.2-0.2-0.3-0.2-0.5S350.1,299.2,350.2,299z"/>
				<path class="st11" d="M364,292.4c-1.5,0-2.5,1.2-2.5,2.5c0,1.4,1.2,2.5,2.5,2.5c1.3,0,2.5-1.2,2.5-2.5
					C366.5,293.6,365.3,292.4,364,292.4z M364,295.6c-0.5,0-0.9-0.3-0.9-0.9s0.3-0.9,0.9-0.9c0.5,0,0.9,0.3,0.9,0.9
					S364.5,295.6,364,295.6z"/>
				<path class="st11" d="M370.1,289.8c0.5,0,1.2-0.2,1.7-0.5c1.2-0.9,1.2-2.5,0.3-3.6c-0.9-1.2-2.5-1.2-3.6-0.3l0,0
					c-0.5,0.5-0.9,1-0.9,1.7c0,0.7,0.2,1.4,0.5,1.9C368.6,289.5,369.2,289.8,370.1,289.8z M369.4,286.6c0.3-0.3,0.9-0.3,1.2,0.2
					c0.3,0.3,0.3,0.9-0.2,1.2c-0.3,0.3-0.9,0.3-1.2-0.2c-0.2-0.2-0.2-0.3-0.2-0.5C369.1,287.1,369.4,286.8,369.4,286.6z"/>
			</g>
		</g>
		<g>
			<path class="st12" d="M389.8,169.3L389.8,169.3l-28,3.7c0-0.7-0.2-4.9,0-5.2l0,0c0.2-0.3,0.5-0.3,0.5-0.3l25.8-3.2
				c0,0,0.2,0,0.5,0.2l0,0C388.7,164.7,389.6,168.6,389.8,169.3z"/>
			<path class="st13" d="M389.8,169.6c0.3,1.9,2.2,14.1,1.9,20.4c-0.3,6.9-1.4,7.6-0.7,13.5c0.7,5.9,1.5,11.2,1.7,11.7
				c0.2,0.5,0.5,2.7-0.9,3.2c-1.4,0.5-5.4,1.7-8.1,2l-3,0.3c-2.7,0.3-6.8,0.2-8.3,0s-1.7-2.4-1.7-2.9c0-0.5-0.5-5.9-1.2-11.7
				c-0.9-5.9-2-6.3-4.1-12.9c-1.9-5.9-3-17.8-3.4-20v-0.2L389.8,169.6L389.8,169.6z"/>
			<path class="st14" d="M388.4,164.5c-0.3-0.2-0.5-0.2-0.5-0.2l-25.8,3.2c0,0-0.2,0-0.5,0.3l0,0c0-1.7,5.7-3.7,12.9-4.6
				C382,162.3,387.9,162.8,388.4,164.5z"/>
		</g>
	</g>
	<g>
		<path class="st15" d="M321.9,266.2L321.9,266.2L321.9,266.2c0.3,0.2,0.5,0.3,0.7,0.5c0.5,0.3,1,0.7,1.5,1c0.3,0.2,0.7,0.3,1,0.3
			c0.7,0.2,1.4,0,1.9-0.5c0.3-0.3,0.5-0.7,0.7-1c0.2-0.7,0.2-1.2-0.2-1.9c-0.2-0.3-0.5-0.7-0.9-0.9l0,0l0,0c0.3-0.3,0.5-0.5,0.7-1
			c0.3-1,0-2-0.7-2.7c-0.7-0.5-1.4-0.5-2.2-0.3c-0.3,0.2-0.7,0.3-1,0.5c-0.3,0.2-0.5,0.5-0.9,0.7c-0.3,0.3-0.5,0.5-0.9,0.9
			c-0.3,0.3-0.5,0.7-0.9,1l0,0l0,0l0,0c0-0.3,0.2-0.7,0.2-1c0.2-0.7,0.2-1.2,0.2-1.9c0-0.5,0-0.9-0.2-1.4c-0.2-0.3-0.3-0.7-0.5-1
			c-0.3-0.3-0.7-0.5-1.2-0.7c-1-0.2-1.9,0.2-2.4,1c-0.2,0.3-0.3,0.9-0.3,1.4c0,0,0,0,0,0.2l0,0l0,0c-0.2,0-0.5-0.2-0.7-0.2
			c-0.7,0-1.2,0.2-1.7,0.7c-0.2,0.2-0.5,0.5-0.5,0.9c-0.3,0.9-0.2,1.9,0.5,2.5c0.3,0.3,0.5,0.5,0.9,0.7c0.5,0.3,1,0.5,1.7,0.5
			c0.5,0.2,1.2,0.2,1.7,0.3l0,0l0,0l0,0c-0.5,0.2-1,0.3-1.4,0.5c-0.3,0.2-0.9,0.3-1.2,0.7c-0.3,0.2-0.5,0.3-0.7,0.5
			c-0.2,0.2-0.3,0.3-0.5,0.5c-0.3,0.5-0.5,1-0.5,1.5c0,0.7,0.3,1.2,0.7,1.7c0.5,0.5,1,0.7,1.9,0.7c0.3,0,0.7-0.2,1-0.3l0,0l0,0
			c0,0.3,0.2,0.5,0.3,0.9c0.2,0.3,0.5,0.7,1,0.9c0.9,0.3,1.9,0.2,2.5-0.3c0.3-0.3,0.5-0.7,0.7-1s0.2-0.7,0.2-1c0-0.5-0.2-1-0.2-1.5
			c-0.2-0.3-0.2-0.9-0.3-1.2l0,0c0,0,0,0,0,0.2c0.2,0.3,0.5,0.7,0.7,1c0.2,0.3,0.5,0.5,0.7,0.9s0.5,0.5,0.7,0.7
			c0.3,0.3,0.9,0.7,1.2,1l0,0c0.2,0,1-0.7,1-0.9l0,0c-0.3-0.2-0.7-0.3-1-0.7c-0.5-0.3-1-0.9-1.5-1.2c-0.3-0.2-0.5-0.5-0.9-0.9
			c-0.2-0.2-0.3-0.3-0.5-0.5C322.1,266.6,322.1,266.6,321.9,266.2C321.9,266.4,321.9,266.4,321.9,266.2z"/>
		<path class="st16" d="M321.9,266.2C321.9,266.4,321.9,266.4,321.9,266.2c0.2,0.2,0.3,0.3,0.3,0.5c0.2,0.2,0.3,0.3,0.5,0.5
			c0.2,0.3,0.5,0.5,0.9,0.9c0.5,0.5,1,0.9,1.5,1.2c0.3,0.2,0.7,0.5,1,0.7l0,0c0,0-1,0.7-1,0.9l0,0c-0.3-0.3-0.9-0.7-1.2-1
			c-0.2-0.2-0.5-0.5-0.7-0.7c-0.2-0.3-0.5-0.5-0.7-0.9c-0.3-0.3-0.5-0.7-0.7-1c0,0,0,0,0-0.2l0,0c0.2,0.3,0.2,0.7,0.3,1.2
			c0.2,0.5,0.2,1,0.2,1.5c0,0.3,0,0.7-0.2,1c-0.2,0.3-0.3,0.9-0.7,1c-0.7,0.5-1.7,0.7-2.5,0.3c-0.3-0.2-0.7-0.5-1-0.9
			c-0.2-0.3-0.3-0.5-0.3-0.9l0,0l0,0c-0.3,0.2-0.7,0.3-1,0.3c-0.7,0-1.4-0.2-1.9-0.7c-0.5-0.5-0.7-1-0.7-1.7c0-0.5,0.2-1,0.5-1.5
			c0.2-0.2,0.3-0.3,0.5-0.5s0.5-0.3,0.7-0.5c0.3-0.2,0.9-0.5,1.2-0.7c0.5-0.2,0.9-0.3,1.4-0.5l0,0l0,0l0,0c-0.5,0-1.2-0.2-1.7-0.3
			c-0.5-0.2-1.2-0.3-1.7-0.5c-0.3-0.2-0.7-0.3-0.9-0.7c-0.7-0.7-0.9-1.7-0.5-2.5c0.2-0.3,0.3-0.5,0.5-0.9c0.5-0.5,1-0.7,1.7-0.7
			c0.2,0,0.5,0,0.7,0.2l0,0l0,0c0,0,0,0,0-0.2c0-0.5,0.2-0.9,0.3-1.4c0.5-0.9,1.5-1.2,2.4-1c0.5,0.2,0.9,0.3,1.2,0.7s0.3,0.7,0.5,1
			c0.2,0.5,0.2,0.9,0.2,1.4c0,0.7,0,1.2-0.2,1.9c0,0.3-0.2,0.7-0.2,1l0,0l0,0l0,0c0.3-0.3,0.5-0.7,0.9-1s0.5-0.7,0.9-0.9
			s0.5-0.5,0.9-0.7c0.3-0.2,0.7-0.3,1-0.5c0.9-0.2,1.5-0.2,2.2,0.3c0.9,0.7,1.2,1.7,0.7,2.7c-0.2,0.3-0.3,0.7-0.7,1l0,0l0,0
			c0.3,0.2,0.7,0.5,0.9,0.9c0.3,0.5,0.3,1.2,0.2,1.9c-0.2,0.3-0.3,0.7-0.7,1c-0.5,0.5-1.2,0.7-1.9,0.5c-0.3,0-0.7-0.2-1-0.3
			c-0.5-0.3-1-0.5-1.5-1C322.3,266.6,322.1,266.4,321.9,266.2L321.9,266.2L321.9,266.2z"/>
	</g>
</g>
</svg>
