<?xml version="1.0" encoding="utf-8"?>
<!-- Generator: Adobe Illustrator 27.3.1, SVG Export Plug-In . SVG Version: 6.00 Build 0)  -->
<svg version="1.1" id="Layer_1" xmlns:serif="http://www.serif.com/"
	 xmlns="http://www.w3.org/2000/svg" xmlns:xlink="http://www.w3.org/1999/xlink" x="0px" y="0px" viewBox="0 0 1200 1200"
	 style="enable-background:new 0 0 1200 1200;" xml:space="preserve">
<style type="text/css">
	.st0{fill-rule:evenodd;clip-rule:evenodd;fill:#009A49;}
</style>
<path class="st0" d="M1005.1,60c72.8,0,131.9,59.1,131.9,131.9V1008c0,72.8-59.1,131.9-131.9,131.9H189
	c-72.8,0-131.9-59.1-131.9-131.9V191.9C57,119.1,116.1,60,189,60H1005.1L1005.1,60z M960.8,430.5c-8.7-32.7-34.5-58.4-67.1-67.1
	C834.5,347.5,597,347.5,597,347.5s-237.5,0-296.7,15.9c-32.7,8.7-58.4,34.5-67.1,67.1c-15.9,59.2-15.9,182.8-15.9,182.8
	s0,123.6,15.9,182.8c8.7,32.7,34.5,58.4,67.1,67.1C359.5,879,597,879,597,879s237.5,0,296.7-15.9c32.7-8.7,58.4-34.5,67.1-67.1
	c15.9-59.2,15.9-182.8,15.9-182.8S976.7,489.7,960.8,430.5z M521.1,727.2V499.3l197.3,113.9L521.1,727.2L521.1,727.2z"/>
</svg>
